<?xml version="1.0" standalone="no"?>
<!DOCTYPE svg PUBLIC "-//W3C//DTD SVG 1.1//EN" "http://www.w3.org/Graphics/SVG/1.1/DTD/svg11.dtd" >
<svg xmlns="http://www.w3.org/2000/svg" xmlns:xlink="http://www.w3.org/1999/xlink" version="1.1">
<metadata>
Created by FontForge 20201107 at Fri Sep 26 14:20:03 2025
 By 
Copyright (c) 2024 by TypeType. All rights reserved. Special version for HSE by TT (26 sept 2025).
</metadata>
<defs>
<font id="TTTravelsTextEdu-Black" horiz-adv-x="692" >
  <font-face 
    font-family="TT Travels Text Edu Black"
    font-weight="900"
    font-stretch="normal"
    units-per-em="1000"
    panose-1="2 11 0 3 4 0 0 2 2 4"
    ascent="800"
    descent="-200"
    x-height="509"
    cap-height="700"
    bbox="-520 -312 1488 1096"
    underline-thickness="90"
    underline-position="-200"
    unicode-range="U+000D-FB04"
  />
<missing-glyph horiz-adv-x="900" 
d="M100 0v284h45v-139h33v139h50v31h-128v126l19 -61h23l34 106l33 -106h23l54 170h-32l-34 -110l-35 110h-19l-35 -110l-31 103v157h700v-150h-110v-170h110v-91q-6 13 -19.5 20t-30.5 7q-27 0 -43.5 -14.5t-16.5 -34.5q0 -22 14.5 -32.5t39.5 -17.5q17 -5 25.5 -9.5
t8.5 -13.5q0 -21 -28 -21q-14 0 -21 7t-7 18h-33q0 -24 17 -39.5t44 -15.5q17 0 30.5 6.5t19.5 13.5v-163h-700zM311 380h33v62h24l35 -62h37l-40 67q36 17 36 50q0 22 -16 37.5t-41 15.5h-68v-170zM469 550v-170h33v170h-33zM580 519v-139h32v139h50v31h-132v-31h50z
M344 473v46h35q10 0 17 -6.5t7 -16.5q0 -12 -7.5 -17.5t-16.5 -5.5h-35zM800 483h-78v36h78v-36zM800 411h-78v41h78v-41zM387.5 167.5q22.5 24.5 22.5 61.5t-23 62t-59 25t-59 -25t-23 -62t22.5 -61.5t59.5 -24.5t59.5 24.5zM633 162q19 19 19 47v106h-32v-106
q0 -15 -9.5 -25t-25.5 -10q-17 0 -26.5 10.5t-9.5 24.5v106h-32v-106q0 -28 19.5 -47t48.5 -19t48 19zM800 224q-15 14 -46 22q-16 5 -23 9t-7 12q0 9 7.5 14.5t18.5 5.5q10 0 18 -7t8 -18h24v-38zM291.5 190q-14.5 16 -14.5 39q0 25 14 40.5t37 15.5q24 0 37.5 -15.5
t13.5 -40.5q0 -23 -14.5 -39t-36.5 -16t-36.5 16z" />
    <glyph glyph-name="f_f" unicode="ff" horiz-adv-x="832" 
d="M702 560q-24 -16 -30 -51h146v-140h-144v-369h-182v369h-195v-369h-181v369h-105v115l107 27q9 104 67.5 153.5t168.5 49.5q54 0 100 -10v-134q-29 6 -63 6q-42 0 -66 -16t-30 -51h199q9 106 67.5 155.5t169.5 49.5q28 0 59 -3t51 -8v-134q-32 7 -73 7q-42 0 -66 -16z
" />
    <glyph glyph-name="f_i" unicode="fi" horiz-adv-x="745" 
d="M512.5 595q-27.5 26 -27.5 67t27.5 67.5t70.5 26.5q42 0 70 -26.5t28 -67.5q0 -40 -28 -66.5t-70 -26.5q-43 0 -70.5 26zM325 560q-24 -16 -30 -51h379v-509h-182v369h-195v-369h-181v369h-105v115l107 27q9 104 67.5 153.5t168.5 49.5q39 0 70 -6v-134q-11 2 -33 2
q-42 0 -66 -16z" />
    <glyph glyph-name="f_f_i" unicode="ffi" horiz-adv-x="1122" 
d="M889.5 595q-27.5 26 -27.5 67t27.5 67.5t70.5 26.5q42 0 69.5 -26.5t27.5 -67.5q0 -40 -27.5 -66.5t-69.5 -26.5q-43 0 -70.5 26zM702 560q-24 -16 -30 -51h378v-509h-181v369h-195v-369h-182v369h-195v-369h-181v369h-105v115l107 27q9 104 67.5 153.5t168.5 49.5
q54 0 100 -10v-134q-29 6 -63 6q-42 0 -66 -16t-30 -51h199q9 106 67.5 155.5t169.5 49.5q39 0 70 -6v-134q-11 2 -33 2q-42 0 -66 -16z" />
    <glyph glyph-name="f_f_j" unicode="ffj" horiz-adv-x="1122" 
d="M889.5 595q-27.5 26 -27.5 67t27.5 67.5t70.5 26.5q42 0 69.5 -26.5t27.5 -67.5q0 -40 -27.5 -66.5t-69.5 -26.5q-43 0 -70.5 26zM702 560q-24 -16 -30 -51h378v-496q0 -111 -60 -169t-173 -58q-51 0 -85 10v149q24 -6 50 -6q45 0 66 21t21 73v336h-195v-369h-182v369
h-195v-369h-181v369h-105v115l107 27q9 104 67.5 153.5t168.5 49.5q54 0 100 -10v-134q-29 6 -63 6q-42 0 -66 -16t-30 -51h199q9 106 67.5 155.5t169.5 49.5q39 0 70 -6v-134q-11 2 -33 2q-42 0 -66 -16z" />
    <glyph glyph-name="f_j" unicode="fj" horiz-adv-x="745" 
d="M512.5 595q-27.5 26 -27.5 67t27.5 67.5t70.5 26.5q42 0 70 -26.5t28 -67.5q0 -40 -28 -66.5t-70 -26.5q-43 0 -70.5 26zM325 560q-24 -16 -30 -51h379v-496q0 -111 -60 -169t-174 -58q-50 0 -84 10v149q23 -6 50 -6q44 0 65 21.5t21 72.5v336h-195v-369h-181v369h-105
v115l107 27q9 104 67.5 153.5t168.5 49.5q39 0 70 -6v-134q-11 2 -33 2q-42 0 -66 -16z" />
    <glyph glyph-name=".notdef" horiz-adv-x="900" 
d="M100 0v284h45v-139h33v139h50v31h-128v126l19 -61h23l34 106l33 -106h23l54 170h-32l-34 -110l-35 110h-19l-35 -110l-31 103v157h700v-150h-110v-170h110v-91q-6 13 -19.5 20t-30.5 7q-27 0 -43.5 -14.5t-16.5 -34.5q0 -22 14.5 -32.5t39.5 -17.5q17 -5 25.5 -9.5
t8.5 -13.5q0 -21 -28 -21q-14 0 -21 7t-7 18h-33q0 -24 17 -39.5t44 -15.5q17 0 30.5 6.5t19.5 13.5v-163h-700zM311 380h33v62h24l35 -62h37l-40 67q36 17 36 50q0 22 -16 37.5t-41 15.5h-68v-170zM469 550v-170h33v170h-33zM580 519v-139h32v139h50v31h-132v-31h50z
M344 473v46h35q10 0 17 -6.5t7 -16.5q0 -12 -7.5 -17.5t-16.5 -5.5h-35zM800 483h-78v36h78v-36zM800 411h-78v41h78v-41zM387.5 167.5q22.5 24.5 22.5 61.5t-23 62t-59 25t-59 -25t-23 -62t22.5 -61.5t59.5 -24.5t59.5 24.5zM633 162q19 19 19 47v106h-32v-106
q0 -15 -9.5 -25t-25.5 -10q-17 0 -26.5 10.5t-9.5 24.5v106h-32v-106q0 -28 19.5 -47t48.5 -19t48 19zM800 224q-15 14 -46 22q-16 5 -23 9t-7 12q0 9 7.5 14.5t18.5 5.5q10 0 18 -7t8 -18h24v-38zM291.5 190q-14.5 16 -14.5 39q0 25 14 40.5t37 15.5q24 0 37.5 -15.5
t13.5 -40.5q0 -23 -14.5 -39t-36.5 -16t-36.5 16z" />
    <glyph glyph-name=".null" horiz-adv-x="0" 
 />
    <glyph glyph-name="nonmarkingreturn" unicode="&#xd;" horiz-adv-x="481" 
 />
    <glyph glyph-name="space" unicode=" " horiz-adv-x="249" 
 />
    <glyph glyph-name="exclam" unicode="!" horiz-adv-x="335" 
d="M235 233h-136l-24 332v135h184v-135zM94 17.5q-30 27.5 -30 71.5t30 71.5t73 27.5q44 0 74 -27.5t30 -71.5t-30 -71.5t-74 -27.5q-43 0 -73 27.5z" />
    <glyph glyph-name="quotedbl" unicode="&#x22;" horiz-adv-x="498" 
d="M193 410h-119l-20 209v81h159v-81zM424 410h-119l-20 209v81h159v-81z" />
    <glyph glyph-name="numbersign" unicode="#" horiz-adv-x="730" 
d="M716 546v-122h-127l-36 -149h94v-122h-124l-37 -153h-145l37 153h-127l-37 -153h-145l37 153h-92v122h122l36 149h-89v122h119l37 154h145l-37 -154h127l38 154h144l-37 -154h97zM281 275h127l37 149h-128z" />
    <glyph glyph-name="dollar" unicode="$" horiz-adv-x="751" 
d="M644 58q-66 -56 -193 -69v-104h-150v105q-130 14 -195.5 73t-65.5 152h210q0 -75 131 -75q56 0 87.5 14t31.5 44q0 24 -20 39t-51 22.5t-88 17.5q-88 15 -145.5 33t-99 62t-41.5 122q0 88 64.5 145.5t181.5 70.5v105h150v-107q113 -16 174.5 -73t61.5 -143h-209
q0 32 -29 50t-83 18q-49 0 -75 -14t-26 -41q0 -33 38 -48t118 -28q90 -16 147.5 -34.5t99.5 -63t42 -123.5q0 -94 -66 -150z" />
    <glyph glyph-name="percent" unicode="%" horiz-adv-x="909" 
d="M77 409q-51 49 -51 128t51 128t133 49q54 0 96 -22.5t65.5 -62.5t23.5 -92t-23.5 -92t-65.5 -62.5t-96 -22.5q-82 0 -133 49zM285 0h-140l481 700h139zM256 486.5q17 18.5 17 50.5t-17 50.5t-46 18.5t-45.5 -18.5t-16.5 -50.5t16.5 -50.5t45.5 -18.5t46 18.5zM603 8.5
q-42 22.5 -65.5 62.5t-23.5 92t23.5 92t65.5 62.5t96 22.5q82 0 133 -49t51 -128t-51 -128t-133 -49q-54 0 -96 22.5zM744.5 112.5q16.5 18.5 16.5 50.5t-16.5 50.5t-45.5 18.5t-46 -18.5t-17 -50.5t17 -50.5t46 -18.5t45.5 18.5z" />
    <glyph glyph-name="ampersand" unicode="&#x26;" horiz-adv-x="814" 
d="M624 0q0 37 -16 72q-101 -86 -269 -86q-137 0 -215 57t-78 157q0 55 26.5 101.5t76.5 78.5v6q-70 53 -70 137q0 54 32 97.5t95.5 68.5t154.5 25q90 0 158 -26.5t105.5 -75t38.5 -111.5h-187q-2 29 -32 46.5t-83 17.5q-85 0 -85 -47q0 -26 35 -47.5t115 -57.5
q72 -31 127 -60q2 36 2 57h184q0 -93 -25 -174q94 -101 94 -236h-184zM498 192q-79 56 -211 111l11 22q-31 -25 -45 -49.5t-14 -54.5q0 -40 32.5 -63t86.5 -23q91 0 140 57z" />
    <glyph glyph-name="quotesingle" unicode="'" horiz-adv-x="267" 
d="M193 410h-119l-20 209v81h159v-81z" />
    <glyph glyph-name="parenleft" unicode="(" horiz-adv-x="470" 
d="M458 -250q-114 0 -206.5 64t-145.5 184t-53 282t53 282t145.5 184t206.5 64v-154q-57 0 -106 -47t-78.5 -132.5t-29.5 -196.5t29.5 -196.5t78.5 -132.5t106 -47v-154z" />
    <glyph glyph-name="parenright" unicode=")" horiz-adv-x="470" 
d="M11 -96q57 0 106.5 47t79 132.5t29.5 196.5t-29.5 196.5t-79 132.5t-106.5 47v154q114 0 206.5 -64t146 -184t53.5 -282t-53.5 -282t-146 -184t-206.5 -64v154z" />
    <glyph glyph-name="asterisk" unicode="*" horiz-adv-x="484" 
d="M238 622q-3 13 -9.5 23.5t-20.5 28.5q-17 21 -26 38t-9 40q0 28 19 44t50 16t50 -16t19 -44q0 -23 -9 -40t-26 -38q-13 -15 -20 -26.5t-10 -25.5h-8zM217 595q-20 1 -41 -5.5t-26 -7.5q-32 -10 -45 -10q-31 0 -51.5 16t-20.5 46q0 29 18 53t47 24t45.5 -15t35.5 -45
q11 -18 20.5 -29.5t20.5 -18.5zM264 603q11 7 19 17t21 30q19 30 36 45.5t46 15.5q28 0 46.5 -24.5t18.5 -52.5q0 -29 -20.5 -45.5t-51.5 -16.5q-13 0 -47 10q-42 14 -66 13zM105 425q-24 22 -24 49q0 19 14 36q14 18 30 25.5t44 15.5q22 6 34 10t23 13l6 -5
q-5 -13 -7 -24.5t-2 -26.5q0 -5 -2 -41q-2 -33 -19 -53.5t-45 -20.5t-52 22zM282 424.5q-17 21.5 -19 52.5q-2 36 -2 42q0 14 -2 25.5t-7 24.5l6 5q11 -9 23 -13.5t33 -9.5q28 -7 44.5 -14.5t30.5 -26.5q14 -17 14 -36q0 -27 -24.5 -49t-51.5 -22q-28 0 -45 21.5z" />
    <glyph glyph-name="plus" unicode="+" 
d="M415 422h177v-128h-177v-166h-137v166h-178v128h178v167h137v-167z" />
    <glyph glyph-name="comma" unicode="," horiz-adv-x="274" 
d="M213.5 159q28.5 -30 28.5 -74q0 -32 -10 -66t-31 -79l-53 -112h-82l50 164q-36 6 -59.5 31.5t-23.5 64.5q0 45 29.5 73t74.5 28q48 0 76.5 -30z" />
    <glyph glyph-name="hyphen" unicode="-" horiz-adv-x="334" 
d="M300 200h-266v129h266v-129z" />
    <glyph glyph-name="period" unicode="." horiz-adv-x="272" 
d="M63 18q-30 27 -30 72q0 44 30 71.5t73 27.5t73 -27.5t30 -71.5q0 -45 -30 -72t-73 -27t-73 27z" />
    <glyph glyph-name="slash" unicode="/" horiz-adv-x="526" 
d="M145 -120h-145l381 820h145z" />
    <glyph glyph-name="zero" unicode="0" horiz-adv-x="777" 
d="M211.5 31.5q-78.5 45.5 -123 128.5t-44.5 190t44.5 190t123 128.5t177.5 45.5t177 -45.5t122.5 -128.5t44.5 -190t-44.5 -190t-122.5 -128.5t-177 -45.5t-177.5 45.5zM485 209q35 52 35 141t-35 141t-96 52t-96 -52t-35 -141t35 -141t96 -52t96 52z" />
    <glyph glyph-name="one" unicode="1" horiz-adv-x="576" 
d="M418 700v-530h152v-170h-527v170h175v310l-154 -101v196l190 125h164z" />
    <glyph glyph-name="two" unicode="2" horiz-adv-x="696" 
d="M664 159v-159h-633v68q0 104 42.5 168t100.5 96.5t145 63.5q50 18 77.5 30.5t45.5 31t18 43.5q0 56 -91 56q-56 0 -88.5 -26.5t-32.5 -66.5h-201q0 75 39.5 131.5t112.5 87.5t170 31q144 0 219 -55.5t75 -149.5q0 -73 -37.5 -121t-90 -74.5t-132.5 -55.5
q-74 -27 -109.5 -47t-39.5 -52h410z" />
    <glyph glyph-name="three" unicode="3" horiz-adv-x="702" 
d="M110.5 49.5q-79.5 63.5 -79.5 182.5h202q0 -43 30 -66t83 -23t82.5 21t29.5 62q0 80 -115 80h-179v117l210 121v5h-306v151h556v-149l-216 -119v-6h19q111 0 172.5 -56t61.5 -148q0 -113 -81.5 -174.5t-234.5 -61.5q-155 0 -234.5 63.5z" />
    <glyph glyph-name="four" unicode="4" horiz-adv-x="717" 
d="M610 293h91v-159h-91v-134h-200v134h-390v158l328 408h262v-407zM222 299v-6h188v230h-6z" />
    <glyph glyph-name="five" unicode="5" horiz-adv-x="720" 
d="M131 49q-83 63 -83 179h201q0 -37 31 -61t83 -24q53 0 82 25t29 71q0 43 -29.5 67.5t-79.5 24.5q-65 0 -104 -48h-194l63 417h505v-158h-346l-17 -101h6q51 34 140 34q78 0 136.5 -29t90.5 -82.5t32 -125.5q0 -119 -83.5 -185.5t-229.5 -66.5q-150 0 -233 63z" />
    <glyph glyph-name="six" unicode="6" horiz-adv-x="723" 
d="M192.5 17.5q-72.5 31.5 -112 90t-39.5 136.5q0 129 107 264l152 192h216l-177 -213h6q23 8 69 8q81 0 143 -31.5t96 -88t34 -129.5q0 -78 -40.5 -137t-113.5 -91t-170 -32q-98 0 -170.5 31.5zM451 168.5q33 27.5 33 75.5q0 49 -33 76t-87 27t-87 -27.5t-33 -75.5
t33 -75.5t87 -27.5t87 27.5z" />
    <glyph glyph-name="seven" unicode="7" horiz-adv-x="576" 
d="M284 0h-216l284 531v6h-341v163h555v-157z" />
    <glyph glyph-name="eight" unicode="8" horiz-adv-x="717" 
d="M115 41q-86 55 -86 156q0 59 37 105.5t95 62.5v6q-51 20 -80 60.5t-29 90.5q0 58 37.5 101.5t107 67t162.5 23.5q92 0 161.5 -23.5t107.5 -67t38 -101.5q0 -50 -29.5 -90.5t-80.5 -60.5v-6q58 -16 95 -62.5t37 -105.5q0 -101 -85.5 -156t-243.5 -55t-244 55zM437.5 440.5
q29.5 20.5 29.5 55.5t-29 55t-79 20t-79 -20t-29 -55t29.5 -55.5t78.5 -20.5t78.5 20.5zM454.5 151.5q34.5 22.5 34.5 61.5t-34.5 61t-95.5 22q-62 0 -96.5 -22t-34.5 -61t35 -61.5t96 -22.5t95.5 22.5z" />
    <glyph glyph-name="nine" unicode="9" horiz-adv-x="723" 
d="M207 0l177 213h-6q-23 -8 -69 -8q-81 0 -143 31.5t-96 88t-34 129.5q0 78 40.5 137t114 91t170.5 32t169.5 -31.5t112 -90t39.5 -136.5q0 -130 -106 -264l-153 -192h-216zM446.5 380q32.5 27 32.5 76q0 48 -33 75.5t-86 27.5q-54 0 -87.5 -27.5t-33.5 -75.5q0 -49 33 -76
t88 -27q54 0 86.5 27z" />
    <glyph glyph-name="colon" unicode=":" horiz-adv-x="272" 
d="M63 343.5q-30 27.5 -30 71.5t30 71.5t73 27.5t73 -27.5t30 -71.5t-30 -71.5t-73 -27.5t-73 27.5zM63 18q-30 27 -30 72q0 44 30 71.5t73 27.5t73 -27.5t30 -71.5q0 -45 -30 -72t-73 -27t-73 27z" />
    <glyph glyph-name="semicolon" unicode=";" horiz-adv-x="274" 
d="M63 343.5q-30 27.5 -30 71.5t30 71.5t74 27.5q43 0 73 -27.5t30 -71.5t-30 -71.5t-73 -27.5q-44 0 -74 27.5zM213.5 159q28.5 -30 28.5 -74q0 -32 -10 -66t-31 -79l-53 -112h-82l50 164q-36 6 -59.5 31.5t-23.5 64.5q0 45 29.5 73t74.5 28q48 0 76.5 -30z" />
    <glyph glyph-name="less" unicode="&#x3c;" 
d="M578 242v-142l-456 193v153l456 193v-142l-309 -125v-5z" />
    <glyph glyph-name="equal" unicode="=" 
d="M592 406h-492v129h492v-129zM592 204h-492v128h492v-128z" />
    <glyph glyph-name="greater" unicode="&#x3e;" 
d="M570 293l-456 -193v142l309 125v5l-309 125v142l456 -193v-153z" />
    <glyph glyph-name="question" unicode="?" horiz-adv-x="645" 
d="M230 262q0 50 18 83.5t43.5 52t64.5 39.5q37 19 54.5 34.5t17.5 39.5q0 52 -100 52q-54 0 -86 -19.5t-32 -51.5h-192q0 63 37.5 112.5t108 77.5t164.5 28q95 0 161.5 -23t99.5 -63.5t33 -91.5q0 -49 -21 -82t-51 -53t-77 -42q-51 -26 -74.5 -44.5t-23.5 -48.5v-29h-145
v29zM235 17.5q-30 27.5 -30 71.5t30 71.5t73 27.5q44 0 74 -27.5t30 -71.5t-30 -71.5t-74 -27.5q-43 0 -73 27.5z" />
    <glyph glyph-name="at" unicode="@" horiz-adv-x="1027" 
d="M251.5 -129q-105.5 60 -163 163.5t-57.5 230.5q0 135 62 241t172 166t247 60q144 0 254 -55t169.5 -151.5t59.5 -218.5q0 -121 -53.5 -187t-143.5 -66q-48 0 -86 20t-58 55h-5q-24 -37 -65.5 -58.5t-98.5 -21.5q-58 0 -104.5 26.5t-72.5 75t-26 113.5q0 63 25.5 111.5
t69 75.5t96.5 27q41 0 74.5 -12.5t53.5 -34.5h5v41h134v-218q0 -38 12.5 -55.5t38.5 -17.5q59 0 59 113q0 143 -84.5 223t-253.5 80q-95 0 -171.5 -42t-120 -117.5t-43.5 -172.5q0 -98 40.5 -169.5t114 -110t171.5 -38.5q57 0 103.5 9.5t94.5 31.5v-137q-41 -21 -90.5 -30.5
t-113.5 -9.5q-140 0 -245.5 60zM568 203.5q22 22.5 22 60.5t-22 60t-58 22t-58 -22t-22 -60t22 -60.5t58 -22.5t58 22.5z" />
    <glyph glyph-name="A" unicode="A" horiz-adv-x="800" 
d="M806 0h-211l-41 108h-312l-41 -108h-207l283 700h245zM395 505l-94 -244h194l-94 244h-6z" />
    <glyph glyph-name="B" unicode="B" horiz-adv-x="746" 
d="M576 369q63 -16 97.5 -62t34.5 -113q0 -92 -60.5 -143t-170.5 -51h-403v700h382q104 0 161.5 -46t57.5 -129q0 -55 -26 -94t-73 -56v-6zM274 546v-122h122q33 0 51 16t18 45t-18 45t-51 16h-122zM419 154q39 0 59 17.5t20 50.5t-20 50t-58 17h-146v-135h145z" />
    <glyph glyph-name="C" unicode="C" horiz-adv-x="804" 
d="M217.5 31.5q-85.5 45.5 -132 128t-46.5 190.5t46.5 190.5t132 128t197.5 45.5q99 0 175 -34t121.5 -96t56.5 -144h-209q-10 48 -49 76t-95 28q-74 0 -118 -52t-44 -142t44 -142t118 -52q57 0 95 26.5t50 74.5h210q-11 -81 -56.5 -142.5t-122 -95t-176.5 -33.5
q-112 0 -197.5 45.5z" />
    <glyph glyph-name="D" unicode="D" horiz-adv-x="793" 
d="M74 0v700h302q115 0 200.5 -43.5t131.5 -123t46 -183.5t-46 -183.5t-131.5 -123t-200.5 -43.5h-302zM370 165q80 0 127 50t47 135t-47 135t-127 50h-96v-370h96z" />
    <glyph glyph-name="E" unicode="E" horiz-adv-x="716" 
d="M669 700v-157h-395v-113h340v-148h-340v-125h395v-157h-595v700h595z" />
    <glyph glyph-name="F" unicode="F" horiz-adv-x="684" 
d="M659 700v-157h-385v-166h315v-148h-315v-229h-200v700h585z" />
    <glyph glyph-name="G" unicode="G" horiz-adv-x="819" 
d="M388 382h393v-31q0 -110 -45 -193t-127.5 -127.5t-193.5 -44.5q-112 0 -197.5 45.5t-132 128t-46.5 190.5t46.5 190.5t132 128t197.5 45.5q94 0 168.5 -30t121 -86t59.5 -132h-212q-14 37 -49.5 57.5t-86.5 20.5q-75 0 -119 -52t-44 -142t44 -142t119 -52q58 0 97 25.5
t51 71.5h-176v129z" />
    <glyph glyph-name="H" unicode="H" horiz-adv-x="836" 
d="M562 443v257h200v-700h-200v278h-288v-278h-200v700h200v-257h288z" />
    <glyph glyph-name="I" unicode="I" horiz-adv-x="368" 
d="M284 0h-200v700h200v-700z" />
    <glyph glyph-name="J" unicode="J" horiz-adv-x="696" 
d="M106 58q-78 72 -78 199v30h200v-30q0 -46 27 -73.5t78 -27.5q50 0 77 27.5t27 73.5v278h-279v165h479v-443q0 -126 -78 -198.5t-226 -72.5q-149 0 -227 72z" />
    <glyph glyph-name="K" unicode="K" horiz-adv-x="749" 
d="M480 361l283 -361h-238l-251 333v-333h-200v700h200v-325l245 325h225z" />
    <glyph glyph-name="L" unicode="L" horiz-adv-x="662" 
d="M651 0h-577v700h200v-535h377v-165z" />
    <glyph glyph-name="M" unicode="M" horiz-adv-x="1012" 
d="M265 0h-191v700h241l188 -327h6l184 327h245v-700h-191v442h-6l-168 -289h-134l-168 289h-6v-442z" />
    <glyph glyph-name="N" unicode="N" horiz-adv-x="851" 
d="M269 0h-195v700h201l301 -405h6v405h195v-700h-201l-301 405h-6v-405z" />
    <glyph glyph-name="O" unicode="O" horiz-adv-x="846" 
d="M222 31.5q-87 45.5 -135 128t-48 190.5t48 190.5t135 128t201 45.5t201 -45.5t135 -128t48 -190.5t-48 -190.5t-135 -128t-201 -45.5t-201 45.5zM547.5 208.5q46.5 52.5 46.5 141.5t-46.5 141.5t-124.5 52.5t-124 -52t-46 -142t46 -142t124 -52t124.5 52.5z" />
    <glyph glyph-name="P" unicode="P" horiz-adv-x="746" 
d="M387 700q158 0 237 -65t79 -197t-79 -196.5t-237 -64.5h-113v-177h-200v700h313zM383 342q54 0 82 24.5t28 71.5q0 48 -28 72.5t-82 24.5h-109v-193h109z" />
    <glyph glyph-name="Q" unicode="Q" horiz-adv-x="846" 
d="M751.5 147.5q-55.5 -86.5 -154.5 -128.5q65 -35 157 -35v-174q-130 0 -230 47t-152 131q-100 10 -175.5 58t-116.5 126t-41 178q0 108 48 190.5t135 128t201 45.5t201 -45.5t135 -128t48 -190.5q0 -116 -55.5 -202.5zM299 208q46 -52 124 -52t124.5 52.5t46.5 141.5
t-46.5 141.5t-124.5 52.5t-124 -52t-46 -142t46 -142z" />
    <glyph glyph-name="R" unicode="R" horiz-adv-x="757" 
d="M748 0h-223l-142 227h-109v-227h-200v700h322q153 0 224 -57.5t71 -175.5q0 -84 -34.5 -132.5t-80.5 -67.5zM389 392q46 0 69 17t23 54q0 72 -92 72h-115v-143h115z" />
    <glyph glyph-name="S" unicode="S" horiz-adv-x="751" 
d="M125.5 47q-85.5 61 -85.5 168h210q0 -75 131 -75q56 0 87.5 14t31.5 44q0 24 -20 39t-51 22.5t-88 17.5q-88 15 -145.5 33t-99 62t-41.5 122q0 66 37 115.5t107.5 77t168.5 27.5q100 0 172 -27.5t109.5 -77.5t37.5 -117h-209q0 32 -29 50t-83 18q-49 0 -75 -14t-26 -41
q0 -33 38 -48t118 -28q90 -16 147.5 -34.5t99.5 -63t42 -123.5q0 -106 -85 -164t-245 -58q-169 0 -254.5 61z" />
    <glyph glyph-name="T" unicode="T" horiz-adv-x="697" 
d="M448 0h-200v535h-232v165h665v-165h-233v-535z" />
    <glyph glyph-name="U" unicode="U" horiz-adv-x="812" 
d="M228.5 22q-77.5 36 -121 105t-43.5 164v409h200v-397q0 -73 38.5 -110t103.5 -37t103.5 37t38.5 110v397h200v-409q0 -95 -43.5 -164t-121 -105t-177.5 -36t-177.5 36z" />
    <glyph glyph-name="V" unicode="V" horiz-adv-x="786" 
d="M520 0h-254l-262 700h214l174 -503h6l177 503h207z" />
    <glyph glyph-name="W" unicode="W" horiz-adv-x="1150" 
d="M449 0h-255l-180 700h209l114 -476h6l123 476h220l123 -476h6l114 476h207l-180 -700h-255l-123 476h-6z" />
    <glyph glyph-name="X" unicode="X" horiz-adv-x="742" 
d="M219 0h-221l236 362l-213 338h219l128 -218h6l128 218h219l-213 -338l236 -362h-222l-149 238h-6z" />
    <glyph glyph-name="Y" unicode="Y" horiz-adv-x="711" 
d="M456 0h-201v235l-261 465h217l142 -288h5l146 288h213l-261 -465v-235z" />
    <glyph glyph-name="Z" unicode="Z" horiz-adv-x="706" 
d="M664 0h-623v157l369 372v6h-358v165h611v-157l-368 -372v-6h369v-165z" />
    <glyph glyph-name="bracketleft" unicode="[" horiz-adv-x="429" 
d="M417 -250h-343v1060h343v-149h-162v-762h162v-149z" />
    <glyph glyph-name="backslash" unicode="\" horiz-adv-x="526" 
d="M526 -120h-145l-381 820h145z" />
    <glyph glyph-name="bracketright" unicode="]" horiz-adv-x="429" 
d="M355 -250h-343v149h162v762h-162v149h343v-1060z" />
    <glyph glyph-name="asciicircum" unicode="^" horiz-adv-x="543" 
d="M177 378h-141l170 322h132l169 -322h-141l-92 186h-6z" />
    <glyph glyph-name="underscore" unicode="_" horiz-adv-x="483" 
d="M508 -176h-532v124h532v-124z" />
    <glyph glyph-name="grave" unicode="`" horiz-adv-x="309" 
d="M279 580h-118l-131 187h169z" />
    <glyph glyph-name="a" unicode="a" horiz-adv-x="657" 
d="M83 27q-55 41 -55 116t59.5 115t154.5 40q47 0 90.5 -9t70.5 -24v65q0 65 -84 65q-39 0 -61.5 -13t-22.5 -37h-182q0 84 70 133t197 49q125 0 194.5 -51t69.5 -149v-126q0 -30 6 -41t21 -11q11 0 17 3v-146q-28 -15 -79 -15q-97 0 -126 73h-6q-27 -36 -77 -57t-112 -21
q-90 0 -145 41zM358 122.5q28 6.5 45 17.5v39q-17 7 -46.5 11.5t-58.5 4.5q-43 0 -65.5 -9t-22.5 -30q0 -40 88 -40q32 0 60 6.5z" />
    <glyph glyph-name="b" unicode="b" horiz-adv-x="703" 
d="M313.5 7.5q-46.5 22.5 -71.5 63.5h-5v-71h-166v700h182v-252h5q26 36 69 56t97 20q70 0 125 -33.5t86.5 -94.5t31.5 -142q0 -80 -31.5 -141.5t-87.5 -94.5t-126 -33q-62 0 -108.5 22.5zM445.5 173q31.5 31 31.5 81q0 51 -31.5 82t-80.5 31q-50 0 -81 -31t-31 -82
t31 -81.5t81 -30.5q49 0 80.5 31z" />
    <glyph glyph-name="c" unicode="c" horiz-adv-x="651" 
d="M181 14.5q-68 33.5 -106.5 95.5t-38.5 144q0 83 38.5 145t106.5 95t155 33q80 0 143 -27.5t99 -77t36 -112.5h-184q-18 64 -98 64q-51 0 -82 -31t-31 -89t31 -89t82 -31q43 0 69.5 17.5t33.5 51.5h184q0 -64 -37 -114.5t-101.5 -79t-145.5 -28.5q-86 0 -154 33.5z" />
    <glyph glyph-name="d" unicode="d" horiz-adv-x="703" 
d="M155 18q-56 33 -87.5 94.5t-31.5 141.5q0 81 31.5 142t86.5 94.5t125 33.5q54 0 97 -20t69 -56h5v252h182v-700h-166v71h-5q-25 -41 -71.5 -63.5t-108.5 -22.5q-70 0 -126 33zM419 172.5q31 30.5 31 81.5t-31 82t-81 31q-49 0 -80.5 -31t-31.5 -82q0 -50 31.5 -81
t80.5 -31q50 0 81 30.5z" />
    <glyph glyph-name="e" unicode="e" horiz-adv-x="656" 
d="M620 210h-400q9 -47 38 -71t73 -24q71 0 93 48h189q-16 -78 -86 -130t-190 -52q-90 0 -158 33.5t-105.5 95t-37.5 144.5t37.5 145t105 95t153.5 33q85 0 151 -31.5t103.5 -92.5t37.5 -147q0 -31 -4 -46zM259.5 371.5q-28.5 -22.5 -38.5 -66.5h214q-4 41 -32 65t-72 24
q-43 0 -71.5 -22.5z" />
    <glyph glyph-name="f" unicode="f" horiz-adv-x="455" 
d="M325 560q-24 -16 -30 -51h146v-140h-144v-369h-181v369h-105v115l107 27q9 104 67.5 153.5t168.5 49.5q29 0 60 -3t50 -8v-134q-32 7 -73 7q-42 0 -66 -16z" />
    <glyph glyph-name="g" unicode="g" horiz-adv-x="649" 
d="M97.5 -179.5q-71.5 39.5 -71.5 125.5q0 91 98 132v5q-18 8 -28.5 23t-10.5 34q0 23 15.5 39t43.5 23v6q-37 20 -55.5 54.5t-18.5 76.5q0 80 66 125t184 45h151q21 0 30 6t9 22t-4 28h99q19 -32 19 -64t-21 -49t-58 -17h-19v-6q43 -40 43 -102q0 -156 -249 -156
q-51 0 -71 -6.5t-20 -22.5q0 -17 19 -23t72 -6h42q127 0 189 -42.5t62 -116.5q0 -91 -72.5 -132t-221.5 -41q-150 0 -221.5 39.5zM375 299.5q20 14.5 20 39.5q0 26 -20 40.5t-56 14.5t-55.5 -14.5t-19.5 -40.5q0 -25 19.5 -39.5t55.5 -14.5t56 14.5zM405.5 -87.5
q24.5 9.5 24.5 34.5q0 23 -25.5 33.5t-85.5 10.5t-85.5 -11t-25.5 -33q0 -25 24.5 -34.5t86.5 -9.5t86.5 9.5z" />
    <glyph glyph-name="h" unicode="h" horiz-adv-x="707" 
d="M71 0v700h182v-267h5q23 40 71 65t110 25q97 0 151.5 -57.5t54.5 -159.5v-306h-181v241q0 52 -26.5 82.5t-74.5 30.5q-51 0 -80.5 -30.5t-29.5 -82.5v-241h-182z" />
    <glyph glyph-name="i" unicode="i" horiz-adv-x="324" 
d="M253 0h-182v509h182v-509zM91.5 598q-27.5 26 -27.5 67t27.5 67t70.5 26t70.5 -26t27.5 -67t-27.5 -67t-70.5 -26t-70.5 26z" />
    <glyph glyph-name="j" unicode="j" horiz-adv-x="334" 
d="M-55 -204v149q23 -6 50 -6q44 0 65 21t21 73v476h182v-496q0 -111 -60 -169t-174 -58q-50 0 -84 10zM101.5 598q-27.5 26 -27.5 67t27.5 67t70.5 26t70.5 -26t27.5 -67t-27.5 -67t-70.5 -26t-70.5 26z" />
    <glyph glyph-name="k" unicode="k" horiz-adv-x="639" 
d="M431 267l217 -267h-211l-184 240v-240h-182v700h182v-423l172 232h194z" />
    <glyph glyph-name="l" unicode="l" horiz-adv-x="324" 
d="M253 0h-182v700h182v-700z" />
    <glyph glyph-name="m" unicode="m" horiz-adv-x="972" 
d="M66 0v509h177v-79h5q22 43 64 68t96 25q56 0 96.5 -24.5t57.5 -69.5h6q26 45 67.5 69.5t95.5 24.5q88 0 133.5 -53t45.5 -160v-310h-181v267q0 96 -74 96q-36 0 -56 -24t-20 -67v-272h-181v267q0 96 -74 96q-36 0 -56 -24t-20 -67v-272h-182z" />
    <glyph glyph-name="n" unicode="n" horiz-adv-x="702" 
d="M66 0v509h177v-80h5q26 43 75 68.5t111 25.5q97 0 151.5 -57.5t54.5 -159.5v-306h-181v241q0 52 -26.5 82.5t-74.5 30.5q-51 0 -80.5 -30.5t-29.5 -82.5v-241h-182z" />
    <glyph glyph-name="o" unicode="o" horiz-adv-x="661" 
d="M178.5 14q-66.5 33 -104.5 95t-38 145t38 145t104.5 95t151.5 33t152 -33t105 -95t38 -145t-38 -145t-105 -95t-152 -33t-151.5 33zM409 165.5q29 31.5 29 88.5t-28.5 88.5t-79.5 31.5q-50 0 -78.5 -31.5t-28.5 -88.5t28.5 -88.5t78.5 -31.5t79 31.5z" />
    <glyph glyph-name="p" unicode="p" horiz-adv-x="698" 
d="M66 -200v707h166v-71h5q25 41 71.5 63.5t108.5 22.5q70 0 126 -33t87.5 -94.5t31.5 -141.5t-31.5 -141.5t-86.5 -94.5t-125 -33q-54 0 -97 20t-69 56h-5v-260h-182zM440.5 171.5q31.5 31.5 31.5 81.5t-31.5 81.5t-80.5 31.5t-80.5 -31t-31.5 -82t31.5 -82t80.5 -31
t80.5 31.5z" />
    <glyph glyph-name="q" unicode="q" horiz-adv-x="698" 
d="M450 -200v260h-5q-26 -36 -69 -56t-97 -20q-70 0 -125 33t-86.5 94.5t-31.5 141.5t31.5 141.5t87.5 94.5t126 33q62 0 108.5 -22.5t71.5 -63.5h5v71h166v-707h-182zM418.5 171q31.5 31 31.5 82t-31.5 82t-80.5 31t-80.5 -31.5t-31.5 -81.5t31.5 -81.5t80.5 -31.5t80.5 31
z" />
    <glyph glyph-name="r" unicode="r" horiz-adv-x="514" 
d="M66 0v509h177v-63h5q28 39 73 58.5t105 19.5q26 0 49 -5v-180q-44 11 -87 11q-68 0 -104 -33.5t-36 -100.5v-216h-182z" />
    <glyph glyph-name="s" unicode="s" horiz-adv-x="613" 
d="M105.5 28q-71.5 47 -71.5 132h190q0 -24 23.5 -39.5t65.5 -15.5q89 0 89 42q0 22 -28 31t-89 17q-73 9 -120 21.5t-82 46.5t-35 96q0 52 32.5 90t90.5 58t133 20q83 0 143 -22.5t91 -61.5t31 -89h-190q0 22 -19 36t-55 14q-35 0 -54.5 -11t-19.5 -31q0 -23 29 -33t92 -18
q71 -10 117.5 -23.5t80.5 -46t34 -90.5q0 -84 -70 -127t-203 -43q-134 0 -205.5 47z" />
    <glyph glyph-name="t" unicode="t" horiz-adv-x="478" 
d="M453 142v-140q-22 -9 -57 -15t-65 -6q-112 0 -166 52t-54 160v176h-105v115l114 28v108h172v-111h144v-140h-144v-136q0 -51 22.5 -75t67.5 -24q39 0 71 8z" />
    <glyph glyph-name="u" unicode="u" horiz-adv-x="697" 
d="M117 42q-56 56 -56 160v307h182v-244q0 -52 26 -81t71 -29q51 0 80 29t29 81v244h181v-509h-176v80h-6q-26 -44 -72 -69t-109 -25q-94 0 -150 56z" />
    <glyph glyph-name="v" unicode="v" horiz-adv-x="625" 
d="M434 0h-243l-188 509h190l118 -347h5l119 347h187z" />
    <glyph glyph-name="w" unicode="w" horiz-adv-x="935" 
d="M370 0h-215l-142 509h185l77 -338h6l95 338h184l96 -338h6l77 338h184l-143 -509h-215l-94 334h-6z" />
    <glyph glyph-name="x" unicode="x" horiz-adv-x="621" 
d="M200 0h-204l179 258l-155 251h199l90 -164h5l88 164h200l-155 -251l178 -258h-204l-108 166h-6z" />
    <glyph glyph-name="y" unicode="y" horiz-adv-x="633" 
d="M443 509h189l-209 -495q-34 -80 -68.5 -128.5t-82.5 -74t-118 -25.5q-43 0 -80 9v153q29 -9 58 -9q40 0 65 16t39 49l6 14l-246 491h191l138 -306h6z" />
    <glyph glyph-name="z" unicode="z" horiz-adv-x="578" 
d="M552 0h-521v149l266 205v5h-255v150h499v-150l-264 -204v-6h275v-149z" />
    <glyph glyph-name="braceleft" unicode="{" horiz-adv-x="397" 
d="M364 -260q-132 0 -190 55.5t-58 173.5v142q0 44 -23 69t-62 25v150q39 0 62 25t23 69v126q0 129 57.5 187t190.5 58h22v-143h-22q-43 0 -58.5 -22.5t-15.5 -83.5v-123q0 -61 -23.5 -104.5t-61.5 -60.5v-6q38 -17 61.5 -60.5t23.5 -104.5v-140q0 -50 16 -69.5t58 -19.5h22
v-143h-22z" />
    <glyph glyph-name="bar" unicode="|" horiz-adv-x="423" 
d="M303 -260h-183v1030h183v-1030z" />
    <glyph glyph-name="braceright" unicode="}" horiz-adv-x="397" 
d="M11 -260v143h22q43 0 59 19.5t16 69.5v140q0 61 23.5 104.5t61.5 60.5v6q-38 17 -61.5 60.5t-23.5 104.5v123q0 61 -16 83.5t-59 22.5h-22v143h22q133 0 191 -58t58 -187v-126q0 -44 22.5 -69t61.5 -25v-150q-39 0 -61.5 -25t-22.5 -69v-142q0 -118 -58.5 -173.5
t-190.5 -55.5h-22z" />
    <glyph glyph-name="asciitilde" unicode="~" 
d="M386.5 285.5q-28.5 11.5 -62.5 31.5q-22 13 -36 19.5t-27 6.5q-34 0 -34 -41v-19h-127v27q0 77 35 116.5t104 39.5q38 0 67.5 -11.5t61.5 -31.5q24 -13 37 -19t26 -6q34 0 34 40v19h127v-26q0 -77 -35 -117t-104 -40q-38 0 -66.5 11.5z" />
    <glyph glyph-name="uni00A0" unicode="&#xa0;" horiz-adv-x="249" 
 />
    <glyph glyph-name="exclamdown" unicode="&#xa1;" horiz-adv-x="335" 
d="M94 339.5q-30 27.5 -30 71.5t30 71.5t73 27.5q44 0 74 -27.5t30 -71.5t-30 -71.5t-74 -27.5q-43 0 -73 27.5zM259 -200h-184v135l24 332h136l24 -332v-135z" />
    <glyph glyph-name="cent" unicode="&#xa2;" horiz-adv-x="651" 
d="M619 203q-1 -82 -58.5 -140.5t-152.5 -75.5v-102h-147v103q-102 20 -163.5 90.5t-61.5 175.5q0 107 61 177t164 89v104h147v-103q94 -17 149.5 -74t56.5 -137h-184q-18 64 -98 64q-51 0 -82 -31t-31 -89t31 -89t82 -31q43 0 69.5 17.5t33.5 51.5h184z" />
    <glyph glyph-name="sterling" unicode="&#xa3;" horiz-adv-x="636" 
d="M615 158v-158h-589v158q48 1 67 23.5t19 79.5v12h-86v112h86v103q0 107 66 166.5t185 59.5q116 0 181 -58t65 -161v-15h-193v15q0 29 -14 44.5t-39 15.5q-27 0 -41 -17.5t-14 -49.5v-103h177v-112h-177v-6q0 -80 -37 -109h344z" />
    <glyph glyph-name="currency" unicode="&#xa4;" horiz-adv-x="615" 
d="M504 294l80 -79l-98 -101l-72 71q-50 -24 -106 -24t-106 24l-72 -71l-99 101l81 80q-8 27 -8 57q0 29 8 58l-81 79l99 101l72 -70q48 24 106 24t106 -24l72 70l98 -101l-80 -78q8 -29 8 -59q0 -29 -8 -58zM357.5 299q18.5 20 18.5 53t-18.5 53t-49.5 20q-32 0 -50.5 -20
t-18.5 -53t18.5 -53t50.5 -20q31 0 49.5 20z" />
    <glyph glyph-name="yen" unicode="&#xa5;" horiz-adv-x="705" 
d="M496 700h210l-196 -348h121v-102h-178v-53h178v-102h-178v-95h-201v95h-178v102h178v53h-178v102h121l-196 348h213l138 -275h5z" />
    <glyph glyph-name="brokenbar" unicode="&#xa6;" horiz-adv-x="423" 
d="M303 328h-183v442h183v-442zM303 -260h-183v448h183v-448z" />
    <glyph glyph-name="section" unicode="&#xa7;" horiz-adv-x="680" 
d="M127 -114q-78 53 -78 145h184q0 -27 29 -43t81 -16q88 0 88 37q0 20 -30 33t-95 30q-76 19 -126.5 38.5t-87.5 56t-37 92.5q0 47 28 85.5t78 60.5v6q-46 19 -70 52t-24 79q0 78 70.5 125t200.5 47q140 0 216.5 -54t76.5 -144h-184q0 26 -27.5 42.5t-76.5 16.5
q-43 0 -63 -9t-20 -29t28.5 -32.5t94.5 -29.5q76 -19 127 -38.5t88 -56t37 -92.5q0 -47 -27.5 -85t-77.5 -61v-6q46 -19 70 -52t24 -79q0 -51 -32 -90t-94.5 -60.5t-149.5 -21.5q-143 0 -221 53zM440 270q0 27 -31.5 43.5t-98.5 28.5q-59 -24 -59 -65q0 -27 31.5 -43.5
t98.5 -28.5q59 26 59 65z" />
    <glyph glyph-name="dieresis" unicode="&#xa8;" horiz-adv-x="497" 
d="M56 597q-26 25 -26 64q0 38 26.5 63.5t66.5 25.5t67 -25.5t27 -63.5t-27 -63.5t-67 -25.5q-41 0 -67 25zM306 597q-26 25 -26 64q0 38 26.5 63.5t66.5 25.5t67 -25.5t27 -63.5q0 -39 -26.5 -64t-67.5 -25t-67 25z" />
    <glyph glyph-name="copyright" unicode="&#xa9;" horiz-adv-x="899" 
d="M241 25.5q-90 45.5 -138.5 129t-48.5 195.5t48.5 195.5t138.5 129t209 45.5t208.5 -45.5t138 -129t48.5 -195.5t-48.5 -195.5t-138 -129t-208.5 -45.5t-209 45.5zM592 122.5q61 32.5 95 91.5t34 136t-34 136t-95 91.5t-142 32.5t-142.5 -32.5t-95 -91.5t-33.5 -136
t33.5 -136t95 -91.5t142.5 -32.5t142 32.5zM313.5 221q-50.5 47 -50.5 129t50.5 129t137.5 47q52 0 93.5 -18.5t65 -51.5t23.5 -74h-125q-1 14 -16 24.5t-40 10.5q-30 0 -47.5 -18t-17.5 -49t17.5 -49t47.5 -18q25 0 40 11t16 26h125q-1 -65 -51 -105.5t-131 -40.5
q-87 0 -137.5 47z" />
    <glyph glyph-name="ordfeminine" unicode="&#xaa;" horiz-adv-x="495" 
d="M72 356q-41 30 -41 84t43.5 84t120.5 30q61 0 103 -20v46q0 38 -51 38q-25 0 -39 -8.5t-14 -25.5h-146q0 63 52 96.5t150 33.5q93 0 142 -34t49 -100v-97q0 -17 5 -24.5t16 -7.5q6 0 12 2v-116q-28 -10 -63 -10q-66 0 -95 48h-6q-46 -49 -126 -49q-71 0 -112 30zM298 439
v27q-30 14 -67 14q-24 0 -39 -7.5t-15 -21.5t15 -21.5t39 -7.5q44 0 67 17z" />
    <glyph glyph-name="guillemotleft" unicode="&#xab;" horiz-adv-x="639" 
d="M345 64h-173l-139 185l139 186h173l-145 -183v-6zM609 64h-173l-139 185l139 186h173l-145 -183v-6z" />
    <glyph glyph-name="logicalnot" unicode="&#xac;" 
d="M604 189h-131v119h-385v123h516v-242z" />
    <glyph glyph-name="uni00AD" unicode="&#xad;" horiz-adv-x="0" 
 />
    <glyph glyph-name="registered" unicode="&#xae;" horiz-adv-x="521" 
d="M379 692q52 -28 81.5 -78t29.5 -114t-29.5 -114t-81.5 -78t-119 -28t-119 28t-81 78t-29 114t29 114t81 78t119 28t119 -28zM369.5 391q42.5 42 42.5 109t-42.5 109t-109.5 42t-109.5 -42t-42.5 -109t42.5 -109t109.5 -42t109.5 42zM319 477l40 -65h-68l-32 53h-15v-53
h-64v183h83q43 0 66 -16t23 -46q0 -40 -33 -56zM262 513q21 0 21 17q0 16 -21 16h-18v-33h18z" />
    <glyph glyph-name="macron" unicode="&#xaf;" horiz-adv-x="459" 
d="M429 594h-399v113h399v-113z" />
    <glyph glyph-name="degree" unicode="&#xb0;" horiz-adv-x="437" 
d="M92 434q-49 46 -49 120t49 120t127 46t127 -46t49 -120t-49 -120t-127 -46t-127 46zM260 512q16 16 16 42t-16 42t-41 16q-26 0 -42 -16t-16 -42t16 -42t42 -16q25 0 41 16z" />
    <glyph glyph-name="plusminus" unicode="&#xb1;" 
d="M415 682v-157h177v-125h-177v-158h-137v158h-178v125h178v157h137zM592 69h-492v120h492v-120z" />
    <glyph glyph-name="uni00B2" unicode="&#xb2;" horiz-adv-x="410" 
d="M384 516v-96h-363v41q0 52 23.5 84.5t55.5 49t79 31.5q41 13 59 23.5t18 28.5q0 31 -45 31q-25 0 -41 -11.5t-16 -30.5h-122q0 65 50 104t136 39q77 0 120.5 -34.5t43.5 -87.5q0 -42 -20 -68t-47.5 -39t-71.5 -27q-34 -11 -50.5 -18.5t-25.5 -19.5h217z" />
    <glyph glyph-name="uni00B3" unicode="&#xb3;" horiz-adv-x="409" 
d="M74.5 446.5q-48.5 36.5 -48.5 97.5h122q0 -18 15 -28t40 -10t39.5 9.5t14.5 29.5q0 38 -57 38h-74v68l80 52v6h-146v91h294v-80l-102 -61v-6h8q55 0 89 -30t34 -79q0 -64 -48 -99t-132 -35q-80 0 -128.5 36.5z" />
    <glyph glyph-name="acute" unicode="&#xb4;" horiz-adv-x="309" 
d="M148 580h-118l81 187h168z" />
    <glyph glyph-name="uni00B5" unicode="&#xb5;" horiz-adv-x="702" 
d="M66 -200v709h182v-244q0 -52 26 -81t71 -29q51 0 80 29t29 81v244h181v-509h-176v72h-6q-12 -39 -43.5 -62.5t-76.5 -23.5q-28 0 -51 8.5t-36 22.5h-6v-217h-174z" />
    <glyph glyph-name="paragraph" unicode="&#xb6;" horiz-adv-x="757" 
d="M695 700v-136h-83v-824h-141v824h-100v-824h-141v604q-81 10 -132 54t-51 121q0 83 57.5 132t147.5 49h443z" />
    <glyph glyph-name="periodcentered" unicode="&#xb7;" horiz-adv-x="249" 
d="M51 190q-30 27 -30 72q0 44 30 71.5t73 27.5t73 -27.5t30 -71.5q0 -45 -30 -72t-73 -27t-73 27z" />
    <glyph glyph-name="cedilla" unicode="&#xb8;" horiz-adv-x="276" 
d="M151 -35q46 -6 70.5 -29.5t24.5 -63.5q0 -49 -34.5 -78.5t-96.5 -29.5q-50 0 -85 14v80q35 -8 66 -8q54 0 54 28q0 25 -45 25h-38v48l55 73l71 -4z" />
    <glyph glyph-name="uni00B9" unicode="&#xb9;" horiz-adv-x="354" 
d="M250 800v-277h93v-103h-317v103h102v147l-85 -55v114l110 71h97z" />
    <glyph glyph-name="ordmasculine" unicode="&#xba;" horiz-adv-x="492" 
d="M89.5 378.5q-58.5 52.5 -58.5 141.5t58.5 141.5t156.5 52.5t156.5 -52.5t58.5 -141.5t-58.5 -141.5t-156.5 -52.5t-156.5 52.5zM296 467.5q19 19.5 19 52.5t-19 52.5t-50 19.5t-50 -19.5t-19 -52.5t19 -52.5t50 -19.5t50 19.5z" />
    <glyph glyph-name="guillemotright" unicode="&#xbb;" horiz-adv-x="639" 
d="M202 64h-173l146 182v6l-146 183h173l140 -186zM467 64h-173l145 182v6l-145 183h173l139 -186z" />
    <glyph glyph-name="onequarter" unicode="&#xbc;" horiz-adv-x="979" 
d="M250 700v-277h93v-103h-317v103h102v147l-85 -55v114l110 71h97zM328 0h-140l480 700h139zM902 162h56v-96h-56v-66h-126v66h-200v102l171 212h155v-218zM779 277l-87 -109v-6h92v115h-5z" />
    <glyph glyph-name="onehalf" unicode="&#xbd;" horiz-adv-x="1011" 
d="M250 700v-277h93v-103h-317v103h102v147l-85 -55v114l110 71h97zM328 0h-140l480 700h139zM985 96v-96h-363v41q0 52 23.5 84.5t55.5 49t79 31.5q41 13 59 23.5t18 28.5q0 31 -45 31q-25 0 -41 -11.5t-16 -30.5h-122q0 65 50 104t136 39q77 0 120.5 -34.5t43.5 -87.5
q0 -42 -20 -68t-47.5 -39t-71.5 -27q-34 -11 -50.5 -18.5t-25.5 -19.5h217z" />
    <glyph glyph-name="threequarters" unicode="&#xbe;" horiz-adv-x="993" 
d="M74.5 346.5q-48.5 36.5 -48.5 97.5h122q0 -18 15 -28t40 -10t39.5 9.5t14.5 29.5q0 38 -57 38h-74v68l80 52v6h-146v91h294v-80l-102 -61v-6h8q55 0 89 -30t34 -79q0 -64 -48 -99t-132 -35q-80 0 -128.5 36.5zM343 0h-140l480 700h139zM917 162h56v-96h-56v-66h-126v66
h-200v102l171 212h155v-218zM794 277l-87 -109v-6h92v115h-5z" />
    <glyph glyph-name="questiondown" unicode="&#xbf;" horiz-adv-x="645" 
d="M263 339.5q-30 27.5 -30 71.5t30 71.5t73 27.5q44 0 74 -27.5t30 -71.5t-30 -71.5t-74 -27.5q-43 0 -73 27.5zM155 -177q-66 23 -99 63t-33 92q0 49 22 82.5t52.5 52.5t78.5 41q50 24 72 40.5t22 43.5v29h145v-29q0 -47 -18 -78.5t-43 -49.5t-64 -38q-38 -20 -55.5 -34.5
t-17.5 -38.5q0 -52 99 -52q55 0 86.5 19.5t31.5 51.5h193q0 -63 -37.5 -112.5t-108 -77.5t-164.5 -28q-96 0 -162 23z" />
    <glyph glyph-name="Agrave" unicode="&#xc0;" horiz-adv-x="800" 
d="M806 0h-211l-41 108h-312l-41 -108h-207l283 700h245zM395 505l-94 -244h194l-94 244h-6zM467 767h-127l-123 171h177z" />
    <glyph glyph-name="Aacute" unicode="&#xc1;" horiz-adv-x="800" 
d="M806 0h-211l-41 108h-312l-41 -108h-207l283 700h245zM395 505l-94 -244h194l-94 244h-6zM460 767h-127l73 171h177z" />
    <glyph glyph-name="Acircumflex" unicode="&#xc2;" horiz-adv-x="800" 
d="M806 0h-211l-41 108h-312l-41 -108h-207l283 700h245zM395 505l-94 -244h194l-94 244h-6zM331 767h-162l155 171h152l156 -171h-162l-67 75h-6z" />
    <glyph glyph-name="Atilde" unicode="&#xc3;" horiz-adv-x="800" 
d="M806 0h-211l-41 108h-312l-41 -108h-207l283 700h245zM395 505l-94 -244h194l-94 244h-6zM437 784q-20 9 -46 26q-17 12 -28 17t-24 5q-31 0 -31 -37v-15h-115v27q0 69 31.5 105t88.5 36q30 0 50 -9t46 -26q15 -11 27 -16.5t24 -5.5q32 0 32 38v14h115v-27
q0 -69 -31.5 -105t-88.5 -36q-30 0 -50 9z" />
    <glyph glyph-name="Adieresis" unicode="&#xc4;" horiz-adv-x="800" 
d="M806 0h-211l-41 108h-312l-41 -108h-207l283 700h245zM395 505l-94 -244h194l-94 244h-6zM209 788.5q-26 24.5 -26 62.5t26 62.5t66 24.5t66 -24.5t26 -62.5t-26 -62.5t-66 -24.5t-66 24.5zM459 788.5q-26 24.5 -26 62.5t26 62.5t66 24.5t66 -24.5t26 -62.5t-26 -62.5
t-66 -24.5t-66 24.5z" />
    <glyph glyph-name="Aring" unicode="&#xc5;" horiz-adv-x="800" 
d="M806 0h-211l-41 108h-312l-41 -108h-207l283 700h245zM395 505l-94 -244h194l-94 244h-6zM301.5 796.5q-37.5 34.5 -37.5 90.5q0 55 37.5 89.5t98.5 34.5q60 0 98 -34.5t38 -89.5q0 -56 -37.5 -90.5t-98.5 -34.5t-98.5 34.5zM432.5 856.5q12.5 11.5 12.5 30.5t-12.5 30.5
t-32.5 11.5t-32.5 -11.5t-12.5 -30.5t12.5 -30.5t32.5 -11.5t32.5 11.5z" />
    <glyph glyph-name="AE" unicode="&#xc6;" horiz-adv-x="1047" 
d="M1000 700v-157h-331v-113h276v-148h-276v-125h331v-157h-531v130h-216l-60 -130h-212l333 700h686zM323 283h146v260h-26z" />
    <glyph glyph-name="Ccedilla" unicode="&#xc7;" horiz-adv-x="804" 
d="M770 257q-16 -116 -99.5 -188t-218.5 -82l-17 -22q46 -6 70.5 -29.5t24.5 -63.5q0 -49 -34.5 -78.5t-96.5 -29.5q-50 0 -85 14v80q35 -8 66 -8q54 0 54 28q0 25 -45 25h-38v48l27 36q-102 7 -178.5 54.5t-118.5 127t-42 181.5q0 108 46.5 190.5t132 128t197.5 45.5
q99 0 175 -34t121.5 -96t56.5 -144h-209q-10 48 -49 76t-95 28q-74 0 -118 -52t-44 -142t44 -142t118 -52q57 0 95 26.5t50 74.5h210z" />
    <glyph glyph-name="Egrave" unicode="&#xc8;" horiz-adv-x="716" 
d="M669 700v-157h-395v-113h340v-148h-340v-125h395v-157h-595v700h595zM443 767h-127l-123 171h177z" />
    <glyph glyph-name="Eacute" unicode="&#xc9;" horiz-adv-x="716" 
d="M669 700v-157h-395v-113h340v-148h-340v-125h395v-157h-595v700h595zM437 767h-127l73 171h177z" />
    <glyph glyph-name="Ecircumflex" unicode="&#xca;" horiz-adv-x="716" 
d="M669 700v-157h-395v-113h340v-148h-340v-125h395v-157h-595v700h595zM307 767h-162l155 171h152l156 -171h-162l-67 75h-6z" />
    <glyph glyph-name="Edieresis" unicode="&#xcb;" horiz-adv-x="716" 
d="M669 700v-157h-395v-113h340v-148h-340v-125h395v-157h-595v700h595zM185 788.5q-26 24.5 -26 62.5t26 62.5t66 24.5t66 -24.5t26 -62.5t-26 -62.5t-66 -24.5t-66 24.5zM435 788.5q-26 24.5 -26 62.5t26 62.5t66 24.5t66 -24.5t26 -62.5t-26 -62.5t-66 -24.5t-66 24.5z
" />
    <glyph glyph-name="Igrave" unicode="&#xcc;" horiz-adv-x="368" 
d="M284 0h-200v700h200v-700zM251 767h-127l-123 171h177z" />
    <glyph glyph-name="Iacute" unicode="&#xcd;" horiz-adv-x="368" 
d="M284 0h-200v700h200v-700zM244 767h-127l73 171h177z" />
    <glyph glyph-name="Icircumflex" unicode="&#xce;" horiz-adv-x="368" 
d="M284 0h-200v700h200v-700zM115 767h-162l155 171h152l156 -171h-162l-67 75h-6z" />
    <glyph glyph-name="Idieresis" unicode="&#xcf;" horiz-adv-x="368" 
d="M284 0h-200v700h200v-700zM-7 788.5q-26 24.5 -26 62.5t26 62.5t66 24.5t66 -24.5t26 -62.5t-26 -62.5t-66 -24.5t-66 24.5zM243 788.5q-26 24.5 -26 62.5t26 62.5t66 24.5t66 -24.5t26 -62.5t-26 -62.5t-66 -24.5t-66 24.5z" />
    <glyph glyph-name="Eth" unicode="&#xd0;" horiz-adv-x="803" 
d="M386 700q115 0 200.5 -43.5t131.5 -123t46 -183.5t-46 -183.5t-131.5 -123t-200.5 -43.5h-302v280h-80v141h80v279h302zM380 165q80 0 127 50t47 135t-47 135t-127 50h-96v-114h123v-141h-123v-115h96z" />
    <glyph glyph-name="Ntilde" unicode="&#xd1;" horiz-adv-x="851" 
d="M269 0h-195v700h201l301 -405h6v405h195v-700h-201l-301 405h-6v-405zM463 784q-20 9 -46 26q-17 12 -28 17t-24 5q-31 0 -31 -37v-15h-115v27q0 69 31.5 105t88.5 36q30 0 50 -9t46 -26q15 -11 27 -16.5t24 -5.5q32 0 32 38v14h115v-27q0 -69 -31.5 -105t-88.5 -36
q-30 0 -50 9z" />
    <glyph glyph-name="Ograve" unicode="&#xd2;" horiz-adv-x="846" 
d="M222 31.5q-87 45.5 -135 128t-48 190.5t48 190.5t135 128t201 45.5t201 -45.5t135 -128t48 -190.5t-48 -190.5t-135 -128t-201 -45.5t-201 45.5zM547.5 208.5q46.5 52.5 46.5 141.5t-46.5 141.5t-124.5 52.5t-124 -52t-46 -142t46 -142t124 -52t124.5 52.5zM490 767h-127
l-123 171h177z" />
    <glyph glyph-name="Oacute" unicode="&#xd3;" horiz-adv-x="846" 
d="M222 31.5q-87 45.5 -135 128t-48 190.5t48 190.5t135 128t201 45.5t201 -45.5t135 -128t48 -190.5t-48 -190.5t-135 -128t-201 -45.5t-201 45.5zM547.5 208.5q46.5 52.5 46.5 141.5t-46.5 141.5t-124.5 52.5t-124 -52t-46 -142t46 -142t124 -52t124.5 52.5zM484 767h-127
l73 171h177z" />
    <glyph glyph-name="Ocircumflex" unicode="&#xd4;" horiz-adv-x="846" 
d="M222 31.5q-87 45.5 -135 128t-48 190.5t48 190.5t135 128t201 45.5t201 -45.5t135 -128t48 -190.5t-48 -190.5t-135 -128t-201 -45.5t-201 45.5zM547.5 208.5q46.5 52.5 46.5 141.5t-46.5 141.5t-124.5 52.5t-124 -52t-46 -142t46 -142t124 -52t124.5 52.5zM354 767h-162
l155 171h152l156 -171h-162l-67 75h-6z" />
    <glyph glyph-name="Otilde" unicode="&#xd5;" horiz-adv-x="846" 
d="M222 31.5q-87 45.5 -135 128t-48 190.5t48 190.5t135 128t201 45.5t201 -45.5t135 -128t48 -190.5t-48 -190.5t-135 -128t-201 -45.5t-201 45.5zM547.5 208.5q46.5 52.5 46.5 141.5t-46.5 141.5t-124.5 52.5t-124 -52t-46 -142t46 -142t124 -52t124.5 52.5zM460 784
q-20 9 -46 26q-17 12 -28 17t-24 5q-31 0 -31 -37v-15h-115v27q0 69 31.5 105t88.5 36q30 0 50 -9t46 -26q15 -11 27 -16.5t24 -5.5q32 0 32 38v14h115v-27q0 -69 -31.5 -105t-88.5 -36q-30 0 -50 9z" />
    <glyph glyph-name="Odieresis" unicode="&#xd6;" horiz-adv-x="846" 
d="M222 31.5q-87 45.5 -135 128t-48 190.5t48 190.5t135 128t201 45.5t201 -45.5t135 -128t48 -190.5t-48 -190.5t-135 -128t-201 -45.5t-201 45.5zM547.5 208.5q46.5 52.5 46.5 141.5t-46.5 141.5t-124.5 52.5t-124 -52t-46 -142t46 -142t124 -52t124.5 52.5zM232 788.5
q-26 24.5 -26 62.5t26 62.5t66 24.5t66 -24.5t26 -62.5t-26 -62.5t-66 -24.5t-66 24.5zM482 788.5q-26 24.5 -26 62.5t26 62.5t66 24.5t66 -24.5t26 -62.5t-26 -62.5t-66 -24.5t-66 24.5z" />
    <glyph glyph-name="multiply" unicode="&#xd7;" 
d="M347 271l-134 -133l-91 91l133 132l-133 133l91 91l134 -133l133 133l90 -91l-133 -133l133 -132l-90 -91z" />
    <glyph glyph-name="Oslash" unicode="&#xd8;" horiz-adv-x="846" 
d="M695 620q54 -49 83 -118t29 -152q0 -108 -48 -190.5t-135 -128t-201 -45.5q-90 0 -163 29l-43 -60h-156l90 125q-54 49 -83 118t-29 152q0 108 48 190.5t135 128t201 45.5q87 0 162 -28l43 59h157zM273 250l205 286q-27 8 -55 8q-78 0 -124 -52t-46 -142q0 -57 20 -100z
M547.5 208.5q46.5 52.5 46.5 141.5q0 58 -20 101l-207 -287q27 -8 56 -8q78 0 124.5 52.5z" />
    <glyph glyph-name="Ugrave" unicode="&#xd9;" horiz-adv-x="812" 
d="M228.5 22q-77.5 36 -121 105t-43.5 164v409h200v-397q0 -73 38.5 -110t103.5 -37t103.5 37t38.5 110v397h200v-409q0 -95 -43.5 -164t-121 -105t-177.5 -36t-177.5 36zM473 767h-127l-123 171h177z" />
    <glyph glyph-name="Uacute" unicode="&#xda;" horiz-adv-x="812" 
d="M228.5 22q-77.5 36 -121 105t-43.5 164v409h200v-397q0 -73 38.5 -110t103.5 -37t103.5 37t38.5 110v397h200v-409q0 -95 -43.5 -164t-121 -105t-177.5 -36t-177.5 36zM467 767h-127l73 171h177z" />
    <glyph glyph-name="Ucircumflex" unicode="&#xdb;" horiz-adv-x="812" 
d="M228.5 22q-77.5 36 -121 105t-43.5 164v409h200v-397q0 -73 38.5 -110t103.5 -37t103.5 37t38.5 110v397h200v-409q0 -95 -43.5 -164t-121 -105t-177.5 -36t-177.5 36zM337 767h-162l155 171h152l156 -171h-162l-67 75h-6z" />
    <glyph glyph-name="Udieresis" unicode="&#xdc;" horiz-adv-x="812" 
d="M228.5 22q-77.5 36 -121 105t-43.5 164v409h200v-397q0 -73 38.5 -110t103.5 -37t103.5 37t38.5 110v397h200v-409q0 -95 -43.5 -164t-121 -105t-177.5 -36t-177.5 36zM215 788.5q-26 24.5 -26 62.5t26 62.5t66 24.5t66 -24.5t26 -62.5t-26 -62.5t-66 -24.5t-66 24.5z
M465 788.5q-26 24.5 -26 62.5t26 62.5t66 24.5t66 -24.5t26 -62.5t-26 -62.5t-66 -24.5t-66 24.5z" />
    <glyph glyph-name="Yacute" unicode="&#xdd;" horiz-adv-x="711" 
d="M456 0h-201v235l-261 465h217l142 -288h5l146 288h213l-261 -465v-235zM416 767h-127l73 171h177z" />
    <glyph glyph-name="Thorn" unicode="&#xde;" horiz-adv-x="802" 
d="M449 601q162 0 236 -62t74 -184q0 -123 -74 -185t-236 -62h-175v-108h-200v700h200v-99h175zM446 273q53 0 78 19.5t25 62.5q0 42 -25 61.5t-78 19.5h-172v-163h172z" />
    <glyph glyph-name="germandbls" unicode="&#xdf;" horiz-adv-x="743" 
d="M348 31.5q-61 50.5 -61 138.5h168q0 -18 13 -28.5t35 -10.5t34.5 11t12.5 31q0 24 -21 41.5t-63 39.5q-35 19 -56 33.5t-36 35.5t-15 49q0 23 10 39.5t30 38.5q18 20 26 32.5t8 29.5q0 24 -20.5 36.5t-56.5 12.5q-47 0 -77 -27.5t-30 -76.5v-457h-178v462q0 124 71.5 188
t210.5 64q74 0 129.5 -21t85 -57.5t29.5 -79.5q0 -30 -10 -51t-30 -48q-13 -17 -19.5 -28.5t-6.5 -24.5q0 -18 16 -34t52 -42q40 -29 64.5 -51.5t43 -55t18.5 -74.5q0 -74 -55.5 -120t-151.5 -46q-109 0 -170 50.5z" />
    <glyph glyph-name="agrave" unicode="&#xe0;" horiz-adv-x="657" 
d="M83 27q-55 41 -55 116t59.5 115t154.5 40q47 0 90.5 -9t70.5 -24v65q0 65 -84 65q-39 0 -61.5 -13t-22.5 -37h-182q0 84 70 133t197 49q125 0 194.5 -51t69.5 -149v-126q0 -30 6 -41t21 -11q11 0 17 3v-146q-28 -15 -79 -15q-97 0 -126 73h-6q-27 -36 -77 -57t-112 -21
q-90 0 -145 41zM358 122.5q28 6.5 45 17.5v39q-17 7 -46.5 11.5t-58.5 4.5q-43 0 -65.5 -9t-22.5 -30q0 -40 88 -40q32 0 60 6.5zM389 580h-118l-131 187h169z" />
    <glyph glyph-name="aacute" unicode="&#xe1;" horiz-adv-x="657" 
d="M83 27q-55 41 -55 116t59.5 115t154.5 40q47 0 90.5 -9t70.5 -24v65q0 65 -84 65q-39 0 -61.5 -13t-22.5 -37h-182q0 84 70 133t197 49q125 0 194.5 -51t69.5 -149v-126q0 -30 6 -41t21 -11q11 0 17 3v-146q-28 -15 -79 -15q-97 0 -126 73h-6q-27 -36 -77 -57t-112 -21
q-90 0 -145 41zM358 122.5q28 6.5 45 17.5v39q-17 7 -46.5 11.5t-58.5 4.5q-43 0 -65.5 -9t-22.5 -30q0 -40 88 -40q32 0 60 6.5zM378 580h-118l81 187h168z" />
    <glyph glyph-name="acircumflex" unicode="&#xe2;" horiz-adv-x="657" 
d="M83 27q-55 41 -55 116t59.5 115t154.5 40q47 0 90.5 -9t70.5 -24v65q0 65 -84 65q-39 0 -61.5 -13t-22.5 -37h-182q0 84 70 133t197 49q125 0 194.5 -51t69.5 -149v-126q0 -30 6 -41t21 -11q11 0 17 3v-146q-28 -15 -79 -15q-97 0 -126 73h-6q-27 -36 -77 -57t-112 -21
q-90 0 -145 41zM358 122.5q28 6.5 45 17.5v39q-17 7 -46.5 11.5t-58.5 4.5q-43 0 -65.5 -9t-22.5 -30q0 -40 88 -40q32 0 60 6.5zM255 580h-162l155 171h152l156 -171h-162l-67 75h-6z" />
    <glyph glyph-name="atilde" unicode="&#xe3;" horiz-adv-x="657" 
d="M83 27q-55 41 -55 116t59.5 115t154.5 40q47 0 90.5 -9t70.5 -24v65q0 65 -84 65q-39 0 -61.5 -13t-22.5 -37h-182q0 84 70 133t197 49q125 0 194.5 -51t69.5 -149v-126q0 -30 6 -41t21 -11q11 0 17 3v-146q-28 -15 -79 -15q-97 0 -126 73h-6q-27 -36 -77 -57t-112 -21
q-90 0 -145 41zM358 122.5q28 6.5 45 17.5v39q-17 7 -46.5 11.5t-58.5 4.5q-43 0 -65.5 -9t-22.5 -30q0 -40 88 -40q32 0 60 6.5zM118 607q0 69 31.5 105t88.5 36q30 0 50 -9t46 -26q15 -11 27 -16.5t24 -5.5q32 0 32 38v14h115v-27q0 -69 -31.5 -105t-88.5 -36q-30 0 -50 9
t-46 26q-17 11 -28 16.5t-24 5.5q-31 0 -31 -37v-15h-115v27z" />
    <glyph glyph-name="adieresis" unicode="&#xe4;" horiz-adv-x="657" 
d="M83 27q-55 41 -55 116t59.5 115t154.5 40q47 0 90.5 -9t70.5 -24v65q0 65 -84 65q-39 0 -61.5 -13t-22.5 -37h-182q0 84 70 133t197 49q125 0 194.5 -51t69.5 -149v-126q0 -30 6 -41t21 -11q11 0 17 3v-146q-28 -15 -79 -15q-97 0 -126 73h-6q-27 -36 -77 -57t-112 -21
q-90 0 -145 41zM358 122.5q28 6.5 45 17.5v39q-17 7 -46.5 11.5t-58.5 4.5q-43 0 -65.5 -9t-22.5 -30q0 -40 88 -40q32 0 60 6.5zM132 597q-26 25 -26 64q0 38 26.5 63.5t66.5 25.5t67 -25.5t27 -63.5t-27 -63.5t-67 -25.5q-41 0 -67 25zM382 597q-26 25 -26 64
q0 38 26.5 63.5t66.5 25.5t67 -25.5t27 -63.5q0 -39 -26.5 -64t-67.5 -25t-67 25z" />
    <glyph glyph-name="aring" unicode="&#xe5;" horiz-adv-x="657" 
d="M83 27q-55 41 -55 116t59.5 115t154.5 40q47 0 90.5 -9t70.5 -24v65q0 65 -84 65q-39 0 -61.5 -13t-22.5 -37h-182q0 84 70 133t197 49q125 0 194.5 -51t69.5 -149v-126q0 -30 6 -41t21 -11q11 0 17 3v-146q-28 -15 -79 -15q-97 0 -126 73h-6q-27 -36 -77 -57t-112 -21
q-90 0 -145 41zM358 122.5q28 6.5 45 17.5v39q-17 7 -46.5 11.5t-58.5 4.5q-43 0 -65.5 -9t-22.5 -30q0 -40 88 -40q32 0 60 6.5zM226.5 599.5q-37.5 34.5 -37.5 89.5q0 56 37.5 90.5t98.5 34.5q60 0 98 -34.5t38 -90.5q0 -55 -37.5 -89.5t-98.5 -34.5t-98.5 34.5z
M357.5 658.5q12.5 11.5 12.5 30.5q0 20 -12.5 31t-32.5 11t-32.5 -11t-12.5 -31q0 -19 12.5 -30.5t32.5 -11.5t32.5 11.5z" />
    <glyph glyph-name="ae" unicode="&#xe6;" horiz-adv-x="1011" 
d="M976 210h-389q9 -47 36.5 -71t68.5 -24q30 0 52.5 12t34.5 36h189q-17 -83 -87.5 -132.5t-173.5 -49.5q-66 0 -122.5 21t-90.5 61h-5q-42 -38 -103 -59.5t-136 -21.5q-105 0 -163.5 42.5t-58.5 118.5q0 80 65.5 121t195.5 41h114v21q0 35 -21.5 52t-62.5 17
q-39 0 -61.5 -13.5t-22.5 -36.5h-182q0 55 31.5 96t88 63.5t130.5 22.5q64 0 117.5 -21t83.5 -55h6q34 36 85 56t112 20q82 0 143.5 -32.5t95.5 -94t34 -144.5q0 -26 -4 -46zM625.5 372q-27.5 -22 -37.5 -67h203q-3 40 -30.5 64.5t-68.5 24.5q-39 0 -66.5 -22zM403 210h-100
q-93 0 -93 -47q0 -45 88 -45q105 0 105 77v15z" />
    <glyph glyph-name="ccedilla" unicode="&#xe7;" horiz-adv-x="651" 
d="M619 203q0 -60 -33 -108.5t-91 -78t-132 -34.5l-13 -17q46 -6 70.5 -29.5t24.5 -63.5q0 -49 -34.5 -78.5t-96.5 -29.5q-50 0 -85 14v80q35 -8 66 -8q54 0 54 28q0 25 -45 25h-38v48l24 32q-74 9 -131.5 44t-90 93.5t-32.5 133.5q0 83 38.5 145t106.5 95t155 33
q80 0 143 -27.5t99 -77t36 -112.5h-184q-18 64 -98 64q-51 0 -82 -31t-31 -89t31 -89t82 -31q43 0 69.5 17.5t33.5 51.5h184z" />
    <glyph glyph-name="egrave" unicode="&#xe8;" horiz-adv-x="656" 
d="M620 210h-400q9 -47 38 -71t73 -24q71 0 93 48h189q-16 -78 -86 -130t-190 -52q-90 0 -158 33.5t-105.5 95t-37.5 144.5t37.5 145t105 95t153.5 33q85 0 151 -31.5t103.5 -92.5t37.5 -147q0 -31 -4 -46zM259.5 371.5q-28.5 -22.5 -38.5 -66.5h214q-4 41 -32 65t-72 24
q-43 0 -71.5 -22.5zM398 580h-118l-131 187h169z" />
    <glyph glyph-name="eacute" unicode="&#xe9;" horiz-adv-x="656" 
d="M620 210h-400q9 -47 38 -71t73 -24q71 0 93 48h189q-16 -78 -86 -130t-190 -52q-90 0 -158 33.5t-105.5 95t-37.5 144.5t37.5 145t105 95t153.5 33q85 0 151 -31.5t103.5 -92.5t37.5 -147q0 -31 -4 -46zM259.5 371.5q-28.5 -22.5 -38.5 -66.5h214q-4 41 -32 65t-72 24
q-43 0 -71.5 -22.5zM387 580h-118l81 187h168z" />
    <glyph glyph-name="ecircumflex" unicode="&#xea;" horiz-adv-x="656" 
d="M620 210h-400q9 -47 38 -71t73 -24q71 0 93 48h189q-16 -78 -86 -130t-190 -52q-90 0 -158 33.5t-105.5 95t-37.5 144.5t37.5 145t105 95t153.5 33q85 0 151 -31.5t103.5 -92.5t37.5 -147q0 -31 -4 -46zM259.5 371.5q-28.5 -22.5 -38.5 -66.5h214q-4 41 -32 65t-72 24
q-43 0 -71.5 -22.5zM264 580h-162l155 171h152l156 -171h-162l-67 75h-6z" />
    <glyph glyph-name="edieresis" unicode="&#xeb;" horiz-adv-x="656" 
d="M620 210h-400q9 -47 38 -71t73 -24q71 0 93 48h189q-16 -78 -86 -130t-190 -52q-90 0 -158 33.5t-105.5 95t-37.5 144.5t37.5 145t105 95t153.5 33q85 0 151 -31.5t103.5 -92.5t37.5 -147q0 -31 -4 -46zM259.5 371.5q-28.5 -22.5 -38.5 -66.5h214q-4 41 -32 65t-72 24
q-43 0 -71.5 -22.5zM141 597q-26 25 -26 64q0 38 26.5 63.5t66.5 25.5t67 -25.5t27 -63.5t-27 -63.5t-67 -25.5q-41 0 -67 25zM391 597q-26 25 -26 64q0 38 26.5 63.5t66.5 25.5t67 -25.5t27 -63.5q0 -39 -26.5 -64t-67.5 -25t-67 25z" />
    <glyph glyph-name="igrave" unicode="&#xec;" horiz-adv-x="324" 
d="M253 0h-182v509h182v-509zM226 580h-118l-131 187h169z" />
    <glyph glyph-name="iacute" unicode="&#xed;" horiz-adv-x="324" 
d="M253 0h-182v509h182v-509zM216 580h-118l81 187h168z" />
    <glyph glyph-name="icircumflex" unicode="&#xee;" horiz-adv-x="324" 
d="M253 0h-182v509h182v-509zM93 580h-162l155 171h152l156 -171h-162l-67 75h-6z" />
    <glyph glyph-name="idieresis" unicode="&#xef;" horiz-adv-x="324" 
d="M253 0h-182v509h182v-509zM-30 597q-26 25 -26 64q0 38 26.5 63.5t66.5 25.5t67 -25.5t27 -63.5t-27 -63.5t-67 -25.5q-41 0 -67 25zM220 597q-26 25 -26 64q0 38 26.5 63.5t66.5 25.5t67 -25.5t27 -63.5q0 -39 -26.5 -64t-67.5 -25t-67 25z" />
    <glyph glyph-name="eth" unicode="&#xf0;" horiz-adv-x="653" 
d="M449 657q76 -53 117 -142.5t41 -202.5q0 -157 -77 -244t-219 -87q-83 0 -145 29t-96 83t-34 127q0 65 30 116t83.5 79t123.5 28q50 0 92 -14t69 -39q-4 47 -26 85.5t-58 63.5l-61 -74l-77 60l43 51q-18 3 -38 3q-30 0 -57 -4l-14 137q48 6 93 6q63 0 120 -17l65 78
l77 -59zM400 155.5q28 26.5 28 69.5t-28.5 69t-74.5 26q-45 0 -73.5 -26t-28.5 -69t28.5 -69.5t73.5 -26.5q47 0 75 26.5z" />
    <glyph glyph-name="ntilde" unicode="&#xf1;" horiz-adv-x="702" 
d="M66 0v509h177v-80h5q26 43 75 68.5t111 25.5q97 0 151.5 -57.5t54.5 -159.5v-306h-181v241q0 52 -26.5 82.5t-74.5 30.5q-51 0 -80.5 -30.5t-29.5 -82.5v-241h-182zM146 607q0 69 31.5 105t88.5 36q30 0 50 -9t46 -26q15 -11 27 -16.5t24 -5.5q32 0 32 38v14h115v-27
q0 -69 -31.5 -105t-88.5 -36q-30 0 -50 9t-46 26q-17 11 -28 16.5t-24 5.5q-31 0 -31 -37v-15h-115v27z" />
    <glyph glyph-name="ograve" unicode="&#xf2;" horiz-adv-x="661" 
d="M178.5 14q-66.5 33 -104.5 95t-38 145t38 145t104.5 95t151.5 33t152 -33t105 -95t38 -145t-38 -145t-105 -95t-152 -33t-151.5 33zM409 165.5q29 31.5 29 88.5t-28.5 88.5t-79.5 31.5q-50 0 -78.5 -31.5t-28.5 -88.5t28.5 -88.5t78.5 -31.5t79 31.5zM395 580h-118
l-131 187h169z" />
    <glyph glyph-name="oacute" unicode="&#xf3;" horiz-adv-x="661" 
d="M178.5 14q-66.5 33 -104.5 95t-38 145t38 145t104.5 95t151.5 33t152 -33t105 -95t38 -145t-38 -145t-105 -95t-152 -33t-151.5 33zM409 165.5q29 31.5 29 88.5t-28.5 88.5t-79.5 31.5q-50 0 -78.5 -31.5t-28.5 -88.5t28.5 -88.5t78.5 -31.5t79 31.5zM384 580h-118
l81 187h168z" />
    <glyph glyph-name="ocircumflex" unicode="&#xf4;" horiz-adv-x="661" 
d="M178.5 14q-66.5 33 -104.5 95t-38 145t38 145t104.5 95t151.5 33t152 -33t105 -95t38 -145t-38 -145t-105 -95t-152 -33t-151.5 33zM409 165.5q29 31.5 29 88.5t-28.5 88.5t-79.5 31.5q-50 0 -78.5 -31.5t-28.5 -88.5t28.5 -88.5t78.5 -31.5t79 31.5zM261 580h-162
l155 171h152l156 -171h-162l-67 75h-6z" />
    <glyph glyph-name="otilde" unicode="&#xf5;" horiz-adv-x="661" 
d="M178.5 14q-66.5 33 -104.5 95t-38 145t38 145t104.5 95t151.5 33t152 -33t105 -95t38 -145t-38 -145t-105 -95t-152 -33t-151.5 33zM409 165.5q29 31.5 29 88.5t-28.5 88.5t-79.5 31.5q-50 0 -78.5 -31.5t-28.5 -88.5t28.5 -88.5t78.5 -31.5t79 31.5zM124 607
q0 69 31.5 105t88.5 36q30 0 50 -9t46 -26q15 -11 27 -16.5t24 -5.5q32 0 32 38v14h115v-27q0 -69 -31.5 -105t-88.5 -36q-30 0 -50 9t-46 26q-17 11 -28 16.5t-24 5.5q-31 0 -31 -37v-15h-115v27z" />
    <glyph glyph-name="odieresis" unicode="&#xf6;" horiz-adv-x="661" 
d="M178.5 14q-66.5 33 -104.5 95t-38 145t38 145t104.5 95t151.5 33t152 -33t105 -95t38 -145t-38 -145t-105 -95t-152 -33t-151.5 33zM409 165.5q29 31.5 29 88.5t-28.5 88.5t-79.5 31.5q-50 0 -78.5 -31.5t-28.5 -88.5t28.5 -88.5t78.5 -31.5t79 31.5zM138 597
q-26 25 -26 64q0 38 26.5 63.5t66.5 25.5t67 -25.5t27 -63.5t-27 -63.5t-67 -25.5q-41 0 -67 25zM388 597q-26 25 -26 64q0 38 26.5 63.5t66.5 25.5t67 -25.5t27 -63.5q0 -39 -26.5 -64t-67.5 -25t-67 25z" />
    <glyph glyph-name="divide" unicode="&#xf7;" 
d="M282 506q-26 24 -26 62t26 62t64 24t64 -24t26 -62t-26 -62t-64 -24t-64 24zM592 298h-492v128h492v-128zM282 93q-26 24 -26 62q0 39 26 62.5t64 23.5t64 -23.5t26 -62.5q0 -38 -26 -62t-64 -24t-64 24z" />
    <glyph glyph-name="oslash" unicode="&#xf8;" horiz-adv-x="661" 
d="M539 456q41 -37 63.5 -88t22.5 -114q0 -83 -38 -145t-105 -95t-152 -33q-68 0 -124 21l-30 -40h-121l67 90q-41 36 -63.5 87.5t-22.5 114.5q0 83 38 145t104.5 95t151.5 33q66 0 126 -22l30 41h120zM221 187l146 198q-15 4 -37 4q-57 0 -89 -35.5t-32 -99.5q0 -38 12 -67
zM419 155q32 35 32 99q0 36 -11 66l-145 -196q15 -4 35 -4q57 0 89 35z" />
    <glyph glyph-name="ugrave" unicode="&#xf9;" horiz-adv-x="697" 
d="M117 42q-56 56 -56 160v307h182v-244q0 -52 26 -81t71 -29q51 0 80 29t29 81v244h181v-509h-176v80h-6q-26 -44 -72 -69t-109 -25q-94 0 -150 56zM411 580h-118l-131 187h169z" />
    <glyph glyph-name="uacute" unicode="&#xfa;" horiz-adv-x="697" 
d="M117 42q-56 56 -56 160v307h182v-244q0 -52 26 -81t71 -29q51 0 80 29t29 81v244h181v-509h-176v80h-6q-26 -44 -72 -69t-109 -25q-94 0 -150 56zM400 580h-118l81 187h168z" />
    <glyph glyph-name="ucircumflex" unicode="&#xfb;" horiz-adv-x="697" 
d="M117 42q-56 56 -56 160v307h182v-244q0 -52 26 -81t71 -29q51 0 80 29t29 81v244h181v-509h-176v80h-6q-26 -44 -72 -69t-109 -25q-94 0 -150 56zM277 580h-162l155 171h152l156 -171h-162l-67 75h-6z" />
    <glyph glyph-name="udieresis" unicode="&#xfc;" horiz-adv-x="697" 
d="M117 42q-56 56 -56 160v307h182v-244q0 -52 26 -81t71 -29q51 0 80 29t29 81v244h181v-509h-176v80h-6q-26 -44 -72 -69t-109 -25q-94 0 -150 56zM154 597q-26 25 -26 64q0 38 26.5 63.5t66.5 25.5t67 -25.5t27 -63.5t-27 -63.5t-67 -25.5q-41 0 -67 25zM404 597
q-26 25 -26 64q0 38 26.5 63.5t66.5 25.5t67 -25.5t27 -63.5q0 -39 -26.5 -64t-67.5 -25t-67 25z" />
    <glyph glyph-name="yacute" unicode="&#xfd;" horiz-adv-x="633" 
d="M443 509h189l-209 -495q-34 -80 -68.5 -128.5t-82.5 -74t-118 -25.5q-43 0 -80 9v153q29 -9 58 -9q40 0 65 16t39 49l6 14l-246 491h191l138 -306h6zM369 580h-118l81 187h168z" />
    <glyph glyph-name="thorn" unicode="&#xfe;" horiz-adv-x="703" 
d="M71 -200v900h182v-256h5q25 37 69 57.5t100 20.5q68 0 122.5 -33.5t86 -94.5t31.5 -141t-31.5 -141.5t-86.5 -94.5t-125 -33q-54 0 -97 20t-69 56h-5v-260h-182zM445.5 171.5q31.5 31.5 31.5 81.5t-31.5 81.5t-80.5 31.5t-80.5 -31t-31.5 -82t31.5 -82t80.5 -31
t80.5 31.5z" />
    <glyph glyph-name="ydieresis" unicode="&#xff;" horiz-adv-x="633" 
d="M443 509h189l-209 -495q-34 -80 -68.5 -128.5t-82.5 -74t-118 -25.5q-43 0 -80 9v153q29 -9 58 -9q40 0 65 16t39 49l6 14l-246 491h191l138 -306h6zM123 597q-26 25 -26 64q0 38 26.5 63.5t66.5 25.5t67 -25.5t27 -63.5t-27 -63.5t-67 -25.5q-41 0 -67 25zM373 597
q-26 25 -26 64q0 38 26.5 63.5t66.5 25.5t67 -25.5t27 -63.5q0 -39 -26.5 -64t-67.5 -25t-67 25z" />
    <glyph glyph-name="Amacron" unicode="&#x100;" horiz-adv-x="800" 
d="M806 0h-211l-41 108h-312l-41 -108h-207l283 700h245zM395 505l-94 -244h194l-94 244h-6zM599 794h-399v113h399v-113z" />
    <glyph glyph-name="amacron" unicode="&#x101;" horiz-adv-x="657" 
d="M83 27q-55 41 -55 116t59.5 115t154.5 40q47 0 90.5 -9t70.5 -24v65q0 65 -84 65q-39 0 -61.5 -13t-22.5 -37h-182q0 84 70 133t197 49q125 0 194.5 -51t69.5 -149v-126q0 -30 6 -41t21 -11q11 0 17 3v-146q-28 -15 -79 -15q-97 0 -126 73h-6q-27 -36 -77 -57t-112 -21
q-90 0 -145 41zM358 122.5q28 6.5 45 17.5v39q-17 7 -46.5 11.5t-58.5 4.5q-43 0 -65.5 -9t-22.5 -30q0 -40 88 -40q32 0 60 6.5zM524 594h-399v113h399v-113z" />
    <glyph glyph-name="Abreve" unicode="&#x102;" horiz-adv-x="800" 
d="M806 0h-211l-41 108h-312l-41 -108h-207l283 700h245zM395 505l-94 -244h194l-94 244h-6zM242.5 808.5q-56.5 44.5 -56.5 122.5h120q0 -28 24.5 -44.5t68.5 -16.5t69 16.5t25 44.5h120q0 -78 -56.5 -122.5t-157.5 -44.5q-100 0 -156.5 44.5z" />
    <glyph glyph-name="abreve" unicode="&#x103;" horiz-adv-x="657" 
d="M83 27q-55 41 -55 116t59.5 115t154.5 40q47 0 90.5 -9t70.5 -24v65q0 65 -84 65q-39 0 -61.5 -13t-22.5 -37h-182q0 84 70 133t197 49q125 0 194.5 -51t69.5 -149v-126q0 -30 6 -41t21 -11q11 0 17 3v-146q-28 -15 -79 -15q-97 0 -126 73h-6q-27 -36 -77 -57t-112 -21
q-90 0 -145 41zM358 122.5q28 6.5 45 17.5v39q-17 7 -46.5 11.5t-58.5 4.5q-43 0 -65.5 -9t-22.5 -30q0 -40 88 -40q32 0 60 6.5zM165.5 622q-54.5 42 -54.5 124h120q0 -28 24 -44t69 -16t69.5 16t24.5 44h120q0 -82 -55 -124t-159 -42t-158.5 42z" />
    <glyph glyph-name="Aogonek" unicode="&#x104;" horiz-adv-x="800" 
d="M733.5 -139q12.5 -11 34.5 -11q18 0 38 8v-80q-23 -14 -66 -14q-55 0 -85 27t-30 79q0 38 22.5 71.5t60.5 58.5h-113l-41 108h-312l-41 -108h-207l283 700h245l284 -700q-85 -54 -85 -106q0 -22 12.5 -33zM395 505l-94 -244h194l-94 244h-6z" />
    <glyph glyph-name="aogonek" unicode="&#x105;" horiz-adv-x="657" 
d="M629 -142v-80q-23 -14 -66 -14q-55 0 -85 27t-30 79q0 36 19 68t52 56q-72 11 -96 71h-6q-27 -36 -77 -57.5t-112 -21.5q-90 0 -145 41t-55 116t59.5 115t154.5 40q47 0 90.5 -9t70.5 -24v65q0 65 -84 65q-39 0 -61.5 -13t-22.5 -37h-182q0 84 70 133t197 49
q125 0 194.5 -51t69.5 -149v-126q0 -30 6 -41t21 -11q11 0 17 3v-146q-84 -57 -84 -111q0 -23 12 -34t34 -11q19 0 39 8zM398 179q-18 7 -47.5 11.5t-58.5 4.5q-42 0 -64.5 -9t-22.5 -30t22.5 -29.5t64.5 -8.5q32 0 60 6.5t46 17.5v37z" />
    <glyph glyph-name="Cacute" unicode="&#x106;" horiz-adv-x="804" 
d="M217.5 31.5q-85.5 45.5 -132 128t-46.5 190.5t46.5 190.5t132 128t197.5 45.5q99 0 175 -34t121.5 -96t56.5 -144h-209q-10 48 -49 76t-95 28q-74 0 -118 -52t-44 -142t44 -142t118 -52q57 0 95 26.5t50 74.5h210q-11 -81 -56.5 -142.5t-122 -95t-176.5 -33.5
q-112 0 -197.5 45.5zM469 767h-127l73 171h177z" />
    <glyph glyph-name="cacute" unicode="&#x107;" horiz-adv-x="651" 
d="M181 14.5q-68 33.5 -106.5 95.5t-38.5 144q0 83 38.5 145t106.5 95t155 33q80 0 143 -27.5t99 -77t36 -112.5h-184q-18 64 -98 64q-51 0 -82 -31t-31 -89t31 -89t82 -31q43 0 69.5 17.5t33.5 51.5h184q0 -64 -37 -114.5t-101.5 -79t-145.5 -28.5q-86 0 -154 33.5z
M393 580h-118l81 187h168z" />
    <glyph glyph-name="Ccircumflex" unicode="&#x108;" horiz-adv-x="804" 
d="M217.5 31.5q-85.5 45.5 -132 128t-46.5 190.5t46.5 190.5t132 128t197.5 45.5q99 0 175 -34t121.5 -96t56.5 -144h-209q-10 48 -49 76t-95 28q-74 0 -118 -52t-44 -142t44 -142t118 -52q57 0 95 26.5t50 74.5h210q-11 -81 -56.5 -142.5t-122 -95t-176.5 -33.5
q-112 0 -197.5 45.5zM339 767h-162l155 171h152l156 -171h-162l-67 75h-6z" />
    <glyph glyph-name="ccircumflex" unicode="&#x109;" horiz-adv-x="651" 
d="M181 14.5q-68 33.5 -106.5 95.5t-38.5 144q0 83 38.5 145t106.5 95t155 33q80 0 143 -27.5t99 -77t36 -112.5h-184q-18 64 -98 64q-51 0 -82 -31t-31 -89t31 -89t82 -31q43 0 69.5 17.5t33.5 51.5h184q0 -64 -37 -114.5t-101.5 -79t-145.5 -28.5q-86 0 -154 33.5z
M270 580h-162l155 171h152l156 -171h-162l-67 75h-6z" />
    <glyph glyph-name="Cdotaccent" unicode="&#x10a;" horiz-adv-x="804" 
d="M217.5 31.5q-85.5 45.5 -132 128t-46.5 190.5t46.5 190.5t132 128t197.5 45.5q99 0 175 -34t121.5 -96t56.5 -144h-209q-10 48 -49 76t-95 28q-74 0 -118 -52t-44 -142t44 -142t118 -52q57 0 95 26.5t50 74.5h210q-11 -81 -56.5 -142.5t-122 -95t-176.5 -33.5
q-112 0 -197.5 45.5zM339 786q-27 26 -27 65q0 40 27 66t69 26q43 0 70 -25.5t27 -66.5q0 -39 -27.5 -65t-69.5 -26t-69 26z" />
    <glyph glyph-name="cdotaccent" unicode="&#x10b;" horiz-adv-x="651" 
d="M181 14.5q-68 33.5 -106.5 95.5t-38.5 144q0 83 38.5 145t106.5 95t155 33q80 0 143 -27.5t99 -77t36 -112.5h-184q-18 64 -98 64q-51 0 -82 -31t-31 -89t31 -89t82 -31q43 0 69.5 17.5t33.5 51.5h184q0 -64 -37 -114.5t-101.5 -79t-145.5 -28.5q-86 0 -154 33.5z
M268.5 598q-27.5 26 -27.5 67t27.5 67t70.5 26t70.5 -26t27.5 -67t-27.5 -67t-70.5 -26t-70.5 26z" />
    <glyph glyph-name="Ccaron" unicode="&#x10c;" horiz-adv-x="804" 
d="M217.5 31.5q-85.5 45.5 -132 128t-46.5 190.5t46.5 190.5t132 128t197.5 45.5q99 0 175 -34t121.5 -96t56.5 -144h-209q-10 48 -49 76t-95 28q-74 0 -118 -52t-44 -142t44 -142t118 -52q57 0 95 26.5t50 74.5h210q-11 -81 -56.5 -142.5t-122 -95t-176.5 -33.5
q-112 0 -197.5 45.5zM484 767h-152l-155 171h162l66 -75h6l67 75h162z" />
    <glyph glyph-name="ccaron" unicode="&#x10d;" horiz-adv-x="651" 
d="M181 14.5q-68 33.5 -106.5 95.5t-38.5 144q0 83 38.5 145t106.5 95t155 33q80 0 143 -27.5t99 -77t36 -112.5h-184q-18 64 -98 64q-51 0 -82 -31t-31 -89t31 -89t82 -31q43 0 69.5 17.5t33.5 51.5h184q0 -64 -37 -114.5t-101.5 -79t-145.5 -28.5q-86 0 -154 33.5z
M415 580h-152l-155 171h162l66 -75h6l67 75h162z" />
    <glyph glyph-name="Dcaron" unicode="&#x10e;" horiz-adv-x="793" 
d="M74 0v700h302q115 0 200.5 -43.5t131.5 -123t46 -183.5t-46 -183.5t-131.5 -123t-200.5 -43.5h-302zM370 165q80 0 127 50t47 135t-47 135t-127 50h-96v-370h96zM453 767h-152l-155 171h162l66 -75h6l67 75h162z" />
    <glyph glyph-name="dcaron" unicode="&#x10f;" horiz-adv-x="817" 
d="M155 18q-56 33 -87.5 94.5t-31.5 141.5q0 81 31.5 142t86.5 94.5t125 33.5q54 0 97 -20t69 -56h5v252h182v-700h-166v71h-5q-25 -41 -71.5 -63.5t-108.5 -22.5q-70 0 -126 33zM419 172.5q31 30.5 31 81.5t-31 82t-81 31q-49 0 -80.5 -31t-31.5 -82q0 -50 31.5 -81
t80.5 -31q50 0 81 30.5zM775 530h-107l23 170h156z" />
    <glyph glyph-name="Dcroat" unicode="&#x110;" horiz-adv-x="803" 
d="M386 700q115 0 200.5 -43.5t131.5 -123t46 -183.5t-46 -183.5t-131.5 -123t-200.5 -43.5h-302v280h-80v141h80v279h302zM380 165q80 0 127 50t47 135t-47 135t-127 50h-96v-114h123v-141h-123v-115h96z" />
    <glyph glyph-name="dcroat" unicode="&#x111;" horiz-adv-x="700" 
d="M699 634v-116h-80v-518h-164v70h-6q-25 -39 -72 -62t-108 -23q-65 0 -118 30.5t-84 86.5t-31 130q0 72 30.5 127.5t84 86.5t118.5 31q105 0 163 -70h6v111h-179v116h179v66h181v-66h80zM408.5 153.5q29.5 29.5 29.5 76.5t-29.5 76t-77.5 29q-47 0 -76 -29t-29 -76
t29.5 -76.5t75.5 -29.5q48 0 77.5 29.5z" />
    <glyph glyph-name="Emacron" unicode="&#x112;" horiz-adv-x="716" 
d="M669 700v-157h-395v-113h340v-148h-340v-125h395v-157h-595v700h595zM575 794h-399v113h399v-113z" />
    <glyph glyph-name="emacron" unicode="&#x113;" horiz-adv-x="656" 
d="M620 210h-400q9 -47 38 -71t73 -24q71 0 93 48h189q-16 -78 -86 -130t-190 -52q-90 0 -158 33.5t-105.5 95t-37.5 144.5t37.5 145t105 95t153.5 33q85 0 151 -31.5t103.5 -92.5t37.5 -147q0 -31 -4 -46zM259.5 371.5q-28.5 -22.5 -38.5 -66.5h214q-4 41 -32 65t-72 24
q-43 0 -71.5 -22.5zM533 594h-399v113h399v-113z" />
    <glyph glyph-name="Ebreve" unicode="&#x114;" horiz-adv-x="716" 
d="M669 700v-157h-395v-113h340v-148h-340v-125h395v-157h-595v700h595zM219.5 808.5q-56.5 44.5 -56.5 122.5h120q0 -28 24.5 -44.5t68.5 -16.5t69 16.5t25 44.5h120q0 -78 -56.5 -122.5t-157.5 -44.5q-100 0 -156.5 44.5z" />
    <glyph glyph-name="ebreve" unicode="&#x115;" horiz-adv-x="656" 
d="M620 210h-400q9 -47 38 -71t73 -24q71 0 93 48h189q-16 -78 -86 -130t-190 -52q-90 0 -158 33.5t-105.5 95t-37.5 144.5t37.5 145t105 95t153.5 33q85 0 151 -31.5t103.5 -92.5t37.5 -147q0 -31 -4 -46zM259.5 371.5q-28.5 -22.5 -38.5 -66.5h214q-4 41 -32 65t-72 24
q-43 0 -71.5 -22.5zM174.5 622q-54.5 42 -54.5 124h120q0 -28 24 -44t69 -16t69.5 16t24.5 44h120q0 -82 -55 -124t-159 -42t-158.5 42z" />
    <glyph glyph-name="Edotaccent" unicode="&#x116;" horiz-adv-x="716" 
d="M669 700v-157h-395v-113h340v-148h-340v-125h395v-157h-595v700h595zM307 786q-27 26 -27 65q0 40 27 66t69 26q43 0 70 -25.5t27 -66.5q0 -39 -27.5 -65t-69.5 -26t-69 26z" />
    <glyph glyph-name="edotaccent" unicode="&#x117;" horiz-adv-x="656" 
d="M620 210h-400q9 -47 38 -71t73 -24q71 0 93 48h189q-16 -78 -86 -130t-190 -52q-90 0 -158 33.5t-105.5 95t-37.5 144.5t37.5 145t105 95t153.5 33q85 0 151 -31.5t103.5 -92.5t37.5 -147q0 -31 -4 -46zM259.5 371.5q-28.5 -22.5 -38.5 -66.5h214q-4 41 -32 65t-72 24
q-43 0 -71.5 -22.5zM263.5 598q-27.5 26 -27.5 67t27.5 67t70.5 26t70.5 -26t27.5 -67t-27.5 -67t-70.5 -26t-70.5 26z" />
    <glyph glyph-name="Eogonek" unicode="&#x118;" horiz-adv-x="716" 
d="M669 543h-395v-113h340v-148h-340v-125h395v-157q-85 -54 -85 -106q0 -22 12.5 -33t34.5 -11q18 0 38 8v-80q-23 -14 -66 -14q-55 0 -85 27t-30 79q0 38 22.5 71.5t60.5 58.5h-497v700h595v-157z" />
    <glyph glyph-name="eogonek" unicode="&#x119;" horiz-adv-x="656" 
d="M620 210h-400q9 -47 38 -71t73 -24q71 0 93 48h189q-9 -45 -37.5 -81.5t-77.5 -68.5q-49 -31 -77 -59.5t-28 -59.5q0 -22 12 -33t34 -11q19 0 39 8v-80q-23 -14 -66 -14q-55 0 -85 27t-30 79q0 31 15.5 60t43.5 51h-17q-91 0 -159.5 33t-106 95t-37.5 145t37.5 145
t105 95t153.5 33q85 0 151 -31.5t103.5 -92.5t37.5 -147q0 -31 -4 -46zM259.5 371.5q-28.5 -22.5 -38.5 -66.5h214q-4 41 -32 65t-72 24q-43 0 -71.5 -22.5z" />
    <glyph glyph-name="Ecaron" unicode="&#x11a;" horiz-adv-x="716" 
d="M669 700v-157h-395v-113h340v-148h-340v-125h395v-157h-595v700h595zM452 767h-152l-155 171h162l66 -75h6l67 75h162z" />
    <glyph glyph-name="ecaron" unicode="&#x11b;" horiz-adv-x="656" 
d="M620 210h-400q9 -47 38 -71t73 -24q71 0 93 48h189q-16 -78 -86 -130t-190 -52q-90 0 -158 33.5t-105.5 95t-37.5 144.5t37.5 145t105 95t153.5 33q85 0 151 -31.5t103.5 -92.5t37.5 -147q0 -31 -4 -46zM259.5 371.5q-28.5 -22.5 -38.5 -66.5h214q-4 41 -32 65t-72 24
q-43 0 -71.5 -22.5zM410 580h-152l-155 171h162l66 -75h6l67 75h162z" />
    <glyph glyph-name="Gcircumflex" unicode="&#x11c;" horiz-adv-x="819" 
d="M388 382h393v-31q0 -110 -45 -193t-127.5 -127.5t-193.5 -44.5q-112 0 -197.5 45.5t-132 128t-46.5 190.5t46.5 190.5t132 128t197.5 45.5q94 0 168.5 -30t121 -86t59.5 -132h-212q-14 37 -49.5 57.5t-86.5 20.5q-75 0 -119 -52t-44 -142t44 -142t119 -52q58 0 97 25.5
t51 71.5h-176v129zM339 767h-162l155 171h152l156 -171h-162l-67 75h-6z" />
    <glyph glyph-name="gcircumflex" unicode="&#x11d;" horiz-adv-x="649" 
d="M97.5 -179.5q-71.5 39.5 -71.5 125.5q0 91 98 132v5q-18 8 -28.5 23t-10.5 34q0 23 15.5 39t43.5 23v6q-37 20 -55.5 54.5t-18.5 76.5q0 80 66 125t184 45h151q21 0 30 6t9 22t-4 28h99q19 -32 19 -64t-21 -49t-58 -17h-19v-6q43 -40 43 -102q0 -156 -249 -156
q-51 0 -71 -6.5t-20 -22.5q0 -17 19 -23t72 -6h42q127 0 189 -42.5t62 -116.5q0 -91 -72.5 -132t-221.5 -41q-150 0 -221.5 39.5zM375 299.5q20 14.5 20 39.5q0 26 -20 40.5t-56 14.5t-55.5 -14.5t-19.5 -40.5q0 -25 19.5 -39.5t55.5 -14.5t56 14.5zM405.5 -87.5
q24.5 9.5 24.5 34.5q0 23 -25.5 33.5t-85.5 10.5t-85.5 -11t-25.5 -33q0 -25 24.5 -34.5t86.5 -9.5t86.5 9.5zM255 580h-162l155 171h152l156 -171h-162l-67 75h-6z" />
    <glyph glyph-name="Gbreve" unicode="&#x11e;" horiz-adv-x="819" 
d="M388 382h393v-31q0 -110 -45 -193t-127.5 -127.5t-193.5 -44.5q-112 0 -197.5 45.5t-132 128t-46.5 190.5t46.5 190.5t132 128t197.5 45.5q94 0 168.5 -30t121 -86t59.5 -132h-212q-14 37 -49.5 57.5t-86.5 20.5q-75 0 -119 -52t-44 -142t44 -142t119 -52q58 0 97 25.5
t51 71.5h-176v129zM250.5 808.5q-56.5 44.5 -56.5 122.5h120q0 -28 24.5 -44.5t68.5 -16.5t69 16.5t25 44.5h120q0 -78 -56.5 -122.5t-157.5 -44.5q-100 0 -156.5 44.5z" />
    <glyph glyph-name="gbreve" unicode="&#x11f;" horiz-adv-x="649" 
d="M97.5 -179.5q-71.5 39.5 -71.5 125.5q0 91 98 132v5q-18 8 -28.5 23t-10.5 34q0 23 15.5 39t43.5 23v6q-37 20 -55.5 54.5t-18.5 76.5q0 80 66 125t184 45h151q21 0 30 6t9 22t-4 28h99q19 -32 19 -64t-21 -49t-58 -17h-19v-6q43 -40 43 -102q0 -156 -249 -156
q-51 0 -71 -6.5t-20 -22.5q0 -17 19 -23t72 -6h42q127 0 189 -42.5t62 -116.5q0 -91 -72.5 -132t-221.5 -41q-150 0 -221.5 39.5zM375 299.5q20 14.5 20 39.5q0 26 -20 40.5t-56 14.5t-55.5 -14.5t-19.5 -40.5q0 -25 19.5 -39.5t55.5 -14.5t56 14.5zM405.5 -87.5
q24.5 9.5 24.5 34.5q0 23 -25.5 33.5t-85.5 10.5t-85.5 -11t-25.5 -33q0 -25 24.5 -34.5t86.5 -9.5t86.5 9.5zM165.5 622q-54.5 42 -54.5 124h120q0 -28 24 -44t69 -16t69.5 16t24.5 44h120q0 -82 -55 -124t-159 -42t-158.5 42z" />
    <glyph glyph-name="Gdotaccent" unicode="&#x120;" horiz-adv-x="819" 
d="M388 382h393v-31q0 -110 -45 -193t-127.5 -127.5t-193.5 -44.5q-112 0 -197.5 45.5t-132 128t-46.5 190.5t46.5 190.5t132 128t197.5 45.5q94 0 168.5 -30t121 -86t59.5 -132h-212q-14 37 -49.5 57.5t-86.5 20.5q-75 0 -119 -52t-44 -142t44 -142t119 -52q58 0 97 25.5
t51 71.5h-176v129zM338 786q-27 26 -27 65q0 40 27 66t69 26q43 0 70 -25.5t27 -66.5q0 -39 -27.5 -65t-69.5 -26t-69 26z" />
    <glyph glyph-name="gdotaccent" unicode="&#x121;" horiz-adv-x="649" 
d="M97.5 -179.5q-71.5 39.5 -71.5 125.5q0 91 98 132v5q-18 8 -28.5 23t-10.5 34q0 23 15.5 39t43.5 23v6q-37 20 -55.5 54.5t-18.5 76.5q0 80 66 125t184 45h151q21 0 30 6t9 22t-4 28h99q19 -32 19 -64t-21 -49t-58 -17h-19v-6q43 -40 43 -102q0 -156 -249 -156
q-51 0 -71 -6.5t-20 -22.5q0 -17 19 -23t72 -6h42q127 0 189 -42.5t62 -116.5q0 -91 -72.5 -132t-221.5 -41q-150 0 -221.5 39.5zM375 299.5q20 14.5 20 39.5q0 26 -20 40.5t-56 14.5t-55.5 -14.5t-19.5 -40.5q0 -25 19.5 -39.5t55.5 -14.5t56 14.5zM405.5 -87.5
q24.5 9.5 24.5 34.5q0 23 -25.5 33.5t-85.5 10.5t-85.5 -11t-25.5 -33q0 -25 24.5 -34.5t86.5 -9.5t86.5 9.5zM254.5 598q-27.5 26 -27.5 67t27.5 67t70.5 26t70.5 -26t27.5 -67t-27.5 -67t-70.5 -26t-70.5 26z" />
    <glyph glyph-name="uni0122" unicode="&#x122;" horiz-adv-x="819" 
d="M388 382h393v-31q0 -110 -45 -193t-127.5 -127.5t-193.5 -44.5q-112 0 -197.5 45.5t-132 128t-46.5 190.5t46.5 190.5t132 128t197.5 45.5q94 0 168.5 -30t121 -86t59.5 -132h-212q-14 37 -49.5 57.5t-86.5 20.5q-75 0 -119 -52t-44 -142t44 -142t119 -52q58 0 97 25.5
t51 71.5h-176v129zM477 -93.5q22 -22.5 22 -54.5q0 -21 -7 -44t-24 -59l-30 -61h-60l31 94q-30 3 -49 22t-19 49q0 33 22 54.5t58 21.5q34 0 56 -22.5z" />
    <glyph glyph-name="uni0123" unicode="&#x123;" horiz-adv-x="649" 
d="M97.5 -179.5q-71.5 39.5 -71.5 125.5q0 91 98 132v5q-18 8 -28.5 23t-10.5 34q0 23 15.5 39t43.5 23v6q-37 20 -55.5 54.5t-18.5 76.5q0 80 66 125t184 45h151q21 0 30 6t9 22t-4 28h99q19 -32 19 -64t-21 -49t-58 -17h-19v-6q43 -40 43 -102q0 -156 -249 -156
q-51 0 -71 -6.5t-20 -22.5q0 -17 19 -23t72 -6h42q127 0 189 -42.5t62 -116.5q0 -91 -72.5 -132t-221.5 -41q-150 0 -221.5 39.5zM375 299.5q20 14.5 20 39.5q0 26 -20 40.5t-56 14.5t-55.5 -14.5t-19.5 -40.5q0 -25 19.5 -39.5t55.5 -14.5t56 14.5zM405.5 -87.5
q24.5 9.5 24.5 34.5q0 23 -25.5 33.5t-85.5 10.5t-85.5 -11t-25.5 -33q0 -25 24.5 -34.5t86.5 -9.5t86.5 9.5zM334 690q27 -3 44.5 -20.5t17.5 -43.5q0 -30 -20.5 -50t-52.5 -20t-51.5 20.5t-19.5 50.5q0 21 7.5 43t20.5 49l27 55h55z" />
    <glyph glyph-name="Hcircumflex" unicode="&#x124;" horiz-adv-x="836" 
d="M562 443v257h200v-700h-200v278h-288v-278h-200v700h200v-257h288zM349 767h-162l155 171h152l156 -171h-162l-67 75h-6z" />
    <glyph glyph-name="hcircumflex" unicode="&#x125;" horiz-adv-x="707" 
d="M71 0v700h182v-267h5q23 40 71 65t110 25q97 0 151.5 -57.5t54.5 -159.5v-306h-181v241q0 52 -26.5 82.5t-74.5 30.5q-51 0 -80.5 -30.5t-29.5 -82.5v-241h-182zM290 767h-162l155 171h152l156 -171h-162l-67 75h-6z" />
    <glyph glyph-name="Hbar" unicode="&#x126;" horiz-adv-x="856" 
d="M772 638h80v-142h-80v-496h-200v278h-288v-278h-200v496h-80v142h80v62h200v-71h288v71h200v-62zM284 503v-78h288v78h-288z" />
    <glyph glyph-name="hbar" unicode="&#x127;" horiz-adv-x="717" 
d="M600.5 420.5q54.5 -57.5 54.5 -158.5v-262h-181v196q0 53 -26.5 83t-74.5 30q-51 0 -80.5 -30.5t-29.5 -82.5v-196h-182v518h-80v116h80v66h182v-66h179v-116h-179v-129h5q24 40 72 64.5t109 24.5q97 0 151.5 -57.5z" />
    <glyph glyph-name="Itilde" unicode="&#x128;" horiz-adv-x="368" 
d="M284 0h-200v700h200v-700zM221 784q-20 9 -46 26q-17 12 -28 17t-24 5q-31 0 -31 -37v-15h-115v27q0 69 31.5 105t88.5 36q30 0 50 -9t46 -26q15 -11 27 -16.5t24 -5.5q32 0 32 38v14h115v-27q0 -69 -31.5 -105t-88.5 -36q-30 0 -50 9z" />
    <glyph glyph-name="itilde" unicode="&#x129;" horiz-adv-x="324" 
d="M253 0h-182v509h182v-509zM-45 607q0 69 31.5 105t88.5 36q30 0 50 -9t46 -26q15 -11 27 -16.5t24 -5.5q32 0 32 38v14h115v-27q0 -69 -31.5 -105t-88.5 -36q-30 0 -50 9t-46 26q-17 11 -28 16.5t-24 5.5q-31 0 -31 -37v-15h-115v27z" />
    <glyph glyph-name="Imacron" unicode="&#x12a;" horiz-adv-x="368" 
d="M284 0h-200v700h200v-700zM383 794h-399v113h399v-113z" />
    <glyph glyph-name="imacron" unicode="&#x12b;" horiz-adv-x="324" 
d="M253 0h-182v509h182v-509zM361 594h-399v113h399v-113z" />
    <glyph glyph-name="Ibreve" unicode="&#x12c;" horiz-adv-x="368" 
d="M284 0h-200v700h200v-700zM27.5 808.5q-56.5 44.5 -56.5 122.5h120q0 -28 24.5 -44.5t68.5 -16.5t69 16.5t25 44.5h120q0 -78 -56.5 -122.5t-157.5 -44.5q-100 0 -156.5 44.5z" />
    <glyph glyph-name="ibreve" unicode="&#x12d;" horiz-adv-x="324" 
d="M253 0h-182v509h182v-509zM3.5 622q-54.5 42 -54.5 124h120q0 -28 24 -44t69 -16t69.5 16t24.5 44h120q0 -82 -55 -124t-159 -42t-158.5 42z" />
    <glyph glyph-name="Iogonek" unicode="&#x12e;" horiz-adv-x="368" 
d="M284 0q-82 -54 -82 -104q0 -23 12 -34.5t34 -11.5q20 0 36 8v-81q-24 -13 -64 -13q-54 0 -84 27t-30 79q0 38 22 71.5t60 58.5h-104v700h200v-700z" />
    <glyph glyph-name="iogonek" unicode="&#x12f;" horiz-adv-x="324" 
d="M91.5 598q-27.5 26 -27.5 67t27.5 67t70.5 26t70.5 -26t27.5 -67t-27.5 -67t-70.5 -26t-70.5 26zM71 0v509h182v-509q-82 -54 -82 -104q0 -23 12 -34.5t34 -11.5q20 0 36 8v-81q-24 -13 -64 -13q-54 0 -84 27t-30 79q0 38 22 71.5t60 58.5h-86z" />
    <glyph glyph-name="Idotaccent" unicode="&#x130;" horiz-adv-x="368" 
d="M284 0h-200v700h200v-700zM115 786q-27 26 -27 65q0 40 27 66t69 26q43 0 70 -25.5t27 -66.5q0 -39 -27.5 -65t-69.5 -26t-69 26z" />
    <glyph glyph-name="dotlessi" unicode="&#x131;" horiz-adv-x="324" 
d="M253 0h-182v509h182v-509z" />
    <glyph glyph-name="IJ" unicode="&#x132;" horiz-adv-x="1064" 
d="M284 0h-200v700h200v-700zM474 58q-78 72 -78 199v30h200v-30q0 -46 27 -73.5t78 -27.5q50 0 77 27.5t27 73.5v278h-279v165h479v-443q0 -126 -78 -198.5t-226 -72.5q-149 0 -227 72z" />
    <glyph glyph-name="ij" unicode="&#x133;" horiz-adv-x="658" 
d="M253 0h-182v509h182v-509zM91.5 598q-27.5 26 -27.5 67t27.5 67t70.5 26t70.5 -26t27.5 -67t-27.5 -67t-70.5 -26t-70.5 26zM269 -204v149q23 -6 50 -6q44 0 65 21t21 73v476h182v-496q0 -111 -60 -169t-174 -58q-50 0 -84 10zM425.5 598q-27.5 26 -27.5 67t27.5 67
t70.5 26t70.5 -26t27.5 -67t-27.5 -67t-70.5 -26t-70.5 26z" />
    <glyph glyph-name="Jcircumflex" unicode="&#x134;" horiz-adv-x="696" 
d="M106 58q-78 72 -78 199v30h200v-30q0 -46 27 -73.5t78 -27.5q50 0 77 27.5t27 73.5v278h-279v165h479v-443q0 -126 -78 -198.5t-226 -72.5q-149 0 -227 72zM335 767h-162l155 171h152l156 -171h-162l-67 75h-6z" />
    <glyph glyph-name="jcircumflex" unicode="&#x135;" horiz-adv-x="334" 
d="M-55 -204v149q23 -6 50 -6q44 0 65 21t21 73v476h182v-496q0 -111 -60 -169t-174 -58q-50 0 -84 10zM103 580h-162l155 171h152l156 -171h-162l-67 75h-6z" />
    <glyph glyph-name="uni0136" unicode="&#x136;" horiz-adv-x="749" 
d="M480 361l283 -361h-238l-251 333v-333h-200v700h200v-325l245 325h225zM452 -93.5q22 -22.5 22 -54.5q0 -21 -7 -44t-24 -59l-30 -61h-60l31 94q-30 3 -49 22t-19 49q0 33 22 54.5t58 21.5q34 0 56 -22.5z" />
    <glyph glyph-name="uni0137" unicode="&#x137;" horiz-adv-x="639" 
d="M431 267l217 -267h-211l-184 240v-240h-182v700h182v-423l172 232h194zM401 -93.5q22 -22.5 22 -54.5q0 -21 -7 -44t-24 -59l-30 -61h-60l31 94q-30 3 -49 22t-19 49q0 33 22 54.5t58 21.5q34 0 56 -22.5z" />
    <glyph glyph-name="Lacute" unicode="&#x139;" horiz-adv-x="662" 
d="M651 0h-577v700h200v-535h377v-165zM234 767h-127l73 171h177z" />
    <glyph glyph-name="lacute" unicode="&#x13a;" horiz-adv-x="324" 
d="M253 0h-182v700h182v-700zM216 771h-118l81 187h168z" />
    <glyph glyph-name="uni013B" unicode="&#x13b;" horiz-adv-x="662" 
d="M651 0h-577v700h200v-535h377v-165zM441 -93.5q22 -22.5 22 -54.5q0 -21 -7 -44t-24 -59l-30 -61h-60l31 94q-30 3 -49 22t-19 49q0 33 22 54.5t58 21.5q34 0 56 -22.5z" />
    <glyph glyph-name="uni013C" unicode="&#x13c;" horiz-adv-x="324" 
d="M253 0h-182v700h182v-700zM219 -93.5q22 -22.5 22 -54.5q0 -21 -7 -44t-24 -59l-30 -61h-60l31 94q-30 3 -49 22t-19 49q0 33 22 54.5t58 21.5q34 0 56 -22.5z" />
    <glyph glyph-name="Lcaron" unicode="&#x13d;" horiz-adv-x="662" 
d="M651 0h-577v700h200v-535h377v-165zM418 530h-107l23 170h156z" />
    <glyph glyph-name="lcaron" unicode="&#x13e;" horiz-adv-x="438" 
d="M253 0h-182v700h182v-700zM396 530h-107l23 170h156z" />
    <glyph glyph-name="Ldot" unicode="&#x13f;" horiz-adv-x="662" 
d="M651 0h-577v700h200v-535h377v-165zM432 324q-30 27 -30 72q0 44 30 71.5t73 27.5t73 -27.5t30 -71.5q0 -45 -30 -72t-73 -27t-73 27z" />
    <glyph glyph-name="ldot" unicode="&#x140;" horiz-adv-x="470" 
d="M253 0h-182v700h182v-700zM324 279q-30 27 -30 72q0 44 30 71.5t73 27.5t73 -27.5t30 -71.5q0 -45 -30 -72t-73 -27t-73 27z" />
    <glyph glyph-name="Lslash" unicode="&#x141;" horiz-adv-x="672" 
d="M284 326v-161h377v-165h-577v229l-80 -39v152l80 39v319h200v-223l144 70v-151z" />
    <glyph glyph-name="lslash" unicode="&#x142;" horiz-adv-x="371" 
d="M276 465l85 45v-143l-85 -45v-322h-181v227l-85 -45v143l85 45v330h181v-235z" />
    <glyph glyph-name="Nacute" unicode="&#x143;" horiz-adv-x="851" 
d="M269 0h-195v700h201l301 -405h6v405h195v-700h-201l-301 405h-6v-405zM486 767h-127l73 171h177z" />
    <glyph glyph-name="nacute" unicode="&#x144;" horiz-adv-x="702" 
d="M66 0v509h177v-80h5q26 43 75 68.5t111 25.5q97 0 151.5 -57.5t54.5 -159.5v-306h-181v241q0 52 -26.5 82.5t-74.5 30.5q-51 0 -80.5 -30.5t-29.5 -82.5v-241h-182zM407 580h-118l81 187h168z" />
    <glyph glyph-name="uni0145" unicode="&#x145;" horiz-adv-x="851" 
d="M269 0h-195v700h201l301 -405h6v405h195v-700h-201l-301 405h-6v-405zM482 -93.5q22 -22.5 22 -54.5q0 -21 -7 -44t-24 -59l-30 -61h-60l31 94q-30 3 -49 22t-19 49q0 33 22 54.5t58 21.5q34 0 56 -22.5z" />
    <glyph glyph-name="uni0146" unicode="&#x146;" horiz-adv-x="702" 
d="M66 0v509h177v-80h5q26 43 75 68.5t111 25.5q97 0 151.5 -57.5t54.5 -159.5v-306h-181v241q0 52 -26.5 82.5t-74.5 30.5q-51 0 -80.5 -30.5t-29.5 -82.5v-241h-182zM411 -93.5q22 -22.5 22 -54.5q0 -21 -7 -44t-24 -59l-30 -61h-60l31 94q-30 3 -49 22t-19 49
q0 33 22 54.5t58 21.5q34 0 56 -22.5z" />
    <glyph glyph-name="Ncaron" unicode="&#x147;" horiz-adv-x="851" 
d="M269 0h-195v700h201l301 -405h6v405h195v-700h-201l-301 405h-6v-405zM501 767h-152l-155 171h162l66 -75h6l67 75h162z" />
    <glyph glyph-name="ncaron" unicode="&#x148;" horiz-adv-x="702" 
d="M66 0v509h177v-80h5q26 43 75 68.5t111 25.5q97 0 151.5 -57.5t54.5 -159.5v-306h-181v241q0 52 -26.5 82.5t-74.5 30.5q-51 0 -80.5 -30.5t-29.5 -82.5v-241h-182zM429 580h-152l-155 171h162l66 -75h6l67 75h162z" />
    <glyph glyph-name="Eng" unicode="&#x14a;" horiz-adv-x="851" 
d="M582 700h195v-709q0 -236 -232 -236q-45 0 -91 11v159q27 -7 53 -7q82 0 86 79l-318 409h-6v-406h-195v700h201l301 -402h6v402z" />
    <glyph glyph-name="eng" unicode="&#x14b;" horiz-adv-x="702" 
d="M330 -205v146q22 -6 48 -6q41 0 61 23t20 75v208q0 52 -26.5 82.5t-74.5 30.5q-51 0 -80.5 -30.5t-29.5 -82.5v-241h-182v509h177v-80h5q26 43 75 68.5t111 25.5q97 0 151.5 -57.5t54.5 -159.5v-285q0 -116 -57.5 -175.5t-169.5 -59.5q-40 0 -83 9z" />
    <glyph glyph-name="Omacron" unicode="&#x14c;" horiz-adv-x="846" 
d="M222 31.5q-87 45.5 -135 128t-48 190.5t48 190.5t135 128t201 45.5t201 -45.5t135 -128t48 -190.5t-48 -190.5t-135 -128t-201 -45.5t-201 45.5zM547.5 208.5q46.5 52.5 46.5 141.5t-46.5 141.5t-124.5 52.5t-124 -52t-46 -142t46 -142t124 -52t124.5 52.5zM622 794h-399
v113h399v-113z" />
    <glyph glyph-name="omacron" unicode="&#x14d;" horiz-adv-x="661" 
d="M178.5 14q-66.5 33 -104.5 95t-38 145t38 145t104.5 95t151.5 33t152 -33t105 -95t38 -145t-38 -145t-105 -95t-152 -33t-151.5 33zM409 165.5q29 31.5 29 88.5t-28.5 88.5t-79.5 31.5q-50 0 -78.5 -31.5t-28.5 -88.5t28.5 -88.5t78.5 -31.5t79 31.5zM530 594h-399v113
h399v-113z" />
    <glyph glyph-name="Obreve" unicode="&#x14e;" horiz-adv-x="846" 
d="M222 31.5q-87 45.5 -135 128t-48 190.5t48 190.5t135 128t201 45.5t201 -45.5t135 -128t48 -190.5t-48 -190.5t-135 -128t-201 -45.5t-201 45.5zM547.5 208.5q46.5 52.5 46.5 141.5t-46.5 141.5t-124.5 52.5t-124 -52t-46 -142t46 -142t124 -52t124.5 52.5zM266.5 808.5
q-56.5 44.5 -56.5 122.5h120q0 -28 24.5 -44.5t68.5 -16.5t69 16.5t25 44.5h120q0 -78 -56.5 -122.5t-157.5 -44.5q-100 0 -156.5 44.5z" />
    <glyph glyph-name="obreve" unicode="&#x14f;" horiz-adv-x="661" 
d="M178.5 14q-66.5 33 -104.5 95t-38 145t38 145t104.5 95t151.5 33t152 -33t105 -95t38 -145t-38 -145t-105 -95t-152 -33t-151.5 33zM409 165.5q29 31.5 29 88.5t-28.5 88.5t-79.5 31.5q-50 0 -78.5 -31.5t-28.5 -88.5t28.5 -88.5t78.5 -31.5t79 31.5zM171.5 622
q-54.5 42 -54.5 124h120q0 -28 24 -44t69 -16t69.5 16t24.5 44h120q0 -82 -55 -124t-159 -42t-158.5 42z" />
    <glyph glyph-name="Ohungarumlaut" unicode="&#x150;" horiz-adv-x="846" 
d="M222 31.5q-87 45.5 -135 128t-48 190.5t48 190.5t135 128t201 45.5t201 -45.5t135 -128t48 -190.5t-48 -190.5t-135 -128t-201 -45.5t-201 45.5zM547.5 208.5q46.5 52.5 46.5 141.5t-46.5 141.5t-124.5 52.5t-124 -52t-46 -142t46 -142t124 -52t124.5 52.5zM369 767h-127
l82 171h177zM578 767h-126l99 171h177z" />
    <glyph glyph-name="ohungarumlaut" unicode="&#x151;" horiz-adv-x="661" 
d="M178.5 14q-66.5 33 -104.5 95t-38 145t38 145t104.5 95t151.5 33t152 -33t105 -95t38 -145t-38 -145t-105 -95t-152 -33t-151.5 33zM409 165.5q29 31.5 29 88.5t-28.5 88.5t-79.5 31.5q-50 0 -78.5 -31.5t-28.5 -88.5t28.5 -88.5t78.5 -31.5t79 31.5zM273 580h-121
l93 187h170zM482 580h-120l109 187h171z" />
    <glyph glyph-name="OE" unicode="&#x152;" horiz-adv-x="1058" 
d="M1011 543h-331v-113h276v-148h-276v-125h331v-157h-590q-110 0 -197 44.5t-136 124t-49 181.5t49 181.5t136 124t197 44.5h590v-157zM480 157v386h-44q-54 0 -95.5 -24.5t-64.5 -68.5t-23 -100t23 -100t64.5 -68.5t95.5 -24.5h44z" />
    <glyph glyph-name="oe" unicode="&#x153;" horiz-adv-x="1045" 
d="M1009 210h-389q10 -46 37.5 -70.5t68.5 -24.5q30 0 52.5 12t34.5 36h189q-17 -83 -87.5 -132.5t-173.5 -49.5q-66 0 -120 19t-89 54h-6q-34 -34 -85 -53.5t-111 -19.5q-88 0 -154.5 34t-103 96t-36.5 143t36.5 143t103 96t154.5 34q59 0 112.5 -20.5t84.5 -55.5h6
q35 35 90 55.5t118 20.5q82 0 143.5 -32.5t95 -94t33.5 -144.5q0 -26 -4 -46zM658.5 371.5q-27.5 -22.5 -37.5 -66.5h203q-3 40 -30 64.5t-68 24.5q-40 0 -67.5 -22.5zM408 166.5q29 32.5 29 87.5q0 56 -28.5 88t-78.5 32t-78.5 -32t-28.5 -88t28.5 -88t78.5 -32
q49 0 78 32.5z" />
    <glyph glyph-name="Racute" unicode="&#x154;" horiz-adv-x="757" 
d="M748 0h-223l-142 227h-109v-227h-200v700h322q153 0 224 -57.5t71 -175.5q0 -84 -34.5 -132.5t-80.5 -67.5zM389 392q46 0 69 17t23 54q0 72 -92 72h-115v-143h115zM417 767h-127l73 171h177z" />
    <glyph glyph-name="racute" unicode="&#x155;" horiz-adv-x="514" 
d="M66 0v509h177v-63h5q28 39 73 58.5t105 19.5q26 0 49 -5v-180q-44 11 -87 11q-68 0 -104 -33.5t-36 -100.5v-216h-182zM330 580h-118l81 187h168z" />
    <glyph glyph-name="uni0156" unicode="&#x156;" horiz-adv-x="757" 
d="M748 0h-223l-142 227h-109v-227h-200v700h322q153 0 224 -57.5t71 -175.5q0 -84 -34.5 -132.5t-80.5 -67.5zM389 392q46 0 69 17t23 54q0 72 -92 72h-115v-143h115zM457 -93.5q22 -22.5 22 -54.5q0 -21 -7 -44t-24 -59l-30 -61h-60l31 94q-30 3 -49 22t-19 49
q0 33 22 54.5t58 21.5q34 0 56 -22.5z" />
    <glyph glyph-name="uni0157" unicode="&#x157;" horiz-adv-x="514" 
d="M66 0v509h177v-63h5q28 39 73 58.5t105 19.5q26 0 49 -5v-180q-44 11 -87 11q-68 0 -104 -33.5t-36 -100.5v-216h-182zM214 -93.5q22 -22.5 22 -54.5q0 -21 -7 -44t-24 -59l-30 -61h-60l31 94q-30 3 -49 22t-19 49q0 33 22 54.5t58 21.5q34 0 56 -22.5z" />
    <glyph glyph-name="Rcaron" unicode="&#x158;" horiz-adv-x="757" 
d="M748 0h-223l-142 227h-109v-227h-200v700h322q153 0 224 -57.5t71 -175.5q0 -84 -34.5 -132.5t-80.5 -67.5zM389 392q46 0 69 17t23 54q0 72 -92 72h-115v-143h115zM432 767h-152l-155 171h162l66 -75h6l67 75h162z" />
    <glyph glyph-name="rcaron" unicode="&#x159;" horiz-adv-x="514" 
d="M66 0v509h177v-63h5q28 39 73 58.5t105 19.5q26 0 49 -5v-180q-44 11 -87 11q-68 0 -104 -33.5t-36 -100.5v-216h-182zM352 580h-152l-155 171h162l66 -75h6l67 75h162z" />
    <glyph glyph-name="Sacute" unicode="&#x15a;" horiz-adv-x="751" 
d="M125.5 47q-85.5 61 -85.5 168h210q0 -75 131 -75q56 0 87.5 14t31.5 44q0 24 -20 39t-51 22.5t-88 17.5q-88 15 -145.5 33t-99 62t-41.5 122q0 66 37 115.5t107.5 77t168.5 27.5q100 0 172 -27.5t109.5 -77.5t37.5 -117h-209q0 32 -29 50t-83 18q-49 0 -75 -14t-26 -41
q0 -33 38 -48t118 -28q90 -16 147.5 -34.5t99.5 -63t42 -123.5q0 -106 -85 -164t-245 -58q-169 0 -254.5 61zM434 767h-127l73 171h177z" />
    <glyph glyph-name="sacute" unicode="&#x15b;" horiz-adv-x="613" 
d="M105.5 28q-71.5 47 -71.5 132h190q0 -24 23.5 -39.5t65.5 -15.5q89 0 89 42q0 22 -28 31t-89 17q-73 9 -120 21.5t-82 46.5t-35 96q0 52 32.5 90t90.5 58t133 20q83 0 143 -22.5t91 -61.5t31 -89h-190q0 22 -19 36t-55 14q-35 0 -54.5 -11t-19.5 -31q0 -23 29 -33t92 -18
q71 -10 117.5 -23.5t80.5 -46t34 -90.5q0 -84 -70 -127t-203 -43q-134 0 -205.5 47zM362 580h-118l81 187h168z" />
    <glyph glyph-name="Scircumflex" unicode="&#x15c;" horiz-adv-x="751" 
d="M125.5 47q-85.5 61 -85.5 168h210q0 -75 131 -75q56 0 87.5 14t31.5 44q0 24 -20 39t-51 22.5t-88 17.5q-88 15 -145.5 33t-99 62t-41.5 122q0 66 37 115.5t107.5 77t168.5 27.5q100 0 172 -27.5t109.5 -77.5t37.5 -117h-209q0 32 -29 50t-83 18q-49 0 -75 -14t-26 -41
q0 -33 38 -48t118 -28q90 -16 147.5 -34.5t99.5 -63t42 -123.5q0 -106 -85 -164t-245 -58q-169 0 -254.5 61zM304 767h-162l155 171h152l156 -171h-162l-67 75h-6z" />
    <glyph glyph-name="scircumflex" unicode="&#x15d;" horiz-adv-x="613" 
d="M105.5 28q-71.5 47 -71.5 132h190q0 -24 23.5 -39.5t65.5 -15.5q89 0 89 42q0 22 -28 31t-89 17q-73 9 -120 21.5t-82 46.5t-35 96q0 52 32.5 90t90.5 58t133 20q83 0 143 -22.5t91 -61.5t31 -89h-190q0 22 -19 36t-55 14q-35 0 -54.5 -11t-19.5 -31q0 -23 29 -33t92 -18
q71 -10 117.5 -23.5t80.5 -46t34 -90.5q0 -84 -70 -127t-203 -43q-134 0 -205.5 47zM239 580h-162l155 171h152l156 -171h-162l-67 75h-6z" />
    <glyph glyph-name="Scedilla" unicode="&#x15e;" horiz-adv-x="751" 
d="M633 49.5q-77 -57.5 -222 -62.5l-16 -22q46 -6 70.5 -29.5t24.5 -63.5q0 -49 -34.5 -78.5t-96.5 -29.5q-50 0 -85 14v80q35 -8 66 -8q54 0 54 28q0 25 -45 25h-38v48l27 36q-148 7 -223 67.5t-75 160.5h210q0 -75 131 -75q56 0 87.5 14t31.5 44q0 24 -20 39t-51 22.5
t-88 17.5q-88 15 -145.5 33t-99 62t-41.5 122q0 66 37 115.5t107.5 77t168.5 27.5q100 0 172 -27.5t109.5 -77.5t37.5 -117h-209q0 32 -29 50t-83 18q-49 0 -75 -14t-26 -41q0 -33 38 -48t118 -28q90 -16 147.5 -34.5t99.5 -63t42 -123.5q0 -101 -77 -158.5z" />
    <glyph glyph-name="scedilla" unicode="&#x15f;" horiz-adv-x="613" 
d="M520.5 29q-63.5 -43 -184.5 -48l-12 -16q46 -6 70.5 -29.5t24.5 -63.5q0 -49 -34.5 -78.5t-96.5 -29.5q-50 0 -85 14v80q35 -8 66 -8q54 0 54 28q0 25 -45 25h-38v48l24 32q-112 8 -171 54t-59 123h190q0 -24 23.5 -39.5t65.5 -15.5q89 0 89 42q0 22 -28 31t-89 17
q-73 9 -120 21.5t-82 46.5t-35 96q0 52 32.5 90t90.5 58t133 20q83 0 143 -22.5t91 -61.5t31 -89h-190q0 22 -19 36t-55 14q-35 0 -54.5 -11t-19.5 -31q0 -23 29 -33t92 -18q71 -10 117.5 -23.5t80.5 -46t34 -90.5q0 -79 -63.5 -122z" />
    <glyph glyph-name="Scaron" unicode="&#x160;" horiz-adv-x="751" 
d="M125.5 47q-85.5 61 -85.5 168h210q0 -75 131 -75q56 0 87.5 14t31.5 44q0 24 -20 39t-51 22.5t-88 17.5q-88 15 -145.5 33t-99 62t-41.5 122q0 66 37 115.5t107.5 77t168.5 27.5q100 0 172 -27.5t109.5 -77.5t37.5 -117h-209q0 32 -29 50t-83 18q-49 0 -75 -14t-26 -41
q0 -33 38 -48t118 -28q90 -16 147.5 -34.5t99.5 -63t42 -123.5q0 -106 -85 -164t-245 -58q-169 0 -254.5 61zM449 767h-152l-155 171h162l66 -75h6l67 75h162z" />
    <glyph glyph-name="scaron" unicode="&#x161;" horiz-adv-x="613" 
d="M105.5 28q-71.5 47 -71.5 132h190q0 -24 23.5 -39.5t65.5 -15.5q89 0 89 42q0 22 -28 31t-89 17q-73 9 -120 21.5t-82 46.5t-35 96q0 52 32.5 90t90.5 58t133 20q83 0 143 -22.5t91 -61.5t31 -89h-190q0 22 -19 36t-55 14q-35 0 -54.5 -11t-19.5 -31q0 -23 29 -33t92 -18
q71 -10 117.5 -23.5t80.5 -46t34 -90.5q0 -84 -70 -127t-203 -43q-134 0 -205.5 47zM384 580h-152l-155 171h162l66 -75h6l67 75h162z" />
    <glyph glyph-name="uni0162" unicode="&#x162;" horiz-adv-x="697" 
d="M448 0h-63l-27 -35q46 -6 70.5 -29.5t24.5 -63.5q0 -49 -34.5 -78.5t-96.5 -29.5q-50 0 -85 14v80q35 -8 66 -8q54 0 54 28q0 25 -45 25h-38v48l37 49h-63v535h-232v165h665v-165h-233v-535z" />
    <glyph glyph-name="uni0163" unicode="&#x163;" horiz-adv-x="478" 
d="M311 -19l-12 -16q46 -6 70.5 -29.5t24.5 -63.5q0 -49 -34.5 -78.5t-96.5 -29.5q-50 0 -85 14v80q35 -8 66 -8q54 0 54 28q0 25 -45 25h-38v48l30 40q-68 17 -101 67t-33 135v176h-105v115l114 28v108h172v-111h144v-140h-144v-136q0 -51 22.5 -75t67.5 -24q39 0 71 8
v-140q-22 -9 -57 -15t-65 -6h-20z" />
    <glyph glyph-name="Tcaron" unicode="&#x164;" horiz-adv-x="697" 
d="M448 0h-200v535h-232v165h665v-165h-233v-535zM424 767h-152l-155 171h162l66 -75h6l67 75h162z" />
    <glyph glyph-name="tcaron" unicode="&#x165;" horiz-adv-x="478" 
d="M453 142v-140q-22 -9 -57 -15t-65 -6q-112 0 -166 52t-54 160v176h-105v115l114 28v108h172v-111h144v-140h-144v-136q0 -51 22.5 -75t67.5 -24q39 0 71 8zM436 530h-107l23 170h156z" />
    <glyph glyph-name="Tbar" unicode="&#x166;" horiz-adv-x="697" 
d="M681 700v-165h-233v-150h149v-148h-149v-237h-200v237h-148v148h148v150h-232v165h665z" />
    <glyph glyph-name="tbar" unicode="&#x167;" horiz-adv-x="488" 
d="M458 142v-140q-22 -9 -57 -15t-65 -6q-112 0 -166 52t-54 160v22h-95v107h95v53h-105v109l114 28v108h172v-111h144v-134h-144v-53h135v-107h-134q4 -42 26 -61.5t63 -19.5q39 0 71 8z" />
    <glyph glyph-name="Utilde" unicode="&#x168;" horiz-adv-x="812" 
d="M228.5 22q-77.5 36 -121 105t-43.5 164v409h200v-397q0 -73 38.5 -110t103.5 -37t103.5 37t38.5 110v397h200v-409q0 -95 -43.5 -164t-121 -105t-177.5 -36t-177.5 36zM443 784q-20 9 -46 26q-17 12 -28 17t-24 5q-31 0 -31 -37v-15h-115v27q0 69 31.5 105t88.5 36
q30 0 50 -9t46 -26q15 -11 27 -16.5t24 -5.5q32 0 32 38v14h115v-27q0 -69 -31.5 -105t-88.5 -36q-30 0 -50 9z" />
    <glyph glyph-name="utilde" unicode="&#x169;" horiz-adv-x="697" 
d="M117 42q-56 56 -56 160v307h182v-244q0 -52 26 -81t71 -29q51 0 80 29t29 81v244h181v-509h-176v80h-6q-26 -44 -72 -69t-109 -25q-94 0 -150 56zM139 607q0 69 31.5 105t88.5 36q30 0 50 -9t46 -26q15 -11 27 -16.5t24 -5.5q32 0 32 38v14h115v-27q0 -69 -31.5 -105
t-88.5 -36q-30 0 -50 9t-46 26q-17 11 -28 16.5t-24 5.5q-31 0 -31 -37v-15h-115v27z" />
    <glyph glyph-name="Umacron" unicode="&#x16a;" horiz-adv-x="812" 
d="M228.5 22q-77.5 36 -121 105t-43.5 164v409h200v-397q0 -73 38.5 -110t103.5 -37t103.5 37t38.5 110v397h200v-409q0 -95 -43.5 -164t-121 -105t-177.5 -36t-177.5 36zM605 794h-399v113h399v-113z" />
    <glyph glyph-name="umacron" unicode="&#x16b;" horiz-adv-x="697" 
d="M117 42q-56 56 -56 160v307h182v-244q0 -52 26 -81t71 -29q51 0 80 29t29 81v244h181v-509h-176v80h-6q-26 -44 -72 -69t-109 -25q-94 0 -150 56zM546 594h-399v113h399v-113z" />
    <glyph glyph-name="Ubreve" unicode="&#x16c;" horiz-adv-x="812" 
d="M228.5 22q-77.5 36 -121 105t-43.5 164v409h200v-397q0 -73 38.5 -110t103.5 -37t103.5 37t38.5 110v397h200v-409q0 -95 -43.5 -164t-121 -105t-177.5 -36t-177.5 36zM249.5 808.5q-56.5 44.5 -56.5 122.5h120q0 -28 24.5 -44.5t68.5 -16.5t69 16.5t25 44.5h120
q0 -78 -56.5 -122.5t-157.5 -44.5q-100 0 -156.5 44.5z" />
    <glyph glyph-name="ubreve" unicode="&#x16d;" horiz-adv-x="697" 
d="M117 42q-56 56 -56 160v307h182v-244q0 -52 26 -81t71 -29q51 0 80 29t29 81v244h181v-509h-176v80h-6q-26 -44 -72 -69t-109 -25q-94 0 -150 56zM187.5 622q-54.5 42 -54.5 124h120q0 -28 24 -44t69 -16t69.5 16t24.5 44h120q0 -82 -55 -124t-159 -42t-158.5 42z" />
    <glyph glyph-name="Uring" unicode="&#x16e;" horiz-adv-x="812" 
d="M228.5 22q-77.5 36 -121 105t-43.5 164v409h200v-397q0 -73 38.5 -110t103.5 -37t103.5 37t38.5 110v397h200v-409q0 -95 -43.5 -164t-121 -105t-177.5 -36t-177.5 36zM307.5 796.5q-37.5 34.5 -37.5 90.5q0 55 37.5 89.5t98.5 34.5q60 0 98 -34.5t38 -89.5
q0 -56 -37.5 -90.5t-98.5 -34.5t-98.5 34.5zM438.5 856.5q12.5 11.5 12.5 30.5t-12.5 30.5t-32.5 11.5t-32.5 -11.5t-12.5 -30.5t12.5 -30.5t32.5 -11.5t32.5 11.5z" />
    <glyph glyph-name="uring" unicode="&#x16f;" horiz-adv-x="697" 
d="M117 42q-56 56 -56 160v307h182v-244q0 -52 26 -81t71 -29q51 0 80 29t29 81v244h181v-509h-176v80h-6q-26 -44 -72 -69t-109 -25q-94 0 -150 56zM247.5 599.5q-37.5 34.5 -37.5 89.5q0 56 37.5 90.5t98.5 34.5q60 0 98 -34.5t38 -90.5q0 -55 -37.5 -89.5t-98.5 -34.5
t-98.5 34.5zM378.5 658.5q12.5 11.5 12.5 30.5q0 20 -12.5 31t-32.5 11t-32.5 -11t-12.5 -31q0 -19 12.5 -30.5t32.5 -11.5t32.5 11.5z" />
    <glyph glyph-name="Uhungarumlaut" unicode="&#x170;" horiz-adv-x="812" 
d="M228.5 22q-77.5 36 -121 105t-43.5 164v409h200v-397q0 -73 38.5 -110t103.5 -37t103.5 37t38.5 110v397h200v-409q0 -95 -43.5 -164t-121 -105t-177.5 -36t-177.5 36zM352 767h-127l82 171h177zM561 767h-126l99 171h177z" />
    <glyph glyph-name="uhungarumlaut" unicode="&#x171;" horiz-adv-x="697" 
d="M117 42q-56 56 -56 160v307h182v-244q0 -52 26 -81t71 -29q51 0 80 29t29 81v244h181v-509h-176v80h-6q-26 -44 -72 -69t-109 -25q-94 0 -150 56zM288 580h-121l93 187h170zM497 580h-120l109 187h171z" />
    <glyph glyph-name="Uogonek" unicode="&#x172;" horiz-adv-x="812" 
d="M548 700h200v-409q0 -86 -35.5 -149.5t-111.5 -111.5q-131 -81 -131 -136q0 -44 47 -44q18 0 38 8v-80q-23 -14 -66 -14q-55 0 -85 27t-30 79q0 63 61 117q-10 -1 -29 -1q-100 0 -177.5 36t-121 105t-43.5 164v409h200v-397q0 -73 38.5 -110t103.5 -37t103.5 37t38.5 110
v397z" />
    <glyph glyph-name="uogonek" unicode="&#x173;" horiz-adv-x="697" 
d="M630 0q-85 -54 -85 -106q0 -22 12.5 -33t34.5 -11q18 0 38 8v-80q-23 -14 -66 -14q-55 0 -85 27t-30 79q0 38 22.5 71.5t60.5 58.5h-78v80h-6q-26 -44 -72 -69t-109 -25q-94 0 -150 56t-56 160v307h182v-244q0 -52 26 -81t71 -29q51 0 80 29t29 81v244h181v-509z" />
    <glyph glyph-name="Wcircumflex" unicode="&#x174;" horiz-adv-x="1150" 
d="M449 0h-255l-180 700h209l114 -476h6l123 476h220l123 -476h6l114 476h207l-180 -700h-255l-123 476h-6zM506 767h-162l155 171h152l156 -171h-162l-67 75h-6z" />
    <glyph glyph-name="wcircumflex" unicode="&#x175;" horiz-adv-x="935" 
d="M370 0h-215l-142 509h185l77 -338h6l95 338h184l96 -338h6l77 338h184l-143 -509h-215l-94 334h-6zM398 580h-162l155 171h152l156 -171h-162l-67 75h-6z" />
    <glyph glyph-name="Ycircumflex" unicode="&#x176;" horiz-adv-x="711" 
d="M456 0h-201v235l-261 465h217l142 -288h5l146 288h213l-261 -465v-235zM286 767h-162l155 171h152l156 -171h-162l-67 75h-6z" />
    <glyph glyph-name="ycircumflex" unicode="&#x177;" horiz-adv-x="633" 
d="M443 509h189l-209 -495q-34 -80 -68.5 -128.5t-82.5 -74t-118 -25.5q-43 0 -80 9v153q29 -9 58 -9q40 0 65 16t39 49l6 14l-246 491h191l138 -306h6zM246 580h-162l155 171h152l156 -171h-162l-67 75h-6z" />
    <glyph glyph-name="Ydieresis" unicode="&#x178;" horiz-adv-x="711" 
d="M456 0h-201v235l-261 465h217l142 -288h5l146 288h213l-261 -465v-235zM165 788.5q-26 24.5 -26 62.5t26 62.5t66 24.5t66 -24.5t26 -62.5t-26 -62.5t-66 -24.5t-66 24.5zM415 788.5q-26 24.5 -26 62.5t26 62.5t66 24.5t66 -24.5t26 -62.5t-26 -62.5t-66 -24.5t-66 24.5z
" />
    <glyph glyph-name="Zacute" unicode="&#x179;" horiz-adv-x="706" 
d="M664 0h-623v157l369 372v6h-358v165h611v-157l-368 -372v-6h369v-165zM412 767h-127l73 171h177z" />
    <glyph glyph-name="zacute" unicode="&#x17a;" horiz-adv-x="578" 
d="M552 0h-521v149l266 205v5h-255v150h499v-150l-264 -204v-6h275v-149zM345 580h-118l81 187h168z" />
    <glyph glyph-name="Zdotaccent" unicode="&#x17b;" horiz-adv-x="706" 
d="M664 0h-623v157l369 372v6h-358v165h611v-157l-368 -372v-6h369v-165zM282 786q-27 26 -27 65q0 40 27 66t69 26q43 0 70 -25.5t27 -66.5q0 -39 -27.5 -65t-69.5 -26t-69 26z" />
    <glyph glyph-name="zdotaccent" unicode="&#x17c;" horiz-adv-x="578" 
d="M552 0h-521v149l266 205v5h-255v150h499v-150l-264 -204v-6h275v-149zM221.5 598q-27.5 26 -27.5 67t27.5 67t70.5 26t70.5 -26t27.5 -67t-27.5 -67t-70.5 -26t-70.5 26z" />
    <glyph glyph-name="Zcaron" unicode="&#x17d;" horiz-adv-x="706" 
d="M664 0h-623v157l369 372v6h-358v165h611v-157l-368 -372v-6h369v-165zM427 767h-152l-155 171h162l66 -75h6l67 75h162z" />
    <glyph glyph-name="zcaron" unicode="&#x17e;" horiz-adv-x="578" 
d="M552 0h-521v149l266 205v5h-255v150h499v-150l-264 -204v-6h275v-149zM367 580h-152l-155 171h162l66 -75h6l67 75h162z" />
    <glyph glyph-name="uni018F" unicode="&#x18f;" horiz-adv-x="836" 
d="M615.5 669q86.5 -45 134 -127.5t47.5 -191.5t-47.5 -191.5t-134.5 -127.5t-202 -45q-111 0 -196 45.5t-132 128t-47 190.5q0 27 3 48h539q-10 71 -52 108.5t-111 37.5q-87 0 -130 -59h-232q39 105 135.5 167t225.5 62q113 0 199.5 -45zM520.5 187q40.5 31 54.5 90h-317
q13 -58 54.5 -89.5t103.5 -31.5q64 0 104.5 31z" />
    <glyph glyph-name="florin" unicode="&#x192;" horiz-adv-x="523" 
d="M375 538.5q-29 -22.5 -38 -78.5l-1 -3h127v-137h-150l-54 -322q-36 -212 -254 -212q-49 0 -91 10v149q30 -6 54 -6q49 0 78.5 24.5t39.5 80.5l47 276h-95v103l119 37l7 42q36 212 251 212q51 0 93 -10v-149q-31 6 -54 6q-50 0 -79 -22.5z" />
    <glyph glyph-name="uni01C4" unicode="&#x1c4;" horiz-adv-x="1479" 
d="M74 0v700h302q115 0 200.5 -43.5t131.5 -123t46 -183.5t-46 -183.5t-131.5 -123t-200.5 -43.5h-302zM370 165q80 0 127 50t47 135t-47 135t-127 50h-96v-370h96zM1437 0h-623v157l369 372v6h-358v165h611v-157l-368 -372v-6h369v-165zM1200 767h-152l-155 171h162l66 -75
h6l67 75h162z" />
    <glyph glyph-name="uni01C5" unicode="&#x1c5;" horiz-adv-x="1361" 
d="M74 0v700h302q115 0 200.5 -43.5t131.5 -123t46 -183.5t-46 -183.5t-131.5 -123t-200.5 -43.5h-302zM370 165q80 0 127 50t47 135t-47 135t-127 50h-96v-370h96zM1335 0h-521v149l266 205v5h-255v150h499v-150l-264 -204v-6h275v-149zM1150 580h-152l-155 171h162l66 -75
h6l67 75h162z" />
    <glyph glyph-name="uni01C6" unicode="&#x1c6;" horiz-adv-x="1281" 
d="M155 18q-56 33 -87.5 94.5t-31.5 141.5q0 81 31.5 142t86.5 94.5t125 33.5q54 0 97 -20t69 -56h5v252h182v-700h-166v71h-5q-25 -41 -71.5 -63.5t-108.5 -22.5q-70 0 -126 33zM419 172.5q31 30.5 31 81.5t-31 82t-81 31q-49 0 -80.5 -31t-31.5 -82q0 -50 31.5 -81
t80.5 -31q50 0 81 30.5zM1255 0h-521v149l266 205v5h-255v150h499v-150l-264 -204v-6h275v-149zM1070 580h-152l-155 171h162l66 -75h6l67 75h162z" />
    <glyph glyph-name="uni01C7" unicode="&#x1c7;" horiz-adv-x="1338" 
d="M651 0h-577v700h200v-535h377v-165zM748 58q-78 72 -78 199v30h200v-30q0 -46 27 -73.5t78 -27.5q50 0 77 27.5t27 73.5v278h-279v165h479v-443q0 -126 -78 -198.5t-226 -72.5q-149 0 -227 72z" />
    <glyph glyph-name="uni01C8" unicode="&#x1c8;" horiz-adv-x="996" 
d="M651 0h-577v700h200v-535h377v-165zM607 -204v149q23 -6 50 -6q44 0 65 21t21 73v476h182v-496q0 -111 -60 -169t-174 -58q-50 0 -84 10zM763.5 598q-27.5 26 -27.5 67t27.5 67t70.5 26t70.5 -26t27.5 -67t-27.5 -67t-70.5 -26t-70.5 26z" />
    <glyph glyph-name="uni01C9" unicode="&#x1c9;" horiz-adv-x="658" 
d="M253 0h-182v700h182v-700zM269 -204v149q23 -6 50 -6q44 0 65 21t21 73v476h182v-496q0 -111 -60 -169t-174 -58q-50 0 -84 10zM425.5 598q-27.5 26 -27.5 67t27.5 67t70.5 26t70.5 -26t27.5 -67t-27.5 -67t-70.5 -26t-70.5 26z" />
    <glyph glyph-name="uni01CA" unicode="&#x1ca;" horiz-adv-x="1546" 
d="M269 0h-195v700h201l301 -405h6v405h195v-700h-201l-301 405h-6v-405zM957 58q-78 72 -78 199v30h200v-30q0 -46 27 -73.5t78 -27.5q50 0 77 27.5t27 73.5v278h-279v165h479v-443q0 -126 -78 -198.5t-226 -72.5q-149 0 -227 72z" />
    <glyph glyph-name="uni01CB" unicode="&#x1cb;" horiz-adv-x="1185" 
d="M269 0h-195v700h201l301 -405h6v405h195v-700h-201l-301 405h-6v-405zM796 -204v149q23 -6 50 -6q44 0 65 21t21 73v476h182v-496q0 -111 -60 -169t-174 -58q-50 0 -84 10zM952.5 598q-27.5 26 -27.5 67t27.5 67t70.5 26t70.5 -26t27.5 -67t-27.5 -67t-70.5 -26t-70.5 26
z" />
    <glyph glyph-name="uni01CC" unicode="&#x1cc;" horiz-adv-x="1036" 
d="M66 0v509h177v-80h5q26 43 75 68.5t111 25.5q97 0 151.5 -57.5t54.5 -159.5v-306h-181v241q0 52 -26.5 82.5t-74.5 30.5q-51 0 -80.5 -30.5t-29.5 -82.5v-241h-182zM647 -204v149q23 -6 50 -6q44 0 65 21t21 73v476h182v-496q0 -111 -60 -169t-174 -58q-50 0 -84 10z
M803.5 598q-27.5 26 -27.5 67t27.5 67t70.5 26t70.5 -26t27.5 -67t-27.5 -67t-70.5 -26t-70.5 26z" />
    <glyph glyph-name="uni01CD" unicode="&#x1cd;" horiz-adv-x="800" 
d="M806 0h-211l-41 108h-312l-41 -108h-207l283 700h245zM395 505l-94 -244h194l-94 244h-6zM475 767h-152l-155 171h162l66 -75h6l67 75h162z" />
    <glyph glyph-name="uni01CE" unicode="&#x1ce;" horiz-adv-x="657" 
d="M83 27q-55 41 -55 116t59.5 115t154.5 40q47 0 90.5 -9t70.5 -24v65q0 65 -84 65q-39 0 -61.5 -13t-22.5 -37h-182q0 84 70 133t197 49q125 0 194.5 -51t69.5 -149v-126q0 -30 6 -41t21 -11q11 0 17 3v-146q-28 -15 -79 -15q-97 0 -126 73h-6q-27 -36 -77 -57t-112 -21
q-90 0 -145 41zM358 122.5q28 6.5 45 17.5v39q-17 7 -46.5 11.5t-58.5 4.5q-43 0 -65.5 -9t-22.5 -30q0 -40 88 -40q32 0 60 6.5zM401 580h-152l-155 171h162l66 -75h6l67 75h162z" />
    <glyph glyph-name="uni01D3" unicode="&#x1d3;" horiz-adv-x="812" 
d="M228.5 22q-77.5 36 -121 105t-43.5 164v409h200v-397q0 -73 38.5 -110t103.5 -37t103.5 37t38.5 110v397h200v-409q0 -95 -43.5 -164t-121 -105t-177.5 -36t-177.5 36zM482 767h-152l-155 171h162l66 -75h6l67 75h162z" />
    <glyph glyph-name="uni01D4" unicode="&#x1d4;" horiz-adv-x="697" 
d="M117 42q-56 56 -56 160v307h182v-244q0 -52 26 -81t71 -29q51 0 80 29t29 81v244h181v-509h-176v80h-6q-26 -44 -72 -69t-109 -25q-94 0 -150 56zM422 580h-152l-155 171h162l66 -75h6l67 75h162z" />
    <glyph glyph-name="Gcaron" unicode="&#x1e6;" horiz-adv-x="819" 
d="M388 382h393v-31q0 -110 -45 -193t-127.5 -127.5t-193.5 -44.5q-112 0 -197.5 45.5t-132 128t-46.5 190.5t46.5 190.5t132 128t197.5 45.5q94 0 168.5 -30t121 -86t59.5 -132h-212q-14 37 -49.5 57.5t-86.5 20.5q-75 0 -119 -52t-44 -142t44 -142t119 -52q58 0 97 25.5
t51 71.5h-176v129zM483 767h-152l-155 171h162l66 -75h6l67 75h162z" />
    <glyph glyph-name="gcaron" unicode="&#x1e7;" horiz-adv-x="649" 
d="M97.5 -179.5q-71.5 39.5 -71.5 125.5q0 91 98 132v5q-18 8 -28.5 23t-10.5 34q0 23 15.5 39t43.5 23v6q-37 20 -55.5 54.5t-18.5 76.5q0 80 66 125t184 45h151q21 0 30 6t9 22t-4 28h99q19 -32 19 -64t-21 -49t-58 -17h-19v-6q43 -40 43 -102q0 -156 -249 -156
q-51 0 -71 -6.5t-20 -22.5q0 -17 19 -23t72 -6h42q127 0 189 -42.5t62 -116.5q0 -91 -72.5 -132t-221.5 -41q-150 0 -221.5 39.5zM375 299.5q20 14.5 20 39.5q0 26 -20 40.5t-56 14.5t-55.5 -14.5t-19.5 -40.5q0 -25 19.5 -39.5t55.5 -14.5t56 14.5zM405.5 -87.5
q24.5 9.5 24.5 34.5q0 23 -25.5 33.5t-85.5 10.5t-85.5 -11t-25.5 -33q0 -25 24.5 -34.5t86.5 -9.5t86.5 9.5zM400 580h-152l-155 171h162l66 -75h6l67 75h162z" />
    <glyph glyph-name="uni01F1" unicode="&#x1f1;" horiz-adv-x="1479" 
d="M74 0v700h302q115 0 200.5 -43.5t131.5 -123t46 -183.5t-46 -183.5t-131.5 -123t-200.5 -43.5h-302zM370 165q80 0 127 50t47 135t-47 135t-127 50h-96v-370h96zM1437 0h-623v157l369 372v6h-358v165h611v-157l-368 -372v-6h369v-165z" />
    <glyph glyph-name="uni01F2" unicode="&#x1f2;" horiz-adv-x="1361" 
d="M74 0v700h302q115 0 200.5 -43.5t131.5 -123t46 -183.5t-46 -183.5t-131.5 -123t-200.5 -43.5h-302zM370 165q80 0 127 50t47 135t-47 135t-127 50h-96v-370h96zM1335 0h-521v149l266 205v5h-255v150h499v-150l-264 -204v-6h275v-149z" />
    <glyph glyph-name="uni01F3" unicode="&#x1f3;" horiz-adv-x="1281" 
d="M155 18q-56 33 -87.5 94.5t-31.5 141.5q0 81 31.5 142t86.5 94.5t125 33.5q54 0 97 -20t69 -56h5v252h182v-700h-166v71h-5q-25 -41 -71.5 -63.5t-108.5 -22.5q-70 0 -126 33zM419 172.5q31 30.5 31 81.5t-31 82t-81 31q-49 0 -80.5 -31t-31.5 -82q0 -50 31.5 -81
t80.5 -31q50 0 81 30.5zM1255 0h-521v149l266 205v5h-255v150h499v-150l-264 -204v-6h275v-149z" />
    <glyph glyph-name="uni01F4" unicode="&#x1f4;" horiz-adv-x="819" 
d="M388 382h393v-31q0 -110 -45 -193t-127.5 -127.5t-193.5 -44.5q-112 0 -197.5 45.5t-132 128t-46.5 190.5t46.5 190.5t132 128t197.5 45.5q94 0 168.5 -30t121 -86t59.5 -132h-212q-14 37 -49.5 57.5t-86.5 20.5q-75 0 -119 -52t-44 -142t44 -142t119 -52q58 0 97 25.5
t51 71.5h-176v129zM468 767h-127l73 171h177z" />
    <glyph glyph-name="uni01F5" unicode="&#x1f5;" horiz-adv-x="649" 
d="M97.5 -179.5q-71.5 39.5 -71.5 125.5q0 91 98 132v5q-18 8 -28.5 23t-10.5 34q0 23 15.5 39t43.5 23v6q-37 20 -55.5 54.5t-18.5 76.5q0 80 66 125t184 45h151q21 0 30 6t9 22t-4 28h99q19 -32 19 -64t-21 -49t-58 -17h-19v-6q43 -40 43 -102q0 -156 -249 -156
q-51 0 -71 -6.5t-20 -22.5q0 -17 19 -23t72 -6h42q127 0 189 -42.5t62 -116.5q0 -91 -72.5 -132t-221.5 -41q-150 0 -221.5 39.5zM375 299.5q20 14.5 20 39.5q0 26 -20 40.5t-56 14.5t-55.5 -14.5t-19.5 -40.5q0 -25 19.5 -39.5t55.5 -14.5t56 14.5zM405.5 -87.5
q24.5 9.5 24.5 34.5q0 23 -25.5 33.5t-85.5 10.5t-85.5 -11t-25.5 -33q0 -25 24.5 -34.5t86.5 -9.5t86.5 9.5zM378 580h-118l81 187h168z" />
    <glyph glyph-name="Aringacute" unicode="&#x1fa;" horiz-adv-x="800" 
d="M806 0h-211l-41 108h-312l-41 -108h-207l283 700h245zM395 505l-94 -244h194l-94 244h-6zM470 996q31 -16 48.5 -44t17.5 -65q0 -56 -37.5 -90.5t-98.5 -34.5t-98.5 34.5t-37.5 90.5q0 42 23 73t62 43l40 93h153zM432.5 856.5q12.5 11.5 12.5 30.5t-12.5 30.5t-32.5 11.5
t-32.5 -11.5t-12.5 -30.5t12.5 -30.5t32.5 -11.5t32.5 11.5z" />
    <glyph glyph-name="aringacute" unicode="&#x1fb;" horiz-adv-x="657" 
d="M83 27q-55 41 -55 116t59.5 115t154.5 40q47 0 90.5 -9t70.5 -24v65q0 65 -84 65q-39 0 -61.5 -13t-22.5 -37h-182q0 84 70 133t197 49q125 0 194.5 -51t69.5 -149v-126q0 -30 6 -41t21 -11q11 0 17 3v-146q-28 -15 -79 -15q-97 0 -126 73h-6q-27 -36 -77 -57t-112 -21
q-90 0 -145 41zM358 122.5q28 6.5 45 17.5v39q-17 7 -46.5 11.5t-58.5 4.5q-43 0 -65.5 -9t-22.5 -30q0 -40 88 -40q32 0 60 6.5zM396 798q30 -15 47.5 -43.5t17.5 -65.5q0 -55 -37.5 -89.5t-98.5 -34.5t-98.5 34.5t-37.5 89.5q0 43 23 74t63 44l39 90h153zM357.5 658.5
q12.5 11.5 12.5 30.5q0 20 -12.5 31t-32.5 11t-32.5 -11t-12.5 -31q0 -19 12.5 -30.5t32.5 -11.5t32.5 11.5z" />
    <glyph glyph-name="AEacute" unicode="&#x1fc;" horiz-adv-x="1047" 
d="M1000 700v-157h-331v-113h276v-148h-276v-125h331v-157h-531v130h-216l-60 -130h-212l333 700h686zM323 283h146v260h-26zM642 767h-127l73 171h177z" />
    <glyph glyph-name="aeacute" unicode="&#x1fd;" horiz-adv-x="1011" 
d="M976 210h-389q9 -47 36.5 -71t68.5 -24q30 0 52.5 12t34.5 36h189q-17 -83 -87.5 -132.5t-173.5 -49.5q-66 0 -122.5 21t-90.5 61h-5q-42 -38 -103 -59.5t-136 -21.5q-105 0 -163.5 42.5t-58.5 118.5q0 80 65.5 121t195.5 41h114v21q0 35 -21.5 52t-62.5 17
q-39 0 -61.5 -13.5t-22.5 -36.5h-182q0 55 31.5 96t88 63.5t130.5 22.5q64 0 117.5 -21t83.5 -55h6q34 36 85 56t112 20q82 0 143.5 -32.5t95.5 -94t34 -144.5q0 -26 -4 -46zM625.5 372q-27.5 -22 -37.5 -67h203q-3 40 -30.5 64.5t-68.5 24.5q-39 0 -66.5 -22zM403 210h-100
q-93 0 -93 -47q0 -45 88 -45q105 0 105 77v15zM557 580h-118l81 187h168z" />
    <glyph glyph-name="Oslashacute" unicode="&#x1fe;" horiz-adv-x="846" 
d="M695 620q54 -49 83 -118t29 -152q0 -108 -48 -190.5t-135 -128t-201 -45.5q-90 0 -163 29l-43 -60h-156l90 125q-54 49 -83 118t-29 152q0 108 48 190.5t135 128t201 45.5q87 0 162 -28l43 59h157zM273 250l205 286q-27 8 -55 8q-78 0 -124 -52t-46 -142q0 -57 20 -100z
M547.5 208.5q46.5 52.5 46.5 141.5q0 58 -20 101l-207 -287q27 -8 56 -8q78 0 124.5 52.5zM484 767h-127l73 171h177z" />
    <glyph glyph-name="oslashacute" unicode="&#x1ff;" horiz-adv-x="661" 
d="M539 456q41 -37 63.5 -88t22.5 -114q0 -83 -38 -145t-105 -95t-152 -33q-68 0 -124 21l-30 -40h-121l67 90q-41 36 -63.5 87.5t-22.5 114.5q0 83 38 145t104.5 95t151.5 33q66 0 126 -22l30 41h120zM221 187l146 198q-15 4 -37 4q-57 0 -89 -35.5t-32 -99.5q0 -38 12 -67
zM419 155q32 35 32 99q0 36 -11 66l-145 -196q15 -4 35 -4q57 0 89 35zM384 580h-118l81 187h168z" />
    <glyph glyph-name="uni0218" unicode="&#x218;" horiz-adv-x="751" 
d="M125.5 47q-85.5 61 -85.5 168h210q0 -75 131 -75q56 0 87.5 14t31.5 44q0 24 -20 39t-51 22.5t-88 17.5q-88 15 -145.5 33t-99 62t-41.5 122q0 66 37 115.5t107.5 77t168.5 27.5q100 0 172 -27.5t109.5 -77.5t37.5 -117h-209q0 32 -29 50t-83 18q-49 0 -75 -14t-26 -41
q0 -33 38 -48t118 -28q90 -16 147.5 -34.5t99.5 -63t42 -123.5q0 -106 -85 -164t-245 -58q-169 0 -254.5 61zM442 -93.5q22 -22.5 22 -54.5q0 -21 -7 -44t-24 -59l-30 -61h-60l31 94q-30 3 -49 22t-19 49q0 33 22 54.5t58 21.5q34 0 56 -22.5z" />
    <glyph glyph-name="uni0219" unicode="&#x219;" horiz-adv-x="613" 
d="M105.5 28q-71.5 47 -71.5 132h190q0 -24 23.5 -39.5t65.5 -15.5q89 0 89 42q0 22 -28 31t-89 17q-73 9 -120 21.5t-82 46.5t-35 96q0 52 32.5 90t90.5 58t133 20q83 0 143 -22.5t91 -61.5t31 -89h-190q0 22 -19 36t-55 14q-35 0 -54.5 -11t-19.5 -31q0 -23 29 -33t92 -18
q71 -10 117.5 -23.5t80.5 -46t34 -90.5q0 -84 -70 -127t-203 -43q-134 0 -205.5 47zM372 -93.5q22 -22.5 22 -54.5q0 -21 -7 -44t-24 -59l-30 -61h-60l31 94q-30 3 -49 22t-19 49q0 33 22 54.5t58 21.5q34 0 56 -22.5z" />
    <glyph glyph-name="uni021A" unicode="&#x21a;" horiz-adv-x="697" 
d="M448 0h-200v535h-232v165h665v-165h-233v-535zM406 -93.5q22 -22.5 22 -54.5q0 -21 -7 -44t-24 -59l-30 -61h-60l31 94q-30 3 -49 22t-19 49q0 33 22 54.5t58 21.5q34 0 56 -22.5z" />
    <glyph glyph-name="uni021B" unicode="&#x21b;" horiz-adv-x="478" 
d="M453 142v-140q-22 -9 -57 -15t-65 -6q-112 0 -166 52t-54 160v176h-105v115l114 28v108h172v-111h144v-140h-144v-136q0 -51 22.5 -75t67.5 -24q39 0 71 8zM347 -93.5q22 -22.5 22 -54.5q0 -21 -7 -44t-24 -59l-30 -61h-60l31 94q-30 3 -49 22t-19 49q0 33 22 54.5
t58 21.5q34 0 56 -22.5z" />
    <glyph glyph-name="uni021E" unicode="&#x21e;" horiz-adv-x="836" 
d="M562 443v257h200v-700h-200v278h-288v-278h-200v700h200v-257h288zM494 767h-152l-155 171h162l66 -75h6l67 75h162z" />
    <glyph glyph-name="uni021F" unicode="&#x21f;" horiz-adv-x="707" 
d="M71 0v700h182v-267h5q23 40 71 65t110 25q97 0 151.5 -57.5t54.5 -159.5v-306h-181v241q0 52 -26.5 82.5t-74.5 30.5q-51 0 -80.5 -30.5t-29.5 -82.5v-241h-182zM435 767h-152l-155 171h162l66 -75h6l67 75h162z" />
    <glyph glyph-name="uni0232" unicode="&#x232;" horiz-adv-x="711" 
d="M456 0h-201v235l-261 465h217l142 -288h5l146 288h213l-261 -465v-235zM555 794h-399v113h399v-113z" />
    <glyph glyph-name="uni0233" unicode="&#x233;" horiz-adv-x="633" 
d="M443 509h189l-209 -495q-34 -80 -68.5 -128.5t-82.5 -74t-118 -25.5q-43 0 -80 9v153q29 -9 58 -9q40 0 65 16t39 49l6 14l-246 491h191l138 -306h6zM514 594h-399v113h399v-113z" />
    <glyph glyph-name="uni0237" unicode="&#x237;" horiz-adv-x="334" 
d="M-55 -204v149q23 -6 50 -6q44 0 65 21t21 73v476h182v-496q0 -111 -60 -169t-174 -58q-50 0 -84 10z" />
    <glyph glyph-name="uni0244" unicode="&#x244;" horiz-adv-x="832" 
d="M838 527v-148h-80v-88q0 -95 -43.5 -164t-121 -105t-177.5 -36t-177.5 36t-121 105t-43.5 164v88h-80v148h80v173h200v-173h284v173h200v-173h80zM558 379h-284v-76q0 -73 38.5 -110t103.5 -37t103.5 37t38.5 110v76z" />
    <glyph glyph-name="uni0259" unicode="&#x259;" horiz-adv-x="656" 
d="M476 494q68 -33 105.5 -95t37.5 -145t-37.5 -145t-105 -95t-153.5 -33q-85 0 -151 31.5t-103.5 92.5t-37.5 147q0 25 4 47h401q-10 47 -38.5 71t-72.5 24q-71 0 -94 -48h-188q9 49 42.5 90t92.5 66t140 25q90 0 158 -33zM396 137q29 22 39 67h-215q3 -41 31 -65t74 -24
q42 0 71 22z" />
    <glyph glyph-name="uni0289" unicode="&#x289;" horiz-adv-x="717" 
d="M720 404v-116h-80v-288h-176v80h-6q-26 -44 -72 -69t-109 -25q-94 0 -150 56t-56 160v86h-80v116h80v105h182v-105h206v105h181v-105h80zM459 288h-206v-23q0 -52 26 -81t71 -29q51 0 80 29t29 81v23z" />
    <glyph glyph-name="uni02BB" unicode="&#x2bb;" horiz-adv-x="274" 
d="M159 590q36 -5 59.5 -31t23.5 -65q0 -44 -30 -72t-74 -28q-48 0 -76.5 30t-28.5 74q0 32 10 66.5t31 78.5l52 112h83z" />
    <glyph glyph-name="uni02BC" unicode="&#x2bc;" horiz-adv-x="274" 
d="M213.5 733q28.5 -30 28.5 -74q0 -31 -10 -65t-31 -79l-53 -112h-82l50 164q-36 5 -59.5 31t-23.5 65q0 45 29.5 72.5t74.5 27.5q48 0 76.5 -30z" />
    <glyph glyph-name="circumflex" unicode="&#x2c6;" horiz-adv-x="523" 
d="M192 580h-162l155 171h152l156 -171h-162l-67 75h-6z" />
    <glyph glyph-name="caron" unicode="&#x2c7;" horiz-adv-x="523" 
d="M337 580h-152l-155 171h162l66 -75h6l67 75h162z" />
    <glyph glyph-name="breve" unicode="&#x2d8;" horiz-adv-x="487" 
d="M84.5 622q-54.5 42 -54.5 124h120q0 -28 24 -44t69 -16t69.5 16t24.5 44h120q0 -82 -55 -124t-159 -42t-158.5 42z" />
    <glyph glyph-name="dotaccent" unicode="&#x2d9;" horiz-adv-x="256" 
d="M57.5 598q-27.5 26 -27.5 67t27.5 67t70.5 26t70.5 -26t27.5 -67t-27.5 -67t-70.5 -26t-70.5 26z" />
    <glyph glyph-name="ring" unicode="&#x2da;" horiz-adv-x="332" 
d="M67.5 599.5q-37.5 34.5 -37.5 89.5q0 56 37.5 90.5t98.5 34.5q60 0 98 -34.5t38 -90.5q0 -55 -37.5 -89.5t-98.5 -34.5t-98.5 34.5zM198.5 658.5q12.5 11.5 12.5 30.5q0 20 -12.5 31t-32.5 11t-32.5 -11t-12.5 -31q0 -19 12.5 -30.5t32.5 -11.5t32.5 11.5z" />
    <glyph glyph-name="ogonek" unicode="&#x2db;" horiz-adv-x="241" 
d="M60 -209q-30 27 -30 79q0 47 34 87t88 64l59 -21q-85 -54 -85 -106q0 -22 12.5 -33t34.5 -11q18 0 38 8v-80q-23 -14 -66 -14q-55 0 -85 27z" />
    <glyph glyph-name="tilde" unicode="&#x2dc;" horiz-adv-x="474" 
d="M30 607q0 69 31.5 105t88.5 36q30 0 50 -9t46 -26q15 -11 27 -16.5t24 -5.5q32 0 32 38v14h115v-27q0 -69 -31.5 -105t-88.5 -36q-30 0 -50 9t-46 26q-17 11 -28 16.5t-24 5.5q-31 0 -31 -37v-15h-115v27z" />
    <glyph glyph-name="hungarumlaut" unicode="&#x2dd;" horiz-adv-x="550" 
d="M151 580h-121l93 187h170zM360 580h-120l109 187h171z" />
    <glyph glyph-name="gravecomb" unicode="&#x300;" horiz-adv-x="0" 
d="M-30 580h-118l-131 187h169z" />
    <glyph glyph-name="acutecomb" unicode="&#x301;" horiz-adv-x="0" 
d="M-161 580h-118l81 187h168z" />
    <glyph glyph-name="uni0302" unicode="&#x302;" horiz-adv-x="0" 
d="M-331 580h-162l155 171h152l156 -171h-162l-67 75h-6z" />
    <glyph glyph-name="tildecomb" unicode="&#x303;" horiz-adv-x="0" 
d="M-444 607q0 69 31.5 105t88.5 36q30 0 50 -9t46 -26q15 -11 27 -16.5t24 -5.5q32 0 32 38v14h115v-27q0 -69 -31.5 -105t-88.5 -36q-30 0 -50 9t-46 26q-17 11 -28 16.5t-24 5.5q-31 0 -31 -37v-15h-115v27z" />
    <glyph glyph-name="uni0304" unicode="&#x304;" horiz-adv-x="0" 
d="M-30 594h-399v113h399v-113z" />
    <glyph glyph-name="uni0306" unicode="&#x306;" horiz-adv-x="0" 
d="M-402.5 622q-54.5 42 -54.5 124h120q0 -28 24 -44t69 -16t69.5 16t24.5 44h120q0 -82 -55 -124t-159 -42t-158.5 42z" />
    <glyph glyph-name="uni0307" unicode="&#x307;" horiz-adv-x="0" 
d="M-198.5 598q-27.5 26 -27.5 67t27.5 67t70.5 26t70.5 -26t27.5 -67t-27.5 -67t-70.5 -26t-70.5 26z" />
    <glyph glyph-name="uni0308" unicode="&#x308;" horiz-adv-x="0" 
d="M-441 597q-26 25 -26 64q0 38 26.5 63.5t66.5 25.5t67 -25.5t27 -63.5t-27 -63.5t-67 -25.5q-41 0 -67 25zM-191 597q-26 25 -26 64q0 38 26.5 63.5t66.5 25.5t67 -25.5t27 -63.5q0 -39 -26.5 -64t-67.5 -25t-67 25z" />
    <glyph glyph-name="uni030A" unicode="&#x30a;" horiz-adv-x="0" 
d="M-264.5 599.5q-37.5 34.5 -37.5 89.5q0 56 37.5 90.5t98.5 34.5q60 0 98 -34.5t38 -90.5q0 -55 -37.5 -89.5t-98.5 -34.5t-98.5 34.5zM-133.5 658.5q12.5 11.5 12.5 30.5q0 20 -12.5 31t-32.5 11t-32.5 -11t-12.5 -31q0 -19 12.5 -30.5t32.5 -11.5t32.5 11.5z" />
    <glyph glyph-name="uni030B" unicode="&#x30b;" horiz-adv-x="0" 
d="M-399 580h-121l93 187h170zM-190 580h-120l109 187h171z" />
    <glyph glyph-name="uni030C" unicode="&#x30c;" horiz-adv-x="0" 
d="M-186 580h-152l-155 171h162l66 -75h6l67 75h162z" />
    <glyph glyph-name="uni0312" unicode="&#x312;" horiz-adv-x="0" 
d="M-92 690q27 -3 44.5 -20.5t17.5 -43.5q0 -30 -20.5 -50t-52.5 -20t-51.5 20.5t-19.5 50.5q0 21 7.5 43t20.5 49l27 55h55z" />
    <glyph glyph-name="dotbelowcomb" unicode="&#x323;" horiz-adv-x="0" 
d="M-171.5 -211.5q-23.5 23.5 -23.5 58.5t23.5 58.5t58.5 23.5q36 0 59.5 -23.5t23.5 -58.5t-23.5 -58.5t-59.5 -23.5q-35 0 -58.5 23.5z" />
    <glyph glyph-name="uni0326" unicode="&#x326;" horiz-adv-x="0" 
d="M-52 -93.5q22 -22.5 22 -54.5q0 -21 -7 -44t-24 -59l-30 -61h-60l31 94q-30 3 -49 22t-19 49q0 33 22 54.5t58 21.5q34 0 56 -22.5z" />
    <glyph glyph-name="uni0327" unicode="&#x327;" horiz-adv-x="0" 
d="M-125 -35q46 -6 70.5 -29.5t24.5 -63.5q0 -49 -34.5 -78.5t-96.5 -29.5q-50 0 -85 14v80q35 -8 66 -8q54 0 54 28q0 25 -45 25h-38v48l55 73l71 -4z" />
    <glyph glyph-name="uni0328" unicode="&#x328;" horiz-adv-x="0" 
d="M-181 -209q-30 27 -30 79q0 47 34 87t88 64l59 -21q-85 -54 -85 -106q0 -22 12.5 -33t34.5 -11q18 0 38 8v-80q-23 -14 -66 -14q-55 0 -85 27z" />
    <glyph glyph-name="uni0400" unicode="&#x400;" horiz-adv-x="716" 
d="M669 700v-157h-395v-113h340v-148h-340v-125h395v-157h-595v700h595zM443 767h-127l-123 171h177z" />
    <glyph glyph-name="uni0401" unicode="&#x401;" horiz-adv-x="716" 
d="M669 700v-157h-395v-113h340v-148h-340v-125h395v-157h-595v700h595zM185 788.5q-26 24.5 -26 62.5t26 62.5t66 24.5t66 -24.5t26 -62.5t-26 -62.5t-66 -24.5t-66 24.5zM435 788.5q-26 24.5 -26 62.5t26 62.5t66 24.5t66 -24.5t26 -62.5t-26 -62.5t-66 -24.5t-66 24.5z
" />
    <glyph glyph-name="uni0402" unicode="&#x402;" horiz-adv-x="884" 
d="M753.5 370q75.5 -73 75.5 -199q0 -131 -76 -204.5t-212 -73.5q-50 0 -83 9v160q29 -8 56 -8q54 0 83 30t29 79q0 55 -34 82.5t-97 27.5q-59 0 -112 -25v-248h-200v535h-184v165h621v-165h-237v-116q32 12 72.5 18t79.5 6q143 0 218.5 -73z" />
    <glyph glyph-name="uni0403" unicode="&#x403;" horiz-adv-x="652" 
d="M274 0h-200v700h563v-165h-363v-535zM422 767h-127l73 171h177z" />
    <glyph glyph-name="uni0404" unicode="&#x404;" horiz-adv-x="804" 
d="M770 257q-11 -82 -57.5 -143t-124.5 -94.5t-180 -33.5q-110 0 -193.5 45.5t-129.5 128t-46 190.5t46 190.5t129.5 128t193.5 45.5q101 0 179 -34t124 -96t57 -144h-209q-11 48 -51.5 76t-99.5 28q-55 0 -93 -31.5t-53 -88.5h213v-140h-215q14 -61 52.5 -94.5t95.5 -33.5
q61 0 100.5 26t51.5 75h210z" />
    <glyph glyph-name="uni0405" unicode="&#x405;" horiz-adv-x="751" 
d="M125.5 47q-85.5 61 -85.5 168h210q0 -75 131 -75q56 0 87.5 14t31.5 44q0 24 -20 39t-51 22.5t-88 17.5q-88 15 -145.5 33t-99 62t-41.5 122q0 66 37 115.5t107.5 77t168.5 27.5q100 0 172 -27.5t109.5 -77.5t37.5 -117h-209q0 32 -29 50t-83 18q-49 0 -75 -14t-26 -41
q0 -33 38 -48t118 -28q90 -16 147.5 -34.5t99.5 -63t42 -123.5q0 -106 -85 -164t-245 -58q-169 0 -254.5 61z" />
    <glyph glyph-name="uni0406" unicode="&#x406;" horiz-adv-x="368" 
d="M284 0h-200v700h200v-700z" />
    <glyph glyph-name="uni0407" unicode="&#x407;" horiz-adv-x="368" 
d="M284 0h-200v700h200v-700zM-7 788.5q-26 24.5 -26 62.5t26 62.5t66 24.5t66 -24.5t26 -62.5t-26 -62.5t-66 -24.5t-66 24.5zM243 788.5q-26 24.5 -26 62.5t26 62.5t66 24.5t66 -24.5t26 -62.5t-26 -62.5t-66 -24.5t-66 24.5z" />
    <glyph glyph-name="uni0408" unicode="&#x408;" horiz-adv-x="696" 
d="M106 58q-78 72 -78 199v30h200v-30q0 -46 27 -73.5t78 -27.5q50 0 77 27.5t27 73.5v278h-279v165h479v-443q0 -126 -78 -198.5t-226 -72.5q-149 0 -227 72z" />
    <glyph glyph-name="uni0409" unicode="&#x409;" horiz-adv-x="1153" 
d="M832 466q135 0 209.5 -60.5t74.5 -172.5t-74.5 -172.5t-209.5 -60.5h-309v535h-182l-24 -317q-9 -124 -60 -180t-159 -56q-50 0 -83 11v172q16 -4 34 -4q38 0 55.5 21.5t20.5 71.5l32 446h566v-234h109zM829 165q36 0 56.5 18.5t20.5 51.5q0 34 -20.5 51.5t-56.5 17.5
h-106v-139h106z" />
    <glyph glyph-name="uni040A" unicode="&#x40a;" horiz-adv-x="1167" 
d="M846 466q135 0 209.5 -60.5t74.5 -172.5t-74.5 -172.5t-209.5 -60.5h-309v304h-263v-304h-200v700h200v-234h263v234h200v-234h109zM843 165q36 0 56.5 18.5t20.5 51.5q0 34 -20.5 51.5t-56.5 17.5h-106v-139h106z" />
    <glyph glyph-name="uni040B" unicode="&#x40b;" horiz-adv-x="892" 
d="M763 368.5q73 -74.5 73 -232.5v-136h-200v133q0 74 -32 106.5t-102 32.5q-65 0 -119 -24v-248h-200v535h-184v165h621v-165h-237v-116q32 11 72.5 17.5t80.5 6.5q154 0 227 -74.5z" />
    <glyph glyph-name="uni040C" unicode="&#x40c;" horiz-adv-x="749" 
d="M480 361l283 -361h-238l-251 333v-333h-200v700h200v-325l245 325h225zM454 767h-127l73 171h177z" />
    <glyph glyph-name="uni040D" unicode="&#x40d;" horiz-adv-x="841" 
d="M276 0h-202v700h200v-401h6l285 401h202v-700h-200v401h-6zM487 767h-127l-123 171h177z" />
    <glyph glyph-name="uni040E" unicode="&#x40e;" horiz-adv-x="693" 
d="M513 700h202l-238 -497q-37 -77 -74.5 -123.5t-88 -70t-121.5 -23.5q-52 0 -90 11v155q39 -10 71 -10q74 0 105 55l-291 503h215l166 -312h5zM198.5 806.5q-54.5 42.5 -54.5 124.5h120q0 -31 25 -48.5t68 -17.5t68.5 17.5t25.5 48.5h120q0 -82 -55 -124.5t-159 -42.5
t-158.5 42.5z" />
    <glyph glyph-name="uni040F" unicode="&#x40f;" horiz-adv-x="828" 
d="M514 -170h-200v170h-240v700h200v-535h280v535h200v-700h-240v-170z" />
    <glyph glyph-name="uni0410" unicode="&#x410;" horiz-adv-x="800" 
d="M806 0h-211l-41 108h-312l-41 -108h-207l283 700h245zM395 505l-94 -244h194l-94 244h-6z" />
    <glyph glyph-name="uni0411" unicode="&#x411;" horiz-adv-x="740" 
d="M421 447q286 0 286 -220q0 -111 -73 -169t-213 -58h-347v700h564v-157h-364v-96h147zM408 157q89 0 89 70q0 34 -23 52.5t-66 18.5h-134v-141h134z" />
    <glyph glyph-name="uni0412" unicode="&#x412;" horiz-adv-x="746" 
d="M576 369q63 -16 97.5 -62t34.5 -113q0 -92 -60.5 -143t-170.5 -51h-403v700h382q104 0 161.5 -46t57.5 -129q0 -55 -26 -94t-73 -56v-6zM274 546v-122h122q33 0 51 16t18 45t-18 45t-51 16h-122zM419 154q39 0 59 17.5t20 50.5t-20 50t-58 17h-146v-135h145z" />
    <glyph glyph-name="uni0413" unicode="&#x413;" horiz-adv-x="652" 
d="M274 0h-200v700h563v-165h-363v-535z" />
    <glyph glyph-name="uni0414" unicode="&#x414;" horiz-adv-x="865" 
d="M734 165h122v-335h-200v170h-446v-170h-200v335h20q44 0 67 30t27 92l29 413h581v-535zM259 165h275v370h-201l-17 -232q-4 -51 -16 -80.5t-41 -51.5v-6z" />
    <glyph glyph-name="uni0415" unicode="&#x415;" horiz-adv-x="716" 
d="M669 700v-157h-395v-113h340v-148h-340v-125h395v-157h-595v700h595z" />
    <glyph glyph-name="uni0416" unicode="&#x416;" horiz-adv-x="1083" 
d="M842 363l249 -363h-237l-213 329v-329h-200v328l-212 -328h-238l249 362l-230 338h225l206 -320v320h200v-321l207 321h224z" />
    <glyph glyph-name="uni0417" unicode="&#x417;" horiz-adv-x="725" 
d="M114.5 43.5q-80.5 57.5 -80.5 173.5h209q0 -35 31 -54t87 -19q116 0 116 73q0 37 -26.5 55t-85.5 18h-77v134h77q89 0 89 66q0 31 -23.5 48.5t-69.5 17.5q-50 0 -80 -19.5t-30 -51.5h-209q0 106 85 167.5t240 61.5q143 0 220 -50.5t77 -143.5q0 -53 -29.5 -91.5
t-84.5 -58.5v-6q63 -14 100 -59.5t37 -107.5q0 -104 -81.5 -157.5t-242.5 -53.5q-168 0 -248.5 57.5z" />
    <glyph glyph-name="uni0418" unicode="&#x418;" horiz-adv-x="841" 
d="M276 0h-202v700h200v-401h6l285 401h202v-700h-200v401h-6z" />
    <glyph glyph-name="uni0419" unicode="&#x419;" horiz-adv-x="841" 
d="M276 0h-202v700h200v-401h6l285 401h202v-700h-200v401h-6zM261.5 806.5q-54.5 42.5 -54.5 124.5h120q0 -31 25 -48.5t68 -17.5t68.5 17.5t25.5 48.5h120q0 -82 -55 -124.5t-159 -42.5t-158.5 42.5z" />
    <glyph glyph-name="uni041A" unicode="&#x41a;" horiz-adv-x="749" 
d="M480 361l283 -361h-238l-251 333v-333h-200v700h200v-325l245 325h225z" />
    <glyph glyph-name="uni041B" unicode="&#x41b;" horiz-adv-x="818" 
d="M15 -7v172q15 -4 34 -4q38 0 55.5 21.5t20.5 71.5l32 446h587v-700h-200v535h-204l-23 -317q-8 -123 -59.5 -179.5t-159.5 -56.5q-50 0 -83 11z" />
    <glyph glyph-name="uni041C" unicode="&#x41c;" horiz-adv-x="1012" 
d="M265 0h-191v700h241l188 -327h6l184 327h245v-700h-191v442h-6l-168 -289h-134l-168 289h-6v-442z" />
    <glyph glyph-name="uni041D" unicode="&#x41d;" horiz-adv-x="836" 
d="M562 443v257h200v-700h-200v278h-288v-278h-200v700h200v-257h288z" />
    <glyph glyph-name="uni041E" unicode="&#x41e;" horiz-adv-x="846" 
d="M222 31.5q-87 45.5 -135 128t-48 190.5t48 190.5t135 128t201 45.5t201 -45.5t135 -128t48 -190.5t-48 -190.5t-135 -128t-201 -45.5t-201 45.5zM547.5 208.5q46.5 52.5 46.5 141.5t-46.5 141.5t-124.5 52.5t-124 -52t-46 -142t46 -142t124 -52t124.5 52.5z" />
    <glyph glyph-name="uni041F" unicode="&#x41f;" horiz-adv-x="829" 
d="M274 0h-200v700h681v-700h-200v535h-281v-535z" />
    <glyph glyph-name="uni0420" unicode="&#x420;" horiz-adv-x="746" 
d="M387 700q158 0 237 -65t79 -197t-79 -196.5t-237 -64.5h-113v-177h-200v700h313zM383 342q54 0 82 24.5t28 71.5q0 48 -28 72.5t-82 24.5h-109v-193h109z" />
    <glyph glyph-name="uni0421" unicode="&#x421;" horiz-adv-x="804" 
d="M217.5 31.5q-85.5 45.5 -132 128t-46.5 190.5t46.5 190.5t132 128t197.5 45.5q99 0 175 -34t121.5 -96t56.5 -144h-209q-10 48 -49 76t-95 28q-74 0 -118 -52t-44 -142t44 -142t118 -52q57 0 95 26.5t50 74.5h210q-11 -81 -56.5 -142.5t-122 -95t-176.5 -33.5
q-112 0 -197.5 45.5z" />
    <glyph glyph-name="uni0422" unicode="&#x422;" horiz-adv-x="697" 
d="M448 0h-200v535h-232v165h665v-165h-233v-535z" />
    <glyph glyph-name="uni0423" unicode="&#x423;" horiz-adv-x="693" 
d="M513 700h202l-238 -497q-37 -77 -74.5 -123.5t-88 -70t-121.5 -23.5q-52 0 -90 11v155q39 -10 71 -10q74 0 105 55l-291 503h215l166 -312h5z" />
    <glyph glyph-name="uni0424" unicode="&#x424;" horiz-adv-x="973" 
d="M852.5 135.5q-91.5 -75.5 -269.5 -79.5v-66h-193v66q-178 4 -269.5 79.5t-91.5 214.5t91.5 214.5t269.5 79.5v66h193v-66q178 -4 269.5 -79.5t91.5 -214.5t-91.5 -214.5zM390 221v258q-151 -7 -151 -129t151 -129zM583 221q151 7 151 129t-151 129v-258z" />
    <glyph glyph-name="uni0425" unicode="&#x425;" horiz-adv-x="742" 
d="M219 0h-221l236 362l-213 338h219l128 -218h6l128 218h219l-213 -338l236 -362h-222l-149 238h-6z" />
    <glyph glyph-name="uni0426" unicode="&#x426;" horiz-adv-x="867" 
d="M858 -170h-200v170h-584v700h200v-535h261v535h200v-535h123v-335z" />
    <glyph glyph-name="uni0427" unicode="&#x427;" horiz-adv-x="787" 
d="M513 700h200v-700h-200v220q-62 -23 -152 -23q-154 0 -227 73.5t-73 231.5v198h200v-193q0 -74 32 -107t102 -33q62 0 118 25v308z" />
    <glyph glyph-name="uni0428" unicode="&#x428;" horiz-adv-x="1105" 
d="M1031 0h-957v700h200v-535h179v535h200v-535h178v535h200v-700z" />
    <glyph glyph-name="uni0429" unicode="&#x429;" horiz-adv-x="1163" 
d="M1154 -170h-200v170h-880v700h200v-535h179v535h200v-535h178v535h200v-535h123v-335z" />
    <glyph glyph-name="uni042A" unicode="&#x42a;" horiz-adv-x="805" 
d="M457 495q311 0 311 -248q0 -247 -311 -247h-289v535h-169v165h369v-205h89zM455 165q103 0 103 82t-103 82h-87v-164h87z" />
    <glyph glyph-name="uni042B" unicode="&#x42b;" horiz-adv-x="1009" 
d="M358 495q310 0 310 -248q0 -247 -310 -247h-284v700h200v-205h84zM735 0v700h200v-700h-200zM356 165q50 0 76 21t26 61q0 82 -102 82h-82v-164h82z" />
    <glyph glyph-name="uni042C" unicode="&#x42c;" horiz-adv-x="721" 
d="M373 495q310 0 310 -248q0 -247 -310 -247h-299v700h200v-205h99zM371 165q102 0 102 83q0 81 -102 81h-97v-164h97z" />
    <glyph glyph-name="uni042D" unicode="&#x42d;" horiz-adv-x="804" 
d="M589.5 668.5q83.5 -45.5 129.5 -128t46 -190.5t-46 -190.5t-129.5 -128t-193.5 -45.5q-102 0 -180 33.5t-124.5 94.5t-57.5 143h209q13 -49 52.5 -75t100.5 -26q57 0 95.5 33.5t52.5 94.5h-215v140h213q-15 57 -53 88.5t-93 31.5q-60 0 -100.5 -28t-51.5 -76h-208
q10 82 56.5 144t124 96t179.5 34q110 0 193.5 -45.5z" />
    <glyph glyph-name="uni042E" unicode="&#x42e;" horiz-adv-x="1112" 
d="M897.5 668.5q83.5 -45.5 129.5 -128.5t46 -190t-46 -190t-129.5 -128.5t-190.5 -45.5q-96 0 -173 36t-126 101.5t-64 153.5h-70v-277h-200v700h200v-259h73q18 83 67.5 144.5t124.5 95t168 33.5q107 0 190.5 -45.5zM820 208q43 52 43 142t-43 142t-117 52t-117 -52
t-43 -142t43 -142t117 -52t117 52z" />
    <glyph glyph-name="uni042F" unicode="&#x42f;" horiz-adv-x="781" 
d="M707 700v-700h-200v208h-111l-130 -208h-223l154 245q-50 20 -84.5 74t-34.5 140q0 116 77 178.5t224 62.5h328zM507 373v162h-126q-45 0 -69 -21t-24 -60q0 -40 24 -60.5t68 -20.5h127z" />
    <glyph glyph-name="uni0430" unicode="&#x430;" horiz-adv-x="657" 
d="M83 27q-55 41 -55 116t59.5 115t154.5 40q47 0 90.5 -9t70.5 -24v65q0 65 -84 65q-39 0 -61.5 -13t-22.5 -37h-182q0 84 70 133t197 49q125 0 194.5 -51t69.5 -149v-126q0 -30 6 -41t21 -11q11 0 17 3v-146q-28 -15 -79 -15q-97 0 -126 73h-6q-27 -36 -77 -57t-112 -21
q-90 0 -145 41zM358 122.5q28 6.5 45 17.5v39q-17 7 -46.5 11.5t-58.5 4.5q-43 0 -65.5 -9t-22.5 -30q0 -40 88 -40q32 0 60 6.5z" />
    <glyph glyph-name="uni0431" unicode="&#x431;" horiz-adv-x="666" 
d="M518 427q53 -28 82 -79t29 -118q0 -117 -76.5 -183t-211.5 -66q-143 0 -219 85t-76 243q0 160 67 243.5t211 97.5q57 5 82 16.5t25 33.5h188q0 -66 -24 -105t-78.5 -60t-150.5 -30q-69 -6 -101.5 -32t-37.5 -75q29 27 73 42t96 15q69 0 122 -28zM414.5 156
q28.5 27 28.5 72q0 47 -29 75t-77 28t-76.5 -28t-28.5 -75q0 -45 28.5 -72t76.5 -27q49 0 77.5 27z" />
    <glyph glyph-name="uni0432" unicode="&#x432;" horiz-adv-x="641" 
d="M493 260q50 -11 80 -45t30 -83q0 -65 -44 -98.5t-127 -33.5h-366v509h352q77 0 118.5 -35t41.5 -95q0 -42 -23 -71.5t-62 -42.5v-5zM248 384v-72h97q47 0 47 37q0 35 -47 35h-97zM364 125q53 0 53 40t-53 40h-116v-80h116z" />
    <glyph glyph-name="uni0433" unicode="&#x433;" horiz-adv-x="521" 
d="M248 0h-182v509h445v-157h-263v-352z" />
    <glyph glyph-name="uni0434" unicode="&#x434;" horiz-adv-x="699" 
d="M598 157h85v-292h-182v135h-309v-135h-181v292h18q33 0 50 19t21 66l20 267h478v-352zM233 149h183v218h-136l-9 -138q-4 -56 -38 -74v-6z" />
    <glyph glyph-name="uni0435" unicode="&#x435;" horiz-adv-x="656" 
d="M620 210h-400q9 -47 38 -71t73 -24q71 0 93 48h189q-16 -78 -86 -130t-190 -52q-90 0 -158 33.5t-105.5 95t-37.5 144.5t37.5 145t105 95t153.5 33q85 0 151 -31.5t103.5 -92.5t37.5 -147q0 -31 -4 -46zM259.5 371.5q-28.5 -22.5 -38.5 -66.5h214q-4 41 -32 65t-72 24
q-43 0 -71.5 -22.5z" />
    <glyph glyph-name="uni0436" unicode="&#x436;" horiz-adv-x="904" 
d="M711 268l207 -268h-211l-168 234v-234h-174v234l-168 -234h-211l207 268l-177 241h194l155 -226v226h174v-226l155 226h194z" />
    <glyph glyph-name="uni0437" unicode="&#x437;" horiz-adv-x="621" 
d="M100.5 30q-69.5 49 -69.5 138h183q0 -23 23.5 -36.5t68.5 -13.5t68 12t23 34q0 21 -20 31t-66 10h-57v107h57q37 0 53.5 9t16.5 28t-19 30t-56 11q-40 0 -63 -14.5t-23 -33.5h-183q0 86 72 135.5t207 49.5q116 0 183.5 -39t67.5 -109q0 -43 -24.5 -71.5t-68.5 -40.5v-6
q53 -10 81 -42.5t28 -81.5q0 -77 -70 -116.5t-197 -39.5q-146 0 -215.5 49z" />
    <glyph glyph-name="uni0438" unicode="&#x438;" horiz-adv-x="702" 
d="M247 0h-181v509h178v-269h6l205 269h180v-509h-177v268h-6z" />
    <glyph glyph-name="uni0439" unicode="&#x439;" horiz-adv-x="702" 
d="M247 0h-181v509h178v-269h6l205 269h180v-509h-177v268h-6zM191.5 622.5q-54.5 42.5 -54.5 124.5h120q0 -32 25 -51t68 -19q44 0 69 19t25 51h120q0 -82 -55 -124.5t-159 -42.5t-158.5 42.5z" />
    <glyph glyph-name="uni043A" unicode="&#x43a;" horiz-adv-x="634" 
d="M425 268l218 -268h-211l-184 240v-240h-182v509h182v-232l172 232h194z" />
    <glyph glyph-name="uni043B" unicode="&#x43b;" horiz-adv-x="667" 
d="M15 -10v156q14 -3 26 -3q27 0 39 14t14 50l21 302h486v-509h-182v352h-141l-14 -199q-6 -87 -49.5 -129.5t-125.5 -42.5q-42 0 -74 9z" />
    <glyph glyph-name="uni043C" unicode="&#x43c;" horiz-adv-x="844" 
d="M244 0h-178v509h210l143 -241h5l142 241h212v-509h-178v290h-6l-120 -195h-104l-120 195h-6v-290z" />
    <glyph glyph-name="uni043D" unicode="&#x43d;" horiz-adv-x="683" 
d="M435 338v171h182v-509h-182v182h-187v-182h-182v509h182v-171h187z" />
    <glyph glyph-name="uni043E" unicode="&#x43e;" horiz-adv-x="661" 
d="M178.5 14q-66.5 33 -104.5 95t-38 145t38 145t104.5 95t151.5 33t152 -33t105 -95t38 -145t-38 -145t-105 -95t-152 -33t-151.5 33zM409 165.5q29 31.5 29 88.5t-28.5 88.5t-79.5 31.5q-50 0 -78.5 -31.5t-28.5 -88.5t28.5 -88.5t78.5 -31.5t79 31.5z" />
    <glyph glyph-name="uni043F" unicode="&#x43f;" horiz-adv-x="682" 
d="M248 0h-182v509h549v-509h-181v352h-186v-352z" />
    <glyph glyph-name="uni0440" unicode="&#x440;" horiz-adv-x="698" 
d="M66 -200v707h166v-71h5q25 41 71.5 63.5t108.5 22.5q70 0 126 -33t87.5 -94.5t31.5 -141.5t-31.5 -141.5t-86.5 -94.5t-125 -33q-54 0 -97 20t-69 56h-5v-260h-182zM440.5 171.5q31.5 31.5 31.5 81.5t-31.5 81.5t-80.5 31.5t-80.5 -31t-31.5 -82t31.5 -82t80.5 -31
t80.5 31.5z" />
    <glyph glyph-name="uni0441" unicode="&#x441;" horiz-adv-x="651" 
d="M181 14.5q-68 33.5 -106.5 95.5t-38.5 144q0 83 38.5 145t106.5 95t155 33q80 0 143 -27.5t99 -77t36 -112.5h-184q-18 64 -98 64q-51 0 -82 -31t-31 -89t31 -89t82 -31q43 0 69.5 17.5t33.5 51.5h184q0 -64 -37 -114.5t-101.5 -79t-145.5 -28.5q-86 0 -154 33.5z" />
    <glyph glyph-name="uni0442" unicode="&#x442;" horiz-adv-x="583" 
d="M382 0h-182v352h-180v157h543v-157h-181v-352z" />
    <glyph glyph-name="uni0443" unicode="&#x443;" horiz-adv-x="633" 
d="M443 509h189l-209 -495q-34 -80 -68.5 -128.5t-82.5 -74t-118 -25.5q-43 0 -80 9v153q29 -9 58 -9q40 0 65 16t39 49l6 14l-246 491h191l138 -306h6z" />
    <glyph glyph-name="uni0444" unicode="&#x444;" horiz-adv-x="837" 
d="M721.5 62.5q-78.5 -70.5 -212.5 -76.5v-186h-181v186q-135 6 -213.5 76.5t-78.5 191.5q0 79 36.5 138.5t102.5 93t153 37.5v177h181v-177q87 -4 152.5 -37.5t102 -93t36.5 -138.5q0 -121 -78.5 -191.5zM247.5 162.5q28.5 -32.5 80.5 -37.5v258q-51 -5 -80 -39t-29 -90
q0 -59 28.5 -91.5zM509 125q52 5 80.5 37.5t28.5 91.5q0 56 -29 90t-80 39v-258z" />
    <glyph glyph-name="uni0445" unicode="&#x445;" horiz-adv-x="621" 
d="M200 0h-204l179 258l-155 251h199l90 -164h5l88 164h200l-155 -251l178 -258h-204l-108 166h-6z" />
    <glyph glyph-name="uni0446" unicode="&#x446;" horiz-adv-x="706" 
d="M690 -135h-181v135h-443v509h182v-352h176v352h181v-352h85v-292z" />
    <glyph glyph-name="uni0447" unicode="&#x447;" horiz-adv-x="654" 
d="M406 509h182v-509h-182v152q-61 -18 -127 -18q-117 0 -172.5 59t-55.5 183v133h182v-132q0 -46 21 -68t66 -22q48 0 86 17v205z" />
    <glyph glyph-name="uni0448" unicode="&#x448;" horiz-adv-x="919" 
d="M852 0h-786v509h182v-352h121v352h181v-352h121v352h181v-509z" />
    <glyph glyph-name="uni0449" unicode="&#x449;" horiz-adv-x="953" 
d="M937 -135h-181v135h-690v509h182v-352h121v352h181v-352h121v352h181v-352h85v-292z" />
    <glyph glyph-name="uni044A" unicode="&#x44a;" horiz-adv-x="651" 
d="M393 366q110 0 167 -45.5t57 -134.5q0 -91 -57 -138.5t-167 -47.5h-256v378h-141v131h319v-143h78zM362 128q34 0 51.5 15t17.5 43q0 27 -17.5 41.5t-51.5 14.5h-47v-114h47z" />
    <glyph glyph-name="uni044B" unicode="&#x44b;" horiz-adv-x="853" 
d="M318 366q110 0 167 -45.5t57 -134.5q0 -91 -57 -138.5t-167 -47.5h-252v509h178v-143h74zM606 0v509h181v-509h-181zM286 128q69 0 69 58q0 27 -17.5 41.5t-51.5 14.5h-42v-114h42z" />
    <glyph glyph-name="uni044C" unicode="&#x44c;" horiz-adv-x="591" 
d="M333 366q110 0 167 -45.5t57 -134.5q0 -91 -57 -138.5t-167 -47.5h-267v509h178v-143h89zM301 128q69 0 69 58q0 27 -17.5 41.5t-51.5 14.5h-57v-114h57z" />
    <glyph glyph-name="uni044D" unicode="&#x44d;" horiz-adv-x="651" 
d="M473 494q67 -33 104 -95t37 -145t-37 -145t-104 -95t-154 -33q-81 0 -145.5 28.5t-102.5 79t-40 114.5h184q8 -35 37.5 -53.5t70.5 -18.5q83 0 105 70h-155v100h157q-10 38 -37.5 57.5t-69.5 19.5q-39 0 -66.5 -17t-36.5 -51h-184q2 63 39.5 112.5t101 77t143.5 27.5
q86 0 153 -33z" />
    <glyph glyph-name="uni044E" unicode="&#x44e;" horiz-adv-x="877" 
d="M707 494q62 -33 97.5 -94.5t35.5 -145.5q0 -83 -35.5 -145t-97.5 -95t-141 -33q-102 0 -174 54t-93 149h-51v-184h-182v509h182v-177h53q22 92 93.5 143.5t171.5 51.5q79 0 141 -33zM643 166q29 32 29 88t-29 88t-77 32t-77 -32t-29 -88t29 -88t77 -32t77 32z" />
    <glyph glyph-name="uni044F" unicode="&#x44f;" horiz-adv-x="645" 
d="M579 509v-509h-181v151h-72l-93 -151h-204l116 173q-39 19 -65.5 61.5t-26.5 96.5q0 86 54.5 132t167.5 46h304zM398 281v98h-91q-36 0 -52 -11.5t-16 -37.5t16 -37.5t52 -11.5h91z" />
    <glyph glyph-name="uni0450" unicode="&#x450;" horiz-adv-x="656" 
d="M620 210h-400q9 -47 38 -71t73 -24q71 0 93 48h189q-16 -78 -86 -130t-190 -52q-90 0 -158 33.5t-105.5 95t-37.5 144.5t37.5 145t105 95t153.5 33q85 0 151 -31.5t103.5 -92.5t37.5 -147q0 -31 -4 -46zM259.5 371.5q-28.5 -22.5 -38.5 -66.5h214q-4 41 -32 65t-72 24
q-43 0 -71.5 -22.5zM398 580h-118l-131 187h169z" />
    <glyph glyph-name="uni0451" unicode="&#x451;" horiz-adv-x="656" 
d="M620 210h-400q9 -47 38 -71t73 -24q71 0 93 48h189q-16 -78 -86 -130t-190 -52q-90 0 -158 33.5t-105.5 95t-37.5 144.5t37.5 145t105 95t153.5 33q85 0 151 -31.5t103.5 -92.5t37.5 -147q0 -31 -4 -46zM259.5 371.5q-28.5 -22.5 -38.5 -66.5h214q-4 41 -32 65t-72 24
q-43 0 -71.5 -22.5zM141 597q-26 25 -26 64q0 38 26.5 63.5t66.5 25.5t67 -25.5t27 -63.5t-27 -63.5t-67 -25.5q-41 0 -67 25zM391 597q-26 25 -26 64q0 38 26.5 63.5t66.5 25.5t67 -25.5t27 -63.5q0 -39 -26.5 -64t-67.5 -25t-67 25z" />
    <glyph glyph-name="uni0452" unicode="&#x452;" horiz-adv-x="717" 
d="M600.5 420.5q54.5 -57.5 54.5 -158.5v-249q0 -111 -60 -169t-173 -58q-47 0 -85 9v150q24 -6 50 -6q45 0 66 21t21 73v163q0 53 -26.5 83t-74.5 30q-51 0 -80.5 -30.5t-29.5 -82.5v-196h-182v517h-80v117h80v66h178v-66h183v-117h-183v-131h6q24 42 73 67t111 25
q97 0 151.5 -57.5z" />
    <glyph glyph-name="uni0453" unicode="&#x453;" horiz-adv-x="521" 
d="M248 0h-182v509h445v-157h-263v-352zM341 580h-118l81 187h168z" />
    <glyph glyph-name="uni0454" unicode="&#x454;" horiz-adv-x="651" 
d="M619 203q0 -64 -36.5 -114.5t-101 -79t-146.5 -28.5q-86 0 -154 33t-106.5 95t-38.5 145t38.5 145t106.5 95t154 33q81 0 144.5 -27.5t99 -77t35.5 -112.5h-184q-18 64 -98 64q-39 0 -67 -18.5t-39 -54.5h152v-100h-150q12 -33 39.5 -50t64.5 -17q42 0 69 17.5t34 51.5
h184z" />
    <glyph glyph-name="uni0455" unicode="&#x455;" horiz-adv-x="613" 
d="M105.5 28q-71.5 47 -71.5 132h190q0 -24 23.5 -39.5t65.5 -15.5q89 0 89 42q0 22 -28 31t-89 17q-73 9 -120 21.5t-82 46.5t-35 96q0 52 32.5 90t90.5 58t133 20q83 0 143 -22.5t91 -61.5t31 -89h-190q0 22 -19 36t-55 14q-35 0 -54.5 -11t-19.5 -31q0 -23 29 -33t92 -18
q71 -10 117.5 -23.5t80.5 -46t34 -90.5q0 -84 -70 -127t-203 -43q-134 0 -205.5 47z" />
    <glyph glyph-name="uni0456" unicode="&#x456;" horiz-adv-x="324" 
d="M253 0h-182v509h182v-509zM91.5 598q-27.5 26 -27.5 67t27.5 67t70.5 26t70.5 -26t27.5 -67t-27.5 -67t-70.5 -26t-70.5 26z" />
    <glyph glyph-name="uni0457" unicode="&#x457;" horiz-adv-x="324" 
d="M253 0h-182v509h182v-509zM-30 597q-26 25 -26 64q0 38 26.5 63.5t66.5 25.5t67 -25.5t27 -63.5t-27 -63.5t-67 -25.5q-41 0 -67 25zM220 597q-26 25 -26 64q0 38 26.5 63.5t66.5 25.5t67 -25.5t27 -63.5q0 -39 -26.5 -64t-67.5 -25t-67 25z" />
    <glyph glyph-name="uni0458" unicode="&#x458;" horiz-adv-x="334" 
d="M-55 -204v149q23 -6 50 -6q44 0 65 21t21 73v476h182v-496q0 -111 -60 -169t-174 -58q-50 0 -84 10zM101.5 598q-27.5 26 -27.5 67t27.5 67t70.5 26t70.5 -26t27.5 -67t-27.5 -67t-70.5 -26t-70.5 26z" />
    <glyph glyph-name="uni0459" unicode="&#x459;" horiz-adv-x="906" 
d="M651 358q107 0 164 -45.5t57 -132.5q0 -88 -57.5 -134t-163.5 -46h-249v352h-124l-14 -199q-6 -87 -49.5 -129.5t-125.5 -42.5q-42 0 -74 9v156q14 -3 26 -3q27 0 39 14t14 50l21 302h468v-151h68zM620 128q66 0 66 54q0 25 -16.5 38.5t-49.5 13.5h-41v-106h41z" />
    <glyph glyph-name="uni045A" unicode="&#x45a;" horiz-adv-x="921" 
d="M665 358q108 0 165 -45.5t57 -132.5q0 -88 -57.5 -134t-164.5 -46h-249v210h-168v-210h-182v509h182v-151h168v151h182v-151h67zM635 130q65 0 65 53q0 51 -65 51h-41v-104h41z" />
    <glyph glyph-name="uni045B" unicode="&#x45b;" horiz-adv-x="717" 
d="M600.5 420.5q54.5 -57.5 54.5 -158.5v-262h-181v196q0 53 -26.5 83t-74.5 30q-51 0 -80.5 -30.5t-29.5 -82.5v-196h-182v518h-80v116h80v66h182v-66h179v-116h-179v-129h5q24 40 72 64.5t109 24.5q97 0 151.5 -57.5z" />
    <glyph glyph-name="uni045C" unicode="&#x45c;" horiz-adv-x="634" 
d="M425 268l218 -268h-211l-184 240v-240h-182v509h182v-232l172 232h194zM388 580h-118l81 187h168z" />
    <glyph glyph-name="uni045D" unicode="&#x45d;" horiz-adv-x="702" 
d="M247 0h-181v509h178v-269h6l205 269h180v-509h-177v268h-6zM415 580h-118l-131 187h169z" />
    <glyph glyph-name="uni045E" unicode="&#x45e;" horiz-adv-x="633" 
d="M443 509h189l-209 -495q-34 -80 -68.5 -128.5t-82.5 -74t-118 -25.5q-43 0 -80 9v153q29 -9 58 -9q40 0 65 16t39 49l6 14l-246 491h191l138 -306h6zM156.5 622q-54.5 42 -54.5 124h120q0 -28 24 -44t69 -16t69.5 16t24.5 44h120q0 -82 -55 -124t-159 -42t-158.5 42z" />
    <glyph glyph-name="uni045F" unicode="&#x45f;" horiz-adv-x="682" 
d="M432 -135h-182v135h-184v509h182v-352h186v352h181v-509h-183v-135z" />
    <glyph glyph-name="uni0490" unicode="&#x490;" horiz-adv-x="652" 
d="M274 0h-200v700h367v155h196v-320h-363v-535z" />
    <glyph glyph-name="uni0491" unicode="&#x491;" horiz-adv-x="521" 
d="M248 0h-182v509h267v125h178v-282h-263v-352z" />
    <glyph glyph-name="uni0492" unicode="&#x492;" horiz-adv-x="662" 
d="M647 700v-165h-363v-170h253v-141h-253v-224h-200v224h-80v141h80v335h563z" />
    <glyph glyph-name="uni0493" unicode="&#x493;" horiz-adv-x="531" 
d="M521 509v-157h-263v-94h178v-121h-178v-137h-182v137h-80v121h80v251h445z" />
    <glyph glyph-name="uni0496" unicode="&#x496;" horiz-adv-x="1102" 
d="M229 0h-238l249 362l-230 338h225l206 -319v319h200v-319l207 319h224l-230 -338l137 -197h140v-335h-198v170h-67l-213 328v-328h-200v328z" />
    <glyph glyph-name="uni0497" unicode="&#x497;" horiz-adv-x="934" 
d="M942 -135h-182v135h-53l-168 233v-233h-174v233l-168 -233h-211l208 268l-178 241h194l155 -225v225h174v-225l155 225h194l-178 -241l88 -111h144v-292z" />
    <glyph glyph-name="uni0498" unicode="&#x498;" horiz-adv-x="725" 
d="M460 -8v-162h-184v160q-124 14 -183 70.5t-59 156.5h209q0 -35 31 -54t87 -19q116 0 116 73q0 37 -26.5 55t-85.5 18h-77v134h77q89 0 89 66q0 31 -23.5 48.5t-69.5 17.5q-50 0 -80 -19.5t-30 -51.5h-209q0 106 85 167.5t240 61.5q143 0 220 -50.5t77 -143.5
q0 -53 -29.5 -91.5t-84.5 -58.5v-6q63 -14 100 -59.5t37 -107.5q0 -175 -227 -205z" />
    <glyph glyph-name="uni0499" unicode="&#x499;" horiz-adv-x="621" 
d="M538 38.5q-45 -37.5 -128 -50.5v-138h-174v135q-104 13 -154.5 60t-50.5 123h183q0 -23 23.5 -36.5t68.5 -13.5t68 12t23 34q0 21 -20 31t-66 10h-57v107h57q37 0 53.5 9t16.5 28t-19 30t-56 11q-40 0 -63 -14.5t-23 -33.5h-183q0 86 72 135.5t207 49.5q116 0 183.5 -39
t67.5 -109q0 -43 -24.5 -71.5t-68.5 -40.5v-6q53 -10 81 -42.5t28 -81.5q0 -61 -45 -98.5z" />
    <glyph glyph-name="uni049A" unicode="&#x49a;" horiz-adv-x="769" 
d="M274 0h-200v700h200v-324l245 324h225l-264 -338l155 -197h155v-335h-199v170h-66l-251 332v-332z" />
    <glyph glyph-name="uni049B" unicode="&#x49b;" horiz-adv-x="656" 
d="M667 -135h-181v135h-54l-184 240v-240h-182v509h182v-232l172 232h194l-190 -241l93 -111h150v-292z" />
    <glyph glyph-name="uni04A0" unicode="&#x4a0;" horiz-adv-x="843" 
d="M574 361l283 -361h-238l-251 333v-333h-200v535h-169v165h369v-325l245 325h225z" />
    <glyph glyph-name="uni04A1" unicode="&#x4a1;" horiz-adv-x="705" 
d="M496 267l217 -267h-210l-185 241v-241h-181v378h-141v131h322v-233l172 233h194z" />
    <glyph glyph-name="uni04A2" unicode="&#x4a2;" horiz-adv-x="892" 
d="M762 700v-535h121v-335h-199v170h-122v278h-288v-278h-200v700h200v-257h288v257h200z" />
    <glyph glyph-name="uni04A3" unicode="&#x4a3;" horiz-adv-x="717" 
d="M617 509v-352h85v-292h-182v135h-85v182h-187v-182h-182v509h182v-171h187v171h182z" />
    <glyph glyph-name="uni04AA" unicode="&#x4aa;" horiz-adv-x="804" 
d="M770 257q-14 -100 -78 -168t-170 -92v-167h-184v162q-91 15 -158.5 63.5t-104 124t-36.5 170.5q0 108 46.5 190.5t132 128t197.5 45.5q99 0 175 -34t121.5 -96t56.5 -144h-209q-10 48 -49 76t-95 28q-74 0 -118 -52t-44 -142t44 -142t118 -52q57 0 95 26.5t50 74.5h210z
" />
    <glyph glyph-name="uni04AB" unicode="&#x4ab;" horiz-adv-x="651" 
d="M619 203q-1 -78 -54 -135t-141 -77v-141h-174v140q-97 22 -155.5 92t-58.5 172q0 83 38.5 145t106.5 95t155 33q80 0 143 -27.5t99 -77t36 -112.5h-184q-18 64 -98 64q-51 0 -82 -31t-31 -89t31 -89t82 -31q43 0 69.5 17.5t33.5 51.5h184z" />
    <glyph glyph-name="uni04AE" unicode="&#x4ae;" horiz-adv-x="711" 
d="M456 0h-201v235l-261 465h217l142 -288h5l146 288h213l-261 -465v-235z" />
    <glyph glyph-name="uni04AF" unicode="&#x4af;" horiz-adv-x="616" 
d="M399 -200h-181v200l-215 509h192l112 -309h6l113 309h188l-215 -509v-200z" />
    <glyph glyph-name="uni04B0" unicode="&#x4b0;" horiz-adv-x="711" 
d="M504 700h213l-220 -392h140v-148h-181v-160h-201v160h-182v148h141l-220 392h217l142 -288h5z" />
    <glyph glyph-name="uni04B1" unicode="&#x4b1;" horiz-adv-x="616" 
d="M426 509h188l-161 -381h101v-128h-155v-200h-181v200h-157v128h103l-161 381h192l112 -309h6z" />
    <glyph glyph-name="uni04B2" unicode="&#x4b2;" horiz-adv-x="762" 
d="M788 -170h-199v170h-67l-149 238h-6l-148 -238h-221l236 362l-213 338h219l128 -218h6l128 218h219l-213 -338l129 -197h151v-335z" />
    <glyph glyph-name="uni04B3" unicode="&#x4b3;" horiz-adv-x="636" 
d="M656 -135h-182v135h-53l-108 166h-6l-107 -166h-204l179 258l-155 251h199l90 -164h5l88 164h200l-155 -251l70 -101h139v-292z" />
    <glyph glyph-name="uni04B6" unicode="&#x4b6;" horiz-adv-x="843" 
d="M713 165h121v-335h-198v170h-123v220q-66 -23 -152 -23q-154 0 -227 73.5t-73 231.5v198h200v-193q0 -74 32 -107t102 -33q62 0 118 25v308h200v-535z" />
    <glyph glyph-name="uni04B7" unicode="&#x4b7;" horiz-adv-x="688" 
d="M588 157h85v-292h-182v135h-85v152q-61 -18 -127 -18q-117 0 -172.5 59t-55.5 183v133h182v-132q0 -46 21 -68t66 -22q46 0 86 18v204h182v-352z" />
    <glyph glyph-name="uni04BA" unicode="&#x4ba;" horiz-adv-x="782" 
d="M653.5 429q73.5 -74 73.5 -231v-198h-200v193q0 74 -32 107t-102 33q-64 0 -119 -26v-307h-200v700h200v-220q62 23 153 23q153 0 226.5 -74z" />
    <glyph glyph-name="uni04BB" unicode="&#x4bb;" horiz-adv-x="707" 
d="M71 0v700h182v-267h5q23 40 71 65t110 25q97 0 151.5 -57.5t54.5 -159.5v-306h-181v241q0 52 -26.5 82.5t-74.5 30.5q-51 0 -80.5 -30.5t-29.5 -82.5v-241h-182z" />
    <glyph glyph-name="uni04C0" unicode="&#x4c0;" horiz-adv-x="368" 
d="M284 0h-200v700h200v-700z" />
    <glyph glyph-name="uni04CF" unicode="&#x4cf;" horiz-adv-x="324" 
d="M253 0h-182v700h182v-700z" />
    <glyph glyph-name="uni04D0" unicode="&#x4d0;" horiz-adv-x="800" 
d="M806 0h-211l-41 108h-312l-41 -108h-207l283 700h245zM395 505l-94 -244h194l-94 244h-6zM240.5 806.5q-54.5 42.5 -54.5 124.5h120q0 -31 25 -48.5t68 -17.5t68.5 17.5t25.5 48.5h120q0 -82 -55 -124.5t-159 -42.5t-158.5 42.5z" />
    <glyph glyph-name="uni04D1" unicode="&#x4d1;" horiz-adv-x="657" 
d="M83 27q-55 41 -55 116t59.5 115t154.5 40q47 0 90.5 -9t70.5 -24v65q0 65 -84 65q-39 0 -61.5 -13t-22.5 -37h-182q0 84 70 133t197 49q125 0 194.5 -51t69.5 -149v-126q0 -30 6 -41t21 -11q11 0 17 3v-146q-28 -15 -79 -15q-97 0 -126 73h-6q-27 -36 -77 -57t-112 -21
q-90 0 -145 41zM358 122.5q28 6.5 45 17.5v39q-17 7 -46.5 11.5t-58.5 4.5q-43 0 -65.5 -9t-22.5 -30q0 -40 88 -40q32 0 60 6.5zM165.5 622.5q-54.5 42.5 -54.5 124.5h120q0 -32 25 -51t68 -19q44 0 69 19t25 51h120q0 -82 -55 -124.5t-159 -42.5t-158.5 42.5z" />
    <glyph glyph-name="uni04D6" unicode="&#x4d6;" horiz-adv-x="716" 
d="M669 700v-157h-395v-113h340v-148h-340v-125h395v-157h-595v700h595zM217.5 806.5q-54.5 42.5 -54.5 124.5h120q0 -31 25 -48.5t68 -17.5t68.5 17.5t25.5 48.5h120q0 -82 -55 -124.5t-159 -42.5t-158.5 42.5z" />
    <glyph glyph-name="uni04D7" unicode="&#x4d7;" horiz-adv-x="656" 
d="M620 210h-400q9 -47 38 -71t73 -24q71 0 93 48h189q-16 -78 -86 -130t-190 -52q-90 0 -158 33.5t-105.5 95t-37.5 144.5t37.5 145t105 95t153.5 33q85 0 151 -31.5t103.5 -92.5t37.5 -147q0 -31 -4 -46zM259.5 371.5q-28.5 -22.5 -38.5 -66.5h214q-4 41 -32 65t-72 24
q-43 0 -71.5 -22.5zM174.5 622.5q-54.5 42.5 -54.5 124.5h120q0 -32 25 -51t68 -19q44 0 69 19t25 51h120q0 -82 -55 -124.5t-159 -42.5t-158.5 42.5z" />
    <glyph glyph-name="uni04D8" unicode="&#x4d8;" horiz-adv-x="836" 
d="M615.5 669q86.5 -45 134 -127.5t47.5 -191.5t-47.5 -191.5t-134.5 -127.5t-202 -45q-111 0 -196 45.5t-132 128t-47 190.5q0 27 3 48h539q-10 71 -52 108.5t-111 37.5q-87 0 -130 -59h-232q39 105 135.5 167t225.5 62q113 0 199.5 -45zM520.5 187q40.5 31 54.5 90h-317
q13 -58 54.5 -89.5t103.5 -31.5q64 0 104.5 31z" />
    <glyph glyph-name="uni04D9" unicode="&#x4d9;" horiz-adv-x="656" 
d="M476 494q68 -33 105.5 -95t37.5 -145t-37.5 -145t-105 -95t-153.5 -33q-85 0 -151 31.5t-103.5 92.5t-37.5 147q0 25 4 47h401q-10 47 -38.5 71t-72.5 24q-71 0 -94 -48h-188q9 49 42.5 90t92.5 66t140 25q90 0 158 -33zM396 137q29 22 39 67h-215q3 -41 31 -65t74 -24
q42 0 71 22z" />
    <glyph glyph-name="uni04E2" unicode="&#x4e2;" horiz-adv-x="841" 
d="M276 0h-202v700h200v-401h6l285 401h202v-700h-200v401h-6zM620 794h-399v113h399v-113z" />
    <glyph glyph-name="uni04E3" unicode="&#x4e3;" horiz-adv-x="702" 
d="M247 0h-181v509h178v-269h6l205 269h180v-509h-177v268h-6zM550 594h-399v113h399v-113z" />
    <glyph glyph-name="uni04E8" unicode="&#x4e8;" horiz-adv-x="846" 
d="M624 668.5q87 -45.5 135 -128t48 -190.5t-48 -190.5t-135 -128t-201 -45.5t-201 45.5t-135 128t-48 190.5t48 190.5t135 128t201 45.5t201 -45.5zM316 508.5q-43 -35.5 -57 -99.5h329q-14 64 -57.5 99.5t-107.5 35.5t-107 -35.5zM530.5 191.5q43.5 35.5 57.5 99.5h-329
q14 -64 57 -99.5t107 -35.5t107.5 35.5z" />
    <glyph glyph-name="uni04E9" unicode="&#x4e9;" horiz-adv-x="661" 
d="M482 494q67 -33 105 -95t38 -145t-38 -145t-105 -95t-152 -33t-151.5 33t-104.5 95t-38 145t38 145t104.5 95t151.5 33t152 -33zM254.5 366q-29.5 -23 -40.5 -67h232q-10 44 -40 67t-76 23t-75.5 -23zM405.5 143q29.5 23 40.5 65h-232q11 -42 41 -65t75 -23q46 0 75.5 23
z" />
    <glyph glyph-name="uni04EE" unicode="&#x4ee;" horiz-adv-x="693" 
d="M513 700h202l-238 -497q-37 -77 -74.5 -123.5t-88 -70t-121.5 -23.5q-52 0 -90 11v155q39 -10 71 -10q74 0 105 55l-291 503h215l166 -312h5zM556 794h-399v113h399v-113z" />
    <glyph glyph-name="uni04EF" unicode="&#x4ef;" horiz-adv-x="633" 
d="M443 509h189l-209 -495q-34 -80 -68.5 -128.5t-82.5 -74t-118 -25.5q-43 0 -80 9v153q29 -9 58 -9q40 0 65 16t39 49l6 14l-246 491h191l138 -306h6zM514 594h-399v113h399v-113z" />
    <glyph glyph-name="uni04F2" unicode="&#x4f2;" horiz-adv-x="693" 
d="M513 700h202l-238 -497q-37 -77 -74.5 -123.5t-88 -70t-121.5 -23.5q-52 0 -90 11v155q39 -10 71 -10q74 0 105 55l-291 503h215l166 -312h5zM303 767h-127l82 171h177zM512 767h-126l99 171h177z" />
    <glyph glyph-name="uni04F3" unicode="&#x4f3;" horiz-adv-x="633" 
d="M443 509h189l-209 -495q-34 -80 -68.5 -128.5t-82.5 -74t-118 -25.5q-43 0 -80 9v153q29 -9 58 -9q40 0 65 16t39 49l6 14l-246 491h191l138 -306h6zM257 580h-121l93 187h170zM466 580h-120l109 187h171z" />
    <glyph glyph-name="uni1E24" unicode="&#x1e24;" horiz-adv-x="836" 
d="M562 443v257h200v-700h-200v278h-288v-278h-200v700h200v-257h288zM359.5 -211.5q-23.5 23.5 -23.5 58.5t23.5 58.5t58.5 23.5q36 0 59.5 -23.5t23.5 -58.5t-23.5 -58.5t-59.5 -23.5q-35 0 -58.5 23.5z" />
    <glyph glyph-name="uni1E25" unicode="&#x1e25;" horiz-adv-x="707" 
d="M71 0v700h182v-267h5q23 40 71 65t110 25q97 0 151.5 -57.5t54.5 -159.5v-306h-181v241q0 52 -26.5 82.5t-74.5 30.5q-51 0 -80.5 -30.5t-29.5 -82.5v-241h-182zM301.5 -211.5q-23.5 23.5 -23.5 58.5t23.5 58.5t58.5 23.5q36 0 59.5 -23.5t23.5 -58.5t-23.5 -58.5
t-59.5 -23.5q-35 0 -58.5 23.5z" />
    <glyph glyph-name="uni1E26" unicode="&#x1e26;" horiz-adv-x="836" 
d="M562 443v257h200v-700h-200v278h-288v-278h-200v700h200v-257h288zM227 788.5q-26 24.5 -26 62.5t26 62.5t66 24.5t66 -24.5t26 -62.5t-26 -62.5t-66 -24.5t-66 24.5zM477 788.5q-26 24.5 -26 62.5t26 62.5t66 24.5t66 -24.5t26 -62.5t-26 -62.5t-66 -24.5t-66 24.5z" />
    <glyph glyph-name="uni1E27" unicode="&#x1e27;" horiz-adv-x="707" 
d="M71 0v700h182v-267h5q23 40 71 65t110 25q97 0 151.5 -57.5t54.5 -159.5v-306h-181v241q0 52 -26.5 82.5t-74.5 30.5q-51 0 -80.5 -30.5t-29.5 -82.5v-241h-182zM168 788.5q-26 24.5 -26 62.5t26 62.5t66 24.5t66 -24.5t26 -62.5t-26 -62.5t-66 -24.5t-66 24.5z
M418 788.5q-26 24.5 -26 62.5t26 62.5t66 24.5t66 -24.5t26 -62.5t-26 -62.5t-66 -24.5t-66 24.5z" />
    <glyph glyph-name="uni1E30" unicode="&#x1e30;" horiz-adv-x="749" 
d="M480 361l283 -361h-238l-251 333v-333h-200v700h200v-325l245 325h225zM454 767h-127l73 171h177z" />
    <glyph glyph-name="uni1E31" unicode="&#x1e31;" horiz-adv-x="639" 
d="M431 267l217 -267h-211l-184 240v-240h-182v700h182v-423l172 232h194zM418 767h-127l73 171h177z" />
    <glyph glyph-name="uni1E36" unicode="&#x1e36;" horiz-adv-x="662" 
d="M651 0h-577v700h200v-535h377v-165zM324.5 -211.5q-23.5 23.5 -23.5 58.5t23.5 58.5t58.5 23.5q36 0 59.5 -23.5t23.5 -58.5t-23.5 -58.5t-59.5 -23.5q-35 0 -58.5 23.5z" />
    <glyph glyph-name="uni1E37" unicode="&#x1e37;" horiz-adv-x="324" 
d="M253 0h-182v700h182v-700zM103.5 -211.5q-23.5 23.5 -23.5 58.5t23.5 58.5t58.5 23.5q36 0 59.5 -23.5t23.5 -58.5t-23.5 -58.5t-59.5 -23.5q-35 0 -58.5 23.5z" />
    <glyph glyph-name="uni1E3E" unicode="&#x1e3e;" horiz-adv-x="1012" 
d="M265 0h-191v700h241l188 -327h6l184 327h245v-700h-191v442h-6l-168 -289h-134l-168 289h-6v-442zM566 767h-127l73 171h177z" />
    <glyph glyph-name="uni1E3F" unicode="&#x1e3f;" horiz-adv-x="972" 
d="M66 0v509h177v-79h5q22 43 64 68t96 25q56 0 96.5 -24.5t57.5 -69.5h6q26 45 67.5 69.5t95.5 24.5q88 0 133.5 -53t45.5 -160v-310h-181v267q0 96 -74 96q-36 0 -56 -24t-20 -67v-272h-181v267q0 96 -74 96q-36 0 -56 -24t-20 -67v-272h-182zM543 580h-118l81 187h168z
" />
    <glyph glyph-name="uni1E54" unicode="&#x1e54;" horiz-adv-x="746" 
d="M387 700q158 0 237 -65t79 -197t-79 -196.5t-237 -64.5h-113v-177h-200v700h313zM383 342q54 0 82 24.5t28 71.5q0 48 -28 72.5t-82 24.5h-109v-193h109zM427 767h-127l73 171h177z" />
    <glyph glyph-name="uni1E55" unicode="&#x1e55;" horiz-adv-x="698" 
d="M66 -200v707h166v-71h5q25 41 71.5 63.5t108.5 22.5q70 0 126 -33t87.5 -94.5t31.5 -141.5t-31.5 -141.5t-86.5 -94.5t-125 -33q-54 0 -97 20t-69 56h-5v-260h-182zM440.5 171.5q31.5 31.5 31.5 81.5t-31.5 81.5t-80.5 31.5t-80.5 -31t-31.5 -82t31.5 -82t80.5 -31
t80.5 31.5zM456 580h-118l81 187h168z" />
    <glyph glyph-name="Wgrave" unicode="&#x1e80;" horiz-adv-x="1150" 
d="M449 0h-255l-180 700h209l114 -476h6l123 476h220l123 -476h6l114 476h207l-180 -700h-255l-123 476h-6zM642 767h-127l-123 171h177z" />
    <glyph glyph-name="wgrave" unicode="&#x1e81;" horiz-adv-x="935" 
d="M370 0h-215l-142 509h185l77 -338h6l95 338h184l96 -338h6l77 338h184l-143 -509h-215l-94 334h-6zM532 580h-118l-131 187h169z" />
    <glyph glyph-name="Wacute" unicode="&#x1e82;" horiz-adv-x="1150" 
d="M449 0h-255l-180 700h209l114 -476h6l123 476h220l123 -476h6l114 476h207l-180 -700h-255l-123 476h-6zM636 767h-127l73 171h177z" />
    <glyph glyph-name="wacute" unicode="&#x1e83;" horiz-adv-x="935" 
d="M370 0h-215l-142 509h185l77 -338h6l95 338h184l96 -338h6l77 338h184l-143 -509h-215l-94 334h-6zM521 580h-118l81 187h168z" />
    <glyph glyph-name="Wdieresis" unicode="&#x1e84;" horiz-adv-x="1150" 
d="M449 0h-255l-180 700h209l114 -476h6l123 476h220l123 -476h6l114 476h207l-180 -700h-255l-123 476h-6zM384 788.5q-26 24.5 -26 62.5t26 62.5t66 24.5t66 -24.5t26 -62.5t-26 -62.5t-66 -24.5t-66 24.5zM634 788.5q-26 24.5 -26 62.5t26 62.5t66 24.5t66 -24.5
t26 -62.5t-26 -62.5t-66 -24.5t-66 24.5z" />
    <glyph glyph-name="wdieresis" unicode="&#x1e85;" horiz-adv-x="935" 
d="M370 0h-215l-142 509h185l77 -338h6l95 338h184l96 -338h6l77 338h184l-143 -509h-215l-94 334h-6zM275 597q-26 25 -26 64q0 38 26.5 63.5t66.5 25.5t67 -25.5t27 -63.5t-27 -63.5t-67 -25.5q-41 0 -67 25zM525 597q-26 25 -26 64q0 38 26.5 63.5t66.5 25.5t67 -25.5
t27 -63.5q0 -39 -26.5 -64t-67.5 -25t-67 25z" />
    <glyph glyph-name="uni1E8C" unicode="&#x1e8c;" horiz-adv-x="742" 
d="M219 0h-221l236 362l-213 338h219l128 -218h6l128 218h219l-213 -338l236 -362h-222l-149 238h-6zM179 788.5q-26 24.5 -26 62.5t26 62.5t66 24.5t66 -24.5t26 -62.5t-26 -62.5t-66 -24.5t-66 24.5zM429 788.5q-26 24.5 -26 62.5t26 62.5t66 24.5t66 -24.5t26 -62.5
t-26 -62.5t-66 -24.5t-66 24.5z" />
    <glyph glyph-name="uni1E8D" unicode="&#x1e8d;" horiz-adv-x="621" 
d="M200 0h-204l179 258l-155 251h199l90 -164h5l88 164h200l-155 -251l178 -258h-204l-108 166h-6zM118 597q-26 25 -26 64q0 38 26.5 63.5t66.5 25.5t67 -25.5t27 -63.5t-27 -63.5t-67 -25.5q-41 0 -67 25zM368 597q-26 25 -26 64q0 38 26.5 63.5t66.5 25.5t67 -25.5
t27 -63.5q0 -39 -26.5 -64t-67.5 -25t-67 25z" />
    <glyph glyph-name="uni1E9E" unicode="&#x1e9e;" horiz-adv-x="840" 
d="M380 40q-63 54 -63 151h188q0 -26 14 -39t40 -13q24 0 38 12.5t14 34.5q0 32 -25.5 52t-79.5 44q-45 20 -73.5 37.5t-48.5 45.5t-20 69q0 33 14.5 59.5t41.5 44.5v5h-37q-118 0 -118 -101v-442h-196v442q0 95 31.5 151.5t97 81.5t170.5 25h279v-157q-40 0 -63 -17.5
t-23 -50.5q0 -32 24 -52t77 -49q49 -25 80 -47t53 -58.5t22 -88.5q0 -93 -65 -143.5t-183 -50.5q-126 0 -189 54z" />
    <glyph glyph-name="uni1EBC" unicode="&#x1ebc;" horiz-adv-x="716" 
d="M669 700v-157h-395v-113h340v-148h-340v-125h395v-157h-595v700h595zM413 784q-20 9 -46 26q-17 12 -28 17t-24 5q-31 0 -31 -37v-15h-115v27q0 69 31.5 105t88.5 36q30 0 50 -9t46 -26q15 -11 27 -16.5t24 -5.5q32 0 32 38v14h115v-27q0 -69 -31.5 -105t-88.5 -36
q-30 0 -50 9z" />
    <glyph glyph-name="uni1EBD" unicode="&#x1ebd;" horiz-adv-x="656" 
d="M620 210h-400q9 -47 38 -71t73 -24q71 0 93 48h189q-16 -78 -86 -130t-190 -52q-90 0 -158 33.5t-105.5 95t-37.5 144.5t37.5 145t105 95t153.5 33q85 0 151 -31.5t103.5 -92.5t37.5 -147q0 -31 -4 -46zM259.5 371.5q-28.5 -22.5 -38.5 -66.5h214q-4 41 -32 65t-72 24
q-43 0 -71.5 -22.5zM127 607q0 69 31.5 105t88.5 36q30 0 50 -9t46 -26q15 -11 27 -16.5t24 -5.5q32 0 32 38v14h115v-27q0 -69 -31.5 -105t-88.5 -36q-30 0 -50 9t-46 26q-17 11 -28 16.5t-24 5.5q-31 0 -31 -37v-15h-115v27z" />
    <glyph glyph-name="Ygrave" unicode="&#x1ef2;" horiz-adv-x="711" 
d="M456 0h-201v235l-261 465h217l142 -288h5l146 288h213l-261 -465v-235zM422 767h-127l-123 171h177z" />
    <glyph glyph-name="ygrave" unicode="&#x1ef3;" horiz-adv-x="633" 
d="M443 509h189l-209 -495q-34 -80 -68.5 -128.5t-82.5 -74t-118 -25.5q-43 0 -80 9v153q29 -9 58 -9q40 0 65 16t39 49l6 14l-246 491h191l138 -306h6zM379 580h-118l-131 187h169z" />
    <glyph glyph-name="uni1EF8" unicode="&#x1ef8;" horiz-adv-x="711" 
d="M456 0h-201v235l-261 465h217l142 -288h5l146 288h213l-261 -465v-235zM393 784q-20 9 -46 26q-17 12 -28 17t-24 5q-31 0 -31 -37v-15h-115v27q0 69 31.5 105t88.5 36q30 0 50 -9t46 -26q15 -11 27 -16.5t24 -5.5q32 0 32 38v14h115v-27q0 -69 -31.5 -105t-88.5 -36
q-30 0 -50 9z" />
    <glyph glyph-name="uni1EF9" unicode="&#x1ef9;" horiz-adv-x="633" 
d="M443 509h189l-209 -495q-34 -80 -68.5 -128.5t-82.5 -74t-118 -25.5q-43 0 -80 9v153q29 -9 58 -9q40 0 65 16t39 49l6 14l-246 491h191l138 -306h6zM108 607q0 69 31.5 105t88.5 36q30 0 50 -9t46 -26q15 -11 27 -16.5t24 -5.5q32 0 32 38v14h115v-27q0 -69 -31.5 -105
t-88.5 -36q-30 0 -50 9t-46 26q-17 11 -28 16.5t-24 5.5q-31 0 -31 -37v-15h-115v27z" />
    <glyph glyph-name="endash" unicode="&#x2013;" horiz-adv-x="771" 
d="M737 200h-703v129h703v-129z" />
    <glyph glyph-name="emdash" unicode="&#x2014;" horiz-adv-x="952" 
d="M918 200h-884v129h884v-129z" />
    <glyph glyph-name="quoteleft" unicode="&#x2018;" horiz-adv-x="274" 
d="M159 590q36 -5 59.5 -31t23.5 -65q0 -44 -30 -72t-74 -28q-48 0 -76.5 30t-28.5 74q0 32 10 66.5t31 78.5l52 112h83z" />
    <glyph glyph-name="quoteright" unicode="&#x2019;" horiz-adv-x="274" 
d="M213.5 733q28.5 -30 28.5 -74q0 -31 -10 -65t-31 -79l-53 -112h-82l50 164q-36 5 -59.5 31t-23.5 65q0 45 29.5 72.5t74.5 27.5q48 0 76.5 -30z" />
    <glyph glyph-name="quotesinglbase" unicode="&#x201a;" horiz-adv-x="274" 
d="M213.5 159q28.5 -30 28.5 -74q0 -32 -10 -66t-31 -79l-53 -112h-82l50 164q-36 6 -59.5 31.5t-23.5 64.5q0 45 29.5 73t74.5 28q48 0 76.5 -30z" />
    <glyph glyph-name="quotedblleft" unicode="&#x201c;" horiz-adv-x="523" 
d="M159 590q36 -5 59.5 -31t23.5 -65q0 -44 -30 -72t-74 -28q-48 0 -76.5 30t-28.5 74q0 32 10 66.5t31 78.5l52 112h83zM408 590q36 -5 59.5 -31t23.5 -65q0 -44 -30 -72t-74 -28q-48 0 -76.5 30t-28.5 74q0 32 10 66.5t31 78.5l52 112h83z" />
    <glyph glyph-name="quotedblright" unicode="&#x201d;" horiz-adv-x="523" 
d="M213.5 733q28.5 -30 28.5 -74q0 -31 -10 -65t-31 -79l-53 -112h-82l50 164q-36 5 -59.5 31t-23.5 65q0 45 29.5 72.5t74.5 27.5q48 0 76.5 -30zM462.5 733q28.5 -30 28.5 -74q0 -31 -10 -65t-31 -79l-53 -112h-82l50 164q-36 5 -59.5 31t-23.5 65q0 45 29.5 72.5
t74.5 27.5q48 0 76.5 -30z" />
    <glyph glyph-name="quotedblbase" unicode="&#x201e;" horiz-adv-x="523" 
d="M213.5 159q28.5 -30 28.5 -74q0 -32 -10 -66t-31 -79l-53 -112h-82l50 164q-36 6 -59.5 31.5t-23.5 64.5q0 45 29.5 73t74.5 28q48 0 76.5 -30zM462.5 159q28.5 -30 28.5 -74q0 -32 -10 -66t-31 -79l-53 -112h-82l50 164q-36 6 -59.5 31.5t-23.5 64.5q0 45 29.5 73
t74.5 28q48 0 76.5 -30z" />
    <glyph glyph-name="dagger" unicode="&#x2020;" horiz-adv-x="541" 
d="M256 516q-22 29 -38.5 70t-16.5 68q0 29 19.5 47.5t50.5 18.5q30 0 49.5 -18.5t19.5 -47.5q0 -27 -16.5 -68t-38.5 -70h-29zM50 433.5q-19 19.5 -19 50.5q0 30 19 49.5t48 19.5q27 0 68 -16.5t69 -38.5v-29q-28 -22 -69 -38.5t-68 -16.5q-29 0 -48 19.5zM376 430.5
q-41 16.5 -70 38.5v29q29 22 70 38.5t67 16.5q29 0 48 -19.5t19 -49.5q0 -31 -19 -50.5t-48 -19.5q-26 0 -67 16.5zM291 -200h-40l-48 464l48 190h40l47 -190z" />
    <glyph glyph-name="daggerdbl" unicode="&#x2021;" horiz-adv-x="541" 
d="M256 516q-22 29 -38.5 70t-16.5 68q0 29 19.5 47.5t50.5 18.5q30 0 49.5 -18.5t19.5 -47.5q0 -27 -16.5 -68t-38.5 -70h-29zM50 433.5q-19 19.5 -19 50.5q0 30 19 49.5t48 19.5q27 0 68 -16.5t69 -38.5v-29q-28 -22 -69 -38.5t-68 -16.5q-29 0 -48 19.5zM376 430.5
q-41 16.5 -70 38.5v29q29 22 70 38.5t67 16.5q29 0 48 -19.5t19 -49.5q0 -31 -19 -50.5t-48 -19.5q-26 0 -67 16.5zM286 57h-30l-52 194l52 193h30l51 -193zM50 -32.5q-19 19.5 -19 50.5t19 50t48 19q27 0 68 -16.5t69 -38.5v-29q-28 -22 -69 -38.5t-68 -16.5
q-29 0 -48 19.5zM376 -35.5q-41 16.5 -70 38.5v29q29 22 70 38.5t67 16.5q29 0 48 -19t19 -50t-19 -50.5t-48 -19.5q-26 0 -67 16.5zM220.5 -200q-19.5 19 -19.5 48q0 27 16.5 68t38.5 69h29q22 -28 38.5 -69t16.5 -68q0 -29 -19.5 -48t-49.5 -19q-31 0 -50.5 19z" />
    <glyph glyph-name="bullet" unicode="&#x2022;" horiz-adv-x="454" 
d="M137 191q-37 34 -37 89t37 89t90 34t90 -34t37 -89t-37 -89t-90 -34t-90 34z" />
    <glyph glyph-name="ellipsis" unicode="&#x2026;" horiz-adv-x="811" 
d="M63 18q-30 27 -30 72q0 44 30 71.5t73 27.5t73 -27.5t30 -71.5q0 -45 -30 -72t-73 -27t-73 27zM332 18q-30 27 -30 72q0 44 30 71.5t73 27.5t73 -27.5t30 -71.5q0 -45 -30 -72t-73 -27t-73 27zM602 18q-30 27 -30 72q0 44 30 71.5t73 27.5t73 -27.5t30 -71.5
q0 -45 -30 -72t-73 -27t-73 27z" />
    <glyph glyph-name="perthousand" unicode="&#x2030;" horiz-adv-x="1320" 
d="M77 409q-51 49 -51 128t51 128t133 49q54 0 96 -22.5t65.5 -62.5t23.5 -92t-23.5 -92t-65.5 -62.5t-96 -22.5q-82 0 -133 49zM285 0h-140l481 700h139zM256 486.5q17 18.5 17 50.5t-17 50.5t-46 18.5t-45.5 -18.5t-16.5 -50.5t16.5 -50.5t45.5 -18.5t46 18.5zM603 8.5
q-42 22.5 -65.5 62.5t-23.5 92t23.5 92t65.5 62.5t96 22.5q82 0 133 -49t51 -128t-51 -128t-133 -49q-54 0 -96 22.5zM1014 8.5q-42 22.5 -65.5 62.5t-23.5 92t23.5 92t65.5 62.5t96 22.5q82 0 133 -49t51 -128t-51 -128t-133 -49q-54 0 -96 22.5zM744.5 112.5
q16.5 18.5 16.5 50.5t-16.5 50.5t-45.5 18.5t-46 -18.5t-17 -50.5t17 -50.5t46 -18.5t45.5 18.5zM1155.5 112.5q16.5 18.5 16.5 50.5t-16.5 50.5t-45.5 18.5t-46 -18.5t-17 -50.5t17 -50.5t46 -18.5t45.5 18.5z" />
    <glyph glyph-name="guilsinglleft" unicode="&#x2039;" horiz-adv-x="374" 
d="M345 64h-173l-139 185l139 186h173l-145 -183v-6z" />
    <glyph glyph-name="guilsinglright" unicode="&#x203a;" horiz-adv-x="374" 
d="M202 64h-173l146 182v6l-146 183h173l140 -186z" />
    <glyph glyph-name="fraction" unicode="&#x2044;" horiz-adv-x="207" 
d="M-66 0h-140l480 700h139z" />
    <glyph glyph-name="uni2070" unicode="&#x2070;" horiz-adv-x="429" 
d="M73.5 464.5q-52.5 54.5 -52.5 145.5t52.5 145.5t140.5 54.5q89 0 141.5 -54.5t52.5 -145.5t-52.5 -145.5t-141.5 -54.5q-88 0 -140.5 54.5zM264.5 540q17.5 25 17.5 70t-17.5 70t-50.5 25q-32 0 -50 -25t-18 -70t18 -70t50 -25q33 0 50.5 25z" />
    <glyph glyph-name="uni2074" unicode="&#x2074;" horiz-adv-x="417" 
d="M341 582h56v-96h-56v-66h-126v66h-200v102l171 212h155v-218zM218 697l-87 -109v-6h92v115h-5z" />
    <glyph glyph-name="uni2075" unicode="&#x2075;" horiz-adv-x="414" 
d="M78 445.5q-47 35.5 -47 97.5h122q0 -15 15.5 -26t38.5 -11t36.5 11.5t13.5 32.5t-13.5 32.5t-36.5 11.5q-27 0 -44 -18h-117l35 224h277v-91h-186l-7 -49h6q29 18 75 18q61 0 98.5 -34.5t37.5 -92.5q0 -65 -47 -103t-128 -38q-82 0 -129 35.5z" />
    <glyph glyph-name="uni2076" unicode="&#x2076;" horiz-adv-x="390" 
d="M69 450q-48 40 -48 107q0 37 13.5 71.5t43.5 75.5l72 96h123l-85 -113h5q15 4 35 4q64 0 104.5 -37t40.5 -97q0 -68 -47.5 -107.5t-127.5 -39.5q-81 0 -129 40zM242.5 515.5q16.5 13.5 16.5 36.5q0 24 -16.5 37t-43.5 13q-28 0 -44 -13t-16 -37q0 -23 16.5 -36.5
t43.5 -13.5t43.5 13.5z" />
    <glyph glyph-name="uni2077" unicode="&#x2077;" horiz-adv-x="348" 
d="M186 420h-125l150 275v5h-195v100h322v-92z" />
    <glyph glyph-name="uni2078" unicode="&#x2078;" horiz-adv-x="400" 
d="M68 440q-47 30 -47 87q0 32 20 56t53 33v6q-61 24 -61 83q0 47 46 76t121 29t121 -29t46 -76q0 -59 -61 -83v-6q33 -9 53 -33t20 -56q0 -57 -47 -87t-132 -30t-132 30zM241 660.5q15 9.5 15 26.5t-15 26.5t-41 9.5t-41 -9.5t-15 -26.5t15 -26.5t41 -9.5t41 9.5zM248 508
q17 11 17 30t-17.5 30t-47.5 11t-47.5 -11t-17.5 -30t17 -30t48 -11t48 11z" />
    <glyph glyph-name="uni2079" unicode="&#x2079;" horiz-adv-x="390" 
d="M116 420l86 113h-5q-15 -4 -35 -4q-64 0 -105 37t-41 97q0 68 47.5 107.5t128.5 39.5t129 -40t48 -107q0 -37 -13.5 -71.5t-44.5 -75.5l-71 -96h-124zM234.5 631q16.5 13 16.5 37q0 23 -16.5 36.5t-43.5 13.5t-43.5 -13.5t-16.5 -36.5q0 -24 16 -37t44 -13q27 0 43.5 13z
" />
    <glyph glyph-name="uni2080" unicode="&#x2080;" horiz-adv-x="429" 
d="M73.5 -55.5q-52.5 54.5 -52.5 145.5t52.5 145.5t140.5 54.5q89 0 141.5 -54.5t52.5 -145.5t-52.5 -145.5t-141.5 -54.5q-88 0 -140.5 54.5zM264.5 20q17.5 25 17.5 70t-17.5 70t-50.5 25q-32 0 -50 -25t-18 -70t18 -70t50 -25q33 0 50.5 25z" />
    <glyph glyph-name="uni2081" unicode="&#x2081;" horiz-adv-x="354" 
d="M250 280v-277h93v-103h-317v103h102v147l-85 -55v114l110 71h97z" />
    <glyph glyph-name="uni2082" unicode="&#x2082;" horiz-adv-x="410" 
d="M384 -4v-96h-363v41q0 52 23.5 84.5t55.5 49t79 31.5q41 13 59 23.5t18 28.5q0 31 -45 31q-25 0 -41 -11.5t-16 -30.5h-122q0 65 50 104t136 39q77 0 120.5 -34.5t43.5 -87.5q0 -42 -20 -68t-47.5 -39t-71.5 -27q-34 -11 -50.5 -18.5t-25.5 -19.5h217z" />
    <glyph glyph-name="uni2083" unicode="&#x2083;" horiz-adv-x="409" 
d="M74.5 -73.5q-48.5 36.5 -48.5 97.5h122q0 -18 15 -28t40 -10t39.5 9.5t14.5 29.5q0 38 -57 38h-74v68l80 52v6h-146v91h294v-80l-102 -61v-6h8q55 0 89 -30t34 -79q0 -64 -48 -99t-132 -35q-80 0 -128.5 36.5z" />
    <glyph glyph-name="uni2084" unicode="&#x2084;" horiz-adv-x="417" 
d="M341 62h56v-96h-56v-66h-126v66h-200v102l171 212h155v-218zM218 177l-87 -109v-6h92v115h-5z" />
    <glyph glyph-name="uni2085" unicode="&#x2085;" horiz-adv-x="414" 
d="M78 -74.5q-47 35.5 -47 97.5h122q0 -15 15.5 -26t38.5 -11t36.5 11.5t13.5 32.5t-13.5 32.5t-36.5 11.5q-27 0 -44 -18h-117l35 224h277v-91h-186l-7 -49h6q29 18 75 18q61 0 98.5 -34.5t37.5 -92.5q0 -65 -47 -103t-128 -38q-82 0 -129 35.5z" />
    <glyph glyph-name="uni2086" unicode="&#x2086;" horiz-adv-x="390" 
d="M69 -70q-48 40 -48 107q0 37 13.5 71.5t43.5 75.5l72 96h123l-85 -113h5q15 4 35 4q64 0 104.5 -37t40.5 -97q0 -68 -47.5 -107.5t-127.5 -39.5q-81 0 -129 40zM242.5 -4.5q16.5 13.5 16.5 36.5q0 24 -16.5 37t-43.5 13q-28 0 -44 -13t-16 -37q0 -23 16.5 -36.5
t43.5 -13.5t43.5 13.5z" />
    <glyph glyph-name="uni2087" unicode="&#x2087;" horiz-adv-x="348" 
d="M186 -100h-125l150 275v5h-195v100h322v-92z" />
    <glyph glyph-name="uni2088" unicode="&#x2088;" horiz-adv-x="400" 
d="M68 -80q-47 30 -47 87q0 32 20 56t53 33v6q-61 24 -61 83q0 47 46 76t121 29t121 -29t46 -76q0 -59 -61 -83v-6q33 -9 53 -33t20 -56q0 -57 -47 -87t-132 -30t-132 30zM241 140.5q15 9.5 15 26.5t-15 26.5t-41 9.5t-41 -9.5t-15 -26.5t15 -26.5t41 -9.5t41 9.5zM248 -12
q17 11 17 30t-17.5 30t-47.5 11t-47.5 -11t-17.5 -30t17 -30t48 -11t48 11z" />
    <glyph glyph-name="uni2089" unicode="&#x2089;" horiz-adv-x="390" 
d="M116 -100l86 113h-5q-15 -4 -35 -4q-64 0 -105 37t-41 97q0 68 47.5 107.5t128.5 39.5t129 -40t48 -107q0 -37 -13.5 -71.5t-44.5 -75.5l-71 -96h-124zM234.5 111q16.5 13 16.5 37q0 23 -16.5 36.5t-43.5 13.5t-43.5 -13.5t-16.5 -36.5q0 -24 16 -37t44 -13q27 0 43.5 13
z" />
    <glyph glyph-name="uni20A9" unicode="&#x20a9;" horiz-adv-x="1170" 
d="M1151 486v-111h-112l-16 -66h128v-111h-156l-50 -198h-253l-104 431h-6l-104 -431h-253l-50 198h-156v111h128l-16 66h-112v111h84l-54 214h206l111 -476h6l119 476h190l119 -476h6l111 476h204l-54 -214h84z" />
    <glyph glyph-name="Euro" unicode="&#x20ac;" horiz-adv-x="824" 
d="M790 243q-8 -76 -53.5 -134t-120 -90.5t-165.5 -32.5q-126 0 -217 63.5t-127 172.5h-103v101h84q-1 9 -1 27t1 27h-84v101h103q36 109 127 172.5t217 63.5q91 0 165 -33t119.5 -92.5t53.5 -136.5h-176q-13 51 -58.5 82.5t-106.5 31.5q-50 0 -87.5 -23t-58.5 -65h200v-101
h-226q-1 -9 -1 -27t1 -27h226v-101h-200q21 -42 58.5 -65t87.5 -23q63 0 106 28.5t60 80.5h176z" />
    <glyph glyph-name="uni20AE" unicode="&#x20ae;" horiz-adv-x="708" 
d="M686 700v-158h-233v-97l137 40v-104l-137 -40v-57l137 40v-104l-137 -40v-180h-200v122l-136 -39v103l136 40v57l-136 -39v103l136 40v155h-231v158h664z" />
    <glyph glyph-name="uni20B4" unicode="&#x20b4;" horiz-adv-x="768" 
d="M718 457v-85h-668v85h405q15 21 15 45q0 28 -24 45t-67 17q-44 0 -71.5 -15t-27.5 -37h-205q0 56 39.5 102t111.5 73t166 27q88 0 152 -22t97.5 -60.5t33.5 -87.5t-30 -87h73zM50 243v85h668v-85h-405q-15 -21 -15 -45q0 -28 24 -45t68 -17t71 15t27 37h205
q0 -56 -39.5 -102t-111.5 -73t-166 -27q-88 0 -152 22t-97.5 60.5t-33.5 87.5t30 87h-73z" />
    <glyph glyph-name="uni20B8" unicode="&#x20b8;" horiz-adv-x="706" 
d="M685 589h-664v111h664v-111zM453 0h-200v374h-232v158h664v-158h-232v-374z" />
    <glyph glyph-name="uni20B9" unicode="&#x20b9;" horiz-adv-x="695" 
d="M664 591h-133q28 -35 40 -87h93v-106h-92q-18 -81 -84.5 -133t-156.5 -62l267 -203h-298l-259 204v135h222q88 0 112 59h-334v106h334q-24 58 -112 58h-222v138h623v-109z" />
    <glyph glyph-name="uni20BA" unicode="&#x20ba;" horiz-adv-x="679" 
d="M669 282q0 -282 -361 -282h-218v240l-86 -31v101l86 31v55l-86 -31v101l86 31v203h200v-132l151 54v-101l-151 -54v-56l151 54v-101l-151 -54v-130h34q72 0 109.5 25.5t37.5 76.5h198z" />
    <glyph glyph-name="uni20BD" unicode="&#x20bd;" horiz-adv-x="732" 
d="M290 241v-52h197v-104h-197v-85h-200v85h-86v104h86v52h-86v142h86v317h291q152 0 230 -57.5t78 -171.5q0 -111 -79 -170.5t-229 -59.5h-91zM290 551v-168h87q50 0 76 21.5t26 62.5t-26 62.5t-76 21.5h-87z" />
    <glyph glyph-name="uni20BF" unicode="&#x20bf;" horiz-adv-x="746" 
d="M664 66.5q-44 -48.5 -126 -61.5v-120h-147v115h-83v-115h-147v115h-87v700h87v115h147v-115h83v115h147v-124q66 -16 101.5 -58.5t35.5 -107.5q0 -55 -26 -94t-73 -56v-6q63 -16 97.5 -62t34.5 -113q0 -79 -44 -127.5zM274 546v-122h122q33 0 51 16t18 45t-18 45t-51 16
h-122zM419 154q39 0 59 17.5t20 50.5t-20 50t-58 17h-146v-135h145z" />
    <glyph glyph-name="som" unicode="&#x20c0;" horiz-adv-x="648" 
d="M182 208.5q-68 33.5 -107 94.5t-39 141q0 81 38.5 142.5t106.5 94.5t153 33q79 0 142.5 -27.5t99.5 -77t36 -112.5h-184q-10 31 -35 47.5t-63 16.5q-48 0 -79.5 -30.5t-31.5 -86.5q0 -55 31.5 -85.5t79.5 -30.5q41 0 68 18t35 51h184q0 -64 -37 -114.5t-101 -79
t-145 -28.5q-84 0 -152 33.5zM580 0h-506v126h506v-126z" />
    <glyph glyph-name="uni2116" unicode="&#x2116;" horiz-adv-x="1224" 
d="M269 0h-195v700h201l290 -405h5v405h195v-700h-200l-290 405h-6v-405zM881.5 212.5q-49.5 47.5 -49.5 125.5q0 79 49.5 126.5t131.5 47.5t131 -47.5t49 -126.5q0 -78 -49 -125.5t-131 -47.5t-131.5 47.5zM1057.5 290.5q16.5 17.5 16.5 47.5t-16.5 48t-44.5 18
q-29 0 -45.5 -18t-16.5 -48t16.5 -47.5t45.5 -17.5q28 0 44.5 17.5zM1181 0h-337v105h337v-105z" />
    <glyph glyph-name="trademark" unicode="&#x2122;" horiz-adv-x="786" 
d="M207 400h-103v210h-98v90h300v-90h-99v-210zM454 400h-103v300h130l63 -125h6l65 125h130v-300h-103v169h-6l-55 -102h-68l-53 102h-6v-169z" />
    <glyph glyph-name="uni2150" unicode="&#x2150;" horiz-adv-x="989" 
d="M250 700v-277h93v-103h-317v103h102v147l-85 -55v114l110 71h97zM328 0h-140l480 700h139zM827 0h-125l150 275v5h-195v100h322v-92z" />
    <glyph glyph-name="uni2151" unicode="&#x2151;" horiz-adv-x="1011" 
d="M250 700v-277h93v-103h-317v103h102v147l-85 -55v114l110 71h97zM328 0h-140l480 700h139zM737 0l86 113h-5q-15 -4 -35 -4q-64 0 -105 37t-41 97q0 68 47.5 107.5t128.5 39.5t129 -40t48 -107q0 -37 -13.5 -71.5t-44.5 -75.5l-71 -96h-124zM855.5 211q16.5 13 16.5 37
q0 23 -16.5 36.5t-43.5 13.5t-43.5 -13.5t-16.5 -36.5q0 -24 16 -37t44 -13q27 0 43.5 13z" />
    <glyph glyph-name="uni2152" unicode="&#x2152;" horiz-adv-x="1357" 
d="M250 700v-277h93v-103h-317v103h102v147l-85 -55v114l110 71h97zM328 0h-140l480 700h139zM831 380v-277h93v-103h-317v103h102v147l-85 -55v114l110 71h97zM1001.5 44.5q-52.5 54.5 -52.5 145.5t52.5 145.5t140.5 54.5q89 0 141.5 -54.5t52.5 -145.5t-52.5 -145.5
t-141.5 -54.5q-88 0 -140.5 54.5zM1192.5 120q17.5 25 17.5 70t-17.5 70t-50.5 25q-32 0 -50 -25t-18 -70t18 -70t50 -25q33 0 50.5 25z" />
    <glyph glyph-name="uni2153" unicode="&#x2153;" horiz-adv-x="1010" 
d="M250 700v-277h93v-103h-317v103h102v147l-85 -55v114l110 71h97zM328 0h-140l480 700h139zM675.5 26.5q-48.5 36.5 -48.5 97.5h122q0 -18 15 -28t40 -10t39.5 9.5t14.5 29.5q0 38 -57 38h-74v68l80 52v6h-146v91h294v-80l-102 -61v-6h8q55 0 89 -30t34 -79q0 -64 -48 -99
t-132 -35q-80 0 -128.5 36.5z" />
    <glyph glyph-name="uni2154" unicode="&#x2154;" horiz-adv-x="1066" 
d="M384 416v-96h-363v41q0 52 23.5 84.5t55.5 49t79 31.5q41 13 59 23.5t18 28.5q0 31 -45 31q-25 0 -41 -11.5t-16 -30.5h-122q0 65 50 104t136 39q77 0 120.5 -34.5t43.5 -87.5q0 -42 -20 -68t-47.5 -39t-71.5 -27q-34 -11 -50.5 -18.5t-25.5 -19.5h217zM384 0h-140
l480 700h139zM731.5 26.5q-48.5 36.5 -48.5 97.5h122q0 -18 15 -28t40 -10t39.5 9.5t14.5 29.5q0 38 -57 38h-74v68l80 52v6h-146v91h294v-80l-102 -61v-6h8q55 0 89 -30t34 -79q0 -64 -48 -99t-132 -35q-80 0 -128.5 36.5z" />
    <glyph glyph-name="uni2155" unicode="&#x2155;" horiz-adv-x="1015" 
d="M250 700v-277h93v-103h-317v103h102v147l-85 -55v114l110 71h97zM328 0h-140l480 700h139zM679 25.5q-47 35.5 -47 97.5h122q0 -15 15.5 -26t38.5 -11t36.5 11.5t13.5 32.5t-13.5 32.5t-36.5 11.5q-27 0 -44 -18h-117l35 224h277v-91h-186l-7 -49h6q29 18 75 18
q61 0 98.5 -34.5t37.5 -92.5q0 -65 -47 -103t-128 -38q-82 0 -129 35.5z" />
    <glyph glyph-name="uni2156" unicode="&#x2156;" horiz-adv-x="1071" 
d="M384 416v-96h-363v41q0 52 23.5 84.5t55.5 49t79 31.5q41 13 59 23.5t18 28.5q0 31 -45 31q-25 0 -41 -11.5t-16 -30.5h-122q0 65 50 104t136 39q77 0 120.5 -34.5t43.5 -87.5q0 -42 -20 -68t-47.5 -39t-71.5 -27q-34 -11 -50.5 -18.5t-25.5 -19.5h217zM384 0h-140
l480 700h139zM735 25.5q-47 35.5 -47 97.5h122q0 -15 15.5 -26t38.5 -11t36.5 11.5t13.5 32.5t-13.5 32.5t-36.5 11.5q-27 0 -44 -18h-117l35 224h277v-91h-186l-7 -49h6q29 18 75 18q61 0 98.5 -34.5t37.5 -92.5q0 -65 -47 -103t-128 -38q-82 0 -129 35.5z" />
    <glyph glyph-name="uni2157" unicode="&#x2157;" horiz-adv-x="1030" 
d="M74.5 346.5q-48.5 36.5 -48.5 97.5h122q0 -18 15 -28t40 -10t39.5 9.5t14.5 29.5q0 38 -57 38h-74v68l80 52v6h-146v91h294v-80l-102 -61v-6h8q55 0 89 -30t34 -79q0 -64 -48 -99t-132 -35q-80 0 -128.5 36.5zM343 0h-140l480 700h139zM694 25.5q-47 35.5 -47 97.5h122
q0 -15 15.5 -26t38.5 -11t36.5 11.5t13.5 32.5t-13.5 32.5t-36.5 11.5q-27 0 -44 -18h-117l35 224h277v-91h-186l-7 -49h6q29 18 75 18q61 0 98.5 -34.5t37.5 -92.5q0 -65 -47 -103t-128 -38q-82 0 -129 35.5z" />
    <glyph glyph-name="uni2158" unicode="&#x2158;" horiz-adv-x="1078" 
d="M341 482h56v-96h-56v-66h-126v66h-200v102l171 212h155v-218zM218 597l-87 -109v-6h92v115h-5zM391 0h-140l480 700h139zM742 25.5q-47 35.5 -47 97.5h122q0 -15 15.5 -26t38.5 -11t36.5 11.5t13.5 32.5t-13.5 32.5t-36.5 11.5q-27 0 -44 -18h-117l35 224h277v-91h-186
l-7 -49h6q29 18 75 18q61 0 98.5 -34.5t37.5 -92.5q0 -65 -47 -103t-128 -38q-82 0 -129 35.5z" />
    <glyph glyph-name="uni2159" unicode="&#x2159;" horiz-adv-x="971" 
d="M250 700v-277h93v-103h-317v103h102v147l-85 -55v114l110 71h97zM328 0h-140l480 700h139zM650 30q-48 40 -48 107q0 37 13.5 71.5t43.5 75.5l72 96h123l-85 -113h5q15 4 35 4q64 0 104.5 -37t40.5 -97q0 -68 -47.5 -107.5t-127.5 -39.5q-81 0 -129 40zM823.5 95.5
q16.5 13.5 16.5 36.5q0 24 -16.5 37t-43.5 13q-28 0 -44 -13t-16 -37q0 -23 16.5 -36.5t43.5 -13.5t43.5 13.5z" />
    <glyph glyph-name="uni215A" unicode="&#x215a;" horiz-adv-x="991" 
d="M78 345.5q-47 35.5 -47 97.5h122q0 -15 15.5 -26t38.5 -11t36.5 11.5t13.5 32.5t-13.5 32.5t-36.5 11.5q-27 0 -44 -18h-117l35 224h277v-91h-186l-7 -49h6q29 18 75 18q61 0 98.5 -34.5t37.5 -92.5q0 -65 -47 -103t-128 -38q-82 0 -129 35.5zM348 0h-140l480 700h139z
M670 30q-48 40 -48 107q0 37 13.5 71.5t43.5 75.5l72 96h123l-85 -113h5q15 4 35 4q64 0 104.5 -37t40.5 -97q0 -68 -47.5 -107.5t-127.5 -39.5q-81 0 -129 40zM843.5 95.5q16.5 13.5 16.5 36.5q0 24 -16.5 37t-43.5 13q-28 0 -44 -13t-16 -37q0 -23 16.5 -36.5t43.5 -13.5
t43.5 13.5z" />
    <glyph glyph-name="oneeighth" unicode="&#x215b;" horiz-adv-x="1001" 
d="M250 700v-277h93v-103h-317v103h102v147l-85 -55v114l110 71h97zM328 0h-140l480 700h139zM669 20q-47 30 -47 87q0 32 20 56t53 33v6q-61 24 -61 83q0 47 46 76t121 29t121 -29t46 -76q0 -59 -61 -83v-6q33 -9 53 -33t20 -56q0 -57 -47 -87t-132 -30t-132 30zM842 240.5
q15 9.5 15 26.5t-15 26.5t-41 9.5t-41 -9.5t-15 -26.5t15 -26.5t41 -9.5t41 9.5zM849 88q17 11 17 30t-17.5 30t-47.5 11t-47.5 -11t-17.5 -30t17 -30t48 -11t48 11z" />
    <glyph glyph-name="threeeighths" unicode="&#x215c;" horiz-adv-x="1016" 
d="M74.5 346.5q-48.5 36.5 -48.5 97.5h122q0 -18 15 -28t40 -10t39.5 9.5t14.5 29.5q0 38 -57 38h-74v68l80 52v6h-146v91h294v-80l-102 -61v-6h8q55 0 89 -30t34 -79q0 -64 -48 -99t-132 -35q-80 0 -128.5 36.5zM343 0h-140l480 700h139zM684 20q-47 30 -47 87q0 32 20 56
t53 33v6q-61 24 -61 83q0 47 46 76t121 29t121 -29t46 -76q0 -59 -61 -83v-6q33 -9 53 -33t20 -56q0 -57 -47 -87t-132 -30t-132 30zM857 240.5q15 9.5 15 26.5t-15 26.5t-41 9.5t-41 -9.5t-15 -26.5t15 -26.5t41 -9.5t41 9.5zM864 88q17 11 17 30t-17.5 30t-47.5 11
t-47.5 -11t-17.5 -30t17 -30t48 -11t48 11z" />
    <glyph glyph-name="fiveeighths" unicode="&#x215d;" horiz-adv-x="1021" 
d="M78 345.5q-47 35.5 -47 97.5h122q0 -15 15.5 -26t38.5 -11t36.5 11.5t13.5 32.5t-13.5 32.5t-36.5 11.5q-27 0 -44 -18h-117l35 224h277v-91h-186l-7 -49h6q29 18 75 18q61 0 98.5 -34.5t37.5 -92.5q0 -65 -47 -103t-128 -38q-82 0 -129 35.5zM348 0h-140l480 700h139z
M689 20q-47 30 -47 87q0 32 20 56t53 33v6q-61 24 -61 83q0 47 46 76t121 29t121 -29t46 -76q0 -59 -61 -83v-6q33 -9 53 -33t20 -56q0 -57 -47 -87t-132 -30t-132 30zM862 240.5q15 9.5 15 26.5t-15 26.5t-41 9.5t-41 -9.5t-15 -26.5t15 -26.5t41 -9.5t41 9.5zM869 88
q17 11 17 30t-17.5 30t-47.5 11t-47.5 -11t-17.5 -30t17 -30t48 -11t48 11z" />
    <glyph glyph-name="seveneighths" unicode="&#x215e;" horiz-adv-x="935" 
d="M186 320h-125l150 275v5h-195v100h322v-92zM262 0h-140l480 700h139zM603 20q-47 30 -47 87q0 32 20 56t53 33v6q-61 24 -61 83q0 47 46 76t121 29t121 -29t46 -76q0 -59 -61 -83v-6q33 -9 53 -33t20 -56q0 -57 -47 -87t-132 -30t-132 30zM776 240.5q15 9.5 15 26.5
t-15 26.5t-41 9.5t-41 -9.5t-15 -26.5t15 -26.5t41 -9.5t41 9.5zM783 88q17 11 17 30t-17.5 30t-47.5 11t-47.5 -11t-17.5 -30t17 -30t48 -11t48 11z" />
    <glyph glyph-name="uni215F" unicode="&#x215f;" horiz-adv-x="601" 
d="M250 700v-277h93v-103h-317v103h102v147l-85 -55v114l110 71h97zM328 0h-140l480 700h139z" />
    <glyph glyph-name="arrowleft" unicode="&#x2190;" horiz-adv-x="767" 
d="M393 157l-89 -88l-253 277v6l253 278l89 -89l-105 -116v-5h429v-141h-429v-6z" />
    <glyph glyph-name="arrowup" unicode="&#x2191;" horiz-adv-x="696" 
d="M418 30h-140v412h-6l-116 -106l-88 89l277 254h6l277 -254l-88 -89l-116 106h-6v-412z" />
    <glyph glyph-name="arrowright" unicode="&#x2192;" horiz-adv-x="767" 
d="M717 346l-254 -277l-89 88l106 116v6h-429v141h429v5l-106 116l89 89l254 -278v-6z" />
    <glyph glyph-name="arrowdown" unicode="&#x2193;" horiz-adv-x="696" 
d="M351 23h-6l-277 253l88 89l116 -105h6v419h140v-419h6l116 105l88 -89z" />
    <glyph glyph-name="arrowboth" unicode="&#x2194;" horiz-adv-x="970" 
d="M393 157l-89 -88l-253 277v6l253 278l89 -89l-105 -116v-5h394v5l-105 116l89 89l253 -278v-6l-253 -277l-89 88l105 116v6h-394v-6z" />
    <glyph glyph-name="arrowupdn" unicode="&#x2195;" horiz-adv-x="696" 
d="M351 -42h-6l-277 253l88 89l116 -105h6v310h-6l-116 -105l-88 89l277 253h6l277 -253l-88 -89l-116 105h-6v-310h6l116 105l88 -89z" />
    <glyph glyph-name="uni2196" unicode="&#x2196;" horiz-adv-x="699" 
d="M628 176l-99 -100l-302 301l-3 -4v-160h-124v387l4 4h387v-124h-160l-4 -4z" />
    <glyph glyph-name="uni2197" unicode="&#x2197;" horiz-adv-x="699" 
d="M471 377l-301 -301l-99 100l301 300l-4 4h-160v124h387l4 -4v-387h-124v160z" />
    <glyph glyph-name="uni2198" unicode="&#x2198;" horiz-adv-x="699" 
d="M595 76h-387v124h160l4 4l-301 300l99 100l301 -301l4 4v160h124v-387z" />
    <glyph glyph-name="uni2199" unicode="&#x2199;" horiz-adv-x="699" 
d="M491 76h-387l-4 4v387h124v-160l3 -4l302 301l99 -100l-301 -300l4 -4h160v-124z" />
    <glyph glyph-name="minus" unicode="&#x2212;" 
d="M592 294h-492v128h492v-128z" />
    <glyph glyph-name="approxequal" unicode="&#x2248;" 
d="M384 403q-30 12 -63 33q-25 14 -38.5 20.5t-28.5 6.5q-36 0 -36 -42v-21h-118v33q0 70 35.5 109t102.5 39q40 0 70 -12t63 -33q25 -14 38.5 -20.5t28.5 -6.5q36 0 36 43v20h118v-32q0 -71 -35.5 -110t-102.5 -39q-40 0 -70 12zM384 170q-30 12 -63 33q-25 14 -38.5 20.5
t-28.5 6.5q-36 0 -36 -43v-20h-118v32q0 71 35.5 110t102.5 39q40 0 70 -12t63 -33q25 -14 38.5 -20.5t28.5 -6.5q36 0 36 42v21h118v-33q0 -70 -35.5 -109t-102.5 -39q-40 0 -70 12z" />
    <glyph glyph-name="notequal" unicode="&#x2260;" 
d="M592 535v-129h-160l-43 -74h203v-128h-278l-54 -91h-129l53 91h-84v128h159l43 74h-202v129h278l53 91h131l-54 -91h84z" />
    <glyph glyph-name="lessequal" unicode="&#x2264;" 
d="M578 368v-131l-456 140v154l456 140v-131l-295 -83v-6zM578 189v-120h-456v120h456z" />
    <glyph glyph-name="greaterequal" unicode="&#x2265;" 
d="M570 377l-456 -140v131l295 83v6l-295 83v131l456 -140v-154zM570 69h-456v120h456v-120z" />
    <glyph glyph-name="uni2460" unicode="&#x2460;" horiz-adv-x="1059" 
d="M776.5 751.5q107.5 -58.5 167 -163t59.5 -238.5t-59.5 -238.5t-167 -163t-247.5 -58.5t-247 58.5t-166.5 163t-59.5 238.5t59.5 238.5t166.5 163t247 58.5t247.5 -58.5zM710 56q77 41 118.5 117t41.5 177t-41.5 177t-118.5 117t-181 41q-103 0 -180 -41t-118.5 -117
t-41.5 -177t41.5 -177t118.5 -117t180 -41q104 0 181 41zM510 540h98v-277h93v-103h-318v103h103v147l-86 -55v114z" />
    <glyph glyph-name="uni2461" unicode="&#x2461;" horiz-adv-x="1059" 
d="M776.5 751.5q107.5 -58.5 167 -163t59.5 -238.5t-59.5 -238.5t-167 -163t-247.5 -58.5t-247 58.5t-166.5 163t-59.5 238.5t59.5 238.5t166.5 163t247 58.5t247.5 -58.5zM710 56q77 41 118.5 117t41.5 177t-41.5 177t-118.5 117t-181 41q-103 0 -180 -41t-118.5 -117
t-41.5 -177t41.5 -177t118.5 -117t180 -41q104 0 181 41zM688 359.5q-20 -26.5 -48 -39.5t-70 -26q-34 -11 -50.5 -18.5t-25.5 -19.5h216v-96h-362v41q0 52 23.5 84.5t55.5 49t79 31.5q40 13 58 23.5t18 28.5q0 31 -45 31q-25 0 -41 -11.5t-16 -30.5h-122q0 65 50.5 104
t135.5 39q77 0 120.5 -34t43.5 -88q0 -42 -20 -68.5z" />
    <glyph glyph-name="uni2462" unicode="&#x2462;" horiz-adv-x="1059" 
d="M282 -51.5q-107 58.5 -166.5 163t-59.5 238.5t59.5 238.5t166.5 163t247 58.5t247.5 -58.5t167 -163t59.5 -238.5t-59.5 -238.5t-167 -163t-247.5 -58.5t-247 58.5zM710 56q77 41 118.5 117t41.5 177t-41.5 177t-118.5 117t-181 41q-103 0 -180 -41t-118.5 -117
t-41.5 -177t41.5 -177t118.5 -117t180 -41q104 0 181 41zM397.5 186.5q-48.5 36.5 -48.5 97.5h122q0 -18 15 -28t40 -10q26 0 40.5 9.5t14.5 29.5q0 38 -58 38h-73v68l79 52v6h-146v91h294v-80l-101 -61v-6h7q55 0 89 -30t34 -79q0 -64 -48 -99t-132 -35q-80 0 -128.5 36.5z
" />
    <glyph glyph-name="uni2463" unicode="&#x2463;" horiz-adv-x="1059" 
d="M776.5 751.5q107.5 -58.5 167 -163t59.5 -238.5t-59.5 -238.5t-167 -163t-247.5 -58.5t-247 58.5t-166.5 163t-59.5 238.5t59.5 238.5t166.5 163t247 58.5t247.5 -58.5zM710 56q77 41 118.5 117t41.5 177t-41.5 177t-118.5 117t-181 41q-103 0 -180 -41t-118.5 -117
t-41.5 -177t41.5 -177t118.5 -117t180 -41q104 0 181 41zM493 540h155v-218h56v-96h-56v-66h-126v66h-200v102zM525 437l-87 -109v-6h92v115h-5z" />
    <glyph glyph-name="uni2464" unicode="&#x2464;" horiz-adv-x="1059" 
d="M282 -51.5q-107 58.5 -166.5 163t-59.5 238.5t59.5 238.5t166.5 163t247 58.5t247.5 -58.5t167 -163t59.5 -238.5t-59.5 -238.5t-167 -163t-247.5 -58.5t-247 58.5zM710 56q77 41 118.5 117t41.5 177t-41.5 177t-118.5 117t-181 41q-103 0 -180 -41t-118.5 -117
t-41.5 -177t41.5 -177t118.5 -117t180 -41q104 0 181 41zM401.5 185.5q-46.5 35.5 -46.5 97.5h122q0 -15 15 -26t38 -11t36.5 11.5t13.5 32.5t-13.5 32.5t-36.5 11.5q-27 0 -44 -18h-117l35 224h277v-91h-186l-7 -49h6q29 18 75 18q61 0 99 -35t38 -92q0 -65 -47 -103
t-128 -38q-83 0 -129.5 35.5z" />
    <glyph glyph-name="uni2465" unicode="&#x2465;" horiz-adv-x="1059" 
d="M282 -51.5q-107 58.5 -166.5 163t-59.5 238.5t59.5 238.5t166.5 163t247 58.5t247.5 -58.5t167 -163t59.5 -238.5t-59.5 -238.5t-167 -163t-247.5 -58.5t-247 58.5zM710 56q77 41 118.5 117t41.5 177t-41.5 177t-118.5 117t-181 41q-103 0 -180 -41t-118.5 -117
t-41.5 -177t41.5 -177t118.5 -117t180 -41q104 0 181 41zM400.5 190q-48.5 40 -48.5 107q0 36 14 70.5t44 76.5l71 96h124l-86 -113h6q13 4 34 4q64 0 105 -37t41 -97q0 -68 -47.5 -107.5t-128.5 -39.5q-80 0 -128.5 40zM574 255.5q16 13.5 16 36.5q0 24 -16 37t-44 13
q-27 0 -43 -13t-16 -37q0 -23 16 -36.5t43 -13.5q28 0 44 13.5z" />
    <glyph glyph-name="uni2466" unicode="&#x2466;" horiz-adv-x="1059" 
d="M282 -51.5q-107 58.5 -166.5 163t-59.5 238.5t59.5 238.5t166.5 163t247 58.5t247.5 -58.5t167 -163t59.5 -238.5t-59.5 -238.5t-167 -163t-247.5 -58.5t-247 58.5zM710 56q77 41 118.5 117t41.5 177t-41.5 177t-118.5 117t-181 41q-103 0 -180 -41t-118.5 -117
t-41.5 -177t41.5 -177t118.5 -117t180 -41q104 0 181 41zM540 160h-126l151 275v5h-196v100h322v-92z" />
    <glyph glyph-name="uni2467" unicode="&#x2467;" horiz-adv-x="1059" 
d="M282 -51.5q-107 58.5 -166.5 163t-59.5 238.5t59.5 238.5t166.5 163t247 58.5t247.5 -58.5t167 -163t59.5 -238.5t-59.5 -238.5t-167 -163t-247.5 -58.5t-247 58.5zM710 56q77 41 118.5 117t41.5 177t-41.5 177t-118.5 117t-181 41q-103 0 -180 -41t-118.5 -117
t-41.5 -177t41.5 -177t118.5 -117t180 -41q104 0 181 41zM397 180.5q-47 30.5 -47 86.5q0 32 20 56t54 33v6q-61 23 -61 83q0 47 45.5 76t120.5 29q76 0 121.5 -29t45.5 -76q0 -60 -61 -83v-6q34 -9 54 -33t20 -56q0 -57 -47.5 -87t-132.5 -30t-132 30.5zM570 400.5
q15 9.5 15 26.5t-14.5 26.5t-41.5 9.5q-26 0 -40.5 -9.5t-14.5 -26.5t14.5 -26.5t40.5 -9.5t41 9.5zM577 248q17 11 17 30t-17 30t-48 11q-30 0 -47 -11t-17 -30t17 -30t47 -11q31 0 48 11z" />
    <glyph glyph-name="uni2468" unicode="&#x2468;" horiz-adv-x="1059" 
d="M282 -51.5q-107 58.5 -166.5 163t-59.5 238.5t59.5 238.5t166.5 163t247 58.5t247.5 -58.5t167 -163t59.5 -238.5t-59.5 -238.5t-167 -163t-247.5 -58.5t-247 58.5zM710 56q77 41 118.5 117t41.5 177t-41.5 177t-118.5 117t-181 41q-103 0 -180 -41t-118.5 -117
t-41.5 -177t41.5 -177t118.5 -117t180 -41q104 0 181 41zM454 160l86 113h-5q-15 -4 -35 -4q-64 0 -105 37t-41 97q0 68 47.5 107.5t128.5 39.5t129 -40t48 -107q0 -37 -13.5 -71.5t-44.5 -75.5l-71 -96h-124zM572.5 368.5q16.5 13.5 16.5 36.5t-16.5 36.5t-43.5 13.5
t-43.5 -13.5t-16.5 -36.5t16 -36.5t44 -13.5q27 0 43.5 13.5z" />
    <glyph glyph-name="uni24EA" unicode="&#x24ea;" horiz-adv-x="1059" 
d="M282 -51.5q-107 58.5 -166.5 163t-59.5 238.5t59.5 238.5t166.5 163t247 58.5t247.5 -58.5t167 -163t59.5 -238.5t-59.5 -238.5t-167 -163t-247.5 -58.5t-247 58.5zM710 56q77 41 118.5 117t41.5 177t-41.5 177t-118.5 117t-181 41q-103 0 -180 -41t-118.5 -117
t-41.5 -177t41.5 -177t118.5 -117t180 -41q104 0 181 41zM388.5 204.5q-52.5 54.5 -52.5 145.5t52.5 145.5t140.5 54.5q89 0 141.5 -54.5t52.5 -145.5t-52.5 -145.5t-141.5 -54.5q-88 0 -140.5 54.5zM579.5 280q17.5 25 17.5 70t-17.5 70t-50.5 25q-32 0 -50 -25t-18 -70
t18 -70t50 -25q33 0 50.5 25z" />
    <glyph glyph-name="uni24FF" unicode="&#x24ff;" horiz-adv-x="1059" 
d="M282 -51.5q-107 58.5 -166.5 163t-59.5 238.5t59.5 238.5t166.5 163t247 58.5t247.5 -58.5t167 -163t59.5 -238.5t-59.5 -238.5t-167 -163t-247.5 -58.5t-247 58.5zM670.5 204.5q52.5 54.5 52.5 145.5t-52.5 145.5t-141.5 54.5q-88 0 -140.5 -54.5t-52.5 -145.5
t52.5 -145.5t140.5 -54.5q89 0 141.5 54.5zM479 280q-18 25 -18 70t18 70t50 25q33 0 50.5 -25t17.5 -70t-17.5 -70t-50.5 -25q-32 0 -50 25z" />
    <glyph glyph-name="uni2776" unicode="&#x2776;" horiz-adv-x="1059" 
d="M282 -51.5q-107 58.5 -166.5 163t-59.5 238.5t59.5 238.5t166.5 163t247 58.5t247.5 -58.5t167 -163t59.5 -238.5t-59.5 -238.5t-167 -163t-247.5 -58.5t-247 58.5zM384 263v-103h317v103h-92v277h-98l-110 -71v-114l86 54v-146h-103z" />
    <glyph glyph-name="uni2777" unicode="&#x2777;" horiz-adv-x="1059" 
d="M282.5 -52q-107.5 58 -167 162.5t-59.5 239.5t59.5 239.5t167 162.5t246.5 58q140 0 247.5 -58t167 -162t59.5 -240t-59.5 -240t-167 -162t-247.5 -58q-139 0 -246.5 58zM348 160h362v96h-216q8 12 25 19.5t51 18.5q43 14 70.5 27t47.5 39t20 68q0 54 -43.5 88t-120.5 34
q-85 0 -135.5 -39t-50.5 -104h122q0 19 16 30.5t41 11.5q45 0 45 -31q0 -18 -18 -28.5t-58 -23.5q-47 -15 -79 -31.5t-55.5 -49t-23.5 -84.5v-41z" />
    <glyph glyph-name="uni2778" unicode="&#x2778;" horiz-adv-x="1059" 
d="M282 -51.5q-107 58.5 -166.5 163t-59.5 238.5t59.5 238.5t166.5 163t247 58.5t247.5 -58.5t167 -163t59.5 -238.5t-59.5 -238.5t-167 -163t-247.5 -58.5t-247 58.5zM658 185q48 35 48 99q0 49 -34 79t-89 30h-7v6l101 61v80h-294v-91h146v-6l-79 -52v-68h73q58 0 58 -38
q0 -20 -14.5 -29.5t-40.5 -9.5q-25 0 -40 10t-15 28h-122q0 -61 48.5 -97.5t128.5 -36.5q84 0 132 35z" />
    <glyph glyph-name="uni2779" unicode="&#x2779;" horiz-adv-x="1059" 
d="M282 -51.5q-107 58.5 -166.5 163t-59.5 238.5t59.5 238.5t166.5 163t247 58.5t247.5 -58.5t167 -163t59.5 -238.5t-59.5 -238.5t-167 -163t-247.5 -58.5t-247 58.5zM523 226v-66h126v66h56v96h-56v218h-155l-171 -212v-102h200zM531 322h-92v6l87 109h5v-115z" />
    <glyph glyph-name="uni277A" unicode="&#x277a;" horiz-adv-x="1059" 
d="M282 -51.5q-107 58.5 -166.5 163t-59.5 238.5t59.5 238.5t166.5 163t247 58.5t247.5 -58.5t167 -163t59.5 -238.5t-59.5 -238.5t-167 -163t-247.5 -58.5t-247 58.5zM658 188q47 38 47 103q0 58 -37.5 92.5t-99.5 34.5q-46 0 -75 -18h-6l7 49h187v91h-278l-35 -224h117
q18 18 45 18q23 0 36 -11.5t13 -32.5t-13 -32.5t-37 -11.5q-23 0 -38 11t-15 26h-122q0 -62 46.5 -97.5t129.5 -35.5q81 0 128 38z" />
    <glyph glyph-name="uni277B" unicode="&#x277b;" horiz-adv-x="1059" 
d="M282 -51.5q-107 58.5 -166.5 163t-59.5 238.5t59.5 238.5t166.5 163t247 58.5t247.5 -58.5t167 -163t59.5 -238.5t-59.5 -238.5t-167 -163t-247.5 -58.5t-247 58.5zM657.5 189.5q47.5 39.5 47.5 107.5q0 60 -41 97t-105 37q-21 0 -34 -4h-6l86 113h-124l-71 -96
q-30 -42 -44 -76.5t-14 -70.5q0 -67 48.5 -107t128.5 -40q81 0 128.5 39.5zM487 255.5q-16 13.5 -16 36.5q0 24 16 37t43 13q28 0 44 -13t16 -37q0 -23 -16 -36.5t-44 -13.5q-27 0 -43 13.5z" />
    <glyph glyph-name="uni277C" unicode="&#x277c;" horiz-adv-x="1059" 
d="M282 -51.5q-107 58.5 -166.5 163t-59.5 238.5t59.5 238.5t166.5 163t247 58.5t247.5 -58.5t167 -163t59.5 -238.5t-59.5 -238.5t-167 -163t-247.5 -58.5t-247 58.5zM563 435l-150 -275h125l152 288v92h-322v-100h195v-5z" />
    <glyph glyph-name="uni277D" unicode="&#x277d;" horiz-adv-x="1059" 
d="M282 -51.5q-107 58.5 -166.5 163t-59.5 238.5t59.5 238.5t166.5 163t247 58.5t247.5 -58.5t167 -163t59.5 -238.5t-59.5 -238.5t-167 -163t-247.5 -58.5t-247 58.5zM661.5 180q47.5 30 47.5 87q0 32 -20 56t-54 33v6q61 23 61 83q0 47 -45.5 76t-121.5 29
q-75 0 -120.5 -29t-45.5 -76q0 -60 61 -83v-6q-34 -9 -54 -33t-20 -56q0 -56 47 -86.5t132 -30.5t132.5 30zM488.5 400.5q-14.5 9.5 -14.5 26.5t14.5 26.5t40.5 9.5q27 0 41.5 -9.5t14.5 -26.5t-15 -26.5t-41 -9.5t-40.5 9.5zM482 248q-17 11 -17 30t17 30t47 11
q31 0 48 -11t17 -30t-17 -30t-48 -11q-30 0 -47 11z" />
    <glyph glyph-name="uni277E" unicode="&#x277e;" horiz-adv-x="1059" 
d="M282 -51.5q-107 58.5 -166.5 163t-59.5 238.5t59.5 238.5t166.5 163t247 58.5t247.5 -58.5t167 -163t59.5 -238.5t-59.5 -238.5t-167 -163t-247.5 -58.5t-247 58.5zM452 160h123l72 96q30 41 43.5 75.5t13.5 71.5q0 67 -48 107t-129 40q-80 0 -127.5 -39.5t-47.5 -107.5
q0 -60 40.5 -97t105.5 -37q19 0 34 4h6zM483 368.5q-16 13.5 -16 36.5t16 36.5t43 13.5q28 0 44 -13.5t16 -36.5t-16 -36.5t-44 -13.5q-27 0 -43 13.5z" />
    <glyph glyph-name="uniE900" unicode="&#xe900;" horiz-adv-x="869" 
d="M255 22q-93 36 -142 104.5t-49 164.5v409h200v-394q0 -157 214 -157q74 0 107.5 17.5t33.5 52.5q0 34 -29.5 52.5t-92.5 39.5t-102.5 41.5t-68.5 60.5t-29 104q0 94 68.5 145.5t189.5 51.5q84 0 144.5 -29t92.5 -79.5t32 -113.5h-202q0 31 -17.5 49t-51.5 18
q-26 0 -40 -9t-14 -26q0 -20 23.5 -33.5t75.5 -32.5q69 -25 115.5 -49.5t81 -72t34.5 -120.5q0 -115 -92.5 -172.5t-258.5 -57.5q-130 0 -223 36z" />
    <glyph glyph-name="uni0498.loclBSH" unicode="&#xf50a;" horiz-adv-x="725" 
d="M616 47q-71 -53 -212 -60q55 -46 55 -111q0 -112 -123 -112q-35 0 -63 14v80q20 -8 41 -8q49 0 49 47q0 46 -56 91q-139 9 -206 66t-67 163h209q0 -35 31 -54t87 -19q116 0 116 73q0 37 -26.5 55t-85.5 18h-77v134h77q89 0 89 66q0 31 -23.5 48.5t-69.5 17.5
q-50 0 -80 -19.5t-30 -51.5h-209q0 106 85 167.5t240 61.5q143 0 220 -50.5t77 -143.5q0 -53 -29.5 -91.5t-84.5 -58.5v-6q63 -14 100 -59.5t37 -107.5q0 -97 -71 -150z" />
    <glyph glyph-name="uni0499.loclBSH" unicode="&#xf50b;" horiz-adv-x="621" 
d="M526 29q-57 -39 -162 -46q50 -45 50 -107q0 -112 -123 -112q-35 0 -63 14v80q20 -8 41 -8q49 0 49 47q0 44 -50 86q-121 7 -179 55t-58 130h183q0 -23 23.5 -36.5t68.5 -13.5t68 12t23 34q0 21 -20 31t-66 10h-57v107h57q37 0 53.5 9t16.5 28t-19 30t-56 11
q-40 0 -63 -14.5t-23 -33.5h-183q0 86 72 135.5t207 49.5q116 0 183.5 -39t67.5 -109q0 -43 -24.5 -71.5t-68.5 -40.5v-6q53 -10 81 -42.5t28 -81.5q0 -69 -57 -108z" />
    <glyph glyph-name="uni04AA.loclCHU" unicode="&#xf50c;" horiz-adv-x="804" 
d="M770 257q-16 -116 -99.5 -188t-218.5 -82l-17 -22q46 -6 70.5 -29.5t24.5 -63.5q0 -49 -34.5 -78.5t-96.5 -29.5q-50 0 -85 14v80q35 -8 66 -8q54 0 54 28q0 25 -45 25h-38v48l27 36q-102 7 -178.5 54.5t-118.5 127t-42 181.5q0 108 46.5 190.5t132 128t197.5 45.5
q99 0 175 -34t121.5 -96t56.5 -144h-209q-10 48 -49 76t-95 28q-74 0 -118 -52t-44 -142t44 -142t118 -52q57 0 95 26.5t50 74.5h210z" />
    <glyph glyph-name="uni04AB.loclCHU" unicode="&#xf50d;" horiz-adv-x="651" 
d="M619 203q0 -60 -33 -108.5t-91 -78t-132 -34.5l-13 -17q46 -6 70.5 -29.5t24.5 -63.5q0 -49 -34.5 -78.5t-96.5 -29.5q-50 0 -85 14v80q35 -8 66 -8q54 0 54 28q0 25 -45 25h-38v48l24 32q-74 9 -131.5 44t-90 93.5t-32.5 133.5q0 83 38.5 145t106.5 95t155 33
q80 0 143 -27.5t99 -77t36 -112.5h-184q-18 64 -98 64q-51 0 -82 -31t-31 -89t31 -89t82 -31q43 0 69.5 17.5t33.5 51.5h184z" />
    <glyph glyph-name="uniF51A" unicode="&#xf51a;" horiz-adv-x="846" 
d="M222 31.5q-87 45.5 -135 128t-48 190.5t48 190.5t135 128t201 45.5t201 -45.5t135 -128t48 -190.5t-48 -190.5t-135 -128t-201 -45.5t-201 45.5zM547.5 208.5q46.5 52.5 46.5 141.5t-46.5 141.5t-124.5 52.5t-124 -52t-46 -142t46 -142t124 -52t124.5 52.5zM264.5 806.5
q-54.5 42.5 -54.5 124.5h120q0 -31 25 -48.5t68 -17.5t68.5 17.5t25.5 48.5h120q0 -82 -55 -124.5t-159 -42.5t-158.5 42.5z" />
    <glyph glyph-name="uniF51B" unicode="&#xf51b;" horiz-adv-x="661" 
d="M178.5 14q-66.5 33 -104.5 95t-38 145t38 145t104.5 95t151.5 33t152 -33t105 -95t38 -145t-38 -145t-105 -95t-152 -33t-151.5 33zM409 165.5q29 31.5 29 88.5t-28.5 88.5t-79.5 31.5q-50 0 -78.5 -31.5t-28.5 -88.5t28.5 -88.5t78.5 -31.5t79 31.5zM171.5 622.5
q-54.5 42.5 -54.5 124.5h120q0 -32 25 -51t68 -19q44 0 69 19t25 51h120q0 -82 -55 -124.5t-159 -42.5t-158.5 42.5z" />
    <glyph glyph-name="uniF524" unicode="&#xf524;" horiz-adv-x="804" 
d="M589.5 668.5q83.5 -45.5 129.5 -128t46 -190.5t-46 -190.5t-129.5 -128t-193.5 -45.5q-102 0 -180 33.5t-124.5 94.5t-57.5 143h209q13 -49 52.5 -75t100.5 -26q57 0 95.5 33.5t52.5 94.5h-215v140h213q-15 57 -53 88.5t-93 31.5q-60 0 -100.5 -28t-51.5 -76h-208
q10 82 56.5 144t124 96t179.5 34q110 0 193.5 -45.5zM241.5 806.5q-54.5 42.5 -54.5 124.5h120q0 -31 25 -48.5t68 -17.5t68.5 17.5t25.5 48.5h120q0 -82 -55 -124.5t-159 -42.5t-158.5 42.5z" />
    <glyph glyph-name="uniF525" unicode="&#xf525;" horiz-adv-x="651" 
d="M473 494q67 -33 104 -95t37 -145t-37 -145t-104 -95t-154 -33q-81 0 -145.5 28.5t-102.5 79t-40 114.5h184q8 -35 37.5 -53.5t70.5 -18.5q83 0 105 70h-155v100h157q-10 38 -37.5 57.5t-69.5 19.5q-39 0 -66.5 -17t-36.5 -51h-184q2 63 39.5 112.5t101 77t143.5 27.5
q86 0 153 -33zM163.5 622.5q-54.5 42.5 -54.5 124.5h120q0 -32 25 -51t68 -19q44 0 69 19t25 51h120q0 -82 -55 -124.5t-159 -42.5t-158.5 42.5z" />
    <glyph glyph-name="uniF536" unicode="&#xf536;" horiz-adv-x="1009" 
d="M358 495q310 0 310 -248q0 -247 -310 -247h-284v700h200v-205h84zM735 0v700h200v-700h-200zM356 165q50 0 76 21t26 61q0 82 -102 82h-82v-164h82zM345.5 806.5q-54.5 42.5 -54.5 124.5h120q0 -31 25 -48.5t68 -17.5t68.5 17.5t25.5 48.5h120q0 -82 -55 -124.5
t-159 -42.5t-158.5 42.5z" />
    <glyph glyph-name="uniF537" unicode="&#xf537;" horiz-adv-x="853" 
d="M318 366q110 0 167 -45.5t57 -134.5q0 -91 -57 -138.5t-167 -47.5h-252v509h178v-143h74zM606 0v509h181v-509h-181zM286 128q69 0 69 58q0 27 -17.5 41.5t-51.5 14.5h-42v-114h42zM268.5 622.5q-54.5 42.5 -54.5 124.5h120q0 -32 25 -51t68 -19q44 0 69 19t25 51h120
q0 -82 -55 -124.5t-159 -42.5t-158.5 42.5z" />
    <glyph glyph-name="uni0492.loclBSH" unicode="&#xf53c;" horiz-adv-x="684" 
d="M659 700v-157h-385v-166h315v-148h-315v-229h-200v700h585z" />
    <glyph glyph-name="uni0493.loclBSH" unicode="&#xf53d;" horiz-adv-x="521" 
d="M511 509v-157h-263v-90h208v-128h-208v-134h-182v509h445z" />
    <glyph glyph-name="uni04AA.loclBSH" unicode="&#xf53e;" horiz-adv-x="804" 
d="M770 257q-15 -113 -95.5 -185t-210.5 -84q57 -45 57 -112q0 -112 -123 -112q-35 0 -63 14v80q20 -8 41 -8q49 0 49 47t-57 91q-99 9 -173.5 57t-115 126.5t-40.5 178.5q0 108 46.5 190.5t132 128t197.5 45.5q99 0 175 -34t121.5 -96t56.5 -144h-209q-10 48 -49 76t-95 28
q-74 0 -118 -52t-44 -142t44 -142t118 -52q57 0 95 26.5t50 74.5h210z" />
    <glyph glyph-name="uni04AB.loclBSH" unicode="&#xf53f;" horiz-adv-x="651" 
d="M619 203q0 -58 -31 -105.5t-85.5 -77.5t-124.5 -37q51 -44 51 -107q0 -112 -123 -112q-35 0 -63 14v80q20 -8 41 -8q49 0 49 47q0 44 -53 88q-110 15 -177 87t-67 182q0 83 38.5 145t106.5 95t155 33q80 0 143 -27.5t99 -77t36 -112.5h-184q-18 64 -98 64q-51 0 -82 -31
t-31 -89t31 -89t82 -31q43 0 69.5 17.5t33.5 51.5h184z" />
    <glyph glyph-name="uniF8FF" unicode="&#xf8ff;" horiz-adv-x="1538" 
d="M206 230h-35v199h-71v31h178v-31h-72v-199zM867 230h-35v199h-71v31h178v-31h-72v-199zM438 169v224h24l9 -19q19 22 48 22q32 0 54.5 -25t22.5 -59q0 -36 -22.5 -60.5t-54.5 -24.5q-29 0 -47 21v-79h-34zM646 251.5q-23 24.5 -23 60.5q0 35 23 59.5t55 24.5t54 -24.5
t22 -58.5q0 -8 -1 -15h-119q2 -17 14.5 -28.5t29.5 -11.5q28 0 37 16h35q-9 -22 -28.5 -34.5t-43.5 -12.5q-32 0 -55 24.5zM1099 169v224h24l9 -19q19 22 48 22q32 0 54.5 -25t22.5 -59q0 -36 -22.5 -60.5t-54.5 -24.5q-29 0 -47 21v-79h-34zM1307 251.5q-23 24.5 -23 60.5
q0 35 23 59.5t55 24.5t54 -24.5t22 -58.5q0 -8 -1 -15h-119q2 -17 14.5 -28.5t29.5 -11.5q28 0 37 16h35q-9 -22 -28.5 -34.5t-43.5 -12.5q-32 0 -55 24.5zM278 170v28q23 0 31 20l6 16l-63 159h37l44 -116l44 116h37l-77 -190q-6 -15 -19 -24.5t-30 -9.5q-7 0 -10 1z
M939 170v28q23 0 31 20l6 16l-63 159h37l44 -116l44 116h37l-77 -190q-6 -15 -19 -24.5t-30 -9.5q-7 0 -10 1zM549 274q14 16 14 38t-14 37.5t-33 15.5t-33 -15.5t-14 -37.5t13.5 -38t33.5 -16q19 0 33 16zM745 325q-1 17 -14.5 28.5t-29.5 11.5t-29 -11t-15 -29h88z
M1210 274q14 16 14 38t-14 37.5t-33 15.5t-33 -15.5t-14 -37.5t13.5 -38t33.5 -16q19 0 33 16zM1406 325q-1 17 -14.5 28.5t-29.5 11.5t-29 -11t-15 -29h88z" />
    <glyph glyph-name="f_l" unicode="&#xfb02;" horiz-adv-x="745" 
d="M674 434v-434h-182v465q0 51 -25.5 79t-72.5 28q-38 0 -63 -16t-34 -47h114v-140h-114v-369h-181v369h-105v115l112 28q18 99 86.5 150.5t184.5 51.5q280 0 280 -280z" />
    <glyph glyph-name="f_f_l" unicode="&#xfb04;" horiz-adv-x="1122" 
d="M1050 434v-434h-181v465q0 51 -25.5 79t-73.5 28q-38 0 -62.5 -16t-33.5 -47h114v-140h-114v-369h-182v369h-195v-369h-181v369h-105v115l107 27q9 104 67.5 153.5t168.5 49.5q54 0 100 -10v-134q-29 6 -63 6q-42 0 -66 -16t-30 -51h203q18 101 87 153t185 52
q280 0 280 -280z" />
    <glyph glyph-name="Iacute_J.loclNLD" horiz-adv-x="1064" 
d="M284 0h-200v700h200v-700zM244 767h-127l73 171h177zM474 58q-78 72 -78 199v30h200v-30q0 -46 27 -73.5t78 -27.5q50 0 77 27.5t27 73.5v278h-279v165h479v-443q0 -126 -78 -198.5t-226 -72.5q-149 0 -227 72zM833 767h-127l73 171h177z" />
    <glyph glyph-name="i.loclTRK" horiz-adv-x="324" 
d="M253 0h-182v509h182v-509zM91.5 598q-27.5 26 -27.5 67t27.5 67t70.5 26t70.5 -26t27.5 -67t-27.5 -67t-70.5 -26t-70.5 26z" />
    <glyph glyph-name="iacute_j.loclNLD" horiz-adv-x="658" 
d="M253 0h-182v509h182v-509zM216 580h-118l81 187h168zM269 -204v149q23 -6 50 -6q44 0 65 21t21 73v476h182v-496q0 -111 -60 -169t-174 -58q-50 0 -84 10zM550 580h-118l81 187h168z" />
    <glyph glyph-name="c_h" horiz-adv-x="1386" 
d="M1270 465.5q55 -57.5 55 -159.5v-306h-182v241q0 52 -26.5 82.5t-73.5 30.5q-52 0 -81.5 -30.5t-29.5 -82.5v-241h-181v544q0 55 -22 84t-65 29q-47 0 -72 -27.5t-25 -78.5q0 -38 7 -70.5t20 -74.5q2 -5 8 -26t9 -38t3 -32h-184q-18 64 -98 64q-51 0 -82 -31t-31 -89
t31 -89t82 -31q43 0 69.5 17.5t33.5 51.5h184q0 -64 -37 -114.5t-101.5 -79t-145.5 -28.5q-86 0 -154 33.5t-106.5 95.5t-38.5 144q0 83 38.5 145t106.5 95t155 33q43 0 79 -9q-5 35 -5 64q0 69 34 121t95.5 79.5t140.5 27.5q125 0 188.5 -65t63.5 -193v-119h6
q24 40 71.5 65t109.5 25q96 0 151 -57.5z" />
    <glyph glyph-name="c_k" horiz-adv-x="1318" 
d="M1327 0h-210l-185 241v-241h-181v544q0 55 -22 83.5t-65 28.5q-46 0 -71.5 -27.5t-25.5 -77.5q0 -38 7 -70.5t20 -74.5q2 -5 8 -26t9 -38t3 -32h-184q-18 64 -96 64q-52 0 -83.5 -31t-31.5 -89t31 -89t82 -31q43 0 69.5 17.5t33.5 51.5h184q0 -64 -37 -114.5t-101.5 -79
t-145.5 -28.5q-86 0 -154 33.5t-106.5 95.5t-38.5 144q0 83 38.5 145t106.5 95t156 33q36 0 78 -7q-5 33 -5 62q0 69 34 120.5t95.5 79t140.5 27.5q125 0 188.5 -65t63.5 -192v-276l172 233h194l-188 -242z" />
    </font>
</defs>
</svg>
