<?xml version="1.0" standalone="no"?>
<!DOCTYPE svg PUBLIC "-//W3C//DTD SVG 1.1//EN" "http://www.w3.org/Graphics/SVG/1.1/DTD/svg11.dtd" >
<svg xmlns="http://www.w3.org/2000/svg" xmlns:xlink="http://www.w3.org/1999/xlink" version="1.1">
<metadata>
Created by FontForge 20201107 at Fri Sep 26 14:20:03 2025
 By 
Copyright (c) 2024 by TypeType. All rights reserved. Special version for HSE by TT (26 sept 2025).
</metadata>
<defs>
<font id="TTTravelsTextEdu-XBlack" horiz-adv-x="700" >
  <font-face 
    font-family="TT Travels Text Edu ExtraBlack"
    font-weight="950"
    font-stretch="normal"
    units-per-em="1000"
    panose-1="2 11 0 3 4 0 0 2 2 4"
    ascent="800"
    descent="-200"
    x-height="510"
    cap-height="700"
    bbox="-540 -320 1510 1100"
    underline-thickness="90"
    underline-position="-200"
    unicode-range="U+000D-FB04"
  />
<missing-glyph horiz-adv-x="900" 
d="M100 0v284h45v-139h33v139h50v31h-128v126l19 -61h23l34 106l33 -106h23l54 170h-32l-34 -110l-35 110h-19l-35 -110l-31 103v157h700v-150h-110v-170h110v-91q-6 13 -19.5 20t-30.5 7q-27 0 -43.5 -14.5t-16.5 -34.5q0 -22 14.5 -32.5t39.5 -17.5q17 -5 25.5 -9.5
t8.5 -13.5q0 -21 -28 -21q-14 0 -21 7t-7 18h-33q0 -24 17 -39.5t44 -15.5q17 0 30.5 6.5t19.5 13.5v-163h-700zM311 380h33v62h24l35 -62h37l-40 67q36 17 36 50q0 22 -16 37.5t-41 15.5h-68v-170zM469 550v-170h33v170h-33zM580 519v-139h32v139h50v31h-132v-31h50z
M344 473v46h35q10 0 17 -6.5t7 -16.5q0 -12 -7.5 -17.5t-16.5 -5.5h-35zM800 483h-78v36h78v-36zM800 411h-78v41h78v-41zM387.5 167.5q22.5 24.5 22.5 61.5t-23 62t-59 25t-59 -25t-23 -62t22.5 -61.5t59.5 -24.5t59.5 24.5zM633 162q19 19 19 47v106h-32v-106
q0 -15 -9.5 -25t-25.5 -10q-17 0 -26.5 10.5t-9.5 24.5v106h-32v-106q0 -28 19.5 -47t48.5 -19t48 19zM800 224q-15 14 -46 22q-16 5 -23 9t-7 12q0 9 7.5 14.5t18.5 5.5q10 0 18 -7t8 -18h24v-38zM291.5 190q-14.5 16 -14.5 39q0 25 14 40.5t37 15.5q24 0 37.5 -15.5
t13.5 -40.5q0 -23 -14.5 -39t-36.5 -16t-36.5 16z" />
    <glyph glyph-name="f_f" unicode="ff" horiz-adv-x="860" 
d="M702 510h143v-150h-140v-360h-200v360h-190v-360h-200v360h-105v125l107 27q10 104 70 153.5t174 49.5q51 0 104 -11v-139q-32 5 -60 5q-80 0 -93 -60h195q10 106 70 155.5t174 49.5q57 0 114 -11v-139q-35 5 -70 5q-80 0 -93 -60z" />
    <glyph glyph-name="f_i" unicode="fi" horiz-adv-x="775" 
d="M529.5 593q-29.5 28 -29.5 72t29.5 72t75.5 28q45 0 75 -28.5t30 -71.5t-30 -71.5t-75 -28.5q-46 0 -75.5 28zM312 510h393v-510h-200v360h-190v-360h-200v360h-105v125l107 27q10 104 70 153.5t174 49.5q37 0 75 -8v-138q-10 1 -31 1q-80 0 -93 -60z" />
    <glyph glyph-name="f_f_i" unicode="ffi" horiz-adv-x="1165" 
d="M919.5 593q-29.5 28 -29.5 72t29.5 72t75.5 28q45 0 75 -28.5t30 -71.5t-30 -71.5t-75 -28.5q-46 0 -75.5 28zM702 510h393v-510h-200v360h-190v-360h-200v360h-190v-360h-200v360h-105v125l107 27q10 104 70 153.5t174 49.5q51 0 104 -11v-139q-32 5 -60 5
q-80 0 -93 -60h195q10 106 70 155.5t174 49.5q37 0 75 -8v-138q-10 1 -31 1q-80 0 -93 -60z" />
    <glyph glyph-name="f_f_j" unicode="ffj" horiz-adv-x="1165" 
d="M919.5 593q-29.5 28 -29.5 72t29.5 72t75.5 28q45 0 75 -28.5t30 -71.5t-30 -71.5t-75 -28.5q-46 0 -75.5 28zM702 510h393v-491q0 -113 -63 -173.5t-182 -60.5q-51 0 -85 10v160q23 -5 47 -5q42 0 62.5 21t20.5 69v320h-190v-360h-200v360h-190v-360h-200v360h-105v125
l107 27q10 104 70 153.5t174 49.5q51 0 104 -11v-139q-32 5 -60 5q-80 0 -93 -60h195q10 106 70 155.5t174 49.5q37 0 75 -8v-138q-10 1 -31 1q-80 0 -93 -60z" />
    <glyph glyph-name="f_j" unicode="fj" horiz-adv-x="775" 
d="M529.5 593q-29.5 28 -29.5 72t29.5 72t75.5 28q45 0 75 -28.5t30 -71.5t-30 -71.5t-75 -28.5q-46 0 -75.5 28zM312 510h393v-491q0 -113 -63 -173.5t-182 -60.5q-51 0 -85 10v160q23 -5 47 -5q42 0 62.5 21t20.5 69v320h-190v-360h-200v360h-105v125l107 27
q10 104 70 153.5t174 49.5q37 0 75 -8v-138q-10 1 -31 1q-80 0 -93 -60z" />
    <glyph glyph-name=".notdef" horiz-adv-x="900" 
d="M100 0v284h45v-139h33v139h50v31h-128v126l19 -61h23l34 106l33 -106h23l54 170h-32l-34 -110l-35 110h-19l-35 -110l-31 103v157h700v-150h-110v-170h110v-91q-6 13 -19.5 20t-30.5 7q-27 0 -43.5 -14.5t-16.5 -34.5q0 -22 14.5 -32.5t39.5 -17.5q17 -5 25.5 -9.5
t8.5 -13.5q0 -21 -28 -21q-14 0 -21 7t-7 18h-33q0 -24 17 -39.5t44 -15.5q17 0 30.5 6.5t19.5 13.5v-163h-700zM311 380h33v62h24l35 -62h37l-40 67q36 17 36 50q0 22 -16 37.5t-41 15.5h-68v-170zM469 550v-170h33v170h-33zM580 519v-139h32v139h50v31h-132v-31h50z
M344 473v46h35q10 0 17 -6.5t7 -16.5q0 -12 -7.5 -17.5t-16.5 -5.5h-35zM800 483h-78v36h78v-36zM800 411h-78v41h78v-41zM387.5 167.5q22.5 24.5 22.5 61.5t-23 62t-59 25t-59 -25t-23 -62t22.5 -61.5t59.5 -24.5t59.5 24.5zM633 162q19 19 19 47v106h-32v-106
q0 -15 -9.5 -25t-25.5 -10q-17 0 -26.5 10.5t-9.5 24.5v106h-32v-106q0 -28 19.5 -47t48.5 -19t48 19zM800 224q-15 14 -46 22q-16 5 -23 9t-7 12q0 9 7.5 14.5t18.5 5.5q10 0 18 -7t8 -18h24v-38zM291.5 190q-14.5 16 -14.5 39q0 25 14 40.5t37 15.5q24 0 37.5 -15.5
t13.5 -40.5q0 -23 -14.5 -39t-36.5 -16t-36.5 16z" />
    <glyph glyph-name=".null" horiz-adv-x="0" 
 />
    <glyph glyph-name="nonmarkingreturn" unicode="&#xd;" horiz-adv-x="500" 
 />
    <glyph glyph-name="space" unicode=" " horiz-adv-x="250" 
 />
    <glyph glyph-name="exclam" unicode="!" horiz-adv-x="340" 
d="M244 240h-149l-25 329v131h200v-131zM92 19q-32 29 -32 76t32 76t78 29t78 -29t32 -76t-32 -76t-78 -29t-78 29z" />
    <glyph glyph-name="quotedbl" unicode="&#x22;" horiz-adv-x="510" 
d="M200 410h-130l-20 210v80h170v-80zM440 410h-130l-20 210v80h170v-80z" />
    <glyph glyph-name="numbersign" unicode="#" horiz-adv-x="730" 
d="M720 550v-130h-127l-34 -140h91v-130h-123l-36 -150h-154l36 150h-120l-36 -150h-154l36 150h-89v130h121l34 140h-85v130h117l36 150h154l-36 -150h120l36 150h154l-36 -150h95zM285 280h120l34 140h-120z" />
    <glyph glyph-name="dollar" unicode="$" horiz-adv-x="755" 
d="M652.5 59.5q-67.5 -57.5 -194.5 -70.5v-104h-160v104q-131 15 -197 74t-66 152h230q0 -32 31.5 -48.5t87.5 -16.5q106 0 106 50q0 31 -35.5 44.5t-113.5 25.5q-89 14 -147.5 32t-101 63t-42.5 126q0 89 64 147.5t184 72.5v104h160v-106q114 -17 175.5 -75t61.5 -144h-230
q0 28 -25.5 44t-72.5 16q-42 0 -64.5 -12t-22.5 -35q0 -30 35.5 -43.5t112.5 -25.5q89 -15 147.5 -33t101.5 -63.5t43 -125.5q0 -95 -67.5 -152.5z" />
    <glyph glyph-name="percent" unicode="%" horiz-adv-x="925" 
d="M115.5 377.5q-42.5 22.5 -66.5 63.5t-24 94t24 94t66.5 63.5t97.5 22.5t97.5 -22.5t66.5 -63.5t24 -94t-24 -94t-66.5 -63.5t-97.5 -22.5t-97.5 22.5zM297 0h-148l480 700h148zM255.5 487q15.5 17 15.5 48t-15.5 48t-42.5 17t-42.5 -17t-15.5 -48t15.5 -48t42.5 -17
t42.5 17zM614.5 7.5q-42.5 22.5 -66.5 63.5t-24 94t24 94t66.5 63.5t97.5 22.5t97.5 -22.5t66.5 -63.5t24 -94t-24 -94t-66.5 -63.5t-97.5 -22.5t-97.5 22.5zM754.5 117q15.5 17 15.5 48t-15.5 48t-42.5 17t-42.5 -17t-15.5 -48t15.5 -48t42.5 -17t42.5 17z" />
    <glyph glyph-name="ampersand" unicode="&#x26;" horiz-adv-x="835" 
d="M630 0q0 37 -15 68q-103 -83 -271 -83q-141 0 -220 56.5t-79 157.5q0 56 25.5 102.5t76.5 77.5v6q-36 26 -53 59t-17 77q0 55 31.5 99t97 69.5t161.5 25.5q94 0 164.5 -28t109 -77.5t38.5 -114.5h-205q0 28 -28 44t-79 16q-75 0 -75 -41q0 -22 31.5 -40.5t108.5 -52.5
q76 -32 122 -55q2 30 2 49h200q0 -92 -25 -172q99 -102 99 -243h-200zM496 196q-77 53 -210 107q-16 -19 -23.5 -37.5t-7.5 -41.5q0 -37 30 -58t82 -21q83 0 129 51z" />
    <glyph glyph-name="quotesingle" unicode="'" horiz-adv-x="270" 
d="M200 410h-130l-20 210v80h170v-80z" />
    <glyph glyph-name="parenleft" unicode="(" horiz-adv-x="475" 
d="M465 -250q-116 0 -210.5 62.5t-149.5 182.5t-55 285t55 285t149.5 182.5t210.5 62.5v-165q-54 0 -101 -44.5t-75.5 -128t-28.5 -192.5t28.5 -192.5t75.5 -128t101 -44.5v-165z" />
    <glyph glyph-name="parenright" unicode=")" horiz-adv-x="475" 
d="M10 -85q54 0 101 44.5t75.5 128t28.5 192.5t-28.5 192.5t-75.5 128t-101 44.5v165q116 0 210.5 -62.5t149.5 -182.5t55 -285t-55 -285t-149.5 -182.5t-210.5 -62.5v165z" />
    <glyph glyph-name="asterisk" unicode="*" horiz-adv-x="480" 
d="M236 623q-3 14 -10.5 24.5t-21.5 26.5q-19 21 -28.5 37.5t-9.5 40.5q0 28 20.5 45.5t53.5 17.5t53.5 -17.5t20.5 -45.5q0 -24 -9.5 -40.5t-28.5 -37.5q-14 -16 -21.5 -26.5t-10.5 -24.5h-8zM216 595q-28 0 -70 -16q-33 -11 -46 -11q-29 0 -49.5 17t-20.5 47q0 31 19 57.5
t49 26.5t47 -16.5t37 -49.5q19 -35 36 -47zM262 603q17 12 36 47q20 33 37 49.5t47 16.5t49 -26.5t19 -57.5q0 -30 -20.5 -47t-49.5 -17q-12 0 -48 12q-17 6 -35 10.5t-33 4.5zM102.5 424q-26.5 24 -26.5 53q0 18 14 37t31.5 26.5t45.5 12.5q38 6 57 20l6 -4q-6 -13 -6 -27
q0 -7 1 -22.5t1 -34.5q0 -37 -18.5 -61t-48.5 -24t-56.5 24zM272 424.5q-18 24.5 -18 59.5q0 22 1 37.5t1 21.5q0 13 -6 26l6 4q19 -14 57 -20q28 -5 45.5 -12.5t31.5 -26.5t14 -37q0 -28 -26.5 -52.5t-56.5 -24.5q-31 0 -49 24.5z" />
    <glyph glyph-name="plus" unicode="+" 
d="M423 425h177v-135h-177v-165h-145v165h-178v135h178v165h145v-165z" />
    <glyph glyph-name="comma" unicode="," horiz-adv-x="283" 
d="M223 168q30 -32 30 -78q0 -35 -11 -71t-32 -81l-56 -118h-87l53 171q-39 6 -64.5 33t-25.5 69q0 48 31.5 77.5t79.5 29.5q52 0 82 -32z" />
    <glyph glyph-name="hyphen" unicode="-" horiz-adv-x="330" 
d="M300 195h-270v135h270v-135z" />
    <glyph glyph-name="period" unicode="." horiz-adv-x="280" 
d="M62 19q-32 29 -32 76t32 76t78 29t78 -29t32 -76t-32 -76t-78 -29t-78 29z" />
    <glyph glyph-name="slash" unicode="/" horiz-adv-x="535" 
d="M154 -120h-154l381 820h154z" />
    <glyph glyph-name="zero" unicode="0" horiz-adv-x="780" 
d="M211 31q-80 46 -125.5 129t-45.5 190t45.5 190t125.5 129t179 46t179 -46t125.5 -129t45.5 -190t-45.5 -190t-125.5 -129t-179 -46t-179 46zM474.5 217.5q30.5 47.5 30.5 132.5t-30.5 132.5t-84.5 47.5t-84.5 -47.5t-30.5 -132.5t30.5 -132.5t84.5 -47.5t84.5 47.5z" />
    <glyph glyph-name="one" unicode="1" horiz-adv-x="590" 
d="M435 700v-515h150v-185h-545v185h175v278l-155 -101v211l196 127h179z" />
    <glyph glyph-name="two" unicode="2" horiz-adv-x="705" 
d="M675 170v-170h-645v70q0 106 43.5 172t102 98.5t146.5 64.5q48 18 73 29.5t41.5 27.5t16.5 38q0 24 -19.5 37t-58.5 13q-51 0 -80.5 -26t-29.5 -64h-220q0 76 40 134t115 89.5t175 31.5q146 0 222 -55.5t76 -150.5q0 -71 -38 -118.5t-89.5 -74.5t-132.5 -57
q-69 -25 -102 -43t-36 -46h400z" />
    <glyph glyph-name="three" unicode="3" horiz-adv-x="710" 
d="M110 49.5q-80 64.5 -80 185.5h220q0 -41 27 -63t73 -22q47 0 73.5 19.5t26.5 56.5q0 74 -101 74h-178v117l204 117v6h-308v160h567v-160l-209 -112v-6h18q109 0 168 -55t59 -146q0 -112 -82 -174t-238 -62q-160 0 -240 64.5z" />
    <glyph glyph-name="four" unicode="4" horiz-adv-x="730" 
d="M625 300h90v-170h-90v-130h-220v130h-385v170l317 400h288v-400zM236 306v-6h169v210h-6z" />
    <glyph glyph-name="five" unicode="5" horiz-adv-x="725" 
d="M130 48.5q-85 63.5 -85 181.5h220q0 -35 28 -57.5t72 -22.5q49 0 74.5 22.5t25.5 63.5q0 39 -27 61.5t-72 22.5q-54 0 -88 -40h-213l60 420h517v-170h-343l-15 -93h6q50 33 137 33q78 0 136 -28.5t90 -81t32 -124.5q0 -119 -84.5 -185t-232.5 -66q-153 0 -238 63.5z" />
    <glyph glyph-name="six" unicode="6" horiz-adv-x="730" 
d="M193 16.5q-74 31.5 -113.5 90.5t-39.5 138q0 68 27.5 134.5t82.5 136.5l145 184h231l-176 -212h6q21 8 68 8q80 0 141.5 -31.5t95.5 -88t34 -130.5q0 -78 -41 -137t-115.5 -91.5t-172.5 -32.5q-99 0 -173 31.5zM445 175q30 25 30 69q0 45 -30 70.5t-78 25.5
q-47 0 -77 -25.5t-30 -70.5q0 -44 30 -69t77 -25q48 0 78 25z" />
    <glyph glyph-name="seven" unicode="7" horiz-adv-x="585" 
d="M300 0h-237l279 519v6h-332v175h565v-170z" />
    <glyph glyph-name="eight" unicode="8" horiz-adv-x="720" 
d="M112 40q-87 55 -87 157q0 60 37 107t96 62v6q-52 19 -81 59.5t-29 91.5q0 58 38.5 101.5t109 67t164.5 23.5t164.5 -23.5t109 -67t38.5 -101.5q0 -51 -29 -91.5t-81 -59.5v-6q59 -15 96 -62t37 -107q0 -102 -87 -157t-248 -55t-248 55zM431 439.5q26 19.5 26 53.5t-26 53
t-71 19t-71 -19t-26 -53t26 -53.5t71 -19.5t71 19.5zM448 156.5q32 21.5 32 58.5q0 38 -32 59t-88 21t-88 -21t-32 -59q0 -37 32 -58.5t88 -21.5t88 21.5z" />
    <glyph glyph-name="nine" unicode="9" horiz-adv-x="730" 
d="M204 0l176 212h-6q-21 -8 -68 -8q-80 0 -141.5 31.5t-95.5 88t-34 130.5q0 78 41 137t115.5 91.5t172.5 32.5q99 0 173 -31.5t113.5 -90.5t39.5 -138q0 -68 -27.5 -134.5t-82.5 -136.5l-145 -184h-231zM440 385.5q30 25.5 30 70.5q0 44 -30 69t-77 25q-48 0 -78 -25
t-30 -69q0 -45 30 -70.5t78 -25.5q47 0 77 25.5z" />
    <glyph glyph-name="colon" unicode=":" horiz-adv-x="280" 
d="M62 329q-32 29 -32 76t32 76t78 29t78 -29t32 -76t-32 -76t-78 -29t-78 29zM62 19q-32 29 -32 76t32 76t78 29t78 -29t32 -76t-32 -76t-78 -29t-78 29z" />
    <glyph glyph-name="semicolon" unicode=";" horiz-adv-x="283" 
d="M63 329q-32 29 -32 76t32 76t78 29t78 -29t32 -76t-32 -76t-78 -29t-78 29zM223 168q30 -32 30 -78q0 -35 -11 -71t-32 -81l-56 -118h-87l53 171q-39 6 -64.5 33t-25.5 69q0 48 31.5 77.5t79.5 29.5q52 0 82 -32z" />
    <glyph glyph-name="less" unicode="&#x3c;" 
d="M585 250v-150l-460 190v164l460 190v-150l-305 -119v-6z" />
    <glyph glyph-name="equal" unicode="=" 
d="M600 407h-500v135h500v-135zM600 202h-500v135h500v-135z" />
    <glyph glyph-name="greater" unicode="&#x3e;" 
d="M575 290l-460 -190v150l305 119v6l-305 119v150l460 -190v-164z" />
    <glyph glyph-name="question" unicode="?" horiz-adv-x="650" 
d="M227 266q0 50 18 83t43 51.5t63 37.5q35 18 52 32.5t17 36.5q0 48 -89 48q-49 0 -77.5 -18t-28.5 -47h-210q0 62 38.5 112t110 79t167.5 29q99 0 166 -23.5t100 -64t33 -91.5q0 -50 -22 -83.5t-53 -53t-80 -41.5q-50 -22 -74 -40t-24 -47v-26h-150v26zM231 19
q-32 29 -32 76t32 76t78 29t78 -29t32 -76t-32 -76t-78 -29t-78 29z" />
    <glyph glyph-name="at" unicode="@" horiz-adv-x="1033" 
d="M250.5 -129q-106.5 61 -163.5 164.5t-57 228.5q0 134 63.5 241.5t174.5 168.5t248 61q145 0 255.5 -55.5t171 -152t60.5 -215.5q0 -82 -25.5 -140t-70.5 -87.5t-104 -29.5q-50 0 -88 20.5t-58 56.5h-6q-23 -37 -64 -59.5t-100 -22.5q-58 0 -103.5 26t-72 74.5
t-26.5 113.5q0 62 25.5 110t68.5 74.5t93 26.5q43 0 75.5 -12t51.5 -34h6v41h140v-207q0 -38 12 -55.5t37 -17.5q27 0 40.5 25.5t13.5 80.5q0 138 -81 216t-251 78q-93 0 -168.5 -41t-119 -115t-43.5 -169q0 -97 40 -166.5t112.5 -106.5t168.5 -37q57 0 103 9t94 31v-145
q-41 -21 -90 -30.5t-114 -9.5q-142 0 -248.5 61zM565.5 210q19.5 20 19.5 53t-19.5 52.5t-50.5 19.5t-50.5 -19.5t-19.5 -52.5t19.5 -53t50.5 -20t50.5 20z" />
    <glyph glyph-name="A" unicode="A" horiz-adv-x="814" 
d="M824 0h-231l-38 100h-299l-38 -100h-228l283 700h268zM402 485l-83 -220h173l-84 220h-6z" />
    <glyph glyph-name="B" unicode="B" horiz-adv-x="750" 
d="M581 368q64 -15 99 -61t35 -114q0 -92 -59.5 -142.5t-166.5 -50.5h-419v700h397q102 0 158.5 -45.5t56.5 -128.5q0 -56 -26.5 -95.5t-74.5 -56.5v-6zM290 535v-110h104q27 0 42.5 14.5t15.5 40.5t-15.5 40.5t-42.5 14.5h-104zM419 165q31 0 48.5 15.5t17.5 44.5
t-17.5 44.5t-48.5 15.5h-129v-120h129z" />
    <glyph glyph-name="C" unicode="C" horiz-adv-x="805" 
d="M215 30.5q-86 45.5 -133 128.5t-47 191t47 191t133 128.5t200 45.5q102 0 179.5 -35t123 -98.5t55.5 -146.5h-229q-10 44 -44.5 69.5t-84.5 25.5q-67 0 -106 -48t-39 -132t39 -132t106 -48q50 0 84.5 23.5t45.5 66.5h230q-10 -82 -56 -144t-123.5 -96.5t-180.5 -34.5
q-114 0 -200 45.5z" />
    <glyph glyph-name="D" unicode="D" horiz-adv-x="796" 
d="M70 0v700h311q115 0 201 -44t132.5 -123t46.5 -183t-46.5 -183t-132.5 -123t-201 -44h-311zM373 180q72 0 115 46t43 124t-43 124t-115 46h-83v-340h83z" />
    <glyph glyph-name="E" unicode="E" horiz-adv-x="725" 
d="M680 700v-170h-390v-95h335v-160h-335v-105h390v-170h-610v700h610z" />
    <glyph glyph-name="F" unicode="F" horiz-adv-x="695" 
d="M670 700v-170h-380v-150h310v-160h-310v-220h-220v700h600z" />
    <glyph glyph-name="G" unicode="G" horiz-adv-x="820" 
d="M390 385h395v-33q0 -111 -45.5 -194t-129 -128t-195.5 -45q-114 0 -200 45.5t-133 128.5t-47 191t47 191t133 128.5t200 45.5q95 0 170.5 -30t123 -86.5t60.5 -133.5h-234q-14 31 -45.5 48t-74.5 17q-67 0 -106 -48t-39 -132t39 -132t106 -48q50 0 84 21t46 59h-155v135z
" />
    <glyph glyph-name="H" unicode="H" horiz-adv-x="845" 
d="M555 450v250h220v-700h-220v270h-265v-270h-220v700h220v-250h265z" />
    <glyph glyph-name="I" unicode="I" horiz-adv-x="380" 
d="M300 0h-220v700h220v-700z" />
    <glyph glyph-name="J" unicode="J" horiz-adv-x="705" 
d="M104.5 58.5q-79.5 73.5 -79.5 201.5v30h220v-30q0 -40 24 -65t69 -25t68.5 25t23.5 65v260h-275v180h495v-440q0 -128 -79.5 -201.5t-232.5 -73.5q-154 0 -233.5 73.5z" />
    <glyph glyph-name="K" unicode="K" horiz-adv-x="765" 
d="M512 362l268 -362h-258l-232 329v-329h-220v700h220v-321l228 321h245z" />
    <glyph glyph-name="L" unicode="L" horiz-adv-x="670" 
d="M660 0h-590v700h220v-520h370v-180z" />
    <glyph glyph-name="M" unicode="M" horiz-adv-x="1020" 
d="M280 0h-210v700h265l172 -310h6l167 310h270v-700h-210v420h-6l-152 -270h-144l-152 270h-6v-420z" />
    <glyph glyph-name="N" unicode="N" horiz-adv-x="860" 
d="M285 0h-215v700h220l279 -377h6v377h215v-700h-220l-279 377h-6v-377z" />
    <glyph glyph-name="O" unicode="O" horiz-adv-x="850" 
d="M220.5 30.5q-88.5 45.5 -137 128.5t-48.5 191t48.5 191t137 128.5t204.5 45.5t204.5 -45.5t137 -128.5t48.5 -191t-48.5 -191t-137 -128.5t-204.5 -45.5t-204.5 45.5zM538 218q42 48 42 132t-42 132t-113 48t-113 -48t-42 -132t42 -132t113 -48t113 48z" />
    <glyph glyph-name="P" unicode="P" horiz-adv-x="755" 
d="M392 700q163 0 243 -65t80 -200t-80 -200t-243 -65h-102v-170h-220v700h322zM390 350q47 0 71 21.5t24 63.5t-24 63.5t-71 21.5h-100v-170h100z" />
    <glyph glyph-name="Q" unicode="Q" horiz-adv-x="850" 
d="M763 153q-52 -85 -146 -129q60 -30 147 -30v-189q-135 0 -237.5 48.5t-154.5 134.5q-102 10 -178 57.5t-117.5 126t-41.5 178.5q0 108 48.5 191t137 128.5t204.5 45.5t204.5 -45.5t137 -128.5t48.5 -191q0 -112 -52 -197zM312 218q42 -48 113 -48t113 48t42 132t-42 132
t-113 48t-113 -48t-42 -132t42 -132z" />
    <glyph glyph-name="R" unicode="R" horiz-adv-x="765" 
d="M760 0h-244l-136 220h-90v-220h-220v700h328q160 0 231.5 -58t71.5 -178q0 -84 -33 -132t-79 -68zM392 400q39 0 59 14t20 46t-20 46t-59 14h-102v-120h102z" />
    <glyph glyph-name="S" unicode="S" horiz-adv-x="755" 
d="M122 46.5q-87 61.5 -87 168.5h230q0 -32 31.5 -48.5t87.5 -16.5q106 0 106 50q0 31 -35.5 44.5t-113.5 25.5q-89 14 -147.5 32t-101 63t-42.5 126q0 67 37 117.5t108.5 78.5t173.5 28q103 0 176.5 -28t111.5 -79t38 -118h-230q0 28 -25.5 44t-72.5 16q-42 0 -64.5 -12
t-22.5 -35q0 -30 35.5 -43.5t112.5 -25.5q89 -15 147.5 -33t101.5 -63.5t43 -125.5q0 -109 -87.5 -168t-250.5 -59q-173 0 -260 61.5z" />
    <glyph glyph-name="T" unicode="T" horiz-adv-x="706" 
d="M463 0h-220v520h-228v180h676v-180h-228v-520z" />
    <glyph glyph-name="U" unicode="U" horiz-adv-x="820" 
d="M228.5 21q-79.5 36 -124 105.5t-44.5 165.5v408h220v-395q0 -68 35.5 -101.5t94.5 -33.5t94.5 33.5t35.5 101.5v395h220v-408q0 -96 -44.5 -165.5t-124 -105.5t-181.5 -36t-181.5 36z" />
    <glyph glyph-name="V" unicode="V" horiz-adv-x="800" 
d="M539 0h-278l-261 700h235l164 -485h6l168 485h227z" />
    <glyph glyph-name="W" unicode="W" horiz-adv-x="1170" 
d="M465 0h-276l-179 700h230l106 -455h6l117 455h234l117 -455h6l106 455h228l-179 -700h-276l-117 455h-6z" />
    <glyph glyph-name="X" unicode="X" horiz-adv-x="755" 
d="M238 0h-243l231 362l-208 338h240l116 -208h6l117 208h240l-208 -338l231 -362h-243l-137 227h-6z" />
    <glyph glyph-name="Y" unicode="Y" horiz-adv-x="720" 
d="M470 0h-220v230l-260 470h238l129 -275h6l133 275h234l-260 -470v-230z" />
    <glyph glyph-name="Z" unicode="Z" horiz-adv-x="715" 
d="M675 0h-635v170l356 344v6h-346v180h625v-170l-356 -344v-6h356v-180z" />
    <glyph glyph-name="bracketleft" unicode="[" horiz-adv-x="440" 
d="M430 -250h-360v1060h360v-160h-160v-740h160v-160z" />
    <glyph glyph-name="backslash" unicode="\" horiz-adv-x="535" 
d="M535 -120h-154l-381 820h154z" />
    <glyph glyph-name="bracketright" unicode="]" horiz-adv-x="440" 
d="M370 -250h-360v160h160v740h-160v160h360v-1060z" />
    <glyph glyph-name="asciicircum" unicode="^" horiz-adv-x="550" 
d="M185 375h-150l169 325h142l169 -325h-151l-87 180h-6z" />
    <glyph glyph-name="underscore" unicode="_" horiz-adv-x="490" 
d="M515 -185h-540v130h540v-130z" />
    <glyph glyph-name="grave" unicode="`" horiz-adv-x="320" 
d="M290 580h-125l-135 190h181z" />
    <glyph glyph-name="a" unicode="a" horiz-adv-x="665" 
d="M80 26q-55 41 -55 116q0 76 60 115t153 39q47 0 89.5 -8.5t67.5 -22.5v68q0 30 -17.5 43.5t-52.5 13.5t-54 -11.5t-19 -33.5h-200q0 86 71 135.5t202 49.5q128 0 199 -51t71 -150v-113q0 -31 5.5 -42t19.5 -11q5 0 15 2v-160q-30 -15 -85 -15q-102 0 -133 78h-6
q-25 -39 -74.5 -61t-113.5 -22q-88 0 -143 41zM355.5 130q24.5 5 39.5 13v36q-15 5 -40.5 8.5t-49.5 3.5q-38 0 -59 -7t-21 -25q0 -20 20.5 -27t59.5 -7q26 0 50.5 5z" />
    <glyph glyph-name="b" unicode="b" horiz-adv-x="715" 
d="M326 9q-47 24 -70 66h-6v-75h-180v700h200v-255h6q25 38 67.5 59t96.5 21q68 0 122.5 -33t86 -94.5t31.5 -142.5t-31.5 -142.5t-87 -94.5t-124.5 -33q-64 0 -111 24zM442 182.5q28 27.5 28 72.5t-28 72.5t-72 27.5t-72 -27.5t-28 -72.5t28 -72.5t72 -27.5t72 27.5z" />
    <glyph glyph-name="c" unicode="c" horiz-adv-x="660" 
d="M183.5 13q-69.5 33 -109 95.5t-39.5 146.5t39.5 146.5t109 95.5t156.5 33q83 0 148 -28t101 -78.5t36 -115.5h-202q-9 29 -30 43t-58 14q-44 0 -72 -28t-28 -82t28 -82t72 -28q78 0 93 63h202q0 -66 -37 -118t-103 -81t-150 -29q-87 0 -156.5 33z" />
    <glyph glyph-name="d" unicode="d" horiz-adv-x="715" 
d="M153.5 18q-55.5 33 -87 94.5t-31.5 142.5t31.5 142.5t86 94.5t122.5 33q54 0 96.5 -21t67.5 -59h6v255h200v-700h-180v75h-6q-23 -42 -70 -66t-111 -24q-69 0 -124.5 33zM417 182.5q28 27.5 28 72.5t-28 72.5t-72 27.5t-72 -27.5t-28 -72.5t28 -72.5t72 -27.5t72 27.5z
" />
    <glyph glyph-name="e" unicode="e" horiz-adv-x="665" 
d="M634 233q-1 -13 -3 -23h-396q9 -45 35 -67.5t65 -22.5q61 0 82 45h207q-9 -48 -41.5 -90t-92.5 -68.5t-147 -26.5q-92 0 -161.5 33t-108 95.5t-38.5 146.5q0 85 38.5 147t107 95t156.5 33q86 0 153.5 -30.5t106 -92t38.5 -150.5q0 -11 -1 -24zM236 305h191
q-2 38 -27 61.5t-65 23.5q-80 0 -99 -85z" />
    <glyph glyph-name="f" unicode="f" horiz-adv-x="470" 
d="M312 510h143v-150h-140v-360h-200v360h-105v125l107 27q10 104 70 153.5t174 49.5q57 0 114 -11v-139q-35 5 -70 5q-80 0 -93 -60z" />
    <glyph glyph-name="g" unicode="g" horiz-adv-x="660" 
d="M97.5 -180q-72.5 40 -72.5 127q0 94 97 133v6q-17 7 -26.5 22t-9.5 33q0 22 15 37.5t42 23.5v6q-37 20 -55 54.5t-18 76.5q0 81 67.5 126t187.5 45h152q20 0 29 6t9 22q0 15 -4 27h104q20 -32 20 -66q0 -30 -19.5 -46.5t-55.5 -16.5h-22v-6q42 -40 42 -104
q0 -156 -255 -156q-50 0 -69.5 -6t-19.5 -21q0 -16 18.5 -22t71.5 -6h45q130 0 192 -42.5t62 -116.5q0 -93 -73.5 -134.5t-226.5 -41.5q-155 0 -227.5 40zM373 303.5q17 13.5 17 36.5t-17 36.5t-48 13.5t-48 -13.5t-17 -36.5t17 -36.5t48 -13.5t48 13.5zM404 -82q21 8 21 30
q0 19 -22 28t-78 9t-78 -9t-22 -28q0 -22 21 -30t79 -8t79 8z" />
    <glyph glyph-name="h" unicode="h" horiz-adv-x="720" 
d="M70 0v700h200v-270h6q23 42 70 68.5t110 26.5q96 0 150 -57t54 -158v-310h-200v239q0 45 -24.5 72t-66.5 27q-46 0 -72.5 -27t-26.5 -72v-239h-200z" />
    <glyph glyph-name="i" unicode="i" horiz-adv-x="340" 
d="M270 0h-200v510h200v-510zM94.5 593q-29.5 28 -29.5 72t29.5 72t75.5 28t75.5 -28t29.5 -72t-29.5 -72t-75.5 -28t-75.5 28z" />
    <glyph glyph-name="j" unicode="j" horiz-adv-x="350" 
d="M-50 -205v160q22 -5 47 -5q42 0 62.5 21t20.5 69v470h200v-491q0 -113 -63 -173.5t-182 -60.5q-51 0 -85 10zM104.5 593q-29.5 28 -29.5 72t29.5 72t75.5 28t75.5 -28t29.5 -72t-29.5 -72t-75.5 -28t-75.5 28z" />
    <glyph glyph-name="k" unicode="k" horiz-adv-x="655" 
d="M459 270l206 -270h-227l-168 239v-239h-200v700h200v-420l156 230h209z" />
    <glyph glyph-name="l" unicode="l" horiz-adv-x="340" 
d="M270 0h-200v700h200v-700z" />
    <glyph glyph-name="m" unicode="m" horiz-adv-x="985" 
d="M65 0v510h195v-85h6q19 46 60.5 73t98.5 27q58 0 99 -26t57 -74h6q23 48 64 74t97 26q177 0 177 -210v-315h-200v269q0 81 -65 81q-31 0 -48 -20t-17 -56v-274h-200v269q0 81 -65 81q-31 0 -48 -20t-17 -56v-274h-200z" />
    <glyph glyph-name="n" unicode="n" horiz-adv-x="715" 
d="M65 0v510h195v-85h6q24 45 72.5 72.5t112.5 27.5q96 0 150 -57t54 -158v-310h-200v239q0 45 -24.5 72t-66.5 27q-46 0 -72.5 -27t-26.5 -72v-239h-200z" />
    <glyph glyph-name="o" unicode="o" horiz-adv-x="670" 
d="M181 13q-68 33 -107 95.5t-39 146.5t39 146.5t107 95.5t154 33t154 -33t107 -95.5t39 -146.5t-39 -146.5t-107 -95.5t-154 -33t-154 33zM404.5 173.5q25.5 28.5 25.5 81.5t-25.5 81.5t-69.5 28.5t-69.5 -28.5t-25.5 -81.5t25.5 -81.5t69.5 -28.5t69.5 28.5z" />
    <glyph glyph-name="p" unicode="p" horiz-adv-x="710" 
d="M65 -200v710h180v-75h6q23 42 70 66t111 24q69 0 124.5 -33t87 -94.5t31.5 -142.5t-31.5 -142.5t-86 -94.5t-122.5 -33q-54 0 -96.5 21t-67.5 59h-6v-265h-200zM436.5 182.5q28.5 27.5 28.5 72.5t-28.5 72.5t-71.5 27.5t-71.5 -27.5t-28.5 -72.5t28.5 -72.5t71.5 -27.5
t71.5 27.5z" />
    <glyph glyph-name="q" unicode="q" horiz-adv-x="710" 
d="M445 -200v265h-6q-25 -38 -67.5 -59t-96.5 -21q-68 0 -122.5 33t-86 94.5t-31.5 142.5t31.5 142.5t87 94.5t124.5 33q64 0 111 -24t70 -66h6v75h180v-710h-200zM416.5 182.5q28.5 27.5 28.5 72.5t-28.5 72.5t-71.5 27.5t-71.5 -27.5t-28.5 -72.5t28.5 -72.5t71.5 -27.5
t71.5 27.5z" />
    <glyph glyph-name="r" unicode="r" horiz-adv-x="530" 
d="M65 0v510h195v-65h6q25 39 71 59.5t108 20.5q25 0 45 -4v-197q-46 11 -89 11q-136 0 -136 -125v-210h-200z" />
    <glyph glyph-name="s" unicode="s" horiz-adv-x="620" 
d="M104 26.5q-74 46.5 -74 133.5h210q0 -21 20 -35.5t56 -14.5q39 0 59 10t20 29q0 21 -27 29t-86 15q-72 9 -119.5 21t-82.5 46t-35 98q0 53 33.5 91.5t93 59.5t135.5 21q86 0 148 -22.5t93.5 -62t31.5 -90.5h-210q0 19 -15.5 32t-46.5 13q-29 0 -46 -10.5t-17 -28.5
q0 -21 27.5 -29.5t86.5 -16.5q72 -9 119 -21.5t82 -45.5t35 -94q0 -86 -71.5 -130t-208.5 -44t-211 46.5z" />
    <glyph glyph-name="t" unicode="t" horiz-adv-x="490" 
d="M465 152v-150q-22 -10 -59.5 -16t-69.5 -6q-115 0 -170.5 52.5t-55.5 161.5v166h-105v125l116 28v107h189v-110h140v-150h-140v-119q0 -49 21.5 -72.5t65.5 -23.5q43 0 68 7z" />
    <glyph glyph-name="u" unicode="u" horiz-adv-x="710" 
d="M115.5 40q-55.5 55 -55.5 160v310h200v-243q0 -45 23.5 -70t62.5 -25q47 0 73 25t26 70v243h200v-510h-195v85h-6q-24 -46 -70.5 -73t-109.5 -27q-93 0 -148.5 55z" />
    <glyph glyph-name="v" unicode="v" horiz-adv-x="636" 
d="M452 0h-268l-184 510h208l108 -335h6l108 335h206z" />
    <glyph glyph-name="w" unicode="w" horiz-adv-x="950" 
d="M382 0h-230l-142 510h202l69 -325h6l91 325h195l91 -325h6l70 325h200l-142 -510h-230l-90 320h-6z" />
    <glyph glyph-name="x" unicode="x" horiz-adv-x="640" 
d="M217 0h-222l174 258l-150 252h217l82 -160h6l80 160h217l-150 -252l174 -258h-222l-101 160h-6z" />
    <glyph glyph-name="y" unicode="y" horiz-adv-x="645" 
d="M439 510h206l-206 -490q-34 -80 -68.5 -130t-85.5 -77.5t-126 -27.5q-45 0 -83 9v165q29 -9 58 -9q38 0 63.5 15t36.5 43l6 15l-245 487h209l127 -289h6z" />
    <glyph glyph-name="z" unicode="z" horiz-adv-x="585" 
d="M560 0h-530v160l256 184v6h-246v160h510v-160l-254 -184v-6h264v-160z" />
    <glyph glyph-name="braceleft" unicode="{" horiz-adv-x="400" 
d="M368 -260q-136 0 -195.5 56t-59.5 174v135q0 44 -22.5 69.5t-60.5 25.5v160q38 0 60.5 25.5t22.5 69.5v115q0 132 59 191t196 59h22v-152h-22q-26 0 -40 -8.5t-19.5 -29.5t-5.5 -60v-115q0 -64 -24 -109t-63 -63v-6q39 -18 63 -63t24 -109v-135q0 -45 14 -61.5t51 -16.5
h22v-152h-22z" />
    <glyph glyph-name="bar" unicode="|" horiz-adv-x="440" 
d="M320 -260h-200v1030h200v-1030z" />
    <glyph glyph-name="braceright" unicode="}" horiz-adv-x="400" 
d="M10 -260v152h22q37 0 51 16.5t14 61.5v135q0 64 24 109t63 63v6q-39 18 -63 63t-24 109v115q0 39 -5.5 60t-19.5 29.5t-40 8.5h-22v152h22q137 0 196 -59t59 -191v-115q0 -44 22.5 -69.5t60.5 -25.5v-160q-38 0 -60.5 -25.5t-22.5 -69.5v-135q0 -118 -59.5 -174
t-195.5 -56h-22z" />
    <glyph glyph-name="asciitilde" unicode="~" 
d="M391.5 285q-28.5 11 -64.5 32q-24 13 -35.5 18.5t-24.5 5.5q-32 0 -32 -38v-19h-135v28q0 78 35.5 118.5t104.5 40.5q40 0 68.5 -11t64.5 -32q24 -13 35.5 -18.5t24.5 -5.5q32 0 32 38v19h135v-28q0 -78 -35.5 -118.5t-104.5 -40.5q-40 0 -68.5 11z" />
    <glyph glyph-name="uni00A0" unicode="&#xa0;" horiz-adv-x="250" 
 />
    <glyph glyph-name="exclamdown" unicode="&#xa1;" horiz-adv-x="340" 
d="M92 329q-32 29 -32 76t32 76t78 29t78 -29t32 -76t-32 -76t-78 -29t-78 29zM270 -200h-200v131l25 329h149l26 -329v-131z" />
    <glyph glyph-name="cent" unicode="&#xa2;" horiz-adv-x="660" 
d="M630 208q0 -84 -58 -144t-156 -77v-102h-155v102q-103 21 -164.5 91.5t-61.5 176.5t61.5 176.5t164.5 91.5v102h155v-102q96 -17 152.5 -75t56.5 -140h-202q-9 29 -30 43t-58 14q-44 0 -72 -28t-28 -82t28 -82t72 -28q78 0 93 63h202z" />
    <glyph glyph-name="sterling" unicode="&#xa3;" horiz-adv-x="645" 
d="M625 170v-170h-600v170q49 0 67 21.5t18 78.5h-85v115h85v101q0 108 68 168.5t189 60.5q120 0 186.5 -59.5t66.5 -164.5v-16h-210v16q0 54 -43 54q-42 0 -42 -59v-101h170v-115h-170q-2 -76 -35 -100h335z" />
    <glyph glyph-name="currency" unicode="&#xa4;" horiz-adv-x="626" 
d="M515 298l81 -81l-105 -107l-71 71q-48 -25 -107 -25t-107 25l-71 -71l-105 107l81 81q-6 24 -6 52t6 52l-81 81l105 107l71 -71q48 25 107 25t107 -25l71 71l105 -107l-81 -81q6 -24 6 -52t-6 -52zM359.5 300q16.5 19 16.5 50t-16.5 50t-46.5 19t-46.5 -19t-16.5 -50
t16.5 -50t46.5 -19t46.5 19z" />
    <glyph glyph-name="yen" unicode="&#xa5;" horiz-adv-x="710" 
d="M486 700h229l-192 -345h117v-105h-175v-50h175v-105h-175v-95h-220v95h-175v105h175v50h-175v105h117l-192 345h233l124 -260h6z" />
    <glyph glyph-name="brokenbar" unicode="&#xa6;" horiz-adv-x="440" 
d="M320 328h-200v442h200v-442zM320 -260h-200v448h200v-448z" />
    <glyph glyph-name="section" unicode="&#xa7;" horiz-adv-x="681" 
d="M181 -144.5q-70 25.5 -105.5 72t-35.5 108.5h200q0 -26 27.5 -41t76.5 -15q42 0 61.5 7.5t19.5 23.5q0 18 -28.5 29.5t-90.5 27.5q-78 20 -130 39.5t-90 56t-38 91.5q0 48 28.5 86t80.5 60v6q-47 18 -72.5 51.5t-25.5 80.5q0 80 72 128t207 48q97 0 166 -25.5t104.5 -72
t35.5 -108.5h-200q0 24 -27 40t-73 16q-39 0 -57 -7.5t-18 -24.5t28 -28.5t90 -27.5q77 -19 129.5 -39t91 -56.5t38.5 -91.5q0 -48 -28.5 -86t-80.5 -60v-6q47 -18 72.5 -51.5t25.5 -80.5q0 -80 -73.5 -128t-211.5 -48q-99 0 -169 25.5zM418 236q14 13 14 33
q0 22 -28.5 37.5t-90.5 26.5q-23 -11 -37 -24t-14 -33q0 -22 28.5 -37.5t90.5 -26.5q23 11 37 24z" />
    <glyph glyph-name="dieresis" unicode="&#xa8;" horiz-adv-x="510" 
d="M58.5 592q-28.5 27 -28.5 68t28.5 68t71.5 27t71.5 -27t28.5 -68t-28.5 -68t-71.5 -27t-71.5 27zM308.5 592q-28.5 27 -28.5 68t28.5 68t71.5 27t71.5 -27t28.5 -68t-28.5 -68t-71.5 -27t-71.5 27z" />
    <glyph glyph-name="copyright" unicode="&#xa9;" horiz-adv-x="892" 
d="M236.5 25.5q-89.5 45.5 -138 129t-48.5 195.5t48.5 195.5t138 129t209.5 45.5t209.5 -45.5t138 -129t48.5 -195.5t-48.5 -195.5t-138 -129t-209.5 -45.5t-209.5 45.5zM586.5 126.5q60.5 31.5 93 89.5t32.5 134t-32.5 134t-93 89.5t-140.5 31.5t-140.5 -31.5t-93 -89.5
t-32.5 -134t32.5 -134t93 -89.5t140.5 -31.5t140.5 31.5zM310.5 221.5q-50.5 46.5 -50.5 128.5t50.5 128.5t136.5 46.5q53 0 94 -18.5t63.5 -51.5t22.5 -74h-130q0 11 -13 20t-36 9q-28 0 -43 -16t-15 -44t15 -44t43 -16q24 0 36.5 9.5t12.5 21.5h130q0 -66 -48.5 -106
t-131.5 -40q-86 0 -136.5 46.5z" />
    <glyph glyph-name="ordfeminine" unicode="&#xaa;" horiz-adv-x="500" 
d="M72 355.5q-42 30.5 -42 83.5q0 54 44 84t122 30q54 0 99 -19v47q0 34 -43 34q-44 0 -44 -32h-160q0 65 53 98.5t154 33.5q95 0 145 -34t50 -100v-91q0 -16 4.5 -23t14.5 -7q5 0 11 2v-126q-30 -11 -68 -11q-67 0 -98 51h-6q-43 -51 -123 -51q-71 0 -113 30.5zM295 440v25
q-27 12 -59 12q-20 0 -33 -6.5t-13 -18.5t13 -18.5t33 -6.5q37 0 59 13z" />
    <glyph glyph-name="guillemotleft" unicode="&#xab;" horiz-adv-x="660" 
d="M355 65h-185l-140 185l140 185h185l-147 -182v-6zM630 65h-185l-140 185l140 185h185l-147 -182v-6z" />
    <glyph glyph-name="logicalnot" unicode="&#xac;" 
d="M615 185h-140v120h-390v130h530v-250z" />
    <glyph glyph-name="uni00AD" unicode="&#xad;" horiz-adv-x="0" 
 />
    <glyph glyph-name="registered" unicode="&#xae;" horiz-adv-x="520" 
d="M379.5 692q52.5 -28 81.5 -78t29 -114t-29 -114t-81.5 -78t-119.5 -28t-119.5 28t-81.5 78t-29 114t29 114t81.5 78t119.5 28t119.5 -28zM368.5 391.5q41.5 41.5 41.5 108.5t-41.5 108.5t-108.5 41.5t-108.5 -41.5t-41.5 -108.5t41.5 -108.5t108.5 -41.5t108.5 41.5z
M318 477l41 -66h-69l-32 54h-13v-54h-65v184h82q43 0 66 -16t23 -46q0 -41 -33 -56zM262 515q19 0 19 15t-19 15h-17v-30h17z" />
    <glyph glyph-name="macron" unicode="&#xaf;" horiz-adv-x="470" 
d="M440 595h-410v115h410v-115z" />
    <glyph glyph-name="degree" unicode="&#xb0;" horiz-adv-x="440" 
d="M127 401.5q-41 21.5 -64 60.5t-23 88t23 88t64 60.5t93 21.5t93 -21.5t64 -60.5t23 -88t-23 -88t-64 -60.5t-93 -21.5t-93 21.5zM260 510q15 15 15 40t-15 40t-40 15t-40 -15t-15 -40t15 -40t40 -15t40 15z" />
    <glyph glyph-name="plusminus" unicode="&#xb1;" 
d="M423 685v-155h177v-130h-177v-155h-145v155h-178v130h178v155h145zM600 65h-500v125h500v-125z" />
    <glyph glyph-name="uni00B2" unicode="&#xb2;" horiz-adv-x="410" 
d="M385 520v-100h-365v42q0 53 23 85.5t54.5 49t78.5 31.5q37 12 54.5 22t17.5 26q0 29 -39 29q-21 0 -35 -10.5t-14 -27.5h-130q0 66 50.5 104.5t137.5 38.5q78 0 121.5 -34.5t43.5 -86.5q0 -42 -19.5 -68t-47 -39t-69.5 -26q-31 -10 -47.5 -17.5t-24.5 -18.5h210z" />
    <glyph glyph-name="uni00B3" unicode="&#xb3;" horiz-adv-x="410" 
d="M74 447q-49 37 -49 98h130q0 -17 13.5 -26t34.5 -9q22 0 34.5 8.5t12.5 26.5q0 35 -50 35h-72v70l76 49v6h-145v95h295v-83l-97 -59v-6h8q53 0 86.5 -30t33.5 -77q0 -66 -48.5 -100.5t-133.5 -34.5q-80 0 -129 37z" />
    <glyph glyph-name="acute" unicode="&#xb4;" horiz-adv-x="320" 
d="M155 580h-125l79 190h181z" />
    <glyph glyph-name="uni00B5" unicode="&#xb5;" horiz-adv-x="715" 
d="M65 -200v710h200v-243q0 -45 23.5 -70t62.5 -25q47 0 73 25t26 70v243h200v-510h-195v75h-6q-10 -41 -40 -65.5t-73 -24.5q-23 0 -43 8t-32 21h-6v-214h-190z" />
    <glyph glyph-name="paragraph" unicode="&#xb6;" horiz-adv-x="770" 
d="M710 700v-145h-85v-815h-150v815h-100v-815h-150v600q-81 9 -133 53t-52 123q0 56 27 98t74 64t107 22h462z" />
    <glyph glyph-name="periodcentered" unicode="&#xb7;" horiz-adv-x="250" 
d="M47 184q-32 29 -32 76t32 76t78 29t78 -29t32 -76t-32 -76t-78 -29t-78 29z" />
    <glyph glyph-name="cedilla" unicode="&#xb8;" horiz-adv-x="280" 
d="M153 -37q47 -5 72 -29t25 -64q0 -50 -36 -80t-100 -30q-46 0 -84 14v84q32 -8 66 -8q54 0 54 27q0 12 -10.5 17.5t-34.5 5.5h-37v49l56 75l73 -4z" />
    <glyph glyph-name="uni00B9" unicode="&#xb9;" horiz-adv-x="355" 
d="M255 800v-270h90v-110h-320v110h100v134l-85 -52v118l113 70h102z" />
    <glyph glyph-name="ordmasculine" unicode="&#xba;" horiz-adv-x="500" 
d="M89.5 378q-59.5 53 -59.5 142t59.5 142t160.5 53t160.5 -53t59.5 -142t-59.5 -142t-160.5 -53t-160.5 53zM293.5 472.5q16.5 17.5 16.5 47.5t-16.5 47.5t-43.5 17.5t-43.5 -17.5t-16.5 -47.5t16.5 -47.5t43.5 -17.5t43.5 17.5z" />
    <glyph glyph-name="guillemotright" unicode="&#xbb;" horiz-adv-x="660" 
d="M215 65h-185l147 182v6l-147 182h185l140 -185zM490 65h-185l147 182v6l-147 182h185l140 -185z" />
    <glyph glyph-name="onequarter" unicode="&#xbc;" horiz-adv-x="983" 
d="M255 700v-270h90v-110h-320v110h100v134l-85 -52v118l113 70h102zM333 0h-148l480 700h148zM908 165h55v-100h-55v-65h-135v65h-195v105l167 210h163v-215zM777 272l-79 -101v-6h85v107h-6z" />
    <glyph glyph-name="onehalf" unicode="&#xbd;" horiz-adv-x="1013" 
d="M255 700v-270h90v-110h-320v110h100v134l-85 -52v118l113 70h102zM333 0h-148l480 700h148zM988 100v-100h-365v42q0 53 23 85.5t54.5 49t78.5 31.5q37 12 54.5 22t17.5 26q0 29 -39 29q-21 0 -35 -10.5t-14 -27.5h-130q0 66 50.5 104.5t137.5 38.5q78 0 121.5 -34.5
t43.5 -86.5q0 -42 -19.5 -68t-47 -39t-69.5 -26q-31 -10 -47.5 -17.5t-24.5 -18.5h210z" />
    <glyph glyph-name="threequarters" unicode="&#xbe;" horiz-adv-x="998" 
d="M74 347q-49 37 -49 98h130q0 -17 13.5 -26t34.5 -9q22 0 34.5 8.5t12.5 26.5q0 35 -50 35h-72v70l76 49v6h-145v95h295v-83l-97 -59v-6h8q53 0 86.5 -30t33.5 -77q0 -66 -48.5 -100.5t-133.5 -34.5q-80 0 -129 37zM348 0h-148l480 700h148zM923 165h55v-100h-55v-65h-135
v65h-195v105l167 210h163v-215zM792 272l-79 -101v-6h85v107h-6z" />
    <glyph glyph-name="questiondown" unicode="&#xbf;" horiz-adv-x="650" 
d="M263 329q-32 29 -32 76t32 76t78 29t78 -29t32 -76t-32 -76t-78 -29t-78 29zM153 -176.5q-67 23.5 -100 64t-33 91.5t23 85t54.5 52.5t82.5 40.5q48 20 70.5 36t22.5 41v26h150v-26q0 -47 -17.5 -78t-42.5 -48.5t-62 -35.5t-54 -32t-17 -37q0 -48 89 -48q49 0 77.5 18
t28.5 47h210q0 -62 -38.5 -112t-110 -79t-167.5 -29q-99 0 -166 23.5z" />
    <glyph glyph-name="Agrave" unicode="&#xc0;" horiz-adv-x="814" 
d="M824 0h-231l-38 100h-299l-38 -100h-228l283 700h268zM402 485l-83 -220h173l-84 220h-6zM478 770h-138l-128 175h194z" />
    <glyph glyph-name="Aacute" unicode="&#xc1;" horiz-adv-x="814" 
d="M824 0h-231l-38 100h-299l-38 -100h-228l283 700h268zM402 485l-83 -220h173l-84 220h-6zM474 770h-138l72 175h194z" />
    <glyph glyph-name="Acircumflex" unicode="&#xc2;" horiz-adv-x="814" 
d="M824 0h-231l-38 100h-299l-38 -100h-228l283 700h268zM402 485l-83 -220h173l-84 220h-6zM339 770h-172l159 175h162l159 -175h-172l-65 73h-6z" />
    <glyph glyph-name="Atilde" unicode="&#xc3;" horiz-adv-x="814" 
d="M824 0h-231l-38 100h-299l-38 -100h-228l283 700h268zM402 485l-83 -220h173l-84 220h-6zM445.5 784.5q-21.5 9.5 -45.5 26.5q-17 12 -28.5 18t-24.5 6q-32 0 -32 -41v-14h-120v30q0 71 32.5 108t90.5 37q29 0 50.5 -9.5t45.5 -26.5q17 -12 28.5 -18t24.5 -6q32 0 32 41
v14h120v-30q0 -71 -32.5 -108t-90.5 -37q-29 0 -50.5 9.5z" />
    <glyph glyph-name="Adieresis" unicode="&#xc4;" horiz-adv-x="814" 
d="M824 0h-231l-38 100h-299l-38 -100h-228l283 700h268zM402 485l-83 -220h173l-84 220h-6zM211.5 786q-27.5 26 -27.5 66q0 41 27.5 67t70.5 26t70.5 -26t27.5 -67q0 -40 -27.5 -66t-70.5 -26t-70.5 26zM461.5 786q-27.5 26 -27.5 66q0 41 27.5 67t70.5 26t70.5 -26
t27.5 -67q0 -40 -27.5 -66t-70.5 -26t-70.5 26z" />
    <glyph glyph-name="Aring" unicode="&#xc5;" horiz-adv-x="814" 
d="M824 0h-231l-38 100h-299l-38 -100h-228l283 700h268zM402 485l-83 -220h173l-84 220h-6zM307 799.5q-38 34.5 -38 90.5t38 90.5t100 34.5t100 -34.5t38 -90.5t-38 -90.5t-100 -34.5t-100 34.5zM438 861q12 11 12 29t-12 29t-31 11t-31 -11t-12 -29t12 -29t31 -11t31 11z
" />
    <glyph glyph-name="AE" unicode="&#xc6;" horiz-adv-x="1060" 
d="M1015 700v-170h-325v-95h270v-160h-270v-105h325v-170h-545v125h-202l-55 -125h-233l321 700h714zM340 290h130v240h-25z" />
    <glyph glyph-name="Ccedilla" unicode="&#xc7;" horiz-adv-x="805" 
d="M775 260q-15 -117 -99 -190.5t-223 -83.5l-18 -23q47 -5 72 -29t25 -64q0 -50 -36 -80t-100 -30q-46 0 -84 14v84q32 -8 66 -8q54 0 54 27q0 12 -10.5 17.5t-34.5 5.5h-37v49l28 37q-104 7 -181.5 54.5t-119.5 127.5t-42 182q0 108 47 191t133 128.5t200 45.5
q102 0 179.5 -35t123 -98.5t55.5 -146.5h-229q-10 44 -44.5 69.5t-84.5 25.5q-67 0 -106 -48t-39 -132t39 -132t106 -48q50 0 84.5 23.5t45.5 66.5h230z" />
    <glyph glyph-name="Egrave" unicode="&#xc8;" horiz-adv-x="725" 
d="M680 700v-170h-390v-95h335v-160h-335v-105h390v-170h-610v700h610zM451 770h-138l-128 175h194z" />
    <glyph glyph-name="Eacute" unicode="&#xc9;" horiz-adv-x="725" 
d="M680 700v-170h-390v-95h335v-160h-335v-105h390v-170h-610v700h610zM447 770h-138l72 175h194z" />
    <glyph glyph-name="Ecircumflex" unicode="&#xca;" horiz-adv-x="725" 
d="M680 700v-170h-390v-95h335v-160h-335v-105h390v-170h-610v700h610zM312 770h-172l159 175h162l159 -175h-172l-65 73h-6z" />
    <glyph glyph-name="Edieresis" unicode="&#xcb;" horiz-adv-x="725" 
d="M680 700v-170h-390v-95h335v-160h-335v-105h390v-170h-610v700h610zM184.5 786q-27.5 26 -27.5 66q0 41 27.5 67t70.5 26t70.5 -26t27.5 -67q0 -40 -27.5 -66t-70.5 -26t-70.5 26zM434.5 786q-27.5 26 -27.5 66q0 41 27.5 67t70.5 26t70.5 -26t27.5 -67q0 -40 -27.5 -66
t-70.5 -26t-70.5 26z" />
    <glyph glyph-name="Igrave" unicode="&#xcc;" horiz-adv-x="380" 
d="M300 0h-220v700h220v-700zM261 770h-138l-128 175h194z" />
    <glyph glyph-name="Iacute" unicode="&#xcd;" horiz-adv-x="380" 
d="M300 0h-220v700h220v-700zM257 770h-138l72 175h194z" />
    <glyph glyph-name="Icircumflex" unicode="&#xce;" horiz-adv-x="380" 
d="M300 0h-220v700h220v-700zM122 770h-172l159 175h162l159 -175h-172l-65 73h-6z" />
    <glyph glyph-name="Idieresis" unicode="&#xcf;" horiz-adv-x="380" 
d="M300 0h-220v700h220v-700zM-5.5 786q-27.5 26 -27.5 66q0 41 27.5 67t70.5 26t70.5 -26t27.5 -67q0 -40 -27.5 -66t-70.5 -26t-70.5 26zM244.5 786q-27.5 26 -27.5 66q0 41 27.5 67t70.5 26t70.5 -26t27.5 -67q0 -40 -27.5 -66t-70.5 -26t-70.5 26z" />
    <glyph glyph-name="Eth" unicode="&#xd0;" horiz-adv-x="806" 
d="M391 700q115 0 201 -44t132.5 -123t46.5 -183t-46.5 -183t-132.5 -123t-201 -44h-311v275h-80v150h80v275h311zM383 180q72 0 115 46t43 124t-43 124t-115 46h-83v-95h110v-150h-110v-95h83z" />
    <glyph glyph-name="Ntilde" unicode="&#xd1;" horiz-adv-x="860" 
d="M285 0h-215v700h220l279 -377h6v377h215v-700h-220l-279 377h-6v-377zM468.5 784.5q-21.5 9.5 -45.5 26.5q-17 12 -28.5 18t-24.5 6q-32 0 -32 -41v-14h-120v30q0 71 32.5 108t90.5 37q29 0 50.5 -9.5t45.5 -26.5q17 -12 28.5 -18t24.5 -6q32 0 32 41v14h120v-30
q0 -71 -32.5 -108t-90.5 -37q-29 0 -50.5 9.5z" />
    <glyph glyph-name="Ograve" unicode="&#xd2;" horiz-adv-x="850" 
d="M220.5 30.5q-88.5 45.5 -137 128.5t-48.5 191t48.5 191t137 128.5t204.5 45.5t204.5 -45.5t137 -128.5t48.5 -191t-48.5 -191t-137 -128.5t-204.5 -45.5t-204.5 45.5zM538 218q42 48 42 132t-42 132t-113 48t-113 -48t-42 -132t42 -132t113 -48t113 48zM496 770h-138
l-128 175h194z" />
    <glyph glyph-name="Oacute" unicode="&#xd3;" horiz-adv-x="850" 
d="M220.5 30.5q-88.5 45.5 -137 128.5t-48.5 191t48.5 191t137 128.5t204.5 45.5t204.5 -45.5t137 -128.5t48.5 -191t-48.5 -191t-137 -128.5t-204.5 -45.5t-204.5 45.5zM538 218q42 48 42 132t-42 132t-113 48t-113 -48t-42 -132t42 -132t113 -48t113 48zM492 770h-138
l72 175h194z" />
    <glyph glyph-name="Ocircumflex" unicode="&#xd4;" horiz-adv-x="850" 
d="M220.5 30.5q-88.5 45.5 -137 128.5t-48.5 191t48.5 191t137 128.5t204.5 45.5t204.5 -45.5t137 -128.5t48.5 -191t-48.5 -191t-137 -128.5t-204.5 -45.5t-204.5 45.5zM538 218q42 48 42 132t-42 132t-113 48t-113 -48t-42 -132t42 -132t113 -48t113 48zM357 770h-172
l159 175h162l159 -175h-172l-65 73h-6z" />
    <glyph glyph-name="Otilde" unicode="&#xd5;" horiz-adv-x="850" 
d="M220.5 30.5q-88.5 45.5 -137 128.5t-48.5 191t48.5 191t137 128.5t204.5 45.5t204.5 -45.5t137 -128.5t48.5 -191t-48.5 -191t-137 -128.5t-204.5 -45.5t-204.5 45.5zM538 218q42 48 42 132t-42 132t-113 48t-113 -48t-42 -132t42 -132t113 -48t113 48zM463.5 784.5
q-21.5 9.5 -45.5 26.5q-17 12 -28.5 18t-24.5 6q-32 0 -32 -41v-14h-120v30q0 71 32.5 108t90.5 37q29 0 50.5 -9.5t45.5 -26.5q17 -12 28.5 -18t24.5 -6q32 0 32 41v14h120v-30q0 -71 -32.5 -108t-90.5 -37q-29 0 -50.5 9.5z" />
    <glyph glyph-name="Odieresis" unicode="&#xd6;" horiz-adv-x="850" 
d="M220.5 30.5q-88.5 45.5 -137 128.5t-48.5 191t48.5 191t137 128.5t204.5 45.5t204.5 -45.5t137 -128.5t48.5 -191t-48.5 -191t-137 -128.5t-204.5 -45.5t-204.5 45.5zM538 218q42 48 42 132t-42 132t-113 48t-113 -48t-42 -132t42 -132t113 -48t113 48zM229.5 786
q-27.5 26 -27.5 66q0 41 27.5 67t70.5 26t70.5 -26t27.5 -67q0 -40 -27.5 -66t-70.5 -26t-70.5 26zM479.5 786q-27.5 26 -27.5 66q0 41 27.5 67t70.5 26t70.5 -26t27.5 -67q0 -40 -27.5 -66t-70.5 -26t-70.5 26z" />
    <glyph glyph-name="multiply" unicode="&#xd7;" 
d="M351 266l-134 -133l-95 96l133 132l-133 133l95 96l134 -133l133 133l95 -96l-133 -133l133 -132l-95 -96z" />
    <glyph glyph-name="Oslash" unicode="&#xd8;" horiz-adv-x="850" 
d="M700 621q55 -49 85 -118t30 -153q0 -108 -48.5 -191t-137 -128.5t-204.5 -45.5q-87 0 -163 27l-45 -62h-160l93 129q-55 49 -85 118t-30 153q0 108 48.5 191t137 128.5t204.5 45.5q90 0 162 -27l45 62h161zM284 266l186 258q-21 6 -45 6q-71 0 -113 -48t-42 -132
q0 -47 14 -84zM538 218q42 48 42 132q0 46 -14 85l-186 -259q21 -6 45 -6q71 0 113 48z" />
    <glyph glyph-name="Ugrave" unicode="&#xd9;" horiz-adv-x="820" 
d="M228.5 21q-79.5 36 -124 105.5t-44.5 165.5v408h220v-395q0 -68 35.5 -101.5t94.5 -33.5t94.5 33.5t35.5 101.5v395h220v-408q0 -96 -44.5 -165.5t-124 -105.5t-181.5 -36t-181.5 36zM481 770h-138l-128 175h194z" />
    <glyph glyph-name="Uacute" unicode="&#xda;" horiz-adv-x="820" 
d="M228.5 21q-79.5 36 -124 105.5t-44.5 165.5v408h220v-395q0 -68 35.5 -101.5t94.5 -33.5t94.5 33.5t35.5 101.5v395h220v-408q0 -96 -44.5 -165.5t-124 -105.5t-181.5 -36t-181.5 36zM477 770h-138l72 175h194z" />
    <glyph glyph-name="Ucircumflex" unicode="&#xdb;" horiz-adv-x="820" 
d="M228.5 21q-79.5 36 -124 105.5t-44.5 165.5v408h220v-395q0 -68 35.5 -101.5t94.5 -33.5t94.5 33.5t35.5 101.5v395h220v-408q0 -96 -44.5 -165.5t-124 -105.5t-181.5 -36t-181.5 36zM342 770h-172l159 175h162l159 -175h-172l-65 73h-6z" />
    <glyph glyph-name="Udieresis" unicode="&#xdc;" horiz-adv-x="820" 
d="M228.5 21q-79.5 36 -124 105.5t-44.5 165.5v408h220v-395q0 -68 35.5 -101.5t94.5 -33.5t94.5 33.5t35.5 101.5v395h220v-408q0 -96 -44.5 -165.5t-124 -105.5t-181.5 -36t-181.5 36zM214.5 786q-27.5 26 -27.5 66q0 41 27.5 67t70.5 26t70.5 -26t27.5 -67
q0 -40 -27.5 -66t-70.5 -26t-70.5 26zM464.5 786q-27.5 26 -27.5 66q0 41 27.5 67t70.5 26t70.5 -26t27.5 -67q0 -40 -27.5 -66t-70.5 -26t-70.5 26z" />
    <glyph glyph-name="Yacute" unicode="&#xdd;" horiz-adv-x="720" 
d="M470 0h-220v230l-260 470h238l129 -275h6l133 275h234l-260 -470v-230zM427 770h-138l72 175h194z" />
    <glyph glyph-name="Thorn" unicode="&#xde;" horiz-adv-x="810" 
d="M455 603q168 0 241.5 -62.5t73.5 -186.5t-73.5 -186.5t-241.5 -62.5h-165v-105h-220v700h220v-97h165zM452 285q46 0 67 16t21 53t-21 53t-67 16h-162v-138h162z" />
    <glyph glyph-name="germandbls" unicode="&#xdf;" horiz-adv-x="760" 
d="M363 32q-63 52 -63 143h180q0 -17 11 -26t29 -9q17 0 26 9t9 26q0 22 -20 38.5t-60 38.5q-52 30 -79.5 55t-27.5 64q0 23 9.5 39t28.5 37q16 17 24 29.5t8 28.5q0 22 -19.5 33.5t-53.5 11.5q-44 0 -72 -26t-28 -73v-451h-195v457q0 128 74 193t219 65q77 0 134 -21.5
t87.5 -58t30.5 -80.5q0 -29 -10 -49.5t-28 -46.5q-12 -17 -18 -28.5t-6 -23.5q0 -18 16.5 -35t51.5 -44q39 -30 63.5 -53.5t42.5 -57t18 -75.5q0 -73 -55 -117.5t-151 -44.5q-113 0 -176 52z" />
    <glyph glyph-name="agrave" unicode="&#xe0;" horiz-adv-x="665" 
d="M80 26q-55 41 -55 116q0 76 60 115t153 39q47 0 89.5 -8.5t67.5 -22.5v68q0 30 -17.5 43.5t-52.5 13.5t-54 -11.5t-19 -33.5h-200q0 86 71 135.5t202 49.5q128 0 199 -51t71 -150v-113q0 -31 5.5 -42t19.5 -11q5 0 15 2v-160q-30 -15 -85 -15q-102 0 -133 78h-6
q-25 -39 -74.5 -61t-113.5 -22q-88 0 -143 41zM355.5 130q24.5 5 39.5 13v36q-15 5 -40.5 8.5t-49.5 3.5q-38 0 -59 -7t-21 -25q0 -20 20.5 -27t59.5 -7q26 0 50.5 5zM397 580h-125l-135 190h181z" />
    <glyph glyph-name="aacute" unicode="&#xe1;" horiz-adv-x="665" 
d="M80 26q-55 41 -55 116q0 76 60 115t153 39q47 0 89.5 -8.5t67.5 -22.5v68q0 30 -17.5 43.5t-52.5 13.5t-54 -11.5t-19 -33.5h-200q0 86 71 135.5t202 49.5q128 0 199 -51t71 -150v-113q0 -31 5.5 -42t19.5 -11q5 0 15 2v-160q-30 -15 -85 -15q-102 0 -133 78h-6
q-25 -39 -74.5 -61t-113.5 -22q-88 0 -143 41zM355.5 130q24.5 5 39.5 13v36q-15 5 -40.5 8.5t-49.5 3.5q-38 0 -59 -7t-21 -25q0 -20 20.5 -27t59.5 -7q26 0 50.5 5zM386 580h-125l79 190h181z" />
    <glyph glyph-name="acircumflex" unicode="&#xe2;" horiz-adv-x="665" 
d="M80 26q-55 41 -55 116q0 76 60 115t153 39q47 0 89.5 -8.5t67.5 -22.5v68q0 30 -17.5 43.5t-52.5 13.5t-54 -11.5t-19 -33.5h-200q0 86 71 135.5t202 49.5q128 0 199 -51t71 -150v-113q0 -31 5.5 -42t19.5 -11q5 0 15 2v-160q-30 -15 -85 -15q-102 0 -133 78h-6
q-25 -39 -74.5 -61t-113.5 -22q-88 0 -143 41zM355.5 130q24.5 5 39.5 13v36q-15 5 -40.5 8.5t-49.5 3.5q-38 0 -59 -7t-21 -25q0 -20 20.5 -27t59.5 -7q26 0 50.5 5zM261 580h-172l159 175h162l159 -175h-172l-65 73h-6z" />
    <glyph glyph-name="atilde" unicode="&#xe3;" horiz-adv-x="665" 
d="M80 26q-55 41 -55 116q0 76 60 115t153 39q47 0 89.5 -8.5t67.5 -22.5v68q0 30 -17.5 43.5t-52.5 13.5t-54 -11.5t-19 -33.5h-200q0 86 71 135.5t202 49.5q128 0 199 -51t71 -150v-113q0 -31 5.5 -42t19.5 -11q5 0 15 2v-160q-30 -15 -85 -15q-102 0 -133 78h-6
q-25 -39 -74.5 -61t-113.5 -22q-88 0 -143 41zM355.5 130q24.5 5 39.5 13v36q-15 5 -40.5 8.5t-49.5 3.5q-38 0 -59 -7t-21 -25q0 -20 20.5 -27t59.5 -7q26 0 50.5 5zM117 610q0 71 32.5 108t90.5 37q29 0 50.5 -9.5t45.5 -26.5q17 -12 28.5 -18t24.5 -6q32 0 32 41v14h120
v-30q0 -71 -32.5 -108t-90.5 -37q-29 0 -50.5 9.5t-45.5 26.5q-17 12 -28.5 18t-24.5 6q-32 0 -32 -41v-14h-120v30z" />
    <glyph glyph-name="adieresis" unicode="&#xe4;" horiz-adv-x="665" 
d="M80 26q-55 41 -55 116q0 76 60 115t153 39q47 0 89.5 -8.5t67.5 -22.5v68q0 30 -17.5 43.5t-52.5 13.5t-54 -11.5t-19 -33.5h-200q0 86 71 135.5t202 49.5q128 0 199 -51t71 -150v-113q0 -31 5.5 -42t19.5 -11q5 0 15 2v-160q-30 -15 -85 -15q-102 0 -133 78h-6
q-25 -39 -74.5 -61t-113.5 -22q-88 0 -143 41zM355.5 130q24.5 5 39.5 13v36q-15 5 -40.5 8.5t-49.5 3.5q-38 0 -59 -7t-21 -25q0 -20 20.5 -27t59.5 -7q26 0 50.5 5zM132.5 592q-28.5 27 -28.5 68t28.5 68t71.5 27t71.5 -27t28.5 -68t-28.5 -68t-71.5 -27t-71.5 27z
M382.5 592q-28.5 27 -28.5 68t28.5 68t71.5 27t71.5 -27t28.5 -68t-28.5 -68t-71.5 -27t-71.5 27z" />
    <glyph glyph-name="aring" unicode="&#xe5;" horiz-adv-x="665" 
d="M80 26q-55 41 -55 116q0 76 60 115t153 39q47 0 89.5 -8.5t67.5 -22.5v68q0 30 -17.5 43.5t-52.5 13.5t-54 -11.5t-19 -33.5h-200q0 86 71 135.5t202 49.5q128 0 199 -51t71 -150v-113q0 -31 5.5 -42t19.5 -11q5 0 15 2v-160q-30 -15 -85 -15q-102 0 -133 78h-6
q-25 -39 -74.5 -61t-113.5 -22q-88 0 -143 41zM355.5 130q24.5 5 39.5 13v36q-15 5 -40.5 8.5t-49.5 3.5q-38 0 -59 -7t-21 -25q0 -20 20.5 -27t59.5 -7q26 0 50.5 5zM229 599.5q-38 34.5 -38 90.5t38 90.5t100 34.5t100 -34.5t38 -90.5t-38 -90.5t-100 -34.5t-100 34.5z
M360 661q12 11 12 29t-12 29t-31 11t-31 -11t-12 -29t12 -29t31 -11t31 11z" />
    <glyph glyph-name="ae" unicode="&#xe6;" horiz-adv-x="1015" 
d="M984 233q-1 -13 -3 -23h-386q8 -45 33 -67.5t61 -22.5q26 0 46.5 11t31.5 34h207q-16 -86 -87.5 -135.5t-178.5 -49.5q-65 0 -121.5 19.5t-91.5 58.5h-6q-42 -35 -102.5 -56.5t-133.5 -21.5q-109 0 -168.5 42t-59.5 120q0 163 270 163h100v23q0 62 -71 62
q-34 0 -53 -11.5t-19 -33.5h-200q0 56 31.5 98t88 64.5t130.5 22.5q65 0 118.5 -21t83.5 -55h6q34 36 85 56t112 20q83 0 146 -32.5t97.5 -94.5t34.5 -146q0 -11 -1 -24zM629.5 369q-24.5 -21 -33.5 -64h181q-1 38 -26.5 61.5t-61.5 23.5q-35 0 -59.5 -21zM395 210h-84
q-86 0 -86 -42q0 -41 80 -41q90 0 90 63v20z" />
    <glyph glyph-name="ccedilla" unicode="&#xe7;" horiz-adv-x="660" 
d="M630 208q0 -62 -33 -112t-92.5 -80t-135.5 -35l-14 -18q47 -5 72 -29t25 -64q0 -50 -36 -80t-100 -30q-46 0 -84 14v84q32 -8 66 -8q54 0 54 27q0 12 -10.5 17.5t-34.5 5.5h-37v49l25 33q-76 9 -135 44t-92 93.5t-33 135.5q0 84 39.5 146.5t109 95.5t156.5 33
q83 0 148 -28t101 -78.5t36 -115.5h-202q-9 29 -30 43t-58 14q-44 0 -72 -28t-28 -82t28 -82t72 -28q78 0 93 63h202z" />
    <glyph glyph-name="egrave" unicode="&#xe8;" horiz-adv-x="665" 
d="M634 233q-1 -13 -3 -23h-396q9 -45 35 -67.5t65 -22.5q61 0 82 45h207q-9 -48 -41.5 -90t-92.5 -68.5t-147 -26.5q-92 0 -161.5 33t-108 95.5t-38.5 146.5q0 85 38.5 147t107 95t156.5 33q86 0 153.5 -30.5t106 -92t38.5 -150.5q0 -11 -1 -24zM236 305h191
q-2 38 -27 61.5t-65 23.5q-80 0 -99 -85zM406 580h-125l-135 190h181z" />
    <glyph glyph-name="eacute" unicode="&#xe9;" horiz-adv-x="665" 
d="M634 233q-1 -13 -3 -23h-396q9 -45 35 -67.5t65 -22.5q61 0 82 45h207q-9 -48 -41.5 -90t-92.5 -68.5t-147 -26.5q-92 0 -161.5 33t-108 95.5t-38.5 146.5q0 85 38.5 147t107 95t156.5 33q86 0 153.5 -30.5t106 -92t38.5 -150.5q0 -11 -1 -24zM236 305h191
q-2 38 -27 61.5t-65 23.5q-80 0 -99 -85zM395 580h-125l79 190h181z" />
    <glyph glyph-name="ecircumflex" unicode="&#xea;" horiz-adv-x="665" 
d="M634 233q-1 -13 -3 -23h-396q9 -45 35 -67.5t65 -22.5q61 0 82 45h207q-9 -48 -41.5 -90t-92.5 -68.5t-147 -26.5q-92 0 -161.5 33t-108 95.5t-38.5 146.5q0 85 38.5 147t107 95t156.5 33q86 0 153.5 -30.5t106 -92t38.5 -150.5q0 -11 -1 -24zM236 305h191
q-2 38 -27 61.5t-65 23.5q-80 0 -99 -85zM270 580h-172l159 175h162l159 -175h-172l-65 73h-6z" />
    <glyph glyph-name="edieresis" unicode="&#xeb;" horiz-adv-x="665" 
d="M634 233q-1 -13 -3 -23h-396q9 -45 35 -67.5t65 -22.5q61 0 82 45h207q-9 -48 -41.5 -90t-92.5 -68.5t-147 -26.5q-92 0 -161.5 33t-108 95.5t-38.5 146.5q0 85 38.5 147t107 95t156.5 33q86 0 153.5 -30.5t106 -92t38.5 -150.5q0 -11 -1 -24zM236 305h191
q-2 38 -27 61.5t-65 23.5q-80 0 -99 -85zM141.5 592q-28.5 27 -28.5 68t28.5 68t71.5 27t71.5 -27t28.5 -68t-28.5 -68t-71.5 -27t-71.5 27zM391.5 592q-28.5 27 -28.5 68t28.5 68t71.5 27t71.5 -27t28.5 -68t-28.5 -68t-71.5 -27t-71.5 27z" />
    <glyph glyph-name="igrave" unicode="&#xec;" horiz-adv-x="340" 
d="M270 0h-200v510h200v-510zM238 580h-125l-135 190h181z" />
    <glyph glyph-name="iacute" unicode="&#xed;" horiz-adv-x="340" 
d="M270 0h-200v510h200v-510zM227 580h-125l79 190h181z" />
    <glyph glyph-name="icircumflex" unicode="&#xee;" horiz-adv-x="340" 
d="M270 0h-200v510h200v-510zM102 580h-172l159 175h162l159 -175h-172l-65 73h-6z" />
    <glyph glyph-name="idieresis" unicode="&#xef;" horiz-adv-x="340" 
d="M270 0h-200v510h200v-510zM-26.5 592q-28.5 27 -28.5 68t28.5 68t71.5 27t71.5 -27t28.5 -68t-28.5 -68t-71.5 -27t-71.5 27zM223.5 592q-28.5 27 -28.5 68t28.5 68t71.5 27t71.5 -27t28.5 -68t-28.5 -68t-71.5 -27t-71.5 27z" />
    <glyph glyph-name="eth" unicode="&#xf0;" horiz-adv-x="660" 
d="M460 657q75 -52 115 -141.5t40 -201.5q0 -158 -79 -246t-223 -88q-85 0 -147.5 28.5t-96.5 82.5t-34 127q0 65 29.5 115.5t82.5 78.5t121 28q50 0 91.5 -14t68.5 -39q-2 44 -22 81t-53 61l-57 -69l-79 62l38 46q-22 2 -33 2q-34 0 -59 -4l-15 147q45 7 100 7
q63 0 119 -17l65 77l79 -61zM395 163.5q25 23.5 25 61.5t-24.5 61.5t-65.5 23.5q-40 0 -65 -23.5t-25 -61.5t25 -61.5t65 -23.5t65 23.5z" />
    <glyph glyph-name="ntilde" unicode="&#xf1;" horiz-adv-x="715" 
d="M65 0v510h195v-85h6q24 45 72.5 72.5t112.5 27.5q96 0 150 -57t54 -158v-310h-200v239q0 45 -24.5 72t-66.5 27q-46 0 -72.5 -27t-26.5 -72v-239h-200zM148 610q0 71 32.5 108t90.5 37q29 0 50.5 -9.5t45.5 -26.5q17 -12 28.5 -18t24.5 -6q32 0 32 41v14h120v-30
q0 -71 -32.5 -108t-90.5 -37q-29 0 -50.5 9.5t-45.5 26.5q-17 12 -28.5 18t-24.5 6q-32 0 -32 -41v-14h-120v30z" />
    <glyph glyph-name="ograve" unicode="&#xf2;" horiz-adv-x="670" 
d="M181 13q-68 33 -107 95.5t-39 146.5t39 146.5t107 95.5t154 33t154 -33t107 -95.5t39 -146.5t-39 -146.5t-107 -95.5t-154 -33t-154 33zM404.5 173.5q25.5 28.5 25.5 81.5t-25.5 81.5t-69.5 28.5t-69.5 -28.5t-25.5 -81.5t25.5 -81.5t69.5 -28.5t69.5 28.5zM403 580h-125
l-135 190h181z" />
    <glyph glyph-name="oacute" unicode="&#xf3;" horiz-adv-x="670" 
d="M181 13q-68 33 -107 95.5t-39 146.5t39 146.5t107 95.5t154 33t154 -33t107 -95.5t39 -146.5t-39 -146.5t-107 -95.5t-154 -33t-154 33zM404.5 173.5q25.5 28.5 25.5 81.5t-25.5 81.5t-69.5 28.5t-69.5 -28.5t-25.5 -81.5t25.5 -81.5t69.5 -28.5t69.5 28.5zM392 580h-125
l79 190h181z" />
    <glyph glyph-name="ocircumflex" unicode="&#xf4;" horiz-adv-x="670" 
d="M181 13q-68 33 -107 95.5t-39 146.5t39 146.5t107 95.5t154 33t154 -33t107 -95.5t39 -146.5t-39 -146.5t-107 -95.5t-154 -33t-154 33zM404.5 173.5q25.5 28.5 25.5 81.5t-25.5 81.5t-69.5 28.5t-69.5 -28.5t-25.5 -81.5t25.5 -81.5t69.5 -28.5t69.5 28.5zM267 580h-172
l159 175h162l159 -175h-172l-65 73h-6z" />
    <glyph glyph-name="otilde" unicode="&#xf5;" horiz-adv-x="670" 
d="M181 13q-68 33 -107 95.5t-39 146.5t39 146.5t107 95.5t154 33t154 -33t107 -95.5t39 -146.5t-39 -146.5t-107 -95.5t-154 -33t-154 33zM404.5 173.5q25.5 28.5 25.5 81.5t-25.5 81.5t-69.5 28.5t-69.5 -28.5t-25.5 -81.5t25.5 -81.5t69.5 -28.5t69.5 28.5zM123 610
q0 71 32.5 108t90.5 37q29 0 50.5 -9.5t45.5 -26.5q17 -12 28.5 -18t24.5 -6q32 0 32 41v14h120v-30q0 -71 -32.5 -108t-90.5 -37q-29 0 -50.5 9.5t-45.5 26.5q-17 12 -28.5 18t-24.5 6q-32 0 -32 -41v-14h-120v30z" />
    <glyph glyph-name="odieresis" unicode="&#xf6;" horiz-adv-x="670" 
d="M181 13q-68 33 -107 95.5t-39 146.5t39 146.5t107 95.5t154 33t154 -33t107 -95.5t39 -146.5t-39 -146.5t-107 -95.5t-154 -33t-154 33zM404.5 173.5q25.5 28.5 25.5 81.5t-25.5 81.5t-69.5 28.5t-69.5 -28.5t-25.5 -81.5t25.5 -81.5t69.5 -28.5t69.5 28.5zM138.5 592
q-28.5 27 -28.5 68t28.5 68t71.5 27t71.5 -27t28.5 -68t-28.5 -68t-71.5 -27t-71.5 27zM388.5 592q-28.5 27 -28.5 68t28.5 68t71.5 27t71.5 -27t28.5 -68t-28.5 -68t-71.5 -27t-71.5 27z" />
    <glyph glyph-name="divide" unicode="&#xf7;" 
d="M283 509.5q-28 24.5 -28 65.5q0 40 28 65t67 25t67 -25t28 -65q0 -41 -28 -65.5t-67 -24.5t-67 24.5zM600 295h-500v135h500v-135zM283 85q-28 25 -28 65q0 41 28 65.5t67 24.5t67 -24.5t28 -65.5q0 -40 -28 -65t-67 -25t-67 25z" />
    <glyph glyph-name="oslash" unicode="&#xf8;" horiz-adv-x="670" 
d="M547 459q42 -37 65 -88.5t23 -115.5q0 -84 -39 -146.5t-107 -95.5t-154 -33q-69 0 -126 21l-30 -41h-124l68 91q-42 37 -65 88.5t-23 115.5q0 84 39 146.5t107 95.5t154 33q69 0 126 -21l30 41h124zM231 198l135 183q-12 4 -31 4q-53 0 -83 -34t-30 -96q0 -33 9 -57z
M418 159q30 34 30 96q0 33 -9 57l-135 -183q12 -4 31 -4q53 0 83 34z" />
    <glyph glyph-name="ugrave" unicode="&#xf9;" horiz-adv-x="710" 
d="M115.5 40q-55.5 55 -55.5 160v310h200v-243q0 -45 23.5 -70t62.5 -25q47 0 73 25t26 70v243h200v-510h-195v85h-6q-24 -46 -70.5 -73t-109.5 -27q-93 0 -148.5 55zM421 580h-125l-135 190h181z" />
    <glyph glyph-name="uacute" unicode="&#xfa;" horiz-adv-x="710" 
d="M115.5 40q-55.5 55 -55.5 160v310h200v-243q0 -45 23.5 -70t62.5 -25q47 0 73 25t26 70v243h200v-510h-195v85h-6q-24 -46 -70.5 -73t-109.5 -27q-93 0 -148.5 55zM410 580h-125l79 190h181z" />
    <glyph glyph-name="ucircumflex" unicode="&#xfb;" horiz-adv-x="710" 
d="M115.5 40q-55.5 55 -55.5 160v310h200v-243q0 -45 23.5 -70t62.5 -25q47 0 73 25t26 70v243h200v-510h-195v85h-6q-24 -46 -70.5 -73t-109.5 -27q-93 0 -148.5 55zM285 580h-172l159 175h162l159 -175h-172l-65 73h-6z" />
    <glyph glyph-name="udieresis" unicode="&#xfc;" horiz-adv-x="710" 
d="M115.5 40q-55.5 55 -55.5 160v310h200v-243q0 -45 23.5 -70t62.5 -25q47 0 73 25t26 70v243h200v-510h-195v85h-6q-24 -46 -70.5 -73t-109.5 -27q-93 0 -148.5 55zM156.5 592q-28.5 27 -28.5 68t28.5 68t71.5 27t71.5 -27t28.5 -68t-28.5 -68t-71.5 -27t-71.5 27z
M406.5 592q-28.5 27 -28.5 68t28.5 68t71.5 27t71.5 -27t28.5 -68t-28.5 -68t-71.5 -27t-71.5 27z" />
    <glyph glyph-name="yacute" unicode="&#xfd;" horiz-adv-x="645" 
d="M439 510h206l-206 -490q-34 -80 -68.5 -130t-85.5 -77.5t-126 -27.5q-45 0 -83 9v165q29 -9 58 -9q38 0 63.5 15t36.5 43l6 15l-245 487h209l127 -289h6zM378 580h-125l79 190h181z" />
    <glyph glyph-name="thorn" unicode="&#xfe;" horiz-adv-x="715" 
d="M70 -200v900h200v-255h6q23 37 67.5 58.5t100.5 21.5q66 0 120 -33t85 -94.5t31 -142.5t-31.5 -142.5t-86 -94.5t-122.5 -33q-54 0 -96.5 21t-67.5 59h-6v-265h-200zM441.5 182.5q28.5 27.5 28.5 72.5t-28.5 72.5t-71.5 27.5t-71.5 -27.5t-28.5 -72.5t28.5 -72.5
t71.5 -27.5t71.5 27.5z" />
    <glyph glyph-name="ydieresis" unicode="&#xff;" horiz-adv-x="645" 
d="M439 510h206l-206 -490q-34 -80 -68.5 -130t-85.5 -77.5t-126 -27.5q-45 0 -83 9v165q29 -9 58 -9q38 0 63.5 15t36.5 43l6 15l-245 487h209l127 -289h6zM124.5 592q-28.5 27 -28.5 68t28.5 68t71.5 27t71.5 -27t28.5 -68t-28.5 -68t-71.5 -27t-71.5 27zM374.5 592
q-28.5 27 -28.5 68t28.5 68t71.5 27t71.5 -27t28.5 -68t-28.5 -68t-71.5 -27t-71.5 27z" />
    <glyph glyph-name="Amacron" unicode="&#x100;" horiz-adv-x="814" 
d="M824 0h-231l-38 100h-299l-38 -100h-228l283 700h268zM402 485l-83 -220h173l-84 220h-6zM612 795h-410v115h410v-115z" />
    <glyph glyph-name="amacron" unicode="&#x101;" horiz-adv-x="665" 
d="M80 26q-55 41 -55 116q0 76 60 115t153 39q47 0 89.5 -8.5t67.5 -22.5v68q0 30 -17.5 43.5t-52.5 13.5t-54 -11.5t-19 -33.5h-200q0 86 71 135.5t202 49.5q128 0 199 -51t71 -150v-113q0 -31 5.5 -42t19.5 -11q5 0 15 2v-160q-30 -15 -85 -15q-102 0 -133 78h-6
q-25 -39 -74.5 -61t-113.5 -22q-88 0 -143 41zM355.5 130q24.5 5 39.5 13v36q-15 5 -40.5 8.5t-49.5 3.5q-38 0 -59 -7t-21 -25q0 -20 20.5 -27t59.5 -7q26 0 50.5 5zM534 595h-410v115h410v-115z" />
    <glyph glyph-name="Abreve" unicode="&#x102;" horiz-adv-x="814" 
d="M824 0h-231l-38 100h-299l-38 -100h-228l283 700h268zM402 485l-83 -220h173l-84 220h-6zM245 811q-58 46 -58 124h125q0 -27 25 -43.5t70 -16.5t70 16.5t25 43.5h125q0 -78 -58 -124t-162 -46t-162 46z" />
    <glyph glyph-name="abreve" unicode="&#x103;" horiz-adv-x="665" 
d="M80 26q-55 41 -55 116q0 76 60 115t153 39q47 0 89.5 -8.5t67.5 -22.5v68q0 30 -17.5 43.5t-52.5 13.5t-54 -11.5t-19 -33.5h-200q0 86 71 135.5t202 49.5q128 0 199 -51t71 -150v-113q0 -31 5.5 -42t19.5 -11q5 0 15 2v-160q-30 -15 -85 -15q-102 0 -133 78h-6
q-25 -39 -74.5 -61t-113.5 -22q-88 0 -143 41zM355.5 130q24.5 5 39.5 13v36q-15 5 -40.5 8.5t-49.5 3.5q-38 0 -59 -7t-21 -25q0 -20 20.5 -27t59.5 -7q26 0 50.5 5zM109 750h125q0 -29 24 -44.5t71 -15.5t71 15.5t24 44.5h125q0 -170 -220 -170t-220 170z" />
    <glyph glyph-name="Aogonek" unicode="&#x104;" horiz-adv-x="814" 
d="M751.5 -139q12.5 -11 34.5 -11q19 0 38 8v-84q-23 -14 -66 -14q-57 0 -88 27.5t-31 81.5q0 39 23 72.5t62 58.5h-131l-38 100h-299l-38 -100h-228l283 700h268l283 -700q-85 -54 -85 -105q0 -23 12.5 -34zM402 485l-83 -220h173l-84 220h-6z" />
    <glyph glyph-name="aogonek" unicode="&#x105;" horiz-adv-x="665" 
d="M635 5q-85 -56 -85 -110q0 -23 12.5 -34t34.5 -11q19 0 38 8v-84q-23 -14 -66 -14q-57 0 -88 27.5t-31 81.5q0 36 18.5 67.5t50.5 55.5q-76 13 -102 78h-6q-25 -39 -75 -62t-113 -23q-88 0 -143 41t-55 116q0 76 60 115t153 39q47 0 89.5 -8.5t67.5 -22.5v68
q0 30 -17.5 43.5t-52.5 13.5t-54 -11.5t-19 -33.5h-200q0 86 71 135.5t202 49.5q128 0 199 -51t71 -150v-113q0 -31 5.5 -42t19.5 -11q5 0 15 2v-160zM395 179q-15 5 -40.5 8.5t-49.5 3.5q-38 0 -59 -7t-21 -25t20.5 -25t59.5 -7q26 0 50.5 5t39.5 13v34z" />
    <glyph glyph-name="Cacute" unicode="&#x106;" horiz-adv-x="805" 
d="M215 30.5q-86 45.5 -133 128.5t-47 191t47 191t133 128.5t200 45.5q102 0 179.5 -35t123 -98.5t55.5 -146.5h-229q-10 44 -44.5 69.5t-84.5 25.5q-67 0 -106 -48t-39 -132t39 -132t106 -48q50 0 84.5 23.5t45.5 66.5h230q-10 -82 -56 -144t-123.5 -96.5t-180.5 -34.5
q-114 0 -200 45.5zM476 770h-138l72 175h194z" />
    <glyph glyph-name="cacute" unicode="&#x107;" horiz-adv-x="660" 
d="M183.5 13q-69.5 33 -109 95.5t-39.5 146.5t39.5 146.5t109 95.5t156.5 33q83 0 148 -28t101 -78.5t36 -115.5h-202q-9 29 -30 43t-58 14q-44 0 -72 -28t-28 -82t28 -82t72 -28q78 0 93 63h202q0 -66 -37 -118t-103 -81t-150 -29q-87 0 -156.5 33zM401 580h-125l79 190
h181z" />
    <glyph glyph-name="Ccircumflex" unicode="&#x108;" horiz-adv-x="805" 
d="M215 30.5q-86 45.5 -133 128.5t-47 191t47 191t133 128.5t200 45.5q102 0 179.5 -35t123 -98.5t55.5 -146.5h-229q-10 44 -44.5 69.5t-84.5 25.5q-67 0 -106 -48t-39 -132t39 -132t106 -48q50 0 84.5 23.5t45.5 66.5h230q-10 -82 -56 -144t-123.5 -96.5t-180.5 -34.5
q-114 0 -200 45.5zM341 770h-172l159 175h162l159 -175h-172l-65 73h-6z" />
    <glyph glyph-name="ccircumflex" unicode="&#x109;" horiz-adv-x="660" 
d="M183.5 13q-69.5 33 -109 95.5t-39.5 146.5t39.5 146.5t109 95.5t156.5 33q83 0 148 -28t101 -78.5t36 -115.5h-202q-9 29 -30 43t-58 14q-44 0 -72 -28t-28 -82t28 -82t72 -28q78 0 93 63h202q0 -66 -37 -118t-103 -81t-150 -29q-87 0 -156.5 33zM276 580h-172l159 175
h162l159 -175h-172l-65 73h-6z" />
    <glyph glyph-name="Cdotaccent" unicode="&#x10a;" horiz-adv-x="805" 
d="M215 30.5q-86 45.5 -133 128.5t-47 191t47 191t133 128.5t200 45.5q102 0 179.5 -35t123 -98.5t55.5 -146.5h-229q-10 44 -44.5 69.5t-84.5 25.5q-67 0 -106 -48t-39 -132t39 -132t106 -48q50 0 84.5 23.5t45.5 66.5h230q-10 -82 -56 -144t-123.5 -96.5t-180.5 -34.5
q-114 0 -200 45.5zM335 782.5q-29 27.5 -29 69.5q0 43 29 70.5t74 27.5t74 -27.5t29 -70.5q0 -42 -29 -69.5t-74 -27.5t-74 27.5z" />
    <glyph glyph-name="cdotaccent" unicode="&#x10b;" horiz-adv-x="660" 
d="M183.5 13q-69.5 33 -109 95.5t-39.5 146.5t39.5 146.5t109 95.5t156.5 33q83 0 148 -28t101 -78.5t36 -115.5h-202q-9 29 -30 43t-58 14q-44 0 -72 -28t-28 -82t28 -82t72 -28q78 0 93 63h202q0 -66 -37 -118t-103 -81t-150 -29q-87 0 -156.5 33zM268.5 593
q-29.5 28 -29.5 72t29.5 72t75.5 28t75.5 -28t29.5 -72t-29.5 -72t-75.5 -28t-75.5 28z" />
    <glyph glyph-name="Ccaron" unicode="&#x10c;" horiz-adv-x="805" 
d="M215 30.5q-86 45.5 -133 128.5t-47 191t47 191t133 128.5t200 45.5q102 0 179.5 -35t123 -98.5t55.5 -146.5h-229q-10 44 -44.5 69.5t-84.5 25.5q-67 0 -106 -48t-39 -132t39 -132t106 -48q50 0 84.5 23.5t45.5 66.5h230q-10 -82 -56 -144t-123.5 -96.5t-180.5 -34.5
q-114 0 -200 45.5zM490 770h-162l-159 175h172l65 -73h6l65 73h172z" />
    <glyph glyph-name="ccaron" unicode="&#x10d;" horiz-adv-x="660" 
d="M183.5 13q-69.5 33 -109 95.5t-39.5 146.5t39.5 146.5t109 95.5t156.5 33q83 0 148 -28t101 -78.5t36 -115.5h-202q-9 29 -30 43t-58 14q-44 0 -72 -28t-28 -82t28 -82t72 -28q78 0 93 63h202q0 -66 -37 -118t-103 -81t-150 -29q-87 0 -156.5 33zM425 580h-162l-159 175
h172l65 -73h6l65 73h172z" />
    <glyph glyph-name="Dcaron" unicode="&#x10e;" horiz-adv-x="796" 
d="M70 0v700h311q115 0 201 -44t132.5 -123t46.5 -183t-46.5 -183t-132.5 -123t-201 -44h-311zM373 180q72 0 115 46t43 124t-43 124t-115 46h-83v-340h83zM461 770h-162l-159 175h172l65 -73h6l65 73h172z" />
    <glyph glyph-name="dcaron" unicode="&#x10f;" horiz-adv-x="840" 
d="M153.5 18q-55.5 33 -87 94.5t-31.5 142.5t31.5 142.5t86 94.5t122.5 33q54 0 96.5 -21t67.5 -59h6v255h200v-700h-180v75h-6q-23 -42 -70 -66t-111 -24q-69 0 -124.5 33zM417 182.5q28 27.5 28 72.5t-28 72.5t-72 27.5t-72 -27.5t-28 -72.5t28 -72.5t72 -27.5t72 27.5z
M794 530h-114l23 170h167z" />
    <glyph glyph-name="Dcroat" unicode="&#x110;" horiz-adv-x="806" 
d="M391 700q115 0 201 -44t132.5 -123t46.5 -183t-46.5 -183t-132.5 -123t-201 -44h-311v275h-80v150h80v275h311zM383 180q72 0 115 46t43 124t-43 124t-115 46h-83v-95h110v-150h-110v-95h83z" />
    <glyph glyph-name="dcroat" unicode="&#x111;" horiz-adv-x="715" 
d="M715 630v-120h-80v-510h-180v72h-6q-23 -40 -70.5 -63.5t-110.5 -23.5q-65 0 -118 29.5t-84 84.5t-31 130q0 71 31 126t84 85t118 30q104 0 161 -71h6v111h-175v120h175v70h200v-70h80zM409 157.5q26 26.5 26 68.5t-26 68.5t-69 26.5t-69 -26.5t-26 -68.5t26 -68.5
t69 -26.5t69 26.5z" />
    <glyph glyph-name="Emacron" unicode="&#x112;" horiz-adv-x="725" 
d="M680 700v-170h-390v-95h335v-160h-335v-105h390v-170h-610v700h610zM585 795h-410v115h410v-115z" />
    <glyph glyph-name="emacron" unicode="&#x113;" horiz-adv-x="665" 
d="M634 233q-1 -13 -3 -23h-396q9 -45 35 -67.5t65 -22.5q61 0 82 45h207q-9 -48 -41.5 -90t-92.5 -68.5t-147 -26.5q-92 0 -161.5 33t-108 95.5t-38.5 146.5q0 85 38.5 147t107 95t156.5 33q86 0 153.5 -30.5t106 -92t38.5 -150.5q0 -11 -1 -24zM236 305h191
q-2 38 -27 61.5t-65 23.5q-80 0 -99 -85zM543 595h-410v115h410v-115z" />
    <glyph glyph-name="Ebreve" unicode="&#x114;" horiz-adv-x="725" 
d="M680 700v-170h-390v-95h335v-160h-335v-105h390v-170h-610v700h610zM218 811q-58 46 -58 124h125q0 -27 25 -43.5t70 -16.5t70 16.5t25 43.5h125q0 -78 -58 -124t-162 -46t-162 46z" />
    <glyph glyph-name="ebreve" unicode="&#x115;" horiz-adv-x="665" 
d="M634 233q-1 -13 -3 -23h-396q9 -45 35 -67.5t65 -22.5q61 0 82 45h207q-9 -48 -41.5 -90t-92.5 -68.5t-147 -26.5q-92 0 -161.5 33t-108 95.5t-38.5 146.5q0 85 38.5 147t107 95t156.5 33q86 0 153.5 -30.5t106 -92t38.5 -150.5q0 -11 -1 -24zM236 305h191
q-2 38 -27 61.5t-65 23.5q-80 0 -99 -85zM118 750h125q0 -29 24 -44.5t71 -15.5t71 15.5t24 44.5h125q0 -170 -220 -170t-220 170z" />
    <glyph glyph-name="Edotaccent" unicode="&#x116;" horiz-adv-x="725" 
d="M680 700v-170h-390v-95h335v-160h-335v-105h390v-170h-610v700h610zM306 782.5q-29 27.5 -29 69.5q0 43 29 70.5t74 27.5t74 -27.5t29 -70.5q0 -42 -29 -69.5t-74 -27.5t-74 27.5z" />
    <glyph glyph-name="edotaccent" unicode="&#x117;" horiz-adv-x="665" 
d="M634 233q-1 -13 -3 -23h-396q9 -45 35 -67.5t65 -22.5q61 0 82 45h207q-9 -48 -41.5 -90t-92.5 -68.5t-147 -26.5q-92 0 -161.5 33t-108 95.5t-38.5 146.5q0 85 38.5 147t107 95t156.5 33q86 0 153.5 -30.5t106 -92t38.5 -150.5q0 -11 -1 -24zM236 305h191
q-2 38 -27 61.5t-65 23.5q-80 0 -99 -85zM262.5 593q-29.5 28 -29.5 72t29.5 72t75.5 28t75.5 -28t29.5 -72t-29.5 -72t-75.5 -28t-75.5 28z" />
    <glyph glyph-name="Eogonek" unicode="&#x118;" horiz-adv-x="725" 
d="M680 530h-390v-95h335v-160h-335v-105h390v-170q-85 -54 -85 -105q0 -23 12.5 -34t34.5 -11q19 0 38 8v-84q-23 -14 -66 -14q-57 0 -88 27.5t-31 81.5q0 39 23 72.5t62 58.5h-510v700h610v-170z" />
    <glyph glyph-name="eogonek" unicode="&#x119;" horiz-adv-x="665" 
d="M634 233q-1 -13 -3 -23h-396q9 -45 35 -67.5t65 -22.5q61 0 82 45h207q-8 -43 -32.5 -78t-68.5 -65q-53 -37 -82.5 -66t-29.5 -61q0 -23 12.5 -34t34.5 -11q19 0 38 8v-84q-23 -14 -66 -14q-57 0 -88 27.5t-31 81.5q0 61 59 112q-9 -1 -27 -1q-92 0 -161.5 33t-108 95.5
t-38.5 146.5q0 85 38.5 147t107 95t156.5 33q86 0 153.5 -30.5t106 -92t38.5 -150.5q0 -11 -1 -24zM236 305h191q-2 38 -27 61.5t-65 23.5q-80 0 -99 -85z" />
    <glyph glyph-name="Ecaron" unicode="&#x11a;" horiz-adv-x="725" 
d="M680 700v-170h-390v-95h335v-160h-335v-105h390v-170h-610v700h610zM461 770h-162l-159 175h172l65 -73h6l65 73h172z" />
    <glyph glyph-name="ecaron" unicode="&#x11b;" horiz-adv-x="665" 
d="M634 233q-1 -13 -3 -23h-396q9 -45 35 -67.5t65 -22.5q61 0 82 45h207q-9 -48 -41.5 -90t-92.5 -68.5t-147 -26.5q-92 0 -161.5 33t-108 95.5t-38.5 146.5q0 85 38.5 147t107 95t156.5 33q86 0 153.5 -30.5t106 -92t38.5 -150.5q0 -11 -1 -24zM236 305h191
q-2 38 -27 61.5t-65 23.5q-80 0 -99 -85zM419 580h-162l-159 175h172l65 -73h6l65 73h172z" />
    <glyph glyph-name="Gcircumflex" unicode="&#x11c;" horiz-adv-x="820" 
d="M390 385h395v-33q0 -111 -45.5 -194t-129 -128t-195.5 -45q-114 0 -200 45.5t-133 128.5t-47 191t47 191t133 128.5t200 45.5q95 0 170.5 -30t123 -86.5t60.5 -133.5h-234q-14 31 -45.5 48t-74.5 17q-67 0 -106 -48t-39 -132t39 -132t106 -48q50 0 84 21t46 59h-155v135z
M339 770h-172l159 175h162l159 -175h-172l-65 73h-6z" />
    <glyph glyph-name="gcircumflex" unicode="&#x11d;" horiz-adv-x="660" 
d="M97.5 -180q-72.5 40 -72.5 127q0 94 97 133v6q-17 7 -26.5 22t-9.5 33q0 22 15 37.5t42 23.5v6q-37 20 -55 54.5t-18 76.5q0 81 67.5 126t187.5 45h152q20 0 29 6t9 22q0 15 -4 27h104q20 -32 20 -66q0 -30 -19.5 -46.5t-55.5 -16.5h-22v-6q42 -40 42 -104
q0 -156 -255 -156q-50 0 -69.5 -6t-19.5 -21q0 -16 18.5 -22t71.5 -6h45q130 0 192 -42.5t62 -116.5q0 -93 -73.5 -134.5t-226.5 -41.5q-155 0 -227.5 40zM373 303.5q17 13.5 17 36.5t-17 36.5t-48 13.5t-48 -13.5t-17 -36.5t17 -36.5t48 -13.5t48 13.5zM404 -82q21 8 21 30
q0 19 -22 28t-78 9t-78 -9t-22 -28q0 -22 21 -30t79 -8t79 8zM262 580h-172l159 175h162l159 -175h-172l-65 73h-6z" />
    <glyph glyph-name="Gbreve" unicode="&#x11e;" horiz-adv-x="820" 
d="M390 385h395v-33q0 -111 -45.5 -194t-129 -128t-195.5 -45q-114 0 -200 45.5t-133 128.5t-47 191t47 191t133 128.5t200 45.5q95 0 170.5 -30t123 -86.5t60.5 -133.5h-234q-14 31 -45.5 48t-74.5 17q-67 0 -106 -48t-39 -132t39 -132t106 -48q50 0 84 21t46 59h-155v135z
M245 811q-58 46 -58 124h125q0 -27 25 -43.5t70 -16.5t70 16.5t25 43.5h125q0 -78 -58 -124t-162 -46t-162 46z" />
    <glyph glyph-name="gbreve" unicode="&#x11f;" horiz-adv-x="660" 
d="M97.5 -180q-72.5 40 -72.5 127q0 94 97 133v6q-17 7 -26.5 22t-9.5 33q0 22 15 37.5t42 23.5v6q-37 20 -55 54.5t-18 76.5q0 81 67.5 126t187.5 45h152q20 0 29 6t9 22q0 15 -4 27h104q20 -32 20 -66q0 -30 -19.5 -46.5t-55.5 -16.5h-22v-6q42 -40 42 -104
q0 -156 -255 -156q-50 0 -69.5 -6t-19.5 -21q0 -16 18.5 -22t71.5 -6h45q130 0 192 -42.5t62 -116.5q0 -93 -73.5 -134.5t-226.5 -41.5q-155 0 -227.5 40zM373 303.5q17 13.5 17 36.5t-17 36.5t-48 13.5t-48 -13.5t-17 -36.5t17 -36.5t48 -13.5t48 13.5zM404 -82q21 8 21 30
q0 19 -22 28t-78 9t-78 -9t-22 -28q0 -22 21 -30t79 -8t79 8zM110 750h125q0 -29 24 -44.5t71 -15.5t71 15.5t24 44.5h125q0 -170 -220 -170t-220 170z" />
    <glyph glyph-name="Gdotaccent" unicode="&#x120;" horiz-adv-x="820" 
d="M390 385h395v-33q0 -111 -45.5 -194t-129 -128t-195.5 -45q-114 0 -200 45.5t-133 128.5t-47 191t47 191t133 128.5t200 45.5q95 0 170.5 -30t123 -86.5t60.5 -133.5h-234q-14 31 -45.5 48t-74.5 17q-67 0 -106 -48t-39 -132t39 -132t106 -48q50 0 84 21t46 59h-155v135z
M333 782.5q-29 27.5 -29 69.5q0 43 29 70.5t74 27.5t74 -27.5t29 -70.5q0 -42 -29 -69.5t-74 -27.5t-74 27.5z" />
    <glyph glyph-name="gdotaccent" unicode="&#x121;" horiz-adv-x="660" 
d="M97.5 -180q-72.5 40 -72.5 127q0 94 97 133v6q-17 7 -26.5 22t-9.5 33q0 22 15 37.5t42 23.5v6q-37 20 -55 54.5t-18 76.5q0 81 67.5 126t187.5 45h152q20 0 29 6t9 22q0 15 -4 27h104q20 -32 20 -66q0 -30 -19.5 -46.5t-55.5 -16.5h-22v-6q42 -40 42 -104
q0 -156 -255 -156q-50 0 -69.5 -6t-19.5 -21q0 -16 18.5 -22t71.5 -6h45q130 0 192 -42.5t62 -116.5q0 -93 -73.5 -134.5t-226.5 -41.5q-155 0 -227.5 40zM373 303.5q17 13.5 17 36.5t-17 36.5t-48 13.5t-48 -13.5t-17 -36.5t17 -36.5t48 -13.5t48 13.5zM404 -82q21 8 21 30
q0 19 -22 28t-78 9t-78 -9t-22 -28q0 -22 21 -30t79 -8t79 8zM254.5 593q-29.5 28 -29.5 72t29.5 72t75.5 28t75.5 -28t29.5 -72t-29.5 -72t-75.5 -28t-75.5 28z" />
    <glyph glyph-name="uni0122" unicode="&#x122;" horiz-adv-x="820" 
d="M390 385h395v-33q0 -111 -45.5 -194t-129 -128t-195.5 -45q-114 0 -200 45.5t-133 128.5t-47 191t47 191t133 128.5t200 45.5q95 0 170.5 -30t123 -86.5t60.5 -133.5h-234q-14 31 -45.5 48t-74.5 17q-67 0 -106 -48t-39 -132t39 -132t106 -48q50 0 84 21t46 59h-155v135z
M481 -94q23 -24 23 -57q0 -21 -7.5 -45.5t-26.5 -61.5l-31 -62h-62l33 97q-31 3 -51 23t-20 51q0 34 23 56.5t60 22.5q36 0 59 -24z" />
    <glyph glyph-name="uni0123" unicode="&#x123;" horiz-adv-x="660" 
d="M97.5 -180q-72.5 40 -72.5 127q0 94 97 133v6q-17 7 -26.5 22t-9.5 33q0 22 15 37.5t42 23.5v6q-37 20 -55 54.5t-18 76.5q0 81 67.5 126t187.5 45h152q20 0 29 6t9 22q0 15 -4 27h104q20 -32 20 -66q0 -30 -19.5 -46.5t-55.5 -16.5h-22v-6q42 -40 42 -104
q0 -156 -255 -156q-50 0 -69.5 -6t-19.5 -21q0 -16 18.5 -22t71.5 -6h45q130 0 192 -42.5t62 -116.5q0 -93 -73.5 -134.5t-226.5 -41.5q-155 0 -227.5 40zM373 303.5q17 13.5 17 36.5t-17 36.5t-48 13.5t-48 -13.5t-17 -36.5t17 -36.5t48 -13.5t48 13.5zM404 -82q21 8 21 30
q0 19 -22 28t-78 9t-78 -9t-22 -28q0 -22 21 -30t79 -8t79 8zM340 690q27 -3 44.5 -20t17.5 -45q0 -30 -20.5 -50t-52.5 -20q-31 0 -51.5 21t-20.5 50q0 38 29 94l28 55h55z" />
    <glyph glyph-name="Hcircumflex" unicode="&#x124;" horiz-adv-x="845" 
d="M555 450v250h220v-700h-220v270h-265v-270h-220v700h220v-250h265zM355 770h-172l159 175h162l159 -175h-172l-65 73h-6z" />
    <glyph glyph-name="hcircumflex" unicode="&#x125;" horiz-adv-x="720" 
d="M70 0v700h200v-270h6q23 42 70 68.5t110 26.5q96 0 150 -57t54 -158v-310h-200v239q0 45 -24.5 72t-66.5 27q-46 0 -72.5 -27t-26.5 -72v-239h-200zM298 770h-172l159 175h162l159 -175h-172l-65 73h-6z" />
    <glyph glyph-name="Hbar" unicode="&#x126;" horiz-adv-x="865" 
d="M785 645h80v-150h-80v-495h-220v270h-265v-270h-220v495h-80v150h80v55h220v-66h265v66h220v-55zM300 504v-79h265v79h-265z" />
    <glyph glyph-name="hbar" unicode="&#x127;" horiz-adv-x="730" 
d="M616 418q54 -57 54 -158v-260h-200v189q0 45 -24.5 72t-66.5 27q-46 0 -72.5 -27t-26.5 -72v-189h-200v510h-80v120h80v70h200v-70h175v-120h-175v-130h6q23 42 70 68.5t110 26.5q96 0 150 -57z" />
    <glyph glyph-name="Itilde" unicode="&#x128;" horiz-adv-x="380" 
d="M300 0h-220v700h220v-700zM228.5 784.5q-21.5 9.5 -45.5 26.5q-17 12 -28.5 18t-24.5 6q-32 0 -32 -41v-14h-120v30q0 71 32.5 108t90.5 37q29 0 50.5 -9.5t45.5 -26.5q17 -12 28.5 -18t24.5 -6q32 0 32 41v14h120v-30q0 -71 -32.5 -108t-90.5 -37q-29 0 -50.5 9.5z" />
    <glyph glyph-name="itilde" unicode="&#x129;" horiz-adv-x="340" 
d="M270 0h-200v510h200v-510zM-42 610q0 71 32.5 108t90.5 37q29 0 50.5 -9.5t45.5 -26.5q17 -12 28.5 -18t24.5 -6q32 0 32 41v14h120v-30q0 -71 -32.5 -108t-90.5 -37q-29 0 -50.5 9.5t-45.5 26.5q-17 12 -28.5 18t-24.5 6q-32 0 -32 -41v-14h-120v30z" />
    <glyph glyph-name="Imacron" unicode="&#x12a;" horiz-adv-x="380" 
d="M300 0h-220v700h220v-700zM395 795h-410v115h410v-115z" />
    <glyph glyph-name="imacron" unicode="&#x12b;" horiz-adv-x="340" 
d="M270 0h-200v510h200v-510zM375 595h-410v115h410v-115z" />
    <glyph glyph-name="Ibreve" unicode="&#x12c;" horiz-adv-x="380" 
d="M300 0h-220v700h220v-700zM28 811q-58 46 -58 124h125q0 -27 25 -43.5t70 -16.5t70 16.5t25 43.5h125q0 -78 -58 -124t-162 -46t-162 46z" />
    <glyph glyph-name="ibreve" unicode="&#x12d;" horiz-adv-x="340" 
d="M270 0h-200v510h200v-510zM-50 750h125q0 -29 24 -44.5t71 -15.5t71 15.5t24 44.5h125q0 -170 -220 -170t-220 170z" />
    <glyph glyph-name="Iogonek" unicode="&#x12e;" horiz-adv-x="380" 
d="M300 0q-85 -54 -85 -105q0 -23 12.5 -34t34.5 -11q19 0 38 8v-84q-23 -14 -66 -14q-57 0 -88 27.5t-31 81.5q0 39 23 72.5t62 58.5h-120v700h220v-700z" />
    <glyph glyph-name="iogonek" unicode="&#x12f;" horiz-adv-x="340" 
d="M94.5 593q-29.5 28 -29.5 72t29.5 72t75.5 28t75.5 -28t29.5 -72t-29.5 -72t-75.5 -28t-75.5 28zM70 0v510h200v-510q-85 -54 -85 -105q0 -23 12.5 -34t34.5 -11q19 0 38 8v-84q-23 -14 -66 -14q-57 0 -88 27.5t-31 81.5q0 39 23 72.5t62 58.5h-100z" />
    <glyph glyph-name="Idotaccent" unicode="&#x130;" horiz-adv-x="380" 
d="M300 0h-220v700h220v-700zM116 782.5q-29 27.5 -29 69.5q0 43 29 70.5t74 27.5t74 -27.5t29 -70.5q0 -42 -29 -69.5t-74 -27.5t-74 27.5z" />
    <glyph glyph-name="dotlessi" unicode="&#x131;" horiz-adv-x="340" 
d="M270 0h-200v510h200v-510z" />
    <glyph glyph-name="IJ" unicode="&#x132;" horiz-adv-x="1085" 
d="M300 0h-220v700h220v-700zM484.5 58.5q-79.5 73.5 -79.5 201.5v30h220v-30q0 -40 24 -65t69 -25t68.5 25t23.5 65v260h-275v180h495v-440q0 -128 -79.5 -201.5t-232.5 -73.5q-154 0 -233.5 73.5z" />
    <glyph glyph-name="ij" unicode="&#x133;" horiz-adv-x="690" 
d="M270 0h-200v510h200v-510zM94.5 593q-29.5 28 -29.5 72t29.5 72t75.5 28t75.5 -28t29.5 -72t-29.5 -72t-75.5 -28t-75.5 28zM290 -205v160q22 -5 47 -5q42 0 62.5 21t20.5 69v470h200v-491q0 -113 -63 -173.5t-182 -60.5q-51 0 -85 10zM444.5 593q-29.5 28 -29.5 72
t29.5 72t75.5 28t75.5 -28t29.5 -72t-29.5 -72t-75.5 -28t-75.5 28z" />
    <glyph glyph-name="Jcircumflex" unicode="&#x134;" horiz-adv-x="705" 
d="M104.5 58.5q-79.5 73.5 -79.5 201.5v30h220v-30q0 -40 24 -65t69 -25t68.5 25t23.5 65v260h-275v180h495v-440q0 -128 -79.5 -201.5t-232.5 -73.5q-154 0 -233.5 73.5zM345 770h-172l159 175h162l159 -175h-172l-65 73h-6z" />
    <glyph glyph-name="jcircumflex" unicode="&#x135;" horiz-adv-x="350" 
d="M-50 -205v160q22 -5 47 -5q42 0 62.5 21t20.5 69v470h200v-491q0 -113 -63 -173.5t-182 -60.5q-51 0 -85 10zM112 580h-172l159 175h162l159 -175h-172l-65 73h-6z" />
    <glyph glyph-name="uni0136" unicode="&#x136;" horiz-adv-x="765" 
d="M512 362l268 -362h-258l-232 329v-329h-220v700h220v-321l228 321h245zM460 -94q23 -24 23 -57q0 -21 -7.5 -45.5t-26.5 -61.5l-31 -62h-62l33 97q-31 3 -51 23t-20 51q0 34 23 56.5t60 22.5q36 0 59 -24z" />
    <glyph glyph-name="uni0137" unicode="&#x137;" horiz-adv-x="655" 
d="M459 270l206 -270h-227l-168 239v-239h-200v700h200v-420l156 230h209zM412 -94q23 -24 23 -57q0 -21 -7.5 -45.5t-26.5 -61.5l-31 -62h-62l33 97q-31 3 -51 23t-20 51q0 34 23 56.5t60 22.5q36 0 59 -24z" />
    <glyph glyph-name="Lacute" unicode="&#x139;" horiz-adv-x="670" 
d="M660 0h-590v700h220v-520h370v-180zM247 770h-138l72 175h194z" />
    <glyph glyph-name="lacute" unicode="&#x13a;" horiz-adv-x="340" 
d="M270 0h-200v700h200v-700zM227 770h-125l79 190h181z" />
    <glyph glyph-name="uni013B" unicode="&#x13b;" horiz-adv-x="670" 
d="M660 0h-590v700h220v-520h370v-180zM450 -94q23 -24 23 -57q0 -21 -7.5 -45.5t-26.5 -61.5l-31 -62h-62l33 97q-31 3 -51 23t-20 51q0 34 23 56.5t60 22.5q36 0 59 -24z" />
    <glyph glyph-name="uni013C" unicode="&#x13c;" horiz-adv-x="340" 
d="M270 0h-200v700h200v-700zM230 -94q23 -24 23 -57q0 -21 -7.5 -45.5t-26.5 -61.5l-31 -62h-62l33 97q-31 3 -51 23t-20 51q0 34 23 56.5t60 22.5q36 0 59 -24z" />
    <glyph glyph-name="Lcaron" unicode="&#x13d;" horiz-adv-x="670" 
d="M660 0h-590v700h220v-520h370v-180zM439 530h-114l23 170h167z" />
    <glyph glyph-name="lcaron" unicode="&#x13e;" horiz-adv-x="465" 
d="M270 0h-200v700h200v-700zM419 530h-114l23 170h167z" />
    <glyph glyph-name="Ldot" unicode="&#x13f;" horiz-adv-x="670" 
d="M660 0h-590v700h220v-520h370v-180zM437 324q-32 29 -32 76t32 76t78 29t78 -29t32 -76t-32 -76t-78 -29t-78 29z" />
    <glyph glyph-name="ldot" unicode="&#x140;" horiz-adv-x="496" 
d="M270 0h-200v700h200v-700zM340 274q-32 29 -32 76t32 76t78 29t78 -29t32 -76t-32 -76t-78 -29t-78 29z" />
    <glyph glyph-name="Lslash" unicode="&#x141;" horiz-adv-x="680" 
d="M300 331v-151h370v-180h-590v225l-80 -38v159l80 38v316h220v-210l140 67v-159z" />
    <glyph glyph-name="lslash" unicode="&#x142;" horiz-adv-x="390" 
d="M295 473l85 44v-152l-85 -44v-321h-200v216l-85 -44v152l85 44v332h200v-227z" />
    <glyph glyph-name="Nacute" unicode="&#x143;" horiz-adv-x="860" 
d="M285 0h-215v700h220l279 -377h6v377h215v-700h-220l-279 377h-6v-377zM497 770h-138l72 175h194z" />
    <glyph glyph-name="nacute" unicode="&#x144;" horiz-adv-x="715" 
d="M65 0v510h195v-85h6q24 45 72.5 72.5t112.5 27.5q96 0 150 -57t54 -158v-310h-200v239q0 45 -24.5 72t-66.5 27q-46 0 -72.5 -27t-26.5 -72v-239h-200zM417 580h-125l79 190h181z" />
    <glyph glyph-name="uni0145" unicode="&#x145;" horiz-adv-x="860" 
d="M285 0h-215v700h220l279 -377h6v377h215v-700h-220l-279 377h-6v-377zM490 -94q23 -24 23 -57q0 -21 -7.5 -45.5t-26.5 -61.5l-31 -62h-62l33 97q-31 3 -51 23t-20 51q0 34 23 56.5t60 22.5q36 0 59 -24z" />
    <glyph glyph-name="uni0146" unicode="&#x146;" horiz-adv-x="715" 
d="M65 0v510h195v-85h6q24 45 72.5 72.5t112.5 27.5q96 0 150 -57t54 -158v-310h-200v239q0 45 -24.5 72t-66.5 27q-46 0 -72.5 -27t-26.5 -72v-239h-200zM420 -94q23 -24 23 -57q0 -21 -7.5 -45.5t-26.5 -61.5l-31 -62h-62l33 97q-31 3 -51 23t-20 51q0 34 23 56.5t60 22.5
q36 0 59 -24z" />
    <glyph glyph-name="Ncaron" unicode="&#x147;" horiz-adv-x="860" 
d="M285 0h-215v700h220l279 -377h6v377h215v-700h-220l-279 377h-6v-377zM511 770h-162l-159 175h172l65 -73h6l65 73h172z" />
    <glyph glyph-name="ncaron" unicode="&#x148;" horiz-adv-x="715" 
d="M65 0v510h195v-85h6q24 45 72.5 72.5t112.5 27.5q96 0 150 -57t54 -158v-310h-200v239q0 45 -24.5 72t-66.5 27q-46 0 -72.5 -27t-26.5 -72v-239h-200zM441 580h-162l-159 175h172l65 -73h6l65 73h172z" />
    <glyph glyph-name="Eng" unicode="&#x14a;" horiz-adv-x="860" 
d="M575 700h215v-706q0 -123 -60.5 -183.5t-181.5 -60.5q-46 0 -92 11v171q21 -5 49 -5q77 0 83 71l-297 379h-6v-377h-215v700h220l279 -377h6v377z" />
    <glyph glyph-name="eng" unicode="&#x14b;" horiz-adv-x="715" 
d="M332 -205v155q23 -5 44 -5q41 0 60 21.5t19 71.5v201q0 45 -24.5 72t-66.5 27q-46 0 -72.5 -27t-26.5 -72v-239h-200v510h195v-85h6q24 45 72.5 72.5t112.5 27.5q96 0 150 -57t54 -158v-287q0 -117 -61 -177.5t-178 -60.5q-44 0 -84 10z" />
    <glyph glyph-name="Omacron" unicode="&#x14c;" horiz-adv-x="850" 
d="M220.5 30.5q-88.5 45.5 -137 128.5t-48.5 191t48.5 191t137 128.5t204.5 45.5t204.5 -45.5t137 -128.5t48.5 -191t-48.5 -191t-137 -128.5t-204.5 -45.5t-204.5 45.5zM538 218q42 48 42 132t-42 132t-113 48t-113 -48t-42 -132t42 -132t113 -48t113 48zM630 795h-410v115
h410v-115z" />
    <glyph glyph-name="omacron" unicode="&#x14d;" horiz-adv-x="670" 
d="M181 13q-68 33 -107 95.5t-39 146.5t39 146.5t107 95.5t154 33t154 -33t107 -95.5t39 -146.5t-39 -146.5t-107 -95.5t-154 -33t-154 33zM404.5 173.5q25.5 28.5 25.5 81.5t-25.5 81.5t-69.5 28.5t-69.5 -28.5t-25.5 -81.5t25.5 -81.5t69.5 -28.5t69.5 28.5zM540 595h-410
v115h410v-115z" />
    <glyph glyph-name="Obreve" unicode="&#x14e;" horiz-adv-x="850" 
d="M220.5 30.5q-88.5 45.5 -137 128.5t-48.5 191t48.5 191t137 128.5t204.5 45.5t204.5 -45.5t137 -128.5t48.5 -191t-48.5 -191t-137 -128.5t-204.5 -45.5t-204.5 45.5zM538 218q42 48 42 132t-42 132t-113 48t-113 -48t-42 -132t42 -132t113 -48t113 48zM263 811
q-58 46 -58 124h125q0 -27 25 -43.5t70 -16.5t70 16.5t25 43.5h125q0 -78 -58 -124t-162 -46t-162 46z" />
    <glyph glyph-name="obreve" unicode="&#x14f;" horiz-adv-x="670" 
d="M181 13q-68 33 -107 95.5t-39 146.5t39 146.5t107 95.5t154 33t154 -33t107 -95.5t39 -146.5t-39 -146.5t-107 -95.5t-154 -33t-154 33zM404.5 173.5q25.5 28.5 25.5 81.5t-25.5 81.5t-69.5 28.5t-69.5 -28.5t-25.5 -81.5t25.5 -81.5t69.5 -28.5t69.5 28.5zM115 750h125
q0 -29 24 -44.5t71 -15.5t71 15.5t24 44.5h125q0 -170 -220 -170t-220 170z" />
    <glyph glyph-name="Ohungarumlaut" unicode="&#x150;" horiz-adv-x="850" 
d="M220.5 30.5q-88.5 45.5 -137 128.5t-48.5 191t48.5 191t137 128.5t204.5 45.5t204.5 -45.5t137 -128.5t48.5 -191t-48.5 -191t-137 -128.5t-204.5 -45.5t-204.5 45.5zM538 218q42 48 42 132t-42 132t-113 48t-113 -48t-42 -132t42 -132t113 -48t113 48zM374 770h-138
l79 175h194zM587 770h-138l103 175h194z" />
    <glyph glyph-name="ohungarumlaut" unicode="&#x151;" horiz-adv-x="670" 
d="M181 13q-68 33 -107 95.5t-39 146.5t39 146.5t107 95.5t154 33t154 -33t107 -95.5t39 -146.5t-39 -146.5t-107 -95.5t-154 -33t-154 33zM404.5 173.5q25.5 28.5 25.5 81.5t-25.5 81.5t-69.5 28.5t-69.5 -28.5t-25.5 -81.5t25.5 -81.5t69.5 -28.5t69.5 28.5zM279 580h-128
l90 190h183zM492 580h-128l113 190h184z" />
    <glyph glyph-name="OE" unicode="&#x152;" horiz-adv-x="1065" 
d="M1020 530h-325v-95h270v-160h-270v-105h325v-170h-598q-111 0 -199.5 44.5t-138 124t-49.5 181.5t49.5 181.5t138 124t199.5 44.5h598v-170zM475 170v360h-35q-77 0 -123.5 -50.5t-46.5 -129.5t46.5 -129.5t123.5 -50.5h35z" />
    <glyph glyph-name="oe" unicode="&#x153;" horiz-adv-x="1050" 
d="M1019 233q-1 -13 -3 -23h-386q8 -45 33 -67.5t61 -22.5q26 0 46.5 11t31.5 34h207q-16 -86 -87.5 -135.5t-178.5 -49.5q-66 0 -119 17t-89 51h-6q-34 -31 -84.5 -49.5t-109.5 -18.5q-89 0 -157 34.5t-105.5 96.5t-37.5 144t37.5 144t105.5 96.5t157 34.5q58 0 111 -19
t84 -52h6q34 33 88.5 52t117.5 19q83 0 146 -32.5t97.5 -94.5t34.5 -146q0 -11 -1 -24zM664.5 369q-24.5 -21 -33.5 -64h181q-1 38 -26 61.5t-62 23.5q-35 0 -59.5 -21zM404.5 174q25.5 29 25.5 81t-25.5 81t-69.5 29q-45 0 -70 -29t-25 -81t25 -81t70 -29q44 0 69.5 29z
" />
    <glyph glyph-name="Racute" unicode="&#x154;" horiz-adv-x="765" 
d="M760 0h-244l-136 220h-90v-220h-220v700h328q160 0 231.5 -58t71.5 -178q0 -84 -33 -132t-79 -68zM392 400q39 0 59 14t20 46t-20 46t-59 14h-102v-120h102zM427 770h-138l72 175h194z" />
    <glyph glyph-name="racute" unicode="&#x155;" horiz-adv-x="530" 
d="M65 0v510h195v-65h6q25 39 71 59.5t108 20.5q25 0 45 -4v-197q-46 11 -89 11q-136 0 -136 -125v-210h-200zM341 580h-125l79 190h181z" />
    <glyph glyph-name="uni0156" unicode="&#x156;" horiz-adv-x="765" 
d="M760 0h-244l-136 220h-90v-220h-220v700h328q160 0 231.5 -58t71.5 -178q0 -84 -33 -132t-79 -68zM392 400q39 0 59 14t20 46t-20 46t-59 14h-102v-120h102zM463 -94q23 -24 23 -57q0 -21 -7.5 -45.5t-26.5 -61.5l-31 -62h-62l33 97q-31 3 -51 23t-20 51q0 34 23 56.5
t60 22.5q36 0 59 -24z" />
    <glyph glyph-name="uni0157" unicode="&#x157;" horiz-adv-x="530" 
d="M65 0v510h195v-65h6q25 39 71 59.5t108 20.5q25 0 45 -4v-197q-46 11 -89 11q-136 0 -136 -125v-210h-200zM225 -94q23 -24 23 -57q0 -21 -7.5 -45.5t-26.5 -61.5l-31 -62h-62l33 97q-31 3 -51 23t-20 51q0 34 23 56.5t60 22.5q36 0 59 -24z" />
    <glyph glyph-name="Rcaron" unicode="&#x158;" horiz-adv-x="765" 
d="M760 0h-244l-136 220h-90v-220h-220v700h328q160 0 231.5 -58t71.5 -178q0 -84 -33 -132t-79 -68zM392 400q39 0 59 14t20 46t-20 46t-59 14h-102v-120h102zM441 770h-162l-159 175h172l65 -73h6l65 73h172z" />
    <glyph glyph-name="rcaron" unicode="&#x159;" horiz-adv-x="530" 
d="M65 0v510h195v-65h6q25 39 71 59.5t108 20.5q25 0 45 -4v-197q-46 11 -89 11q-136 0 -136 -125v-210h-200zM365 580h-162l-159 175h172l65 -73h6l65 73h172z" />
    <glyph glyph-name="Sacute" unicode="&#x15a;" horiz-adv-x="755" 
d="M122 46.5q-87 61.5 -87 168.5h230q0 -32 31.5 -48.5t87.5 -16.5q106 0 106 50q0 31 -35.5 44.5t-113.5 25.5q-89 14 -147.5 32t-101 63t-42.5 126q0 67 37 117.5t108.5 78.5t173.5 28q103 0 176.5 -28t111.5 -79t38 -118h-230q0 28 -25.5 44t-72.5 16q-42 0 -64.5 -12
t-22.5 -35q0 -30 35.5 -43.5t112.5 -25.5q89 -15 147.5 -33t101.5 -63.5t43 -125.5q0 -109 -87.5 -168t-250.5 -59q-173 0 -260 61.5zM442 770h-138l72 175h194z" />
    <glyph glyph-name="sacute" unicode="&#x15b;" horiz-adv-x="620" 
d="M104 26.5q-74 46.5 -74 133.5h210q0 -21 20 -35.5t56 -14.5q39 0 59 10t20 29q0 21 -27 29t-86 15q-72 9 -119.5 21t-82.5 46t-35 98q0 53 33.5 91.5t93 59.5t135.5 21q86 0 148 -22.5t93.5 -62t31.5 -90.5h-210q0 19 -15.5 32t-46.5 13q-29 0 -46 -10.5t-17 -28.5
q0 -21 27.5 -29.5t86.5 -16.5q72 -9 119 -21.5t82 -45.5t35 -94q0 -86 -71.5 -130t-208.5 -44t-211 46.5zM369 580h-125l79 190h181z" />
    <glyph glyph-name="Scircumflex" unicode="&#x15c;" horiz-adv-x="755" 
d="M122 46.5q-87 61.5 -87 168.5h230q0 -32 31.5 -48.5t87.5 -16.5q106 0 106 50q0 31 -35.5 44.5t-113.5 25.5q-89 14 -147.5 32t-101 63t-42.5 126q0 67 37 117.5t108.5 78.5t173.5 28q103 0 176.5 -28t111.5 -79t38 -118h-230q0 28 -25.5 44t-72.5 16q-42 0 -64.5 -12
t-22.5 -35q0 -30 35.5 -43.5t112.5 -25.5q89 -15 147.5 -33t101.5 -63.5t43 -125.5q0 -109 -87.5 -168t-250.5 -59q-173 0 -260 61.5zM307 770h-172l159 175h162l159 -175h-172l-65 73h-6z" />
    <glyph glyph-name="scircumflex" unicode="&#x15d;" horiz-adv-x="620" 
d="M104 26.5q-74 46.5 -74 133.5h210q0 -21 20 -35.5t56 -14.5q39 0 59 10t20 29q0 21 -27 29t-86 15q-72 9 -119.5 21t-82.5 46t-35 98q0 53 33.5 91.5t93 59.5t135.5 21q86 0 148 -22.5t93.5 -62t31.5 -90.5h-210q0 19 -15.5 32t-46.5 13q-29 0 -46 -10.5t-17 -28.5
q0 -21 27.5 -29.5t86.5 -16.5q72 -9 119 -21.5t82 -45.5t35 -94q0 -86 -71.5 -130t-208.5 -44t-211 46.5zM244 580h-172l159 175h162l159 -175h-172l-65 73h-6z" />
    <glyph glyph-name="Scedilla" unicode="&#x15e;" horiz-adv-x="755" 
d="M641.5 50.5q-78.5 -58.5 -226.5 -64.5l-18 -23q47 -5 72 -29t25 -64q0 -50 -36 -80t-100 -30q-46 0 -84 14v84q32 -8 66 -8q54 0 54 27q0 12 -10.5 17.5t-34.5 5.5h-37v49l28 37q-152 8 -228.5 68.5t-76.5 160.5h230q0 -32 31.5 -48.5t87.5 -16.5q106 0 106 50
q0 31 -35.5 44.5t-113.5 25.5q-89 14 -147.5 32t-101 63t-42.5 126q0 67 37 117.5t108.5 78.5t173.5 28q103 0 176.5 -28t111.5 -79t38 -118h-230q0 28 -25.5 44t-72.5 16q-42 0 -64.5 -12t-22.5 -35q0 -30 35.5 -43.5t112.5 -25.5q89 -15 147.5 -33t101.5 -63.5t43 -125.5
q0 -103 -78.5 -161.5z" />
    <glyph glyph-name="scedilla" unicode="&#x15f;" horiz-adv-x="620" 
d="M530.5 28.5q-64.5 -43.5 -188.5 -48.5l-14 -17q47 -5 72 -29t25 -64q0 -50 -36 -80t-100 -30q-46 0 -84 14v84q32 -8 66 -8q54 0 54 27q0 12 -10.5 17.5t-34.5 5.5h-37v49l24 33q-115 8 -176 53.5t-61 124.5h210q0 -21 20 -35.5t56 -14.5q39 0 59 10t20 29q0 21 -27 29
t-86 15q-72 9 -119.5 21t-82.5 46t-35 98q0 53 33.5 91.5t93 59.5t135.5 21q86 0 148 -22.5t93.5 -62t31.5 -90.5h-210q0 19 -15.5 32t-46.5 13q-29 0 -46 -10.5t-17 -28.5q0 -21 27.5 -29.5t86.5 -16.5q72 -9 119 -21.5t82 -45.5t35 -94q0 -82 -64.5 -125.5z" />
    <glyph glyph-name="Scaron" unicode="&#x160;" horiz-adv-x="755" 
d="M122 46.5q-87 61.5 -87 168.5h230q0 -32 31.5 -48.5t87.5 -16.5q106 0 106 50q0 31 -35.5 44.5t-113.5 25.5q-89 14 -147.5 32t-101 63t-42.5 126q0 67 37 117.5t108.5 78.5t173.5 28q103 0 176.5 -28t111.5 -79t38 -118h-230q0 28 -25.5 44t-72.5 16q-42 0 -64.5 -12
t-22.5 -35q0 -30 35.5 -43.5t112.5 -25.5q89 -15 147.5 -33t101.5 -63.5t43 -125.5q0 -109 -87.5 -168t-250.5 -59q-173 0 -260 61.5zM456 770h-162l-159 175h172l65 -73h6l65 73h172z" />
    <glyph glyph-name="scaron" unicode="&#x161;" horiz-adv-x="620" 
d="M104 26.5q-74 46.5 -74 133.5h210q0 -21 20 -35.5t56 -14.5q39 0 59 10t20 29q0 21 -27 29t-86 15q-72 9 -119.5 21t-82.5 46t-35 98q0 53 33.5 91.5t93 59.5t135.5 21q86 0 148 -22.5t93.5 -62t31.5 -90.5h-210q0 19 -15.5 32t-46.5 13q-29 0 -46 -10.5t-17 -28.5
q0 -21 27.5 -29.5t86.5 -16.5q72 -9 119 -21.5t82 -45.5t35 -94q0 -86 -71.5 -130t-208.5 -44t-211 46.5zM393 580h-162l-159 175h172l65 -73h6l65 73h172z" />
    <glyph glyph-name="uni0162" unicode="&#x162;" horiz-adv-x="706" 
d="M15 700h676v-180h-228v-520h-71l-29 -37q47 -5 72 -29t25 -64q0 -50 -36 -80t-100 -30q-46 0 -84 14v84q32 -8 66 -8q54 0 54 27q0 12 -10.5 17.5t-34.5 5.5h-37v49l38 51h-73v520h-228v180z" />
    <glyph glyph-name="uni0163" unicode="&#x163;" horiz-adv-x="490" 
d="M318 -20l-14 -17q47 -5 72 -29t25 -64q0 -50 -36 -80t-100 -30q-46 0 -84 14v84q32 -8 66 -8q54 0 54 27q0 12 -10.5 17.5t-34.5 5.5h-37v49l30 40q-70 18 -104.5 68.5t-34.5 136.5v166h-105v125l116 28v107h189v-110h140v-150h-140v-119q0 -49 21.5 -72.5t65.5 -23.5
q43 0 68 7v-150q-22 -10 -59.5 -16t-69.5 -6h-18z" />
    <glyph glyph-name="Tcaron" unicode="&#x164;" horiz-adv-x="706" 
d="M463 0h-220v520h-228v180h676v-180h-228v-520zM434 770h-162l-159 175h172l65 -73h6l65 73h172z" />
    <glyph glyph-name="tcaron" unicode="&#x165;" horiz-adv-x="490" 
d="M465 152v-150q-22 -10 -59.5 -16t-69.5 -6q-115 0 -170.5 52.5t-55.5 161.5v166h-105v125l116 28v107h189v-110h140v-150h-140v-119q0 -49 21.5 -72.5t65.5 -23.5q43 0 68 7zM459 530h-114l23 170h167z" />
    <glyph glyph-name="Tbar" unicode="&#x166;" horiz-adv-x="706" 
d="M691 700v-180h-228v-135h145v-160h-145v-225h-220v225h-145v160h145v135h-228v180h676z" />
    <glyph glyph-name="tbar" unicode="&#x167;" horiz-adv-x="500" 
d="M470 152v-150q-22 -10 -59.5 -16t-69.5 -6q-115 0 -170.5 52.5t-55.5 161.5v21h-95v110h95v45h-105v115l116 28v107h189v-110h140v-140h-140v-45h130v-110h-128q5 -36 26 -53t59 -17q43 0 68 7z" />
    <glyph glyph-name="Utilde" unicode="&#x168;" horiz-adv-x="820" 
d="M228.5 21q-79.5 36 -124 105.5t-44.5 165.5v408h220v-395q0 -68 35.5 -101.5t94.5 -33.5t94.5 33.5t35.5 101.5v395h220v-408q0 -96 -44.5 -165.5t-124 -105.5t-181.5 -36t-181.5 36zM448.5 784.5q-21.5 9.5 -45.5 26.5q-17 12 -28.5 18t-24.5 6q-32 0 -32 -41v-14h-120
v30q0 71 32.5 108t90.5 37q29 0 50.5 -9.5t45.5 -26.5q17 -12 28.5 -18t24.5 -6q32 0 32 41v14h120v-30q0 -71 -32.5 -108t-90.5 -37q-29 0 -50.5 9.5z" />
    <glyph glyph-name="utilde" unicode="&#x169;" horiz-adv-x="710" 
d="M115.5 40q-55.5 55 -55.5 160v310h200v-243q0 -45 23.5 -70t62.5 -25q47 0 73 25t26 70v243h200v-510h-195v85h-6q-24 -46 -70.5 -73t-109.5 -27q-93 0 -148.5 55zM141 610q0 71 32.5 108t90.5 37q29 0 50.5 -9.5t45.5 -26.5q17 -12 28.5 -18t24.5 -6q32 0 32 41v14h120
v-30q0 -71 -32.5 -108t-90.5 -37q-29 0 -50.5 9.5t-45.5 26.5q-17 12 -28.5 18t-24.5 6q-32 0 -32 -41v-14h-120v30z" />
    <glyph glyph-name="Umacron" unicode="&#x16a;" horiz-adv-x="820" 
d="M228.5 21q-79.5 36 -124 105.5t-44.5 165.5v408h220v-395q0 -68 35.5 -101.5t94.5 -33.5t94.5 33.5t35.5 101.5v395h220v-408q0 -96 -44.5 -165.5t-124 -105.5t-181.5 -36t-181.5 36zM615 795h-410v115h410v-115z" />
    <glyph glyph-name="umacron" unicode="&#x16b;" horiz-adv-x="710" 
d="M115.5 40q-55.5 55 -55.5 160v310h200v-243q0 -45 23.5 -70t62.5 -25q47 0 73 25t26 70v243h200v-510h-195v85h-6q-24 -46 -70.5 -73t-109.5 -27q-93 0 -148.5 55zM558 595h-410v115h410v-115z" />
    <glyph glyph-name="Ubreve" unicode="&#x16c;" horiz-adv-x="820" 
d="M228.5 21q-79.5 36 -124 105.5t-44.5 165.5v408h220v-395q0 -68 35.5 -101.5t94.5 -33.5t94.5 33.5t35.5 101.5v395h220v-408q0 -96 -44.5 -165.5t-124 -105.5t-181.5 -36t-181.5 36zM248 811q-58 46 -58 124h125q0 -27 25 -43.5t70 -16.5t70 16.5t25 43.5h125
q0 -78 -58 -124t-162 -46t-162 46z" />
    <glyph glyph-name="ubreve" unicode="&#x16d;" horiz-adv-x="710" 
d="M115.5 40q-55.5 55 -55.5 160v310h200v-243q0 -45 23.5 -70t62.5 -25q47 0 73 25t26 70v243h200v-510h-195v85h-6q-24 -46 -70.5 -73t-109.5 -27q-93 0 -148.5 55zM133 750h125q0 -29 24 -44.5t71 -15.5t71 15.5t24 44.5h125q0 -170 -220 -170t-220 170z" />
    <glyph glyph-name="Uring" unicode="&#x16e;" horiz-adv-x="820" 
d="M228.5 21q-79.5 36 -124 105.5t-44.5 165.5v408h220v-395q0 -68 35.5 -101.5t94.5 -33.5t94.5 33.5t35.5 101.5v395h220v-408q0 -96 -44.5 -165.5t-124 -105.5t-181.5 -36t-181.5 36zM310 799.5q-38 34.5 -38 90.5t38 90.5t100 34.5t100 -34.5t38 -90.5t-38 -90.5
t-100 -34.5t-100 34.5zM441 861q12 11 12 29t-12 29t-31 11t-31 -11t-12 -29t12 -29t31 -11t31 11z" />
    <glyph glyph-name="uring" unicode="&#x16f;" horiz-adv-x="710" 
d="M115.5 40q-55.5 55 -55.5 160v310h200v-243q0 -45 23.5 -70t62.5 -25q47 0 73 25t26 70v243h200v-510h-195v85h-6q-24 -46 -70.5 -73t-109.5 -27q-93 0 -148.5 55zM253 599.5q-38 34.5 -38 90.5t38 90.5t100 34.5t100 -34.5t38 -90.5t-38 -90.5t-100 -34.5t-100 34.5z
M384 661q12 11 12 29t-12 29t-31 11t-31 -11t-12 -29t12 -29t31 -11t31 11z" />
    <glyph glyph-name="Uhungarumlaut" unicode="&#x170;" horiz-adv-x="820" 
d="M228.5 21q-79.5 36 -124 105.5t-44.5 165.5v408h220v-395q0 -68 35.5 -101.5t94.5 -33.5t94.5 33.5t35.5 101.5v395h220v-408q0 -96 -44.5 -165.5t-124 -105.5t-181.5 -36t-181.5 36zM359 770h-138l79 175h194zM572 770h-138l103 175h194z" />
    <glyph glyph-name="uhungarumlaut" unicode="&#x171;" horiz-adv-x="710" 
d="M115.5 40q-55.5 55 -55.5 160v310h200v-243q0 -45 23.5 -70t62.5 -25q47 0 73 25t26 70v243h200v-510h-195v85h-6q-24 -46 -70.5 -73t-109.5 -27q-93 0 -148.5 55zM297 580h-128l90 190h183zM510 580h-128l113 190h184z" />
    <glyph glyph-name="Uogonek" unicode="&#x172;" horiz-adv-x="820" 
d="M540 700h220v-408q0 -168 -144 -257q-53 -32 -93 -69.5t-40 -70.5q0 -25 14 -35t33 -10t38 8v-84q-23 -14 -66 -14q-57 0 -88 27.5t-31 81.5q0 61 60 117q-11 -1 -33 -1q-102 0 -181.5 36t-124 105.5t-44.5 165.5v408h220v-395q0 -68 35.5 -101.5t94.5 -33.5t94.5 33.5
t35.5 101.5v395z" />
    <glyph glyph-name="uogonek" unicode="&#x173;" horiz-adv-x="710" 
d="M645 0q-85 -54 -85 -105q0 -23 12.5 -34t34.5 -11q19 0 38 8v-84q-23 -14 -66 -14q-57 0 -88 27.5t-31 81.5q0 39 23 72.5t62 58.5h-95v85h-6q-24 -46 -70.5 -73t-109.5 -27q-93 0 -148.5 55t-55.5 160v310h200v-243q0 -45 23.5 -70t62.5 -25q47 0 73 25t26 70v243h200
v-510z" />
    <glyph glyph-name="Wcircumflex" unicode="&#x174;" horiz-adv-x="1170" 
d="M465 0h-276l-179 700h230l106 -455h6l117 455h234l117 -455h6l106 455h228l-179 -700h-276l-117 455h-6zM517 770h-172l159 175h162l159 -175h-172l-65 73h-6z" />
    <glyph glyph-name="wcircumflex" unicode="&#x175;" horiz-adv-x="950" 
d="M382 0h-230l-142 510h202l69 -325h6l91 325h195l91 -325h6l70 325h200l-142 -510h-230l-90 320h-6zM407 580h-172l159 175h162l159 -175h-172l-65 73h-6z" />
    <glyph glyph-name="Ycircumflex" unicode="&#x176;" horiz-adv-x="720" 
d="M470 0h-220v230l-260 470h238l129 -275h6l133 275h234l-260 -470v-230zM292 770h-172l159 175h162l159 -175h-172l-65 73h-6z" />
    <glyph glyph-name="ycircumflex" unicode="&#x177;" horiz-adv-x="645" 
d="M439 510h206l-206 -490q-34 -80 -68.5 -130t-85.5 -77.5t-126 -27.5q-45 0 -83 9v165q29 -9 58 -9q38 0 63.5 15t36.5 43l6 15l-245 487h209l127 -289h6zM253 580h-172l159 175h162l159 -175h-172l-65 73h-6z" />
    <glyph glyph-name="Ydieresis" unicode="&#x178;" horiz-adv-x="720" 
d="M470 0h-220v230l-260 470h238l129 -275h6l133 275h234l-260 -470v-230zM164.5 786q-27.5 26 -27.5 66q0 41 27.5 67t70.5 26t70.5 -26t27.5 -67q0 -40 -27.5 -66t-70.5 -26t-70.5 26zM414.5 786q-27.5 26 -27.5 66q0 41 27.5 67t70.5 26t70.5 -26t27.5 -67
q0 -40 -27.5 -66t-70.5 -26t-70.5 26z" />
    <glyph glyph-name="Zacute" unicode="&#x179;" horiz-adv-x="715" 
d="M675 0h-635v170l356 344v6h-346v180h625v-170l-356 -344v-6h356v-180zM422 770h-138l72 175h194z" />
    <glyph glyph-name="zacute" unicode="&#x17a;" horiz-adv-x="585" 
d="M560 0h-530v160l256 184v6h-246v160h510v-160l-254 -184v-6h264v-160zM352 580h-125l79 190h181z" />
    <glyph glyph-name="Zdotaccent" unicode="&#x17b;" horiz-adv-x="715" 
d="M675 0h-635v170l356 344v6h-346v180h625v-170l-356 -344v-6h356v-180zM281 782.5q-29 27.5 -29 69.5q0 43 29 70.5t74 27.5t74 -27.5t29 -70.5q0 -42 -29 -69.5t-74 -27.5t-74 27.5z" />
    <glyph glyph-name="zdotaccent" unicode="&#x17c;" horiz-adv-x="585" 
d="M560 0h-530v160l256 184v6h-246v160h510v-160l-254 -184v-6h264v-160zM219.5 593q-29.5 28 -29.5 72t29.5 72t75.5 28t75.5 -28t29.5 -72t-29.5 -72t-75.5 -28t-75.5 28z" />
    <glyph glyph-name="Zcaron" unicode="&#x17d;" horiz-adv-x="715" 
d="M675 0h-635v170l356 344v6h-346v180h625v-170l-356 -344v-6h356v-180zM436 770h-162l-159 175h172l65 -73h6l65 73h172z" />
    <glyph glyph-name="zcaron" unicode="&#x17e;" horiz-adv-x="585" 
d="M560 0h-530v160l256 184v6h-246v160h510v-160l-254 -184v-6h264v-160zM376 580h-162l-159 175h172l65 -73h6l65 73h172z" />
    <glyph glyph-name="uni018F" unicode="&#x18f;" horiz-adv-x="840" 
d="M621.5 670q87.5 -45 135.5 -128t48 -192t-48 -192t-136.5 -128t-205.5 -45q-113 0 -199 45.5t-133.5 128.5t-47.5 191q0 31 4 50h527q-10 64 -46.5 97t-99.5 33q-74 0 -113 -50h-255q38 108 136 171.5t231 63.5q115 0 202.5 -45zM561 275h-284q13 -52 49.5 -78.5
t92.5 -26.5q115 0 142 105z" />
    <glyph glyph-name="florin" unicode="&#x192;" horiz-adv-x="535" 
d="M390 529.5q-29 -20.5 -39 -74.5h124v-145h-148l-51 -307q-36 -218 -268 -218q-51 0 -93 10v160q30 -5 51 -5q50 0 80.5 23.5t39.5 79.5l43 257h-93v110l117 38l7 39q36 218 265 218q53 0 95 -10v-160q-30 5 -51 5q-50 0 -79 -20.5z" />
    <glyph glyph-name="uni01C4" unicode="&#x1c4;" horiz-adv-x="1491" 
d="M70 0v700h311q115 0 201 -44t132.5 -123t46.5 -183t-46.5 -183t-132.5 -123t-201 -44h-311zM373 180q72 0 115 46t43 124t-43 124t-115 46h-83v-340h83zM1451 0h-635v170l356 344v6h-346v180h625v-170l-356 -344v-6h356v-180zM1212 770h-162l-159 175h172l65 -73h6l65 73
h172z" />
    <glyph glyph-name="uni01C5" unicode="&#x1c5;" horiz-adv-x="1371" 
d="M70 0v700h311q115 0 201 -44t132.5 -123t46.5 -183t-46.5 -183t-132.5 -123t-201 -44h-311zM373 180q72 0 115 46t43 124t-43 124t-115 46h-83v-340h83zM1346 0h-530v160l256 184v6h-246v160h510v-160l-254 -184v-6h264v-160zM1162 580h-162l-159 175h172l65 -73h6l65 73
h172z" />
    <glyph glyph-name="uni01C6" unicode="&#x1c6;" horiz-adv-x="1300" 
d="M153.5 18q-55.5 33 -87 94.5t-31.5 142.5t31.5 142.5t86 94.5t122.5 33q54 0 96.5 -21t67.5 -59h6v255h200v-700h-180v75h-6q-23 -42 -70 -66t-111 -24q-69 0 -124.5 33zM417 182.5q28 27.5 28 72.5t-28 72.5t-72 27.5t-72 -27.5t-28 -72.5t28 -72.5t72 -27.5t72 27.5z
M1275 0h-530v160l256 184v6h-246v160h510v-160l-254 -184v-6h264v-160zM1091 580h-162l-159 175h172l65 -73h6l65 73h172z" />
    <glyph glyph-name="uni01C7" unicode="&#x1c7;" horiz-adv-x="1355" 
d="M660 0h-590v700h220v-520h370v-180zM754.5 58.5q-79.5 73.5 -79.5 201.5v30h220v-30q0 -40 24 -65t69 -25t68.5 25t23.5 65v260h-275v180h495v-440q0 -128 -79.5 -201.5t-232.5 -73.5q-154 0 -233.5 73.5z" />
    <glyph glyph-name="uni01C8" unicode="&#x1c8;" horiz-adv-x="1020" 
d="M660 0h-590v700h220v-520h370v-180zM620 -205v160q22 -5 47 -5q42 0 62.5 21t20.5 69v470h200v-491q0 -113 -63 -173.5t-182 -60.5q-51 0 -85 10zM774.5 593q-29.5 28 -29.5 72t29.5 72t75.5 28t75.5 -28t29.5 -72t-29.5 -72t-75.5 -28t-75.5 28z" />
    <glyph glyph-name="uni01C9" unicode="&#x1c9;" horiz-adv-x="690" 
d="M270 0h-200v700h200v-700zM290 -205v160q22 -5 47 -5q42 0 62.5 21t20.5 69v470h200v-491q0 -113 -63 -173.5t-182 -60.5q-51 0 -85 10zM444.5 593q-29.5 28 -29.5 72t29.5 72t75.5 28t75.5 -28t29.5 -72t-29.5 -72t-75.5 -28t-75.5 28z" />
    <glyph glyph-name="uni01CA" unicode="&#x1ca;" horiz-adv-x="1565" 
d="M285 0h-215v700h220l279 -377h6v377h215v-700h-220l-279 377h-6v-377zM964.5 58.5q-79.5 73.5 -79.5 201.5v30h220v-30q0 -40 24 -65t69 -25t68.5 25t23.5 65v260h-275v180h495v-440q0 -128 -79.5 -201.5t-232.5 -73.5q-154 0 -233.5 73.5z" />
    <glyph glyph-name="uni01CB" unicode="&#x1cb;" horiz-adv-x="1210" 
d="M285 0h-215v700h220l279 -377h6v377h215v-700h-220l-279 377h-6v-377zM810 -205v160q22 -5 47 -5q42 0 62.5 21t20.5 69v470h200v-491q0 -113 -63 -173.5t-182 -60.5q-51 0 -85 10zM964.5 593q-29.5 28 -29.5 72t29.5 72t75.5 28t75.5 -28t29.5 -72t-29.5 -72t-75.5 -28
t-75.5 28z" />
    <glyph glyph-name="uni01CC" unicode="&#x1cc;" horiz-adv-x="1065" 
d="M65 0v510h195v-85h6q24 45 72.5 72.5t112.5 27.5q96 0 150 -57t54 -158v-310h-200v239q0 45 -24.5 72t-66.5 27q-46 0 -72.5 -27t-26.5 -72v-239h-200zM665 -205v160q22 -5 47 -5q42 0 62.5 21t20.5 69v470h200v-491q0 -113 -63 -173.5t-182 -60.5q-51 0 -85 10z
M819.5 593q-29.5 28 -29.5 72t29.5 72t75.5 28t75.5 -28t29.5 -72t-29.5 -72t-75.5 -28t-75.5 28z" />
    <glyph glyph-name="uni01CD" unicode="&#x1cd;" horiz-adv-x="814" 
d="M824 0h-231l-38 100h-299l-38 -100h-228l283 700h268zM402 485l-83 -220h173l-84 220h-6zM488 770h-162l-159 175h172l65 -73h6l65 73h172z" />
    <glyph glyph-name="uni01CE" unicode="&#x1ce;" horiz-adv-x="665" 
d="M80 26q-55 41 -55 116q0 76 60 115t153 39q47 0 89.5 -8.5t67.5 -22.5v68q0 30 -17.5 43.5t-52.5 13.5t-54 -11.5t-19 -33.5h-200q0 86 71 135.5t202 49.5q128 0 199 -51t71 -150v-113q0 -31 5.5 -42t19.5 -11q5 0 15 2v-160q-30 -15 -85 -15q-102 0 -133 78h-6
q-25 -39 -74.5 -61t-113.5 -22q-88 0 -143 41zM355.5 130q24.5 5 39.5 13v36q-15 5 -40.5 8.5t-49.5 3.5q-38 0 -59 -7t-21 -25q0 -20 20.5 -27t59.5 -7q26 0 50.5 5zM410 580h-162l-159 175h172l65 -73h6l65 73h172z" />
    <glyph glyph-name="uni01D3" unicode="&#x1d3;" horiz-adv-x="820" 
d="M228.5 21q-79.5 36 -124 105.5t-44.5 165.5v408h220v-395q0 -68 35.5 -101.5t94.5 -33.5t94.5 33.5t35.5 101.5v395h220v-408q0 -96 -44.5 -165.5t-124 -105.5t-181.5 -36t-181.5 36zM491 770h-162l-159 175h172l65 -73h6l65 73h172z" />
    <glyph glyph-name="uni01D4" unicode="&#x1d4;" horiz-adv-x="710" 
d="M115.5 40q-55.5 55 -55.5 160v310h200v-243q0 -45 23.5 -70t62.5 -25q47 0 73 25t26 70v243h200v-510h-195v85h-6q-24 -46 -70.5 -73t-109.5 -27q-93 0 -148.5 55zM434 580h-162l-159 175h172l65 -73h6l65 73h172z" />
    <glyph glyph-name="Gcaron" unicode="&#x1e6;" horiz-adv-x="820" 
d="M390 385h395v-33q0 -111 -45.5 -194t-129 -128t-195.5 -45q-114 0 -200 45.5t-133 128.5t-47 191t47 191t133 128.5t200 45.5q95 0 170.5 -30t123 -86.5t60.5 -133.5h-234q-14 31 -45.5 48t-74.5 17q-67 0 -106 -48t-39 -132t39 -132t106 -48q50 0 84 21t46 59h-155v135z
M488 770h-162l-159 175h172l65 -73h6l65 73h172z" />
    <glyph glyph-name="gcaron" unicode="&#x1e7;" horiz-adv-x="660" 
d="M97.5 -180q-72.5 40 -72.5 127q0 94 97 133v6q-17 7 -26.5 22t-9.5 33q0 22 15 37.5t42 23.5v6q-37 20 -55 54.5t-18 76.5q0 81 67.5 126t187.5 45h152q20 0 29 6t9 22q0 15 -4 27h104q20 -32 20 -66q0 -30 -19.5 -46.5t-55.5 -16.5h-22v-6q42 -40 42 -104
q0 -156 -255 -156q-50 0 -69.5 -6t-19.5 -21q0 -16 18.5 -22t71.5 -6h45q130 0 192 -42.5t62 -116.5q0 -93 -73.5 -134.5t-226.5 -41.5q-155 0 -227.5 40zM373 303.5q17 13.5 17 36.5t-17 36.5t-48 13.5t-48 -13.5t-17 -36.5t17 -36.5t48 -13.5t48 13.5zM404 -82q21 8 21 30
q0 19 -22 28t-78 9t-78 -9t-22 -28q0 -22 21 -30t79 -8t79 8zM411 580h-162l-159 175h172l65 -73h6l65 73h172z" />
    <glyph glyph-name="uni01F1" unicode="&#x1f1;" horiz-adv-x="1491" 
d="M70 0v700h311q115 0 201 -44t132.5 -123t46.5 -183t-46.5 -183t-132.5 -123t-201 -44h-311zM373 180q72 0 115 46t43 124t-43 124t-115 46h-83v-340h83zM1451 0h-635v170l356 344v6h-346v180h625v-170l-356 -344v-6h356v-180z" />
    <glyph glyph-name="uni01F2" unicode="&#x1f2;" horiz-adv-x="1371" 
d="M70 0v700h311q115 0 201 -44t132.5 -123t46.5 -183t-46.5 -183t-132.5 -123t-201 -44h-311zM373 180q72 0 115 46t43 124t-43 124t-115 46h-83v-340h83zM1346 0h-530v160l256 184v6h-246v160h510v-160l-254 -184v-6h264v-160z" />
    <glyph glyph-name="uni01F3" unicode="&#x1f3;" horiz-adv-x="1300" 
d="M153.5 18q-55.5 33 -87 94.5t-31.5 142.5t31.5 142.5t86 94.5t122.5 33q54 0 96.5 -21t67.5 -59h6v255h200v-700h-180v75h-6q-23 -42 -70 -66t-111 -24q-69 0 -124.5 33zM417 182.5q28 27.5 28 72.5t-28 72.5t-72 27.5t-72 -27.5t-28 -72.5t28 -72.5t72 -27.5t72 27.5z
M1275 0h-530v160l256 184v6h-246v160h510v-160l-254 -184v-6h264v-160z" />
    <glyph glyph-name="uni01F4" unicode="&#x1f4;" horiz-adv-x="820" 
d="M390 385h395v-33q0 -111 -45.5 -194t-129 -128t-195.5 -45q-114 0 -200 45.5t-133 128.5t-47 191t47 191t133 128.5t200 45.5q95 0 170.5 -30t123 -86.5t60.5 -133.5h-234q-14 31 -45.5 48t-74.5 17q-67 0 -106 -48t-39 -132t39 -132t106 -48q50 0 84 21t46 59h-155v135z
M474 770h-138l72 175h194z" />
    <glyph glyph-name="uni01F5" unicode="&#x1f5;" horiz-adv-x="660" 
d="M97.5 -180q-72.5 40 -72.5 127q0 94 97 133v6q-17 7 -26.5 22t-9.5 33q0 22 15 37.5t42 23.5v6q-37 20 -55 54.5t-18 76.5q0 81 67.5 126t187.5 45h152q20 0 29 6t9 22q0 15 -4 27h104q20 -32 20 -66q0 -30 -19.5 -46.5t-55.5 -16.5h-22v-6q42 -40 42 -104
q0 -156 -255 -156q-50 0 -69.5 -6t-19.5 -21q0 -16 18.5 -22t71.5 -6h45q130 0 192 -42.5t62 -116.5q0 -93 -73.5 -134.5t-226.5 -41.5q-155 0 -227.5 40zM373 303.5q17 13.5 17 36.5t-17 36.5t-48 13.5t-48 -13.5t-17 -36.5t17 -36.5t48 -13.5t48 13.5zM404 -82q21 8 21 30
q0 19 -22 28t-78 9t-78 -9t-22 -28q0 -22 21 -30t79 -8t79 8zM387 580h-125l79 190h181z" />
    <glyph glyph-name="Aringacute" unicode="&#x1fa;" horiz-adv-x="814" 
d="M824 0h-231l-38 100h-299l-38 -100h-228l283 700h268zM402 485l-83 -220h173l-84 220h-6zM481 999q30 -16 47 -44.5t17 -64.5q0 -56 -38 -90.5t-100 -34.5t-100 34.5t-38 90.5q0 43 23 73.5t63 43.5l39 93h160zM438 861q12 11 12 29t-12 29t-31 11t-31 -11t-12 -29
t12 -29t31 -11t31 11z" />
    <glyph glyph-name="aringacute" unicode="&#x1fb;" horiz-adv-x="665" 
d="M80 26q-55 41 -55 116q0 76 60 115t153 39q47 0 89.5 -8.5t67.5 -22.5v68q0 30 -17.5 43.5t-52.5 13.5t-54 -11.5t-19 -33.5h-200q0 86 71 135.5t202 49.5q128 0 199 -51t71 -150v-113q0 -31 5.5 -42t19.5 -11q5 0 15 2v-160q-30 -15 -85 -15q-102 0 -133 78h-6
q-25 -39 -74.5 -61t-113.5 -22q-88 0 -143 41zM355.5 130q24.5 5 39.5 13v36q-15 5 -40.5 8.5t-49.5 3.5q-38 0 -59 -7t-21 -25q0 -20 20.5 -27t59.5 -7q26 0 50.5 5zM403 799q30 -16 47 -44.5t17 -64.5q0 -56 -38 -90.5t-100 -34.5t-100 34.5t-38 90.5q0 43 23 73.5
t63 43.5l39 93h160zM360 661q12 11 12 29t-12 29t-31 11t-31 -11t-12 -29t12 -29t31 -11t31 11z" />
    <glyph glyph-name="AEacute" unicode="&#x1fc;" horiz-adv-x="1060" 
d="M1015 700v-170h-325v-95h270v-160h-270v-105h325v-170h-545v125h-202l-55 -125h-233l321 700h714zM340 290h130v240h-25zM659 770h-138l72 175h194z" />
    <glyph glyph-name="aeacute" unicode="&#x1fd;" horiz-adv-x="1015" 
d="M984 233q-1 -13 -3 -23h-386q8 -45 33 -67.5t61 -22.5q26 0 46.5 11t31.5 34h207q-16 -86 -87.5 -135.5t-178.5 -49.5q-65 0 -121.5 19.5t-91.5 58.5h-6q-42 -35 -102.5 -56.5t-133.5 -21.5q-109 0 -168.5 42t-59.5 120q0 163 270 163h100v23q0 62 -71 62
q-34 0 -53 -11.5t-19 -33.5h-200q0 56 31.5 98t88 64.5t130.5 22.5q65 0 118.5 -21t83.5 -55h6q34 36 85 56t112 20q83 0 146 -32.5t97.5 -94.5t34.5 -146q0 -11 -1 -24zM629.5 369q-24.5 -21 -33.5 -64h181q-1 38 -26.5 61.5t-61.5 23.5q-35 0 -59.5 -21zM395 210h-84
q-86 0 -86 -42q0 -41 80 -41q90 0 90 63v20zM562 580h-125l79 190h181z" />
    <glyph glyph-name="Oslashacute" unicode="&#x1fe;" horiz-adv-x="850" 
d="M700 621q55 -49 85 -118t30 -153q0 -108 -48.5 -191t-137 -128.5t-204.5 -45.5q-87 0 -163 27l-45 -62h-160l93 129q-55 49 -85 118t-30 153q0 108 48.5 191t137 128.5t204.5 45.5q90 0 162 -27l45 62h161zM284 266l186 258q-21 6 -45 6q-71 0 -113 -48t-42 -132
q0 -47 14 -84zM538 218q42 48 42 132q0 46 -14 85l-186 -259q21 -6 45 -6q71 0 113 48zM492 770h-138l72 175h194z" />
    <glyph glyph-name="oslashacute" unicode="&#x1ff;" horiz-adv-x="670" 
d="M547 459q42 -37 65 -88.5t23 -115.5q0 -84 -39 -146.5t-107 -95.5t-154 -33q-69 0 -126 21l-30 -41h-124l68 91q-42 37 -65 88.5t-23 115.5q0 84 39 146.5t107 95.5t154 33q69 0 126 -21l30 41h124zM231 198l135 183q-12 4 -31 4q-53 0 -83 -34t-30 -96q0 -33 9 -57z
M418 159q30 34 30 96q0 33 -9 57l-135 -183q12 -4 31 -4q53 0 83 34zM392 580h-125l79 190h181z" />
    <glyph glyph-name="uni0218" unicode="&#x218;" horiz-adv-x="755" 
d="M122 46.5q-87 61.5 -87 168.5h230q0 -32 31.5 -48.5t87.5 -16.5q106 0 106 50q0 31 -35.5 44.5t-113.5 25.5q-89 14 -147.5 32t-101 63t-42.5 126q0 67 37 117.5t108.5 78.5t173.5 28q103 0 176.5 -28t111.5 -79t38 -118h-230q0 28 -25.5 44t-72.5 16q-42 0 -64.5 -12
t-22.5 -35q0 -30 35.5 -43.5t112.5 -25.5q89 -15 147.5 -33t101.5 -63.5t43 -125.5q0 -109 -87.5 -168t-250.5 -59q-173 0 -260 61.5zM447 -94q23 -24 23 -57q0 -21 -7.5 -45.5t-26.5 -61.5l-31 -62h-62l33 97q-31 3 -51 23t-20 51q0 34 23 56.5t60 22.5q36 0 59 -24z" />
    <glyph glyph-name="uni0219" unicode="&#x219;" horiz-adv-x="620" 
d="M104 26.5q-74 46.5 -74 133.5h210q0 -21 20 -35.5t56 -14.5q39 0 59 10t20 29q0 21 -27 29t-86 15q-72 9 -119.5 21t-82.5 46t-35 98q0 53 33.5 91.5t93 59.5t135.5 21q86 0 148 -22.5t93.5 -62t31.5 -90.5h-210q0 19 -15.5 32t-46.5 13q-29 0 -46 -10.5t-17 -28.5
q0 -21 27.5 -29.5t86.5 -16.5q72 -9 119 -21.5t82 -45.5t35 -94q0 -86 -71.5 -130t-208.5 -44t-211 46.5zM378 -94q23 -24 23 -57q0 -21 -7.5 -45.5t-26.5 -61.5l-31 -62h-62l33 97q-31 3 -51 23t-20 51q0 34 23 56.5t60 22.5q36 0 59 -24z" />
    <glyph glyph-name="uni021A" unicode="&#x21a;" horiz-adv-x="706" 
d="M463 0h-220v520h-228v180h676v-180h-228v-520zM413 -94q23 -24 23 -57q0 -21 -7.5 -45.5t-26.5 -61.5l-31 -62h-62l33 97q-31 3 -51 23t-20 51q0 34 23 56.5t60 22.5q36 0 59 -24z" />
    <glyph glyph-name="uni021B" unicode="&#x21b;" horiz-adv-x="490" 
d="M465 152v-150q-22 -10 -59.5 -16t-69.5 -6q-115 0 -170.5 52.5t-55.5 161.5v166h-105v125l116 28v107h189v-110h140v-150h-140v-119q0 -49 21.5 -72.5t65.5 -23.5q43 0 68 7zM354 -94q23 -24 23 -57q0 -21 -7.5 -45.5t-26.5 -61.5l-31 -62h-62l33 97q-31 3 -51 23t-20 51
q0 34 23 56.5t60 22.5q36 0 59 -24z" />
    <glyph glyph-name="uni021E" unicode="&#x21e;" horiz-adv-x="845" 
d="M555 450v250h220v-700h-220v270h-265v-270h-220v700h220v-250h265zM504 770h-162l-159 175h172l65 -73h6l65 73h172z" />
    <glyph glyph-name="uni021F" unicode="&#x21f;" horiz-adv-x="720" 
d="M70 0v700h200v-270h6q23 42 70 68.5t110 26.5q96 0 150 -57t54 -158v-310h-200v239q0 45 -24.5 72t-66.5 27q-46 0 -72.5 -27t-26.5 -72v-239h-200zM447 770h-162l-159 175h172l65 -73h6l65 73h172z" />
    <glyph glyph-name="uni0232" unicode="&#x232;" horiz-adv-x="720" 
d="M470 0h-220v230l-260 470h238l129 -275h6l133 275h234l-260 -470v-230zM565 795h-410v115h410v-115z" />
    <glyph glyph-name="uni0233" unicode="&#x233;" horiz-adv-x="645" 
d="M439 510h206l-206 -490q-34 -80 -68.5 -130t-85.5 -77.5t-126 -27.5q-45 0 -83 9v165q29 -9 58 -9q38 0 63.5 15t36.5 43l6 15l-245 487h209l127 -289h6zM526 595h-410v115h410v-115z" />
    <glyph glyph-name="uni0237" unicode="&#x237;" horiz-adv-x="350" 
d="M-50 -205v160q22 -5 47 -5q42 0 62.5 21t20.5 69v470h200v-491q0 -113 -63 -173.5t-182 -60.5q-51 0 -85 10z" />
    <glyph glyph-name="uni0244" unicode="&#x244;" horiz-adv-x="840" 
d="M850 535v-160h-80v-83q0 -96 -44.5 -165.5t-124 -105.5t-181.5 -36t-181.5 36t-124 105.5t-44.5 165.5v83h-80v160h80v165h220v-165h260v165h220v-165h80zM550 375h-260v-70q0 -68 35.5 -101.5t94.5 -33.5t94.5 33.5t35.5 101.5v70z" />
    <glyph glyph-name="uni0259" unicode="&#x259;" horiz-adv-x="665" 
d="M483.5 497q69.5 -33 108 -95.5t38.5 -146.5q0 -85 -38.5 -147t-107 -95t-156.5 -33q-86 0 -153.5 30.5t-106 92t-38.5 150.5q0 11 1 24t3 23h396q-9 45 -35 67.5t-65 22.5q-61 0 -82 -45h-207q9 48 41.5 90t92.5 68.5t147 26.5q92 0 161.5 -33zM429 205h-191
q2 -38 27 -61.5t65 -23.5q80 0 99 85z" />
    <glyph glyph-name="uni0289" unicode="&#x289;" horiz-adv-x="730" 
d="M735 410v-120h-80v-290h-195v85h-6q-24 -46 -70.5 -73t-109.5 -27q-93 0 -148.5 55t-55.5 160v90h-80v120h80v100h200v-100h185v100h200v-100h80zM455 290h-185v-23q0 -45 23.5 -70t62.5 -25q47 0 73 25t26 70v23z" />
    <glyph glyph-name="uni02BB" unicode="&#x2bb;" horiz-adv-x="283" 
d="M163 589q39 -6 64.5 -33t25.5 -69q0 -48 -31.5 -77.5t-79.5 -29.5q-52 0 -82 32t-30 78q0 35 11 71t32 81l56 118h87z" />
    <glyph glyph-name="uni02BC" unicode="&#x2bc;" horiz-adv-x="283" 
d="M223 738q30 -32 30 -78q0 -35 -11 -71t-32 -81l-56 -118h-87l53 171q-39 6 -64.5 33t-25.5 69q0 48 31.5 77.5t79.5 29.5q52 0 82 -32z" />
    <glyph glyph-name="circumflex" unicode="&#x2c6;" horiz-adv-x="540" 
d="M202 580h-172l159 175h162l159 -175h-172l-65 73h-6z" />
    <glyph glyph-name="caron" unicode="&#x2c7;" horiz-adv-x="540" 
d="M351 580h-162l-159 175h172l65 -73h6l65 73h172z" />
    <glyph glyph-name="breve" unicode="&#x2d8;" horiz-adv-x="500" 
d="M30 750h125q0 -29 24 -44.5t71 -15.5t71 15.5t24 44.5h125q0 -170 -220 -170t-220 170z" />
    <glyph glyph-name="dotaccent" unicode="&#x2d9;" horiz-adv-x="270" 
d="M59.5 593q-29.5 28 -29.5 72t29.5 72t75.5 28t75.5 -28t29.5 -72t-29.5 -72t-75.5 -28t-75.5 28z" />
    <glyph glyph-name="ring" unicode="&#x2da;" horiz-adv-x="336" 
d="M68 599.5q-38 34.5 -38 90.5t38 90.5t100 34.5t100 -34.5t38 -90.5t-38 -90.5t-100 -34.5t-100 34.5zM199 661q12 11 12 29t-12 29t-31 11t-31 -11t-12 -29t12 -29t31 -11t31 11z" />
    <glyph glyph-name="ogonek" unicode="&#x2db;" horiz-adv-x="245" 
d="M61 -212.5q-31 27.5 -31 81.5q0 48 35 88t89 64l61 -21q-85 -54 -85 -105q0 -23 12.5 -34t34.5 -11q19 0 38 8v-84q-23 -14 -66 -14q-57 0 -88 27.5z" />
    <glyph glyph-name="tilde" unicode="&#x2dc;" horiz-adv-x="484" 
d="M30 610q0 71 32.5 108t90.5 37q29 0 50.5 -9.5t45.5 -26.5q17 -12 28.5 -18t24.5 -6q32 0 32 41v14h120v-30q0 -71 -32.5 -108t-90.5 -37q-29 0 -50.5 9.5t-45.5 26.5q-17 12 -28.5 18t-24.5 6q-32 0 -32 -41v-14h-120v30z" />
    <glyph glyph-name="hungarumlaut" unicode="&#x2dd;" horiz-adv-x="570" 
d="M158 580h-128l90 190h183zM371 580h-128l113 190h184z" />
    <glyph glyph-name="gravecomb" unicode="&#x300;" horiz-adv-x="0" 
d="M-30 580h-125l-135 190h181z" />
    <glyph glyph-name="acutecomb" unicode="&#x301;" horiz-adv-x="0" 
d="M-165 580h-125l79 190h181z" />
    <glyph glyph-name="uni0302" unicode="&#x302;" horiz-adv-x="0" 
d="M-338 580h-172l159 175h162l159 -175h-172l-65 73h-6z" />
    <glyph glyph-name="tildecomb" unicode="&#x303;" horiz-adv-x="0" 
d="M-454 610q0 71 32.5 108t90.5 37q29 0 50.5 -9.5t45.5 -26.5q17 -12 28.5 -18t24.5 -6q32 0 32 41v14h120v-30q0 -71 -32.5 -108t-90.5 -37q-29 0 -50.5 9.5t-45.5 26.5q-17 12 -28.5 18t-24.5 6q-32 0 -32 -41v-14h-120v30z" />
    <glyph glyph-name="uni0304" unicode="&#x304;" horiz-adv-x="0" 
d="M-30 595h-410v115h410v-115z" />
    <glyph glyph-name="uni0306" unicode="&#x306;" horiz-adv-x="0" 
d="M-470 750h125q0 -29 24 -44.5t71 -15.5t71 15.5t24 44.5h125q0 -170 -220 -170t-220 170z" />
    <glyph glyph-name="uni0307" unicode="&#x307;" horiz-adv-x="0" 
d="M-210.5 593q-29.5 28 -29.5 72t29.5 72t75.5 28t75.5 -28t29.5 -72t-29.5 -72t-75.5 -28t-75.5 28z" />
    <glyph glyph-name="uni0308" unicode="&#x308;" horiz-adv-x="0" 
d="M-451.5 592q-28.5 27 -28.5 68t28.5 68t71.5 27t71.5 -27t28.5 -68t-28.5 -68t-71.5 -27t-71.5 27zM-201.5 592q-28.5 27 -28.5 68t28.5 68t71.5 27t71.5 -27t28.5 -68t-28.5 -68t-71.5 -27t-71.5 27z" />
    <glyph glyph-name="uni030A" unicode="&#x30a;" horiz-adv-x="0" 
d="M-268 599.5q-38 34.5 -38 90.5t38 90.5t100 34.5t100 -34.5t38 -90.5t-38 -90.5t-100 -34.5t-100 34.5zM-137 661q12 11 12 29t-12 29t-31 11t-31 -11t-12 -29t12 -29t31 -11t31 11z" />
    <glyph glyph-name="uni030B" unicode="&#x30b;" horiz-adv-x="0" 
d="M-412 580h-128l90 190h183zM-199 580h-128l113 190h184z" />
    <glyph glyph-name="uni030C" unicode="&#x30c;" horiz-adv-x="0" 
d="M-189 580h-162l-159 175h172l65 -73h6l65 73h172z" />
    <glyph glyph-name="uni0312" unicode="&#x312;" horiz-adv-x="0" 
d="M-92 690q27 -3 44.5 -20t17.5 -45q0 -30 -20.5 -50t-52.5 -20q-31 0 -51.5 21t-20.5 50q0 38 29 94l28 55h55z" />
    <glyph glyph-name="dotbelowcomb" unicode="&#x323;" horiz-adv-x="0" 
d="M-176 -216q-24 24 -24 61t24 61t61 24t61 -24t24 -61t-24 -61t-61 -24t-61 24z" />
    <glyph glyph-name="uni0326" unicode="&#x326;" horiz-adv-x="0" 
d="M-53 -94q23 -24 23 -57q0 -21 -7.5 -45.5t-26.5 -61.5l-31 -62h-62l33 97q-31 3 -51 23t-20 51q0 34 23 56.5t60 22.5q36 0 59 -24z" />
    <glyph glyph-name="uni0327" unicode="&#x327;" horiz-adv-x="0" 
d="M-127 -37q47 -5 72 -29t25 -64q0 -50 -36 -80t-100 -30q-46 0 -84 14v84q32 -8 66 -8q54 0 54 27q0 12 -10.5 17.5t-34.5 5.5h-37v49l56 75l73 -4z" />
    <glyph glyph-name="uni0328" unicode="&#x328;" horiz-adv-x="0" 
d="M-184 -212.5q-31 27.5 -31 81.5q0 48 35 88t89 64l61 -21q-85 -54 -85 -105q0 -23 12.5 -34t34.5 -11q19 0 38 8v-84q-23 -14 -66 -14q-57 0 -88 27.5z" />
    <glyph glyph-name="uni0400" unicode="&#x400;" horiz-adv-x="725" 
d="M680 700v-170h-390v-95h335v-160h-335v-105h390v-170h-610v700h610zM451 770h-138l-128 175h194z" />
    <glyph glyph-name="uni0401" unicode="&#x401;" horiz-adv-x="725" 
d="M680 700v-170h-390v-95h335v-160h-335v-105h390v-170h-610v700h610zM184.5 786q-27.5 26 -27.5 66q0 41 27.5 67t70.5 26t70.5 -26t27.5 -67q0 -40 -27.5 -66t-70.5 -26t-70.5 26zM434.5 786q-27.5 26 -27.5 66q0 41 27.5 67t70.5 26t70.5 -26t27.5 -67q0 -40 -27.5 -66
t-70.5 -26t-70.5 26z" />
    <glyph glyph-name="uni0402" unicode="&#x402;" horiz-adv-x="895" 
d="M765.5 368q74.5 -72 74.5 -197q0 -133 -76.5 -207t-216.5 -74q-43 0 -82 10v172q31 -7 54 -7q48 0 74.5 26.5t26.5 68.5q0 95 -119 95q-51 0 -101 -22v-233h-220v520h-180v180h630v-180h-230v-102q63 22 146 22q145 0 219.5 -72z" />
    <glyph glyph-name="uni0403" unicode="&#x403;" horiz-adv-x="660" 
d="M290 0h-220v700h575v-180h-355v-520zM430 770h-138l72 175h194z" />
    <glyph glyph-name="uni0404" unicode="&#x404;" horiz-adv-x="805" 
d="M775 260q-10 -82 -56.5 -144t-126.5 -96.5t-185 -34.5q-111 0 -195.5 45.5t-130.5 128.5t-46 191t46 191t130.5 128.5t195.5 45.5q105 0 184 -35t125.5 -98.5t56.5 -146.5h-229q-10 44 -47 69.5t-90 25.5q-46 0 -79 -26t-47 -74h192v-150h-195q14 -53 47 -81.5t82 -28.5
q54 0 90.5 23.5t47.5 66.5h230z" />
    <glyph glyph-name="uni0405" unicode="&#x405;" horiz-adv-x="755" 
d="M122 46.5q-87 61.5 -87 168.5h230q0 -32 31.5 -48.5t87.5 -16.5q106 0 106 50q0 31 -35.5 44.5t-113.5 25.5q-89 14 -147.5 32t-101 63t-42.5 126q0 67 37 117.5t108.5 78.5t173.5 28q103 0 176.5 -28t111.5 -79t38 -118h-230q0 28 -25.5 44t-72.5 16q-42 0 -64.5 -12
t-22.5 -35q0 -30 35.5 -43.5t112.5 -25.5q89 -15 147.5 -33t101.5 -63.5t43 -125.5q0 -109 -87.5 -168t-250.5 -59q-173 0 -260 61.5z" />
    <glyph glyph-name="uni0406" unicode="&#x406;" horiz-adv-x="380" 
d="M300 0h-220v700h220v-700z" />
    <glyph glyph-name="uni0407" unicode="&#x407;" horiz-adv-x="380" 
d="M300 0h-220v700h220v-700zM-5.5 786q-27.5 26 -27.5 66q0 41 27.5 67t70.5 26t70.5 -26t27.5 -67q0 -40 -27.5 -66t-70.5 -26t-70.5 26zM244.5 786q-27.5 26 -27.5 66q0 41 27.5 67t70.5 26t70.5 -26t27.5 -67q0 -40 -27.5 -66t-70.5 -26t-70.5 26z" />
    <glyph glyph-name="uni0408" unicode="&#x408;" horiz-adv-x="705" 
d="M104.5 58.5q-79.5 73.5 -79.5 201.5v30h220v-30q0 -40 24 -65t69 -25t68.5 25t23.5 65v260h-275v180h495v-440q0 -128 -79.5 -201.5t-232.5 -73.5q-154 0 -233.5 73.5z" />
    <glyph glyph-name="uni0409" unicode="&#x409;" horiz-adv-x="1160" 
d="M835 472q138 0 214 -61t76 -175t-76 -175t-214 -61h-315v520h-162l-23 -297q-10 -127 -63.5 -185t-167.5 -58q-53 0 -89 11v188q16 -4 35 -4q37 0 54 22t20 69l31 434h585v-228h95zM832 180q29 0 46 15.5t17 43.5t-17 43t-46 15h-92v-117h92z" />
    <glyph glyph-name="uni040A" unicode="&#x40a;" horiz-adv-x="1170" 
d="M845 472q138 0 214 -61t76 -175t-76 -175t-214 -61h-315v297h-240v-297h-220v700h220v-228h240v228h220v-228h95zM842 180q29 0 46 15.5t17 43.5t-17 43t-46 15h-92v-117h92z" />
    <glyph glyph-name="uni040B" unicode="&#x40b;" horiz-adv-x="905" 
d="M775.5 365q74.5 -75 74.5 -236v-129h-220v124q0 70 -29 100.5t-93 30.5q-60 0 -108 -22v-233h-220v520h-180v180h630v-180h-230v-102q60 22 146 22q155 0 229.5 -75z" />
    <glyph glyph-name="uni040C" unicode="&#x40c;" horiz-adv-x="765" 
d="M512 362l268 -362h-258l-232 329v-329h-220v700h220v-321l228 321h245zM470 770h-138l72 175h194z" />
    <glyph glyph-name="uni040D" unicode="&#x40d;" horiz-adv-x="850" 
d="M290 0h-220v700h220v-370h6l264 370h220v-700h-220v370h-6zM496 770h-138l-128 175h194z" />
    <glyph glyph-name="uni040E" unicode="&#x40e;" horiz-adv-x="705" 
d="M508 700h222l-235 -490q-38 -78 -76.5 -126.5t-91.5 -73.5t-128 -25q-57 0 -96 11v169q40 -10 73 -10q35 0 60 10.5t41 34.5l-292 500h236l154 -293h6zM199 808.5q-56 43.5 -56 126.5h125q0 -31 25.5 -48t69.5 -17t69.5 17t25.5 48h125q0 -83 -56 -126.5t-164 -43.5
t-164 43.5z" />
    <glyph glyph-name="uni040F" unicode="&#x40f;" horiz-adv-x="840" 
d="M530 -170h-220v170h-240v700h220v-520h260v520h220v-700h-240v-170z" />
    <glyph glyph-name="uni0410" unicode="&#x410;" horiz-adv-x="814" 
d="M824 0h-231l-38 100h-299l-38 -100h-228l283 700h268zM402 485l-83 -220h173l-84 220h-6z" />
    <glyph glyph-name="uni0411" unicode="&#x411;" horiz-adv-x="745" 
d="M427 450q288 0 288 -221q0 -112 -74 -170.5t-214 -58.5h-357v700h575v-170h-355v-80h137zM412 170q36 0 54.5 15t18.5 44t-19 45t-54 16h-122v-120h122z" />
    <glyph glyph-name="uni0412" unicode="&#x412;" horiz-adv-x="750" 
d="M581 368q64 -15 99 -61t35 -114q0 -92 -59.5 -142.5t-166.5 -50.5h-419v700h397q102 0 158.5 -45.5t56.5 -128.5q0 -56 -26.5 -95.5t-74.5 -56.5v-6zM290 535v-110h104q27 0 42.5 14.5t15.5 40.5t-15.5 40.5t-42.5 14.5h-104zM419 165q31 0 48.5 15.5t17.5 44.5
t-17.5 44.5t-48.5 15.5h-129v-120h129z" />
    <glyph glyph-name="uni0413" unicode="&#x413;" horiz-adv-x="660" 
d="M290 0h-220v700h575v-180h-355v-520z" />
    <glyph glyph-name="uni0414" unicode="&#x414;" horiz-adv-x="880" 
d="M750 180h125v-350h-220v170h-425v-170h-220v350h20q86 0 93 117l28 403h599v-520zM275 180h255v340h-181l-15 -202q-4 -51 -16.5 -80.5t-42.5 -51.5v-6z" />
    <glyph glyph-name="uni0415" unicode="&#x415;" horiz-adv-x="725" 
d="M680 700v-170h-390v-95h335v-160h-335v-105h390v-170h-610v700h610z" />
    <glyph glyph-name="uni0416" unicode="&#x416;" horiz-adv-x="1100" 
d="M877 362l233 -362h-258l-192 324v-324h-220v324l-192 -324h-258l233 362l-216 338h245l188 -316v316h220v-316l188 316h245z" />
    <glyph glyph-name="uni0417" unicode="&#x417;" horiz-adv-x="730" 
d="M110.5 41.5q-80.5 56.5 -80.5 173.5h230q0 -29 27 -44.5t76 -15.5q52 0 77 16t25 49t-23.5 49.5t-78.5 16.5h-68v140h68q79 0 79 60q0 28 -19.5 43.5t-59.5 15.5q-42 0 -68.5 -16.5t-26.5 -43.5h-230q0 106 86.5 168t245.5 62q146 0 224 -51t78 -143q0 -55 -30.5 -93
t-86.5 -58v-6q64 -14 102 -59.5t38 -108.5q0 -211 -330 -211q-174 0 -254.5 56.5z" />
    <glyph glyph-name="uni0418" unicode="&#x418;" horiz-adv-x="850" 
d="M290 0h-220v700h220v-370h6l264 370h220v-700h-220v370h-6z" />
    <glyph glyph-name="uni0419" unicode="&#x419;" horiz-adv-x="850" 
d="M290 0h-220v700h220v-370h6l264 370h220v-700h-220v370h-6zM261 808.5q-56 43.5 -56 126.5h125q0 -31 25.5 -48t69.5 -17t69.5 17t25.5 48h125q0 -83 -56 -126.5t-164 -43.5t-164 43.5z" />
    <glyph glyph-name="uni041A" unicode="&#x41a;" horiz-adv-x="765" 
d="M512 362l268 -362h-258l-232 329v-329h-220v700h220v-321l228 321h245z" />
    <glyph glyph-name="uni041B" unicode="&#x41b;" horiz-adv-x="830" 
d="M15 -9v188q16 -4 35 -4q37 0 54 22t20 69l31 434h605v-700h-220v520h-183l-22 -297q-9 -126 -63 -184.5t-168 -58.5q-53 0 -89 11z" />
    <glyph glyph-name="uni041C" unicode="&#x41c;" horiz-adv-x="1020" 
d="M280 0h-210v700h265l172 -310h6l167 310h270v-700h-210v420h-6l-152 -270h-144l-152 270h-6v-420z" />
    <glyph glyph-name="uni041D" unicode="&#x41d;" horiz-adv-x="845" 
d="M555 450v250h220v-700h-220v270h-265v-270h-220v700h220v-250h265z" />
    <glyph glyph-name="uni041E" unicode="&#x41e;" horiz-adv-x="850" 
d="M220.5 30.5q-88.5 45.5 -137 128.5t-48.5 191t48.5 191t137 128.5t204.5 45.5t204.5 -45.5t137 -128.5t48.5 -191t-48.5 -191t-137 -128.5t-204.5 -45.5t-204.5 45.5zM538 218q42 48 42 132t-42 132t-113 48t-113 -48t-42 -132t42 -132t113 -48t113 48z" />
    <glyph glyph-name="uni041F" unicode="&#x41f;" horiz-adv-x="840" 
d="M290 0h-220v700h700v-700h-220v520h-260v-520z" />
    <glyph glyph-name="uni0420" unicode="&#x420;" horiz-adv-x="755" 
d="M392 700q163 0 243 -65t80 -200t-80 -200t-243 -65h-102v-170h-220v700h322zM390 350q47 0 71 21.5t24 63.5t-24 63.5t-71 21.5h-100v-170h100z" />
    <glyph glyph-name="uni0421" unicode="&#x421;" horiz-adv-x="805" 
d="M215 30.5q-86 45.5 -133 128.5t-47 191t47 191t133 128.5t200 45.5q102 0 179.5 -35t123 -98.5t55.5 -146.5h-229q-10 44 -44.5 69.5t-84.5 25.5q-67 0 -106 -48t-39 -132t39 -132t106 -48q50 0 84.5 23.5t45.5 66.5h230q-10 -82 -56 -144t-123.5 -96.5t-180.5 -34.5
q-114 0 -200 45.5z" />
    <glyph glyph-name="uni0422" unicode="&#x422;" horiz-adv-x="706" 
d="M463 0h-220v520h-228v180h676v-180h-228v-520z" />
    <glyph glyph-name="uni0423" unicode="&#x423;" horiz-adv-x="705" 
d="M508 700h222l-235 -490q-38 -78 -76.5 -126.5t-91.5 -73.5t-128 -25q-57 0 -96 11v169q40 -10 73 -10q35 0 60 10.5t41 34.5l-292 500h236l154 -293h6z" />
    <glyph glyph-name="uni0424" unicode="&#x424;" horiz-adv-x="980" 
d="M864 134.5q-91 -75.5 -269 -79.5v-65h-210v65q-178 4 -269 79.5t-91 215.5t91 215.5t269 79.5v65h210v-65q178 -4 269 -79.5t91 -215.5t-91 -215.5zM385 236v228q-130 -7 -130 -114t130 -114zM595 236q130 7 130 114t-130 114v-228z" />
    <glyph glyph-name="uni0425" unicode="&#x425;" horiz-adv-x="755" 
d="M238 0h-243l231 362l-208 338h240l116 -208h6l117 208h240l-208 -338l231 -362h-243l-137 227h-6z" />
    <glyph glyph-name="uni0426" unicode="&#x426;" horiz-adv-x="880" 
d="M875 -170h-220v170h-585v700h220v-520h240v520h220v-520h125v-350z" />
    <glyph glyph-name="uni0427" unicode="&#x427;" horiz-adv-x="800" 
d="M510 700h220v-700h-220v211q-63 -21 -146 -21q-155 0 -229.5 75t-74.5 236v199h220v-194q0 -70 29 -100.5t93 -30.5q55 0 108 22v303z" />
    <glyph glyph-name="uni0428" unicode="&#x428;" horiz-adv-x="1120" 
d="M1050 0h-980v700h220v-520h160v520h220v-520h160v520h220v-700z" />
    <glyph glyph-name="uni0429" unicode="&#x429;" horiz-adv-x="1180" 
d="M1175 -170h-220v170h-885v700h220v-520h160v520h220v-520h160v520h220v-520h125v-350z" />
    <glyph glyph-name="uni042A" unicode="&#x42a;" horiz-adv-x="810" 
d="M460 500q315 0 315 -250t-315 -250h-295v520h-165v180h385v-200h75zM457 180q88 0 88 70t-88 70h-72v-140h72z" />
    <glyph glyph-name="uni042B" unicode="&#x42b;" horiz-adv-x="1025" 
d="M360 500q157 0 236 -62t79 -188t-79 -188t-236 -62h-290v700h220v-200h70zM735 0v700h220v-700h-220zM357 180q88 0 88 70t-88 70h-67v-140h67z" />
    <glyph glyph-name="uni042C" unicode="&#x42c;" horiz-adv-x="725" 
d="M375 500q315 0 315 -250t-315 -250h-305v700h220v-200h85zM372 180q88 0 88 71q0 69 -88 69h-82v-140h82z" />
    <glyph glyph-name="uni042D" unicode="&#x42d;" horiz-adv-x="805" 
d="M593.5 669.5q84.5 -45.5 130.5 -128.5t46 -191t-46 -191t-130.5 -128.5t-195.5 -45.5q-105 0 -185 34.5t-126.5 96.5t-56.5 144h230q11 -43 47.5 -66.5t90.5 -23.5q49 0 82 28.5t47 81.5h-195v150h192q-14 48 -47 74t-79 26q-53 0 -90 -25.5t-47 -69.5h-229
q10 83 56.5 146.5t125.5 98.5t184 35q111 0 195.5 -45.5z" />
    <glyph glyph-name="uni042E" unicode="&#x42e;" horiz-adv-x="1125" 
d="M913 669q84 -46 130.5 -128.5t46.5 -190.5t-46.5 -190.5t-130.5 -128.5t-193 -46q-97 0 -174.5 35t-127.5 99.5t-66 150.5h-62v-270h-220v700h220v-250h66q30 123 126.5 194t237.5 71q109 0 193 -46zM821 218q39 48 39 132t-39 132t-106 48t-106 -48t-39 -132t39 -132
t106 -48t106 48z" />
    <glyph glyph-name="uni042F" unicode="&#x42f;" horiz-adv-x="790" 
d="M720 700v-700h-220v200h-92l-124 -200h-244l150 240q-48 19 -81.5 74.5t-33.5 141.5q0 119 79 181.5t234 62.5h332zM500 380v140h-112q-83 0 -83 -70t83 -70h112z" />
    <glyph glyph-name="uni0430" unicode="&#x430;" horiz-adv-x="665" 
d="M80 26q-55 41 -55 116q0 76 60 115t153 39q47 0 89.5 -8.5t67.5 -22.5v68q0 30 -17.5 43.5t-52.5 13.5t-54 -11.5t-19 -33.5h-200q0 86 71 135.5t202 49.5q128 0 199 -51t71 -150v-113q0 -31 5.5 -42t19.5 -11q5 0 15 2v-160q-30 -15 -85 -15q-102 0 -133 78h-6
q-25 -39 -74.5 -61t-113.5 -22q-88 0 -143 41zM355.5 130q24.5 5 39.5 13v36q-15 5 -40.5 8.5t-49.5 3.5q-38 0 -59 -7t-21 -25q0 -20 20.5 -27t59.5 -7q26 0 50.5 5z" />
    <glyph glyph-name="uni0431" unicode="&#x431;" horiz-adv-x="675" 
d="M529.5 423.5q52.5 -27.5 81.5 -77.5t29 -116q0 -119 -78 -184.5t-217 -65.5q-145 0 -222.5 86.5t-77.5 245.5q0 158 68.5 243t213.5 98q54 5 77.5 15.5t23.5 31.5h205q0 -70 -24 -111t-79 -62t-154 -29q-68 -5 -99 -30.5t-35 -71.5q29 26 72 40.5t94 14.5
q69 0 121.5 -27.5zM409.5 164q25.5 24 25.5 65q0 43 -25.5 68t-67.5 25t-67.5 -25t-25.5 -68q0 -41 25.5 -65t67.5 -24t67.5 24z" />
    <glyph glyph-name="uni0432" unicode="&#x432;" horiz-adv-x="650" 
d="M500 260q52 -11 83.5 -45.5t31.5 -84.5q0 -63 -43.5 -96.5t-124.5 -33.5h-382v510h366q78 0 119 -35t41 -95q0 -43 -25 -73t-66 -41v-6zM265 380v-65h81q19 0 29.5 8.5t10.5 24.5q0 32 -40 32h-81zM363 130q23 0 35 9.5t12 28.5q0 37 -47 37h-98v-75h98z" />
    <glyph glyph-name="uni0433" unicode="&#x433;" horiz-adv-x="530" 
d="M265 0h-200v510h455v-170h-255v-340z" />
    <glyph glyph-name="uni0434" unicode="&#x434;" horiz-adv-x="710" 
d="M610 170h85v-305h-200v135h-285v-135h-200v305h20q32 0 48.5 17.5t20.5 64.5l20 258h491v-340zM248 160h162v200h-117l-9 -128q-3 -49 -36 -66v-6z" />
    <glyph glyph-name="uni0435" unicode="&#x435;" horiz-adv-x="665" 
d="M634 233q-1 -13 -3 -23h-396q9 -45 35 -67.5t65 -22.5q61 0 82 45h207q-9 -48 -41.5 -90t-92.5 -68.5t-147 -26.5q-92 0 -161.5 33t-108 95.5t-38.5 146.5q0 85 38.5 147t107 95t156.5 33q86 0 153.5 -30.5t106 -92t38.5 -150.5q0 -11 -1 -24zM236 305h191
q-2 38 -27 61.5t-65 23.5q-80 0 -99 -85z" />
    <glyph glyph-name="uni0436" unicode="&#x436;" horiz-adv-x="920" 
d="M737 270l198 -270h-227l-153 230v-230h-190v230l-153 -230h-227l198 270l-168 240h209l141 -221v221h190v-221l141 221h209z" />
    <glyph glyph-name="uni0437" unicode="&#x437;" horiz-adv-x="630" 
d="M100 30q-70 50 -70 140h200q0 -21 20 -33t60 -12q41 0 60.5 11t19.5 31t-18.5 29t-61.5 9h-45v110h45q35 0 49.5 7.5t14.5 24.5t-16 27.5t-48 10.5q-36 0 -55 -14t-19 -31h-200q0 88 73 139t213 51q118 0 187.5 -39t69.5 -110q0 -45 -26.5 -73t-73.5 -41v-6
q56 -10 86 -43t30 -83q0 -77 -72 -116t-201 -39q-152 0 -222 50z" />
    <glyph glyph-name="uni0438" unicode="&#x438;" horiz-adv-x="715" 
d="M260 0h-195v510h195v-247h6l189 247h195v-510h-195v247h-6z" />
    <glyph glyph-name="uni0439" unicode="&#x439;" horiz-adv-x="715" 
d="M260 0h-195v510h195v-247h6l189 247h195v-510h-195v247h-6zM193 623.5q-56 43.5 -56 126.5h125q0 -34 24.5 -52t70.5 -18t70.5 18t24.5 52h125q0 -83 -56 -126.5t-164 -43.5t-164 43.5z" />
    <glyph glyph-name="uni043A" unicode="&#x43a;" horiz-adv-x="650" 
d="M454 270l206 -270h-227l-168 239v-239h-200v510h200v-230l156 230h209z" />
    <glyph glyph-name="uni043B" unicode="&#x43b;" horiz-adv-x="675" 
d="M15 -11v169q14 -3 26 -3q25 0 36.5 14t13.5 48l22 293h497v-510h-200v340h-120l-13 -184q-7 -90 -52 -133t-131 -43q-43 0 -79 9z" />
    <glyph glyph-name="uni043C" unicode="&#x43c;" horiz-adv-x="860" 
d="M260 0h-195v510h227l134 -230h6l133 230h230v-510h-195v273h-6l-109 -178h-110l-109 178h-6v-273z" />
    <glyph glyph-name="uni043D" unicode="&#x43d;" horiz-adv-x="695" 
d="M430 345v165h200v-510h-200v175h-165v-175h-200v510h200v-165h165z" />
    <glyph glyph-name="uni043E" unicode="&#x43e;" horiz-adv-x="670" 
d="M181 13q-68 33 -107 95.5t-39 146.5t39 146.5t107 95.5t154 33t154 -33t107 -95.5t39 -146.5t-39 -146.5t-107 -95.5t-154 -33t-154 33zM404.5 173.5q25.5 28.5 25.5 81.5t-25.5 81.5t-69.5 28.5t-69.5 -28.5t-25.5 -81.5t25.5 -81.5t69.5 -28.5t69.5 28.5z" />
    <glyph glyph-name="uni043F" unicode="&#x43f;" horiz-adv-x="695" 
d="M265 0h-200v510h565v-510h-200v340h-165v-340z" />
    <glyph glyph-name="uni0440" unicode="&#x440;" horiz-adv-x="710" 
d="M65 -200v710h180v-75h6q23 42 70 66t111 24q69 0 124.5 -33t87 -94.5t31.5 -142.5t-31.5 -142.5t-86 -94.5t-122.5 -33q-54 0 -96.5 21t-67.5 59h-6v-265h-200zM436.5 182.5q28.5 27.5 28.5 72.5t-28.5 72.5t-71.5 27.5t-71.5 -27.5t-28.5 -72.5t28.5 -72.5t71.5 -27.5
t71.5 27.5z" />
    <glyph glyph-name="uni0441" unicode="&#x441;" horiz-adv-x="660" 
d="M183.5 13q-69.5 33 -109 95.5t-39.5 146.5t39.5 146.5t109 95.5t156.5 33q83 0 148 -28t101 -78.5t36 -115.5h-202q-9 29 -30 43t-58 14q-44 0 -72 -28t-28 -82t28 -82t72 -28q78 0 93 63h202q0 -66 -37 -118t-103 -81t-150 -29q-87 0 -156.5 33z" />
    <glyph glyph-name="uni0442" unicode="&#x442;" horiz-adv-x="595" 
d="M397 0h-200v340h-177v170h555v-170h-178v-340z" />
    <glyph glyph-name="uni0443" unicode="&#x443;" horiz-adv-x="645" 
d="M439 510h206l-206 -490q-34 -80 -68.5 -130t-85.5 -77.5t-126 -27.5q-45 0 -83 9v165q29 -9 58 -9q38 0 63.5 15t36.5 43l6 15l-245 487h209l127 -289h6z" />
    <glyph glyph-name="uni0444" unicode="&#x444;" horiz-adv-x="850" 
d="M737 63q-78 -70 -212 -77v-186h-200v186q-134 7 -212 77t-78 192q0 80 36.5 139t102 92t151.5 38v176h200v-176q86 -5 151.5 -38t102 -92t36.5 -139q0 -122 -78 -192zM258 168.5q23 -31.5 67 -37.5v247q-43 -6 -66.5 -37.5t-23.5 -85.5q0 -55 23 -86.5zM525 131
q44 6 67 37.5t23 86.5q0 54 -23.5 85.5t-66.5 37.5v-247z" />
    <glyph glyph-name="uni0445" unicode="&#x445;" horiz-adv-x="640" 
d="M217 0h-222l174 258l-150 252h217l82 -160h6l80 160h217l-150 -252l174 -258h-222l-101 160h-6z" />
    <glyph glyph-name="uni0446" unicode="&#x446;" horiz-adv-x="720" 
d="M705 -135h-200v135h-440v510h200v-340h155v340h200v-340h85v-305z" />
    <glyph glyph-name="uni0447" unicode="&#x447;" horiz-adv-x="670" 
d="M405 510h200v-510h-200v148q-63 -17 -125 -17q-119 0 -174.5 60.5t-55.5 189.5v129h200v-129q0 -85 77 -85q42 0 78 16v198z" />
    <glyph glyph-name="uni0448" unicode="&#x448;" horiz-adv-x="940" 
d="M875 0h-810v510h200v-340h105v340h200v-340h105v340h200v-510z" />
    <glyph glyph-name="uni0449" unicode="&#x449;" horiz-adv-x="975" 
d="M960 -135h-200v135h-695v510h200v-340h105v340h200v-340h105v340h200v-340h85v-305z" />
    <glyph glyph-name="uni044A" unicode="&#x44a;" horiz-adv-x="660" 
d="M404 365q226 0 226 -179q0 -92 -57.5 -139t-168.5 -47h-269v375h-140v135h335v-145h74zM368 135q28 0 42.5 13t14.5 38q0 23 -14.5 36t-42.5 13h-38v-100h38z" />
    <glyph glyph-name="uni044B" unicode="&#x44b;" horiz-adv-x="880" 
d="M329 365q226 0 226 -179q0 -92 -57.5 -139t-168.5 -47h-264v510h195v-145h69zM615 0v510h200v-510h-200zM293 135q28 0 42.5 13t14.5 38q0 23 -14.5 36t-42.5 13h-33v-100h33z" />
    <glyph glyph-name="uni044C" unicode="&#x44c;" horiz-adv-x="600" 
d="M344 365q226 0 226 -179q0 -92 -57.5 -139t-168.5 -47h-279v510h195v-145h84zM308 135q28 0 42.5 13t14.5 38q0 23 -14.5 36t-42.5 13h-48v-100h48z" />
    <glyph glyph-name="uni044D" unicode="&#x44d;" horiz-adv-x="660" 
d="M481 497q68 -33 106 -95.5t38 -146.5t-38 -146.5t-106 -95.5t-156 -33q-83 0 -149 29t-105 81t-41 118h202q7 -33 34.5 -50.5t63.5 -17.5q71 0 91 60h-138v100h141q-17 70 -94 70q-34 0 -59 -15.5t-34 -46.5h-202q2 65 40 115.5t103 78.5t147 28q88 0 156 -33z" />
    <glyph glyph-name="uni044E" unicode="&#x44e;" horiz-adv-x="890" 
d="M720.5 497q62.5 -33 98.5 -95.5t36 -146.5t-36 -146.5t-98.5 -95.5t-140.5 -33q-100 0 -172.5 53t-94.5 147h-48v-180h-200v510h200v-170h51q24 89 95.5 139.5t168.5 50.5q78 0 140.5 -33zM649.5 173.5q25.5 28.5 25.5 81.5t-25.5 81.5t-69.5 28.5t-69.5 -28.5
t-25.5 -81.5t25.5 -81.5t69.5 -28.5t69.5 28.5z" />
    <glyph glyph-name="uni044F" unicode="&#x44f;" horiz-adv-x="660" 
d="M595 510v-510h-200v150h-56l-91 -150h-223l116 174q-39 19 -65 60.5t-26 96.5q0 179 227 179h318zM395 285v90h-81q-31 0 -45 -11t-14 -34t14 -34t45 -11h81z" />
    <glyph glyph-name="uni0450" unicode="&#x450;" horiz-adv-x="665" 
d="M634 233q-1 -13 -3 -23h-396q9 -45 35 -67.5t65 -22.5q61 0 82 45h207q-9 -48 -41.5 -90t-92.5 -68.5t-147 -26.5q-92 0 -161.5 33t-108 95.5t-38.5 146.5q0 85 38.5 147t107 95t156.5 33q86 0 153.5 -30.5t106 -92t38.5 -150.5q0 -11 -1 -24zM236 305h191
q-2 38 -27 61.5t-65 23.5q-80 0 -99 -85zM406 580h-125l-135 190h181z" />
    <glyph glyph-name="uni0451" unicode="&#x451;" horiz-adv-x="665" 
d="M634 233q-1 -13 -3 -23h-396q9 -45 35 -67.5t65 -22.5q61 0 82 45h207q-9 -48 -41.5 -90t-92.5 -68.5t-147 -26.5q-92 0 -161.5 33t-108 95.5t-38.5 146.5q0 85 38.5 147t107 95t156.5 33q86 0 153.5 -30.5t106 -92t38.5 -150.5q0 -11 -1 -24zM236 305h191
q-2 38 -27 61.5t-65 23.5q-80 0 -99 -85zM141.5 592q-28.5 27 -28.5 68t28.5 68t71.5 27t71.5 -27t28.5 -68t-28.5 -68t-71.5 -27t-71.5 27zM391.5 592q-28.5 27 -28.5 68t28.5 68t71.5 27t71.5 -27t28.5 -68t-28.5 -68t-71.5 -27t-71.5 27z" />
    <glyph glyph-name="uni0452" unicode="&#x452;" horiz-adv-x="730" 
d="M616 418q54 -57 54 -158v-241q0 -113 -63 -173.5t-182 -60.5q-51 0 -85 10v160q23 -5 47 -5q42 0 62.5 21t20.5 69v149q0 45 -24.5 72t-66.5 27q-46 0 -72.5 -27t-26.5 -72v-189h-200v510h-80v120h80v70h195v-70h180v-120h-180v-135h6q24 45 72.5 72.5t112.5 27.5
q96 0 150 -57z" />
    <glyph glyph-name="uni0453" unicode="&#x453;" horiz-adv-x="530" 
d="M265 0h-200v510h455v-170h-255v-340zM348 580h-125l79 190h181z" />
    <glyph glyph-name="uni0454" unicode="&#x454;" horiz-adv-x="660" 
d="M630 208q0 -66 -37 -118t-103 -81t-150 -29q-87 0 -156.5 33t-109 95.5t-39.5 146.5t39.5 146.5t109 95.5t156.5 33q83 0 148 -28t101 -78.5t36 -115.5h-202q-9 29 -30 43t-58 14q-34 0 -58.5 -16t-35.5 -49h136v-100h-132q12 -28 36 -41.5t54 -13.5q78 0 93 63h202z" />
    <glyph glyph-name="uni0455" unicode="&#x455;" horiz-adv-x="620" 
d="M104 26.5q-74 46.5 -74 133.5h210q0 -21 20 -35.5t56 -14.5q39 0 59 10t20 29q0 21 -27 29t-86 15q-72 9 -119.5 21t-82.5 46t-35 98q0 53 33.5 91.5t93 59.5t135.5 21q86 0 148 -22.5t93.5 -62t31.5 -90.5h-210q0 19 -15.5 32t-46.5 13q-29 0 -46 -10.5t-17 -28.5
q0 -21 27.5 -29.5t86.5 -16.5q72 -9 119 -21.5t82 -45.5t35 -94q0 -86 -71.5 -130t-208.5 -44t-211 46.5z" />
    <glyph glyph-name="uni0456" unicode="&#x456;" horiz-adv-x="340" 
d="M270 0h-200v510h200v-510zM94.5 593q-29.5 28 -29.5 72t29.5 72t75.5 28t75.5 -28t29.5 -72t-29.5 -72t-75.5 -28t-75.5 28z" />
    <glyph glyph-name="uni0457" unicode="&#x457;" horiz-adv-x="340" 
d="M270 0h-200v510h200v-510zM-26.5 592q-28.5 27 -28.5 68t28.5 68t71.5 27t71.5 -27t28.5 -68t-28.5 -68t-71.5 -27t-71.5 27zM223.5 592q-28.5 27 -28.5 68t28.5 68t71.5 27t71.5 -27t28.5 -68t-28.5 -68t-71.5 -27t-71.5 27z" />
    <glyph glyph-name="uni0458" unicode="&#x458;" horiz-adv-x="350" 
d="M-50 -205v160q22 -5 47 -5q42 0 62.5 21t20.5 69v470h200v-491q0 -113 -63 -173.5t-182 -60.5q-51 0 -85 10zM104.5 593q-29.5 28 -29.5 72t29.5 72t75.5 28t75.5 -28t29.5 -72t-29.5 -72t-75.5 -28t-75.5 28z" />
    <glyph glyph-name="uni0459" unicode="&#x459;" horiz-adv-x="910" 
d="M654 365q110 0 168 -46t58 -136t-58.5 -136.5t-167.5 -46.5h-259v340h-105l-13 -184q-7 -90 -52 -133t-131 -43q-43 0 -79 9v169q14 -3 26 -3q25 0 36.5 14t13.5 48l22 293h482v-145h59zM618 135q28 0 42.5 13t14.5 38q0 23 -14.5 36t-42.5 13h-28v-100h28z" />
    <glyph glyph-name="uni045A" unicode="&#x45a;" horiz-adv-x="930" 
d="M674 365q110 0 168 -46t58 -136t-58.5 -136.5t-167.5 -46.5h-259v205h-150v-205h-200v510h200v-145h150v145h200v-145h59zM638 135q28 0 42.5 13t14.5 38q0 23 -14.5 36t-42.5 13h-28v-100h28z" />
    <glyph glyph-name="uni045B" unicode="&#x45b;" horiz-adv-x="730" 
d="M616 418q54 -57 54 -158v-260h-200v189q0 45 -24.5 72t-66.5 27q-46 0 -72.5 -27t-26.5 -72v-189h-200v510h-80v120h80v70h200v-70h175v-120h-175v-130h6q23 42 70 68.5t110 26.5q96 0 150 -57z" />
    <glyph glyph-name="uni045C" unicode="&#x45c;" horiz-adv-x="650" 
d="M454 270l206 -270h-227l-168 239v-239h-200v510h200v-230l156 230h209zM402 580h-125l79 190h181z" />
    <glyph glyph-name="uni045D" unicode="&#x45d;" horiz-adv-x="715" 
d="M260 0h-195v510h195v-247h6l189 247h195v-510h-195v247h-6zM425 580h-125l-135 190h181z" />
    <glyph glyph-name="uni045E" unicode="&#x45e;" horiz-adv-x="645" 
d="M439 510h206l-206 -490q-34 -80 -68.5 -130t-85.5 -77.5t-126 -27.5q-45 0 -83 9v165q29 -9 58 -9q38 0 63.5 15t36.5 43l6 15l-245 487h209l127 -289h6zM101 750h125q0 -29 24 -44.5t71 -15.5t71 15.5t24 44.5h125q0 -170 -220 -170t-220 170z" />
    <glyph glyph-name="uni045F" unicode="&#x45f;" horiz-adv-x="695" 
d="M448 -135h-200v135h-183v510h200v-340h165v340h200v-510h-182v-135z" />
    <glyph glyph-name="uni0490" unicode="&#x490;" horiz-adv-x="660" 
d="M290 0h-220v700h360v155h215v-335h-355v-520z" />
    <glyph glyph-name="uni0491" unicode="&#x491;" horiz-adv-x="530" 
d="M265 0h-200v510h260v125h195v-295h-255v-340z" />
    <glyph glyph-name="uni0492" unicode="&#x492;" horiz-adv-x="670" 
d="M655 700v-180h-355v-155h245v-150h-245v-215h-220v215h-80v150h80v335h575z" />
    <glyph glyph-name="uni0493" unicode="&#x493;" horiz-adv-x="540" 
d="M530 510v-170h-255v-84h170v-125h-170v-131h-200v131h-80v125h80v254h455z" />
    <glyph glyph-name="uni0496" unicode="&#x496;" horiz-adv-x="1120" 
d="M248 0h-258l233 362l-216 338h245l188 -316v316h220v-316l188 316h245l-216 -338l117 -182h146v-350h-220v170h-68l-192 324v-324h-220v324z" />
    <glyph glyph-name="uni0497" unicode="&#x497;" horiz-adv-x="955" 
d="M960 -135h-200v135h-52l-153 230v-230h-190v230l-153 -230h-227l198 270l-168 240h209l141 -221v221h190v-221l141 221h209l-168 -240l74 -100h149v-305z" />
    <glyph glyph-name="uni0498" unicode="&#x498;" horiz-adv-x="730" 
d="M470 -9v-161h-200v160q-124 14 -182 69.5t-58 155.5h230q0 -29 27 -44.5t76 -15.5q52 0 77 16t25 49t-23.5 49.5t-78.5 16.5h-68v140h68q79 0 79 60q0 28 -19.5 43.5t-59.5 15.5q-42 0 -68.5 -16.5t-26.5 -43.5h-230q0 106 86.5 168t245.5 62q146 0 224 -51t78 -143
q0 -55 -30.5 -93t-86.5 -58v-6q64 -14 102 -59.5t38 -108.5q0 -174 -225 -205z" />
    <glyph glyph-name="uni0499" unicode="&#x499;" horiz-adv-x="630" 
d="M551 38q-44 -37 -126 -50v-138h-190v135q-205 27 -205 185h200q0 -21 20 -33t60 -12q41 0 60.5 11t19.5 31t-18.5 29t-61.5 9h-45v110h45q35 0 49.5 7.5t14.5 24.5t-16 27.5t-48 10.5q-36 0 -55 -14t-19 -31h-200q0 88 73 139t213 51q118 0 187.5 -39t69.5 -110
q0 -45 -26.5 -73t-73.5 -41v-6q56 -10 86 -43t30 -83q0 -60 -44 -97z" />
    <glyph glyph-name="uni049A" unicode="&#x49a;" horiz-adv-x="785" 
d="M290 0h-220v700h220v-321l228 321h245l-251 -338l135 -182h163v-350h-220v170h-68l-232 329v-329z" />
    <glyph glyph-name="uni049B" unicode="&#x49b;" horiz-adv-x="675" 
d="M685 -135h-200v135h-52l-168 239v-239h-200v510h200v-230l156 230h209l-176 -240l76 -100h155v-305z" />
    <glyph glyph-name="uni04A0" unicode="&#x4a0;" horiz-adv-x="860" 
d="M607 362l268 -362h-258l-232 329v-329h-220v520h-165v180h385v-321l228 321h245z" />
    <glyph glyph-name="uni04A1" unicode="&#x4a1;" horiz-adv-x="720" 
d="M524 270l206 -270h-227l-168 239v-239h-200v375h-140v135h340v-230l156 230h209z" />
    <glyph glyph-name="uni04A2" unicode="&#x4a2;" horiz-adv-x="905" 
d="M775 700v-520h125v-350h-220v170h-125v270h-265v-270h-220v700h220v-250h265v250h220z" />
    <glyph glyph-name="uni04A3" unicode="&#x4a3;" horiz-adv-x="730" 
d="M630 510v-340h85v-305h-200v135h-85v175h-165v-175h-200v510h200v-165h165v165h200z" />
    <glyph glyph-name="uni04AA" unicode="&#x4aa;" horiz-adv-x="805" 
d="M775 260q-12 -99 -74.5 -167.5t-166.5 -93.5v-169h-200v162q-91 15 -158.5 63.5t-104 124t-36.5 170.5q0 108 47 191t133 128.5t200 45.5q102 0 179.5 -35t123 -98.5t55.5 -146.5h-229q-10 44 -44.5 69.5t-84.5 25.5q-67 0 -106 -48t-39 -132t39 -132t106 -48
q50 0 84.5 23.5t45.5 66.5h230z" />
    <glyph glyph-name="uni04AB" unicode="&#x4ab;" horiz-adv-x="660" 
d="M630 208q0 -80 -53 -138t-142 -79v-141h-190v141q-96 24 -153 93t-57 171q0 84 39.5 146.5t109 95.5t156.5 33q83 0 148 -28t101 -78.5t36 -115.5h-202q-9 29 -30 43t-58 14q-44 0 -72 -28t-28 -82t28 -82t72 -28q78 0 93 63h202z" />
    <glyph glyph-name="uni04AE" unicode="&#x4ae;" horiz-adv-x="720" 
d="M470 0h-220v230l-260 470h238l129 -275h6l133 275h234l-260 -470v-230z" />
    <glyph glyph-name="uni04AF" unicode="&#x4af;" horiz-adv-x="626" 
d="M413 -200h-200v200l-213 510h210l102 -295h6l102 295h206l-213 -510v-200z" />
    <glyph glyph-name="uni04B0" unicode="&#x4b0;" horiz-adv-x="720" 
d="M496 700h234l-216 -390h136v-160h-180v-150h-220v150h-180v160h136l-216 390h238l129 -275h6z" />
    <glyph glyph-name="uni04B1" unicode="&#x4b1;" horiz-adv-x="626" 
d="M420 510h206l-157 -375h96v-135h-152v-200h-200v200h-153v135h97l-157 375h210l102 -295h6z" />
    <glyph glyph-name="uni04B2" unicode="&#x4b2;" horiz-adv-x="775" 
d="M805 -170h-220v170h-68l-137 227h-6l-136 -227h-243l231 362l-208 338h240l116 -208h6l117 208h240l-208 -338l116 -182h160v-350z" />
    <glyph glyph-name="uni04B3" unicode="&#x4b3;" horiz-adv-x="655" 
d="M675 -135h-200v135h-52l-101 160h-6l-99 -160h-222l174 258l-150 252h217l82 -160h6l80 160h217l-150 -252l59 -88h145v-305z" />
    <glyph glyph-name="uni04B6" unicode="&#x4b6;" horiz-adv-x="860" 
d="M730 180h125v-350h-220v170h-125v211q-63 -21 -146 -21q-155 0 -229.5 75t-74.5 236v199h220v-194q0 -70 29 -100.5t93 -30.5q55 0 108 22v303h220v-520z" />
    <glyph glyph-name="uni04B7" unicode="&#x4b7;" horiz-adv-x="705" 
d="M605 170h85v-305h-200v135h-85v148q-63 -17 -125 -17q-119 0 -174.5 60.5t-55.5 189.5v129h200v-129q0 -85 77 -85q42 0 78 16v198h200v-340z" />
    <glyph glyph-name="uni04BA" unicode="&#x4ba;" horiz-adv-x="795" 
d="M665.5 435q74.5 -75 74.5 -236v-199h-220v194q0 70 -29 100.5t-93 30.5q-55 0 -108 -22v-303h-220v700h220v-211q63 21 146 21q155 0 229.5 -75z" />
    <glyph glyph-name="uni04BB" unicode="&#x4bb;" horiz-adv-x="720" 
d="M70 0v700h200v-270h6q23 42 70 68.5t110 26.5q96 0 150 -57t54 -158v-310h-200v239q0 45 -24.5 72t-66.5 27q-46 0 -72.5 -27t-26.5 -72v-239h-200z" />
    <glyph glyph-name="uni04C0" unicode="&#x4c0;" horiz-adv-x="380" 
d="M300 0h-220v700h220v-700z" />
    <glyph glyph-name="uni04CF" unicode="&#x4cf;" horiz-adv-x="340" 
d="M270 0h-200v700h200v-700z" />
    <glyph glyph-name="uni04D0" unicode="&#x4d0;" horiz-adv-x="814" 
d="M824 0h-231l-38 100h-299l-38 -100h-228l283 700h268zM402 485l-83 -220h173l-84 220h-6zM243 808.5q-56 43.5 -56 126.5h125q0 -31 25.5 -48t69.5 -17t69.5 17t25.5 48h125q0 -83 -56 -126.5t-164 -43.5t-164 43.5z" />
    <glyph glyph-name="uni04D1" unicode="&#x4d1;" horiz-adv-x="665" 
d="M80 26q-55 41 -55 116q0 76 60 115t153 39q47 0 89.5 -8.5t67.5 -22.5v68q0 30 -17.5 43.5t-52.5 13.5t-54 -11.5t-19 -33.5h-200q0 86 71 135.5t202 49.5q128 0 199 -51t71 -150v-113q0 -31 5.5 -42t19.5 -11q5 0 15 2v-160q-30 -15 -85 -15q-102 0 -133 78h-6
q-25 -39 -74.5 -61t-113.5 -22q-88 0 -143 41zM355.5 130q24.5 5 39.5 13v36q-15 5 -40.5 8.5t-49.5 3.5q-38 0 -59 -7t-21 -25q0 -20 20.5 -27t59.5 -7q26 0 50.5 5zM165 623.5q-56 43.5 -56 126.5h125q0 -34 24.5 -52t70.5 -18t70.5 18t24.5 52h125q0 -83 -56 -126.5
t-164 -43.5t-164 43.5z" />
    <glyph glyph-name="uni04D6" unicode="&#x4d6;" horiz-adv-x="725" 
d="M680 700v-170h-390v-95h335v-160h-335v-105h390v-170h-610v700h610zM216 808.5q-56 43.5 -56 126.5h125q0 -31 25.5 -48t69.5 -17t69.5 17t25.5 48h125q0 -83 -56 -126.5t-164 -43.5t-164 43.5z" />
    <glyph glyph-name="uni04D7" unicode="&#x4d7;" horiz-adv-x="665" 
d="M634 233q-1 -13 -3 -23h-396q9 -45 35 -67.5t65 -22.5q61 0 82 45h207q-9 -48 -41.5 -90t-92.5 -68.5t-147 -26.5q-92 0 -161.5 33t-108 95.5t-38.5 146.5q0 85 38.5 147t107 95t156.5 33q86 0 153.5 -30.5t106 -92t38.5 -150.5q0 -11 -1 -24zM236 305h191
q-2 38 -27 61.5t-65 23.5q-80 0 -99 -85zM174 623.5q-56 43.5 -56 126.5h125q0 -34 24.5 -52t70.5 -18t70.5 18t24.5 52h125q0 -83 -56 -126.5t-164 -43.5t-164 43.5z" />
    <glyph glyph-name="uni04D8" unicode="&#x4d8;" horiz-adv-x="840" 
d="M621.5 670q87.5 -45 135.5 -128t48 -192t-48 -192t-136.5 -128t-205.5 -45q-113 0 -199 45.5t-133.5 128.5t-47.5 191q0 31 4 50h527q-10 64 -46.5 97t-99.5 33q-74 0 -113 -50h-255q38 108 136 171.5t231 63.5q115 0 202.5 -45zM561 275h-284q13 -52 49.5 -78.5
t92.5 -26.5q115 0 142 105z" />
    <glyph glyph-name="uni04D9" unicode="&#x4d9;" horiz-adv-x="665" 
d="M483.5 497q69.5 -33 108 -95.5t38.5 -146.5q0 -85 -38.5 -147t-107 -95t-156.5 -33q-86 0 -153.5 30.5t-106 92t-38.5 150.5q0 11 1 24t3 23h396q-9 45 -35 67.5t-65 22.5q-61 0 -82 -45h-207q9 48 41.5 90t92.5 68.5t147 26.5q92 0 161.5 -33zM429 205h-191
q2 -38 27 -61.5t65 -23.5q80 0 99 85z" />
    <glyph glyph-name="uni04E2" unicode="&#x4e2;" horiz-adv-x="850" 
d="M290 0h-220v700h220v-370h6l264 370h220v-700h-220v370h-6zM630 795h-410v115h410v-115z" />
    <glyph glyph-name="uni04E3" unicode="&#x4e3;" horiz-adv-x="715" 
d="M260 0h-195v510h195v-247h6l189 247h195v-510h-195v247h-6zM562 595h-410v115h410v-115z" />
    <glyph glyph-name="uni04E8" unicode="&#x4e8;" horiz-adv-x="850" 
d="M629.5 669.5q88.5 -45.5 137 -128.5t48.5 -191t-48.5 -191t-137 -128.5t-204.5 -45.5t-204.5 45.5t-137 128.5t-48.5 191t48.5 191t137 128.5t204.5 45.5t204.5 -45.5zM329.5 498.5q-38.5 -31.5 -52.5 -88.5h296q-14 57 -52.5 88.5t-95.5 31.5t-95.5 -31.5zM520.5 201.5
q38.5 31.5 52.5 88.5h-296q14 -57 52.5 -88.5t95.5 -31.5t95.5 31.5z" />
    <glyph glyph-name="uni04E9" unicode="&#x4e9;" horiz-adv-x="670" 
d="M489 497q68 -33 107 -95.5t39 -146.5t-39 -146.5t-107 -95.5t-154 -33t-154 33t-107 95.5t-39 146.5t39 146.5t107 95.5t154 33t154 -33zM265 362.5q-28 -22.5 -38 -63.5h216q-10 41 -38 63.5t-70 22.5t-70 -22.5zM404.5 146.5q27.5 21.5 38.5 62.5h-216
q11 -41 38.5 -62.5t69.5 -21.5t69.5 21.5z" />
    <glyph glyph-name="uni04EE" unicode="&#x4ee;" horiz-adv-x="705" 
d="M508 700h222l-235 -490q-38 -78 -76.5 -126.5t-91.5 -73.5t-128 -25q-57 0 -96 11v169q40 -10 73 -10q35 0 60 10.5t41 34.5l-292 500h236l154 -293h6zM568 795h-410v115h410v-115z" />
    <glyph glyph-name="uni04EF" unicode="&#x4ef;" horiz-adv-x="645" 
d="M439 510h206l-206 -490q-34 -80 -68.5 -130t-85.5 -77.5t-126 -27.5q-45 0 -83 9v165q29 -9 58 -9q38 0 63.5 15t36.5 43l6 15l-245 487h209l127 -289h6zM526 595h-410v115h410v-115z" />
    <glyph glyph-name="uni04F2" unicode="&#x4f2;" horiz-adv-x="705" 
d="M508 700h222l-235 -490q-38 -78 -76.5 -126.5t-91.5 -73.5t-128 -25q-57 0 -96 11v169q40 -10 73 -10q35 0 60 10.5t41 34.5l-292 500h236l154 -293h6zM312 770h-138l79 175h194zM525 770h-138l103 175h194z" />
    <glyph glyph-name="uni04F3" unicode="&#x4f3;" horiz-adv-x="645" 
d="M439 510h206l-206 -490q-34 -80 -68.5 -130t-85.5 -77.5t-126 -27.5q-45 0 -83 9v165q29 -9 58 -9q38 0 63.5 15t36.5 43l6 15l-245 487h209l127 -289h6zM265 580h-128l90 190h183zM478 580h-128l113 190h184z" />
    <glyph glyph-name="uni1E24" unicode="&#x1e24;" horiz-adv-x="845" 
d="M555 450v250h220v-700h-220v270h-265v-270h-220v700h220v-250h265zM362 -216q-24 24 -24 61t24 61t61 24t61 -24t24 -61t-24 -61t-61 -24t-61 24z" />
    <glyph glyph-name="uni1E25" unicode="&#x1e25;" horiz-adv-x="720" 
d="M70 0v700h200v-270h6q23 42 70 68.5t110 26.5q96 0 150 -57t54 -158v-310h-200v239q0 45 -24.5 72t-66.5 27q-46 0 -72.5 -27t-26.5 -72v-239h-200zM305 -216q-24 24 -24 61t24 61t61 24t61 -24t24 -61t-24 -61t-61 -24t-61 24z" />
    <glyph glyph-name="uni1E26" unicode="&#x1e26;" horiz-adv-x="845" 
d="M555 450v250h220v-700h-220v270h-265v-270h-220v700h220v-250h265zM227.5 786q-27.5 26 -27.5 66q0 41 27.5 67t70.5 26t70.5 -26t27.5 -67q0 -40 -27.5 -66t-70.5 -26t-70.5 26zM477.5 786q-27.5 26 -27.5 66q0 41 27.5 67t70.5 26t70.5 -26t27.5 -67q0 -40 -27.5 -66
t-70.5 -26t-70.5 26z" />
    <glyph glyph-name="uni1E27" unicode="&#x1e27;" horiz-adv-x="720" 
d="M70 0v700h200v-270h6q23 42 70 68.5t110 26.5q96 0 150 -57t54 -158v-310h-200v239q0 45 -24.5 72t-66.5 27q-46 0 -72.5 -27t-26.5 -72v-239h-200zM170.5 786q-27.5 26 -27.5 66q0 41 27.5 67t70.5 26t70.5 -26t27.5 -67q0 -40 -27.5 -66t-70.5 -26t-70.5 26zM420.5 786
q-27.5 26 -27.5 66q0 41 27.5 67t70.5 26t70.5 -26t27.5 -67q0 -40 -27.5 -66t-70.5 -26t-70.5 26z" />
    <glyph glyph-name="uni1E30" unicode="&#x1e30;" horiz-adv-x="765" 
d="M512 362l268 -362h-258l-232 329v-329h-220v700h220v-321l228 321h245zM470 770h-138l72 175h194z" />
    <glyph glyph-name="uni1E31" unicode="&#x1e31;" horiz-adv-x="655" 
d="M459 270l206 -270h-227l-168 239v-239h-200v700h200v-420l156 230h209zM433 770h-138l72 175h194z" />
    <glyph glyph-name="uni1E36" unicode="&#x1e36;" horiz-adv-x="670" 
d="M660 0h-590v700h220v-520h370v-180zM329 -216q-24 24 -24 61t24 61t61 24t61 -24t24 -61t-24 -61t-61 -24t-61 24z" />
    <glyph glyph-name="uni1E37" unicode="&#x1e37;" horiz-adv-x="340" 
d="M270 0h-200v700h200v-700zM109 -216q-24 24 -24 61t24 61t61 24t61 -24t24 -61t-24 -61t-61 -24t-61 24z" />
    <glyph glyph-name="uni1E3E" unicode="&#x1e3e;" horiz-adv-x="1020" 
d="M280 0h-210v700h265l172 -310h6l167 310h270v-700h-210v420h-6l-152 -270h-144l-152 270h-6v-420zM577 770h-138l72 175h194z" />
    <glyph glyph-name="uni1E3F" unicode="&#x1e3f;" horiz-adv-x="985" 
d="M65 0v510h195v-85h6q19 46 60.5 73t98.5 27q58 0 99 -26t57 -74h6q23 48 64 74t97 26q177 0 177 -210v-315h-200v269q0 81 -65 81q-31 0 -48 -20t-17 -56v-274h-200v269q0 81 -65 81q-31 0 -48 -20t-17 -56v-274h-200zM553 580h-125l79 190h181z" />
    <glyph glyph-name="uni1E54" unicode="&#x1e54;" horiz-adv-x="755" 
d="M392 700q163 0 243 -65t80 -200t-80 -200t-243 -65h-102v-170h-220v700h322zM390 350q47 0 71 21.5t24 63.5t-24 63.5t-71 21.5h-100v-170h100zM437 770h-138l72 175h194z" />
    <glyph glyph-name="uni1E55" unicode="&#x1e55;" horiz-adv-x="710" 
d="M65 -200v710h180v-75h6q23 42 70 66t111 24q69 0 124.5 -33t87 -94.5t31.5 -142.5t-31.5 -142.5t-86 -94.5t-122.5 -33q-54 0 -96.5 21t-67.5 59h-6v-265h-200zM436.5 182.5q28.5 27.5 28.5 72.5t-28.5 72.5t-71.5 27.5t-71.5 -27.5t-28.5 -72.5t28.5 -72.5t71.5 -27.5
t71.5 27.5zM469 580h-125l79 190h181z" />
    <glyph glyph-name="Wgrave" unicode="&#x1e80;" horiz-adv-x="1170" 
d="M465 0h-276l-179 700h230l106 -455h6l117 455h234l117 -455h6l106 455h228l-179 -700h-276l-117 455h-6zM656 770h-138l-128 175h194z" />
    <glyph glyph-name="wgrave" unicode="&#x1e81;" horiz-adv-x="950" 
d="M382 0h-230l-142 510h202l69 -325h6l91 325h195l91 -325h6l70 325h200l-142 -510h-230l-90 320h-6zM543 580h-125l-135 190h181z" />
    <glyph glyph-name="Wacute" unicode="&#x1e82;" horiz-adv-x="1170" 
d="M465 0h-276l-179 700h230l106 -455h6l117 455h234l117 -455h6l106 455h228l-179 -700h-276l-117 455h-6zM652 770h-138l72 175h194z" />
    <glyph glyph-name="wacute" unicode="&#x1e83;" horiz-adv-x="950" 
d="M382 0h-230l-142 510h202l69 -325h6l91 325h195l91 -325h6l70 325h200l-142 -510h-230l-90 320h-6zM532 580h-125l79 190h181z" />
    <glyph glyph-name="Wdieresis" unicode="&#x1e84;" horiz-adv-x="1170" 
d="M465 0h-276l-179 700h230l106 -455h6l117 455h234l117 -455h6l106 455h228l-179 -700h-276l-117 455h-6zM389.5 786q-27.5 26 -27.5 66q0 41 27.5 67t70.5 26t70.5 -26t27.5 -67q0 -40 -27.5 -66t-70.5 -26t-70.5 26zM639.5 786q-27.5 26 -27.5 66q0 41 27.5 67t70.5 26
t70.5 -26t27.5 -67q0 -40 -27.5 -66t-70.5 -26t-70.5 26z" />
    <glyph glyph-name="wdieresis" unicode="&#x1e85;" horiz-adv-x="950" 
d="M382 0h-230l-142 510h202l69 -325h6l91 325h195l91 -325h6l70 325h200l-142 -510h-230l-90 320h-6zM278.5 592q-28.5 27 -28.5 68t28.5 68t71.5 27t71.5 -27t28.5 -68t-28.5 -68t-71.5 -27t-71.5 27zM528.5 592q-28.5 27 -28.5 68t28.5 68t71.5 27t71.5 -27t28.5 -68
t-28.5 -68t-71.5 -27t-71.5 27z" />
    <glyph glyph-name="uni1E8C" unicode="&#x1e8c;" horiz-adv-x="755" 
d="M238 0h-243l231 362l-208 338h240l116 -208h6l117 208h240l-208 -338l231 -362h-243l-137 227h-6zM181.5 786q-27.5 26 -27.5 66q0 41 27.5 67t70.5 26t70.5 -26t27.5 -67q0 -40 -27.5 -66t-70.5 -26t-70.5 26zM431.5 786q-27.5 26 -27.5 66q0 41 27.5 67t70.5 26
t70.5 -26t27.5 -67q0 -40 -27.5 -66t-70.5 -26t-70.5 26z" />
    <glyph glyph-name="uni1E8D" unicode="&#x1e8d;" horiz-adv-x="640" 
d="M217 0h-222l174 258l-150 252h217l82 -160h6l80 160h217l-150 -252l174 -258h-222l-101 160h-6zM123.5 592q-28.5 27 -28.5 68t28.5 68t71.5 27t71.5 -27t28.5 -68t-28.5 -68t-71.5 -27t-71.5 27zM373.5 592q-28.5 27 -28.5 68t28.5 68t71.5 27t71.5 -27t28.5 -68
t-28.5 -68t-71.5 -27t-71.5 27z" />
    <glyph glyph-name="uni1E9E" unicode="&#x1e9e;" horiz-adv-x="845" 
d="M387.5 40q-62.5 55 -62.5 151h205q0 -20 9.5 -30.5t25.5 -10.5t25.5 10t9.5 27q0 30 -24 48.5t-74 41.5q-44 20 -70.5 37t-45.5 44t-19 66q0 65 54 100v6h-33q-50 0 -79 -21.5t-29 -68.5v-440h-215v440q0 97 32 153.5t98 81.5t174 25h285v-170q-34 0 -53 -15.5t-19 -44.5
q0 -31 22.5 -51t72.5 -48q47 -26 76.5 -48t50.5 -57.5t21 -86.5q0 -94 -64.5 -144t-182.5 -50q-128 0 -190.5 55z" />
    <glyph glyph-name="uni1EBC" unicode="&#x1ebc;" horiz-adv-x="725" 
d="M680 700v-170h-390v-95h335v-160h-335v-105h390v-170h-610v700h610zM418.5 784.5q-21.5 9.5 -45.5 26.5q-17 12 -28.5 18t-24.5 6q-32 0 -32 -41v-14h-120v30q0 71 32.5 108t90.5 37q29 0 50.5 -9.5t45.5 -26.5q17 -12 28.5 -18t24.5 -6q32 0 32 41v14h120v-30
q0 -71 -32.5 -108t-90.5 -37q-29 0 -50.5 9.5z" />
    <glyph glyph-name="uni1EBD" unicode="&#x1ebd;" horiz-adv-x="665" 
d="M634 233q-1 -13 -3 -23h-396q9 -45 35 -67.5t65 -22.5q61 0 82 45h207q-9 -48 -41.5 -90t-92.5 -68.5t-147 -26.5q-92 0 -161.5 33t-108 95.5t-38.5 146.5q0 85 38.5 147t107 95t156.5 33q86 0 153.5 -30.5t106 -92t38.5 -150.5q0 -11 -1 -24zM236 305h191
q-2 38 -27 61.5t-65 23.5q-80 0 -99 -85zM126 610q0 71 32.5 108t90.5 37q29 0 50.5 -9.5t45.5 -26.5q17 -12 28.5 -18t24.5 -6q32 0 32 41v14h120v-30q0 -71 -32.5 -108t-90.5 -37q-29 0 -50.5 9.5t-45.5 26.5q-17 12 -28.5 18t-24.5 6q-32 0 -32 -41v-14h-120v30z" />
    <glyph glyph-name="Ygrave" unicode="&#x1ef2;" horiz-adv-x="720" 
d="M470 0h-220v230l-260 470h238l129 -275h6l133 275h234l-260 -470v-230zM431 770h-138l-128 175h194z" />
    <glyph glyph-name="ygrave" unicode="&#x1ef3;" horiz-adv-x="645" 
d="M439 510h206l-206 -490q-34 -80 -68.5 -130t-85.5 -77.5t-126 -27.5q-45 0 -83 9v165q29 -9 58 -9q38 0 63.5 15t36.5 43l6 15l-245 487h209l127 -289h6zM389 580h-125l-135 190h181z" />
    <glyph glyph-name="uni1EF8" unicode="&#x1ef8;" horiz-adv-x="720" 
d="M470 0h-220v230l-260 470h238l129 -275h6l133 275h234l-260 -470v-230zM398.5 784.5q-21.5 9.5 -45.5 26.5q-17 12 -28.5 18t-24.5 6q-32 0 -32 -41v-14h-120v30q0 71 32.5 108t90.5 37q29 0 50.5 -9.5t45.5 -26.5q17 -12 28.5 -18t24.5 -6q32 0 32 41v14h120v-30
q0 -71 -32.5 -108t-90.5 -37q-29 0 -50.5 9.5z" />
    <glyph glyph-name="uni1EF9" unicode="&#x1ef9;" horiz-adv-x="645" 
d="M439 510h206l-206 -490q-34 -80 -68.5 -130t-85.5 -77.5t-126 -27.5q-45 0 -83 9v165q29 -9 58 -9q38 0 63.5 15t36.5 43l6 15l-245 487h209l127 -289h6zM109 610q0 71 32.5 108t90.5 37q29 0 50.5 -9.5t45.5 -26.5q17 -12 28.5 -18t24.5 -6q32 0 32 41v14h120v-30
q0 -71 -32.5 -108t-90.5 -37q-29 0 -50.5 9.5t-45.5 26.5q-17 12 -28.5 18t-24.5 6q-32 0 -32 -41v-14h-120v30z" />
    <glyph glyph-name="endash" unicode="&#x2013;" horiz-adv-x="780" 
d="M750 195h-720v135h720v-135z" />
    <glyph glyph-name="emdash" unicode="&#x2014;" horiz-adv-x="960" 
d="M930 195h-900v135h900v-135z" />
    <glyph glyph-name="quoteleft" unicode="&#x2018;" horiz-adv-x="283" 
d="M163 589q39 -6 64.5 -33t25.5 -69q0 -48 -31.5 -77.5t-79.5 -29.5q-52 0 -82 32t-30 78q0 35 11 71t32 81l56 118h87z" />
    <glyph glyph-name="quoteright" unicode="&#x2019;" horiz-adv-x="283" 
d="M223 738q30 -32 30 -78q0 -35 -11 -71t-32 -81l-56 -118h-87l53 171q-39 6 -64.5 33t-25.5 69q0 48 31.5 77.5t79.5 29.5q52 0 82 -32z" />
    <glyph glyph-name="quotesinglbase" unicode="&#x201a;" horiz-adv-x="283" 
d="M223 168q30 -32 30 -78q0 -35 -11 -71t-32 -81l-56 -118h-87l53 171q-39 6 -64.5 33t-25.5 69q0 48 31.5 77.5t79.5 29.5q52 0 82 -32z" />
    <glyph glyph-name="quotedblleft" unicode="&#x201c;" horiz-adv-x="545" 
d="M163 589q39 -6 64.5 -33t25.5 -69q0 -48 -31.5 -77.5t-79.5 -29.5q-52 0 -82 32t-30 78q0 35 11 71t32 81l56 118h87zM425 589q39 -6 64.5 -33t25.5 -69q0 -48 -31.5 -77.5t-79.5 -29.5q-52 0 -82 32t-30 78q0 35 11 71t32 81l56 118h87z" />
    <glyph glyph-name="quotedblright" unicode="&#x201d;" horiz-adv-x="545" 
d="M223 738q30 -32 30 -78q0 -35 -11 -71t-32 -81l-56 -118h-87l53 171q-39 6 -64.5 33t-25.5 69q0 48 31.5 77.5t79.5 29.5q52 0 82 -32zM485 738q30 -32 30 -78q0 -35 -11 -71t-32 -81l-56 -118h-87l53 171q-39 6 -64.5 33t-25.5 69q0 48 31.5 77.5t79.5 29.5q52 0 82 -32
z" />
    <glyph glyph-name="quotedblbase" unicode="&#x201e;" horiz-adv-x="545" 
d="M223 168q30 -32 30 -78q0 -35 -11 -71t-32 -81l-56 -118h-87l53 171q-39 6 -64.5 33t-25.5 69q0 48 31.5 77.5t79.5 29.5q52 0 82 -32zM485 168q30 -32 30 -78q0 -35 -11 -71t-32 -81l-56 -118h-87l53 171q-39 6 -64.5 33t-25.5 69q0 48 31.5 77.5t79.5 29.5q52 0 82 -32
z" />
    <glyph glyph-name="dagger" unicode="&#x2020;" horiz-adv-x="540" 
d="M256 515q-25 29 -42.5 68.5t-17.5 67.5q0 29 21 49t53 20t53 -20t21 -49q0 -28 -17.5 -67.5t-42.5 -68.5h-28zM50 429q-20 21 -20 53t20 53t49 21q28 0 67.5 -17.5t68.5 -42.5v-28q-29 -25 -68.5 -42.5t-67.5 -17.5q-29 0 -49 21zM373.5 425.5q-39.5 17.5 -68.5 42.5v28
q29 25 68.5 42.5t67.5 17.5q29 0 49 -21t20 -53t-20 -53t-49 -21q-28 0 -67.5 17.5zM290 -200h-40l-52 464l52 190h40l52 -190z" />
    <glyph glyph-name="daggerdbl" unicode="&#x2021;" horiz-adv-x="540" 
d="M256 515q-25 29 -42.5 68.5t-17.5 67.5q0 29 21 49t53 20t53 -20t21 -49q0 -28 -17.5 -67.5t-42.5 -68.5h-28zM50 429q-20 21 -20 53t20 53t49 21q28 0 67.5 -17.5t68.5 -42.5v-28q-29 -25 -68.5 -42.5t-67.5 -17.5q-29 0 -49 21zM373.5 425.5q-39.5 17.5 -68.5 42.5v28
q29 25 68.5 42.5t67.5 17.5q29 0 49 -21t20 -53t-20 -53t-49 -21q-28 0 -67.5 17.5zM285 60h-30l-57 190l57 190h30l57 -190zM50 -35q-20 21 -20 53t20 53t49 21q28 0 67.5 -17.5t68.5 -42.5v-28q-29 -25 -68.5 -42.5t-67.5 -17.5q-29 0 -49 21zM373.5 -38.5
q-39.5 17.5 -68.5 42.5v28q29 25 68.5 42.5t67.5 17.5q29 0 49 -21t20 -53t-20 -53t-49 -21q-28 0 -67.5 17.5zM217 -200q-21 20 -21 49q0 28 17.5 67.5t42.5 68.5h28q25 -29 42.5 -68.5t17.5 -67.5q0 -29 -21 -49t-53 -20t-53 20z" />
    <glyph glyph-name="bullet" unicode="&#x2022;" horiz-adv-x="470" 
d="M139.5 185.5q-39.5 35.5 -39.5 94.5t39.5 94.5t95.5 35.5t95.5 -35.5t39.5 -94.5t-39.5 -94.5t-95.5 -35.5t-95.5 35.5z" />
    <glyph glyph-name="ellipsis" unicode="&#x2026;" horiz-adv-x="840" 
d="M62 19q-32 29 -32 76t32 76t78 29t78 -29t32 -76t-32 -76t-78 -29t-78 29zM342 19q-32 29 -32 76t32 76t78 29t78 -29t32 -76t-32 -76t-78 -29t-78 29zM622 19q-32 29 -32 76t32 76t78 29t78 -29t32 -76t-32 -76t-78 -29t-78 29z" />
    <glyph glyph-name="perthousand" unicode="&#x2030;" horiz-adv-x="1340" 
d="M115.5 377.5q-42.5 22.5 -66.5 63.5t-24 94t24 94t66.5 63.5t97.5 22.5t97.5 -22.5t66.5 -63.5t24 -94t-24 -94t-66.5 -63.5t-97.5 -22.5t-97.5 22.5zM297 0h-148l480 700h148zM255.5 487q15.5 17 15.5 48t-15.5 48t-42.5 17t-42.5 -17t-15.5 -48t15.5 -48t42.5 -17
t42.5 17zM614.5 7.5q-42.5 22.5 -66.5 63.5t-24 94t24 94t66.5 63.5t97.5 22.5t97.5 -22.5t66.5 -63.5t24 -94t-24 -94t-66.5 -63.5t-97.5 -22.5t-97.5 22.5zM1029.5 7.5q-42.5 22.5 -66.5 63.5t-24 94t24 94t66.5 63.5t97.5 22.5t97.5 -22.5t66.5 -63.5t24 -94t-24 -94
t-66.5 -63.5t-97.5 -22.5t-97.5 22.5zM754.5 117q15.5 17 15.5 48t-15.5 48t-42.5 17t-42.5 -17t-15.5 -48t15.5 -48t42.5 -17t42.5 17zM1169.5 117q15.5 17 15.5 48t-15.5 48t-42.5 17t-42.5 -17t-15.5 -48t15.5 -48t42.5 -17t42.5 17z" />
    <glyph glyph-name="guilsinglleft" unicode="&#x2039;" horiz-adv-x="385" 
d="M355 65h-185l-140 185l140 185h185l-147 -182v-6z" />
    <glyph glyph-name="guilsinglright" unicode="&#x203a;" horiz-adv-x="385" 
d="M215 65h-185l147 182v6l-147 182h185l140 -185z" />
    <glyph glyph-name="fraction" unicode="&#x2044;" horiz-adv-x="208" 
d="M-62 0h-148l480 700h148z" />
    <glyph glyph-name="uni2070" unicode="&#x2070;" horiz-adv-x="430" 
d="M73 464q-53 54 -53 146t53 146t142 54t142 -54t53 -146t-53 -146t-142 -54t-142 54zM259.5 543q15.5 23 15.5 67t-15.5 67t-44.5 23t-44.5 -23t-15.5 -67t15.5 -67t44.5 -23t44.5 23z" />
    <glyph glyph-name="uni2074" unicode="&#x2074;" horiz-adv-x="420" 
d="M345 585h55v-100h-55v-65h-135v65h-195v105l167 210h163v-215zM214 692l-79 -101v-6h85v107h-6z" />
    <glyph glyph-name="uni2075" unicode="&#x2075;" horiz-adv-x="415" 
d="M76.5 445.5q-46.5 35.5 -46.5 100.5h130q0 -15 13.5 -25.5t33.5 -10.5t31.5 10.5t11.5 29.5t-11.5 29.5t-31.5 10.5t-36 -14h-127l34 224h281v-95h-185l-6 -47h6q27 17 75 17q61 0 98.5 -34t37.5 -90q0 -66 -47 -103.5t-130 -37.5q-85 0 -131.5 35.5z" />
    <glyph glyph-name="uni2076" unicode="&#x2076;" horiz-adv-x="390" 
d="M68.5 450q-48.5 40 -48.5 108q0 37 13.5 72t43.5 75l71 95h128l-87 -113h6q15 4 35 4q63 0 104 -36.5t41 -95.5q0 -69 -47.5 -109t-128.5 -40q-82 0 -130.5 40zM240 518q15 13 15 35t-15 35t-40 13t-40 -13t-15 -35t15 -35t40 -13t40 13z" />
    <glyph glyph-name="uni2077" unicode="&#x2077;" horiz-adv-x="350" 
d="M190 420h-130l149 269v6h-194v105h325v-96z" />
    <glyph glyph-name="uni2078" unicode="&#x2078;" horiz-adv-x="400" 
d="M67 440q-47 30 -47 87q0 33 20.5 56.5t54.5 32.5v6q-62 23 -62 83q0 47 46 76t121 29t121 -29t46 -76q0 -60 -62 -83v-6q34 -9 54.5 -32.5t20.5 -56.5q0 -57 -47 -87t-133 -30t-133 30zM238 659.5q14 9.5 14 25.5q0 17 -13.5 26t-38.5 9t-38.5 -9t-13.5 -26
q0 -16 14 -25.5t38 -9.5t38 9.5zM244 510.5q16 10.5 16 29.5t-16 29.5t-44 10.5t-44 -10.5t-16 -29.5t16 -29.5t44 -10.5t44 10.5z" />
    <glyph glyph-name="uni2079" unicode="&#x2079;" horiz-adv-x="390" 
d="M114 420l87 113h-6q-15 -4 -35 -4q-63 0 -104 36.5t-41 95.5q0 69 47.5 109t128.5 40q82 0 130.5 -40t48.5 -108q0 -37 -13.5 -72t-43.5 -75l-71 -95h-128zM230 632q15 13 15 35t-15 35t-40 13t-40 -13t-15 -35t15 -35t40 -13t40 13z" />
    <glyph glyph-name="uni2080" unicode="&#x2080;" horiz-adv-x="430" 
d="M73 -56q-53 54 -53 146t53 146t142 54t142 -54t53 -146t-53 -146t-142 -54t-142 54zM259.5 23q15.5 23 15.5 67t-15.5 67t-44.5 23t-44.5 -23t-15.5 -67t15.5 -67t44.5 -23t44.5 23z" />
    <glyph glyph-name="uni2081" unicode="&#x2081;" horiz-adv-x="355" 
d="M255 280v-270h90v-110h-320v110h100v134l-85 -52v118l113 70h102z" />
    <glyph glyph-name="uni2082" unicode="&#x2082;" horiz-adv-x="410" 
d="M385 0v-100h-365v42q0 53 23 85.5t54.5 49t78.5 31.5q37 12 54.5 22t17.5 26q0 29 -39 29q-21 0 -35 -10.5t-14 -27.5h-130q0 66 50.5 104.5t137.5 38.5q78 0 121.5 -34.5t43.5 -86.5q0 -42 -19.5 -68t-47 -39t-69.5 -26q-31 -10 -47.5 -17.5t-24.5 -18.5h210z" />
    <glyph glyph-name="uni2083" unicode="&#x2083;" horiz-adv-x="410" 
d="M74 -73q-49 37 -49 98h130q0 -17 13.5 -26t34.5 -9q22 0 34.5 8.5t12.5 26.5q0 35 -50 35h-72v70l76 49v6h-145v95h295v-83l-97 -59v-6h8q53 0 86.5 -30t33.5 -77q0 -66 -48.5 -100.5t-133.5 -34.5q-80 0 -129 37z" />
    <glyph glyph-name="uni2084" unicode="&#x2084;" horiz-adv-x="420" 
d="M345 65h55v-100h-55v-65h-135v65h-195v105l167 210h163v-215zM214 172l-79 -101v-6h85v107h-6z" />
    <glyph glyph-name="uni2085" unicode="&#x2085;" horiz-adv-x="415" 
d="M76.5 -74.5q-46.5 35.5 -46.5 100.5h130q0 -15 13.5 -25.5t33.5 -10.5t31.5 10.5t11.5 29.5t-11.5 29.5t-31.5 10.5t-36 -14h-127l34 224h281v-95h-185l-6 -47h6q27 17 75 17q61 0 98.5 -34t37.5 -90q0 -66 -47 -103.5t-130 -37.5q-85 0 -131.5 35.5z" />
    <glyph glyph-name="uni2086" unicode="&#x2086;" horiz-adv-x="390" 
d="M68.5 -70q-48.5 40 -48.5 108q0 37 13.5 72t43.5 75l71 95h128l-87 -113h6q15 4 35 4q63 0 104 -36.5t41 -95.5q0 -69 -47.5 -109t-128.5 -40q-82 0 -130.5 40zM240 -2q15 13 15 35t-15 35t-40 13t-40 -13t-15 -35t15 -35t40 -13t40 13z" />
    <glyph glyph-name="uni2087" unicode="&#x2087;" horiz-adv-x="350" 
d="M190 -100h-130l149 269v6h-194v105h325v-96z" />
    <glyph glyph-name="uni2088" unicode="&#x2088;" horiz-adv-x="400" 
d="M67 -80q-47 30 -47 87q0 33 20.5 56.5t54.5 32.5v6q-62 23 -62 83q0 47 46 76t121 29t121 -29t46 -76q0 -60 -62 -83v-6q34 -9 54.5 -32.5t20.5 -56.5q0 -57 -47 -87t-133 -30t-133 30zM238 139.5q14 9.5 14 25.5q0 17 -13.5 26t-38.5 9t-38.5 -9t-13.5 -26
q0 -16 14 -25.5t38 -9.5t38 9.5zM244 -9.5q16 10.5 16 29.5t-16 29.5t-44 10.5t-44 -10.5t-16 -29.5t16 -29.5t44 -10.5t44 10.5z" />
    <glyph glyph-name="uni2089" unicode="&#x2089;" horiz-adv-x="390" 
d="M114 -100l87 113h-6q-15 -4 -35 -4q-63 0 -104 36.5t-41 95.5q0 69 47.5 109t128.5 40q82 0 130.5 -40t48.5 -108q0 -37 -13.5 -72t-43.5 -75l-71 -95h-128zM230 112q15 13 15 35t-15 35t-40 13t-40 -13t-15 -35t15 -35t40 -13t40 13z" />
    <glyph glyph-name="uni20A9" unicode="&#x20a9;" horiz-adv-x="1190" 
d="M1175 490v-115h-112l-16 -65h128v-115h-157l-48 -195h-275l-97 395h-6l-97 -395h-275l-48 195h-157v115h128l-16 65h-112v115h83l-52 210h227l103 -455h6l117 455h194l117 -455h6l103 455h225l-52 -210h83z" />
    <glyph glyph-name="Euro" unicode="&#x20ac;" horiz-adv-x="822" 
d="M792 242q-7 -75 -52.5 -133.5t-121 -91t-168.5 -32.5q-129 0 -222 64.5t-129 175.5h-99v100h81q-1 8 -1 25t1 25h-81v100h99q36 111 129 175.5t222 64.5q92 0 167 -33.5t121 -93t53 -136.5h-185q-13 49 -57 78.5t-103 29.5q-48 0 -84 -21.5t-57 -63.5h202v-100h-226
q-1 -8 -1 -25t1 -25h226v-100h-202q21 -42 57 -63.5t84 -21.5q59 0 102 27t59 75h185z" />
    <glyph glyph-name="uni20AE" unicode="&#x20ae;" horiz-adv-x="715" 
d="M695 700v-170h-228v-88l130 37v-104l-130 -37v-56l130 37v-104l-130 -37v-178h-220v114l-130 -37v104l130 37v56l-130 -37v104l130 37v152h-227v170h675z" />
    <glyph glyph-name="uni20B4" unicode="&#x20b4;" horiz-adv-x="775" 
d="M730 455v-85h-685v85h403q13 21 13 42q0 27 -20.5 42.5t-60.5 15.5t-62.5 -12.5t-22.5 -32.5h-225q0 56 40 103t114.5 74.5t172.5 27.5q91 0 156 -22.5t99 -61.5t34 -88t-31 -88h75zM45 245v85h685v-85h-403q-13 -21 -13 -42q0 -27 20.5 -42.5t60.5 -15.5t62.5 12.5
t22.5 32.5h225q0 -56 -40 -103t-114.5 -74.5t-172.5 -27.5q-91 0 -156 22.5t-99 61.5t-34 88t31 88h-75z" />
    <glyph glyph-name="uni20B8" unicode="&#x20b8;" horiz-adv-x="715" 
d="M695 590h-675v110h675v-110zM467 0h-220v365h-227v170h675v-170h-228v-365z" />
    <glyph glyph-name="uni20B9" unicode="&#x20b9;" 
d="M670 590h-134q30 -37 42 -90h92v-110h-91q-18 -78 -81 -129.5t-148 -65.5l257 -195h-320l-247 195v140h223q82 0 104 55h-327v110h327q-22 55 -104 55h-223v145h630v-110z" />
    <glyph glyph-name="uni20BA" unicode="&#x20ba;" horiz-adv-x="690" 
d="M680 285q0 -285 -367 -285h-228v244l-85 -30v101l85 30v53l-85 -30v101l85 30v201h220v-122l140 50v-101l-140 -50v-53l140 50v-101l-140 -50v-123h27q129 0 129 85h219z" />
    <glyph glyph-name="uni20BD" unicode="&#x20bd;" horiz-adv-x="740" 
d="M305 240v-50h190v-105h-190v-85h-220v85h-85v105h85v50h-85v150h85v310h302q154 0 233.5 -57.5t79.5 -172.5q0 -112 -80 -171t-233 -59h-82zM305 540v-150h75q44 0 67 19.5t23 55.5t-23 55.5t-67 19.5h-75z" />
    <glyph glyph-name="uni20BF" unicode="&#x20bf;" horiz-adv-x="750" 
d="M671 65.5q-44 -48.5 -125 -61.5v-119h-155v115h-80v-115h-155v115h-86v700h86v115h155v-115h80v115h155v-124q66 -15 101 -57.5t35 -107.5q0 -56 -26.5 -95.5t-74.5 -56.5v-6q64 -15 99 -61t35 -114q0 -79 -44 -127.5zM290 535v-110h104q27 0 42.5 14.5t15.5 40.5
t-15.5 40.5t-42.5 14.5h-104zM419 165q31 0 48.5 15.5t17.5 44.5t-17.5 44.5t-48.5 15.5h-129v-120h129z" />
    <glyph glyph-name="som" unicode="&#x20c0;" horiz-adv-x="655" 
d="M183.5 208q-68.5 33 -108.5 94t-40 142q0 82 40 143.5t108.5 94.5t153.5 33q81 0 145.5 -28t101 -78.5t36.5 -115.5h-202q-20 57 -86 57q-41 0 -69 -27.5t-28 -78.5q0 -50 28.5 -77t68.5 -27q35 0 59 16t32 47h202q0 -66 -37 -118t-103 -81t-148 -29q-85 0 -153.5 33z
M585 0h-510v130h510v-130z" />
    <glyph glyph-name="uni2116" unicode="&#x2116;" horiz-adv-x="1240" 
d="M285 0h-215v700h220l269 -377h6v377h215v-700h-220l-269 377h-6v-377zM895.5 217.5q-49.5 47.5 -49.5 127.5t49.5 127.5t132.5 47.5t132.5 -47.5t49.5 -127.5t-49.5 -127.5t-132.5 -47.5t-132.5 47.5zM1070 301q15 16 15 44t-15 44t-42 16t-42 -16t-15 -44t15 -44t42 -16
t42 16zM1200 0h-344v110h344v-110z" />
    <glyph glyph-name="trademark" unicode="&#x2122;" horiz-adv-x="790" 
d="M210 400h-110v205h-95v95h300v-95h-95v-205zM460 400h-110v300h138l58 -121h6l61 121h137v-300h-110v162h-6l-50 -97h-70l-48 97h-6v-162z" />
    <glyph glyph-name="uni2150" unicode="&#x2150;" horiz-adv-x="993" 
d="M255 700v-270h90v-110h-320v110h100v134l-85 -52v118l113 70h102zM333 0h-148l480 700h148zM833 0h-130l149 269v6h-194v105h325v-96z" />
    <glyph glyph-name="uni2151" unicode="&#x2151;" horiz-adv-x="1013" 
d="M255 700v-270h90v-110h-320v110h100v134l-85 -52v118l113 70h102zM333 0h-148l480 700h148zM737 0l87 113h-6q-15 -4 -35 -4q-63 0 -104 36.5t-41 95.5q0 69 47.5 109t128.5 40q82 0 130.5 -40t48.5 -108q0 -37 -13.5 -72t-43.5 -75l-71 -95h-128zM853 212q15 13 15 35
t-15 35t-40 13t-40 -13t-15 -35t15 -35t40 -13t40 13z" />
    <glyph glyph-name="uni2152" unicode="&#x2152;" horiz-adv-x="1363" 
d="M255 700v-270h90v-110h-320v110h100v134l-85 -52v118l113 70h102zM333 0h-148l480 700h148zM838 380v-270h90v-110h-320v110h100v134l-85 -52v118l113 70h102zM1006 44q-53 54 -53 146t53 146t142 54t142 -54t53 -146t-53 -146t-142 -54t-142 54zM1192.5 123
q15.5 23 15.5 67t-15.5 67t-44.5 23t-44.5 -23t-15.5 -67t15.5 -67t44.5 -23t44.5 23z" />
    <glyph glyph-name="uni2153" unicode="&#x2153;" horiz-adv-x="1013" 
d="M255 700v-270h90v-110h-320v110h100v134l-85 -52v118l113 70h102zM333 0h-148l480 700h148zM677 27q-49 37 -49 98h130q0 -17 13.5 -26t34.5 -9q22 0 34.5 8.5t12.5 26.5q0 35 -50 35h-72v70l76 49v6h-145v95h295v-83l-97 -59v-6h8q53 0 86.5 -30t33.5 -77
q0 -66 -48.5 -100.5t-133.5 -34.5q-80 0 -129 37z" />
    <glyph glyph-name="uni2154" unicode="&#x2154;" horiz-adv-x="1068" 
d="M385 420v-100h-365v42q0 53 23 85.5t54.5 49t78.5 31.5q37 12 54.5 22t17.5 26q0 29 -39 29q-21 0 -35 -10.5t-14 -27.5h-130q0 66 50.5 104.5t137.5 38.5q78 0 121.5 -34.5t43.5 -86.5q0 -42 -19.5 -68t-47 -39t-69.5 -26q-31 -10 -47.5 -17.5t-24.5 -18.5h210zM388 0
h-148l480 700h148zM732 27q-49 37 -49 98h130q0 -17 13.5 -26t34.5 -9q22 0 34.5 8.5t12.5 26.5q0 35 -50 35h-72v70l76 49v6h-145v95h295v-83l-97 -59v-6h8q53 0 86.5 -30t33.5 -77q0 -66 -48.5 -100.5t-133.5 -34.5q-80 0 -129 37z" />
    <glyph glyph-name="uni2155" unicode="&#x2155;" horiz-adv-x="1018" 
d="M255 700v-270h90v-110h-320v110h100v134l-85 -52v118l113 70h102zM333 0h-148l480 700h148zM679.5 25.5q-46.5 35.5 -46.5 100.5h130q0 -15 13.5 -25.5t33.5 -10.5t31.5 10.5t11.5 29.5t-11.5 29.5t-31.5 10.5t-36 -14h-127l34 224h281v-95h-185l-6 -47h6q27 17 75 17
q61 0 98.5 -34t37.5 -90q0 -66 -47 -103.5t-130 -37.5q-85 0 -131.5 35.5z" />
    <glyph glyph-name="uni2156" unicode="&#x2156;" horiz-adv-x="1073" 
d="M385 420v-100h-365v42q0 53 23 85.5t54.5 49t78.5 31.5q37 12 54.5 22t17.5 26q0 29 -39 29q-21 0 -35 -10.5t-14 -27.5h-130q0 66 50.5 104.5t137.5 38.5q78 0 121.5 -34.5t43.5 -86.5q0 -42 -19.5 -68t-47 -39t-69.5 -26q-31 -10 -47.5 -17.5t-24.5 -18.5h210zM388 0
h-148l480 700h148zM734.5 25.5q-46.5 35.5 -46.5 100.5h130q0 -15 13.5 -25.5t33.5 -10.5t31.5 10.5t11.5 29.5t-11.5 29.5t-31.5 10.5t-36 -14h-127l34 224h281v-95h-185l-6 -47h6q27 17 75 17q61 0 98.5 -34t37.5 -90q0 -66 -47 -103.5t-130 -37.5q-85 0 -131.5 35.5z" />
    <glyph glyph-name="uni2157" unicode="&#x2157;" horiz-adv-x="1033" 
d="M74 347q-49 37 -49 98h130q0 -17 13.5 -26t34.5 -9q22 0 34.5 8.5t12.5 26.5q0 35 -50 35h-72v70l76 49v6h-145v95h295v-83l-97 -59v-6h8q53 0 86.5 -30t33.5 -77q0 -66 -48.5 -100.5t-133.5 -34.5q-80 0 -129 37zM348 0h-148l480 700h148zM694.5 25.5
q-46.5 35.5 -46.5 100.5h130q0 -15 13.5 -25.5t33.5 -10.5t31.5 10.5t11.5 29.5t-11.5 29.5t-31.5 10.5t-36 -14h-127l34 224h281v-95h-185l-6 -47h6q27 17 75 17q61 0 98.5 -34t37.5 -90q0 -66 -47 -103.5t-130 -37.5q-85 0 -131.5 35.5z" />
    <glyph glyph-name="uni2158" unicode="&#x2158;" horiz-adv-x="1083" 
d="M345 485h55v-100h-55v-65h-135v65h-195v105l167 210h163v-215zM214 592l-79 -101v-6h85v107h-6zM398 0h-148l480 700h148zM744.5 25.5q-46.5 35.5 -46.5 100.5h130q0 -15 13.5 -25.5t33.5 -10.5t31.5 10.5t11.5 29.5t-11.5 29.5t-31.5 10.5t-36 -14h-127l34 224h281v-95
h-185l-6 -47h6q27 17 75 17q61 0 98.5 -34t37.5 -90q0 -66 -47 -103.5t-130 -37.5q-85 0 -131.5 35.5z" />
    <glyph glyph-name="uni2159" unicode="&#x2159;" horiz-adv-x="973" 
d="M255 700v-270h90v-110h-320v110h100v134l-85 -52v118l113 70h102zM333 0h-148l480 700h148zM651.5 30q-48.5 40 -48.5 108q0 37 13.5 72t43.5 75l71 95h128l-87 -113h6q15 4 35 4q63 0 104 -36.5t41 -95.5q0 -69 -47.5 -109t-128.5 -40q-82 0 -130.5 40zM823 98
q15 13 15 35t-15 35t-40 13t-40 -13t-15 -35t15 -35t40 -13t40 13z" />
    <glyph glyph-name="uni215A" unicode="&#x215a;" horiz-adv-x="993" 
d="M76.5 345.5q-46.5 35.5 -46.5 100.5h130q0 -15 13.5 -25.5t33.5 -10.5t31.5 10.5t11.5 29.5t-11.5 29.5t-31.5 10.5t-36 -14h-127l34 224h281v-95h-185l-6 -47h6q27 17 75 17q61 0 98.5 -34t37.5 -90q0 -66 -47 -103.5t-130 -37.5q-85 0 -131.5 35.5zM353 0h-148l480 700
h148zM671.5 30q-48.5 40 -48.5 108q0 37 13.5 72t43.5 75l71 95h128l-87 -113h6q15 4 35 4q63 0 104 -36.5t41 -95.5q0 -69 -47.5 -109t-128.5 -40q-82 0 -130.5 40zM843 98q15 13 15 35t-15 35t-40 13t-40 -13t-15 -35t15 -35t40 -13t40 13z" />
    <glyph glyph-name="oneeighth" unicode="&#x215b;" horiz-adv-x="1003" 
d="M255 700v-270h90v-110h-320v110h100v134l-85 -52v118l113 70h102zM333 0h-148l480 700h148zM670 20q-47 30 -47 87q0 33 20.5 56.5t54.5 32.5v6q-62 23 -62 83q0 47 46 76t121 29t121 -29t46 -76q0 -60 -62 -83v-6q34 -9 54.5 -32.5t20.5 -56.5q0 -57 -47 -87t-133 -30
t-133 30zM841 239.5q14 9.5 14 25.5q0 17 -13.5 26t-38.5 9t-38.5 -9t-13.5 -26q0 -16 14 -25.5t38 -9.5t38 9.5zM847 90.5q16 10.5 16 29.5t-16 29.5t-44 10.5t-44 -10.5t-16 -29.5t16 -29.5t44 -10.5t44 10.5z" />
    <glyph glyph-name="threeeighths" unicode="&#x215c;" horiz-adv-x="1018" 
d="M74 347q-49 37 -49 98h130q0 -17 13.5 -26t34.5 -9q22 0 34.5 8.5t12.5 26.5q0 35 -50 35h-72v70l76 49v6h-145v95h295v-83l-97 -59v-6h8q53 0 86.5 -30t33.5 -77q0 -66 -48.5 -100.5t-133.5 -34.5q-80 0 -129 37zM348 0h-148l480 700h148zM685 20q-47 30 -47 87
q0 33 20.5 56.5t54.5 32.5v6q-62 23 -62 83q0 47 46 76t121 29t121 -29t46 -76q0 -60 -62 -83v-6q34 -9 54.5 -32.5t20.5 -56.5q0 -57 -47 -87t-133 -30t-133 30zM856 239.5q14 9.5 14 25.5q0 17 -13.5 26t-38.5 9t-38.5 -9t-13.5 -26q0 -16 14 -25.5t38 -9.5t38 9.5z
M862 90.5q16 10.5 16 29.5t-16 29.5t-44 10.5t-44 -10.5t-16 -29.5t16 -29.5t44 -10.5t44 10.5z" />
    <glyph glyph-name="fiveeighths" unicode="&#x215d;" horiz-adv-x="1023" 
d="M76.5 345.5q-46.5 35.5 -46.5 100.5h130q0 -15 13.5 -25.5t33.5 -10.5t31.5 10.5t11.5 29.5t-11.5 29.5t-31.5 10.5t-36 -14h-127l34 224h281v-95h-185l-6 -47h6q27 17 75 17q61 0 98.5 -34t37.5 -90q0 -66 -47 -103.5t-130 -37.5q-85 0 -131.5 35.5zM353 0h-148l480 700
h148zM690 20q-47 30 -47 87q0 33 20.5 56.5t54.5 32.5v6q-62 23 -62 83q0 47 46 76t121 29t121 -29t46 -76q0 -60 -62 -83v-6q34 -9 54.5 -32.5t20.5 -56.5q0 -57 -47 -87t-133 -30t-133 30zM861 239.5q14 9.5 14 25.5q0 17 -13.5 26t-38.5 9t-38.5 -9t-13.5 -26
q0 -16 14 -25.5t38 -9.5t38 9.5zM867 90.5q16 10.5 16 29.5t-16 29.5t-44 10.5t-44 -10.5t-16 -29.5t16 -29.5t44 -10.5t44 10.5z" />
    <glyph glyph-name="seveneighths" unicode="&#x215e;" horiz-adv-x="938" 
d="M190 320h-130l149 269v6h-194v105h325v-96zM268 0h-148l480 700h148zM605 20q-47 30 -47 87q0 33 20.5 56.5t54.5 32.5v6q-62 23 -62 83q0 47 46 76t121 29t121 -29t46 -76q0 -60 -62 -83v-6q34 -9 54.5 -32.5t20.5 -56.5q0 -57 -47 -87t-133 -30t-133 30zM776 239.5
q14 9.5 14 25.5q0 17 -13.5 26t-38.5 9t-38.5 -9t-13.5 -26q0 -16 14 -25.5t38 -9.5t38 9.5zM782 90.5q16 10.5 16 29.5t-16 29.5t-44 10.5t-44 -10.5t-16 -29.5t16 -29.5t44 -10.5t44 10.5z" />
    <glyph glyph-name="uni215F" unicode="&#x215f;" horiz-adv-x="603" 
d="M255 700v-270h90v-110h-320v110h100v134l-85 -52v118l113 70h102zM333 0h-148l480 700h148z" />
    <glyph glyph-name="arrowleft" unicode="&#x2190;" horiz-adv-x="770" 
d="M400 158l-93 -93l-257 282v6l257 282l93 -93l-100 -111v-6h420v-150h-420v-6z" />
    <glyph glyph-name="arrowup" unicode="&#x2191;" 
d="M425 30h-150v400h-6l-111 -100l-93 93l282 257h6l282 -257l-93 -93l-111 100h-6v-400z" />
    <glyph glyph-name="arrowright" unicode="&#x2192;" horiz-adv-x="770" 
d="M720 347l-257 -282l-93 93l100 111v6h-420v150h420v6l-100 111l93 93l257 -282v-6z" />
    <glyph glyph-name="arrowdown" unicode="&#x2193;" 
d="M353 20h-6l-282 257l93 93l111 -100h6v410h150v-410h6l111 100l93 -93z" />
    <glyph glyph-name="arrowboth" unicode="&#x2194;" horiz-adv-x="980" 
d="M400 158l-93 -93l-257 282v6l257 282l93 -93l-100 -111v-6h380v6l-100 111l93 93l257 -282v-6l-257 -282l-93 93l100 111v6h-380v-6z" />
    <glyph glyph-name="arrowupdn" unicode="&#x2195;" 
d="M353 -50h-6l-282 257l93 93l111 -100h6v300h-6l-111 -100l-93 93l282 257h6l282 -257l-93 -93l-111 100h-6v-300h6l111 100l93 -93z" />
    <glyph glyph-name="uni2196" unicode="&#x2196;" 
d="M630 181l-106 -106l-290 290l-4 -4v-151h-130v391l4 4h391v-130h-151l-4 -4z" />
    <glyph glyph-name="uni2197" unicode="&#x2197;" 
d="M466 365l-290 -290l-106 106l290 290l-4 4h-151v130h391l4 -4v-391h-130v151z" />
    <glyph glyph-name="uni2198" unicode="&#x2198;" 
d="M596 75h-391v130h151l4 4l-290 290l106 106l290 -290l4 4v151h130v-391z" />
    <glyph glyph-name="uni2199" unicode="&#x2199;" 
d="M495 75h-391l-4 4v391h130v-151l4 -4l290 290l106 -106l-290 -290l4 -4h151v-130z" />
    <glyph glyph-name="minus" unicode="&#x2212;" 
d="M600 290h-500v135h500v-135z" />
    <glyph glyph-name="approxequal" unicode="&#x2248;" 
d="M389 406q-31 12 -66 34q-24 14 -37.5 20t-26.5 6q-34 0 -34 -40v-22h-125v36q0 72 36 111.5t104 39.5q40 0 71 -12t66 -34q24 -14 37.5 -20t26.5 -6q34 0 34 40v22h125v-36q0 -72 -36 -111.5t-104 -39.5q-40 0 -71 12zM389 165q-31 12 -66 34q-24 14 -37.5 20t-26.5 6
q-34 0 -34 -40v-22h-125v36q0 72 36 111.5t104 39.5q40 0 71 -12t66 -34q24 -14 37.5 -20t26.5 -6q34 0 34 40v22h125v-36q0 -72 -36 -111.5t-104 -39.5q-40 0 -71 12z" />
    <glyph glyph-name="notequal" unicode="&#x2260;" 
d="M600 542v-135h-160l-41 -70h201v-135h-280l-52 -90h-138l52 90h-82v135h161l40 70h-201v135h280l52 90h139l-52 -90h81z" />
    <glyph glyph-name="lessequal" unicode="&#x2264;" 
d="M585 378v-138l-460 138v164l460 138v-138l-288 -79v-6zM585 190v-125h-460v125h460z" />
    <glyph glyph-name="greaterequal" unicode="&#x2265;" 
d="M575 378l-460 -138v138l288 79v6l-288 79v138l460 -138v-164zM575 65h-460v125h460v-125z" />
    <glyph glyph-name="uni2460" unicode="&#x2460;" horiz-adv-x="1060" 
d="M778.5 751.5q107.5 -58.5 167 -163t59.5 -238.5t-59.5 -238.5t-167 -163t-248.5 -58.5t-248.5 58.5t-167 163t-59.5 238.5t59.5 238.5t167 163t248.5 58.5t248.5 -58.5zM707 60.5q76 40.5 117 115.5t41 174t-41 174t-117 115.5t-177 40.5t-177 -40.5t-117 -115.5
t-41 -174t41 -174t117 -115.5t177 -40.5t177 40.5zM511 540h102v-270h90v-110h-320v110h100v134l-85 -52v118z" />
    <glyph glyph-name="uni2461" unicode="&#x2461;" horiz-adv-x="1060" 
d="M778.5 751.5q107.5 -58.5 167 -163t59.5 -238.5t-59.5 -238.5t-167 -163t-248.5 -58.5t-248.5 58.5t-167 163t-59.5 238.5t59.5 238.5t167 163t248.5 58.5t248.5 -58.5zM707 60.5q76 40.5 117 115.5t41 174t-41 174t-117 115.5t-177 40.5t-177 -40.5t-117 -115.5
t-41 -174t41 -174t117 -115.5t177 -40.5t177 40.5zM690.5 361q-19.5 -26 -47 -39t-69.5 -26q-31 -10 -47.5 -17.5t-24.5 -18.5h210v-100h-365v42q0 53 23 85.5t54.5 49t78.5 31.5q37 12 54.5 22t17.5 26q0 29 -39 29q-21 0 -35 -10.5t-14 -27.5h-130q0 66 50.5 104.5
t137.5 38.5q78 0 121.5 -34.5t43.5 -86.5q0 -42 -19.5 -68z" />
    <glyph glyph-name="uni2462" unicode="&#x2462;" horiz-adv-x="1060" 
d="M281.5 -51.5q-107.5 58.5 -167 163t-59.5 238.5t59.5 238.5t167 163t248.5 58.5t248.5 -58.5t167 -163t59.5 -238.5t-59.5 -238.5t-167 -163t-248.5 -58.5t-248.5 58.5zM707 60.5q76 40.5 117 115.5t41 174t-41 174t-117 115.5t-177 40.5t-177 -40.5t-117 -115.5
t-41 -174t41 -174t117 -115.5t177 -40.5t177 40.5zM398 187q-49 37 -49 98h130q0 -17 13.5 -26t34.5 -9q22 0 34.5 8.5t12.5 26.5q0 35 -50 35h-72v70l76 49v6h-145v95h295v-83l-97 -59v-6h8q53 0 86.5 -30t33.5 -77q0 -66 -48.5 -100.5t-133.5 -34.5q-80 0 -129 37z" />
    <glyph glyph-name="uni2463" unicode="&#x2463;" horiz-adv-x="1060" 
d="M778.5 751.5q107.5 -58.5 167 -163t59.5 -238.5t-59.5 -238.5t-167 -163t-248.5 -58.5t-248.5 58.5t-167 163t-59.5 238.5t59.5 238.5t167 163t248.5 58.5t248.5 -58.5zM707 60.5q76 40.5 117 115.5t41 174t-41 174t-117 115.5t-177 40.5t-177 -40.5t-117 -115.5
t-41 -174t41 -174t117 -115.5t177 -40.5t177 40.5zM491 540h163v-215h55v-100h-55v-65h-135v65h-195v105zM523 432l-79 -101v-6h85v107h-6z" />
    <glyph glyph-name="uni2464" unicode="&#x2464;" horiz-adv-x="1060" 
d="M281.5 -51.5q-107.5 58.5 -167 163t-59.5 238.5t59.5 238.5t167 163t248.5 58.5t248.5 -58.5t167 -163t59.5 -238.5t-59.5 -238.5t-167 -163t-248.5 -58.5t-248.5 58.5zM707 60.5q76 40.5 117 115.5t41 174t-41 174t-117 115.5t-177 40.5t-177 -40.5t-117 -115.5
t-41 -174t41 -174t117 -115.5t177 -40.5t177 40.5zM400.5 185.5q-46.5 35.5 -46.5 100.5h130q0 -15 13.5 -25.5t33.5 -10.5t31.5 10.5t11.5 29.5t-11.5 29.5t-31.5 10.5t-36 -14h-127l34 224h281v-95h-185l-6 -47h6q27 17 75 17q61 0 98.5 -34t37.5 -90q0 -66 -47 -103.5
t-130 -37.5q-85 0 -131.5 35.5z" />
    <glyph glyph-name="uni2465" unicode="&#x2465;" horiz-adv-x="1060" 
d="M281.5 -51.5q-107.5 58.5 -167 163t-59.5 238.5t59.5 238.5t167 163t248.5 58.5t248.5 -58.5t167 -163t59.5 -238.5t-59.5 -238.5t-167 -163t-248.5 -58.5t-248.5 58.5zM707 60.5q76 40.5 117 115.5t41 174t-41 174t-117 115.5t-177 40.5t-177 -40.5t-117 -115.5
t-41 -174t41 -174t117 -115.5t177 -40.5t177 40.5zM399.5 190q-48.5 40 -48.5 108q0 37 13.5 72t43.5 75l71 95h128l-87 -113h6q15 4 35 4q63 0 104 -36.5t41 -95.5q0 -69 -47.5 -109t-128.5 -40q-82 0 -130.5 40zM571 258q15 13 15 35t-15 35t-40 13t-40 -13t-15 -35
t15 -35t40 -13t40 13z" />
    <glyph glyph-name="uni2466" unicode="&#x2466;" horiz-adv-x="1060" 
d="M281.5 -51.5q-107.5 58.5 -167 163t-59.5 238.5t59.5 238.5t167 163t248.5 58.5t248.5 -58.5t167 -163t59.5 -238.5t-59.5 -238.5t-167 -163t-248.5 -58.5t-248.5 58.5zM707 60.5q76 40.5 117 115.5t41 174t-41 174t-117 115.5t-177 40.5t-177 -40.5t-117 -115.5
t-41 -174t41 -174t117 -115.5t177 -40.5t177 40.5zM542 160h-130l149 269v6h-194v105h325v-96z" />
    <glyph glyph-name="uni2467" unicode="&#x2467;" horiz-adv-x="1060" 
d="M281.5 -51.5q-107.5 58.5 -167 163t-59.5 238.5t59.5 238.5t167 163t248.5 58.5t248.5 -58.5t167 -163t59.5 -238.5t-59.5 -238.5t-167 -163t-248.5 -58.5t-248.5 58.5zM707 60.5q76 40.5 117 115.5t41 174t-41 174t-117 115.5t-177 40.5t-177 -40.5t-117 -115.5
t-41 -174t41 -174t117 -115.5t177 -40.5t177 40.5zM397 180q-47 30 -47 87q0 33 20.5 56.5t54.5 32.5v6q-62 23 -62 83q0 47 46 76t121 29t121 -29t46 -76q0 -60 -62 -83v-6q34 -9 54.5 -32.5t20.5 -56.5q0 -57 -47 -87t-133 -30t-133 30zM568 399.5q14 9.5 14 25.5
q0 17 -13.5 26t-38.5 9t-38.5 -9t-13.5 -26q0 -16 14 -25.5t38 -9.5t38 9.5zM574 250.5q16 10.5 16 29.5t-16 29.5t-44 10.5t-44 -10.5t-16 -29.5t16 -29.5t44 -10.5t44 10.5z" />
    <glyph glyph-name="uni2468" unicode="&#x2468;" horiz-adv-x="1060" 
d="M281.5 -51.5q-107.5 58.5 -167 163t-59.5 238.5t59.5 238.5t167 163t248.5 58.5t248.5 -58.5t167 -163t59.5 -238.5t-59.5 -238.5t-167 -163t-248.5 -58.5t-248.5 58.5zM707 60.5q76 40.5 117 115.5t41 174t-41 174t-117 115.5t-177 40.5t-177 -40.5t-117 -115.5
t-41 -174t41 -174t117 -115.5t177 -40.5t177 40.5zM453 160l87 113h-6q-15 -4 -35 -4q-63 0 -104 36.5t-41 95.5q0 69 47.5 109t128.5 40q82 0 130.5 -40t48.5 -108q0 -37 -13.5 -72t-43.5 -75l-71 -95h-128zM569 372q15 13 15 35t-15 35t-40 13t-40 -13t-15 -35t15 -35
t40 -13t40 13z" />
    <glyph glyph-name="uni24EA" unicode="&#x24ea;" horiz-adv-x="1060" 
d="M281.5 -51.5q-107.5 58.5 -167 163t-59.5 238.5t59.5 238.5t167 163t248.5 58.5t248.5 -58.5t167 -163t59.5 -238.5t-59.5 -238.5t-167 -163t-248.5 -58.5t-248.5 58.5zM707 60.5q76 40.5 117 115.5t41 174t-41 174t-117 115.5t-177 40.5t-177 -40.5t-117 -115.5
t-41 -174t41 -174t117 -115.5t177 -40.5t177 40.5zM388 204q-53 54 -53 146t53 146t142 54t142 -54t53 -146t-53 -146t-142 -54t-142 54zM574.5 283q15.5 23 15.5 67t-15.5 67t-44.5 23t-44.5 -23t-15.5 -67t15.5 -67t44.5 -23t44.5 23z" />
    <glyph glyph-name="uni24FF" unicode="&#x24ff;" horiz-adv-x="1060" 
d="M281.5 -51.5q-107.5 58.5 -167 163t-59.5 238.5t59.5 238.5t167 163t248.5 58.5t248.5 -58.5t167 -163t59.5 -238.5t-59.5 -238.5t-167 -163t-248.5 -58.5t-248.5 58.5zM672 204q53 54 53 146t-53 146t-142 54t-142 -54t-53 -146t53 -146t142 -54t142 54zM485.5 283
q-15.5 23 -15.5 67t15.5 67t44.5 23t44.5 -23t15.5 -67t-15.5 -67t-44.5 -23t-44.5 23z" />
    <glyph glyph-name="uni2776" unicode="&#x2776;" horiz-adv-x="1060" 
d="M281.5 -51.5q-107.5 58.5 -167 163t-59.5 238.5t59.5 238.5t167 163t248.5 58.5t248.5 -58.5t167 -163t59.5 -238.5t-59.5 -238.5t-167 -163t-248.5 -58.5t-248.5 58.5zM383 270v-110h320v110h-90v270h-102l-113 -70v-118l85 52v-134h-100z" />
    <glyph glyph-name="uni2777" unicode="&#x2777;" horiz-adv-x="1060" 
d="M283 -52q-108 58 -168 162.5t-60 239.5t60 239.5t168 162.5t247 58t247 -58t168 -162.5t60 -239.5t-60 -239.5t-168 -162.5t-247 -58t-247 58zM347 160h365v100h-210q8 11 24.5 18.5t47.5 17.5q42 13 69.5 26t47 39t19.5 68q0 52 -43.5 86.5t-121.5 34.5
q-87 0 -137.5 -38.5t-50.5 -104.5h130q0 17 14 27.5t35 10.5q39 0 39 -29q0 -16 -17.5 -26t-54.5 -22q-47 -15 -78.5 -31.5t-54.5 -49t-23 -85.5v-42z" />
    <glyph glyph-name="uni2778" unicode="&#x2778;" horiz-adv-x="1060" 
d="M281.5 -51.5q-107.5 58.5 -167 163t-59.5 238.5t59.5 238.5t167 163t248.5 58.5t248.5 -58.5t167 -163t59.5 -238.5t-59.5 -238.5t-167 -163t-248.5 -58.5t-248.5 58.5zM660.5 184.5q48.5 34.5 48.5 100.5q0 47 -33.5 77t-86.5 30h-8v6l97 59v83h-295v-95h145v-6l-76 -49
v-70h72q50 0 50 -35q0 -18 -12.5 -26.5t-34.5 -8.5q-21 0 -34.5 9t-13.5 26h-130q0 -61 49 -98t129 -37q85 0 133.5 34.5z" />
    <glyph glyph-name="uni2779" unicode="&#x2779;" horiz-adv-x="1060" 
d="M281.5 -51.5q-107.5 58.5 -167 163t-59.5 238.5t59.5 238.5t167 163t248.5 58.5t248.5 -58.5t167 -163t59.5 -238.5t-59.5 -238.5t-167 -163t-248.5 -58.5t-248.5 58.5zM519 225v-65h135v65h55v100h-55v215h-163l-167 -210v-105h195zM529 325h-85v6l79 101h6v-107z" />
    <glyph glyph-name="uni277A" unicode="&#x277a;" horiz-adv-x="1060" 
d="M281.5 -51.5q-107.5 58.5 -167 163t-59.5 238.5t59.5 238.5t167 163t248.5 58.5t248.5 -58.5t167 -163t59.5 -238.5t-59.5 -238.5t-167 -163t-248.5 -58.5t-248.5 58.5zM662 187.5q47 37.5 47 103.5q0 56 -37.5 90t-98.5 34q-48 0 -75 -17h-6l6 47h185v95h-281l-34 -224
h127q16 14 36 14t31.5 -10.5t11.5 -29.5t-11.5 -29.5t-31.5 -10.5t-33.5 10.5t-13.5 25.5h-130q0 -65 46.5 -100.5t131.5 -35.5q83 0 130 37.5z" />
    <glyph glyph-name="uni277B" unicode="&#x277b;" horiz-adv-x="1060" 
d="M281.5 -51.5q-107.5 58.5 -167 163t-59.5 238.5t59.5 238.5t167 163t248.5 58.5t248.5 -58.5t167 -163t59.5 -238.5t-59.5 -238.5t-167 -163t-248.5 -58.5t-248.5 58.5zM658.5 190q47.5 40 47.5 109q0 59 -41 95.5t-104 36.5q-20 0 -35 -4h-6l87 113h-128l-71 -95
q-30 -40 -43.5 -75t-13.5 -72q0 -68 48.5 -108t130.5 -40q81 0 128.5 40zM491 258q-15 13 -15 35t15 35t40 13t40 -13t15 -35t-15 -35t-40 -13t-40 13z" />
    <glyph glyph-name="uni277C" unicode="&#x277c;" horiz-adv-x="1060" 
d="M281.5 -51.5q-107.5 58.5 -167 163t-59.5 238.5t59.5 238.5t167 163t248.5 58.5t248.5 -58.5t167 -163t59.5 -238.5t-59.5 -238.5t-167 -163t-248.5 -58.5t-248.5 58.5zM561 429l-149 -269h130l150 284v96h-325v-105h194v-6z" />
    <glyph glyph-name="uni277D" unicode="&#x277d;" horiz-adv-x="1060" 
d="M281.5 -51.5q-107.5 58.5 -167 163t-59.5 238.5t59.5 238.5t167 163t248.5 58.5t248.5 -58.5t167 -163t59.5 -238.5t-59.5 -238.5t-167 -163t-248.5 -58.5t-248.5 58.5zM663 180q47 30 47 87q0 33 -20.5 56.5t-54.5 32.5v6q62 23 62 83q0 47 -46 76t-121 29t-121 -29
t-46 -76q0 -60 62 -83v-6q-34 -9 -54.5 -32.5t-20.5 -56.5q0 -57 47 -87t133 -30t133 30zM492 399.5q-14 9.5 -14 25.5q0 17 13.5 26t38.5 9t38.5 -9t13.5 -26q0 -16 -14 -25.5t-38 -9.5t-38 9.5zM486 250.5q-16 10.5 -16 29.5t16 29.5t44 10.5t44 -10.5t16 -29.5t-16 -29.5
t-44 -10.5t-44 10.5z" />
    <glyph glyph-name="uni277E" unicode="&#x277e;" horiz-adv-x="1060" 
d="M281.5 -51.5q-107.5 58.5 -167 163t-59.5 238.5t59.5 238.5t167 163t248.5 58.5t248.5 -58.5t167 -163t59.5 -238.5t-59.5 -238.5t-167 -163t-248.5 -58.5t-248.5 58.5zM453 160h128l71 95q30 40 43.5 75t13.5 72q0 68 -48.5 108t-130.5 40q-81 0 -128.5 -40t-47.5 -109
q0 -59 41 -95.5t104 -36.5q20 0 35 4h6zM489 372q-15 13 -15 35t15 35t40 13t40 -13t15 -35t-15 -35t-40 -13t-40 13z" />
    <glyph glyph-name="uniE900" unicode="&#xe900;" horiz-adv-x="895" 
d="M261 21q-98 36 -149.5 105t-51.5 166v408h220v-390q0 -150 215 -150q72 0 103.5 15t31.5 47t-28.5 49t-88.5 36q-64 21 -104 41t-69.5 60.5t-29.5 105.5q0 97 70 149t196 52q87 0 150 -30t96 -81t33 -114h-220q0 28 -16 44t-44 16q-45 0 -45 -29q0 -17 20.5 -28t72.5 -30
q69 -24 117 -48.5t84 -73t36 -124.5q0 -119 -95.5 -175.5t-269.5 -56.5q-136 0 -234 36z" />
    <glyph glyph-name="uni0498.loclBSH" unicode="&#xf50a;" horiz-adv-x="730" 
d="M407 -14q55 -46 55 -111q0 -56 -31 -85.5t-97 -29.5q-36 0 -62 14v84q19 -8 41 -8q49 0 49 47q0 22 -14.5 45.5t-41.5 44.5q-142 9 -209 65.5t-67 162.5h230q0 -29 27 -44.5t76 -15.5q52 0 77 16t25 49t-23.5 49.5t-78.5 16.5h-68v140h68q79 0 79 60q0 28 -19.5 43.5
t-59.5 15.5q-42 0 -68.5 -16.5t-26.5 -43.5h-230q0 106 86.5 168t245.5 62q146 0 224 -51t78 -143q0 -55 -30.5 -93t-86.5 -58v-6q64 -14 102 -59.5t38 -108.5q0 -197 -288 -210z" />
    <glyph glyph-name="uni0499.loclBSH" unicode="&#xf50b;" horiz-adv-x="630" 
d="M537 27.5q-58 -38.5 -165 -45.5q50 -45 50 -107q0 -56 -31 -85.5t-97 -29.5q-36 0 -62 14v84q19 -8 41 -8q49 0 49 47q0 21 -12.5 43t-36.5 42q-243 15 -243 188h200q0 -21 20 -33t60 -12q41 0 60.5 11t19.5 31t-18.5 29t-61.5 9h-45v110h45q35 0 49.5 7.5t14.5 24.5
t-16 27.5t-48 10.5q-36 0 -55 -14t-19 -31h-200q0 88 73 139t213 51q118 0 187.5 -39t69.5 -110q0 -45 -26.5 -73t-73.5 -41v-6q56 -10 86 -43t30 -83q0 -69 -58 -107.5z" />
    <glyph glyph-name="uni04AA.loclCHU" unicode="&#xf50c;" horiz-adv-x="805" 
d="M775 260q-15 -117 -99 -190.5t-223 -83.5l-18 -23q47 -5 72 -29t25 -64q0 -50 -36 -80t-100 -30q-46 0 -84 14v84q32 -8 66 -8q54 0 54 27q0 12 -10.5 17.5t-34.5 5.5h-37v49l28 37q-104 7 -181.5 54.5t-119.5 127.5t-42 182q0 108 47 191t133 128.5t200 45.5
q102 0 179.5 -35t123 -98.5t55.5 -146.5h-229q-10 44 -44.5 69.5t-84.5 25.5q-67 0 -106 -48t-39 -132t39 -132t106 -48q50 0 84.5 23.5t45.5 66.5h230z" />
    <glyph glyph-name="uni04AB.loclCHU" unicode="&#xf50d;" horiz-adv-x="660" 
d="M630 208q0 -62 -33 -112t-92.5 -80t-135.5 -35l-14 -18q47 -5 72 -29t25 -64q0 -50 -36 -80t-100 -30q-46 0 -84 14v84q32 -8 66 -8q54 0 54 27q0 12 -10.5 17.5t-34.5 5.5h-37v49l25 33q-76 9 -135 44t-92 93.5t-33 135.5q0 84 39.5 146.5t109 95.5t156.5 33
q83 0 148 -28t101 -78.5t36 -115.5h-202q-9 29 -30 43t-58 14q-44 0 -72 -28t-28 -82t28 -82t72 -28q78 0 93 63h202z" />
    <glyph glyph-name="uniF51A" unicode="&#xf51a;" horiz-adv-x="850" 
d="M220.5 30.5q-88.5 45.5 -137 128.5t-48.5 191t48.5 191t137 128.5t204.5 45.5t204.5 -45.5t137 -128.5t48.5 -191t-48.5 -191t-137 -128.5t-204.5 -45.5t-204.5 45.5zM538 218q42 48 42 132t-42 132t-113 48t-113 -48t-42 -132t42 -132t113 -48t113 48zM261 808.5
q-56 43.5 -56 126.5h125q0 -31 25.5 -48t69.5 -17t69.5 17t25.5 48h125q0 -83 -56 -126.5t-164 -43.5t-164 43.5z" />
    <glyph glyph-name="uniF51B" unicode="&#xf51b;" horiz-adv-x="670" 
d="M181 13q-68 33 -107 95.5t-39 146.5t39 146.5t107 95.5t154 33t154 -33t107 -95.5t39 -146.5t-39 -146.5t-107 -95.5t-154 -33t-154 33zM404.5 173.5q25.5 28.5 25.5 81.5t-25.5 81.5t-69.5 28.5t-69.5 -28.5t-25.5 -81.5t25.5 -81.5t69.5 -28.5t69.5 28.5zM171 623.5
q-56 43.5 -56 126.5h125q0 -34 24.5 -52t70.5 -18t70.5 18t24.5 52h125q0 -83 -56 -126.5t-164 -43.5t-164 43.5z" />
    <glyph glyph-name="uniF524" unicode="&#xf524;" horiz-adv-x="805" 
d="M593.5 669.5q84.5 -45.5 130.5 -128.5t46 -191t-46 -191t-130.5 -128.5t-195.5 -45.5q-105 0 -185 34.5t-126.5 96.5t-56.5 144h230q11 -43 47.5 -66.5t90.5 -23.5q49 0 82 28.5t47 81.5h-195v150h192q-14 48 -47 74t-79 26q-53 0 -90 -25.5t-47 -69.5h-229
q10 83 56.5 146.5t125.5 98.5t184 35q111 0 195.5 -45.5zM237 808.5q-56 43.5 -56 126.5h125q0 -31 25.5 -48t69.5 -17t69.5 17t25.5 48h125q0 -83 -56 -126.5t-164 -43.5t-164 43.5z" />
    <glyph glyph-name="uniF525" unicode="&#xf525;" horiz-adv-x="660" 
d="M481 497q68 -33 106 -95.5t38 -146.5t-38 -146.5t-106 -95.5t-156 -33q-83 0 -149 29t-105 81t-41 118h202q7 -33 34.5 -50.5t63.5 -17.5q71 0 91 60h-138v100h141q-17 70 -94 70q-34 0 -59 -15.5t-34 -46.5h-202q2 65 40 115.5t103 78.5t147 28q88 0 156 -33zM164 623.5
q-56 43.5 -56 126.5h125q0 -34 24.5 -52t70.5 -18t70.5 18t24.5 52h125q0 -83 -56 -126.5t-164 -43.5t-164 43.5z" />
    <glyph glyph-name="uniF536" unicode="&#xf536;" horiz-adv-x="1025" 
d="M360 500q157 0 236 -62t79 -188t-79 -188t-236 -62h-290v700h220v-200h70zM735 0v700h220v-700h-220zM357 180q88 0 88 70t-88 70h-67v-140h67zM348 808.5q-56 43.5 -56 126.5h125q0 -31 25.5 -48t69.5 -17t69.5 17t25.5 48h125q0 -83 -56 -126.5t-164 -43.5t-164 43.5z
" />
    <glyph glyph-name="uniF537" unicode="&#xf537;" horiz-adv-x="880" 
d="M329 365q226 0 226 -179q0 -92 -57.5 -139t-168.5 -47h-264v510h195v-145h69zM615 0v510h200v-510h-200zM293 135q28 0 42.5 13t14.5 38q0 23 -14.5 36t-42.5 13h-33v-100h33zM277 623.5q-56 43.5 -56 126.5h125q0 -34 24.5 -52t70.5 -18t70.5 18t24.5 52h125
q0 -83 -56 -126.5t-164 -43.5t-164 43.5z" />
    <glyph glyph-name="uni0492.loclBSH" unicode="&#xf53c;" horiz-adv-x="695" 
d="M670 700v-170h-380v-150h310v-160h-310v-220h-220v700h600z" />
    <glyph glyph-name="uni0493.loclBSH" unicode="&#xf53d;" horiz-adv-x="530" 
d="M520 510v-170h-255v-79h200v-135h-200v-126h-200v510h455z" />
    <glyph glyph-name="uni04AA.loclBSH" unicode="&#xf53e;" horiz-adv-x="805" 
d="M775 260q-14 -113 -94 -186t-212 -86q57 -47 57 -113q0 -56 -31 -85.5t-97 -29.5q-36 0 -62 14v84q19 -8 41 -8q49 0 49 47q0 22 -14.5 45.5t-41.5 44.5q-101 9 -177 56.5t-117 126.5t-41 180q0 108 47 191t133 128.5t200 45.5q102 0 179.5 -35t123 -98.5t55.5 -146.5
h-229q-10 44 -44.5 69.5t-84.5 25.5q-67 0 -106 -48t-39 -132t39 -132t106 -48q50 0 84.5 23.5t45.5 66.5h230z" />
    <glyph glyph-name="uni04AB.loclBSH" unicode="&#xf53f;" horiz-adv-x="660" 
d="M630 208q0 -61 -31 -109.5t-87.5 -79t-129.5 -37.5q50 -44 50 -107q0 -56 -31 -85.5t-97 -29.5q-36 0 -62 14v84q19 -8 41 -8q49 0 49 47q0 21 -13.5 44t-39.5 43q-110 17 -177 88.5t-67 182.5q0 84 39.5 146.5t109 95.5t156.5 33q83 0 148 -28t101 -78.5t36 -115.5h-202
q-9 29 -30 43t-58 14q-44 0 -72 -28t-28 -82t28 -82t72 -28q78 0 93 63h202z" />
    <glyph glyph-name="uniF8FF" unicode="&#xf8ff;" horiz-adv-x="1538" 
d="M206 230h-35v199h-71v31h178v-31h-72v-199zM867 230h-35v199h-71v31h178v-31h-72v-199zM438 169v224h24l9 -19q19 22 48 22q32 0 54.5 -25t22.5 -59q0 -36 -22.5 -60.5t-54.5 -24.5q-29 0 -47 21v-79h-34zM646 251.5q-23 24.5 -23 60.5q0 35 23 59.5t55 24.5t54 -24.5
t22 -58.5q0 -8 -1 -15h-119q2 -17 14.5 -28.5t29.5 -11.5q28 0 37 16h35q-9 -22 -28.5 -34.5t-43.5 -12.5q-32 0 -55 24.5zM1099 169v224h24l9 -19q19 22 48 22q32 0 54.5 -25t22.5 -59q0 -36 -22.5 -60.5t-54.5 -24.5q-29 0 -47 21v-79h-34zM1307 251.5q-23 24.5 -23 60.5
q0 35 23 59.5t55 24.5t54 -24.5t22 -58.5q0 -8 -1 -15h-119q2 -17 14.5 -28.5t29.5 -11.5q28 0 37 16h35q-9 -22 -28.5 -34.5t-43.5 -12.5q-32 0 -55 24.5zM278 170v28q23 0 31 20l6 16l-63 159h37l44 -116l44 116h37l-77 -190q-6 -15 -19 -24.5t-30 -9.5q-7 0 -10 1z
M939 170v28q23 0 31 20l6 16l-63 159h37l44 -116l44 116h37l-77 -190q-6 -15 -19 -24.5t-30 -9.5q-7 0 -10 1zM549 274q14 16 14 38t-14 37.5t-33 15.5t-33 -15.5t-14 -37.5t13.5 -38t33.5 -16q19 0 33 16zM745 325q-1 17 -14.5 28.5t-29.5 11.5t-29 -11t-15 -29h88z
M1210 274q14 16 14 38t-14 37.5t-33 15.5t-33 -15.5t-14 -37.5t13.5 -38t33.5 -16q19 0 33 16zM1406 325q-1 17 -14.5 28.5t-29.5 11.5t-29 -11t-15 -29h88z" />
    <glyph glyph-name="f_l" unicode="&#xfb02;" horiz-adv-x="775" 
d="M705 421v-421h-200v454q0 54 -24.5 82.5t-71.5 28.5q-35 0 -58.5 -14t-33.5 -41h108v-150h-110v-360h-200v360h-105v125l115 29q22 99 94 150t190 51q296 0 296 -294z" />
    <glyph glyph-name="f_f_l" unicode="&#xfb04;" horiz-adv-x="1165" 
d="M1095 421v-421h-200v454q0 54 -24.5 82.5t-71.5 28.5q-35 0 -58.5 -14t-33.5 -41h108v-150h-110v-360h-200v360h-190v-360h-200v360h-105v125l107 27q10 104 70 153.5t174 49.5q51 0 104 -11v-139q-32 5 -60 5q-80 0 -93 -60h202q21 100 93.5 152.5t191.5 52.5
q296 0 296 -294z" />
    <glyph glyph-name="Iacute_J.loclNLD" horiz-adv-x="1085" 
d="M300 0h-220v700h220v-700zM257 770h-138l72 175h194zM484.5 58.5q-79.5 73.5 -79.5 201.5v30h220v-30q0 -40 24 -65t69 -25t68.5 25t23.5 65v260h-275v180h495v-440q0 -128 -79.5 -201.5t-232.5 -73.5q-154 0 -233.5 73.5zM860 770h-138l72 175h194z" />
    <glyph glyph-name="i.loclTRK" horiz-adv-x="340" 
d="M270 0h-200v510h200v-510zM94.5 593q-29.5 28 -29.5 72t29.5 72t75.5 28t75.5 -28t29.5 -72t-29.5 -72t-75.5 -28t-75.5 28z" />
    <glyph glyph-name="iacute_j.loclNLD" horiz-adv-x="690" 
d="M270 0h-200v510h200v-510zM227 580h-125l79 190h181zM290 -205v160q22 -5 47 -5q42 0 62.5 21t20.5 69v470h200v-491q0 -113 -63 -173.5t-182 -60.5q-51 0 -85 10zM577 580h-125l79 190h181z" />
    <glyph glyph-name="c_h" horiz-adv-x="1410" 
d="M1296 468q54 -57 54 -158v-310h-200v239q0 45 -24.5 72t-66.5 27q-46 0 -72.5 -27t-26.5 -72v-239h-200v541q0 109 -84 109q-47 0 -71.5 -27.5t-24.5 -79.5q0 -36 6.5 -67.5t18.5 -71.5q20 -60 20 -96h-202q-9 29 -30 43t-58 14q-44 0 -72 -28t-28 -82t28 -82t72 -28
q78 0 93 63h202q0 -66 -37 -118t-103 -81t-150 -29q-87 0 -156.5 33t-109 95.5t-39.5 146.5t39.5 146.5t109 95.5t156.5 33q37 0 74 -8q-4 38 -4 58q0 72 36.5 125t101 81.5t147.5 28.5q131 0 198 -67t67 -198v-120h6q23 42 70 68.5t110 26.5q96 0 150 -57z" />
    <glyph glyph-name="c_k" horiz-adv-x="1345" 
d="M1355 0h-227l-168 239v-239h-200v541q0 53 -21 81t-63 28q-46 0 -71 -27.5t-25 -79.5q0 -36 6.5 -67.5t18.5 -71.5q20 -60 20 -96h-202q-9 29 -29.5 43t-54.5 14q-47 0 -75.5 -27.5t-28.5 -82.5q0 -54 28 -82t72 -28q78 0 93 63h202q0 -66 -37 -118t-103 -81t-150 -29
q-87 0 -156.5 33t-109 95.5t-39.5 146.5t39.5 146.5t109.5 95.5t158 33q39 0 72 -6q-4 24 -4 56q0 72 36.5 125t101 81.5t147.5 28.5q131 0 198 -67t67 -198v-270l156 230h209l-176 -240z" />
    <glyph glyph-name="c_k.ss02" horiz-adv-x="1360" 
d="M1187 268l168 -268h-226l-104 180h-65v-180h-200v541q0 53 -21 81t-63 28q-46 0 -71 -27.5t-25 -79.5q0 -36 6.5 -67.5t18.5 -71.5q20 -60 20 -96h-202q-9 29 -30 43t-58 14q-44 0 -72 -28t-28 -82t28 -82t72 -28q78 0 93 63h202q0 -66 -37 -118t-103 -81t-150 -29
q-87 0 -156.5 33t-109 95.5t-39.5 146.5t39.5 146.5t109 95.5t156.5 33q40 0 74 -6q-4 24 -4 56q0 72 36.5 125t101 81.5t147.5 28.5q131 0 198 -66.5t67 -197.5v-211h65l95 170h213z" />
    <glyph glyph-name="c_t" horiz-adv-x="1150" 
d="M1125 152v-150q-22 -10 -59.5 -16t-69.5 -6q-115 0 -170.5 52.5t-55.5 161.5v166h-95v125l95 24v31q0 53 -22.5 81.5t-67.5 28.5q-48 0 -74 -27t-26 -80q0 -36 6.5 -67.5t18.5 -71.5q20 -60 20 -96h-202q-9 29 -30 43t-58 14q-44 0 -72 -28t-28 -82t28 -82t72 -28
q78 0 93 63h202q0 -66 -37 -118t-103 -81t-150 -29q-87 0 -156.5 33t-109 95.5t-39.5 146.5t39.5 146.5t109 95.5t156.5 33q40 0 74 -6q-4 24 -4 56q0 72 36 125t101 81.5t150 28.5q134 0 203.5 -68t69.5 -198v-39h140v-150h-140v-119q0 -49 21.5 -72.5t65.5 -23.5
q43 0 68 7z" />
    <glyph glyph-name="f_f_l.ss06" horiz-adv-x="1205" 
d="M1205 150v-150q-22 -9 -52 -14.5t-56 -5.5q-99 0 -150.5 58t-51.5 170v276q0 40 -25.5 63t-69.5 23q-39 0 -64 -15.5t-33 -44.5h112v-150h-110v-360h-200v360h-190v-360h-200v360h-105v125l107 27q10 104 70 153.5t174 49.5q51 0 104 -11v-139q-32 5 -60 5q-80 0 -93 -60
h196q15 98 89.5 154t202.5 56q146 0 220.5 -68.5t74.5 -191.5v-231q0 -44 16.5 -64t52.5 -20q18 0 41 5z" />
    </font>
</defs>
</svg>
