<svg width="1680" height="682" viewBox="0 0 1680 682" fill="none" xmlns="http://www.w3.org/2000/svg">
<rect x="-5" y="426" width="1685" height="256" fill="white"/>
<path d="M-5 112.506L-3.68521 111.061C10.629 106.191 24.7685 101.29 37.7679 95.6443C53.4973 92.8975 69.0564 89.91 84.4539 86.6817C105.98 84.7302 127.541 82.8438 149.141 81.0244C166.133 81.4487 183.155 81.496 200.217 81.1625C270.722 84.9591 336.955 101.381 395.435 119.039C412.449 125.172 426.501 130.214 446.559 133.912C496.508 141.313 543.281 150.45 588.565 162.838C608.776 168.367 613.979 170.737 617.749 181.467C624.371 200.312 618.369 218.776 599.756 235.896C595.104 242.867 589.124 249.892 581.135 256.439C575.784 261.228 574.461 265.751 575.479 271.099C577.628 282.384 581.568 292.986 590.675 303.525C593.811 307.156 597.087 310.295 603.561 312.715C611.288 317.815 618.631 322.977 625.589 328.199C627.651 335.223 629.87 342.26 632.251 349.307C628.782 358.638 624.244 368.009 618.648 377.42C616.967 382.576 614.42 387.562 611 392.373C600.206 399.733 584.106 407.528 569.092 413.291C555.534 418.495 537.66 413.793 527.949 408.445L516.929 401.31C495.621 392.422 483.378 380.677 475.961 367.946C472.759 364.507 469.819 361.024 467.141 357.496C467.705 354.765 466.783 352.067 464.385 349.403C460.183 345.737 458.676 342.108 459.864 338.517C457.064 337.931 455.902 336.698 455.024 335.439C453.334 326.304 445.218 318.597 433.778 310.966C432.778 308.048 430.734 305.194 427.641 302.406C427.278 296.394 423.063 292.376 414.842 287.694C410.387 284.165 408.967 281.397 408.072 277.46L404.678 275.339C397.995 263.19 383.283 252.061 362.246 243.534L330.971 227.156C320.073 220.423 308.833 217.56 292.431 215.52C276.344 210.15 259.701 207.455 239.857 205.894C206.389 200.645 161.498 198.684 127.654 204.191C117.249 205.884 98.9778 216.52 92.085 220.84C93.3954 223.432 94.1685 226.075 94.4 228.766C89.4554 235.073 86.2361 241.583 84.7466 248.292C82.9862 255.687 68.5192 262.959 56.1706 267.452C44.4685 271.71 33.0198 269.954 19.7364 267.858C17.3078 267.476 0.931853 264.458 0.219856 264.101C-0.260633 263.861 -0.56203 263.596 -0.614447 263.263C-2.49709 263.496 -3.95166 262.838 -5 261.289V236.032C-4.79907 235.763 -4.57193 235.505 -4.24432 235.272C-2.40099 233.96 9.51076 232.646 13.5207 232.407C16.8972 208.493 53.5323 191.243 97.9993 181.323L100.708 181.52C111.89 178.201 123.749 176.104 136.277 175.224C140.151 173.479 145.284 172.966 151.683 173.685C169.217 172.057 188.497 170.922 206.463 171.161L217.641 172.447C224.412 171.958 230.675 172.191 236.437 173.146C238.363 171.777 240.805 171.909 243.767 173.543C246.117 172.939 248.405 172.86 250.642 173.308C256.709 175.67 263.279 176.982 270.351 177.244C274.435 175.865 276.955 176.313 278.488 178.49C282.52 179.391 286.984 179.938 291.89 180.129L296.288 181.183C300.687 180.65 304.286 180.875 307.078 181.856C313.481 185.686 319.042 186.773 329.586 186.361C331.683 187.415 334.295 188.277 337.409 188.95C338.602 191.531 341.284 191.742 345.464 189.585C350.837 190.323 355.454 191.957 359.311 194.483C364.286 194.881 369.441 194.984 374.778 194.791C379.963 196.924 386.087 198.412 393.151 199.256C394.609 200.618 396.737 201.551 399.532 202.056C437.565 218.594 468.797 239.236 489.152 261.1C489.2 263.829 492.795 266.444 493.778 262.02C495.56 255.476 498.413 248.974 502.331 242.514C505.104 238.609 504.13 235.446 499.404 233.024C496.277 228.401 493.747 223.695 491.817 218.904C486.715 215.49 484.505 213.262 482.329 209.071C481.185 201.135 474.358 195.252 465.211 188.751L462.817 185.895C462.638 183.425 460.803 181.67 457.313 180.634C436.504 178.647 421.137 172.363 406.569 165.346C393.351 158.098 379.085 151.474 363.771 145.473C335.793 138.241 307.401 131.246 278.585 124.485C256.373 120.859 234.122 117.267 211.832 113.713C194.468 111.13 152.356 105.753 135.486 107.241C128.742 108.646 122.15 109.096 115.712 108.587C112.397 110.416 107.199 110.923 100.113 110.11C96.8549 110.781 93.8453 110.927 91.0847 110.55C89.5078 111.515 87.2539 111.928 84.3229 111.791C53.6153 115.695 25.8168 123.665 0.215488 131.919C-1.82004 132.625 -3.55853 132.866 -5 132.633V112.506Z" fill="#FF8602"/>
<path d="M1191.42 0C1192.82 0.789812 1192.85 1.97848 1191.48 3.566C1189.37 15.3421 1196.22 22.2135 1207.61 32.483C1209.35 38.454 1206.79 44.4171 1199.93 50.3723C1185.02 64.7172 1170.78 79.0326 1159.22 94.116C1155.86 97.7689 1152.29 101.404 1147.91 104.836C1136.77 113.567 1126.34 116.638 1105.74 119.793C1099.43 120.82 1095.12 122.61 1090.57 124.686C1073.96 127.651 1058.9 131.462 1045.39 136.116C1038.41 140.903 1030.7 145.452 1022.27 149.764C1020.92 152.003 1018.5 153.846 1015 155.289C1008.87 162.143 1002.24 168.935 995.097 175.664C987.594 182.462 977.637 191.249 962.244 194.622C954.239 199.033 945.081 202.613 934.77 205.363C934.513 205.48 934.321 205.989 934.57 206.163C936.923 207.827 968.571 213.751 974.633 214.462C987.581 215.98 992.817 215.729 1001.02 211.336C1010.68 206.165 1012.39 202.492 1012.82 195.629C1017.71 193.828 1016.64 190.985 1014.33 188.631C1017.79 185.75 1018.25 182.974 1018.4 179.728C1024.5 171.948 1031.33 164.236 1038.92 156.588L1044.22 153.792C1059.65 139.603 1094.03 132.298 1124.35 126.056C1130.99 125.46 1167.5 118.794 1170.5 115.935C1170.9 115.55 1171.24 112.005 1171.25 111.217C1166.13 92.7773 1183.05 75.8931 1204.48 60.6438C1213.45 54.2601 1222.46 48.3839 1238.1 45.511C1242.01 44.4408 1240.87 41.5915 1239.54 39.9132L1228.69 30.8994C1227.06 29.6594 1227.15 28.5695 1228.03 27.2781C1225.48 25.3905 1223.04 23.4673 1220.72 21.5066L1221.94 18.7265C1216.24 13.4051 1217.55 9.19737 1221.11 3.61932C1220.26 1.86791 1220.85 0.661468 1222.87 0H1261.3C1262.85 0.568665 1263.66 1.31109 1264.28 2.14434C1273.37 14.3924 1282.34 25.9453 1294.76 37.4351C1300.31 44.3144 1300.16 48.4886 1294.39 55.2099C1291.15 58.9852 1284.43 66.133 1278.72 69.1007C1247.65 81.7574 1233.01 101.714 1230.11 120.225C1221.59 133.488 1207.56 147.089 1177.57 152.86C1154.52 156.979 1137.48 161.487 1119.03 169.166C1099.54 177.277 1086.37 183.969 1079.46 195.775C1076.57 206.656 1068.29 216.341 1058.12 226.05C1050.81 233.032 1048.07 235.629 1033.78 239.852C1010.79 246.643 986.005 252.323 958.601 253.94C931.757 261.232 901.1 265.758 869.837 267.579C839.403 269.352 821.319 264.585 801.108 254.46C792.151 249.974 789.269 246.862 787.173 241.195C781.723 240.474 782.111 238.928 784.168 236.954L784.356 235.408C782.299 229.022 783.076 222.907 786.679 217.06C784.19 215.394 786.164 214.375 788.723 213.095C790.876 203.007 802.75 193.429 814.986 185.065L817.882 184.238C822.677 180.411 829.747 177.684 839.245 176.122L862.36 172.807C871.68 169.715 882.213 167.535 893.03 165.521C905.852 163.031 916.158 158.814 921.219 152.813C924.691 148.566 928.041 144.518 934.312 141.074C943.548 132.529 953.212 123.845 972.31 118.95L995.542 112.821C1021.86 101.947 1054.75 94.8446 1087.05 88.5202C1095.53 86.5773 1101.95 83.4634 1105.39 79.469C1109.59 73.573 1114.5 67.762 1119.83 62.0003C1123.39 57.4529 1127.24 52.4139 1123.54 47.7185C1122.84 32.6094 1129.76 18.4698 1142.16 4.49403C1142.61 2.11867 1144.48 0.620003 1147.76 0H1191.43L1191.42 0Z" fill="#FF8602"/>
<path d="M-5 319.249L-3.34548 318.148C17.7398 314.225 40.663 313.258 63.2107 313.013C65.734 313.149 67.1877 313.786 68.314 314.715C73.3648 314.385 88.1551 315.772 91.5078 317.425L94.0529 319.678C97.0476 320.129 98.9379 320.852 99.3482 322.352C103.653 322.123 106.774 323.056 108.712 325.151C114.457 325.683 121.342 326.424 116.435 329.668C119.146 330.278 120.224 331.35 121.35 332.544C126.75 331.745 129.54 332.443 129.348 335.125C131.74 335.698 132.334 336.661 131.138 338.009C134.084 338.778 134.896 339.974 135.818 341.344C139.685 341.788 141.571 343.294 141.475 345.862C146.085 346.819 146.705 346.989 149.132 349.076L153.463 354.34C158.239 356.144 160.513 358.109 162.705 360.675C165.35 360.631 167.262 361.019 168.441 361.835C168.904 366.638 173.972 369.631 180.516 373.218C190.43 381.623 200.003 390.616 206.578 399.592C207.817 400.45 209.634 401.128 212.017 401.628C212.165 403.765 214.051 405.17 217.683 405.846C218.893 409.038 222.036 411.592 227.113 413.505C227.314 415.041 228.829 416.004 231.653 416.397C230.57 417.864 240.253 423.187 241.55 423.086C243.85 422.906 248.46 419.382 246.587 417.996C252.629 412.99 247.22 406.581 242.964 401.577C223.97 382.03 205.678 361.869 187.797 342.144C184.41 337.938 182.275 333.56 181.319 329.138C175.683 321.732 173.452 314.049 181.502 306.763C187.535 294.672 193.066 286.971 219.504 281.883C232.072 280.565 244.92 279.662 258.042 279.173C262.556 279.331 279.547 280.347 281.926 281.486C282.507 283.421 285.916 284.095 292.159 283.506C298.978 285.072 305.15 286.85 304.33 290.901L305.246 291.855C310.516 292.292 312.69 293.259 311.768 294.757C320.482 302.406 328.266 310.382 335.115 318.686C354.445 335.853 372.13 353.377 389.343 370.86C393.626 376.308 399.593 381.388 407.246 386.1C409.368 389.253 413.017 391.771 418.199 393.656C422.167 398.088 425.708 401.766 434.168 404.721L440.419 410.544C444.99 411.224 446.247 411.732 447.439 413.897C451.56 415.391 454.751 417.303 457.013 419.631C461.897 420.663 465.193 422.031 466.9 423.734C471.86 424.545 473.174 425.426 470.842 426.381H397.502L395.634 426.172C353.367 403.947 318.618 377.99 288.954 351.541C275.74 341.814 264.377 331.878 254.166 321.613C253.62 323.449 254.397 325.347 256.497 327.308C257.213 335.738 266.298 342.994 275.439 350.096L278.56 354.784C290.229 364.409 300.466 374.436 308.612 384.768C312.995 387.537 315.619 390.693 316.479 394.234C317.767 394.623 318.906 394.971 319.596 395.651C322.499 398.511 325.45 403.332 327.244 406.459C326.498 407.945 327.449 409.359 330.103 410.695C329.462 413.628 330.103 416.595 332.037 419.595C332.068 420.196 331.95 420.716 331.797 421.311C331.448 422.677 329.942 425.743 327.659 426.379H-5V319.247V319.249Z" fill="#FF8602"/>
<path d="M573.839 426.381L572.63 425.295C578.669 419.139 586.641 413.474 596.55 408.3C598.33 405.896 600.228 403.502 602.249 401.119C616.303 392.859 630.34 384.588 634.685 374.174C648.194 362.717 664.168 348.709 653.84 335.45C649.172 329.457 640.598 324.426 631.038 319.847C616.076 313.449 604.496 307.976 598.994 298.689C590.516 284.38 591.633 273.918 597.597 259.568C600.647 252.225 604.387 243.759 608.815 236.61C614.811 226.926 625.261 221.445 639.825 214.133C650.411 205.357 680.902 197.793 702.025 195.895C712.501 194.953 749.458 198.571 757.731 201.339C760.681 203.01 763.822 204.023 767.657 205.253C768.779 208.113 770.232 210.957 772.008 213.782C770.568 220.904 768.744 228.018 766.532 235.124C765.384 239.504 766.68 242.745 771.663 246.31C774.333 246.54 775.983 246.993 776.563 248.244C778.169 252.762 782.484 257.351 791.093 259.941L794.71 262.197C801.416 264.844 807.673 267.781 813.485 271.009C817.648 271.204 820.737 272.582 822.749 275.142C830.812 277.228 838.121 279.789 844.666 282.826C845.468 283.334 852.328 294.121 852.157 294.737C850.29 301.58 847.423 308.485 843.488 314.92C846.25 317.719 847.34 320.697 846.764 323.854C850.067 324.639 850.504 325.972 848.082 327.849C851.385 332.987 851.848 337.452 850.958 342.982C847.218 366.17 840.333 391.662 803.781 409.335C797.572 412.483 794.243 415.823 791.376 419.601C784.046 422.433 775.821 424.695 766.702 426.381H650.638C650.044 426.225 649.193 425.945 649.355 425.739C654.713 418.979 662.816 412.868 673.794 407.264C696.959 392.543 717.837 377.596 729.182 360.224C735.679 350.27 739.134 344.463 735.317 334.495C734.374 332.035 726.956 320.277 724.583 318.66C710.437 313.349 699.437 308.169 691.875 300.26C686.666 296.924 679.82 294.267 671.346 292.293C657.423 288.795 653.456 280.442 657.471 273.995C657.733 269.08 659.007 253.532 670.085 251.497C681.163 249.462 703.547 256.297 704.974 261.878C705.205 272.706 718.387 278.999 736.857 284.808L743.69 288.282L771.641 297.441C773.373 298.878 774.386 300.501 774.682 302.305L777.772 303.86C782.126 310.285 782.31 316.909 780.547 323.585C782.615 334.955 780.852 345.957 772.636 356.825C767.029 372.401 757.129 386.57 735.997 399.299C727.864 406.281 729.649 406.054 741.351 398.622L746.884 395.991C750.497 390.075 756.898 384.736 766.078 379.977C781.664 365.54 791.451 349.413 792.437 333.251C784.718 320.952 785.992 307.897 790.36 295.394C776.69 292.072 766.087 289.214 754.76 284.37C739.689 277.925 726.712 271.944 717.798 263.54C709.198 255.433 702.382 248.281 704.381 239.091C698.006 238.953 692.443 238.523 686.897 236.859C685.234 236.505 683.899 236.645 682.534 237.2C680.941 237.846 679.562 238.655 678.284 239.446C670.465 244.298 662.554 249.774 655.878 254.837C649.237 262.17 643.617 268.774 645.869 276.84C647.147 281.421 648.988 287.439 655.97 290.793C656.101 293.663 659.207 296.063 665.281 297.992C670.609 301.557 675.264 304.361 684.257 306.047C685.444 308.234 687.333 309.492 690.99 311.128C696.636 312.395 701.894 313.751 701.287 316.949C705.24 316.919 705.816 317.679 705.729 319.298L709.137 322.884C714.351 325.2 716.742 328.305 716.314 332.195L718.797 334.309C722.488 352.272 718.531 369.821 698.708 386.023C689.284 393.725 676.709 402.89 665.246 409.976C656.07 415.651 646.139 421.598 634.934 426.375H573.848L573.839 426.381Z" fill="#FF8602"/>
<path d="M892.392 0C895.092 1.65474 892.776 5.0786 891.398 7.10215C883.843 18.1844 875.415 28.9411 864.057 39.3626C850.905 51.427 833.147 63.0121 815.586 73.8636C801.073 82.8335 784.415 92.7797 762.116 97.6512C756.921 100.783 750.43 102.949 743.18 105.199C739.246 107.613 734.461 109.049 728.82 109.505C727.198 111.688 723.787 113.252 718.587 114.193C715.311 116.228 712.72 117.715 706.64 118.042C692.31 124.971 673.789 131.099 654.081 134.318L652.201 135.929C647.769 136.832 646.413 137.732 648.127 138.625C662.509 143.191 670.762 147.873 675.189 155.817C673.584 159.825 678.679 159.452 685.479 158.768C697.405 157.389 709.475 156.273 721.693 155.421C725.872 153.226 729.623 151.826 735.263 150.516C745.2 145.189 759.887 140.834 773.509 137.495C786.901 135.886 800.62 134.917 814.665 134.59C827.978 133.791 843.769 132.418 850.211 126.435C851.315 123.275 854.233 120.776 858.966 118.942C865.771 108.875 878.521 99.799 894.831 92.2747C897.902 89.3893 902.735 86.9654 909.321 85.003C911.555 83.1865 915.018 81.7251 919.712 80.6186C936.074 69.9683 961.278 64.2783 988.004 60.6296C997.199 59.4404 1004.57 57.3537 1010.11 54.3736L1022.03 52.5058C1036.54 50.0898 1038.49 42.4551 1040.01 36.3766C1043.16 34.6252 1044.86 33.4596 1041.97 31.296C1042.06 29.5782 1043.37 27.9155 1045.89 26.3101C1044.22 23.6239 1045.46 21.7463 1048.46 19.4151C1046.73 18.776 1045.57 17.9378 1045.99 16.8669C1049.13 11.664 1052.23 6.31916 1054.33 0.958525L1056.39 0.00986136H1108.73C1109.54 1.87366 1109.32 3.86368 1108.07 5.97401C1106.86 28.6374 1101.62 53.1527 1070.19 71.8519C1064.75 75.0844 1058.52 78.315 1050.31 79.7982C1046.76 81.8533 1041.83 83.3009 1035.52 84.1431C1027.02 87.7109 1017.74 90.7522 1007.68 93.2668C987.001 96.4698 970.455 102.099 954.739 108.824C942.87 113.903 929.989 120.044 920.527 125.896C909.413 138.132 892.733 151.417 870.098 160.038C852.109 164.221 833.112 167.483 813.104 169.821C803.298 170.959 795.612 173.089 790.046 176.211L773.113 179.293C763.734 183.63 753.047 186.439 741.052 187.717L719.966 188.697C704.14 191.557 698.491 192.521 682.055 189.376C651.351 183.5 628.158 175.019 607.717 162.734L580.961 149.587C575.988 147.041 569.794 141.552 572.18 138.179C567.918 137.134 567.595 135.379 571.207 132.917C569.973 130.529 571.8 129.202 574.692 127.292C574.365 124.048 576.965 121.687 580.498 118.879C591.416 110.199 607.29 101.911 622.749 94.8643C631.804 89.0856 644.76 82.865 660.38 81.0959L668.943 78.958C690.971 71.0985 712.175 63.9588 738.622 59.395C757.51 55.5195 768.908 48.4528 779.669 40.7057C788.345 34.4615 796.737 27.4442 804.362 20.9929C808.419 17.5611 812.785 13.8434 815.747 10.2124C817.2 8.42949 817.426 7.54197 816.872 5.71959C820.916 4.77882 821.636 3.09844 819.032 0.678462L820.833 0.00788909H892.371L892.392 0Z" fill="#FF8602"/>
<path d="M1121.19 426.377C1119.48 424.182 1119.67 421.731 1121.77 419.021C1125.85 412.559 1130.19 406.131 1134.8 399.737C1136.68 391.941 1141.35 384.51 1148.81 377.442C1163.37 366.836 1177.57 356.06 1191.45 345.295C1212.24 329.173 1223.47 311.968 1216.29 293.341C1209.69 276.212 1196.75 256.9 1160.99 248.237L1123.86 237.449C1100.59 230.162 1096.39 224.946 1096.51 212.013C1096.62 200.106 1099.48 188.108 1119.97 179.641C1158.41 163.761 1214.34 158.185 1265.01 162C1288.01 163.733 1307.5 166.143 1325.32 172.392C1338.11 173.971 1350.49 178.875 1358.87 183.45C1358.73 185.124 1360.46 186.099 1364.06 186.379L1370.27 190.403C1372.9 190.883 1373.89 192.103 1373.24 194.064C1378.96 195.651 1381.74 197.643 1381.6 200.041C1391.91 206.34 1395.5 213.947 1398.94 221.688C1402.45 232.651 1407.23 243.785 1413.63 254.288C1412.57 257.306 1413.04 259.965 1414.15 262.97C1403.71 291.178 1398.5 305.282 1398.5 305.282C1394.2 317.362 1388.08 329.615 1373.01 339.68C1357.72 357.392 1337.05 374.523 1315.85 390.662C1296.45 400.629 1280.17 412.214 1274.33 425.621L1272.17 426.381H1236.39C1235.74 426.255 1234.76 426.047 1234.81 425.811C1236.72 416.515 1242.01 406.605 1247.62 397.313C1252.61 389.061 1261.64 383.474 1274.32 377.121C1279.95 373.69 1283.5 370.483 1286.55 366.469C1301.87 354.068 1316.88 341.674 1326.8 328.05C1339.22 316.496 1348.67 304.334 1350.5 291.452C1353.18 272.574 1337.53 248.237 1322.41 230.66C1311.55 218.026 1298.2 208.533 1277.78 199.107C1263.78 195.661 1249.41 192.509 1234.67 189.651C1218.66 183.02 1197.73 188.157 1182.26 192.795C1174.27 195.189 1150.67 203.354 1149.27 207.54C1147.9 211.646 1149.89 219.888 1156.79 222.929C1173.82 226.831 1190.33 232.264 1206.11 237.461C1215.15 238.687 1223.82 240.943 1231.98 243.372C1257.66 251.018 1279.5 266.446 1287.61 279.776C1290.76 284.957 1290.56 288.148 1289.16 293.759C1285.71 307.644 1281.16 321.693 1267.72 334.395C1243.51 354.767 1217.75 374.79 1190.59 394.447C1177.71 404.106 1166.06 414.271 1159.37 425.104L1156.96 426.379H1121.18L1121.19 426.377Z" fill="#FF8602"/>
<path d="M800.238 0.00394801C804.373 0.112518 801.26 3.45056 800.041 4.63496C778.884 25.1626 751.129 44.5888 715.024 60.3236C701.098 63.1583 687.164 66.37 673.212 69.9607C652.644 73.8949 632.396 78.1726 612.466 82.7898C605.466 83.4175 599.509 85.3698 594.601 88.6466C573.033 101.561 550.889 114.429 522.715 124.872C494.558 131.51 464.593 129.232 439.191 121.143C437.335 118.802 434.138 117.187 429.606 116.302C394.226 105.282 356.654 95.4945 319.506 86.0982C305.733 84.9473 291.606 84.2821 277.13 84.1064C256.344 81.7159 235.37 79.7853 214.209 78.3147C187.886 77.8113 161.973 76.3723 136.676 73.9936C122.707 73.5988 109.602 75.4662 97.3578 79.5998L77.3491 82.6358C59.4758 86.8819 41.0086 90.1725 21.9563 92.5078L10.4192 95.301C6.17901 95.988 -3.01747 96.9453 -5 94.7562V51.7229L-4.06114 50.6609L16.0174 46.5135C45.8776 37.1725 79.1526 31.1873 115.947 33.562L211.672 39.8552C252.436 38.5523 289.645 45.939 324.3 55.7143L370.056 69.1415C389.802 73.8455 411.069 77.2014 433.863 79.205C454.514 83.153 476.326 84.8348 492.304 76.6842L510.571 68.4072C528.881 58.7089 550.933 51.1307 575.736 45.8956C588.077 43.5169 600.409 41.0751 612.728 38.5701C638.26 35.611 664.823 31.6315 687.784 25.5199C708.347 20.046 719.26 13.3719 731.596 4.47112C733.928 3.01233 737.775 0.876458 740.845 0H800.234L800.238 0.00394801Z" fill="#FF8602"/>
<path d="M780.812 426.381C780.895 425.858 781.275 425.391 781.995 424.986L806.911 418.134C836.253 409.374 845.065 401.768 851.302 385.857C853.746 374.371 857.556 363.041 862.737 351.87C861.401 348.587 863.383 346.364 866.228 343.451C871.086 333.176 875.826 322.764 879.693 312.445C882.508 310.027 883.673 307.385 883.197 304.52C886.606 301.651 888.574 298.461 889.102 294.947C895.103 286.236 907.564 278.247 919.273 270.791C922.001 267.735 926.719 265.689 932.89 263.842C943.147 260.772 954.193 258.856 965.672 256.998C972.201 255.398 977.626 254.287 985.211 254.5C996.066 251.728 1004.65 250.39 1017.58 249.857C1064.53 247.918 1111.92 253.642 1145.55 267.995L1145.06 269.465C1147.33 269.797 1155.31 273.399 1156.2 274.222C1156.46 276.041 1156.83 277.837 1157.31 279.609C1163.67 280.994 1165.34 282.825 1162.31 285.103C1163.41 287.337 1165.1 289.523 1167.38 291.664L1166.97 294.536C1170.23 296.34 1170.68 298.585 1168.33 301.27C1167.91 331.13 1145.82 361.455 1124.97 389.859C1118.21 398.988 1114.15 408.429 1112.39 417.96C1112.09 421.123 1110.39 423.931 1107.28 426.381H1040.06C1037.71 421.07 1038.4 415.042 1039.18 409.547C1040.97 396.95 1047.1 384.883 1053.56 372.646C1061.3 357.981 1070.2 343.339 1079.45 328.877C1082.29 321.277 1080.69 313.039 1078.4 305.443C1076.11 297.831 1072.08 295.075 1057.67 290.732C1039.46 285.243 1033.19 286.721 1016.74 291.977C992.255 299.806 978.59 308.231 972.166 322.133C964.825 346.243 953.683 369.444 937.8 392.625C929.285 405.051 923.232 408.632 901.593 416.842L880.609 424.059C878.2 425.158 876.013 426.097 872.465 426.381H780.812Z" fill="#FF8602"/>
<path d="M1.98895 277.286L2.63543 276.377C16.0673 274.146 34.9681 271.868 48.9678 273.192C58.5994 272.391 66.6498 272.884 74.6434 275.519C80.3482 273.977 82.7943 276.124 82.6196 278.485C84.5284 278.394 86.0616 278.578 87.2148 279.035C90.6831 276.903 90.7486 275.059 87.4026 273.499C86.1534 268.944 87.87 264.055 89.495 259.55C89.2285 254.843 91.1374 250.003 94.0203 245.389L97.1216 243.324C91.3776 237.938 96.3529 234.585 103.547 229.862C123.308 216.889 161.542 213.3 194.154 212.188C199.038 213.034 203.817 213.128 208.482 212.47C217.467 212.937 226.111 214.406 234.411 216.877C239.98 216.225 244.99 217.225 249.437 219.881C262.004 221.759 273.514 224.379 283.976 227.744C288.986 227.957 292.432 228.978 294.306 230.813C300.255 230.779 303.4 232.232 303.737 235.173C309.341 235.713 313.43 237.415 315.994 240.275C321.362 242.042 324.712 243.756 326.63 246.661C331.243 247.944 334.899 249.786 337.598 252.188C340.376 252.871 343.277 253.472 346.304 253.993C345.841 255.273 346.693 256.172 348.859 256.689C349.956 258.564 352.048 259.58 355.145 259.738C385.01 278.41 406.959 300.117 424.785 322.006C441.196 338.814 456.096 355.885 470.013 373.12L481.754 380.413C500.746 396.097 522.189 411.626 547.219 425.401L547.136 426.381H496.466L493.277 425.758C483.947 419.77 474.171 414.039 463.277 408.45C450.208 398.022 436.077 387.956 419.286 378.567C380.925 350.054 351.458 319.182 324.21 288.257C317.911 280.623 307.087 274.736 293.149 269.677C283.351 263.469 273.868 260.947 257.16 260.081L242.959 257.49C224.535 254.833 219.616 257.639 211.186 264.526C202.567 268.912 195.094 273.697 188.769 278.879C176.245 284.484 168.055 290.128 163.399 297.749C159.297 301.882 150.744 304.079 142.336 306.162C129.559 309.325 110.505 313.969 95.9379 313.106C71.0791 311.633 54.1134 307.937 38.6154 298.67L34.92 297.473L-3.36633 304.657L-5 304.107V278.075C-4.17006 277.116 0.232975 276.446 1.98895 277.286Z" fill="#FF8602"/>
<path d="M1680 325.056C1678.47 325.503 1677.74 325.313 1676.89 324.693C1668.02 317.493 1661.51 312.433 1646.19 307.264C1629.21 301.539 1609.73 296.965 1588.96 295.119C1572.2 296.153 1557.2 295.931 1540.91 293.967C1524.11 295.429 1507.17 296.589 1490.1 297.447C1462.44 298.211 1443.12 283.79 1433.95 273.759C1433.07 268.557 1433.02 263.339 1433.79 258.105C1431.25 252 1431.71 246.509 1435.47 240.599C1433.71 232.592 1431.69 224.552 1429.42 216.483C1427.76 212.352 1424.86 208.746 1421.06 205.079L1413.43 192.264C1410.56 188.01 1406.19 183.97 1399.68 180.599C1384.82 173.694 1370.45 166.674 1356.56 159.537C1331.67 150.614 1306.74 141.767 1281.77 132.994C1260.1 123.266 1240.52 107.977 1252.75 93.9707C1271.33 72.6658 1349.84 60.8329 1396.04 68.5542L1411.09 68.9711C1412.78 69.5204 1414.4 70.0539 1415.95 70.5695C1422.01 69.3248 1424.06 69.9729 1428.95 71.8281L1433.88 71.8222C1444.86 74.3393 1454.92 75.9911 1467.15 77.226C1495.52 86.1051 1525.97 97.4896 1538.85 112.476C1542.59 114.321 1544.47 116.777 1544.51 119.848L1546.49 130.246C1547.35 133.245 1549.03 134.735 1552.62 137.136C1564.28 149.964 1576.97 161.618 1594.87 172.893C1599.35 175.713 1603.45 177.742 1610.21 179.068C1616.08 182.041 1621.68 183.331 1630.13 184.296C1645.6 189.203 1662.35 193.801 1678.03 186.71L1680 187.143V215.199C1679.59 215.537 1679 215.744 1678.18 215.784C1655.47 216.853 1639.85 217.101 1616.87 214.252C1591.21 211.073 1562.08 204.253 1557.36 191.44L1555.22 189.527C1526.99 172.429 1502.75 152.883 1487.24 132.736C1486.66 121.863 1483.5 113.138 1465.47 104.859C1437.37 91.9633 1375.5 84.5976 1336.62 85.7771C1309.09 86.6129 1287.94 94.1288 1293.88 107.576C1298.44 117.888 1315.39 123.643 1334.73 127.883C1340.3 131.196 1347.57 133.965 1356.53 136.185L1360.92 138.487C1372.12 141.415 1382.81 144.655 1393 148.208C1406 155.872 1420.07 163.095 1435.22 169.878C1455.47 179.955 1464.43 189.739 1472.43 203.135C1477.08 208.228 1480.72 212.956 1481.06 218.38C1484.66 226.56 1487.38 234.716 1485.98 243.081C1483.25 250.35 1481.26 258.087 1480.23 265.575C1479.81 268.602 1479.68 271.021 1480.66 274.022C1481.67 277.108 1489.63 281.575 1496.12 282.403C1502.61 281.885 1509.11 281.652 1515.62 281.704C1527.03 280.419 1538.55 279.437 1550.17 278.756C1572.72 279.596 1595.34 280.263 1618.29 280.548C1624.4 280.623 1630.06 280.402 1635.74 279.649C1641.06 279.882 1646.27 280.907 1651.37 282.721C1658.21 282.146 1669.92 281.354 1676.1 283.274C1677.56 283.729 1679.58 284.746 1680 285.539V325.054L1680 325.056Z" fill="#FF8602"/>
<path d="M270.856 0C298.992 6.43855 326.093 13.8311 352.16 22.1757C378.82 29.5267 424.097 40.4641 452.202 29.8414C467.697 22.7774 485.239 17.8134 505.836 13.94L515.653 10.9572C530.965 9.51631 541.514 7.36287 552.815 2.31178L564.172 0H702.101C703.55 0.298869 703.689 0.548257 703.563 1.13016C702.659 5.29849 666.964 19.9807 659.242 22.8269C655.419 24.2361 639.797 29.6375 635.057 30.6549C632.944 31.1081 631.478 31.3654 629.038 31.3456C616.707 36.6718 604.992 39.5002 587.537 40.9213L578.266 43.5379C550.201 46.9482 522.741 51.926 498.486 59.2236C461.189 76.9539 398.912 68.6449 360.698 55.944C329.371 51.1403 302.144 44.3969 275.226 35.2191C262.494 31.2823 249.822 28.8003 234.834 27.3851C206.493 24.7092 178.244 24.1273 149.563 25.0476C98.5291 21.7541 46.9675 24.7032 -3.4374 29.1981L-5 28.5014V0H270.856Z" fill="#FF8602"/>
<path d="M-5 133.435C3.09285 131.13 11.7965 129.224 21.1109 127.714L56.4882 119.419C70.9332 115.651 85.461 114.051 101.695 113.482C119.665 109.446 135.405 108.998 155.138 111.27C198.639 112.122 237.384 118.46 272.194 130.57C285.221 135.432 298.903 139.756 313.243 143.543C354.117 151.704 390.044 163.708 418.638 179.301C428.563 182.675 437.703 186.023 443.972 191.153L458.369 201.612C470.131 207.015 480.047 211.609 486.264 218.706C488.315 221.047 492.302 226.555 486.652 228.079C483.812 231.478 475.68 233.532 468.569 231.33C464.036 231.865 461.035 230.534 459.569 227.342C422.115 202.079 367.253 184.444 304.073 174.029C290.409 171.776 272.255 169.429 258.042 170.007C253.544 168.54 248.252 168.012 242.17 168.422C204.899 164.502 165.992 164.114 128.722 166.469C118.474 168.028 108.086 168.895 97.5632 169.074C89.623 169.76 64.4371 174.809 57.7534 176.948C52.7973 178.534 40.669 185.412 38.1953 187.917L24.8934 203.978C19.008 210.502 9.48859 216.558 -3.26364 220.671L-5 220.148V133.435Z" fill="#FF8602"/>
<path d="M1666.76 426.381H1610.09L1608.1 425.402C1609.99 412.091 1605.06 398.655 1599.01 385.476C1594.02 374.606 1589.53 363.759 1585.52 352.935C1585.23 349.087 1585.23 345.297 1585.53 341.563C1582.59 337.993 1548.64 327.557 1540.9 327.786C1534.49 327.976 1503.44 338.854 1496.54 341.287C1471.32 350.181 1450.2 360.104 1429.99 371.453C1453.69 371.23 1480.65 373.218 1495.95 382.456C1502.73 386.545 1506.76 390.175 1502.22 394.987C1505.41 406.598 1464.1 413.218 1444.69 415.635C1420.66 417.787 1396.58 419.84 1372.45 421.791C1364.61 423.775 1356.35 425.305 1347.66 426.381H1286.63C1286.4 426.11 1286.21 425.84 1286.14 425.562C1285.56 423.435 1296.99 417.317 1300.78 415.563C1326.1 403.862 1362.23 399.593 1397.22 398.122C1402.63 398.375 1437.74 392.256 1438.37 390.912C1438.69 390.242 1429.75 390.071 1428.65 390.262L1394.93 392.173C1382.42 392.78 1362.22 392.45 1360.38 385.289C1357.1 383.881 1355.68 382.416 1356.13 380.896C1348.89 378.748 1354.14 373.022 1356.94 370.051C1364.78 361.705 1377.35 355.024 1391.52 348.515C1404.61 343.064 1416.58 337.31 1427.43 331.259C1441.9 326.122 1457.44 321.677 1473.05 317.31C1493.32 309.644 1509.27 305.152 1536.12 304.892C1546.98 304.787 1560.26 304.858 1571.13 305.081C1590.21 305.474 1611.93 308.311 1628.33 312.755C1633.7 314.211 1636.24 315.628 1638.99 318.029C1646.2 320.291 1650.08 323.148 1650.66 326.6C1655.42 330.655 1659.08 334.686 1660.16 339.336C1662.91 351.158 1665.21 363.295 1667.22 374.906L1666.05 377.465C1673.4 393.105 1671.7 409.919 1668.26 425.629L1666.76 426.381H1666.76Z" fill="#FF8602"/>
<path d="M1680 271.026C1679.38 271.755 1677.96 271.962 1675.71 271.646C1667.43 269.917 1659.36 269.53 1651.5 270.484C1638.27 272.891 1626.08 274.59 1611.42 273.543C1594.13 274.379 1577 274.89 1559.73 274.732C1525.24 274.418 1510.46 267.578 1494.14 254.928C1485.32 248.092 1485.19 241.807 1486.39 233.866C1488.18 228.499 1486.74 223.202 1482.05 217.97C1480.61 207.231 1478.07 197.393 1467.36 187.593C1463.13 181.576 1458.63 176.089 1451.81 170.608C1445.85 165.819 1440.92 162.385 1430.23 159.64C1422.93 155.41 1414.66 151.668 1405.42 148.413C1386.09 143.573 1372.04 136.629 1357.81 129.117C1344.62 123.956 1333.56 119.104 1323.39 112.745C1321.46 111.538 1315.58 107.77 1315.45 106.496C1314.84 100.665 1345.13 95.079 1356 94.6621L1393.1 96.0749C1407.38 96.6814 1420.88 97.3335 1433.35 100.254C1440.19 100.031 1443.79 101.157 1444.14 103.631C1446.73 103.759 1449.27 104.006 1451.77 104.37C1463.45 110.635 1475.31 117.545 1478.65 126.055C1480.01 133.97 1484.26 141.298 1491.38 148.04L1492.76 154.142C1513.67 168.065 1529.79 183.633 1542.83 199.456C1547.65 206.613 1575.91 222.36 1591.48 223.838C1620.12 226.559 1649.39 227.944 1678.29 228.41L1680 229.131V271.02V271.026Z" fill="#FF8602"/>
<path d="M1030.05 0L1031.39 0.647096C1031.48 6.52225 1032.09 12.2613 1033.89 18.1917C1035.46 35.8724 1006.17 49.2641 974.021 57.3409C936.597 65.836 902.683 75.5642 880.82 92.3867C865.232 103.383 848.851 114.161 830.428 124.304L799.47 128.395C783.965 130.589 768.835 133.544 755.911 138.078C736.992 141.272 718.395 144.918 701.351 149.86C698.46 150.517 695.434 148.944 694.069 147.946C659.605 138.875 692.94 125.813 713.555 119.241C733.421 114.459 750.417 108.46 766.236 101.128C792.184 92.2742 814.474 82.4475 829.09 69.257C850.904 57.7493 869.313 45.0955 884.322 31.2993C891.041 26.9334 896.757 22.2419 901.667 17.367C908.996 13.4114 913.662 9.37302 917.717 4.54545C919.391 3.12105 923.276 0.633286 926.272 0.00197285H1030.05L1030.05 0Z" fill="#FF8602"/>
<path d="M1441.37 0C1477.13 11.1402 1517.02 18.8687 1559.08 24.1443C1577.68 26.9807 1593.45 31.9598 1608.46 37.4765C1637.66 48.2075 1647.66 54.671 1654.49 71.7311C1658.38 84.5396 1661.25 97.3006 1663.08 110.014C1663.85 114.966 1668.26 119.537 1675.92 122.953L1680 128.48V150.222C1677.88 151.964 1670.69 151.021 1667.04 150.4C1642.88 143.537 1617.75 134.512 1615.37 120.352C1614.37 114.578 1612.52 108.878 1609.82 103.25C1596.72 88.7201 1578.72 76.5066 1554.13 65.2795C1539.12 58.4266 1524.61 55.521 1503.67 53.574C1495.77 52.6075 1489.03 50.9095 1483.2 48.4151C1476.88 47.9071 1471.48 47.3971 1465.38 46.1123C1448.83 42.6196 1431.95 38.4035 1416.86 34.0293C1403.58 32.2088 1394.19 29.8508 1386.12 24.5436C1370.63 18.4141 1358.39 10.563 1353.56 1.2927L1354.82 0H1441.36L1441.37 0Z" fill="#FF8602"/>
<path d="M1325.7 0.00197592L1327.68 0.357641C1337.95 15.3865 1359.75 25.5526 1390.62 32.4268C1425.43 40.1823 1461.53 46.8391 1497.9 52.9625C1550.6 62.935 1584.52 80.6629 1598.21 105.976C1606.93 120.95 1616.24 135.682 1626.15 150.172C1635.16 155.513 1647.65 156.939 1662.08 157.888C1667.51 158.887 1673 159.5 1678.56 159.723L1680 160.446V180.206L1679.31 181.071C1648.54 182.713 1601.53 175.507 1586.57 162.565C1578.71 155.768 1572.22 148.692 1567.16 141.363C1550.4 113.688 1530.63 84.9052 1466.37 74.3459C1446.81 72.3601 1428.67 69.2638 1411.96 65.061C1392.48 61.4906 1373.25 57.6632 1354.28 53.5829C1318.6 45.6556 1299.78 33.6756 1286.65 17.066C1283.64 13.2525 1277.16 4.59203 1278.47 0.926705C1278.59 0.602655 1278.98 0.298364 1279.45 0H1325.7V0.00197592Z" fill="#FF8602"/>
<path d="M1175.9 426.381C1175.22 426.342 1174.21 426.253 1174.15 426.034C1172.13 418.436 1177.3 410.464 1186.84 404.102C1200.05 395.139 1211.93 385.752 1222.48 375.939C1245.06 361.613 1264.13 345.8 1282.38 330.14C1288.33 324.325 1293.57 318.495 1298.09 312.656C1297.58 307.358 1298.44 302.387 1301.69 297.178C1303.26 293.791 1302.51 290.273 1299.92 286.987C1284 266.771 1261.37 248.324 1229.46 232.899C1221.48 230.758 1213.67 228.484 1206.06 226.081C1190.19 223.241 1175.52 219.421 1174.82 210.859C1174.59 208.039 1179.67 199.147 1185.51 198.054C1187.9 197.608 1207.17 197.72 1210.5 197.945C1228.77 199.173 1240.77 202.221 1255.94 206.811C1277.76 211.182 1293.83 219.066 1307.86 227.904C1314.37 232.005 1318.18 235.306 1319.64 240.034C1347.46 257.869 1348.91 284.337 1335.75 304.803C1328.08 316.737 1319.5 328.962 1310.31 340.739C1303 346.436 1295.34 352.038 1287.33 357.546C1283.65 363.758 1277.95 369.614 1270.25 375.114C1247.19 390.326 1225.01 406.468 1221.58 425.27L1219.58 426.377H1175.89L1175.9 426.381Z" fill="#FF8602"/>
<path d="M923.069 426.381L921.554 425.791C927.572 420.62 933.136 415.204 938.241 409.542C947.103 403.366 952.942 396.715 955.94 389.53L961.783 375.663C973.525 360.768 981.279 345.886 984.007 329.888C985.386 326.537 986.878 323.098 990.6 320.233L990.574 318.697C1002.12 306.464 1018.88 297.864 1049.98 304.147C1056.83 305.532 1059.37 306.49 1062.7 309.744C1067.55 314.48 1066.85 318.51 1063.76 323.432C1056.08 334.269 1048.68 345.284 1043.51 356.508C1037.2 377.913 1022.82 398.036 1007.18 418.276L1003.58 425.988L1001.61 426.381H923.064H923.069Z" fill="#FF8602"/>
<path d="M1439.09 426.381C1438.28 426.225 1437.56 425.959 1437.61 425.587C1437.76 424.602 1451.91 421.308 1454.86 420.627C1478.28 416.356 1500.22 409.987 1517.12 401.599C1519.44 400.448 1524.06 397.409 1522.7 395.807C1520.64 393.376 1513.67 387.661 1509.45 385.971C1499.29 382.988 1490.6 379.129 1483.39 374.393C1468.24 370.788 1455.07 367.631 1468.52 359.313L1481.33 352.391C1496.36 341.424 1520.85 329.319 1551.25 336.887C1571.16 341.844 1583.01 348.482 1585.62 358.809C1589.6 362.058 1591.03 365.274 1589.9 368.458C1592.56 371.734 1593.8 374.736 1592.48 378.304C1586.96 394.15 1582.68 410.026 1579.67 425.936L1577.62 426.381H1439.09Z" fill="#FF8602"/>
<path d="M1477.68 0H1680V93.6368C1678.35 94.1563 1676.92 93.7691 1675.7 92.4732C1669.35 84.5378 1663.91 76.3456 1659.38 67.8985C1655.73 64.3822 1653.01 60.777 1651.2 57.0829C1652.95 52.2035 1651.65 50.3268 1643.48 46.3779C1629.49 34.3947 1610.05 25.6316 1582.39 20.4085C1557.7 16.5484 1532.72 12.9946 1507.45 9.74494C1500.16 8.58139 1492.97 7.04251 1486.92 4.83592C1483.77 3.69016 1478.52 1.59617 1477.69 0.00197546L1477.68 0Z" fill="#FF8602"/>
<path d="M509.874 0C510.001 0.303669 510.097 0.607338 510.075 0.911007C509.752 5.25111 483.856 14.7023 474.913 17.2717C463.614 20.5174 430.754 25.3209 417.952 25.2696C400.86 25.2006 380.771 20.6455 365.846 17.0212C353.193 13.1307 339.911 10.0073 326.009 7.65088C318.734 7.26833 295.761 5.45421 293.446 1.64257C292.917 0.771003 292.725 0.398319 294.909 0.00197188H509.87L509.874 0Z" fill="#FF8602"/>
</svg>
