<svg width="1680" height="444" viewBox="0 0 1680 444" fill="none" xmlns="http://www.w3.org/2000/svg">
<rect width="1680" height="426" fill="black"/>
<path d="M0 117.155L1.30933 115.651C15.5641 110.579 29.6448 105.475 42.5902 99.5965C58.2543 96.7363 73.7488 93.6253 89.0823 90.2637C110.519 88.2315 131.99 86.2671 153.5 84.3726C170.422 84.8143 187.373 84.8637 204.364 84.5164C274.577 88.4698 340.535 105.57 398.772 123.958C415.714 130.345 429.708 135.595 449.683 139.445C499.425 147.153 546.004 156.666 591.1 169.566C611.227 175.324 616.407 177.792 620.161 188.966C626.756 208.589 620.779 227.816 602.244 245.643C597.611 252.903 591.656 260.218 583.7 267.036C578.372 272.023 577.054 276.732 578.067 282.301C580.207 294.052 584.131 305.093 593.201 316.067C596.324 319.848 599.586 323.117 606.033 325.637C613.728 330.948 621.04 336.324 627.97 341.761C630.023 349.076 632.232 356.403 634.603 363.741C631.149 373.458 626.63 383.216 621.057 393.015C619.383 398.385 616.847 403.577 613.441 408.587C602.692 416.251 586.658 424.368 571.708 430.37C558.205 435.788 540.405 430.891 530.735 425.323L519.761 417.893C498.542 408.638 486.349 396.408 478.963 383.15C475.774 379.569 472.847 375.942 470.18 372.268C470.741 369.424 469.823 366.615 467.435 363.841C463.251 360.024 461.75 356.245 462.933 352.505C460.145 351.895 458.988 350.611 458.113 349.3C456.43 339.788 448.348 331.762 436.955 323.816C435.959 320.777 433.923 317.806 430.844 314.902C430.483 308.641 426.285 304.458 418.098 299.582C413.661 295.908 412.248 293.025 411.356 288.926L407.976 286.717C401.321 274.065 386.67 262.476 365.721 253.597L334.575 236.543C323.722 229.532 312.53 226.55 296.196 224.425C280.175 218.834 263.602 216.028 243.84 214.402C210.511 208.936 165.806 206.894 132.103 212.629C121.742 214.392 103.546 225.467 96.6816 229.965C97.9866 232.665 98.7566 235.417 98.9871 238.219C94.063 244.786 90.8571 251.565 89.3738 258.552C87.6207 266.253 73.2137 273.825 60.9165 278.504C49.263 282.938 37.8618 281.109 24.6337 278.927C22.2151 278.528 5.90721 275.386 5.19817 275.015C4.71968 274.764 4.41953 274.489 4.36733 274.141C2.49251 274.384 1.04398 273.7 0 272.086V245.785C0.200097 245.506 0.426294 245.236 0.752539 244.994C2.58821 243.628 14.4505 242.259 18.4437 242.01C21.8062 217.108 58.2891 199.145 102.571 188.816L105.268 189.021C116.404 185.565 128.214 183.381 140.69 182.464C144.548 180.648 149.659 180.114 156.032 180.862C173.493 179.167 192.693 177.985 210.585 178.234L221.716 179.573C228.459 179.064 234.696 179.306 240.434 180.301C242.352 178.875 244.784 179.012 247.733 180.714C250.073 180.085 252.353 180.003 254.58 180.469C260.622 182.929 267.164 184.295 274.207 184.569C278.274 183.132 280.784 183.599 282.311 185.865C286.326 186.804 290.771 187.373 295.656 187.573L300.037 188.67C304.417 188.115 308.001 188.349 310.781 189.371C317.158 193.359 322.696 194.491 333.196 194.062C335.284 195.159 337.885 196.057 340.987 196.758C342.175 199.445 344.845 199.665 349.008 197.419C354.359 198.188 358.957 199.889 362.798 202.519C367.752 202.934 372.885 203.041 378.201 202.84C383.364 205.061 389.463 206.61 396.496 207.49C397.949 208.908 400.068 209.88 402.852 210.406C440.727 227.627 471.829 249.122 492.099 271.889C492.147 274.731 495.727 277.454 496.706 272.847C498.481 266.033 501.321 259.262 505.223 252.535C507.985 248.469 507.015 245.175 502.309 242.654C499.194 237.839 496.675 232.938 494.753 227.949C489.672 224.395 487.471 222.075 485.305 217.71C484.165 209.446 477.366 203.321 468.257 196.55L465.874 193.577C465.695 191.004 463.868 189.177 460.393 188.099C439.67 186.03 424.367 179.485 409.859 172.178C396.697 164.631 382.49 157.733 367.239 151.484C339.378 143.953 311.103 136.669 282.406 129.629C260.287 125.853 238.128 122.113 215.931 118.412C198.64 115.723 156.702 110.123 139.903 111.673C133.186 113.136 126.622 113.604 120.21 113.074C116.909 114.979 111.732 115.507 104.677 114.66C101.432 115.359 98.4347 115.511 95.6855 115.118C94.1152 116.123 91.8706 116.553 88.9518 116.411C58.3718 120.475 30.6888 128.775 5.19382 137.37C3.16675 138.106 1.43548 138.356 0 138.114V117.155Z" fill="#FF8602"/>
<path d="M1191.45 0C1192.85 0.822449 1192.87 2.06024 1191.51 3.71336C1189.41 15.9761 1196.23 23.1314 1207.57 33.8253C1209.31 40.043 1206.76 46.2525 1199.92 52.4538C1185.08 67.3915 1170.9 82.2984 1159.39 98.0051C1156.03 101.809 1152.49 105.594 1148.12 109.168C1137.03 118.26 1126.64 121.457 1106.13 124.743C1099.84 125.812 1095.55 127.677 1091.02 129.838C1074.48 132.926 1059.48 136.895 1046.02 141.741C1039.07 146.725 1031.4 151.462 1023.01 155.953C1021.66 158.284 1019.24 160.203 1015.76 161.706C1009.66 168.843 1003.06 175.916 995.942 182.923C988.471 190.002 978.555 199.152 963.225 202.664C955.254 207.257 946.134 210.985 935.866 213.849C935.61 213.97 935.418 214.501 935.666 214.682C938.01 216.415 969.527 222.584 975.563 223.324C988.458 224.905 993.672 224.644 1001.84 220.069C1011.46 214.684 1013.16 210.86 1013.59 203.712C1018.46 201.837 1017.39 198.876 1015.09 196.426C1018.54 193.426 1019 190.535 1019.14 187.154C1025.22 179.053 1032.03 171.022 1039.58 163.059L1044.86 160.147C1060.22 145.372 1094.47 137.764 1124.66 131.265C1131.27 130.644 1167.63 123.703 1170.61 120.725C1171.02 120.324 1171.36 116.634 1171.36 115.813C1166.27 96.611 1183.12 79.0291 1204.46 63.1497C1213.39 56.5023 1222.36 50.3832 1237.94 47.3916C1241.83 46.2772 1240.69 43.3102 1239.37 41.5625L1228.56 32.1763C1226.94 30.885 1227.03 29.75 1227.91 28.4053C1225.36 26.4397 1222.93 24.437 1220.62 22.3953L1221.84 19.5003C1216.17 13.959 1217.48 9.57742 1221.02 3.76887C1220.17 1.94509 1220.75 0.688801 1222.77 0H1261.04C1262.58 0.592163 1263.39 1.36527 1264 2.23295C1273.06 14.9871 1281.99 27.0175 1294.36 38.982C1299.89 46.1456 1299.74 50.4922 1293.99 57.4912C1290.76 61.4226 1284.08 68.8657 1278.39 71.9561C1247.44 85.1358 1232.86 105.917 1229.98 125.193C1221.49 139.004 1207.53 153.167 1177.66 159.177C1154.7 163.466 1137.73 168.16 1119.36 176.156C1099.96 184.603 1086.84 191.571 1079.95 203.865C1077.08 215.196 1068.83 225.281 1058.71 235.391C1051.42 242.662 1048.69 245.365 1034.46 249.763C1011.57 256.834 986.888 262.75 959.598 264.434C932.865 272.027 902.336 276.74 871.202 278.635C840.895 280.482 822.886 275.518 802.759 264.975C793.839 260.303 790.969 257.063 788.882 251.162C783.454 250.411 783.841 248.801 785.89 246.745L786.077 245.135C784.028 238.486 784.802 232.118 788.39 226.03C785.911 224.294 787.877 223.233 790.425 221.901C792.569 211.396 804.394 201.422 816.58 192.712L819.463 191.851C824.238 187.866 831.279 185.026 840.738 183.4L863.757 179.948C873.037 176.728 883.527 174.458 894.299 172.361C907.068 169.768 917.331 165.376 922.372 159.127C925.829 154.705 929.165 150.49 935.41 146.904C944.608 138.005 954.232 128.962 973.25 123.865L996.386 117.483C1022.59 106.16 1055.35 98.7638 1087.51 92.178C1095.96 90.1548 1102.35 86.9123 1105.78 82.7528C1109.96 76.6132 1114.85 70.562 1120.16 64.5623C1123.7 59.827 1127.53 54.5798 1123.85 49.6903C1123.15 33.9569 1130.04 19.233 1142.4 4.67974C1142.84 2.20622 1144.7 0.645623 1147.97 0H1191.46L1191.45 0Z" fill="#FF8602"/>
<path d="M0 332.441L1.64765 331.295C22.6454 327.209 45.4733 326.203 67.9274 325.947C70.4401 326.089 71.8878 326.752 73.0094 327.719C78.0393 327.376 92.7681 328.821 96.1069 330.541L98.6414 332.888C101.624 333.357 103.506 334.11 103.915 335.673C108.201 335.434 111.31 336.405 113.24 338.587C118.961 339.141 125.817 339.913 120.93 343.29C123.63 343.926 124.704 345.042 125.825 346.285C131.203 345.454 133.981 346.18 133.79 348.973C136.172 349.57 136.763 350.573 135.572 351.976C138.507 352.777 139.315 354.022 140.233 355.449C144.084 355.912 145.962 357.48 145.867 360.154C150.457 361.15 151.075 361.327 153.492 363.501L157.804 368.982C162.56 370.861 164.825 372.907 167.008 375.579C169.642 375.533 171.546 375.937 172.72 376.787C173.181 381.789 178.228 384.905 184.745 388.641C194.618 397.392 204.152 406.758 210.699 416.104C211.933 416.998 213.742 417.704 216.116 418.224C216.263 420.449 218.141 421.913 221.758 422.617C222.963 425.941 226.093 428.6 231.149 430.593C231.349 432.192 232.857 433.194 235.67 433.604C234.592 435.131 244.234 440.674 245.525 440.569C247.816 440.382 252.407 436.712 250.542 435.269C256.559 430.055 251.173 423.382 246.934 418.171C228.019 397.816 209.803 376.822 191.996 356.282C188.623 351.902 186.497 347.343 185.545 342.739C179.933 335.026 177.711 327.026 185.728 319.439C191.736 306.848 197.244 298.829 223.571 293.531C236.087 292.158 248.882 291.218 261.95 290.709C266.445 290.874 283.365 291.932 285.734 293.118C286.312 295.133 289.707 295.835 295.924 295.221C302.715 296.851 308.862 298.704 308.045 302.921L308.958 303.915C314.205 304.37 316.37 305.377 315.452 306.937C324.13 314.903 331.881 323.208 338.702 331.855C357.952 349.731 375.563 367.979 392.705 386.185C396.97 391.858 402.913 397.147 410.533 402.054C412.646 405.337 416.281 407.96 421.441 409.923C425.393 414.538 428.918 418.368 437.344 421.445L443.569 427.509C448.121 428.217 449.373 428.746 450.559 431C454.663 432.556 457.841 434.546 460.093 436.971C464.958 438.046 468.24 439.47 469.94 441.244C474.879 442.088 476.187 443.006 473.866 444H400.83L398.969 443.782C356.878 420.639 322.273 393.609 292.733 366.067C279.574 355.939 268.258 345.592 258.089 334.903C257.546 336.815 258.32 338.791 260.411 340.833C261.124 349.611 270.17 357.167 279.274 364.563L282.382 369.445C294.003 379.467 304.197 389.908 312.309 400.667C316.674 403.551 319.287 406.838 320.143 410.524C321.426 410.93 322.56 411.292 323.247 412C326.138 414.978 329.077 419.998 330.864 423.255C330.12 424.803 331.068 426.274 333.711 427.666C333.072 430.72 333.711 433.81 335.637 436.934C335.668 437.56 335.55 438.101 335.398 438.721C335.05 440.143 333.551 443.335 331.277 443.998H0V332.439V332.441Z" fill="#FF8602"/>
<path d="M576.435 444L575.231 442.869C581.245 436.458 589.183 430.559 599.051 425.172C600.824 422.668 602.714 420.175 604.726 417.694C618.722 409.092 632.7 400.48 637.028 389.635C650.481 377.705 666.389 363.118 656.104 349.311C651.454 343.071 642.916 337.832 633.396 333.063C618.496 326.401 606.964 320.702 601.485 311.031C593.042 296.131 594.154 285.237 600.094 270.294C603.131 262.648 606.855 253.832 611.266 246.387C617.236 236.303 627.643 230.595 642.147 222.982C652.688 213.843 683.052 205.967 704.088 203.989C714.52 203.009 751.324 206.776 759.563 209.658C762.5 211.399 765.628 212.454 769.448 213.734C770.565 216.712 772.012 219.674 773.78 222.616C772.346 230.032 770.53 237.44 768.327 244.839C767.184 249.4 768.475 252.775 773.437 256.487C776.096 256.728 777.738 257.199 778.316 258.502C779.915 263.207 784.213 267.986 792.786 270.682L796.388 273.032C803.067 275.788 809.298 278.847 815.085 282.207C819.231 282.411 822.307 283.845 824.31 286.511C832.34 288.684 839.618 291.35 846.136 294.513C846.936 295.041 853.766 306.275 853.597 306.916C851.737 314.042 848.882 321.232 844.963 327.933C847.713 330.847 848.8 333.949 848.226 337.236C851.515 338.054 851.95 339.441 849.538 341.396C852.828 346.746 853.288 351.396 852.402 357.155C848.678 381.3 841.821 407.847 805.422 426.249C799.238 429.527 795.923 433.005 793.068 436.939C785.768 439.889 777.578 442.244 768.496 444H652.914C652.323 443.837 651.476 443.546 651.637 443.332C656.973 436.292 665.042 429.928 675.974 424.093C699.043 408.763 719.834 393.199 731.132 375.109C737.602 364.744 741.043 358.697 737.241 348.317C736.303 345.756 728.916 333.511 726.552 331.828C712.465 326.297 701.511 320.903 693.981 312.667C688.792 309.193 681.975 306.427 673.536 304.371C659.671 300.729 655.721 292.03 659.719 285.317C659.98 280.199 661.248 264.008 672.281 261.889C683.313 259.77 705.604 266.888 707.025 272.699C707.255 283.975 720.382 290.528 738.775 296.577L745.58 300.195L773.415 309.732C775.14 311.228 776.148 312.918 776.444 314.796L779.52 316.416C783.856 323.107 784.039 330.005 782.284 336.956C784.343 348.796 782.588 360.253 774.406 371.57C768.822 387.789 758.963 402.543 737.919 415.799C729.82 423.069 731.597 422.833 743.251 415.094L748.76 412.354C752.358 406.194 758.733 400.634 767.875 395.678C783.396 380.645 793.142 363.852 794.124 347.022C786.438 334.214 787.706 320.62 792.056 307.6C778.442 304.141 767.884 301.165 756.603 296.121C741.595 289.41 728.673 283.182 719.795 274.429C711.231 265.988 704.444 258.541 706.434 248.971C700.086 248.827 694.545 248.379 689.023 246.646C687.367 246.278 686.038 246.424 684.678 247.002C683.092 247.674 681.718 248.516 680.445 249.341C672.659 254.393 664.781 260.095 658.133 265.367C651.519 273.003 645.923 279.881 648.165 288.279C649.438 293.05 651.272 299.317 658.224 302.809C658.354 305.798 661.448 308.297 667.497 310.305C672.802 314.017 677.439 316.938 686.394 318.694C687.576 320.971 689.457 322.28 693.099 323.984C698.721 325.304 703.957 326.716 703.353 330.046C707.29 330.015 707.863 330.806 707.777 332.492L711.17 336.227C716.363 338.638 718.744 341.871 718.318 345.922L720.79 348.123C724.466 366.828 720.525 385.103 700.785 401.974C691.4 409.995 678.877 419.538 667.462 426.917C658.324 432.826 648.434 439.019 637.276 443.994H576.443L576.435 444Z" fill="#FF8602"/>
<path d="M893.664 0C896.353 1.72311 894.047 5.28846 892.674 7.39563C885.15 18.9358 876.758 30.137 865.446 40.9892C852.349 53.5521 834.665 65.6159 817.177 76.9158C802.725 86.2563 786.135 96.6135 763.929 101.686C758.756 104.948 752.292 107.203 745.072 109.546C741.154 112.06 736.389 113.555 730.772 114.029C729.156 116.303 725.759 117.932 720.581 118.911C717.319 121.031 714.739 122.579 708.683 122.92C694.414 130.135 675.969 136.516 656.343 139.868L654.471 141.546C650.058 142.487 648.707 143.423 650.414 144.353C664.736 149.108 672.955 153.984 677.364 162.256C675.765 166.429 680.839 166.041 687.611 165.329C699.487 163.893 711.507 162.731 723.674 161.843C727.836 159.557 731.571 158.099 737.188 156.736C747.083 151.188 761.709 146.654 775.275 143.177C788.611 141.501 802.273 140.492 816.26 140.151C829.518 139.32 845.243 137.89 851.659 131.659C852.758 128.369 855.664 125.767 860.377 123.857C867.154 113.374 879.851 103.923 896.093 96.0877C899.151 93.0831 903.964 90.559 910.523 88.5155C912.747 86.6239 916.196 85.1021 920.87 83.9499C937.164 72.8596 962.263 66.9344 988.879 63.135C998.036 61.8965 1005.38 59.7237 1010.89 56.6204L1022.77 54.6755C1037.22 52.1596 1039.16 44.2095 1040.67 37.8798C1043.81 36.056 1045.5 34.8422 1042.62 32.5892C1042.71 30.8004 1044.01 29.0691 1046.53 27.3973C1044.86 24.6001 1046.09 22.6449 1049.09 20.2173C1047.36 19.5519 1046.21 18.679 1046.62 17.5638C1049.75 12.146 1052.84 6.58028 1054.93 0.998133L1056.98 0.0102689H1109.11C1109.91 1.95108 1109.7 4.02334 1108.45 6.22087C1107.25 29.8208 1102.02 55.3491 1070.72 74.8209C1065.31 78.1871 1059.1 81.5511 1050.92 83.0956C1047.39 85.2356 1042.48 86.7431 1036.2 87.62C1027.73 91.3353 1018.49 94.5022 1008.47 97.1208C987.88 100.456 971.403 106.318 955.752 113.321C943.932 118.609 931.105 125.005 921.683 131.098C910.614 143.84 894.003 157.674 871.463 166.651C853.548 171.007 834.631 174.404 814.705 176.838C804.94 178.023 797.286 180.241 791.743 183.492L774.88 186.702C765.541 191.218 754.898 194.143 742.952 195.474L721.954 196.495C706.194 199.472 700.569 200.477 684.201 197.201C653.624 191.083 630.528 182.252 610.172 169.459L583.526 155.768C578.574 153.117 572.406 147.401 574.782 143.889C570.538 142.801 570.217 140.973 573.813 138.41C572.584 135.923 574.404 134.54 577.284 132.552C576.958 129.174 579.547 126.716 583.066 123.791C593.939 114.752 609.746 106.122 625.141 98.7843C634.159 92.7668 647.061 86.2892 662.616 84.4469L671.143 82.2207C693.08 74.0364 714.196 66.6017 740.533 61.8493C759.342 57.8136 770.693 50.455 781.409 42.3878C790.049 35.8855 798.407 28.5782 806 21.8603C810.04 18.2868 814.388 14.4154 817.338 10.6344C818.784 8.77782 819.01 7.85362 818.458 5.95594C822.485 4.97629 823.202 3.22647 820.608 0.706497L822.403 0.00821508H893.643L893.664 0Z" fill="#FF8602"/>
<path d="M1121.51 443.996C1119.81 441.71 1120 439.158 1122.09 436.336C1126.15 429.607 1130.48 422.913 1135.06 416.255C1136.94 408.137 1141.59 400.399 1149.02 393.039C1163.52 381.994 1177.66 370.773 1191.48 359.564C1212.19 342.775 1223.37 324.859 1216.22 305.462C1209.64 287.625 1196.75 267.515 1161.15 258.495L1124.17 247.261C1101 239.673 1096.81 234.241 1096.93 220.774C1097.04 208.374 1099.89 195.881 1120.3 187.064C1158.57 170.528 1214.27 164.722 1264.74 168.695C1287.64 170.499 1307.05 173.008 1324.79 179.515C1337.53 181.159 1349.86 186.267 1358.21 191.031C1358.07 192.773 1359.79 193.789 1363.37 194.08L1369.55 198.271C1372.17 198.77 1373.16 200.041 1372.52 202.083C1378.21 203.736 1380.98 205.81 1380.83 208.307C1391.1 214.867 1394.68 222.788 1398.1 230.848C1401.6 242.265 1406.37 253.858 1412.74 264.796C1411.68 267.938 1412.15 270.707 1413.26 273.837C1402.86 303.21 1397.67 317.896 1397.67 317.896C1393.39 330.476 1387.29 343.235 1372.28 353.717C1357.06 372.16 1336.47 389.999 1315.36 406.805C1296.05 417.184 1279.83 429.248 1274.02 443.209L1271.87 444H1236.23C1235.58 443.868 1234.61 443.653 1234.66 443.406C1236.56 433.726 1241.83 423.407 1247.42 413.731C1252.38 405.138 1261.37 399.32 1274 392.704C1279.61 389.132 1283.15 385.792 1286.19 381.612C1301.44 368.699 1316.39 355.792 1326.27 341.605C1338.64 329.574 1348.05 316.91 1349.87 303.496C1352.54 283.838 1336.95 258.495 1321.9 240.191C1311.08 227.036 1297.78 217.15 1277.45 207.335C1263.51 203.746 1249.2 200.464 1234.52 197.488C1218.57 190.583 1197.73 195.932 1182.32 200.762C1174.37 203.255 1150.87 211.757 1149.47 216.116C1148.11 220.391 1150.09 228.974 1156.96 232.141C1173.93 236.204 1190.37 241.862 1206.08 247.273C1215.08 248.55 1223.71 250.899 1231.84 253.429C1257.42 261.391 1279.16 277.456 1287.24 291.337C1290.38 296.732 1290.18 300.055 1288.79 305.898C1285.34 320.357 1280.82 334.985 1267.43 348.213C1243.33 369.427 1217.67 390.277 1190.63 410.747C1177.8 420.805 1166.2 431.389 1159.53 442.67L1157.14 443.998H1121.5L1121.51 443.996Z" fill="#FF8602"/>
<path d="M801.893 0.00411115C806.011 0.117168 802.91 3.59314 801.697 4.82649C780.628 26.2024 752.988 46.4313 717.033 62.8163C703.165 65.7681 689.289 69.1125 675.395 72.8516C654.912 76.9484 634.748 81.4028 614.9 86.2108C607.93 86.8645 601.998 88.8974 597.11 92.3097C575.632 105.757 553.58 119.158 525.522 130.032C497.482 136.944 467.642 134.572 442.346 126.149C440.497 123.711 437.314 122.029 432.8 121.108C397.567 109.632 360.152 99.4405 323.158 89.6559C309.442 88.4575 295.374 87.7648 280.958 87.5819C260.259 85.0926 239.372 83.0822 218.298 81.5508C192.085 81.0266 166.28 79.5281 141.088 77.0511C127.177 76.64 114.126 78.5846 101.933 82.889L82.007 86.0505C64.208 90.472 45.8175 93.8986 26.8443 96.3304L15.3551 99.239C11.1326 99.9544 1.97429 100.951 0 98.6717V53.8602L0.934962 52.7543L20.9301 48.4355C50.6662 38.7085 83.803 32.476 120.445 34.9489L215.772 41.502C256.367 40.1454 293.421 47.8373 327.932 58.0165L373.498 71.9985C393.162 76.897 414.34 80.3915 437.04 82.4779C457.605 86.589 479.327 88.3404 495.238 79.8529L513.429 71.2339C531.663 61.1348 553.623 53.2435 578.324 47.7921C590.613 45.3151 602.894 42.7724 615.161 40.1639C640.588 37.0826 667.041 32.9385 689.906 26.5745C710.384 20.8744 721.251 13.9245 733.536 4.65588C735.858 3.13681 739.69 0.912675 742.747 0H801.888L801.893 0.00411115Z" fill="#FF8602"/>
<path d="M782.548 444C782.63 443.455 783.008 442.969 783.725 442.547L808.538 435.412C837.759 426.29 846.534 418.369 852.745 401.802C855.179 389.84 858.973 378.043 864.132 366.41C862.802 362.991 864.775 360.676 867.609 357.643C872.446 346.943 877.167 336.101 881.017 325.356C883.821 322.837 884.981 320.086 884.507 317.103C887.902 314.116 889.862 310.794 890.388 307.134C896.364 298.064 908.773 289.745 920.434 281.981C923.15 278.798 927.849 276.668 933.994 274.744C944.208 271.548 955.209 269.553 966.639 267.617C973.141 265.951 978.544 264.794 986.098 265.016C996.907 262.13 1005.46 260.737 1018.33 260.182C1065.09 258.162 1112.28 264.122 1145.77 279.069L1145.29 280.6C1147.54 280.945 1155.49 284.697 1156.38 285.553C1156.64 287.448 1157.01 289.317 1157.48 291.162C1163.81 292.605 1165.47 294.511 1162.46 296.884C1163.56 299.21 1165.24 301.486 1167.51 303.716L1167.1 306.707C1170.35 308.585 1170.8 310.923 1168.46 313.719C1168.04 344.813 1146.04 376.391 1125.28 405.968C1118.54 415.475 1114.5 425.306 1112.75 435.231C1112.45 438.525 1110.75 441.448 1107.65 444H1040.72C1038.38 438.469 1039.07 432.192 1039.84 426.471C1041.62 413.352 1047.73 400.787 1054.16 388.044C1061.87 372.773 1070.73 357.526 1079.95 342.466C1082.77 334.552 1081.18 325.975 1078.9 318.065C1076.62 310.138 1072.6 307.268 1058.25 302.746C1040.12 297.03 1033.87 298.569 1017.5 304.042C993.113 312.195 979.504 320.968 973.107 335.444C965.796 360.55 954.7 384.71 938.884 408.849C930.404 421.788 924.376 425.517 902.827 434.066L881.93 441.582C879.531 442.726 877.353 443.704 873.82 444H782.548Z" fill="#FF8602"/>
<path d="M6.95992 288.744L7.60371 287.797C20.9798 285.475 39.802 283.103 53.7436 284.481C63.3352 283.647 71.3522 284.16 79.3126 286.904C84.9936 285.298 87.4296 287.534 87.2556 289.993C89.1565 289.898 90.6833 290.089 91.8317 290.565C95.2856 288.346 95.3508 286.425 92.0188 284.801C90.7747 280.057 92.4842 274.966 94.1024 270.276C93.8371 265.374 95.738 260.334 98.6089 255.529L101.697 253.378C95.9772 247.77 100.932 244.279 108.096 239.36C127.775 225.852 165.85 222.114 198.327 220.956C203.19 221.837 207.949 221.935 212.595 221.249C221.543 221.736 230.151 223.266 238.416 225.839C243.962 225.16 248.952 226.201 253.38 228.967C265.895 230.922 277.357 233.651 287.775 237.155C292.764 237.377 296.197 238.44 298.063 240.35C303.987 240.315 307.119 241.829 307.454 244.891C313.035 245.453 317.107 247.226 319.66 250.204C325.006 252.044 328.343 253.828 330.252 256.853C334.846 258.19 338.487 260.108 341.175 262.609C343.942 263.32 346.83 263.946 349.844 264.489C349.383 265.821 350.232 266.758 352.389 267.296C353.481 269.249 355.565 270.306 358.649 270.471C388.389 289.914 410.248 312.519 428 335.312C444.343 352.815 459.18 370.591 473.039 388.538L484.732 396.132C503.646 412.465 524.999 428.635 549.925 442.979L549.842 444H499.383L496.207 443.351C486.916 437.116 477.181 431.148 466.332 425.328C453.317 414.469 439.245 403.987 422.523 394.21C384.322 364.519 354.977 332.371 327.842 300.168C321.57 292.219 310.791 286.089 296.91 280.821C287.153 274.356 277.709 271.73 261.071 270.828L246.929 268.13C228.581 265.363 223.683 268.286 215.288 275.457C206.705 280.024 199.262 285.006 192.964 290.403C180.492 296.24 172.336 302.117 167.699 310.052C163.615 314.357 155.097 316.644 146.724 318.813C134 322.107 115.026 326.943 100.519 326.044C75.763 324.51 58.8678 320.661 43.4342 311.011L39.7542 309.765L1.62688 317.246L0 316.673V289.565C0.82649 288.567 5.21124 287.869 6.95992 288.744Z" fill="#FF8602"/>
<path d="M1678 338.488C1676.48 338.953 1675.75 338.756 1674.9 338.11C1666.07 330.612 1659.58 325.343 1644.33 319.961C1627.42 313.999 1608.02 309.236 1587.34 307.314C1570.65 308.39 1555.71 308.16 1539.49 306.115C1522.75 307.637 1505.89 308.845 1488.89 309.738C1461.35 310.534 1442.1 295.517 1432.98 285.071C1432.1 279.654 1432.04 274.22 1432.81 268.77C1430.29 262.413 1430.74 256.695 1434.49 250.542C1432.74 242.203 1430.73 233.831 1428.46 225.429C1426.81 221.127 1423.92 217.372 1420.14 213.553L1412.54 200.209C1409.68 195.779 1405.33 191.572 1398.84 188.062C1384.05 180.871 1369.73 173.561 1355.91 166.129C1331.12 156.838 1306.29 147.625 1281.43 138.49C1259.84 128.359 1240.35 112.439 1252.52 97.8538C1271.03 75.6686 1349.21 63.3466 1395.22 71.3871L1410.2 71.8212C1411.89 72.3932 1413.51 72.9487 1415.05 73.4856C1421.08 72.1895 1423.12 72.8643 1427.99 74.7962L1432.9 74.7901C1443.84 77.4112 1453.86 79.1312 1466.03 80.4171C1494.29 89.6632 1524.61 101.518 1537.43 117.124C1541.16 119.045 1543.04 121.603 1543.08 124.8L1545.04 135.628C1545.9 138.751 1547.57 140.303 1551.15 142.802C1562.76 156.161 1575.39 168.296 1593.23 180.038C1597.68 182.974 1601.77 185.087 1608.5 186.467C1614.34 189.564 1619.92 190.907 1628.33 191.911C1643.75 197.022 1660.42 201.809 1676.04 194.425L1678 194.876V224.091C1677.59 224.443 1677 224.659 1676.19 224.7C1653.57 225.813 1638.02 226.073 1615.13 223.106C1589.58 219.795 1560.57 212.693 1555.87 199.351L1553.74 197.359C1525.62 179.554 1501.49 159.2 1486.05 138.22C1485.47 126.898 1482.32 117.813 1464.36 109.192C1436.38 95.7635 1374.76 88.0934 1336.04 89.3217C1308.63 90.1919 1287.57 98.0184 1293.49 112.021C1298.03 122.759 1314.9 128.752 1334.17 133.167C1339.71 136.618 1346.95 139.5 1355.87 141.813L1360.25 144.21C1371.4 147.259 1382.04 150.633 1392.19 154.332C1405.13 162.313 1419.15 169.835 1434.24 176.898C1454.4 187.391 1463.32 197.579 1471.29 211.529C1475.92 216.833 1479.55 221.756 1479.89 227.404C1483.47 235.921 1486.18 244.415 1484.79 253.126C1482.07 260.695 1480.09 268.752 1479.06 276.549C1478.64 279.701 1478.51 282.22 1479.49 285.345C1480.49 288.559 1488.42 293.211 1494.88 294.073C1501.35 293.534 1507.82 293.291 1514.3 293.344C1525.66 292.007 1537.13 290.984 1548.71 290.275C1571.16 291.149 1593.69 291.844 1616.55 292.141C1622.63 292.219 1628.27 291.988 1633.92 291.205C1639.22 291.447 1644.41 292.515 1649.49 294.404C1656.3 293.805 1667.96 292.98 1674.12 294.98C1675.57 295.453 1677.58 296.513 1678 297.338V338.486L1678 338.488Z" fill="#FF8602"/>
<path d="M274.711 0C302.729 6.70461 329.718 14.4026 355.676 23.092C382.226 30.7468 427.314 42.1362 455.302 31.0745C470.733 23.7186 488.202 18.5495 508.714 14.516L518.49 11.41C533.738 9.90954 544.244 7.66712 555.498 2.40731L566.808 0H704.163C705.606 0.311219 705.745 0.570912 705.619 1.17686C704.719 5.51744 669.172 20.8063 661.483 23.7701C657.675 25.2376 642.119 30.8622 637.398 31.9216C635.294 32.3936 633.834 32.6615 631.404 32.6409C619.125 38.1872 607.458 41.1324 590.076 42.6123L580.843 45.337C552.894 48.8882 525.549 54.0717 501.395 61.6708C464.252 80.1337 402.234 71.4814 364.178 58.2557C332.982 53.2535 305.868 46.2315 279.062 36.6744C266.382 32.5749 253.764 29.9904 238.837 28.5167C210.614 25.7302 182.483 25.1242 153.92 26.0826C103.099 22.653 51.7516 25.724 1.55611 30.4047L0 29.6792V0H274.711Z" fill="#FF8602"/>
<path d="M0 138.949C8.05923 136.548 16.7267 134.564 26.0024 132.992L61.2327 124.354C75.6177 120.43 90.0852 118.764 106.251 118.171C124.147 113.968 139.822 113.502 159.473 115.868C202.793 116.755 241.377 123.355 276.043 135.965C289.016 141.028 302.64 145.531 316.921 149.475C357.626 157.973 393.403 170.473 421.878 186.71C431.762 190.223 440.864 193.71 447.107 199.052L461.444 209.943C473.157 215.57 483.032 220.353 489.223 227.743C491.265 230.181 495.236 235.917 489.61 237.503C486.782 241.043 478.683 243.182 471.602 240.89C467.088 241.446 464.099 240.06 462.639 236.736C425.34 210.429 370.707 192.066 307.789 181.22C294.181 178.875 276.103 176.43 261.949 177.032C257.469 175.505 252.199 174.955 246.143 175.382C209.027 171.3 170.282 170.896 133.166 173.348C122.961 174.971 112.616 175.874 102.137 176.061C94.23 176.775 69.1486 182.033 62.4927 184.259C57.5572 185.911 45.4792 193.074 43.0159 195.682L29.7692 212.407C23.9083 219.2 14.4284 225.506 1.72915 229.789L0 229.245V138.949Z" fill="#FF8602"/>
<path d="M1664.81 444H1608.38L1606.4 442.98C1608.28 429.119 1603.37 415.129 1597.35 401.405C1592.38 390.085 1587.9 378.79 1583.91 367.519C1583.62 363.512 1583.63 359.565 1583.92 355.677C1580.99 351.96 1547.18 341.093 1539.48 341.331C1533.09 341.528 1502.17 352.857 1495.3 355.389C1470.19 364.651 1449.15 374.985 1429.02 386.802C1452.63 386.57 1479.48 388.64 1494.72 398.26C1501.46 402.517 1505.48 406.298 1500.96 411.309C1504.13 423.4 1463 430.293 1443.67 432.81C1419.74 435.051 1395.76 437.189 1371.73 439.22C1363.92 441.286 1355.69 442.879 1347.04 444H1286.26C1286.04 443.718 1285.85 443.437 1285.77 443.147C1285.2 440.933 1296.58 434.561 1300.36 432.736C1325.57 420.55 1361.55 416.105 1396.39 414.573C1401.78 414.837 1436.75 408.465 1437.38 407.065C1437.69 406.368 1428.79 406.189 1427.7 406.389L1394.12 408.379C1381.65 409.01 1361.54 408.667 1359.71 401.21C1356.44 399.744 1355.03 398.219 1355.47 396.635C1348.26 394.399 1353.5 388.436 1356.28 385.342C1364.09 376.652 1376.6 369.695 1390.72 362.916C1403.76 357.24 1415.68 351.249 1426.48 344.947C1440.89 339.598 1456.37 334.97 1471.91 330.422C1492.09 322.439 1507.98 317.762 1534.72 317.491C1545.54 317.382 1558.76 317.456 1569.58 317.688C1588.58 318.097 1610.21 321.051 1626.55 325.679C1631.89 327.194 1634.42 328.671 1637.16 331.171C1644.34 333.527 1648.21 336.502 1648.79 340.095C1653.53 344.318 1657.17 348.516 1658.25 353.358C1660.98 365.669 1663.27 378.307 1665.27 390.398L1664.11 393.062C1671.43 409.349 1669.74 426.858 1666.31 443.217L1664.82 444H1664.81Z" fill="#FF8602"/>
<path d="M1678 282.225C1677.39 282.984 1675.97 283.201 1673.73 282.871C1665.49 281.071 1657.45 280.668 1649.61 281.661C1636.44 284.168 1624.3 285.937 1609.7 284.847C1592.49 285.717 1575.42 286.25 1558.23 286.085C1523.88 285.758 1509.17 278.635 1492.92 265.463C1484.13 258.344 1484 251.799 1485.19 243.53C1486.98 237.941 1485.54 232.425 1480.87 226.977C1479.44 215.794 1476.91 205.55 1466.24 195.345C1462.03 189.08 1457.55 183.366 1450.76 177.658C1444.82 172.671 1439.92 169.095 1429.26 166.237C1421.99 161.832 1413.76 157.935 1404.56 154.546C1385.31 149.506 1371.32 142.275 1357.15 134.453C1344.01 129.079 1333 124.025 1322.87 117.404C1320.95 116.147 1315.1 112.223 1314.96 110.896C1314.36 104.825 1344.52 99.0081 1355.35 98.574L1392.29 100.045C1406.51 100.677 1419.95 101.356 1432.38 104.397C1439.19 104.164 1442.77 105.337 1443.12 107.913C1445.7 108.047 1448.23 108.304 1450.71 108.683C1462.35 115.207 1474.16 122.402 1477.49 131.264C1478.84 139.506 1483.07 147.137 1490.17 154.158L1491.54 160.511C1512.36 175.01 1528.41 191.222 1541.4 207.698C1546.2 215.15 1574.34 231.549 1589.85 233.088C1618.37 235.921 1647.52 237.363 1676.3 237.849L1678 238.6V282.219V282.225Z" fill="#FF8602"/>
<path d="M1030.75 0L1032.08 0.673835C1032.17 6.79176 1032.78 12.7679 1034.58 18.9434C1036.14 37.3547 1006.97 51.2998 974.954 59.7104C937.685 68.5565 903.912 78.6866 882.14 96.2043C866.617 107.655 850.303 118.878 831.958 129.44L801.128 133.701C785.687 135.985 770.62 139.063 757.75 143.784C738.909 147.11 720.39 150.906 703.416 156.052C700.537 156.736 697.524 155.099 696.165 154.06C661.844 144.614 695.04 131.012 715.57 124.168C735.353 119.189 752.279 112.941 768.032 105.307C793.872 96.0872 816.07 85.8544 830.625 72.1188C852.349 60.1356 870.681 46.9589 885.627 32.5926C892.318 28.0463 898.011 23.161 902.9 18.0847C910.199 13.9656 914.846 9.76033 918.884 4.73328C920.551 3.25002 924.42 0.659454 927.403 0.00205437H1030.75L1030.75 0Z" fill="#FF8602"/>
<path d="M1440.36 0C1475.97 11.6005 1515.7 19.6484 1557.58 25.142C1576.1 28.0956 1591.81 33.2804 1606.76 39.0251C1635.84 50.1996 1645.8 56.9301 1652.6 74.6952C1656.47 88.0329 1659.32 101.321 1661.15 114.56C1661.92 119.716 1666.31 124.477 1673.93 128.034L1678 133.789V156.43C1675.88 158.243 1668.73 157.261 1665.09 156.615C1641.04 149.469 1616.01 140.071 1613.64 125.325C1612.64 119.313 1610.8 113.377 1608.12 107.517C1595.07 92.3862 1577.14 79.668 1552.65 67.977C1537.7 60.8409 1523.26 57.8152 1502.4 55.7878C1494.54 54.7813 1487.82 53.0132 1482.02 50.4157C1475.73 49.8867 1470.34 49.3557 1464.27 48.0178C1447.79 44.3808 1430.98 39.9904 1415.95 35.4355C1402.73 33.5398 1393.38 31.0842 1385.34 25.5577C1369.91 19.175 1357.72 10.9995 1352.91 1.34612L1354.17 0H1440.35L1440.36 0Z" fill="#FF8602"/>
<path d="M1325.17 0.00205757L1327.14 0.372419C1337.37 16.0223 1359.09 26.6084 1389.82 33.7667C1424.49 41.8427 1460.44 48.7746 1496.66 55.151C1549.14 65.5355 1582.92 83.996 1596.55 110.356C1605.24 125.948 1614.5 141.289 1624.37 156.377C1633.35 161.939 1645.78 163.424 1660.16 164.412C1665.56 165.453 1671.03 166.091 1676.57 166.323L1678 167.076V187.652L1677.32 188.553C1646.68 190.263 1599.85 182.759 1584.96 169.282C1577.13 162.204 1570.67 154.836 1565.63 147.204C1548.94 118.386 1529.25 88.4136 1465.26 77.418C1445.78 75.3501 1427.72 72.1259 1411.08 67.7495C1391.67 64.0315 1372.53 60.046 1353.64 55.7971C1318.11 47.5421 1299.36 35.0671 1286.29 17.7712C1283.28 13.8001 1276.83 4.78178 1278.14 0.964999C1278.26 0.627558 1278.64 0.310692 1279.11 0H1325.17V0.00205757Z" fill="#FF8602"/>
<path d="M1175.99 444C1175.32 443.959 1174.31 443.866 1174.25 443.638C1172.24 435.727 1177.39 427.425 1186.89 420.8C1200.04 411.467 1211.87 401.692 1222.39 391.473C1244.87 376.555 1263.85 360.089 1282.03 343.782C1287.96 337.726 1293.18 331.656 1297.68 325.576C1297.17 320.059 1298.02 314.882 1301.26 309.457C1302.83 305.931 1302.08 302.267 1299.5 298.846C1283.64 277.794 1261.1 258.585 1229.34 242.522C1221.38 240.293 1213.61 237.926 1206.03 235.423C1190.23 232.466 1175.61 228.488 1174.92 219.571C1174.69 216.635 1179.75 207.376 1185.57 206.237C1187.94 205.773 1207.14 205.89 1210.45 206.124C1228.64 207.403 1240.59 210.577 1255.7 215.357C1277.43 219.908 1293.44 228.118 1307.41 237.321C1313.89 241.591 1317.69 245.029 1319.14 249.953C1346.84 268.525 1348.28 296.086 1335.18 317.397C1327.54 329.825 1318.99 342.555 1309.85 354.819C1302.57 360.751 1294.94 366.585 1286.96 372.32C1283.29 378.789 1277.62 384.887 1269.96 390.614C1246.98 406.455 1224.9 423.264 1221.48 442.843L1219.49 443.996H1175.99L1175.99 444Z" fill="#FF8602"/>
<path d="M924.213 444L922.705 443.385C928.698 438.001 934.238 432.361 939.323 426.465C948.148 420.034 953.963 413.108 956.948 405.626L962.767 391.186C974.46 375.676 982.182 360.178 984.898 343.519C986.271 340.03 987.758 336.449 991.464 333.466L991.438 331.866C1002.94 319.128 1019.63 310.172 1050.59 316.714C1057.42 318.158 1059.95 319.155 1063.26 322.543C1068.09 327.475 1067.39 331.671 1064.32 336.797C1056.67 348.081 1049.31 359.551 1044.16 371.239C1037.87 393.529 1023.55 414.483 1007.98 435.56L1004.39 443.591L1002.43 444H924.209H924.213Z" fill="#FF8602"/>
<path d="M1438.09 444C1437.28 443.838 1436.56 443.561 1436.62 443.173C1436.77 442.147 1450.86 438.718 1453.79 438.008C1477.12 433.56 1498.96 426.928 1515.8 418.194C1518.11 416.996 1522.71 413.83 1521.36 412.163C1519.3 409.631 1512.36 403.68 1508.16 401.92C1498.04 398.814 1489.38 394.796 1482.2 389.864C1467.12 386.11 1454 382.822 1467.4 374.161L1480.16 366.952C1495.12 355.532 1519.51 342.927 1549.78 350.808C1569.61 355.969 1581.42 362.882 1584.01 373.636C1587.98 377.018 1589.4 380.368 1588.28 383.683C1590.92 387.095 1592.16 390.221 1590.85 393.936C1585.34 410.437 1581.09 426.969 1578.08 443.536L1576.05 444H1438.09Z" fill="#FF8602"/>
<path d="M1476.52 0H1678V97.506C1676.35 98.047 1674.93 97.6438 1673.72 96.2944C1667.4 88.0311 1661.98 79.5003 1657.47 70.7042C1653.83 67.0426 1651.12 63.2884 1649.32 59.4416C1651.07 54.3606 1649.77 52.4064 1641.63 48.2943C1627.7 35.816 1608.34 26.6907 1580.79 21.2518C1556.21 17.2322 1531.33 13.5315 1506.17 10.1476C1498.91 8.936 1491.75 7.33352 1485.72 5.03575C1482.59 3.84264 1477.35 1.66213 1476.53 0.00205709L1476.52 0Z" fill="#FF8602"/>
<path d="M512.735 0C512.861 0.316217 512.957 0.632434 512.935 0.948651C512.613 5.46809 486.825 15.3098 477.919 17.9854C466.667 21.3652 433.944 26.3672 421.195 26.3138C404.174 26.2419 384.169 21.4987 369.306 17.7246C356.705 13.6733 343.478 10.4208 329.634 7.96703C322.389 7.56868 299.512 5.67959 297.206 1.71045C296.679 0.802863 296.488 0.414778 298.663 0.00205336H512.731L512.735 0Z" fill="#FF8602"/>
</svg>
