<svg width="317" height="288" viewBox="0 0 317 288" fill="none" xmlns="http://www.w3.org/2000/svg">
<path d="M253.261 -921.961L203.132 -47.3366L203.424 -34.5598C203.544 -31.0889 207.803 -29.0307 211.356 -30.7593L269.397 -59.1317C274.248 -61.4951 279.38 -56.9135 276.542 -52.7824L242.089 -3.4932C240 -0.474004 242.239 3.27816 246.26 3.46045L311.834 6.19304C317.317 6.42667 318.723 12.7607 313.741 14.9505L254.468 41.1927C250.841 42.8066 250.348 47.0895 253.547 49.1073L305.883 82.0764C310.242 84.8343 307.4 90.9149 301.935 90.5003L236.623 85.3632C232.636 85.0558 229.548 88.4946 230.905 91.709L241.95 117.693L255.21 145.97L168.503 287.847L159.847 184.391L143.473 286.834L70.1165 149.039L81.5792 125.051L93.1723 100.399C94.2347 97.0136 90.7953 93.9944 86.887 94.8043L22.4877 108.138C17.0812 109.258 13.6763 103.563 17.7469 100.286L66.5783 60.9141C69.5643 58.4884 68.6655 54.305 64.9109 53.158L3.47742 34.5808C-1.67992 33.0041 -0.903877 26.5368 4.50379 25.6169L69.4151 14.5983C73.3741 13.9197 75.2652 9.9021 72.8788 7.19614L33.9177 -37.4494C30.6546 -41.1664 35.3433 -46.366 40.4017 -44.6507L100.778 -23.7994C104.457 -22.5304 114.827 -24.3842 114.6 -27.8447L114.568 -89.2378L114.571 -89.4745L90.2631 -780.477L253.199 -921.983L253.261 -921.961Z" fill="white"/>
</svg>
