<svg width="1020" height="1506" viewBox="0 0 1020 1506" fill="none" xmlns="http://www.w3.org/2000/svg">
<path d="M404.944 354C428.544 401.6 345.111 426.166 300.444 432.5C292.111 400.166 271.744 331.9 256.944 317.5C238.444 299.5 198.945 314 195.445 290C191.945 266 247.945 277.5 268.444 252.5C288.944 227.5 231.944 260.5 206.944 235.5C181.944 210.5 206.944 152 206.944 161.5C206.944 171 218.444 194.5 256.944 194.5C295.444 194.5 250.444 161.5 231.944 144C213.444 126.5 206.944 130.5 206.944 88.4998C206.944 46.4998 234.445 48.4998 226.445 56.4998C218.445 64.4999 227.445 81.4998 250.444 118C273.444 154.5 289.944 84.9998 268.444 81.4998C246.944 77.9998 250.444 56.4998 250.444 19.9998C250.444 -16.5002 284.444 2.99981 275.444 30.4998C266.444 57.9998 321.944 57.4998 344.944 56.4998C367.944 55.4998 384.444 118 361.944 138.5C339.444 159 358.444 89.4999 300.444 118C242.444 146.5 340.444 164.5 370.944 175C401.444 185.5 404.944 236.5 404.944 246.5C404.944 256.5 371.944 292.5 370.944 260.5C369.944 228.5 334.444 240 321.944 272C309.444 304 375.444 294.5 404.944 354Z" fill="#0055FF"/>
<path d="M277.218 1505.41L301.11 629.891L300.435 617.126C300.212 613.66 295.893 611.706 292.392 613.52L235.223 643.291C230.445 645.771 225.177 641.316 227.89 637.118L260.854 587.01C262.851 583.941 260.501 580.245 256.475 580.16L190.843 579.021C185.355 578.92 183.76 572.623 188.674 570.313L247.139 542.641C250.717 540.939 251.081 536.646 247.822 534.707L194.517 503.02C190.077 500.369 192.736 494.222 198.212 494.504L263.653 498.053C267.649 498.264 270.632 494.751 269.179 491.571L257.359 465.864L243.257 437.92L325.68 293.989L337.433 397.197L350.731 294.394L428.191 430.358L417.451 454.615L406.601 479.54C405.641 482.95 409.17 485.884 413.052 484.98L477.028 470.087C482.399 468.836 485.974 474.447 482.003 477.821L434.369 518.365C431.457 520.862 432.481 525.022 436.269 526.077L498.237 543.156C503.439 544.607 502.858 551.091 497.479 552.142L432.922 564.732C428.985 565.507 427.215 569.569 429.681 572.216L469.967 615.899C473.34 619.536 468.809 624.847 463.701 623.255L402.722 603.878C399.006 602.698 388.695 604.803 389.026 608.257L390.898 669.627L390.902 669.864L435.915 1360.02L277.28 1505.44L277.218 1505.41Z" fill="white"/>
</svg>
