<svg width="1387" height="1487" viewBox="0 0 1387 1487" fill="none" xmlns="http://www.w3.org/2000/svg">
<path d="M671.056 320.324C663.456 362.724 721.222 390.658 751.055 399.324C751.055 378.824 782.056 362.324 828.556 320.324C875.056 278.324 815.556 281.824 798.056 249.324C780.556 216.824 828.556 213.824 860.556 170.324C892.556 126.824 814.056 110.824 828.556 147.824C843.056 184.824 782.056 147.824 751.055 133.324C720.055 118.824 782.056 122.324 782.056 78.8243C782.056 35.3243 709.556 56.3243 709.556 11.3243C709.556 -33.6757 671.056 69.3243 709.556 78.8243C748.056 88.3243 732.056 120.824 680.556 110.824C629.056 100.824 627.556 147.824 616.056 170.324C604.556 192.824 653.056 165.824 690.056 147.824C727.056 129.824 751.055 167.324 782.056 191.324C813.056 215.324 751.055 234.824 751.055 213.824C751.055 192.824 693.556 184.824 671.056 213.824C648.555 242.824 654.556 289.824 671.056 262.324C687.555 234.824 714.056 213.824 732.056 249.324C750.056 284.824 680.555 267.324 671.056 320.324Z" fill="#0055FF"/>
<path d="M680.218 1486.41L704.11 610.891L703.435 598.126C703.212 594.66 698.893 592.706 695.392 594.52L638.223 624.291C633.445 626.771 628.177 622.316 630.89 618.118L663.854 568.01C665.851 564.941 663.501 561.245 659.475 561.16L593.843 560.021C588.355 559.92 586.76 553.623 591.674 551.313L650.139 523.641C653.717 521.939 654.081 517.646 650.822 515.707L597.517 484.02C593.077 481.369 595.736 475.222 601.212 475.504L666.653 479.053C670.649 479.264 673.632 475.751 672.179 472.571L660.359 446.864L646.257 418.92L728.68 274.989L740.433 378.197L753.731 275.394L831.191 411.358L820.451 435.615L809.601 460.54C808.641 463.95 812.17 466.884 816.052 465.98L880.028 451.087C885.399 449.836 888.974 455.447 885.003 458.821L837.369 499.365C834.457 501.862 835.481 506.022 839.269 507.077L901.237 524.156C906.439 525.607 905.858 532.091 900.479 533.142L835.922 545.732C831.985 546.507 830.215 550.569 832.681 553.216L872.967 596.899C876.34 600.536 871.809 605.847 866.701 604.255L805.722 584.878C802.006 583.698 791.695 585.803 792.026 589.257L793.898 650.627L793.902 650.864L838.915 1341.02L680.28 1486.44L680.218 1486.41Z" fill="white"/>
</svg>
