<svg width="1370" height="1444" viewBox="0 0 1370 1444" fill="none" xmlns="http://www.w3.org/2000/svg">
<path d="M629.309 241.825C602.856 295.813 650.352 346.436 677.407 365C691.937 359.103 677.407 346 693.44 346C709.472 346 718.991 287.688 718.991 265.412C718.991 243.136 775.105 241.825 778.613 203.825C782.12 165.824 760.576 171.721 764.083 203.825C767.59 235.929 724.002 214.963 718.991 187.445C713.981 159.927 741.036 161.893 749.554 125.203C758.071 88.5124 718.991 96.3746 724.002 109.478C729.012 122.582 731.016 137.651 704.462 137.651C677.908 137.651 683.419 110.789 704.462 58.374C725.505 5.95924 649.35 -7.14444 662.878 3.3385C676.405 13.8214 677.407 47.2358 622.295 58.374C567.183 69.5121 601.753 157.307 629.309 150.755C656.865 144.203 693.44 148.789 693.44 187.445C693.44 226.101 662.377 174.341 629.309 241.825Z" fill="#0055FF"/>
<path d="M627.218 1443.41L651.11 567.891L650.435 555.126C650.211 551.66 645.893 549.706 642.392 551.52L585.223 581.291C580.445 583.771 575.177 579.316 577.89 575.118L610.854 525.01C612.851 521.941 610.501 518.245 606.475 518.16L540.843 517.021C535.355 516.92 533.76 510.623 538.674 508.313L597.139 480.641C600.717 478.939 601.081 474.646 597.822 472.707L544.517 441.02C540.077 438.369 542.736 432.222 548.212 432.504L613.653 436.053C617.649 436.264 620.632 432.751 619.179 429.571L607.359 403.864L593.257 375.92L675.68 231.989L687.433 335.197L700.731 232.394L778.191 368.358L767.451 392.615L756.601 417.54C755.641 420.95 759.17 423.884 763.052 422.98L827.028 408.087C832.399 406.836 835.974 412.447 832.003 415.821L784.369 456.365C781.457 458.862 782.481 463.022 786.269 464.077L848.237 481.156C853.439 482.607 852.857 489.091 847.479 490.142L782.922 502.732C778.985 503.507 777.215 507.569 779.681 510.216L819.967 553.899C823.34 557.536 818.809 562.847 813.701 561.255L752.722 541.878C749.006 540.698 738.695 542.803 739.026 546.257L740.898 607.627L740.902 607.864L785.915 1298.02L627.28 1443.44L627.218 1443.41Z" fill="white"/>
</svg>
