<svg width="1058" height="1477" viewBox="0 0 1058 1477" fill="none" xmlns="http://www.w3.org/2000/svg">
<path d="M815.816 326.201C826.216 371.401 768.483 396.368 738.316 403.201C733.483 394.034 723.816 371.601 723.816 355.201C723.816 334.701 657.816 314.701 672.316 289.201C686.816 263.701 691.816 274.701 706.316 247.201C720.816 219.701 691.816 227.701 657.816 227.701C623.816 227.701 633.816 141.201 633.816 118.201C633.816 95.2009 661.316 166.701 672.316 186.201C683.316 205.701 704.816 157.201 691.816 157.201C678.816 157.201 659.816 147.201 646.816 89.201C633.816 31.201 699.816 63.701 723.816 46.201C747.816 28.701 720.816 -5.29904 762.816 0.700959C804.816 6.70096 801.316 75.201 746.816 89.201C692.316 103.201 738.316 158.701 775.316 157.201C812.316 155.701 844.816 190.701 872.316 227.701C899.816 264.701 830.316 281.201 830.316 247.201C830.316 213.201 762.816 208.701 762.816 247.201C762.816 285.701 802.816 269.701 815.816 326.201Z" fill="#0055FF"/>
<path d="M680.218 1476.41L704.11 600.891L703.435 588.126C703.212 584.66 698.893 582.706 695.392 584.52L638.223 614.291C633.445 616.771 628.177 612.316 630.89 608.118L663.854 558.01C665.851 554.941 663.501 551.245 659.475 551.16L593.843 550.021C588.355 549.92 586.76 543.623 591.674 541.313L650.139 513.641C653.717 511.939 654.081 507.646 650.822 505.707L597.517 474.02C593.077 471.369 595.736 465.222 601.212 465.504L666.653 469.053C670.649 469.264 673.632 465.751 672.179 462.571L660.359 436.864L646.257 408.92L728.68 264.989L740.433 368.197L753.731 265.394L831.191 401.358L820.451 425.615L809.601 450.54C808.641 453.95 812.17 456.884 816.052 455.98L880.028 441.087C885.399 439.836 888.974 445.447 885.003 448.821L837.369 489.365C834.457 491.862 835.481 496.022 839.269 497.077L901.237 514.156C906.439 515.607 905.858 522.091 900.479 523.142L835.922 535.732C831.985 536.507 830.215 540.569 832.681 543.216L872.967 586.899C876.34 590.536 871.809 595.847 866.701 594.255L805.722 574.878C802.006 573.698 791.695 575.803 792.026 579.257L793.898 640.627L793.902 640.864L838.915 1331.02L680.28 1476.44L680.218 1476.41Z" fill="white"/>
</svg>
