<svg width="224" height="218" viewBox="0 0 224 218" fill="none" xmlns="http://www.w3.org/2000/svg">
<g clip-path="url(#clip0_88_4760)">
<path d="M134.905 149.014C144.365 148.738 152.127 143.019 152.471 139.228C153.147 131.784 170.29 133.363 187.518 151.975C191.046 155.786 208.292 169.552 208.292 169.552C208.292 169.552 196.761 132.729 168.516 120.543C150.782 112.892 223.999 102.345 223.999 102.345C223.999 102.345 163.955 98.6924 157.075 89.0271C151.529 81.2383 195.922 45.0813 195.922 45.0813C195.922 45.0813 137.061 71.1748 128.194 61.6621C119.326 52.1493 114.984 31.0694 114.765 17.2708C114.741 15.7265 113.703 -0.881286 113.752 0.0379926C113.812 1.1692 112.65 16.4865 112.569 17.4084C111.356 31.172 100.323 54.6305 91.4564 64.1432C82.5892 73.6559 21.7854 44.7047 21.7854 44.7047C21.7854 44.7047 65.362 80.894 67.1348 89.7858C68.9106 98.6775 0 102.399 0 102.399C0 102.399 82.1087 114.783 68.4036 119.976C32.9352 133.417 15.201 170.64 15.201 170.64C15.201 170.64 40.0295 149.961 47.8827 145.825C61.2449 138.788 78.9601 133.475 80.3109 139.208C81.3981 143.823 87.6206 146.801 94.3676 148.697L100.199 209.208L79.4245 216.86L147.321 217.066L128.954 209.621L134.905 149.014Z" fill="#0055FF"/>
<path d="M112.972 217.7C112.116 217.337 109.226 215.773 109.381 213.979C109.55 212.028 113.119 212.128 113.945 209.567C114.477 207.92 113.596 206.028 112.673 204.949C111.245 203.281 109.683 203.526 109.381 202.399C109 200.975 111.431 200.358 112.449 197.505C112.505 197.347 113.598 194.137 111.888 191.68C111.012 190.422 110.285 190.631 109.98 189.716C109.328 187.761 112.566 186.601 113.123 183.201C113.17 182.916 113.523 180.54 112.114 178.445C110.892 176.63 109.504 176.745 109.196 175.447C108.829 173.899 110.698 173.281 111.889 170.175C112.412 168.81 113.059 167.125 112.451 165.419C111.595 163.016 109.183 163.179 108.522 160.87C108.074 159.303 108.682 157.482 109.645 156.321C110.893 154.814 112.27 154.983 112.675 153.736C113.088 152.459 111.774 151.884 111.889 150.117C111.973 148.852 112.77 147.244 114.247 146.704C116.21 145.986 118.74 147.387 119.634 149.185C120.733 151.399 119.126 153.759 118.849 154.149C117.3 156.326 115.242 156.099 114.921 157.561C114.667 158.714 115.856 159.288 118.175 162.525C119.998 165.068 120.909 166.34 120.756 167.488C120.494 169.461 118.377 169.505 116.941 172.761C116.478 173.81 115.939 175.084 116.493 176.276C117.039 177.452 118.09 177.345 118.85 178.551C119.973 180.333 118.995 182.653 118.85 182.997C117.79 185.515 115.647 185.715 115.708 187.236C115.763 188.638 117.589 188.69 118.289 190.648C118.422 191.022 118.591 191.678 117.615 195.612C116.721 199.218 116.395 199.411 116.606 200.368C117.035 202.314 118.521 202.131 119.748 204.606C119.949 205.013 121.636 208.413 120.085 210.811C119.403 211.866 118.44 212.189 118.515 212.982C118.604 213.937 120.559 213.904 120.872 214.844C121.228 215.914 119.955 217.68 118.591 217.865C117.539 218.008 116.878 217.148 115.722 217.532C115.264 217.684 115.122 217.902 114.575 217.98C113.881 218.08 113.306 217.843 112.979 217.704L112.972 217.7Z" fill="#FF00F9"/>
<path d="M92.8702 87.484C95.1559 90.4322 97.4415 93.3817 99.7286 96.3299L100.726 97.6177C101.541 98.6692 103.449 97.6595 102.624 96.5958C100.338 93.6476 98.0525 90.6981 95.7654 87.7499L94.7676 86.4621C93.953 85.4106 92.0453 86.4203 92.8702 87.484Z" fill="black"/>
<path d="M114.642 81.6646C114.773 85.2837 114.905 88.9028 115.035 92.5218C115.054 93.0388 115.073 93.5558 115.091 94.0729C115.138 95.3728 117.335 95.3782 117.288 94.0729C117.158 90.4538 117.026 86.8347 116.896 83.2156C116.877 82.6986 116.858 82.1816 116.84 81.6646C116.793 80.3647 114.596 80.3593 114.642 81.6646Z" fill="black"/>
<path d="M137.761 85.4969C135.537 88.8717 133.314 92.245 131.09 95.6198C130.771 96.1057 130.45 96.5917 130.131 97.0777C129.395 98.194 131.294 99.2132 132.028 98.0995C134.252 94.7248 136.475 91.3514 138.699 87.9767C139.018 87.4907 139.339 87.0048 139.658 86.5188C140.394 85.4024 138.495 84.3833 137.761 85.4969Z" fill="black"/>
<path d="M94.3193 130.772C96.0394 128.085 97.7609 125.396 99.481 122.708C100.2 121.584 98.3016 120.563 97.5836 121.686C95.8635 124.374 94.142 127.063 92.4219 129.751C91.7025 130.875 93.6013 131.896 94.3193 130.772Z" fill="black"/>
<path d="M117.587 133.156C117.513 130.469 117.438 127.78 117.363 125.092C117.327 123.792 115.129 123.787 115.165 125.092C115.24 127.78 115.315 130.469 115.39 133.156C115.426 134.456 117.624 134.462 117.587 133.156Z" fill="black"/>
<path d="M138.984 130.785C137.039 127.889 135.094 124.995 133.149 122.099C132.406 120.994 130.504 122.009 131.251 123.121C133.197 126.017 135.141 128.911 137.087 131.806C137.83 132.912 139.732 131.897 138.984 130.785Z" fill="black"/>
<path d="M86.6375 116.15C86.6375 116.15 90.0615 92.8309 116.116 92.8309C142.171 92.8309 145.743 116.15 145.743 116.15C145.743 116.15 132.791 127.535 115.817 127.261C99.1396 126.991 86.636 116.15 86.636 116.15H86.6375Z" fill="white"/>
<path d="M116.04 120.887C122.238 120.887 127.263 116.258 127.263 110.547C127.263 104.836 122.238 100.207 116.04 100.207C109.842 100.207 104.817 104.836 104.817 110.547C104.817 116.258 109.842 120.887 116.04 120.887Z" fill="black"/>
</g>
<defs>
<clipPath id="clip0_88_4760">
<rect width="224" height="218" fill="white"/>
</clipPath>
</defs>
</svg>
