<svg width="151" height="165" viewBox="0 0 151 165" fill="none" xmlns="http://www.w3.org/2000/svg">
<path d="M3.96386 110.185C-9.23614 134.985 18.4639 156.185 33.9639 163.685H118.464C141.964 163.685 155.964 128.685 146.964 110.185C141.714 99.3943 127.964 71.1852 118.464 59.1852H42.4639C23.4639 59.1852 20.4639 79.1852 3.96386 110.185Z" fill="#FF8500"/>
<path d="M18.9639 8.68516L42.4639 44.6852H118.464L136.964 3.68516C123.297 3.68516 94.7639 4.68516 89.9639 8.68516C85.1639 12.6852 76.2972 28.6852 72.4639 36.1852C73.2972 28.5185 74.4639 11.2852 72.4639 3.68516C70.4639 -3.91484 35.9639 3.85182 18.9639 8.68516Z" fill="#FF8500"/>
<path d="M3.96386 110.185C-9.23614 134.985 18.4639 156.185 33.9639 163.685H118.464C141.964 163.685 155.964 128.685 146.964 110.185C141.714 99.3943 127.964 71.1852 118.464 59.1852H42.4639C23.4639 59.1852 20.4639 79.1852 3.96386 110.185Z" stroke="black"/>
<path d="M18.9639 8.68516L42.4639 44.6852H118.464L136.964 3.68516C123.297 3.68516 94.7639 4.68516 89.9639 8.68516C85.1639 12.6852 76.2972 28.6852 72.4639 36.1852C73.2972 28.5185 74.4639 11.2852 72.4639 3.68516C70.4639 -3.91484 35.9639 3.85182 18.9639 8.68516Z" stroke="black"/>
</svg>
