<svg width="332" height="297" viewBox="0 0 332 297" fill="none" xmlns="http://www.w3.org/2000/svg">
<g clip-path="url(#clip0_88_4800)">
<path d="M235.503 246.617L205.719 264.905L219.024 244.758L190.356 183.315C184.68 187.535 178.33 190.746 173.5 189.044C167.502 186.931 161.945 203.692 160.505 218.008C159.659 226.421 163.888 257.223 163.888 257.223C163.888 257.223 140.476 222.819 149.055 187.712C152.37 174.148 93.0006 231.387 93.0006 231.387C93.0006 231.387 130.007 175.551 120.891 172.022C111.777 168.493 53.3697 182.509 53.3697 182.509C53.3697 182.509 115.299 151.05 111.857 138.874C108.414 126.699 93.5742 105.129 81.7849 96.5783C80.9948 96.0061 67.7643 86.6373 66.7017 86.0592C65.8385 85.5891 81.5299 93.9545 82.947 94.7882C95.6063 102.242 117.297 110.498 131.134 108.832C144.97 107.168 155.769 46.8151 155.769 46.8151C155.769 46.8151 162.59 101.435 172.914 101.41C185.724 101.38 224.232 56.5385 224.232 56.5385C224.232 56.5385 190.899 119.507 208.243 109.892C235.864 94.5806 276.066 105.925 276.066 105.925C276.066 105.925 253.455 111.779 247.926 112.428C220.927 115.591 209.445 128.098 215.81 132.737C219.05 135.1 219.696 144.317 214.402 151.852L288.503 154.665L303.235 138.448L293.935 167.835L204.207 168.545" fill="#0055FF"/>
<path d="M133.883 150.669C137.901 150.513 141.919 150.359 145.937 150.203L147.691 150.136C149.124 150.081 149.325 148.034 147.875 148.09C143.858 148.245 139.84 148.4 135.822 148.556L134.067 148.623C132.635 148.678 132.434 150.725 133.883 150.669Z" fill="black"/>
<path d="M141.358 130.462C144.722 132.359 148.086 134.256 151.449 136.153C151.93 136.424 152.411 136.695 152.89 136.967C154.099 137.648 155.391 135.936 154.178 135.252C150.815 133.354 147.451 131.458 144.088 129.56C143.607 129.289 143.126 129.019 142.646 128.747C141.438 128.065 140.145 129.777 141.358 130.462Z" fill="black"/>
<path d="M158.388 114.536C160.15 118.137 161.911 121.735 163.672 125.335C163.926 125.853 164.18 126.372 164.434 126.889C165.017 128.08 167.055 127.161 166.474 125.973C164.713 122.373 162.951 118.775 161.19 115.175C160.936 114.657 160.682 114.138 160.428 113.62C159.845 112.43 157.807 113.348 158.388 114.536Z" fill="black"/>
<path d="M174.048 173.452C172.615 170.625 171.182 167.796 169.749 164.969C169.149 163.786 167.11 164.704 167.709 165.885C169.142 168.712 170.575 171.541 172.008 174.369C172.608 175.551 174.647 174.633 174.048 173.452Z" fill="black"/>
<path d="M189.85 156.61C187.365 155.184 184.879 153.756 182.394 152.33C181.192 151.64 179.899 153.353 181.106 154.045C183.591 155.472 186.077 156.899 188.562 158.325C189.764 159.015 191.057 157.303 189.85 156.61Z" fill="black"/>
<path d="M200.236 138.601C196.466 138.52 192.698 138.438 188.928 138.357C187.489 138.326 187.296 140.371 188.744 140.402C192.514 140.484 196.282 140.565 200.052 140.646C201.492 140.677 201.684 138.632 200.236 138.601Z" fill="black"/>
<path d="M156.266 171.37C156.266 171.37 137.093 155.814 152.364 135.48C167.634 115.146 190.906 125.241 190.906 125.241C190.906 125.241 193.656 141.639 183.459 154.735C173.439 167.602 156.265 171.371 156.265 171.371L156.266 171.37Z" fill="white"/>
<path d="M177.8 151.039C181.433 146.202 180.173 139.723 174.987 136.568C169.8 133.413 162.65 134.777 159.018 139.615C155.385 144.452 156.645 150.931 161.831 154.086C167.018 157.241 174.167 155.877 177.8 151.039Z" fill="black"/>
<path d="M235.726 244.073L247.65 228.742L228.724 226.8L240.788 212.193L221.948 209.409L233.157 197.215L216.13 195.662L225.459 183.602L210.188 184.265L217.287 171.203L208.069 167.406L203.792 170.423L235.726 244.073Z" fill="white"/>
<path d="M293.479 168.706L281.588 184.057L273.071 168.705L261.982 183.927L252.617 168.936L243.753 182.605L236.291 168.726L226.92 180.76L222.372 167.605L215.706 180.1L207.789 167.489L293.479 168.706Z" fill="white"/>
<path d="M237.369 243.159C236.736 245.803 238.141 246.945 237.292 247.876C236.173 249.105 232.216 248.778 231.293 247.119C230.258 245.257 233.707 242.892 232.522 240.381C231.958 239.183 230.999 239.354 230.507 237.964C229.892 236.225 231.149 235.273 230.483 233.866C229.86 232.551 228.581 233.005 227.528 231.729C225.831 229.672 228.236 227.383 226.679 225.088C225.462 223.293 223.239 223.587 222.986 221.99C222.81 220.88 223.814 220.312 223.489 218.893C223.304 218.092 222.814 217.536 222.349 217.009C221.381 215.91 220.885 216.046 220.108 215.135C219.903 214.894 218.909 213.73 218.994 212.246C219.079 210.761 220.154 210.493 219.997 209.453C219.824 208.308 218.482 208.395 217.144 206.696C216.839 206.309 215.677 204.834 215.879 203.035C216.028 201.724 216.738 201.675 216.744 200.669C216.75 199.419 215.659 198.991 213.376 196.408C212.051 194.908 211.387 194.141 211.335 193.296C211.242 191.762 212.509 191.17 212.138 190.042C211.742 188.84 210.197 189.189 209.271 187.788C208.467 186.573 209.357 185.896 208.608 183.812C208.358 183.117 207.994 182.106 207.019 181.314C205.508 180.089 204.057 180.627 203.626 179.76C203.039 178.58 205.536 177.195 205.043 175.688C204.689 174.608 203.277 174.917 201.838 173.399C201.733 173.288 199.795 171.195 200.536 169.545C201.054 168.394 202.395 168.525 203.142 167.048C203.651 166.039 203.205 165.625 203.744 165.031C204.602 164.089 206.808 163.955 208.114 164.798C209.398 165.627 209.077 166.926 210.005 167.139C211.209 167.415 211.927 165.27 213.913 165.094C215.668 164.937 216.465 166.493 217.957 166.023C218.943 165.713 218.897 164.94 219.812 164.769C221.099 164.526 221.565 165.837 223.13 165.936C225.003 166.054 225.49 164.204 227.57 164.214C229.036 164.222 229.287 165.144 230.907 165.053C232.279 164.976 232.366 164.245 233.6 164.139C235.952 163.939 236.484 165.967 239.184 166.175C240.963 166.313 241.103 165.46 243.267 165.597C245.457 165.734 245.664 166.63 247.186 166.45C249.321 166.199 249.738 164.346 251.432 164.44C252.864 164.519 252.922 165.864 254.612 166.034C255.965 166.171 256.375 165.354 258.018 165.385C259.09 165.403 259.272 165.758 260.836 166.247C262.409 166.739 264.715 167.462 266.546 166.659C268.118 165.968 267.81 164.822 269.101 164.47C271.034 163.942 272.148 166.395 274.611 166.121C276.41 165.921 276.53 164.531 278.256 164.425C280.489 164.287 281.11 166.561 283.165 166.39C284.965 166.24 285.339 164.424 287.336 163.993C289.104 163.613 289.53 165.306 291.919 165.42C294.051 165.523 294.845 164.383 295.788 164.882C297.235 165.645 297.258 169.315 295.524 170.335C293.891 171.295 290.855 169.81 290.29 169.533C289.041 168.922 288.557 168.337 287.5 168.389C286.49 168.439 286.318 169.004 284.992 169.543C284.891 169.584 282.455 170.539 279.995 169.821C278.26 169.315 278.187 168.466 277.009 168.514C275.384 168.581 275.005 170.215 273.533 170.228C272.043 170.241 271.857 168.571 270.19 168.364C268.429 168.146 267.941 169.923 265.782 170.105C263.44 170.303 262.697 168.325 260.436 168.724C259.018 168.974 259.078 169.794 257.606 170.065C255.615 170.431 255.033 169.017 252.51 168.835C250.064 168.659 249.837 169.929 247.488 169.694C245.054 169.449 244.569 168.009 242.693 168.307C241.101 168.56 241.044 169.66 239.562 169.806C237.55 170.003 236.924 168.052 235.066 168.262C233.315 168.461 233.094 170.284 231.421 170.383C229.769 170.481 229.459 168.732 227.43 168.594C225.713 168.476 225.389 169.692 223.561 169.556C221.886 169.432 221.618 168.373 219.976 168.438C218.856 168.484 218.787 168.985 217.371 169.236C215.538 169.56 215.236 168.795 213.564 168.962C211.173 169.202 210.609 170.888 208.946 170.619C207.507 170.387 207.031 168.978 206.438 169.222C205.91 169.439 205.744 170.785 206.381 171.485C206.899 172.051 207.522 171.73 208.016 172.224C208.697 172.905 207.753 173.896 207.92 175.994C207.98 176.738 208.035 177.433 208.503 178.134C209.437 179.537 210.817 179.153 211.31 180.225C211.911 181.528 210.2 182.808 210.963 183.968C211.28 184.451 211.597 184.264 212.466 184.882C214.141 186.076 214.537 187.903 214.605 188.226C214.897 189.571 214.337 189.642 214.538 190.865C214.805 192.475 215.829 192.692 217.636 195.302C218.732 196.884 219.282 197.7 219.42 198.939C219.595 200.516 218.879 200.775 219.184 201.985C219.436 202.986 220.47 203.855 222.527 205.549C224.423 207.113 224.882 207.244 225.071 207.99C225.302 208.9 224.744 209.19 224.451 211.186C224.232 212.678 224.12 213.431 224.534 214.171C225.274 215.493 226.742 215.079 227.436 216.32C228.044 217.407 227.074 218.005 227.472 219.915C227.727 221.138 228.358 222.005 228.833 222.657C230.177 224.502 231.219 224.543 231.424 225.764C231.549 226.501 231.177 226.546 230.982 228.173C230.83 229.437 230.742 230.166 231.009 230.87C231.698 232.683 233.938 232.21 234.841 233.967C235.635 235.515 234.255 236.582 235.187 237.877C236.11 239.16 237.861 238.668 238.379 239.819C238.788 240.727 237.819 241.302 237.374 243.162L237.369 243.159Z" fill="#FF00F9"/>
</g>
<defs>
<clipPath id="clip0_88_4800">
<rect width="218.622" height="234.896" fill="white" transform="matrix(0.600492 -0.799631 0.854357 0.519687 0 174.817)"/>
</clipPath>
</defs>
</svg>
