<svg width="235" height="218" viewBox="0 0 235 218" fill="none" xmlns="http://www.w3.org/2000/svg">
<g clip-path="url(#clip0_88_4772)">
<path d="M65.7766 215.812L32.2627 203.843L58.2596 202.483L98.7692 146.701C91.7061 144.831 85.195 141.894 84.0571 137.34C82.6433 131.683 64.1021 136.925 50.1168 143.868C41.8974 147.948 15.9113 168.35 15.9113 168.35C15.9113 168.35 34.4724 131.628 71.5946 118.366C85.9371 113.242 0 101.025 0 101.025C0 101.025 72.1237 97.3529 70.2682 88.5791C68.4127 79.8067 22.8042 44.1031 22.8042 44.1031C22.8042 44.1031 86.4432 72.6657 95.7237 63.2807C105.004 53.8957 116.551 30.752 117.821 17.1732C117.905 16.2636 119.121 1.15194 119.059 0.0359122C119.008 -0.871028 120.094 15.5138 120.12 17.0374C120.347 30.6508 124.892 51.4479 134.174 60.8329C143.455 70.2179 205.06 44.4747 205.06 44.4747C205.06 44.4747 158.598 80.1463 164.402 87.8307C171.603 97.3662 234.446 100.97 234.446 100.97C234.446 100.97 157.814 111.375 176.377 118.924C205.939 130.946 218.007 167.275 218.007 167.275C218.007 167.275 199.957 153.694 196.264 149.934C178.234 131.573 160.29 130.015 159.584 137.358C159.223 141.098 151.099 146.741 141.199 147.012L180.103 203.842L203.281 205.746L171.02 215.267L120.123 148.758" fill="#0055FF"/>
<path d="M97.2005 86.3099C99.5927 89.2185 101.985 92.1284 104.379 95.037L105.423 96.3076C106.276 97.345 108.272 96.3489 107.409 95.2994C105.017 92.3908 102.624 89.4809 100.231 86.5723L99.1863 85.3018C98.3337 84.2643 96.3371 85.2605 97.2005 86.3099Z" fill="black"/>
<path d="M119.988 80.5686C120.124 84.1391 120.262 87.7096 120.399 91.2801C120.419 91.7902 120.439 92.3002 120.457 92.8103C120.506 94.0928 122.806 94.0981 122.757 92.8103C122.621 89.2398 122.483 85.6693 122.346 82.0988C122.326 81.5888 122.306 81.0787 122.288 80.5686C122.239 79.2861 119.939 79.2808 119.988 80.5686Z" fill="black"/>
<path d="M144.184 84.3495C141.857 87.6789 139.53 91.007 137.203 94.3365C136.868 94.8159 136.532 95.2954 136.198 95.7748C135.428 96.8762 137.416 97.8817 138.184 96.7829C140.512 93.4535 142.838 90.1254 145.166 86.7959C145.5 86.3165 145.836 85.8371 146.17 85.3576C146.94 84.2562 144.953 83.2507 144.184 84.3495Z" fill="black"/>
<path d="M98.7171 129.017C100.517 126.366 102.319 123.713 104.119 121.061C104.872 119.952 102.885 118.945 102.134 120.053C100.333 122.705 98.5315 125.358 96.7312 128.009C95.9783 129.119 97.9657 130.125 98.7171 129.017Z" fill="black"/>
<path d="M123.07 131.369C122.992 128.718 122.914 126.065 122.835 123.413C122.797 122.131 120.497 122.125 120.535 123.413C120.613 126.065 120.692 128.718 120.77 131.369C120.808 132.652 123.108 132.657 123.07 131.369Z" fill="black"/>
<path d="M145.465 129.029C143.428 126.173 141.394 123.317 139.357 120.461C138.58 119.37 136.589 120.371 137.371 121.469C139.408 124.325 141.443 127.181 143.479 130.037C144.257 131.128 146.247 130.127 145.465 129.029Z" fill="black"/>
<path d="M90.6771 114.592C90.6771 114.592 94.2608 91.5851 121.531 91.5851C148.8 91.5851 152.539 114.592 152.539 114.592C152.539 114.592 138.983 125.824 121.218 125.553C103.762 125.287 90.6756 114.592 90.6756 114.592H90.6771Z" fill="white"/>
<path d="M121.451 119.265C127.938 119.265 133.197 114.697 133.197 109.063C133.197 103.429 127.938 98.8619 121.451 98.8619C114.963 98.8619 109.704 103.429 109.704 109.063C109.704 114.697 114.963 119.265 121.451 119.265Z" fill="black"/>
<path d="M68.2424 214.553L89.0332 214.86L80.2234 199.66L100.425 200.476L92.439 184.869L109.941 186.4L101.836 172.833L118.161 173.037L109.001 162.02L125 160L123.333 151L118.161 149.5L68.2424 214.553Z" fill="white"/>
<path d="M169.964 215.415L149.173 215.145L158.536 200.197L138.314 200.453L146.871 185.075L129.324 186.119L137.922 172.784L121.596 172.534L131.159 161.776L115.924 163.803L123.101 150.837L169.964 215.415Z" fill="white"/>
<path d="M70.0044 215.267C67.2166 216.275 66.9513 217.963 65.6187 217.851C63.8613 217.704 61.946 214.571 62.9566 212.954C64.0913 211.139 68.1995 212.387 69.848 210.097C70.6347 209.005 69.94 208.386 70.9444 207.241C72.2003 205.809 73.7813 206.212 74.7029 204.929C75.5648 203.727 74.4315 203.028 75.0158 201.529C75.9589 199.111 79.4138 199.623 80.6543 197.176C81.625 195.264 80.11 193.771 81.4379 192.688C82.3611 191.936 83.4468 192.366 84.5708 191.329C85.2041 190.743 85.4418 190.066 85.6673 189.424C86.1365 188.087 85.7332 187.793 86.1365 186.703C86.2438 186.416 86.7591 185.023 88.1729 184.255C89.5868 183.487 90.4363 184.138 91.3058 183.439C92.2627 182.669 91.4316 181.717 92.2458 179.767C92.4314 179.324 93.1383 177.631 94.9079 176.775C96.1976 176.152 96.6408 176.654 97.57 176.094C98.7247 175.399 98.507 174.346 99.6065 171.197C100.246 169.369 100.58 168.445 101.329 167.933C102.689 167.005 103.943 167.618 104.774 166.709C105.659 165.741 104.472 164.785 105.244 163.309C105.912 162.029 107.033 162.314 108.533 160.588C109.033 160.013 109.76 159.175 109.942 158.005C110.224 156.192 108.916 155.412 109.473 154.605C110.23 153.506 112.903 154.593 114.015 153.381C114.811 152.513 113.736 151.632 114.328 149.709C114.371 149.569 115.213 146.952 117.146 146.581C118.496 146.322 119.126 147.396 120.905 147.125C122.118 146.94 122.25 146.376 123.098 146.445C124.446 146.557 125.804 148.127 125.76 149.573C125.715 150.994 124.34 151.483 124.663 152.294C125.084 153.346 127.46 152.68 128.735 154.063C129.862 155.284 128.876 156.749 130.144 157.599C130.981 158.161 131.667 157.693 132.337 158.279C133.281 159.103 132.335 160.185 133.12 161.407C134.06 162.87 136.037 162.197 137.192 163.754C138.006 164.851 137.298 165.555 138.288 166.712C139.127 167.692 139.849 167.347 140.638 168.208C142.139 169.85 140.57 171.382 141.89 173.512C142.76 174.916 143.623 174.543 144.709 176.233C145.808 177.943 145.1 178.598 146.118 179.633C147.544 181.084 149.484 180.357 150.346 181.673C151.074 182.785 149.869 183.582 150.659 184.937C151.291 186.023 152.272 185.871 153.164 187.113C153.747 187.923 153.523 188.257 153.948 189.697C154.376 191.146 155.002 193.27 156.767 194.185C158.283 194.971 159.165 194.1 160.212 194.866C161.781 196.011 160.146 198.215 161.778 199.898C162.969 201.128 164.316 200.439 165.38 201.667C166.757 203.255 165.012 204.991 166.32 206.427C167.466 207.685 169.347 206.948 170.862 208.195C172.202 209.301 170.882 210.566 172.115 212.412C173.215 214.059 174.708 214.013 174.777 214.996C174.884 216.502 171.519 218.574 169.609 217.852C167.811 217.172 167.478 214.077 167.416 213.5C167.28 212.227 167.547 211.538 166.907 210.779C166.296 210.055 165.679 210.242 164.44 209.555C164.346 209.503 162.103 208.221 161.387 205.985C160.881 204.408 161.622 203.878 160.918 203.027C159.945 201.852 158.229 202.485 157.394 201.394C156.547 200.29 157.98 199.217 157.237 197.858C156.452 196.423 154.543 197.054 153.166 195.546C151.672 193.911 153.077 192.249 151.444 190.786C150.42 189.869 149.699 190.372 148.625 189.427C147.173 188.147 148.148 186.922 146.903 184.939C145.696 183.016 144.399 183.558 143.301 181.674C142.163 179.722 143.217 178.554 141.892 177.322C140.768 176.277 139.724 176.851 138.759 175.827C137.451 174.438 138.897 172.878 137.663 171.61C136.499 170.416 134.697 171.272 133.669 170.08C132.654 168.903 134.091 167.692 133.082 166.102C132.228 164.756 130.928 165.195 130.029 163.755C129.206 162.437 130.031 161.645 129.051 160.457C128.382 159.647 127.882 159.876 126.858 158.961C125.533 157.776 126.068 157.122 124.978 155.968C123.418 154.32 121.55 154.843 120.867 153.453C120.275 152.25 121.305 151.106 120.748 150.801C120.253 150.528 118.921 151.158 118.634 152.025C118.402 152.728 119.046 153.013 118.868 153.658C118.623 154.547 117.182 154.398 115.344 155.698C114.693 156.159 114.084 156.589 113.701 157.331C112.932 158.813 114.058 159.627 113.348 160.595C112.485 161.772 110.348 161.213 109.707 162.432C109.441 162.939 109.79 163.071 109.707 164.064C109.546 165.982 108.087 167.301 107.827 167.532C106.752 168.503 106.374 168.125 105.36 168.96C104.027 170.06 104.402 170.946 103.011 173.754C102.167 175.458 101.724 176.325 100.662 177.121C99.3075 178.135 98.668 177.746 97.7249 178.651C96.9444 179.4 96.7236 180.657 96.3157 183.139C95.9384 185.429 96.0749 185.844 95.4937 186.404C94.7853 187.085 94.2056 186.831 92.2044 187.73C90.7078 188.403 89.9518 188.741 89.5025 189.464C88.7004 190.756 89.9027 191.619 89.1498 192.831C88.4888 193.894 87.3955 193.505 85.8605 194.871C84.8775 195.746 84.4328 196.702 84.0985 197.421C83.1524 199.456 83.6983 200.257 82.6893 201.093C82.0805 201.599 81.8305 201.347 80.2234 202.113C78.9752 202.707 78.2545 203.049 77.7561 203.643C76.4726 205.172 78.1625 206.577 77.0507 208.234C76.0708 209.694 74.315 209.262 73.6449 210.682C72.9809 212.088 74.4147 213.119 73.6449 214.15C73.0376 214.964 71.9657 214.563 70.0044 215.273V215.267Z" fill="#FF00F9"/>
</g>
<defs>
<clipPath id="clip0_88_4772">
<rect width="234.444" height="218" fill="white"/>
</clipPath>
</defs>
</svg>
