<svg width="322" height="292" viewBox="0 0 322 292" fill="none" xmlns="http://www.w3.org/2000/svg">
<g clip-path="url(#clip0_88_4786)">
<path d="M171.297 261.932L135.477 265.64L157.673 253.384L164.079 186.993C156.873 188.349 149.593 188.531 146.198 185.001C141.982 180.618 128.395 193.124 119.716 205.191C114.616 212.283 102.428 241.316 102.428 241.316C102.428 241.316 99.5015 201.059 125.252 173.581C135.201 162.965 53.0515 188.753 53.0515 188.753C53.0515 188.753 114.683 154.838 108.441 147.896C102.199 140.954 43.2566 128.89 43.2566 128.89C43.2566 128.89 114.339 126.991 117.589 114.773C120.839 102.555 118.862 77.2476 112.85 64.741C112.447 63.9035 105.583 50.0688 104.941 49.112C104.42 48.3343 113.981 62.3119 114.804 63.6435C122.153 75.544 137.08 91.9384 150.188 96.2609C163.295 100.584 204.068 51.6929 204.068 51.6929C204.068 51.6929 181.854 102.892 191.005 107.195C202.358 112.536 259.632 88.9808 259.632 88.9808C259.632 88.9808 197.563 130.747 217.886 129.503C250.251 127.523 279.964 154.406 279.964 154.406C279.964 154.406 256.925 150.115 251.696 148.372C226.165 139.861 209.534 146.12 212.767 152.892C214.413 156.341 210.217 164.769 201.635 169.22L265.763 202.754L287.189 194.573L263.758 216.686L183.978 179.723" fill="#0055FF"/>
<path d="M130.984 134.44C134.619 135.986 138.256 137.532 141.892 139.077L143.48 139.753C144.776 140.305 146.013 138.577 144.701 138.02C141.065 136.474 137.429 134.927 133.792 133.382L132.204 132.707C130.908 132.155 129.672 133.882 130.984 134.44Z" fill="black"/>
<path d="M148.05 119.687C150.046 122.776 152.042 125.864 154.038 128.952C154.323 129.393 154.608 129.834 154.893 130.276C155.609 131.385 157.639 130.412 156.92 129.298C154.924 126.209 152.928 123.121 150.933 120.033C150.647 119.592 150.362 119.151 150.078 118.709C149.361 117.6 147.331 118.573 148.05 119.687Z" fill="black"/>
<path d="M171.36 112.727C171.057 116.652 170.754 120.574 170.451 124.498C170.408 125.063 170.364 125.628 170.321 126.193C170.221 127.491 172.501 127.532 172.601 126.237C172.904 122.313 173.206 118.39 173.509 114.466C173.552 113.901 173.596 113.336 173.639 112.771C173.739 111.473 171.46 111.432 171.36 112.727Z" fill="black"/>
<path d="M154.747 171.431C154.941 168.329 155.136 165.225 155.33 162.122C155.411 160.824 153.131 160.782 153.051 162.078C152.857 165.181 152.662 168.285 152.468 171.388C152.387 172.686 154.667 172.728 154.747 171.431Z" fill="black"/>
<path d="M177.444 163.145C175.983 160.842 174.521 158.537 173.059 156.234C172.352 155.12 170.322 156.094 171.032 157.212C172.493 159.516 173.955 161.82 175.417 164.124C176.124 165.238 178.154 164.264 177.444 163.145Z" fill="black"/>
<path d="M195.951 151.557C192.656 149.906 189.363 148.255 186.069 146.604C184.811 145.974 183.582 147.703 184.848 148.337C188.143 149.989 191.435 151.639 194.73 153.291C195.988 153.921 197.216 152.192 195.951 151.557Z" fill="black"/>
<path d="M140.086 162.138C140.086 162.138 131.163 140.339 155.195 128.74C179.227 117.14 194.603 135.825 194.603 135.825C194.603 135.825 188.555 151.49 172.757 158.808C157.235 165.998 140.085 162.139 140.085 162.139L140.086 162.138Z" fill="white"/>
<path d="M169.66 153.167C175.377 150.407 177.614 144.145 174.655 139.18C171.696 134.215 164.663 132.427 158.946 135.186C153.229 137.946 150.993 144.208 153.952 149.173C156.91 154.138 163.943 155.926 169.66 153.167Z" fill="black"/>
<path d="M172.809 259.774L191.292 251.201L175.546 241.553L193.778 233.679L178.545 223.322L194.772 217.227L180.505 208.718L194.999 201.953L181.141 196.142L194.18 187.556L187.985 180.333L182.639 181.211L172.809 259.774Z" fill="white"/>
<path d="M262.905 217.265L244.441 225.871L244.843 208.715L227.156 217.542L226.621 200.35L211.706 208.734L212.28 193.325L197.763 200.05L200.54 186.501L188.179 194.768L187.694 180.289L262.905 217.265Z" fill="white"/>
<path d="M174.737 259.654C172.809 261.728 173.462 263.328 172.228 263.796C170.603 264.414 167.269 262.468 167.311 260.613C167.358 258.531 171.633 257.883 171.884 255.164C172.004 253.867 171.066 253.617 171.35 252.18C171.705 250.384 173.31 250.067 173.448 248.544C173.577 247.119 172.211 246.985 171.938 245.415C171.5 242.883 174.813 241.864 174.622 239.181C174.473 237.082 172.354 236.411 172.956 234.892C173.374 233.836 174.557 233.754 175.002 232.361C175.253 231.576 175.107 230.878 174.969 230.217C174.68 228.839 174.17 228.751 173.953 227.619C173.897 227.32 173.619 225.873 174.463 224.596C175.305 223.317 176.396 223.53 176.795 222.544C177.234 221.458 176.001 220.973 175.695 218.908C175.626 218.438 175.36 216.646 176.47 215.139C177.279 214.041 177.933 214.295 178.458 213.407C179.111 212.303 178.366 211.467 177.681 208.225C177.285 206.341 177.094 205.385 177.485 204.616C178.196 203.219 179.623 203.225 179.879 202.072C180.15 200.842 178.602 200.504 178.507 198.876C178.424 197.463 179.561 197.238 179.977 195.079C180.115 194.359 180.316 193.312 179.862 192.202C179.159 190.485 177.596 190.354 177.663 189.406C177.754 188.115 180.68 187.936 181.023 186.395C181.268 185.291 179.859 184.973 179.371 183.026C179.335 182.885 178.703 180.22 180.212 179.07C181.265 178.269 182.384 178.947 183.81 177.952C184.782 177.273 184.601 176.719 185.385 176.419C186.632 175.944 188.654 176.75 189.374 178.044C190.081 179.315 189.125 180.331 189.836 180.908C190.759 181.656 192.504 180.059 194.353 180.735C195.988 181.332 195.888 183.042 197.452 183.251C198.485 183.39 198.843 182.687 199.742 182.918C201.007 183.243 200.741 184.598 202.075 185.342C203.671 186.231 205.06 184.797 206.895 185.678C208.189 186.299 207.934 187.22 209.415 187.818C210.669 188.325 211.124 187.714 212.271 188.137C214.456 188.946 213.878 190.964 216.16 192.279C217.664 193.146 218.229 192.45 220.073 193.478C221.94 194.517 221.66 195.396 223.1 195.875C225.119 196.547 226.447 195.081 227.897 195.874C229.123 196.545 228.479 197.759 229.887 198.618C231.014 199.306 231.799 198.754 233.238 199.47C234.177 199.936 234.155 200.325 235.286 201.413C236.423 202.508 238.09 204.114 240.126 204.17C241.875 204.217 242.195 203.074 243.52 203.304C245.504 203.646 245.221 206.284 247.543 207.073C249.238 207.65 250.063 206.47 251.646 207.099C253.693 207.913 253.067 210.185 254.974 210.894C256.644 211.516 257.915 210.066 259.906 210.521C261.667 210.925 261.168 212.601 263.224 213.704C265.058 214.688 266.35 214.011 266.927 214.848C267.812 216.13 265.934 219.388 263.873 219.564C261.93 219.729 260.011 217.143 259.655 216.661C258.866 215.597 258.739 214.877 257.777 214.48C256.857 214.102 256.413 214.529 254.96 214.451C254.85 214.445 252.2 214.269 250.394 212.603C249.12 211.429 249.495 210.646 248.428 210.196C246.954 209.574 245.774 210.862 244.465 210.256C243.139 209.643 243.837 208.088 242.47 207.206C241.024 206.275 239.673 207.644 237.668 206.901C235.493 206.095 235.858 204.033 233.651 203.439C232.266 203.066 231.895 203.816 230.453 203.439C228.501 202.929 228.717 201.434 226.578 200.217C224.505 199.035 223.646 200.065 221.69 198.872C219.662 197.636 219.977 196.158 218.162 195.636C216.623 195.193 216.004 196.143 214.616 195.651C212.734 194.983 213.189 192.993 211.436 192.401C209.783 191.844 208.644 193.365 207.113 192.751C205.6 192.146 206.231 190.467 204.507 189.495C203.047 188.672 202.132 189.613 200.584 188.726C199.166 187.914 199.477 186.865 197.989 186.235C196.975 185.806 196.654 186.22 195.271 185.85C193.481 185.369 193.609 184.565 192.043 184.012C189.803 183.223 188.432 184.478 187.099 183.544C185.946 182.736 186.253 181.29 185.602 181.258C185.022 181.228 184.179 182.35 184.381 183.236C184.547 183.954 185.264 183.931 185.446 184.575C185.697 185.463 184.348 185.945 183.412 187.872C183.079 188.555 182.769 189.193 182.82 190.01C182.922 191.643 184.341 191.881 184.224 193.036C184.081 194.441 181.905 194.857 181.98 196.203C182.011 196.764 182.388 196.732 182.837 197.642C183.702 199.401 183.108 201.184 183.002 201.498C182.564 202.811 182.032 202.639 181.577 203.806C180.98 205.342 181.775 205.963 182.024 209.03C182.175 210.89 182.24 211.843 181.722 212.997C181.061 214.466 180.293 214.395 179.938 215.594C179.643 216.586 180.108 217.788 181.052 220.149C181.922 222.327 182.261 222.635 182.042 223.375C181.776 224.277 181.132 224.3 179.84 225.943C178.874 227.172 178.386 227.792 178.369 228.621C178.341 230.1 179.854 230.349 179.827 231.738C179.802 232.955 178.635 233.078 177.999 234.935C177.593 236.124 177.703 237.156 177.786 237.932C178.021 240.127 178.922 240.601 178.472 241.767C178.201 242.472 177.849 242.356 176.835 243.715C176.047 244.769 175.591 245.377 175.464 246.113C175.136 248.006 177.363 248.525 177.253 250.458C177.156 252.162 175.382 252.528 175.537 254.064C175.69 255.586 177.495 255.885 177.358 257.12C177.25 258.096 176.095 258.199 174.739 259.658L174.737 259.654Z" fill="#FF00F9"/>
</g>
<defs>
<clipPath id="clip0_88_4786">
<rect width="229.416" height="223.638" fill="white" transform="matrix(0.900584 -0.434683 0.511895 0.859048 0 99.723)"/>
</clipPath>
</defs>
</svg>
