<svg width="243" height="211" viewBox="0 0 243 211" fill="none" xmlns="http://www.w3.org/2000/svg">
<g clip-path="url(#clip0_88_4814)">
<path d="M239.791 151.801L226.492 181.964L224.982 158.566L163.001 122.108C160.923 128.465 157.66 134.325 152.6 135.349C146.315 136.621 152.139 153.308 159.853 165.895C164.387 173.292 187.056 196.68 187.056 196.68C187.056 196.68 146.253 179.975 131.517 146.565C125.825 133.657 112.25 211 112.25 211C112.25 211 108.17 146.089 98.4213 147.759C88.6742 149.429 49.0035 190.476 49.0035 190.476C49.0035 190.476 80.7397 133.201 70.3119 124.849C59.8841 116.496 34.169 106.104 19.0814 104.961C18.0707 104.885 1.27998 103.791 0.0399431 103.847C-0.967769 103.893 17.2376 102.916 18.9305 102.892C34.0565 102.688 57.1643 98.5973 67.5921 90.2434C78.02 81.8909 49.4163 26.4459 49.4163 26.4459C49.4163 26.4459 89.0515 68.2622 97.5897 63.0385C108.185 56.5574 112.189 -0.00140381 112.189 -0.00140381C112.189 -0.00140381 123.75 68.9675 132.137 52.2611C145.495 25.6551 185.861 14.7935 185.861 14.7935C185.861 14.7935 170.771 31.0389 166.594 34.3623C146.192 50.5898 144.461 66.7386 152.62 67.3748C156.775 67.6991 163.045 75.011 163.347 83.9211L226.491 48.9074L228.607 28.0468L239.186 57.0818L165.287 102.889" fill="#0055FF"/>
<path d="M95.8998 123.52C99.1316 121.367 102.365 119.214 105.597 117.059L107.008 116.119C108.161 115.352 107.054 113.555 105.888 114.332C102.656 116.485 99.4231 118.638 96.1913 120.792L94.7796 121.732C93.6269 122.5 94.7338 124.297 95.8998 123.52Z" fill="black"/>
<path d="M89.5206 103.011C93.4878 102.888 97.455 102.764 101.422 102.641C101.989 102.623 102.556 102.605 103.122 102.589C104.547 102.544 104.553 100.474 103.122 100.518C99.1552 100.641 95.188 100.765 91.2208 100.888C90.6541 100.906 90.0873 100.924 89.5206 100.941C88.0956 100.985 88.0896 103.055 89.5206 103.011Z" fill="black"/>
<path d="M93.7216 81.234C97.421 83.329 101.119 85.4227 104.818 87.5177C105.351 87.8186 105.884 88.1208 106.416 88.4217C107.64 89.1145 108.757 87.3259 107.537 86.6344C103.837 84.5394 100.139 82.4458 96.4399 80.3507C95.9072 80.0499 95.3745 79.7476 94.8418 79.4468C93.618 78.7539 92.5008 80.5426 93.7216 81.234Z" fill="black"/>
<path d="M143.352 122.155C140.406 120.534 137.459 118.913 134.512 117.292C133.28 116.615 132.161 118.403 133.392 119.08C136.338 120.7 139.286 122.322 142.232 123.942C143.465 124.619 144.584 122.831 143.352 122.155Z" fill="black"/>
<path d="M145.966 100.237C143.02 100.307 140.072 100.378 137.126 100.448C135.701 100.483 135.695 102.553 137.126 102.518C140.072 102.448 143.02 102.377 145.966 102.307C147.391 102.273 147.397 100.202 145.966 100.237Z" fill="black"/>
<path d="M143.366 80.0815C140.192 81.9143 137.019 83.7458 133.845 85.5786C132.633 86.2783 133.746 88.0697 134.965 87.3658C138.139 85.533 141.312 83.7016 144.486 81.8688C145.698 81.1691 144.585 79.3777 143.366 80.0815Z" fill="black"/>
<path d="M127.324 129.391C127.324 129.391 101.761 126.165 101.761 101.623C101.761 77.0798 127.324 73.7151 127.324 73.7151C127.324 73.7151 139.804 85.9154 139.504 101.904C139.208 117.614 127.324 129.392 127.324 129.392V129.391Z" fill="white"/>
<path d="M132.516 101.694C132.516 95.8556 127.441 91.1225 121.181 91.1225C114.921 91.1225 109.846 95.8556 109.846 101.694C109.846 107.533 114.921 112.266 121.181 112.266C127.441 112.266 132.516 107.533 132.516 101.694Z" fill="black"/>
<path d="M238.393 149.582L238.733 130.87L221.845 138.799L222.752 120.617L205.41 127.805L207.111 112.054L192.036 119.347L192.263 104.655L180.022 112.9L177.778 98.5L167.778 100L166.111 104.655L238.393 149.582Z" fill="white"/>
<path d="M239.35 58.0327L239.05 76.7444L222.441 68.3174L222.725 86.5171L205.638 78.816L206.798 94.6087L191.982 86.8704L191.705 101.563L179.751 92.9567L182.004 106.668L167.597 100.209L239.35 58.0327Z" fill="white"/>
<path d="M239.186 147.996C240.306 150.505 242.181 150.744 242.056 151.943C241.894 153.525 238.412 155.249 236.615 154.339C234.599 153.318 235.985 149.62 233.441 148.137C232.228 147.429 231.54 148.054 230.267 147.15C228.677 146.02 229.125 144.597 227.698 143.767C226.364 142.992 225.587 144.012 223.921 143.486C221.235 142.637 221.803 139.528 219.085 138.411C216.96 137.538 215.301 138.901 214.098 137.706C213.262 136.875 213.74 135.898 212.587 134.886C211.936 134.316 211.184 134.102 210.471 133.9C208.985 133.477 208.658 133.84 207.448 133.477C207.128 133.381 205.581 132.917 204.728 131.644C203.874 130.372 204.598 129.607 203.821 128.825C202.966 127.964 201.908 128.712 199.741 127.979C199.249 127.812 197.368 127.176 196.416 125.583C195.724 124.422 196.282 124.023 195.66 123.187C194.888 122.148 193.717 122.344 190.219 121.354C188.188 120.779 187.161 120.478 186.592 119.804C185.561 118.58 186.242 117.451 185.233 116.703C184.157 115.907 183.094 116.975 181.455 116.281C180.033 115.679 180.349 114.67 178.432 113.321C177.792 112.871 176.862 112.216 175.561 112.052C173.547 111.798 172.68 112.975 171.783 112.474C170.562 111.793 171.77 109.387 170.423 108.387C169.458 107.67 168.48 108.638 166.343 108.105C166.188 108.066 163.28 107.309 162.868 105.568C162.58 104.354 163.773 103.787 163.473 102.186C163.267 101.094 162.64 100.975 162.717 100.212C162.841 98.999 164.586 97.7762 166.193 97.8162C167.771 97.8562 168.314 99.0942 169.216 98.803C170.385 98.4249 169.645 96.2857 171.181 95.1388C172.538 94.1244 174.165 95.0118 175.11 93.8704C175.734 93.1169 175.215 92.5 175.866 91.8969C176.782 91.0467 177.983 91.8983 179.342 91.1916C180.966 90.3456 180.219 88.5666 181.949 87.5274C183.168 86.7946 183.95 87.4322 185.235 86.5406C186.325 85.7857 185.941 85.1357 186.897 84.4263C188.722 83.0751 190.425 84.487 192.791 83.2987C194.351 82.5162 193.936 81.7392 195.814 80.7621C197.714 79.7725 198.442 80.4101 199.592 79.4937C201.205 78.2102 200.397 76.4644 201.859 75.6887C203.095 75.0332 203.979 76.1179 205.486 75.4072C206.692 74.8386 206.523 73.9553 207.904 73.1521C208.803 72.6276 209.175 72.8291 210.775 72.4468C212.384 72.0618 214.745 71.4987 215.761 69.9102C216.634 68.5452 215.667 67.7516 216.517 66.809C217.79 65.3971 220.239 66.8684 222.109 65.3999C223.475 64.3276 222.71 63.1158 224.075 62.158C225.838 60.9187 227.768 62.4892 229.363 61.312C230.762 60.281 229.942 58.5876 231.328 57.2241C232.556 56.0178 233.962 57.2061 236.013 56.0965C237.844 55.107 237.792 53.7627 238.884 53.7006C240.558 53.604 242.86 56.6334 242.058 58.3516C241.302 59.9705 237.863 60.27 237.222 60.3252C235.807 60.448 235.042 60.2079 234.199 60.7834C233.394 61.3341 233.603 61.8889 232.839 63.004C232.781 63.0882 231.356 65.1073 228.872 65.7518C227.12 66.2073 226.531 65.5407 225.585 66.1742C224.28 67.0492 224.983 68.5935 223.771 69.3457C222.544 70.1075 221.352 68.8185 219.842 69.4865C218.247 70.1931 218.949 71.9113 217.274 73.1507C215.456 74.4949 213.61 73.2307 211.985 74.7006C210.965 75.6225 211.525 76.2711 210.474 77.2372C209.052 78.5442 207.691 77.6664 205.487 78.7871C203.351 79.8733 203.953 81.0408 201.86 82.029C199.691 83.0531 198.393 82.1049 197.025 83.2973C195.863 84.309 196.501 85.2488 195.363 86.1169C193.82 87.2942 192.087 85.9927 190.678 87.1037C189.351 88.1512 190.302 89.7729 188.978 90.6976C187.67 91.6112 186.325 90.318 184.558 91.2261C183.062 91.9949 183.55 93.1652 181.95 93.974C180.485 94.7151 179.605 93.9726 178.285 94.8545C177.385 95.4562 177.64 95.9061 176.623 96.8281C175.306 98.0205 174.58 97.5388 173.298 98.5201C171.466 99.9237 172.048 101.605 170.503 102.22C169.167 102.753 167.896 101.825 167.557 102.326C167.254 102.772 167.953 103.972 168.917 104.23C169.698 104.438 170.015 103.858 170.731 104.018C171.719 104.239 171.554 105.537 172.998 107.19C173.51 107.777 173.988 108.324 174.812 108.669C176.459 109.361 177.363 108.348 178.439 108.987C179.747 109.764 179.126 111.686 180.48 112.263C181.043 112.503 181.19 112.189 182.294 112.263C184.425 112.408 185.89 113.722 186.147 113.955C187.226 114.923 186.805 115.264 187.733 116.176C188.956 117.375 189.94 117.039 193.06 118.29C194.953 119.049 195.916 119.448 196.801 120.405C197.927 121.623 197.495 122.199 198.501 123.048C199.333 123.75 200.73 123.949 203.488 124.316C206.032 124.655 206.494 124.533 207.115 125.056C207.873 125.693 207.59 126.215 208.589 128.016C209.336 129.363 209.712 130.043 210.516 130.448C211.951 131.17 212.91 130.088 214.256 130.765C215.437 131.36 215.005 132.344 216.523 133.726C217.496 134.61 218.558 135.011 219.357 135.311C221.618 136.163 222.507 135.672 223.437 136.58C223.999 137.128 223.719 137.353 224.57 138.799C225.23 139.922 225.611 140.571 226.27 141.02C227.969 142.175 229.53 140.654 231.371 141.654C232.993 142.536 232.514 144.117 234.091 144.72C235.654 145.317 236.799 144.027 237.944 144.72C238.848 145.266 238.403 146.231 239.192 147.996H239.186Z" fill="#FF00F9"/>
</g>
<defs>
<clipPath id="clip0_88_4814">
<rect width="211" height="242.222" fill="white" transform="matrix(0 -1 1 0 0 211)"/>
</clipPath>
</defs>
</svg>
