<svg width="1680" height="1043" viewBox="0 0 1680 1043" fill="none" xmlns="http://www.w3.org/2000/svg">
<rect width="1680" height="1000.72" fill="black"/>
<path d="M0 275.208L1.30933 271.675C15.5641 259.762 29.6448 247.772 42.5902 233.962C58.2543 227.243 73.7488 219.935 89.0823 212.038C110.519 207.264 131.99 202.65 153.5 198.199C170.422 199.237 187.373 199.353 204.364 198.537C274.577 207.824 340.535 247.994 398.772 291.19C415.714 306.192 429.708 318.525 449.683 327.571C499.425 345.676 546.004 368.025 591.1 398.328C611.227 411.854 616.407 417.651 620.161 443.899C626.756 489.997 620.779 535.162 602.244 577.04C597.611 594.094 591.656 611.278 583.7 627.294C578.372 639.008 577.054 650.072 578.067 663.153C580.207 690.758 584.131 716.693 593.201 742.474C596.324 751.355 599.586 759.035 606.033 764.953C613.728 777.43 621.04 790.057 627.97 802.829C630.023 820.013 632.232 837.226 634.603 854.463C631.149 877.289 626.63 900.213 621.057 923.232C619.383 935.845 616.847 948.043 613.441 959.811C602.692 977.815 586.658 996.881 571.708 1010.98C558.205 1023.71 540.405 1012.21 530.735 999.126L519.761 981.672C498.542 959.931 486.349 931.201 478.963 900.058C475.774 891.645 472.847 883.125 470.18 874.495C470.741 867.814 469.823 861.216 467.435 854.699C463.251 845.731 461.75 836.854 462.933 828.069C460.145 826.636 458.988 823.619 458.113 820.539C456.43 798.196 448.348 779.342 436.955 760.676C435.959 753.537 433.923 746.557 430.844 739.737C430.483 725.029 426.285 715.201 418.098 703.747C413.661 695.117 412.248 688.344 411.356 678.715L407.976 673.526C401.321 643.806 386.67 616.583 365.721 595.725L334.575 555.662C323.722 539.193 312.53 532.189 296.196 527.198C280.175 514.064 263.602 507.47 243.84 503.652C210.511 490.812 165.806 486.014 132.103 499.486C121.742 503.628 103.546 529.645 96.6816 540.211C97.9866 546.554 98.7566 553.017 98.9871 559.601C94.063 575.028 90.8571 590.952 89.3738 607.363C87.6207 625.454 73.2137 643.242 60.9165 654.233C49.263 664.649 37.8618 660.353 24.6337 655.227C22.2151 654.291 5.90721 646.91 5.19817 646.036C4.71968 645.448 4.41953 644.801 4.36733 643.985C2.49251 644.555 1.04398 642.947 0 639.158V577.373C0.200097 576.717 0.426294 576.085 0.752539 575.515C2.58821 572.305 14.4505 569.091 18.4437 568.506C21.8062 510.009 58.2891 467.812 102.571 443.547L105.268 444.03C116.404 435.911 128.214 430.78 140.69 428.627C144.548 424.36 149.659 423.105 156.032 424.862C173.493 420.88 192.693 418.104 210.585 418.688L221.716 421.836C228.459 420.639 234.696 421.208 240.434 423.544C242.352 420.194 244.784 420.518 247.733 424.515C250.073 423.037 252.353 422.844 254.58 423.94C260.622 429.718 267.164 432.928 274.207 433.57C278.274 430.196 280.784 431.292 282.311 436.616C286.326 438.822 290.771 440.159 295.656 440.627L300.037 443.204C304.417 441.901 308.001 442.451 310.781 444.85C317.158 454.219 322.696 456.879 333.196 455.87C335.284 458.448 337.885 460.557 340.987 462.203C342.175 468.517 344.845 469.033 349.008 463.757C354.359 465.563 358.957 469.559 362.798 475.738C367.752 476.713 372.885 476.964 378.201 476.491C383.364 481.709 389.463 485.348 396.496 487.414C397.949 490.745 400.068 493.028 402.852 494.264C440.727 534.718 471.829 585.212 492.099 638.695C492.147 645.37 495.727 651.766 496.706 640.944C498.481 624.938 501.321 609.033 505.223 593.23C507.985 583.677 507.015 575.94 502.309 570.017C499.194 558.708 496.675 547.196 494.753 535.476C489.672 527.125 487.471 521.676 485.305 511.423C484.165 492.009 477.366 477.62 468.257 461.716L465.874 454.731C465.695 448.688 463.868 444.397 460.393 441.862C439.67 437.002 424.367 421.628 409.859 404.464C396.697 386.734 382.49 370.53 367.239 355.852C339.378 338.161 311.103 321.049 282.406 304.512C260.287 295.641 238.128 286.856 215.931 278.162C198.64 271.844 156.702 258.69 139.903 262.33C133.186 265.767 126.622 266.867 120.21 265.622C116.909 270.096 111.732 271.337 104.677 269.348C101.432 270.989 98.4347 271.347 95.6855 270.425C94.1152 272.785 91.8706 273.794 88.9518 273.461C58.3718 283.008 30.6888 302.504 5.19382 322.695C3.16675 324.423 1.43548 325.012 0 324.443V275.208Z" fill="#FF8602"/>
<path d="M1191.45 0C1192.85 1.93201 1192.87 4.8397 1191.51 8.72305C1189.41 37.5294 1196.23 54.3379 1207.57 79.4589C1209.31 94.065 1206.76 108.652 1199.92 123.219C1185.08 158.309 1170.9 193.327 1159.39 230.224C1156.03 239.159 1152.49 248.051 1148.12 256.446C1137.03 277.804 1126.64 285.315 1106.13 293.033C1099.84 295.545 1095.55 299.926 1091.02 305.002C1074.48 312.257 1059.48 321.579 1046.02 332.963C1039.07 344.671 1031.4 355.8 1023.01 366.349C1021.66 371.826 1019.24 376.332 1015.76 379.863C1009.66 396.628 1003.06 413.243 995.942 429.704C988.471 446.334 978.555 467.828 963.225 476.077C955.254 486.868 946.134 495.625 935.866 502.353C935.61 502.638 935.418 503.884 935.666 504.309C938.01 508.381 969.527 522.871 975.563 524.61C988.458 528.324 993.672 527.71 1001.84 516.964C1011.46 504.314 1013.16 495.33 1013.59 478.541C1018.46 474.136 1017.39 467.18 1015.09 461.423C1018.54 454.376 1019 447.585 1019.14 439.644C1025.22 420.614 1032.03 401.748 1039.58 383.041L1044.86 376.202C1060.22 341.493 1094.47 323.622 1124.66 308.354C1131.27 306.896 1167.63 290.589 1170.61 283.596C1171.02 282.654 1171.36 273.984 1171.36 272.057C1166.27 226.949 1183.12 185.647 1204.46 148.345C1213.39 132.729 1222.36 118.355 1237.94 111.328C1241.83 108.71 1240.69 101.74 1239.37 97.6344L1228.56 75.5852C1226.94 72.552 1227.03 69.8858 1227.91 66.727C1225.36 62.1094 1222.93 57.405 1220.62 52.6088L1221.84 45.8081C1216.17 32.7911 1217.48 22.4983 1221.02 8.85346C1220.17 4.56921 1220.75 1.61806 1222.77 0H1261.04C1262.58 1.39105 1263.39 3.20714 1264 5.24542C1273.06 35.2061 1281.99 63.4667 1294.36 91.5727C1299.89 108.401 1299.74 118.611 1293.99 135.053C1290.76 144.288 1284.08 161.772 1278.39 169.032C1247.44 199.992 1232.86 248.81 1229.98 294.091C1221.49 326.535 1207.53 359.804 1177.66 373.922C1154.7 383.998 1137.73 395.025 1119.36 413.809C1099.96 433.65 1086.84 450.019 1079.95 478.898C1077.08 505.516 1068.83 529.208 1058.71 552.957C1051.42 570.036 1048.69 576.388 1034.46 586.719C1011.57 603.33 986.888 617.226 959.598 621.181C932.865 639.019 902.336 650.089 871.202 654.542C840.895 658.88 822.886 647.22 802.759 622.452C793.839 611.478 790.969 603.866 788.882 590.003C783.454 588.24 783.841 584.459 785.89 579.629L786.077 575.847C784.028 560.226 784.802 545.268 788.39 530.966C785.911 526.889 787.877 524.397 790.425 521.267C792.569 496.591 804.394 473.16 816.58 452.7L819.463 450.676C824.238 441.316 831.279 434.645 840.738 430.825L863.757 422.715C873.037 415.151 883.527 409.819 894.299 404.892C907.068 398.802 917.331 388.485 922.372 373.806C925.829 363.417 929.165 353.515 935.41 345.092C944.608 324.187 954.232 302.945 973.25 290.971L996.386 275.979C1022.59 249.38 1055.35 232.006 1087.51 216.535C1095.96 211.783 1102.35 204.166 1105.78 194.394C1109.96 179.972 1114.85 165.757 1120.16 151.663C1123.7 140.54 1127.53 128.213 1123.85 116.727C1123.15 79.7681 1130.04 45.1802 1142.4 10.9932C1142.84 5.18263 1144.7 1.51663 1147.97 0H1191.46L1191.45 0Z" fill="#FF8602"/>
<path d="M0 780.937L1.64765 778.244C22.6454 768.646 45.4733 766.282 67.9274 765.682C70.4401 766.016 71.8878 767.573 73.0094 769.845C78.0393 769.038 92.7681 772.432 96.1069 776.474L98.6414 781.986C101.624 783.089 103.506 784.858 103.915 788.528C108.201 787.967 111.31 790.25 113.24 795.375C118.961 796.675 125.817 798.489 120.93 806.423C123.63 807.917 124.704 810.538 125.825 813.458C131.203 811.505 133.981 813.212 133.79 819.773C136.172 821.175 136.763 823.53 135.572 826.827C138.507 828.708 139.315 831.633 140.233 834.984C144.084 836.072 145.962 839.756 145.867 846.037C150.457 848.377 151.075 848.793 153.492 853.899L157.804 866.775C162.56 871.189 164.825 875.995 167.008 882.271C169.642 882.165 171.546 883.113 172.72 885.11C173.181 896.859 178.228 904.179 184.745 912.955C194.618 933.514 204.152 955.514 210.699 977.47C211.933 979.568 213.742 981.227 216.116 982.45C216.263 987.677 218.141 991.115 221.758 992.768C222.963 1000.58 226.093 1006.82 231.149 1011.5C231.349 1015.26 232.857 1017.62 235.67 1018.58C234.592 1022.17 244.234 1035.19 245.525 1034.94C247.816 1034.5 252.407 1025.88 250.542 1022.49C256.559 1010.24 251.173 994.567 246.934 982.324C228.019 934.51 209.803 885.192 191.996 836.942C188.623 826.653 186.497 815.943 185.545 805.127C179.933 787.01 177.711 768.216 185.728 750.394C191.736 720.817 197.244 701.98 223.571 689.534C236.087 686.309 248.882 684.1 261.95 682.905C266.445 683.292 283.365 685.777 285.734 688.562C286.312 693.296 289.707 694.945 295.924 693.504C302.715 697.333 308.862 701.685 308.045 711.592L308.958 713.927C314.205 714.996 316.37 717.36 315.452 721.025C324.13 739.737 331.881 759.247 338.702 779.559C357.952 821.552 375.563 864.42 392.705 907.187C396.97 920.512 402.913 932.939 410.533 944.465C412.646 952.177 416.281 958.337 421.441 962.95C425.393 973.79 428.918 982.789 437.344 990.017L443.569 1004.26C448.121 1005.92 449.373 1007.17 450.559 1012.46C454.663 1016.12 457.841 1020.79 460.093 1026.49C464.958 1029.01 468.24 1032.36 469.94 1036.53C474.879 1038.51 476.187 1040.66 473.866 1043H400.83L398.969 1042.49C356.878 988.122 322.273 924.627 292.733 859.928C279.574 836.135 268.258 811.829 258.089 786.72C257.546 791.212 258.32 795.854 260.411 800.65C261.124 821.272 270.17 839.021 279.274 856.394L282.382 867.863C294.003 891.405 304.197 915.933 312.309 941.207C316.674 947.981 319.287 955.702 320.143 964.362C321.426 965.314 322.56 966.165 323.247 967.829C326.138 974.825 329.077 986.618 330.864 994.267C330.12 997.903 331.068 1001.36 333.711 1004.63C333.072 1011.8 333.711 1019.06 335.637 1026.4C335.668 1027.87 335.55 1029.14 335.398 1030.6C335.05 1033.94 333.551 1041.44 331.277 1043H0V780.932V780.937Z" fill="#FF8602"/>
<path d="M576.435 1043L575.231 1040.34C581.245 1025.28 589.183 1011.43 599.051 998.771C600.824 992.89 602.714 987.033 604.726 981.205C618.722 960.998 632.7 940.767 637.028 915.292C650.481 887.268 666.389 853 656.104 820.567C651.454 805.908 642.916 793.6 633.396 782.398C618.496 766.749 606.964 753.36 601.485 730.642C593.042 695.641 594.154 670.05 600.094 634.947C603.131 616.985 606.855 596.276 611.266 578.787C617.236 555.099 627.643 541.69 642.147 523.806C652.688 502.338 683.052 483.836 704.088 479.191C714.52 476.888 751.324 485.738 759.563 492.508C762.5 496.597 765.628 499.074 769.448 502.083C770.565 509.079 772.012 516.037 773.78 522.946C772.346 540.367 770.53 557.769 768.327 575.152C767.184 585.866 768.475 593.794 773.437 602.514C776.096 603.079 777.738 604.185 778.316 607.246C779.915 618.299 784.213 629.525 792.786 635.86L796.388 641.379C803.067 647.854 809.298 655.038 815.085 662.933C819.231 663.411 822.307 666.781 824.31 673.044C832.34 678.147 839.618 684.41 846.136 691.841C846.936 693.082 853.766 719.469 853.597 720.976C851.737 737.716 848.882 754.606 844.963 770.347C847.713 777.193 848.8 784.479 848.226 792.2C851.515 794.122 851.95 797.381 849.538 801.973C852.828 814.541 853.288 825.463 852.402 838.993C848.678 895.712 841.821 958.072 805.422 1001.3C799.238 1009 795.923 1017.17 793.068 1026.41C785.768 1033.34 777.578 1038.88 768.496 1043H652.914C652.323 1042.62 651.476 1041.93 651.637 1041.43C656.973 1024.89 665.042 1009.94 675.974 996.236C699.043 960.225 719.834 923.664 731.132 881.169C737.602 856.819 741.043 842.614 737.241 818.23C736.303 812.214 728.916 783.451 726.552 779.496C712.465 766.503 701.511 753.833 693.981 734.486C688.792 726.326 681.975 719.826 673.536 714.998C659.671 706.442 655.721 686.008 659.719 670.238C659.98 658.215 661.248 620.182 672.281 615.204C683.313 610.225 705.604 626.946 707.025 640.596C707.255 667.085 720.382 682.478 738.775 696.689L745.58 705.187L773.415 727.591C775.14 731.106 776.148 735.075 776.444 739.488L779.52 743.293C783.856 759.009 784.039 775.214 782.284 791.543C784.343 819.355 782.588 846.269 774.406 872.855C768.822 910.956 758.963 945.615 737.919 976.753C729.82 993.831 731.597 993.276 743.251 975.097L748.76 968.661C752.358 954.19 758.733 941.129 767.875 929.487C783.396 894.172 793.142 854.724 794.124 815.188C786.438 785.102 787.706 753.167 792.056 722.583C778.442 714.457 767.884 707.466 756.603 695.617C741.595 679.852 728.673 665.221 719.795 644.662C711.231 624.831 704.444 607.338 706.434 584.857C700.086 584.519 694.545 583.466 689.023 579.396C687.367 578.531 686.038 578.874 684.678 580.231C683.092 581.81 681.718 583.79 680.445 585.726C672.659 597.594 664.781 610.988 658.133 623.373C651.519 641.311 645.923 657.467 648.165 677.196C649.438 688.403 651.272 703.125 658.224 711.328C658.354 718.349 661.448 724.22 667.497 728.938C672.802 737.658 677.439 744.519 686.394 748.643C687.576 753.993 689.457 757.068 693.099 761.071C698.721 764.171 703.957 767.488 703.353 775.31C707.29 775.238 707.863 777.097 707.777 781.056L711.17 789.829C716.363 795.493 718.744 803.088 718.318 812.605L720.79 817.776C724.466 861.715 720.525 904.645 700.785 944.277C691.4 963.118 678.877 985.536 667.462 1002.87C658.324 1016.75 648.434 1031.3 637.276 1042.99H576.443L576.435 1043Z" fill="#FF8602"/>
<path d="M893.664 0C896.353 4.04777 894.047 12.4231 892.674 17.3731C885.15 44.482 876.758 70.7949 865.446 96.2876C852.349 125.799 834.665 154.138 817.177 180.683C802.725 202.625 786.135 226.955 763.929 238.871C758.756 246.533 752.292 251.83 745.072 257.335C741.154 263.24 736.389 266.752 730.772 267.867C729.156 273.207 725.759 277.033 720.581 279.334C717.319 284.313 714.739 287.951 708.683 288.752C694.414 305.7 675.969 320.69 656.343 328.564L654.471 332.505C650.058 334.715 648.707 336.915 650.414 339.1C664.736 350.269 672.955 361.723 677.364 381.156C675.765 390.959 680.839 390.047 687.611 388.373C699.487 385.001 711.507 382.27 723.674 380.186C727.836 374.816 731.571 371.391 737.188 368.187C747.083 355.156 761.709 344.504 775.275 336.336C788.611 332.399 802.273 330.03 816.26 329.229C829.518 327.276 845.243 323.918 851.659 309.28C852.758 301.551 855.664 295.439 860.377 290.952C867.154 266.328 879.851 244.125 896.093 225.72C899.151 218.661 903.964 212.732 910.523 207.932C912.747 203.488 916.196 199.913 920.87 197.207C937.164 171.154 962.263 157.236 988.879 148.31C998.036 145.401 1005.38 140.297 1010.89 133.007L1022.77 128.438C1037.22 122.528 1039.16 103.852 1040.67 88.9833C1043.81 84.6991 1045.5 81.8478 1042.62 76.5553C1042.71 72.3532 1044.01 68.2861 1046.53 64.359C1044.86 57.788 1046.09 53.1951 1049.09 47.4925C1047.36 45.9293 1046.21 43.8789 1046.62 41.2592C1049.75 28.5322 1052.84 15.4577 1054.93 2.34471L1056.98 0.0241226H1109.11C1109.91 4.58329 1109.7 9.45122 1108.45 14.6134C1107.25 70.0519 1102.02 130.021 1070.72 175.762C1065.31 183.669 1059.1 191.572 1050.92 195.2C1047.39 200.227 1042.48 203.768 1036.2 205.828C1027.73 214.556 1018.49 221.995 1008.47 228.146C987.88 235.981 971.403 249.75 955.752 266.202C943.932 278.625 931.105 293.649 921.683 307.963C910.614 337.894 894.003 370.392 871.463 391.48C853.548 401.713 834.631 409.693 814.705 415.41C804.94 418.193 797.286 423.404 791.743 431.041L774.88 438.582C765.541 449.191 754.898 456.061 742.952 459.187L721.954 461.585C706.194 468.581 700.569 470.94 684.201 463.245C653.624 448.873 630.528 428.127 610.172 398.075L583.526 365.915C578.574 359.687 572.406 346.26 574.782 338.01C570.538 335.453 570.217 331.159 573.813 325.138C572.584 319.296 574.404 316.049 577.284 311.379C576.958 303.442 579.547 297.668 583.066 290.797C593.939 269.565 609.746 249.292 625.141 232.054C634.159 217.918 647.061 202.702 662.616 198.374L671.143 193.144C693.08 173.919 714.196 156.454 740.533 145.29C759.342 135.81 770.693 118.524 781.409 99.5731C790.049 84.2987 798.407 67.1331 806 51.3521C810.04 42.9575 814.388 33.8632 817.338 24.9813C818.784 20.62 819.01 18.4489 818.458 13.9911C822.485 11.6898 823.202 7.57931 820.608 1.65963L822.403 0.019298H893.643L893.664 0Z" fill="#FF8602"/>
<path d="M1121.51 1042.99C1119.81 1037.62 1120 1031.63 1122.09 1025C1126.15 1009.19 1130.48 993.466 1135.06 977.823C1136.94 958.753 1141.59 940.576 1149.02 923.287C1163.52 897.342 1177.66 870.982 1191.48 844.651C1212.19 805.212 1223.37 763.127 1216.22 717.561C1209.64 675.66 1196.75 628.419 1161.15 607.23L1124.17 580.841C1101 563.016 1096.81 550.256 1096.93 518.619C1097.04 489.492 1099.89 460.143 1120.3 439.432C1158.57 400.587 1214.27 386.948 1264.74 396.28C1287.64 400.519 1307.05 406.414 1324.79 421.699C1337.53 425.561 1349.86 437.559 1358.21 448.75C1358.07 452.844 1359.79 455.229 1363.37 455.914L1369.55 465.758C1372.17 466.931 1373.16 469.915 1372.52 474.714C1378.21 478.596 1380.98 483.467 1380.83 489.333C1391.1 504.743 1394.68 523.35 1398.1 542.285C1401.6 569.104 1406.37 596.338 1412.74 622.032C1411.68 629.414 1412.15 635.917 1413.26 643.27C1402.86 712.27 1397.67 746.77 1397.67 746.77C1393.39 776.322 1387.29 806.293 1372.28 830.915C1357.06 874.241 1336.47 916.147 1315.36 955.625C1296.05 980.005 1279.83 1008.35 1274.02 1041.14L1271.87 1043H1236.23C1235.58 1042.69 1234.61 1042.18 1234.66 1041.6C1236.56 1018.86 1241.83 994.624 1247.42 971.895C1252.38 951.709 1261.37 938.041 1274 922.5C1279.61 914.11 1283.15 906.264 1286.19 896.444C1301.44 866.111 1316.39 835.792 1326.27 802.465C1338.64 774.202 1348.05 744.453 1349.87 712.941C1352.54 666.762 1336.95 607.23 1321.9 564.233C1311.08 533.329 1297.78 510.107 1277.45 487.049C1263.51 478.62 1249.2 470.91 1234.52 463.919C1218.57 447.697 1197.73 460.264 1182.32 471.61C1174.37 477.466 1150.87 497.439 1149.47 507.679C1148.11 517.721 1150.09 537.882 1156.96 545.322C1173.93 554.867 1190.37 568.158 1206.08 580.87C1215.08 583.868 1223.71 589.386 1231.84 595.329C1257.42 614.032 1279.16 651.772 1287.24 684.379C1290.38 697.053 1290.18 704.859 1288.79 718.585C1285.34 752.549 1280.82 786.914 1267.43 817.986C1243.33 867.82 1217.67 916.799 1190.63 964.884C1177.8 988.512 1166.2 1013.38 1159.53 1039.88L1157.14 1042.99H1121.5L1121.51 1042.99Z" fill="#FF8602"/>
<path d="M801.893 0.0096575C806.011 0.275239 802.91 8.44065 801.697 11.3379C780.628 61.552 752.988 109.072 717.033 147.562C703.165 154.496 689.289 162.352 675.395 171.136C654.912 180.759 634.748 191.223 614.9 202.518C607.93 204.053 601.998 208.829 597.11 216.845C575.632 248.434 553.58 279.913 525.522 305.457C497.482 321.696 467.642 316.124 442.346 296.335C440.497 290.609 437.314 286.659 432.8 284.495C397.567 257.536 360.152 233.596 323.158 210.611C309.442 207.796 295.374 206.168 280.958 205.738C260.259 199.891 239.372 195.168 218.298 191.571C192.085 190.34 166.28 186.819 141.088 181.001C127.177 180.035 114.126 184.603 101.933 194.714L82.007 202.141C64.208 212.528 45.8175 220.577 26.8443 226.29L15.3551 233.122C11.1326 234.803 1.97429 237.145 0 231.79V126.523L0.934962 123.925L20.9301 113.78C50.6662 90.9302 83.803 76.2894 120.445 82.0984L215.772 97.4924C256.367 94.3054 293.421 112.375 327.932 136.287L373.498 169.132C393.162 180.639 414.34 188.847 437.04 193.749C457.605 203.406 479.327 207.52 495.238 187.582L513.429 167.335C531.663 143.612 553.623 125.074 578.324 112.268C590.613 106.45 602.894 100.477 615.161 94.3489C640.588 87.1106 667.041 77.3759 689.906 62.4261C710.384 49.0359 721.251 32.7099 733.536 10.9371C735.858 7.36867 739.69 2.14396 742.747 0H801.888L801.893 0.0096575Z" fill="#FF8602"/>
<path d="M782.548 1043C782.63 1041.72 783.008 1040.58 783.725 1039.59L808.538 1022.83C837.759 1001.4 846.534 982.791 852.745 943.872C855.179 915.773 858.973 888.06 864.132 860.733C862.802 852.702 864.775 847.263 867.609 840.14C872.446 815.004 877.167 789.535 881.017 764.294C883.821 758.377 884.981 751.914 884.507 744.906C887.902 737.889 889.862 730.085 890.388 721.489C896.364 700.181 908.773 680.639 920.434 662.4C923.15 654.924 927.849 649.919 933.994 645.402C944.208 637.892 955.209 633.206 966.639 628.659C973.141 624.745 978.544 622.028 986.098 622.549C996.907 615.768 1005.46 612.496 1018.33 611.193C1065.09 606.449 1112.28 620.45 1145.77 655.561L1145.29 659.157C1147.54 659.968 1155.49 668.781 1156.38 670.793C1156.64 675.243 1157.01 679.635 1157.48 683.969C1163.81 687.357 1165.47 691.836 1162.46 697.41C1163.56 702.874 1165.24 708.221 1167.51 713.458L1167.1 720.485C1170.35 724.896 1170.8 730.389 1168.46 736.957C1168.04 809.999 1146.04 884.18 1125.28 953.66C1118.54 975.991 1114.5 999.085 1112.75 1022.4C1112.45 1030.14 1110.75 1037.01 1107.65 1043H1040.72C1038.38 1030.01 1039.07 1015.26 1039.84 1001.82C1041.62 971.005 1047.73 941.488 1054.16 911.555C1061.87 875.681 1070.73 839.864 1079.95 804.487C1082.77 785.896 1081.18 765.746 1078.9 747.165C1076.62 728.545 1072.6 721.803 1058.25 711.18C1040.12 697.753 1033.87 701.368 1017.5 714.225C993.113 733.376 979.504 753.985 973.107 787.991C965.796 846.969 954.7 903.722 938.884 960.426C930.404 990.822 924.376 999.582 902.827 1019.66L881.93 1037.32C879.531 1040.01 877.353 1042.3 873.82 1043H782.548Z" fill="#FF8602"/>
<path d="M6.95992 678.288L7.60371 676.064C20.9798 670.608 39.802 665.036 53.7436 668.273C63.3352 666.314 71.3522 667.521 79.3126 673.966C84.9936 670.193 87.4296 675.447 87.2556 681.221C89.1565 680.999 90.6833 681.448 91.8317 682.567C95.2856 677.352 95.3508 672.842 92.0188 669.026C90.7747 657.882 92.4842 645.923 94.1024 634.904C93.8371 623.389 95.738 611.551 98.6089 600.262L101.697 595.211C95.9772 582.036 100.932 573.835 108.096 562.281C127.775 530.548 165.85 521.768 198.327 519.047C203.19 521.117 207.949 521.348 212.595 519.737C221.543 520.88 230.151 524.474 238.416 530.519C243.962 528.922 248.952 531.368 253.38 537.866C265.895 542.459 277.357 548.87 287.775 557.1C292.764 557.621 296.197 560.12 298.063 564.607C303.987 564.525 307.119 568.08 307.454 575.273C313.035 576.595 317.107 580.758 319.66 587.753C325.006 592.075 328.343 596.268 330.252 603.374C334.846 606.514 338.487 611.02 341.175 616.896C343.942 618.565 346.83 620.036 349.844 621.31C349.383 624.441 350.232 626.641 352.389 627.904C353.481 632.492 355.565 634.977 358.649 635.363C388.389 681.038 410.248 734.137 428 787.681C444.343 828.797 459.18 870.555 473.039 912.714L484.732 930.554C503.646 968.92 524.999 1006.91 549.925 1040.6L549.842 1043H499.383L496.207 1041.48C486.916 1026.83 477.181 1012.81 466.332 999.139C453.317 973.629 439.245 949.006 422.523 926.038C384.322 856.29 354.977 780.773 327.842 705.125C321.57 686.451 310.791 672.05 296.91 659.676C287.153 644.49 277.709 638.32 261.071 636.202L246.929 629.863C228.581 623.365 223.683 630.23 215.288 647.076C206.705 657.805 199.262 669.508 192.964 682.186C180.492 695.896 172.336 709.703 167.699 728.344C163.615 738.455 155.097 743.829 146.724 748.924C134 756.662 115.026 768.022 100.519 765.909C75.763 762.306 58.8678 753.265 43.4342 730.597L39.7542 727.668L1.62688 745.243L0 743.897V680.218C0.82649 677.873 5.21124 676.233 6.95992 678.288Z" fill="#FF8602"/>
<path d="M1678 795.143C1676.48 796.235 1675.75 795.771 1674.9 794.253C1666.07 776.642 1659.58 764.264 1644.33 751.621C1627.42 737.614 1608.02 726.426 1587.34 721.912C1570.65 724.439 1555.71 723.898 1539.49 719.094C1522.75 722.67 1505.89 725.507 1488.89 727.605C1461.35 729.475 1442.1 694.199 1432.98 669.661C1432.1 656.935 1432.04 644.171 1432.81 631.368C1430.29 616.434 1430.74 603.003 1434.49 588.547C1432.74 568.958 1430.73 549.293 1428.46 529.554C1426.81 519.448 1423.92 510.628 1420.14 501.658L1412.54 470.31C1409.68 459.904 1405.33 450.021 1398.84 441.775C1384.05 424.884 1369.73 407.712 1355.91 390.255C1331.12 368.428 1306.29 346.786 1281.43 325.327C1259.84 301.529 1240.35 264.13 1252.52 229.868C1271.03 177.753 1349.21 148.808 1395.22 167.695L1410.2 168.715C1411.89 170.059 1413.51 171.364 1415.05 172.625C1421.08 169.58 1423.12 171.166 1427.99 175.704L1432.9 175.689C1443.84 181.847 1453.86 185.887 1466.03 188.908C1494.29 210.628 1524.61 238.476 1537.43 275.135C1541.16 279.649 1543.04 285.657 1543.08 293.167L1545.04 318.604C1545.9 325.941 1547.57 329.585 1551.15 335.457C1562.76 366.838 1575.39 395.344 1593.23 422.926C1597.68 429.823 1601.77 434.787 1608.5 438.03C1614.34 445.304 1619.92 448.46 1628.33 450.818C1643.75 462.824 1660.42 474.07 1676.04 456.724L1678 457.783V526.413C1677.59 527.239 1677 527.747 1676.19 527.843C1653.57 530.458 1638.02 531.067 1615.13 524.098C1589.58 516.321 1560.57 499.637 1555.87 468.295L1553.74 463.616C1525.62 421.791 1501.49 373.977 1486.05 324.694C1485.47 298.097 1482.32 276.754 1464.36 256.504C1436.38 224.958 1374.76 206.94 1336.04 209.825C1308.63 211.87 1287.57 230.255 1293.49 263.149C1298.03 288.373 1314.9 302.452 1334.17 312.824C1339.71 320.929 1346.95 327.7 1355.87 333.132L1360.25 338.763C1371.4 345.925 1382.04 353.852 1392.19 362.542C1405.13 381.289 1419.15 398.959 1434.24 415.551C1454.4 440.2 1463.32 464.133 1471.29 496.902C1475.92 509.362 1479.55 520.927 1479.89 534.194C1483.47 554.203 1486.18 574.154 1484.79 594.617C1482.07 612.398 1480.09 631.325 1479.06 649.642C1478.64 657.046 1478.51 662.962 1479.49 670.304C1480.49 677.853 1488.42 688.781 1494.88 690.806C1501.35 689.539 1507.82 688.969 1514.3 689.095C1525.66 685.953 1537.13 683.551 1548.71 681.884C1571.16 683.938 1593.69 685.571 1616.55 686.267C1622.63 686.451 1628.27 685.91 1633.92 684.068C1639.22 684.639 1644.41 687.147 1649.49 691.584C1656.3 690.177 1667.96 688.239 1674.12 692.937C1675.57 694.049 1677.58 696.538 1678 698.476V795.138L1678 795.143Z" fill="#FF8602"/>
<path d="M274.711 0C302.729 15.7498 329.718 33.8332 355.676 54.2455C382.226 72.2273 427.314 98.982 455.302 72.9971C470.733 55.7173 488.202 43.5746 508.714 34.0995L518.49 26.8032C533.738 23.2785 544.244 18.0108 555.498 5.65501L566.808 0H704.163C705.606 0.731084 705.745 1.34113 705.619 2.76456C704.719 12.961 669.172 48.8761 661.483 55.8384C657.675 59.2856 642.119 72.4984 637.398 74.987C635.294 76.0957 633.834 76.7251 631.404 76.6767C619.125 89.7055 607.458 96.6242 590.076 100.1L580.843 106.501C552.894 114.843 525.549 127.02 501.395 144.871C464.252 188.242 402.234 167.917 364.178 136.848C332.982 125.098 305.868 108.602 279.062 86.1518C266.382 76.5218 253.764 70.4504 238.837 66.9886C210.614 60.4428 182.483 59.0193 153.92 61.2707C103.099 53.2142 51.7516 60.4282 1.55611 71.4236L0 69.7193V0H274.711Z" fill="#FF8602"/>
<path d="M0 326.406C8.05923 320.765 16.7267 316.104 26.0024 312.411L61.2327 292.12C75.6177 282.903 90.0852 278.988 106.251 277.595C124.147 267.722 139.822 266.628 159.473 272.186C202.793 274.269 241.377 289.772 276.043 319.396C289.016 331.289 302.64 341.866 316.921 351.131C357.626 371.094 393.403 400.458 421.878 438.6C431.762 446.853 440.864 455.043 447.107 467.592L461.444 493.176C473.157 506.394 483.032 517.632 489.223 534.991C491.265 540.719 495.236 554.193 489.61 557.919C486.782 566.235 478.683 571.258 471.602 565.873C467.088 567.18 464.099 563.926 462.639 556.116C425.34 494.318 370.707 451.182 307.789 425.704C294.181 420.194 276.103 414.452 261.949 415.865C257.469 412.278 252.199 410.986 246.143 411.989C209.027 402.401 170.282 401.451 133.166 407.212C122.961 411.025 112.616 413.146 102.137 413.585C94.23 415.262 69.1486 427.613 62.4927 432.844C57.5572 436.724 45.4792 453.549 43.0159 459.676L29.7692 498.966C23.9083 514.922 14.4284 529.737 1.72915 539.798L0 538.52V326.406Z" fill="#FF8602"/>
<path d="M1664.81 1043H1608.38L1606.4 1040.6C1608.28 1008.04 1603.37 975.178 1597.35 942.941C1592.38 916.349 1587.9 889.815 1583.91 863.34C1583.62 853.927 1583.63 844.654 1583.92 835.521C1580.99 826.789 1547.18 801.26 1539.48 801.82C1533.09 802.284 1502.17 828.895 1495.3 834.845C1470.19 856.602 1449.15 880.876 1429.02 908.636C1452.63 908.09 1479.48 912.954 1494.72 935.551C1501.46 945.553 1505.48 954.435 1500.96 966.205C1504.13 994.607 1463 1010.8 1443.67 1016.71C1419.74 1021.98 1395.76 1027 1371.73 1031.77C1363.92 1036.62 1355.69 1040.37 1347.04 1043H1286.26C1286.04 1042.34 1285.85 1041.68 1285.77 1041C1285.2 1035.79 1296.58 1020.83 1300.36 1016.54C1325.57 987.914 1361.55 977.472 1396.39 973.874C1401.78 974.492 1436.75 959.525 1437.38 956.236C1437.69 954.599 1428.79 954.179 1427.7 954.648L1394.12 959.323C1381.65 960.805 1361.54 959.999 1359.71 942.482C1356.44 939.038 1355.03 935.455 1355.47 931.736C1348.26 926.481 1353.5 912.476 1356.28 905.207C1364.09 884.792 1376.6 868.449 1390.72 852.526C1403.76 839.192 1415.68 825.118 1426.48 810.316C1440.89 797.749 1456.37 786.878 1471.91 776.195C1492.09 757.441 1507.98 746.454 1534.72 745.817C1545.54 745.561 1558.76 745.734 1569.58 746.28C1588.58 747.241 1610.21 754.181 1626.55 765.053C1631.89 768.612 1634.42 772.08 1637.16 777.953C1644.34 783.487 1648.21 790.476 1648.79 798.918C1653.53 808.838 1657.17 818.7 1658.25 830.073C1660.98 858.993 1663.27 888.68 1665.27 917.083L1664.11 923.342C1671.43 961.602 1669.74 1002.73 1666.31 1041.16L1664.82 1043H1664.81Z" fill="#FF8602"/>
<path d="M1678 662.975C1677.39 664.759 1675.97 665.266 1673.73 664.493C1665.49 660.264 1657.45 659.316 1649.61 661.651C1636.44 667.538 1624.3 671.694 1609.7 669.133C1592.49 671.177 1575.42 672.429 1558.23 672.042C1523.88 671.274 1509.17 654.541 1492.92 623.598C1484.13 606.875 1484 591.5 1485.19 572.075C1486.98 558.948 1485.54 545.99 1480.87 533.191C1479.44 506.923 1476.91 482.858 1466.24 458.884C1462.03 444.167 1457.55 430.745 1450.76 417.337C1444.82 405.622 1439.92 397.221 1429.26 390.508C1421.99 380.16 1413.76 371.005 1404.56 363.045C1385.31 351.203 1371.32 334.219 1357.15 315.843C1344.01 303.218 1333 291.348 1322.87 275.794C1320.95 272.841 1315.1 263.624 1314.96 260.507C1314.36 246.244 1344.52 232.58 1355.35 231.56L1392.29 235.016C1406.51 236.5 1419.95 238.095 1432.38 245.238C1439.19 244.692 1442.77 247.447 1443.12 253.498C1445.7 253.813 1448.23 254.417 1450.71 255.306C1462.35 270.632 1474.16 287.534 1477.49 308.351C1478.84 327.714 1483.07 345.64 1490.17 362.132L1491.54 377.057C1512.36 411.117 1528.41 449.198 1541.4 487.904C1546.2 505.41 1574.34 543.931 1589.85 547.546C1618.37 554.202 1647.52 557.59 1676.3 558.731L1678 560.495V662.961V662.975Z" fill="#FF8602"/>
<path d="M1030.75 0L1032.08 1.5829C1032.17 15.9545 1032.78 29.9931 1034.58 44.4999C1036.14 87.7499 1006.97 120.508 974.954 140.266C937.685 161.046 903.912 184.843 882.14 225.993C866.617 252.893 850.303 279.257 831.958 304.067L801.128 314.076C785.687 319.443 770.62 326.672 757.75 337.762C738.909 345.575 720.39 354.493 703.416 366.582C700.537 368.189 697.524 364.343 696.165 361.901C661.844 339.712 695.04 307.759 715.57 291.684C735.353 279.986 752.279 265.31 768.032 247.377C793.872 225.718 816.07 201.68 830.625 169.414C852.349 141.265 870.681 110.311 885.627 76.5634C892.318 65.8836 898.011 54.4075 902.9 42.4827C910.199 32.8067 914.846 22.928 918.884 11.1189C920.551 7.63462 924.42 1.54912 927.403 0.00482593H1030.75L1030.75 0Z" fill="#FF8602"/>
<path d="M1440.36 0C1475.97 27.2507 1515.7 46.156 1557.58 59.061C1576.1 65.9994 1591.81 78.179 1606.76 91.6739C1635.84 117.924 1645.8 133.735 1652.6 175.466C1656.47 206.798 1659.32 238.014 1661.15 269.113C1661.92 281.225 1666.31 292.409 1673.93 300.764L1678 314.283V367.469C1675.88 371.729 1668.73 369.422 1665.09 367.904C1641.04 351.117 1616.01 329.04 1613.64 294.401C1612.64 280.277 1610.8 266.333 1608.12 252.567C1595.07 217.024 1577.14 187.148 1552.65 159.685C1537.7 142.921 1523.26 135.814 1502.4 131.051C1494.54 128.687 1487.82 124.533 1482.02 118.431C1475.73 117.189 1470.34 115.941 1464.27 112.798C1447.79 104.255 1430.98 93.9415 1415.95 83.2414C1402.73 78.7883 1393.38 73.02 1385.34 60.0377C1369.91 45.044 1357.72 25.8389 1352.91 3.16217L1354.17 0H1440.35L1440.36 0Z" fill="#FF8602"/>
<path d="M1325.17 0.00483343L1327.14 0.87485C1337.37 37.6379 1359.09 62.5059 1389.82 79.3214C1424.49 98.2926 1460.44 114.576 1496.66 129.555C1549.14 153.949 1582.92 197.315 1596.55 259.236C1605.24 295.864 1614.5 331.902 1624.37 367.345C1633.35 380.41 1645.78 383.9 1660.16 386.22C1665.56 388.666 1671.03 390.164 1676.57 390.71L1678 392.479V440.813L1677.32 442.93C1646.68 446.947 1599.85 429.319 1584.96 397.661C1577.13 381.034 1570.67 363.725 1565.63 345.798C1548.94 278.101 1529.25 207.692 1465.26 181.863C1445.78 177.005 1427.72 169.431 1411.08 159.15C1391.67 150.416 1372.53 141.054 1353.64 131.073C1318.11 111.681 1299.36 82.3761 1286.29 41.7463C1283.28 32.4178 1276.83 11.2329 1278.14 2.26688C1278.26 1.4742 1278.64 0.729847 1279.11 0H1325.17V0.00483343Z" fill="#FF8602"/>
<path d="M1175.99 1043C1175.32 1042.9 1174.31 1042.69 1174.25 1042.15C1172.24 1023.57 1177.39 1004.06 1186.89 988.502C1200.04 966.577 1211.87 943.615 1222.39 919.61C1244.87 884.565 1263.85 845.886 1282.03 807.578C1287.96 793.353 1293.18 779.093 1297.68 764.81C1297.17 751.849 1298.02 739.69 1301.26 726.946C1302.83 718.663 1302.08 710.056 1299.5 702.019C1283.64 652.566 1261.1 607.442 1229.34 569.709C1221.38 564.472 1213.61 558.911 1206.03 553.031C1190.23 546.085 1175.61 536.74 1174.92 515.795C1174.69 508.897 1179.75 487.147 1185.57 484.472C1187.94 483.381 1207.14 483.657 1210.45 484.207C1228.64 487.209 1240.59 494.667 1255.7 505.895C1277.43 516.587 1293.44 535.871 1307.41 557.492C1313.89 567.522 1317.69 575.598 1319.14 587.164C1346.84 630.791 1348.28 695.537 1335.18 745.598C1327.54 774.792 1318.99 804.696 1309.85 833.504C1302.57 847.44 1294.94 861.144 1286.96 874.617C1283.29 889.812 1277.62 904.139 1269.96 917.592C1246.98 954.804 1224.9 994.29 1221.48 1040.28L1219.49 1042.99H1175.99L1175.99 1043Z" fill="#FF8602"/>
<path d="M924.213 1043L922.705 1041.56C928.698 1028.91 934.238 1015.66 939.323 1001.81C948.148 986.702 953.963 970.431 956.948 952.857L962.767 918.934C974.46 882.5 982.182 846.095 984.898 806.961C986.271 798.765 987.758 790.352 991.464 783.345L991.438 779.587C1002.94 749.663 1019.63 728.626 1050.59 743.994C1057.42 747.384 1059.95 749.726 1063.26 757.685C1068.09 769.271 1067.39 779.129 1064.32 791.169C1056.67 817.678 1049.31 844.622 1044.16 872.078C1037.87 924.44 1023.55 973.662 1007.98 1023.17L1004.39 1042.04L1002.43 1043H924.209H924.213Z" fill="#FF8602"/>
<path d="M1438.09 1043C1437.28 1042.62 1436.56 1041.97 1436.62 1041.06C1436.77 1038.65 1450.86 1030.59 1453.79 1028.92C1477.12 1018.48 1498.96 1002.9 1515.8 982.378C1518.11 979.564 1522.71 972.128 1521.36 968.211C1519.3 962.264 1512.36 948.285 1508.16 944.15C1498.04 936.854 1489.38 927.414 1482.2 915.829C1467.12 907.011 1454 899.286 1467.4 878.941L1480.16 862.007C1495.12 835.181 1519.51 805.569 1549.78 824.083C1569.61 836.207 1581.42 852.447 1584.01 877.707C1587.98 885.654 1589.4 893.523 1588.28 901.31C1590.92 909.324 1592.16 916.668 1590.85 925.395C1585.34 964.158 1581.09 1002.99 1578.08 1041.91L1576.05 1043H1438.09Z" fill="#FF8602"/>
<path d="M1476.52 0H1678V229.051C1676.35 230.322 1674.93 229.375 1673.72 226.205C1667.4 206.794 1661.98 186.754 1657.47 166.091C1653.83 157.49 1651.12 148.671 1649.32 139.634C1651.07 127.699 1649.77 123.108 1641.63 113.448C1627.7 84.1353 1608.34 62.6992 1580.79 49.9226C1556.21 40.4802 1531.33 31.7869 1506.17 23.8378C1498.91 20.9915 1491.75 17.2272 1485.72 11.8295C1482.59 9.02675 1477.35 3.9045 1476.53 0.00483231L1476.52 0Z" fill="#FF8602"/>
<path d="M512.735 0C512.861 0.742825 512.957 1.48565 512.935 2.22848C512.613 12.8451 486.825 35.9643 477.919 42.2494C466.667 50.1889 433.944 61.9391 421.195 61.8137C404.174 61.6449 384.169 50.5025 369.306 41.6368C356.705 32.12 343.478 24.4795 329.634 18.7153C322.389 17.7796 299.512 13.3419 297.206 4.01801C296.679 1.886 296.488 0.974355 298.663 0.00482354H512.731L512.735 0Z" fill="#FF8602"/>
</svg>
