<svg width="366" height="177" viewBox="0 0 366 177" fill="none" xmlns="http://www.w3.org/2000/svg">
<path d="M70.2452 142.192C79.0042 158.597 48.07 158.833 44.3101 158.529C9.40231 155.688 39.3025 148.822 39.3025 148.822C39.3025 148.822 3.81365 136.898 4.6511 158.293C5.13818 170.597 18.2638 177 46.66 177C75.0562 177 79.0127 162.023 79.0127 162.023C82.1061 170.78 73.9538 177 73.9538 177C73.9538 177 91.2753 177 92.2067 147.645C93.1382 118.29 51.9838 121.366 44.3101 120.652C36.6278 119.938 14.6919 110.406 37.1405 105.5C63.1269 99.8189 85.849 119.893 85.849 119.893C85.849 119.893 93.1382 92.4821 49.8218 92.0112C6.50544 91.5403 1.25005 106.108 0.395513 110.976C-1.09992 119.467 0.395511 140.149 27.5526 138.599C36.3201 138.098 39.7297 134.369 45.6859 134.475C54.3508 134.635 68.3054 138.577 70.2452 142.199V142.192Z" fill="black"/>
<path d="M262.71 92.1332C274.105 91.8335 277.778 92.1332 277.778 92.1332V175H247.096C247.096 175 239.784 158.869 256.642 146.704C273.499 134.539 257.877 114.258 257.877 114.258C254.409 131.734 240.219 145.743 231.125 153.743C223.625 160.337 215.784 174.401 215.784 174.401C209.46 162.312 213.142 152.137 213.142 152.137C200.128 158.116 202.983 175 202.983 175H191.111V92.1332H218.844C218.844 92.1332 224.665 99.2495 218.844 110.738C213.023 122.235 202.114 136.068 200.631 148.971C200.631 148.971 208.122 152.268 217.48 137.006C226.838 121.743 245.613 121.966 245.613 121.966C245.613 121.966 249.125 92.4867 262.71 92.1332Z" fill="black"/>
<path d="M100 92V174.946H132.433C132.433 174.946 140.427 127.934 152.74 138.966C155.436 141.379 149.56 158.926 149.56 158.926C149.56 158.926 159.585 157.515 163.506 147.184C167.417 136.854 161.856 175 161.856 175L185.556 174.946C185.556 174.946 175.003 125.814 153.233 126.053C131.464 126.284 124.61 157.515 124.61 157.515C124.61 157.515 137.79 112.453 181.108 92.1311L143.811 92C143.811 92 120.698 103.51 119.72 136.383C118.742 169.256 120.698 92 120.698 92H100.009H100Z" fill="black"/>
<path d="M52.1809 2.13765H95.5556V83H60.4484C60.4484 83 78.1853 17.8452 74.4265 22.4488C63.8577 35.3957 63.0054 37.6899 51.0728 47.6313C49.2233 49.1761 40.9813 53.8868 40.9813 53.8868L52.1809 22.2194C37.1544 25.4542 21.8125 50.8279 22.0682 64.5624C22.3239 78.2969 37.8277 83 37.8277 83H6.66675V2.13765L35.6884 2L52.1809 2.13765Z" fill="black"/>
<path d="M187.778 81H227.647C227.647 81 229.932 77.9668 209.344 64.9073C188.755 51.8478 228.403 24.6947 218.877 33.2887C209.344 41.8827 228.794 56.658 228.794 56.658C216.974 41.1934 234.13 24.6947 241.293 22.979C248.456 21.2632 257.004 40.1593 245.567 53.5635C234.13 66.9677 240.613 81 240.613 81H276.667C276.667 81 273.132 1.09566 236.798 0.0539576C220.449 -0.413274 193.259 0.352677 187.778 81Z" fill="black"/>
<path d="M143.333 85C167.879 85 187.778 66.6437 187.778 44C187.778 21.3563 167.879 3 143.333 3C118.787 3 98.8889 21.3563 98.8889 44C98.8889 66.6437 118.787 85 143.333 85Z" fill="black"/>
<path d="M127.756 66.012C141.699 60.7988 143.991 55.4545 143.991 55.4545C143.991 55.4545 149.523 58.7629 148.415 63.9761C147.307 69.1893 153.835 67.886 154.329 67.778C168.699 64.7087 179.923 55.4236 166.142 52.3698C163.219 51.722 156.767 53.1409 154.21 50.8274C154.21 50.8274 164.846 46.9638 167.846 45.4291C174.835 41.8585 188.923 22.6484 154.21 13.8106C154.21 13.8106 157.236 17.2501 149.949 23.836C144.077 29.1417 130.347 23.0648 130.347 23.0648C130.347 23.0648 141.426 12.2682 134.608 13.0394C127.279 13.8646 117.23 13.4944 116.71 33.8614C115.858 67.0222 127.747 66.012 127.747 66.012H127.756Z" fill="white"/>
<path d="M321.111 84C345.657 84 365.556 65.6437 365.556 43C365.556 20.3563 345.657 2 321.111 2C296.565 2 276.667 20.3563 276.667 43C276.667 65.6437 296.565 84 321.111 84Z" fill="black"/>
<path d="M304.628 66.012C318.829 60.7988 321.164 55.4545 321.164 55.4545C321.164 55.4545 326.798 58.7629 325.669 63.9761C324.55 69.1893 331.19 67.886 331.694 67.778C346.329 64.7087 357.761 55.4236 343.725 52.3698C340.747 51.722 334.176 53.1409 331.572 50.8274C331.572 50.8274 342.405 46.9638 345.461 45.4291C352.579 41.8585 366.928 22.6484 331.572 13.8106C331.572 13.8106 334.654 17.2501 327.232 23.836C321.251 29.1417 307.267 23.0648 307.267 23.0648C307.267 23.0648 318.551 12.2682 311.607 13.0394C304.142 13.8646 293.907 13.4944 293.378 33.8614C292.51 67.0222 304.619 66.012 304.619 66.012H304.628Z" fill="white"/>
</svg>
