<svg width="488" height="174" viewBox="0 0 488 174" fill="none" xmlns="http://www.w3.org/2000/svg">
<path d="M24.5742 47.444H14.615V84.6487H0V0H14.615V33.9041H24.5742V0H39.1892V84.6487H24.5742V47.444Z" fill="black"/>
<path d="M63.5998 85.8243H60.7824C49.2554 85.8243 43.1082 80.2827 43.1082 69.88V53.0321H57.4525V67.7328C57.4525 71.5764 58.8612 73.6127 62.1914 73.6127C65.6481 73.6127 66.9282 71.5764 66.9282 66.3747V64.4532C66.9282 58.4597 66.2888 56.3114 61.0377 50.3175L51.8175 39.9159C45.6686 32.9054 43.8775 27.4761 43.8775 19.1098V16.3952C43.8775 5.20078 50.2803 0 61.677 0H64.3693C76.2786 0 80.8871 4.63635 80.8871 14.5869V28.3811H66.9282V16.2832C66.9282 13.4551 66.2888 11.3065 62.8302 11.3065C59.3736 11.3065 58.6042 13.2296 58.6042 17.1866V18.7694C58.6042 23.5192 59.629 26.1203 64.4944 31.6616L73.7184 42.1766C80.2477 49.6396 82.2973 53.9369 82.2973 63.4351V66.1501C82.2973 78.4744 76.2786 85.8243 63.5998 85.8243Z" fill="black"/>
<path d="M118.129 0V12.2869H100.248V34.4749H114.281V47.3313H100.248V71.7924H118.874V84.6487H86.2162V0H118.129Z" fill="black"/>
<path d="M157.642 68.7207H146.997L145.049 84.6487H131.937L143.75 0H161.146L173.739 84.6487H159.59L157.642 68.7207ZM156.083 56.0908L152.187 24.8033L148.425 56.0908H156.083Z" fill="black"/>
<path d="M190.294 84.6487H176.351V0H198.932C208.187 0 212.877 3.64041 212.877 13.0832V28.1016C212.877 35.1556 209.298 37.887 206.829 38.9101C209.914 40.1617 212.877 42.4379 212.877 48.1261V77.8217C212.877 81.2352 213.616 82.8293 214.234 84.0796V84.6487H200.413C199.797 83.7379 199.056 82.2597 199.056 77.7086V52.2232C199.056 48.4672 198.316 46.8746 193.873 46.8746H190.294V84.6487ZM190.294 34.8145H193.996C197.822 34.8145 199.056 32.5398 199.056 28.7837V16.952C199.056 13.3116 198.193 11.4907 193.996 11.4907H190.294V34.8145Z" fill="black"/>
<path d="M242.813 12.2869V84.6487H228.764V12.2869H216.847V0H254.73V12.2869H242.813Z" fill="black"/>
<path d="M292.695 68.7207H282.383L280.494 84.6487H267.793L279.239 0H296.092L308.288 84.6487H294.58L292.695 68.7207ZM291.185 56.0908L287.413 24.8033L283.766 56.0908H291.185Z" fill="black"/>
<path d="M323.694 0L335.865 45.3962V0H348.784V84.6487H337.245L323.694 35.9534V84.6487H310.901V0H323.694Z" fill="black"/>
<path d="M355.315 0H377.161C389.41 0 393.198 6.25765 393.198 16.2699V67.811C393.198 78.1645 388.904 84.6487 377.161 84.6487H355.315V0ZM369.584 72.3621H372.994C377.287 72.3621 378.55 70.3137 378.55 65.7637V18.0894C378.55 13.1974 377.161 11.4907 373.624 11.4907H369.584V72.3621Z" fill="black"/>
<path d="M0 88.1758H22.5996C35.27 88.1758 39.1892 94.433 39.1892 104.445V155.986C39.1892 166.339 34.7472 172.824 22.5996 172.824H0V88.1758ZM14.7611 160.537H18.2888C22.7307 160.537 24.0382 158.489 24.0382 153.938V106.265C24.0382 101.373 22.5996 99.6658 18.9408 99.6658H14.7611V160.537Z" fill="black"/>
<path d="M76.2959 88.1758V100.462H57.7001V122.65H72.2936V135.507H57.7001V159.968H77.0721V172.824H43.1082V88.1758H76.2959Z" fill="black"/>
<path d="M100.175 174H97.3572C85.83 174 79.6847 168.307 79.6847 157.618V140.309H94.0287V155.412C94.0287 159.361 95.4377 161.453 98.7662 161.453C102.222 161.453 103.504 159.361 103.504 154.018V152.043C103.504 145.886 102.865 143.678 97.6138 137.52L88.3921 126.834C82.2449 119.631 80.4543 114.053 80.4543 105.457V102.669C80.4543 91.1675 86.8548 85.8242 98.2538 85.8242H100.944C112.856 85.8242 117.464 90.5875 117.464 100.811V114.983H103.504V102.554C103.504 99.6476 102.865 97.4402 99.4057 97.4402C95.9482 97.4402 95.1806 99.4161 95.1806 103.481V105.108C95.1806 109.987 96.206 112.66 101.071 118.353L110.293 129.156C116.822 136.824 118.874 141.239 118.874 150.997V153.786C118.874 166.449 112.856 174 100.175 174Z" fill="black"/>
<path d="M135.856 171.649H121.486V87H135.856V171.649Z" fill="black"/>
<path d="M155.512 174C147.493 174 142.387 167.163 142.387 158.241V104.362C142.387 94.7454 146.277 85.8242 159.278 85.8242H161.953C176.655 85.8242 178.357 94.9764 178.357 105.173V113.98H164.991V104.248C164.991 100.422 164.018 98.3369 160.615 98.3369C157.699 98.3369 156.362 100.422 156.362 104.248V154.649C156.362 158.703 158.065 160.791 160.857 160.791C164.384 160.791 165.963 158.472 165.963 155.229V133.677H159.766V120.468H178.964V172.84H171.188C171.066 172.376 169.973 168.089 168.878 164.381C167.907 167.278 163.29 174 156.362 174H155.512Z" fill="black"/>
<path d="M197.427 88.1758L210.013 133.571V88.1758H223.378V172.824H211.44L197.427 124.129V172.824H184.189V88.1758H197.427Z" fill="black"/>
<path d="M260.852 174H258.035C246.507 174 240.36 168.307 240.36 157.618V140.309H254.704V155.412C254.704 159.361 256.113 161.453 259.443 161.453C262.9 161.453 264.18 159.361 264.18 154.018V152.043C264.18 145.886 263.541 143.678 258.29 137.52L249.069 126.834C242.921 119.631 241.129 114.053 241.129 105.457V102.669C241.129 91.1675 247.532 85.8242 258.929 85.8242H261.621C273.531 85.8242 278.139 90.5875 278.139 100.811V114.983H264.18V102.554C264.18 99.6476 263.541 97.4402 260.082 97.4402C256.626 97.4402 255.856 99.4161 255.856 103.481V105.108C255.856 109.987 256.881 112.66 261.746 118.353L270.971 129.156C277.5 136.824 279.55 141.239 279.55 150.997V153.786C279.55 166.449 273.531 174 260.852 174Z" fill="black"/>
<path d="M306.465 155.436V135.365H320.045V155.32C320.045 164.603 316.864 174 303.531 174H300.471C286.527 174 283.469 164.487 283.469 155.784V103.112C283.469 94.2931 287.504 85.8242 299.983 85.8242H303.162C318.333 85.8242 320.045 95.3384 320.045 103.808V119.238H306.465V104.039C306.465 100.326 305.241 98.355 301.817 98.355C298.394 98.355 297.536 100.21 297.536 104.039V155.32C297.536 159.149 298.882 161.237 301.94 161.237C305.241 161.237 306.465 158.917 306.465 155.436Z" fill="black"/>
<path d="M349.027 135.619H339.398V172.824H325.27V88.1758H339.398V122.08H349.027V88.1758H363.153V172.824H349.027V135.619Z" fill="black"/>
<path d="M407.567 153.697C407.567 165.763 403.129 174 389.304 174H386.895C373.198 174 368.378 165.763 368.378 153.697V105.665C368.378 93.7126 373.322 85.8242 386.768 85.8242H389.178C403.129 85.8242 407.567 93.7126 407.567 105.548V153.697ZM392.984 104.967C392.984 100.443 391.333 98.3533 388.037 98.3533C384.358 98.3533 382.963 100.558 382.963 104.967V154.625C382.963 158.337 384.106 161.237 388.161 161.237C391.967 161.237 392.984 158.337 392.984 154.625V104.967Z" fill="black"/>
<path d="M450.676 153.697C450.676 165.763 446.236 174 432.411 174H430.002C416.306 174 411.486 165.763 411.486 153.697V105.665C411.486 93.7126 416.432 85.8242 429.877 85.8242H432.287C446.236 85.8242 450.676 93.7126 450.676 105.548V153.697ZM436.092 104.967C436.092 100.443 434.442 98.3533 431.145 98.3533C427.465 98.3533 426.072 100.558 426.072 104.967V154.625C426.072 158.337 427.211 161.237 431.27 161.237C435.075 161.237 436.092 158.337 436.092 154.625V104.967Z" fill="black"/>
<path d="M470.732 88.1758V159.741H487.252V172.824H457.207V88.1758H470.732Z" fill="black"/>
</svg>
