<svg width="560" height="585" viewBox="0 0 560 585" fill="none" xmlns="http://www.w3.org/2000/svg">
<rect y="-1" width="560" height="586" fill="#0055FF"/>
<mask id="mask0_142_9" style="mask-type:alpha" maskUnits="userSpaceOnUse" x="0" y="0" width="559" height="585">
<rect width="559" height="585" fill="#0055FF"/>
</mask>
<g mask="url(#mask0_142_9)">
<path d="M42.7399 531.295C65.0823 499.872 52.7003 475.352 73.0623 465.231C91.177 456.229 119.704 466.331 135.815 478.111C157.038 493.628 155.524 511.187 166.744 512.018C185.6 513.419 213.975 465.602 199.534 448.141C192.682 439.852 181.497 444.836 152.77 437.381C135.098 432.795 103.937 424.709 98.5209 407.983C89.843 381.165 151.119 343.784 157.143 348.373C161.253 351.501 136.235 371.516 143.88 390.186C149.022 402.74 166.689 408.52 201.816 419.566C235.648 430.206 243.349 428.2 251.074 436.904C268.077 456.056 247.97 485.101 258.773 490.699C268.631 495.804 298.531 478.451 305.25 454.219C311.872 430.338 273.558 422.043 269.221 389.574C265.893 364.673 281.685 335.685 299.604 333.396C320.2 330.768 342.206 363.597 351.521 383.682C370.261 424.088 355.64 451.74 370.408 458.295C386.596 465.481 424.995 441.5 436.473 409.635C447.608 378.715 431.595 345.37 411.381 325.166C368.881 282.677 316.8 307.241 288.172 271.931C257.819 234.497 283.456 166.315 320.489 130.056C341.299 109.681 367.684 97.4514 371.927 101.242C377.476 106.196 339.146 133.092 336.744 176.118C336.455 181.322 335.213 213.213 360.458 236.426C378.794 253.287 410.571 265.073 422.019 255.903C433.107 247.017 423.923 219.43 411.862 202.12C397.077 180.896 378.747 176.233 380.946 170.41C384.143 161.95 427.857 158.522 455.957 178.835C478.899 195.419 482.756 221.555 485.835 242.409C489.122 264.674 486.183 283.933 480.17 321.537C473.223 365.001 467.204 378.484 475.633 384.18C486.249 391.354 513.692 382.088 522.224 366.377C527.016 357.554 523.744 343.905 517.007 316.966C512.14 297.505 508.863 290.32 510.695 289.53C514.164 288.036 531.8 311.229 544.159 336.606C557.294 363.575 565.499 380.417 558.036 395.864C553.334 405.597 546.302 406.725 502.946 430.189C462.932 451.84 457.369 457.127 454.001 464.484C445.945 482.064 451.808 508.405 469.055 514.948C486.683 521.636 508.319 504.631 510.762 502.662C534.311 483.69 531.982 456.156 536.287 456.397C542.494 456.743 564.157 514.895 527.004 546.526C508.612 562.184 481.341 566.638 459.511 562.233C426.268 555.527 425.715 532.341 390.438 519.722C351.171 505.677 300.705 516.112 297.107 530.06C294.403 540.54 316.29 560.263 337.827 557.33C353.617 555.177 362.072 538.713 363.526 539.628C365.43 540.823 355.154 571.782 334.255 576.025C301.838 582.601 277.045 518.189 238.078 522.659C218.527 524.902 217.972 541.901 181.77 559.187C172.368 563.676 158.532 569.154 126.567 574.835C74.8984 584.017 -8.22171 590.907 -12.2833 576.605C-14.9064 567.367 19.5981 563.847 42.7399 531.295Z" fill="#EB352C"/>
<path d="M-25.3209 376.257C-21.4126 390.419 -3.81429 402.063 14.1674 403.532C30.3996 404.855 42.5522 397.528 47.2913 394.582C77.6514 375.703 80.9629 335.15 75.1818 332.927C69.5212 330.749 52.7714 364.403 44.6326 361.639C38.6802 359.617 39.151 338.724 48.0784 322.071C59.2427 301.245 87.6328 279.604 115.437 284.392C148.309 290.052 163.422 329.741 166.141 336.878C174.284 358.26 169.209 369.977 182.389 381.843C195.553 393.695 217.707 397.395 223.002 391.532C227.333 386.738 217.024 379.269 215.457 363.004C213.565 343.418 225.25 320.47 242.203 315.636C257.182 311.365 270.74 322.816 272.952 319.883C275.845 316.043 255.945 292.001 235.929 293.697C217.701 295.241 209.412 317.269 201.647 314.736C195.064 312.588 200.848 296.678 194.049 277.42C193.171 274.94 184.31 250.962 160.638 239.133C122.185 219.917 73.6347 247.217 69.7658 249.459C47.0238 262.643 39.8857 278.053 35.5174 275.991C28.7194 272.779 34.4397 229.949 62.1899 216.536C94.2192 201.055 135.066 234.688 151.915 219.396C163.579 208.812 152.209 185.258 151.702 184.243C140.085 160.888 108.583 152.295 86.3812 152.7C51.4822 153.336 24.7656 176.461 12.9178 197C8.51601 204.63 6.36809 223.448 2.24683 260.77C-3.86659 316.138 -1.92347 319.747 -8.36408 334.429C-18.1121 356.64 -28.9711 362.996 -25.3129 376.26L-25.3209 376.257Z" fill="#EB352C"/>
<path d="M531.318 244.382C549.027 221.405 557.878 209.92 555.636 201.418C550.968 183.731 511.443 188.043 503.819 167.613C499.66 156.467 507.416 144.438 515.888 131.299C532.731 105.181 552.684 99.0351 550.063 92.6831C546.407 83.8226 501.866 81.855 487.437 100.678C473.398 118.994 495.221 147.42 487.744 151.214C480.738 154.769 451.239 135.044 449.396 109.651C447.365 81.6927 479.516 55.7589 506.818 54.4432C530.05 53.3229 545.923 70.2099 549.899 66.318C554.109 62.1991 541.801 37.8831 518.949 29.1157C484.098 15.745 444.414 46.1043 439.135 39.3887C434.822 33.9056 455.81 6.68847 489.238 -6.99549C533.409 -25.0775 599.529 -19.6252 617.158 12.1592C626.241 28.5342 623.531 53.8554 608.881 66.0319C599.287 74.0029 591.629 70.4758 581.915 77.1494C554.894 95.7075 562.726 158.305 581.208 162.845C592.339 165.58 611.502 148.269 610.526 134.138C609.691 122.069 594.341 114.872 595.652 113.338C597.193 111.531 621.27 118.162 630.2 136.241C639.503 155.078 628.958 179.462 612.08 187.963C599.236 194.433 590.592 187.741 583.849 193.594C572.207 203.697 591.754 229.061 604.01 275.892C608.063 291.374 614.737 317.747 611.829 349.462C608.53 385.472 593.888 417.398 588.889 416.587C586.661 416.225 586.214 409.353 587.288 355.075C588.451 296.202 589.524 276.651 576.944 270.534C569.534 266.93 557.344 267.961 537.616 269.627C524.383 270.746 517.66 272.639 515.497 269.735C512.674 265.944 520.725 258.135 531.318 244.389L531.318 244.382Z" fill="#EB352C"/>
<path d="M232.218 217.355C224.736 217.872 207.611 187.616 217.13 161.398C226.077 136.767 253.682 129.085 250.06 120.59C246.96 113.315 222.972 110.187 209.501 119.69C190.434 133.143 201.784 165.323 193.813 167.004C186.846 168.476 168.68 145.888 171.42 122.069C174.148 98.3755 196.273 84.6568 198.219 83.4892C216.486 72.5322 234.669 75.4058 235.009 71.2268C235.375 66.7536 215.075 56.8084 195.62 60.4312C164.046 66.3144 162.298 102.797 139.359 104.647C114.808 106.627 81.442 67.6868 91.0675 44.4584C95.3091 34.2257 108.082 26.5799 113.094 28.9724C121.308 32.8948 104.256 61.7063 117.04 71.7991C124.806 77.9289 139.244 73.7316 150.21 70.5409C161.317 67.3101 187.882 59.5831 191.81 40.678C195.255 24.1024 179.933 5.5094 171.943 6.71711C162.754 8.10634 164.966 35.4189 156.148 36.4549C149.791 37.2029 139.444 24.0934 141.254 12.3593C143.751 -3.79573 168.415 -11.5602 176.729 -14.1786C184.416 -16.5968 191.792 -17.8159 223.407 -17.7004C254.921 -17.5879 270.676 -17.5281 288.554 -14.7211C315.493 -10.488 328.962 -8.37323 337.806 1.51991C349.234 14.2978 341.206 25.8541 352.76 35.5046C367.12 47.5045 397.429 44.6 401.912 35.2661C405.026 28.7896 396.502 17.5538 387.025 12.2678C378.122 7.30173 369.863 8.41035 369.789 6.85808C369.67 4.37017 390.627 -3.54122 406.636 3.38404C426.595 12.0149 434.295 41.7355 421.717 58.2406C404.555 80.7562 358.196 67.4593 354.178 66.2597C334.955 60.5118 320.845 48.6864 317.189 45.5666C301.884 32.5028 301.884 24.5998 288.758 18.2379C272.301 10.2606 250.135 11.9387 248.198 17.3374C244.349 28.0667 323.108 46.1116 323.529 78.4923C323.686 90.5288 313.005 103.629 304.022 103.856C292.664 104.14 285.297 83.8269 280.561 85.2913C275.493 86.8613 287.168 109.09 278.39 132.54C272.528 148.195 263.932 147.358 251.564 166.728C233.696 194.697 238.548 216.919 232.21 217.359L232.218 217.355Z" fill="#EB352C"/>
<path d="M-24.9037 207.569C-22.7578 207.587 -28.8008 179.4 -10.4428 160.26C8.74023 140.259 44.0452 141.103 43.4798 135.831C42.9781 131.143 15.3199 132.626 13.9285 126.089C12.8179 120.87 28.5285 110.94 45.7784 109.454C74.0324 107.022 93.4182 128.36 97.4824 124.582C101.16 121.165 89.7578 99.5305 67.7844 90.6692C54.7572 85.4184 35.856 83.7853 22.3249 91.987C8.30226 100.485 8.2314 114.581 4.02475 114.049C-2.28925 113.248 -11.4578 80.2714 7.39057 61.3011C17.1536 51.4718 34.9979 44.8413 44.1869 50.1359C53.1586 55.306 50.2823 69.7561 52.9101 69.8688C56.4566 70.0202 67.8739 43.9611 56.3626 31.4023C42.4086 16.1805 2.61629 29.3682 1.01933 23.9794C-0.0616256 20.3416 16.8224 10.13 37.7824 7.32108C65.0263 3.67131 83.1541 14.6704 86.9478 9.28061C90.0456 4.88023 81.2451 -7.1036 69.6055 -13.7058C62.1879 -17.9118 54.5501 -19.4058 16.7408 -17.8455C-23.33 -16.1917 -28.7911 -13.9313 -32.3686 -9.91941C-40.0174 -1.33751 -35.437 11.2082 -32.1619 24.1368C-29.2648 35.572 -33.2857 24.0132 -30.261 135.088C-30.1161 140.459 -28.2168 207.546 -24.9037 207.569Z" fill="#EB352C"/>
</g>
</svg>
