<svg width="597" height="552" viewBox="0 0 597 552" fill="none" xmlns="http://www.w3.org/2000/svg">
<path d="M79.4065 501.001C101.749 471.309 89.3669 448.139 109.729 438.576C127.844 430.07 156.37 439.616 172.481 450.747C193.705 465.409 192.191 482.001 203.411 482.786C222.266 484.109 250.642 438.926 236.201 422.427C229.348 414.594 218.164 419.305 189.437 412.26C171.765 407.926 140.603 400.286 135.188 384.481C126.51 359.14 187.786 323.818 193.81 328.154C197.92 331.11 172.901 350.023 180.547 367.664C185.689 379.526 203.356 384.989 238.482 395.426C272.315 405.48 280.015 403.584 287.741 411.809C304.743 429.906 284.636 457.351 295.44 462.642C305.297 467.465 335.197 451.068 341.917 428.17C348.538 405.605 310.224 397.767 305.888 367.086C302.56 343.557 318.351 316.165 336.27 314.002C356.866 311.519 378.873 342.539 388.188 361.518C406.927 399.699 392.307 425.828 407.075 432.022C423.262 438.812 461.661 416.152 473.14 386.042C484.275 356.825 468.261 325.317 448.048 306.225C405.547 266.077 353.467 289.288 324.839 255.923C294.486 220.55 320.123 156.123 357.156 121.861C377.965 102.609 404.351 91.0525 408.593 94.6348C414.142 99.3156 375.813 124.73 373.411 165.387C373.122 170.304 371.879 200.438 397.124 222.373C415.46 238.305 447.238 249.442 458.686 240.777C469.774 232.381 460.59 206.313 448.528 189.956C433.744 169.901 415.414 165.496 417.613 159.993C420.81 151.999 464.524 148.76 492.623 167.954C515.566 183.624 519.423 208.32 522.501 228.026C525.789 249.065 522.85 267.263 516.837 302.796C509.889 343.866 503.87 356.607 512.3 361.989C522.916 368.768 550.359 360.012 558.891 345.167C563.682 336.83 560.411 323.932 553.673 298.477C548.806 280.087 545.53 273.299 547.362 272.552C550.83 271.14 568.467 293.056 580.826 317.035C593.961 342.519 602.165 358.433 594.702 373.03C590.001 382.227 582.968 383.292 539.613 405.464C499.599 425.923 494.036 430.919 490.667 437.87C482.612 454.482 488.475 479.372 505.722 485.555C523.35 491.874 544.986 475.806 547.428 473.945C570.978 456.018 568.649 430 572.954 430.228C579.161 430.555 600.824 485.505 563.67 515.393C545.279 530.189 518.008 534.397 496.178 530.235C462.935 523.899 462.381 501.99 427.105 490.065C387.837 476.794 337.371 486.655 333.774 499.835C331.07 509.737 352.957 528.374 374.494 525.602C390.284 523.568 398.739 508.011 400.192 508.875C402.097 510.005 391.82 539.258 370.921 543.268C338.505 549.481 313.712 488.617 274.745 492.841C255.193 494.96 254.639 511.023 218.437 527.358C209.035 531.599 195.198 536.775 163.234 542.143C111.565 550.82 28.4449 557.33 24.3833 543.816C21.7603 535.086 56.2647 531.76 79.4065 501.001Z" fill="#0055FF"/>
<path d="M11.3457 354.502C15.254 367.884 32.8523 378.887 50.8341 380.275C67.0662 381.525 79.2188 374.601 83.9579 371.818C114.318 353.979 117.63 315.66 111.848 313.558C106.188 311.501 89.4381 343.302 81.2992 340.689C75.3468 338.778 75.8176 319.036 84.7451 303.301C95.9093 283.622 124.299 263.173 152.104 267.697C184.976 273.046 200.089 310.548 202.807 317.292C210.951 337.496 205.876 348.568 219.056 359.781C232.219 370.979 254.374 374.476 259.669 368.936C263.999 364.406 253.69 357.348 252.124 341.98C250.232 323.472 261.917 301.788 278.869 297.22C293.848 293.184 307.406 304.005 309.619 301.233C312.511 297.605 292.612 274.887 272.596 276.49C254.367 277.949 246.078 298.763 238.314 296.37C231.731 294.34 237.514 279.307 230.715 261.109C229.838 258.765 220.977 236.108 197.305 224.93C158.852 206.773 110.301 232.57 106.432 234.688C83.6904 247.146 76.5523 261.707 72.184 259.759C65.3861 256.724 71.1063 216.252 98.8565 203.578C130.886 188.95 171.732 220.731 188.582 206.281C200.245 196.279 188.876 174.023 188.368 173.063C176.751 150.995 145.25 142.875 123.048 143.258C88.1488 143.859 61.4322 165.71 49.5844 185.118C45.1826 192.328 43.0347 210.109 38.9135 245.376C32.8 297.695 34.7432 301.104 28.3025 314.978C18.5545 335.966 7.6955 341.972 11.3537 354.505L11.3457 354.502Z" fill="#0055FF"/>
<path d="M567.985 229.891C585.694 208.179 594.544 197.327 592.303 189.293C587.635 172.58 548.11 176.655 540.485 157.349C536.327 146.818 544.083 135.452 552.554 123.036C569.398 98.3564 589.351 92.549 586.729 86.5469C583.074 78.1744 538.533 76.3151 524.104 94.1018C510.064 111.409 531.888 138.269 524.41 141.854C517.405 145.214 487.905 126.575 486.063 102.581C484.032 76.1618 516.182 51.6564 543.484 50.4131C566.717 49.3545 582.59 65.3115 586.565 61.6339C590.776 57.7419 578.467 34.7651 555.616 26.4806C520.764 13.8464 481.08 42.5335 475.801 36.1878C471.488 31.0067 492.477 5.2886 525.905 -7.64168C570.075 -24.7277 636.196 -19.5758 653.824 10.458C662.908 25.9311 660.198 49.8577 645.548 61.3636C635.954 68.8955 628.296 65.5627 618.582 71.8687C591.561 89.4047 599.393 148.555 617.875 152.844C629.006 155.429 648.169 139.071 647.193 125.719C646.357 114.315 631.008 107.514 632.318 106.064C633.859 104.356 657.937 110.623 666.867 127.706C676.17 145.506 665.625 168.546 648.747 176.579C635.903 182.693 627.259 176.37 620.516 181.9C608.874 191.447 628.42 215.414 640.677 259.665C644.73 274.294 651.403 299.215 648.496 329.183C645.197 363.21 630.554 393.378 625.556 392.611C623.327 392.269 622.881 385.776 623.955 334.487C625.118 278.857 626.19 260.382 613.611 254.602C606.201 251.197 594.01 252.171 574.283 253.746C561.05 254.802 554.327 256.592 552.163 253.847C549.341 250.265 557.391 242.886 567.985 229.898L567.985 229.891Z" fill="#0055FF"/>
<path d="M268.884 204.352C261.403 204.841 244.277 176.251 253.797 151.477C262.744 128.203 290.348 120.944 286.727 112.917C283.626 106.043 259.638 103.086 246.167 112.066C227.101 124.778 238.451 155.186 230.479 156.775C223.513 158.165 205.347 136.821 208.086 114.314C210.814 91.9258 232.939 78.9626 234.886 77.8593C253.153 67.5058 271.336 70.2212 271.675 66.2723C272.041 62.0455 251.742 52.6481 232.287 56.0713C200.713 61.6305 198.965 96.1036 176.026 97.8521C151.475 99.7231 118.109 62.9274 127.734 40.9783C131.976 31.3091 144.748 24.0845 149.76 26.3452C157.974 30.0515 140.922 57.2762 153.706 66.8131C161.472 72.6053 175.91 68.6392 186.877 65.6242C197.983 62.5714 224.549 55.2699 228.477 37.4061C231.922 21.7434 216.6 4.17447 208.609 5.31567C199.421 6.62838 201.632 32.4366 192.815 33.4156C186.458 34.1224 176.11 21.735 177.92 10.6471C180.417 -4.61815 205.081 -11.9549 213.396 -14.4292C221.082 -16.7142 228.459 -17.8662 260.073 -17.757C291.588 -17.6507 307.343 -17.5942 325.22 -14.9418C352.159 -10.9418 365.629 -8.94354 374.473 0.40472C385.901 12.4788 377.873 23.3986 389.427 32.5176C403.787 43.8566 434.095 41.1121 438.579 32.2923C441.692 26.1724 433.169 15.5555 423.691 10.5606C414.789 5.86809 406.529 6.91565 406.456 5.44888C406.336 3.09799 427.293 -4.37766 443.303 2.16617C463.261 10.3216 470.962 38.4053 458.384 54.0014C441.222 75.2769 394.863 62.7124 390.845 61.5788C371.622 56.1475 357.512 44.9734 353.855 42.0255C338.55 29.6811 338.551 22.2134 325.424 16.2019C308.967 8.66398 286.801 10.2496 284.865 15.351C281.015 25.4893 359.775 42.5404 360.196 73.1377C360.353 84.5112 349.671 96.89 340.688 97.104C329.331 97.3729 321.964 78.1784 317.228 79.5622C312.16 81.0458 323.834 102.05 315.056 124.209C309.195 139.002 300.599 138.211 288.23 156.513C270.363 182.942 275.215 203.94 268.876 204.356L268.884 204.352Z" fill="#0055FF"/>
<path d="M11.7629 195.105C13.9089 195.122 7.86582 168.488 26.2238 150.402C45.4069 131.503 80.7119 132.3 80.1464 127.318C79.6447 122.889 51.9865 124.29 50.5952 118.112C49.4846 113.181 65.1951 103.798 82.445 102.394C110.699 100.096 130.085 120.259 134.149 116.689C137.826 113.46 126.424 93.0172 104.451 84.6439C91.4239 79.6823 72.5226 78.1392 58.9915 85.8891C44.9689 93.9191 44.898 107.239 40.6914 106.736C34.3774 105.979 25.2088 74.8188 44.0572 56.8933C53.8202 47.6054 71.6646 41.3401 80.8536 46.343C89.8252 51.2284 86.9489 64.8826 89.5767 64.9892C93.1233 65.1322 104.541 40.5083 93.0292 28.6413C79.0752 14.2578 39.2829 26.7192 37.686 21.6272C36.605 18.1897 53.489 8.54058 74.449 5.88637C101.693 2.43762 119.821 12.8309 123.614 7.73797C126.712 3.57996 117.912 -7.74384 106.272 -13.9824C98.8545 -17.9567 91.2167 -19.3685 53.4075 -17.8941C13.3366 -16.3314 7.87548 -14.1954 4.29805 -10.4046C-3.35078 -2.29532 1.22961 9.55944 4.50478 21.776C7.40187 32.5813 3.38097 21.6591 6.4056 126.616C6.55051 131.691 8.44979 195.083 11.7629 195.105Z" fill="#0055FF"/>
</svg>
