<svg width="170" height="145" viewBox="0 0 170 145" fill="none" xmlns="http://www.w3.org/2000/svg">
<path d="M78.3759 143.076L70.5248 113.585C70.0438 111.782 67.5091 111.043 65.8582 112.23L38.7431 131.6C36.4813 133.223 33.1666 131.23 34.1675 128.857L46.1653 100.406C46.8932 98.6707 45.2294 96.8793 43.0846 97.1033L8.05326 100.843C5.12856 101.156 3.59472 97.9542 5.93448 96.4202L33.9856 78.0467C35.7014 76.927 35.4284 74.6429 33.4786 73.848L1.64492 60.7704C-1.0198 59.6731 -0.278877 56.2694 2.65882 56.0678L37.8462 53.6046C40.0039 53.459 41.1998 51.41 40.0689 49.8313L21.5459 24.0792C19.999 21.9295 22.7677 19.3991 25.3675 20.5971L56.5252 34.8168C58.436 35.6901 60.7368 34.5256 60.7758 32.6782L61.4387 2.43624C61.4907 -0.0941885 65.4163 -0.933907 66.8591 1.27182L84.0953 27.6733C85.1482 29.2856 87.826 29.3752 89.0218 27.8412L108.663 2.70501C110.301 0.600056 114.135 1.70851 113.953 4.23893L111.795 34.436C111.665 36.2835 113.849 37.5935 115.838 36.8657L148.231 24.8182C150.934 23.8105 153.456 26.5201 151.714 28.5578L130.851 52.9551C129.578 54.4443 130.592 56.5717 132.723 56.8628L167.573 61.7333C170.484 62.1364 170.9 65.5849 168.145 66.4918L135.193 77.3525C133.178 78.0131 132.697 80.2748 134.296 81.5064L160.54 101.739C162.737 103.429 160.904 106.52 158.019 106.004L123.442 99.88C121.323 99.5105 119.504 101.179 120.063 102.959L129.37 132.137C130.15 134.578 126.666 136.325 124.56 134.556L99.3428 113.383C97.7959 112.084 95.2092 112.644 94.5592 114.413L83.9784 143.267C83.0944 145.674 79.0519 145.54 78.4019 143.076H78.3759Z" fill="#EB352C"/>
</svg>
