<svg width="1309" height="790" viewBox="0 0 1309 790" fill="none" xmlns="http://www.w3.org/2000/svg">
<path d="M939.937 559.684C937.479 559.676 935.729 557.396 935.892 555.159C936.105 552.241 939.461 550.9 939.388 548.202C939.338 546.447 937.86 544.891 936.291 544.485C935.08 544.172 934.386 544.688 933.987 544.159C933.09 542.971 935.13 538.416 937.085 537.925C938.917 537.464 940.05 540.746 940.753 540.277C941.275 539.93 941.188 537.76 940.495 535.781C938.844 531.053 934.976 530.985 935.339 528.558C935.565 527.044 937.098 526.917 940.644 522.802C942.998 520.07 943.692 518.539 944.372 518.653C945.424 518.835 943.968 522.535 945.533 526.079C946.766 528.879 948.403 528.223 948.807 530.393C949.346 533.311 946.48 534.994 945.31 540.602C944.635 543.842 944.902 546.57 945.002 547.415C945.469 551.332 946.807 551.924 946.213 554.123C945.546 556.593 942.821 559.688 939.95 559.676L939.937 559.684Z" fill="#0055FF"/>
<path d="M922.542 373.504C925.399 373.741 919.989 409.524 931.094 412.615C933.634 413.322 937.683 412.501 938.817 410.488C940.472 407.549 935.352 403.036 936.119 402.415C936.944 401.746 944.363 405.688 947.197 412.81C949.047 417.47 947.233 418.993 948.417 422.473C952.026 433.08 974.047 433.199 973.983 437.884C973.956 439.855 967.322 443.074 954.062 449.51C950.983 451.003 948.018 452.386 947.265 455.106C946.34 458.434 949.89 460.143 949.782 464.422C949.627 470.47 943.365 475.528 942.218 474.978C941.47 474.619 944.136 471.434 943.243 466.956C942.63 463.885 940.313 459.999 937.343 459.859C933.792 459.694 931.035 464.964 930.845 465.336C926.818 473.236 931.307 484.879 938.645 491.81C942.005 494.982 945.383 496.619 944.93 497.444C944.376 498.454 938.513 497.444 933.947 494.813C927.539 491.117 925.095 485.031 923.753 481.542C922.701 478.81 917.79 466.03 924.397 455.207C931.489 443.598 946.013 443.78 946.227 436.489C946.326 433.063 943.079 430.293 936.59 424.749C928.959 418.227 925.109 417.618 921.694 414.578C908.87 403.159 919.903 373.284 922.537 373.504H922.542Z" fill="#0055FF"/>
<path d="M978.345 408.796C983.542 413.55 979.339 421.365 985.256 427.836C990.838 433.93 999.518 432.395 999.813 435.292C1000.1 438.104 991.804 438.235 987.265 445.37C983.37 451.49 986.712 455.727 983.293 461.098C977.579 470.073 961.368 469.045 961.005 467.611C960.746 466.584 968.895 466.465 973.199 459.643C976.327 454.687 974.568 450.711 978.051 444.423C980.74 439.563 984.993 439.411 984.767 436.878C984.526 434.192 980.273 434.357 976.355 430.052C971.72 424.969 974.001 420.723 970.006 416.286C964.737 410.437 956.144 412.666 956.003 411.11C955.817 408.999 971.403 402.444 978.345 408.796Z" fill="#0055FF"/>
<path d="M1012.31 391.765C1013.15 389.803 1031.12 389.807 1037.76 398.866C1043.02 406.03 1036.58 412.552 1041.69 418.709C1048.99 427.515 1069.9 423.501 1070.15 425.929C1070.38 428.098 1053.31 427.696 1046.95 436.874C1042.08 443.915 1048.12 449.916 1042.49 458.028C1037.69 464.955 1028.15 467.962 1026.94 466.748C1025.78 465.585 1033.41 461.623 1035.02 453.355C1036.64 445.091 1030.87 439.606 1034.74 435.283C1037.05 432.716 1040.34 433.253 1040.94 431.097C1041.73 428.305 1036.44 426.643 1033.25 421.492C1029.73 415.829 1032.98 412.763 1030.95 406.952C1027.2 396.172 1011.5 393.66 1012.31 391.765H1012.31Z" fill="#0055FF"/>
<path d="M924.664 320.276C925.938 321.257 924.324 323.921 925.081 328.358C926.033 333.919 930.124 338.761 932.114 338.102C934.2 337.412 933.121 330.988 935.262 330.29C937.003 329.724 940.127 333.183 940.572 337.087C940.998 340.817 938.953 344.788 936.282 345.79C933.312 346.907 930.654 343.946 930.169 344.661C929.434 345.744 934.477 353.986 939.76 353.504C943.302 353.183 944.694 349.136 946.771 349.88C948.607 350.54 948.621 354.096 949.84 360.224C951.478 368.45 952.298 372.561 954.683 375.09C960.238 380.973 971.104 376.075 971.593 378.266C971.879 379.552 968.278 381.912 965.154 382.863C964.238 383.142 958.765 384.813 954.357 381.696C948.421 377.496 950.761 369.085 944.022 362.597C941.791 360.453 939.22 359.396 937.951 358.829C935.126 357.573 933.239 356.735 932.101 357.75C930.428 359.243 931.085 364.103 932.894 365.058C934.051 365.667 935.398 364.526 935.661 364.991C935.969 365.528 934.595 367.841 932.754 368.328C930.029 369.042 926.106 365.807 925.716 362.284C925.249 358.076 930.092 355.809 929.14 352.189C928.646 350.311 926.818 348.954 925.136 348.797C923 348.603 920.8 350.32 920.923 351.356C921.054 352.472 923.821 352.477 923.839 353.318C923.852 354.088 921.558 355.306 919.422 354.862C916.801 354.316 914.992 351.39 914.438 348.789C914.012 346.772 914.919 344.661 916.511 340.495C918.098 336.342 919.372 334.444 918.619 332.329C918.234 331.251 917.708 331.204 917.327 329.88C916.651 327.537 917.59 325.258 917.835 324.708C919.318 321.388 923.181 319.134 924.659 320.272L924.664 320.276Z" fill="#0055FF"/>
<path d="M1005.64 290.701C1002.78 291.556 1005.43 300.944 1001.16 302.831C997.441 304.48 992.049 298.813 989.596 300.327C987.823 301.422 988.322 305.821 990.952 308.789C992.616 310.671 995.314 312.181 1008.12 314.169C1021.03 316.174 1021.69 315.167 1023.91 316.74C1029.8 320.91 1024.78 327.723 1031.3 333.56C1035.36 337.188 1041.71 338.508 1042.62 337.565C1043.23 336.943 1041.36 335.454 1038.31 331.407C1037.63 330.506 1030.45 320.902 1032.51 319.362C1033.66 318.495 1036.99 320.758 1037.77 320.026C1038.52 319.316 1036.56 316.051 1033.03 314.211C1028.11 311.636 1024.87 314.313 1020.88 312.388C1016.33 310.193 1018.53 305.753 1013.25 297.624C1012.69 296.77 1008.2 289.94 1005.64 290.701Z" fill="#0055FF"/>
<path d="M942.893 523.22C941.261 522.633 941.266 520.099 941.347 515.054C941.415 510.88 941.447 508.795 942.431 507.424C946.077 502.354 957.028 501.398 957.595 502.168C958.071 502.81 951.133 504.422 948.321 509.573C947.106 511.802 946.766 514.504 947.872 514.893C948.657 515.168 950.099 514.263 952.561 512.715C955.432 510.914 956.076 510.047 956.497 510.186C957.395 510.482 956.484 515.058 952.516 518.776C950.135 521.004 945.392 524.117 942.889 523.216L942.893 523.22Z" fill="#0055FF"/>
<path d="M994.094 408.488C995.55 406.403 1002.6 406.28 1006.3 409.35C1011.25 413.453 1006.34 420.004 1010.88 424.766C1016.21 430.348 1028.37 427.037 1028.98 429.384C1029.42 431.054 1017.5 431.388 1013.94 437.728C1011.68 441.746 1014.91 444.207 1012.58 448.965C1009.68 454.886 1001.37 457.804 1000.34 456.818C999.454 455.964 1004.56 452.687 1007.2 445.247C1007.89 443.302 1009.57 438.384 1008.26 432.755C1007.8 430.758 1007.05 429.101 1000.04 419.099C994.611 411.359 993.219 409.739 994.094 408.488Z" fill="#0055FF"/>
<path d="M889.235 404.905C886.033 411.807 885.058 421.835 891.733 427.13C894.944 429.676 899.918 431.118 901.301 430.06C903.519 428.365 896.123 420.541 897.379 419.813C898.254 419.306 903.138 422.393 906.489 426.893C909.328 430.712 908.298 431.828 910.67 433.972C915.558 438.392 924.147 437.453 924.161 438.933C924.174 440.333 916.511 440.012 912.738 444.156C910.362 446.766 912.121 448.305 910.049 453.118C907.7 458.573 902.798 462.735 901.85 462.375C901.311 462.168 901.986 460.257 903.338 456.434C905.505 450.301 906.748 448.825 905.745 447.743C904.303 446.178 899.089 446.402 895.642 448.246C888.45 452.099 889.815 462.562 890.16 465.209C892.346 481.956 908.017 490.368 905.287 492.961C903.084 495.054 890.328 491.98 882.814 484.769C871.754 474.158 875.939 458.32 880.406 452.39C885.28 445.916 888.074 443.911 888.074 443.911C890.468 442.19 892.414 441.369 892.545 439.851C892.726 437.711 889.126 436.442 886.419 434.653C878.905 429.684 878.528 420.866 878.42 418.282C877.975 407.9 885.602 400.541 887.897 398.511C891.711 395.132 896.658 392.429 897.438 392.988C898.336 393.635 892.518 397.817 889.23 404.901L889.235 404.905Z" fill="#0055FF"/>
<path d="M978.137 265.098C979.384 261.389 983.016 255.523 988.512 255.054C993.292 254.644 996.203 258.598 997.804 257.625C999.822 256.403 997.359 248.824 992.094 247.137C990.213 246.532 988.671 246.904 988.639 246.697C988.562 246.173 998.321 242.908 1003.26 246.308C1006.39 248.465 1006.32 252.432 1006.3 253.366C1006.18 259.067 1001.02 260.247 1001.22 264.937C1001.43 270.025 1007.69 273.231 1006.46 274.521C1005.41 275.607 1001.45 272.837 996.811 274.127C993.831 274.956 993.985 276.508 990.607 277.807C990.335 277.912 984.612 280.04 980.758 278.052C976.046 275.624 976.994 268.536 978.146 265.098H978.137Z" fill="#0055FF"/>
<path d="M1090.18 246.913C1091.18 241.085 1111.41 235.35 1120.55 243.123C1126.95 248.562 1122.9 256.344 1130.37 262.967C1136.73 268.596 1147.37 269.801 1151.2 265.77C1153.93 262.895 1152.81 257.752 1153.91 257.6C1155.27 257.409 1158.33 262.218 1157.81 267.238C1157.18 273.243 1151.86 275.472 1152.72 277.929C1153.8 281.012 1162.34 278.022 1171.12 281.131C1182.9 285.292 1189.73 298.491 1187.82 300.86C1186.02 303.08 1177.76 294.267 1167.98 296.829C1157.21 299.654 1150.03 314.829 1152.96 318.347C1156.31 322.369 1172.35 310.468 1174.8 313.793C1177.09 316.918 1167.41 333.505 1155.4 333.018C1151.16 332.849 1145.93 330.527 1143.96 326.197C1141.74 321.359 1144.27 315.518 1146.78 309.724C1149.56 303.304 1151.22 303.266 1151.42 300.141C1151.94 292.528 1142.74 283.047 1133.83 283.008C1126.75 282.979 1122.15 288.938 1120.15 287.195C1118.38 285.652 1122.09 281.038 1122.52 272.994C1122.82 267.564 1121.79 257.384 1116.16 254.546C1110.98 251.928 1106.66 257.955 1099 255.561C1094.43 254.136 1089.65 250.017 1090.19 246.908L1090.18 246.913Z" fill="#0055FF"/>
<path d="M1148.96 542.932C1154.45 542.366 1158.45 541.956 1161.96 543.702C1168.28 546.853 1169.01 555.036 1166.53 556.03C1164.68 556.774 1162.38 552.968 1156.17 552.169C1151.7 551.594 1146.06 552.681 1142.57 555.857C1138.87 559.227 1137.74 564.814 1141.3 568.096C1145.87 572.308 1155.84 570.587 1160.48 569.069C1166.03 567.25 1168.8 564.142 1169.38 564.518C1170.01 564.924 1167.54 569.111 1162.52 572.304C1155.94 576.482 1148.66 576.618 1148.79 578.28C1148.92 580.086 1156.56 580.077 1157.98 583.126C1159.57 586.548 1152.37 591.868 1149.3 591.077C1146.9 590.46 1147.89 586.349 1143.25 584.023C1142.51 583.651 1141.71 583.262 1140.69 583.291C1136.78 583.41 1133.08 589.508 1135.43 592.198C1137.52 594.592 1143.73 593.145 1144.13 594.329C1144.61 595.767 1136.01 599.624 1127.53 598.47C1125.81 598.237 1123.45 597.916 1122.7 596.681C1121.77 595.137 1124.05 593.336 1128.1 588.696C1132.06 584.167 1134.02 581.879 1133.31 580.618C1131.74 577.806 1121.55 576.914 1118.3 579.857C1116.34 581.634 1117.36 584.387 1117.2 584.391C1116.95 584.391 1113.91 577.51 1118.1 573.801C1121.68 570.629 1127.36 572.596 1130.64 569.018C1132.57 566.912 1132.87 563.77 1131.29 562.793C1129.84 561.904 1127.23 563.076 1126.84 562.568C1126.23 561.773 1133.25 559.781 1135.92 555.104C1138.22 551.048 1135.1 548.777 1137.84 546.024C1140.01 543.85 1143.77 543.465 1148.94 542.932H1148.96Z" fill="#0055FF"/>
<path d="M1054.42 513.827C1055.6 515.16 1050.48 521.909 1052.49 526.337C1054.17 530.012 1060.21 530.909 1062.89 527.792C1065.79 524.421 1063.74 517.536 1065.34 516.809C1066.74 516.17 1070.17 520.586 1070.59 525.872C1071.16 532.952 1066.19 539.854 1061.81 543.245C1056.76 547.162 1051.97 546.828 1051.93 548.299C1051.87 550.431 1061.96 549.056 1066.08 556.656C1068.33 560.796 1068.56 567.174 1066.25 571.716C1062.24 579.62 1051.96 579.142 1051.07 576.474C1050.55 574.88 1053.62 573.247 1053.97 569.001C1054.36 564.349 1051.31 558.682 1048.26 558.525C1043.28 558.276 1040.18 572.756 1037.5 571.906C1035.59 571.297 1034.36 562.97 1037.11 557.498C1039.3 553.154 1042.37 553.848 1045.79 548.219C1046.94 546.324 1049.33 542.378 1048.47 539.329C1047.17 534.698 1039.74 537.033 1038.53 533.269C1036.58 527.247 1052.48 511.649 1054.41 513.832L1054.42 513.827Z" fill="#0055FF"/>
<path d="M1216.06 330.739C1216.06 331.961 1211.77 332.071 1211.4 334.097C1211.13 335.64 1213.29 337.421 1215.2 338.279C1219.56 340.233 1223.76 337.916 1224.19 338.728C1224.78 339.823 1218.17 346.129 1209.09 346.818C1207.91 346.907 1199.9 347.406 1194.75 342.415C1192.38 340.111 1190.59 336.617 1191.66 335.526C1193.12 334.033 1198.62 338.41 1201.81 336.448C1204.44 334.833 1202.39 330.819 1205.14 328.798C1208.52 326.302 1216.06 329.123 1216.06 330.743V330.739Z" fill="#0055FF"/>
<path d="M793.753 358.029C795.471 360.241 776.14 368.822 775.424 384.639C774.943 395.271 783.051 405.409 786.828 404.804C791.286 404.085 787.536 388.716 794.936 385.633C804.908 381.476 826.879 403.049 825.26 404.922C824.022 406.356 810.209 394.887 802.55 398.875C796.628 401.958 795.295 413.812 800.5 422.025C810.205 437.352 839.653 435.288 839.92 441.162C840.17 446.694 813.964 446.064 803.797 461.36C796.514 472.318 799.562 488.287 805.606 490.216C811.152 491.984 818.186 481.601 820.702 483.026C824.149 484.976 817.07 507.945 804.464 509.742C793.345 511.328 786.525 495.223 775.836 497.27C768.046 498.763 762.051 509.167 762.745 518.027C763.847 532.08 781.468 538.23 778.707 543.931C776.544 548.397 763.38 549.454 754.174 545.132C742.865 539.824 738.004 526.608 739.786 516.246C743.277 495.938 771.995 488.249 769.03 482.236C766.853 477.825 749.191 477.512 740.212 485.056C733.85 490.406 733.569 498.256 733.156 498.163C732.603 498.036 731.442 483.386 741.55 474.107C749.612 466.71 756.986 469.941 775.886 460.553C785.051 456.002 791.422 452.729 792.034 447.299C792.778 440.709 784.706 434.087 777.596 431.266C769.293 427.967 765.357 431.071 758.156 429.054C740.57 424.131 735.074 397.538 736.979 396.764C738.702 396.062 745.826 416.802 762.908 419.5C768.019 420.308 774.68 419.606 775.628 417.085C777.927 410.995 743.54 403.062 742.321 389.076C740.806 371.74 791.068 354.566 793.753 358.029Z" fill="#0055FF"/>
<path d="M684.3 361.201C690.757 367.613 651.886 396.071 661.767 411.038C667.739 420.084 689.433 421.019 691.637 416.963C694.004 412.607 675.199 402.474 677.194 399.611C678.6 397.597 692.104 400.05 701.001 408.285C710.755 417.318 706.306 425.269 715.326 431.964C725.561 439.563 740.715 436.32 741.024 438.764C741.332 441.225 725.488 440.511 716.759 449.768C709.598 457.364 714.895 463.547 707.549 473.972C700.434 484.067 687.923 488.973 686.159 487.459C684.703 486.211 690.952 480.92 694.457 469.485C695.11 467.357 698.647 455.816 695.101 454.057C691.795 452.42 682.581 459.381 677.089 466.562C661.427 487.048 666.093 522.366 684.535 531.662C691.07 534.956 698.407 534.516 699.708 538.53C701.064 542.721 694.929 548.963 688.15 551.154C672.038 556.36 644.703 541.135 641.86 524.806C640.109 514.749 647.827 505.31 643.519 502.459C640.445 500.425 635.883 504.811 630.509 502.916C622.379 500.049 619.168 485.192 623.821 482.324C627.807 479.863 634.051 488.385 642.576 486.833C651.963 485.124 650.621 473.655 663.612 459.204C674.736 446.833 685.941 443.86 684.327 439.289C682.635 434.488 670.333 437.842 658.343 428.927C651.949 424.174 650.807 419.767 645.959 419.593C640.699 419.407 634.767 424.33 634.908 428.758C635.071 433.82 643.084 435.791 642.322 438.87C641.538 442.05 631.838 444.533 624.936 441.589C616.683 438.071 612.552 426.846 616.066 419.31C620.633 409.524 635.017 412.548 642.141 401.488C647.229 393.588 641.787 389.093 645.696 380.228C652.657 364.437 679.661 356.592 684.304 361.201H684.3Z" fill="#0055FF"/>
<path d="M554.912 607.723C558.544 609.546 559.188 619.886 554.531 625.824C548.949 632.937 538.369 630.391 537.141 635.166C536.215 638.748 541.131 644.242 545.049 644.014C548.464 643.815 548.831 639.404 554.327 636.93C555.447 636.426 560.648 634.257 564.544 636.558C570.57 640.118 569.246 651.867 567.613 652.273C566.008 652.671 564.004 642.094 559.787 642.098C557.982 642.098 556.948 644.035 551.184 652.772C545.271 661.738 544.559 662.427 543.494 663.049C536.002 667.397 525.895 659.632 524.983 661.218C524.004 662.918 534.32 674.045 546.477 673.613C551.32 673.44 554.322 671.512 554.399 671.715C554.581 672.214 535.98 683.772 526.412 677.551C523.573 675.707 524.271 674.079 518.385 667.997C514.998 664.495 509.656 658.976 506.867 660.3C503.992 661.662 506.318 669.08 504.087 669.938C501.33 671 492.787 661.581 495.14 656.147C496.791 652.337 503.321 651.601 508.296 651.038C517.247 650.027 521.94 652.51 524.335 649.63C525.913 647.739 525.636 644.563 524.747 642.538C521.831 635.894 509.162 634.413 505.738 634.016C502.532 633.644 500.809 633.787 500.487 632.861C499.793 630.848 506.436 625.976 513.334 623.582C520.272 621.176 522.793 622.897 529.06 621.865C544.518 619.32 550.219 605.367 554.921 607.727L554.912 607.723Z" fill="#0055FF"/>
<path d="M554.318 371.876C554.495 373.669 529.241 372.053 523.89 383.603C519.492 393.098 529.822 408.754 535.363 408.246C539.372 407.883 543.235 398.841 540.319 393.817C538.369 390.45 534.003 389.972 534.238 389.055C534.597 387.659 545.267 386.432 553.239 391.787C559.41 395.931 564.158 404.153 561.696 410.226C558.694 417.627 547.126 416.548 545.87 422.588C544.677 428.331 553.638 436.531 558.866 435.309C565.446 433.769 563.455 417.902 568.974 417.111C572.833 416.561 579.077 423.56 578.683 430.031C578.27 436.844 570.724 439.293 571.758 442.697C573.658 448.952 601.215 447.518 601.256 448.563C601.302 449.663 570.788 449.189 568.915 456.582C567.849 460.79 577.086 463.496 577.49 470.931C577.934 479.123 567.378 487.949 561.913 486.317C557.982 485.141 556.73 478.573 556.318 476.395C554.776 468.301 558.626 464.156 556.64 462.346C553.012 459.039 532.878 466.249 532.13 475.651C532.13 475.651 531.672 481.411 565.119 503.187C565.119 503.187 565.904 519.511 557.991 525.809C550.3 531.932 534.878 528.202 534.388 525.238C534.003 522.89 543.194 522.328 545.058 516.64C547.108 510.385 539.793 499.465 531.014 499.478C524.462 499.486 519.528 505.576 517.673 510.224C513.388 520.966 521.156 534.994 531.79 542.142C545.167 551.133 560.721 547.656 561.351 551.564C561.877 554.816 551.461 559.511 541.997 561.105C531.735 562.835 512.939 562.543 503.933 552.089C491.082 537.168 507.901 512.838 500.637 509.26C494.497 506.232 475.832 520.345 477.455 531.801C478.371 538.255 485.509 542.34 484.248 543.85C483.074 545.258 475.823 542.971 470.617 538.598C462.432 531.725 461.82 521.812 461.793 521.228C461.049 504.959 479.432 489.912 492.76 490.994C498.269 491.442 500.097 494.416 505.375 493.587C514.431 492.161 521.972 481.377 519.383 477.144C516.508 472.437 503.548 479.825 489.15 473.414C478.702 468.761 471.333 458.552 473.542 455.194C476.621 450.508 496.261 462.299 523.659 457.203C527.296 456.527 539.231 454.306 539.762 449.637C540.22 445.624 532.044 441.572 528.366 439.749C519.093 435.152 510.513 434.615 508.935 434.531C488.098 433.431 475.959 444.605 473.097 441.505C470.563 438.756 476.975 426.618 488.574 420.786C501.761 414.155 516.821 418.109 517.111 416.345C517.447 414.324 496.719 414.252 488.248 403.007C477.591 388.856 491.418 363.739 494.501 364.208C496.886 364.572 492.683 380.199 503.552 394.024C506.663 397.978 510.753 401.467 512.182 400.727C514.73 399.416 504.636 386.851 508.876 378.524C515.533 365.435 554.068 369.651 554.286 371.863L554.318 371.876Z" fill="#0055FF"/>
<path d="M404.81 338.88C407.744 340.529 395.246 354.435 401.976 362.001C407.912 368.679 421.733 362.428 432.426 370.793C440.529 377.128 440.357 386.784 440.321 387.794C439.863 400.562 425.279 407.87 421.257 410.036C403.304 419.708 383.769 414.493 382.672 419.293C381.602 423.966 399.577 431.329 401.495 432.103C426.794 442.317 449.132 439.547 449.572 442.122C449.971 444.457 431.478 445.751 410.002 454.848C406.823 456.197 379.094 468.119 381.665 475.465C383.656 481.157 401.218 476.641 418.414 485.814C435.491 494.923 448.91 515.773 443.595 531.543C436.135 553.683 393.464 560.763 390.979 561.152C378.45 563.106 366.388 562.412 364.388 567.737C362.111 573.805 375.257 581.414 373.317 583.74C371.072 586.429 349.628 580.953 346.997 570.955C345.388 564.827 351.478 559.409 359.826 552.186C377.167 537.194 387.85 538.708 392.816 528.376C396.87 519.939 395.41 507.154 386.191 501.656C377.656 496.568 363.544 498.361 360.932 503.555C358.017 509.362 371.045 516.302 368.492 521.728C365.286 528.541 338.826 530.177 328.541 519.989C316.076 507.636 327.761 478.286 345.673 470.314C354.833 466.237 366.134 461.585 366.134 461.585C376.214 457.436 379.506 456.298 379.461 454.226C379.37 449.933 365.032 445.92 357.541 444.41C350.04 442.9 349.015 443.818 343.048 442.702C339.819 442.101 323.621 439.081 315.663 428.399C306.367 415.923 314.216 400.922 316.466 396.625C317.631 394.396 327.843 374.883 341.492 377.116C350.045 378.511 357.364 388.023 357.083 396.02C356.702 406.931 342.25 413.157 343.551 414.616C344.857 416.075 358.597 409.029 372.673 401.763C388.902 393.39 393.002 392.146 393.768 388.175C395.183 380.812 383.633 377.56 381.642 367.617C378.577 352.295 401.4 336.956 404.805 338.867L404.81 338.88Z" fill="#0055FF"/>
<path d="M164.559 468.821C158.85 465.327 153.358 459.081 155.567 454.75C160.242 445.581 196.433 450.872 197.122 446.88C197.585 444.199 181.963 437.652 168.082 439.961C162.192 440.942 158.913 443.133 157.525 442.147C155.158 440.464 159.525 430.39 169.511 425.967C184.625 419.276 200.718 430.784 215.03 423.742C221.065 420.773 225.931 414.924 224.412 410.154C222.027 402.677 205.688 403.265 203.081 397.272C197.884 385.32 252.459 358.977 259.596 364.297C263.02 366.847 256.544 377.424 248.01 384.128C237.585 392.315 225.931 393.279 226.425 396.642C227.096 401.213 248.627 399.137 256.395 408.602C261.945 415.36 258.281 425.332 252.014 431.067C246.228 436.366 236.828 439.327 235.055 437.918C232.674 436.036 244.822 426.99 242.546 425.142C240.428 423.416 225.119 427.371 222.317 435.457C219.451 443.721 230.611 453.498 242.614 455.545C247.92 456.45 257.098 456.476 261.197 452.407C267.078 446.571 258.032 436.776 262.226 434.763C265.02 433.423 272.402 436.155 275.391 440.422C279.825 446.757 271.745 452.416 275.078 456.285C281.077 463.255 315.971 455.017 316.212 455.651C316.479 456.362 271.808 463.746 272.37 471.121C272.611 474.285 280.945 474.568 283.517 479.855C287.507 488.068 273.672 500.319 268.289 499.046C266.815 498.7 266.507 497.465 262.276 486.49C259.07 478.18 258.494 476.936 256.739 476.226C251.588 474.137 241.535 478.768 236.03 484.249C226.307 493.925 225.954 511.032 237.213 516.526C245.534 520.586 259.614 518.01 260.639 514.538C261.796 510.613 246.233 505.724 247.126 504.324C248.001 502.954 264.993 504.316 273.001 512.897C281.698 522.218 277.291 537.363 266.367 542.505C252.958 548.819 233.332 538.365 228.262 543.744C225.273 546.916 228.933 553.916 234.783 558.14C249.842 569.022 275.803 558.914 282.143 566.442C286.632 571.771 279.182 583.435 267.895 587.44C249.969 593.797 226.294 579.439 216.281 570.359C211.724 566.227 202.967 558.288 202.872 547.897C202.813 541.334 206.237 536.631 203.611 535.231C199.916 533.26 192.238 542.129 179.845 543.097C161.765 544.514 142.897 528.414 145.323 525.009C147.322 522.201 162.359 530.105 180.262 525.424C193.29 522.015 202.033 513.464 200.677 511.941C199.848 511.007 195.621 513.18 187.092 513.519C185.445 513.582 170.486 514.178 167.094 509.328C166.082 507.885 165.275 504.785 172.064 497.782C189.109 480.189 218.018 475.19 217.07 472.843C216.036 470.276 182.974 480.083 164.554 468.812L164.559 468.821Z" fill="#0055FF"/>
<path d="M380.253 263.437C395.889 255.486 416.467 257.28 417.27 260.113C417.624 261.361 413.923 262.067 407.733 266.11C400.668 270.724 389.368 280.329 391.962 284.452C395.05 289.358 419.011 288.444 427.255 278.798C430.298 275.241 430.343 271.494 432.03 271.532C434.778 271.6 439.825 281.673 435.327 287.649C430.348 294.264 417.356 290.923 413.928 296.987C411.461 301.347 415.134 308.448 420.517 310.229C428.579 312.902 438.188 302.891 440.324 304.464C443.049 306.469 431.935 326.025 419.206 325.318C412.459 324.946 405.865 318.911 403.571 316.813C398.623 312.288 396.873 308.118 394.247 308.397C391.223 308.719 391.608 314.458 388.339 315.05C384.198 315.798 376.39 307.89 378.548 304.126C380.825 300.155 392.919 303.031 394.125 299.952C395.15 297.338 387.962 291.362 380.521 291.316C372.758 291.269 369.552 297.706 366.11 296.543C361.711 295.054 361.298 282.65 368.078 273.308C368.826 272.276 372.49 267.392 380.258 263.437H380.253Z" fill="#0055FF"/>
<path d="M455.435 709.743C454.016 713.253 453.993 718.624 456.95 722.105C462.105 728.17 472.943 724.494 473.732 726.935C474.472 729.218 466.114 735.968 456.374 735.029C446.751 734.099 441.695 726.237 439.464 727.895C436.852 729.836 440.316 743.204 449.331 749.129C457.049 754.204 465.443 751.595 466.114 753.959C466.531 755.431 463.584 757.52 451.399 763.695C436.38 771.307 431.778 772.741 431.238 776.957C430.739 780.873 433.913 785.843 437.854 787.915C445.463 791.916 451.191 782.603 464.495 781.275C481.391 779.592 495.34 792.301 497.195 789.311C498.623 787.006 489.073 781.495 486.91 770.588C485.137 761.648 488.729 751.083 495.481 748.537C502.378 745.936 509.856 752.733 510.704 751.299C511.964 749.167 496.483 732.403 486.407 735.359C481.491 736.801 480.348 742.202 479.015 741.576C476.625 740.455 477.56 721.796 487.654 716.827C493.472 713.964 499.199 717.187 499.757 715.457C500.646 712.695 487.187 700.93 472.463 701.353C469.914 701.424 458.659 701.746 455.43 709.735L455.435 709.743Z" fill="#0055FF"/>
<path d="M319.49 676.929C315.772 678.591 313.019 675.627 305.945 674.73C293.47 673.148 283.997 680.08 283.177 678.866C282.469 677.822 290.301 673.884 298.363 665.739C303.288 660.765 310.48 653.5 307.881 649.296C305.918 646.12 298.549 644.986 294.758 647.283C291.121 649.482 291.684 654.282 290.65 654.236C289.326 654.172 285.866 646.187 289.498 640.63C294.568 632.87 310.212 634.798 310.575 630.688C310.756 628.645 307.047 626.382 304.145 625.604C299.048 624.242 294.282 626.877 294.114 626.547C293.847 626.006 304.966 621.65 304.966 621.65C316.361 617.188 318.883 616.651 320.488 616.368C325.816 615.425 332.373 614.262 335.235 617.323C337.375 619.616 336.844 623.629 335.04 626.133C333.14 628.772 330.673 628.569 326.011 631.161C324.288 632.121 319.109 635.001 316.57 639.531C313.672 644.695 313.586 653.106 318.266 655.424C322.764 657.653 331.035 653.948 333.57 648.987C335.212 645.773 333.951 643.007 335.575 642.411C337.751 641.611 343.22 645.422 343.193 649.067C343.175 651.478 340.762 652.248 334.536 657.754C331.108 660.786 329.099 662.563 327.095 665.1C321.88 671.706 323.19 675.267 319.49 676.921V676.929Z" fill="#0055FF"/>
<path d="M80.0145 307.576C80.1324 310.481 61.6173 311.386 60.7421 318.855C60.2569 322.978 65.236 328.413 69.6981 328.303C73.1807 328.218 74.0695 324.81 80.0372 320.982C85.8551 317.248 91.859 316.089 92.2717 317.244C92.7977 318.72 83.4563 322.077 79.951 332.143C78.255 337.019 77.593 344.42 80.4453 347.275C85.2565 352.092 96.9515 340.842 98.3345 343.232C99.5952 345.401 92.3352 358.833 82.5312 359.945C74.9629 360.804 68.705 353.999 66.3515 351.441C60.7966 345.401 61.4405 341.468 56.3027 337.696C51.5776 334.232 44.0999 332.469 41.3927 336.275C38.0869 340.927 42.0638 353.686 48.1176 356.084C52.3167 357.746 56.7017 354.096 56.8106 354.435C56.9466 354.875 49.673 361.502 39.7648 362.221C37.5745 362.381 25.1994 363.278 18.6786 352.895C17.3817 341.71 16.8602 334.272 18.6786 333.21C21.0684 331.815 23.1407 348.095 28.4871 346.712C32.5048 345.672 35.8876 335.797 33.4979 330.557C30.5594 324.116 20.039 327.152 19.8712 325.067C19.6445 322.2 39.1299 312.41 48.3716 321.304C50.5482 323.401 52.2532 326.624 53.1556 326.044C54.6974 325.055 49.7229 315.653 52.3439 309.83C56.6655 300.217 79.8966 304.336 80.0281 307.576H80.0145Z" fill="#0055FF"/>
<path d="M2.8816 433.368C4.23747 433.148 1.6645 443.315 11.7451 450.618C13.0873 451.591 21.2769 457.529 25.8842 454.979C30.0697 452.665 30.1105 444.008 26.1381 438.921C22.0025 433.626 14.5702 433.554 14.7742 432.425C15.0191 431.05 26.3331 429.024 35.2346 434.323C42.6624 438.743 47.51 447.73 45.7143 454.835C44.694 458.865 41.7736 461.36 42.9073 462.6C44.1271 463.936 49.3465 463.044 52.1807 460.278C59.0779 453.558 49.5052 438.104 52.6206 436.637C55.4819 435.284 64.9095 447.721 65.567 448.597C73.0039 458.493 78.9624 466.423 75.6748 473.232C73.2488 478.248 66.4876 481.246 61.2999 481.927C54.6385 482.807 51.0334 479.817 49.0518 481.69C46.4579 484.139 49.0971 492.559 55.2325 496.649C62.683 501.618 72.0063 498.023 72.6184 499.977C73.3168 502.214 62.1434 510.228 52.6976 507.577C43.855 505.094 39.7466 494.166 38.6946 491.371C36.2867 484.972 37.5609 482.045 34.2053 478.975C30.1105 475.232 22.2383 474.133 19.0686 476.949C14.7924 480.751 18.3884 492.288 25.6529 497.647C29.1219 500.205 32.8993 500.962 32.6907 501.901C32.3959 503.225 24.4512 503.593 19.9483 502.426C-2.83389 496.505 -1.46499 432.966 1.88159 432.425L2.8816 433.368Z" fill="#0055FF"/>
<path d="M199.621 209.32C202.192 214.331 199.095 223.035 193.417 225.889C183.564 230.85 169.783 216.264 165.819 220.468C163.23 223.217 166.599 232.136 171.388 237.342C179.437 246.096 191.626 244.498 193.213 244.261C198.532 243.474 201.362 241.106 201.879 241.867C202.718 243.098 196.9 251.51 187.776 254.288C175.365 258.069 162.219 249.797 158.89 247.703C150.288 242.29 146.642 236.365 144.978 237.456C143.101 238.687 145.191 247.856 150.66 254.656C155.893 261.169 159.938 260.179 167.992 267.758C173.429 272.875 178.643 279.963 177.514 281.537C176.127 283.474 167.316 273.992 153.354 271.48C140.647 269.192 138.399 280.851 122.882 279.21C116.424 278.529 105.731 271.898 98.8152 263.275C94.276 257.612 91.596 248.905 94.2578 246.185C96.3438 244.049 100.693 246.65 117.108 252.157C127.388 255.604 132.544 257.304 133.36 256.124C136.126 252.14 119.82 228.41 106.674 229.34C101.531 229.704 98.2619 233.739 98.0488 233.434C97.7087 232.952 105.463 222.079 117.634 220.886C124.958 220.167 127.751 223.559 137.682 222.477C141.391 222.071 149.223 221.216 149.794 217.583C150.678 211.959 133.319 205.061 134.131 201.145C134.771 198.083 145.79 200.371 171.393 202.879C190.914 204.79 197.263 204.71 199.621 209.32Z" fill="#0055FF"/>
<path d="M342.382 143.71C343.32 144.066 315.4 153.317 321.735 159.094C326.41 163.357 342.236 163.619 347.623 159.221C352.648 155.119 345.038 149.87 349.156 144.787C356.484 135.737 391.551 138.858 391.882 140.482C392.086 141.471 379.085 140.609 372.079 146.584C368.542 149.6 369.73 151.634 367.249 161.01C364.542 171.253 363.073 176.413 357.604 178.341C350.045 181.005 340.526 176.417 338.477 178.557C336.822 180.286 341.17 185.205 347.26 186.529C352.902 187.751 356.702 185.163 364.705 183.454C380.073 180.177 395.908 183.357 396.067 184.634C396.226 185.869 381.887 186.173 363.558 192.505C354.901 195.495 353.881 196.882 354.135 197.757C355.119 201.179 376.518 200.235 377.357 203.082C378.45 206.769 350.444 227.216 347.26 227.71C325.748 231.068 311.509 215.084 306.063 213.071C299.143 210.512 294.305 205.907 295.651 204.503C297.257 202.824 306.299 207.146 316.579 205.171C323.667 203.809 330.854 199.546 330.088 195.562C329.117 190.521 315.472 186.212 305.17 187.489C292.568 189.049 288.255 198.556 284.764 197.546C281.612 196.628 280.887 187.637 288.287 182.748C295.334 178.096 304.975 180.303 309.673 175.516C312.384 172.754 311.028 170.132 310.82 166.466C309.976 151.778 336.929 143.351 337.882 143.71H342.382Z" fill="#0055FF"/>
<path d="M546.296 181.682C548.926 181.97 546.731 187.907 552.844 192.306C559.388 197.017 573.209 198.353 579.558 194.526C587.956 189.464 577.882 176.249 583.882 174.21C588.77 172.548 602.367 179.635 605.723 186.795C609.192 194.196 603.038 203.048 597.96 210.352C594.314 215.596 591.965 217.3 593.23 218.459C596.155 221.149 615.336 218.002 620.329 210.039C623.508 204.968 619.672 199.977 621.472 199.571C623.662 199.081 631.158 206.034 633.171 214.289C633.579 215.964 636.454 225.885 633.171 233.548C630.636 239.461 622.587 248.659 605.02 254.394C587.951 259.968 570.892 253.95 566.326 259.913C563.369 263.774 568.593 268.803 566.838 269.374C564.516 270.126 547.434 266.041 549.579 259.913C550.577 257.058 559.301 252.368 573.5 246.485C592.287 238.704 592.917 237.405 592.704 236.572C591.924 233.532 578.243 230.474 568.933 233.548C561.156 236.12 560.195 241.719 556.776 241.279C552.899 240.78 548.708 232.885 552.762 228.013C556.943 222.988 566.571 225.166 572.964 219.241C576.075 216.361 578.225 211.743 575.658 209.578C571.581 206.144 554.862 208.279 549.579 214.619C546.396 218.433 548.119 222.857 547.044 222.908C545.965 222.959 544.655 218.48 541.512 210.584C538.125 202.067 537.871 202.811 537.458 200.777C535.472 190.969 542.868 181.301 546.292 181.674L546.296 181.682Z" fill="#0055FF"/>
<path d="M1298.98 242.447C1303.3 245.669 1306.44 248.012 1307.6 251.561C1309.68 257.951 1304 264.231 1301.49 263.301C1299.62 262.607 1300.87 258.391 1297.09 253.734C1294.36 250.385 1289.55 247.437 1284.67 247.386C1279.5 247.331 1274.46 250.537 1274.5 255.21C1274.54 261.203 1282.9 266.553 1287.33 268.536C1292.64 270.913 1296.96 270.537 1297.09 271.184C1297.22 271.89 1292.3 273.222 1286.33 272.169C1278.51 270.791 1273.26 266.092 1272.09 267.348C1270.81 268.714 1276.23 273.742 1274.92 276.838C1273.46 280.306 1264.32 279.325 1262.75 276.741C1261.52 274.728 1265.34 272.469 1263.82 267.767C1263.58 267.014 1263.31 266.21 1262.56 265.559C1259.71 263.072 1252.47 264.946 1252.09 268.397C1251.75 271.467 1257.25 274.542 1256.64 275.641C1255.89 276.978 1246.88 274.038 1241.76 267.631C1240.71 266.329 1239.29 264.548 1239.69 263.182C1240.2 261.474 1243.18 261.706 1249.56 261.093C1255.79 260.493 1258.91 260.167 1259.37 258.814C1260.39 255.785 1253.86 248.444 1249.33 248.384C1246.59 248.346 1245.23 250.973 1245.12 250.867C1244.93 250.698 1248 243.834 1253.77 243.965C1258.71 244.079 1261.24 249.213 1266.27 248.845C1269.24 248.63 1271.83 246.6 1271.44 244.866C1271.09 243.28 1268.36 242.392 1268.47 241.774C1268.64 240.81 1275.12 244.028 1280.54 242.476C1285.25 241.131 1284.76 237.456 1288.78 237.321C1291.97 237.211 1294.92 239.419 1298.99 242.451L1298.98 242.447Z" fill="#0055FF"/>
<path d="M720.491 196.145C712.81 194.118 704.067 182.695 703.529 174.51C703.355 171.902 704.035 169.93 705.787 168.052C710.688 163.632 718.448 154.045 710.276 151.054C700.061 147.315 673.054 126.554 675.276 114.054C677.498 101.554 703.529 97.5539 703.529 80.0539C703.529 66.0539 659.138 52.8872 636.943 48.0538L789.72 48.0539C796.28 53.3872 805.463 67.8539 789.72 83.0539C770.042 102.054 743.053 102.227 750.536 119.21C756.522 132.797 759.146 138.537 765.951 138.537C769.284 143.892 755.752 160.258 760.248 168.052C763.15 173.083 771.77 171.433 775.863 170.649L775.873 170.647C786.818 168.545 787.542 162.617 795.563 160.952C808.892 158.182 823.826 171.019 823.782 171.841C823.756 172.359 817.809 167.741 812.267 169.113C798.099 172.622 796.376 212.901 801.771 217.633C803.365 219.035 807.606 214.677 816.027 205.907C829.471 191.898 832.305 186.538 835.819 188.852C840.3 191.796 843.08 205.357 842 215.209C840.352 230.211 834.844 245.688 828.609 249.054C813.63 257.15 802.57 239.19 790.906 247.183C778.088 255.963 772.709 273.838 770.042 271.554C767.874 269.699 771.064 256.607 773.419 247.212C776.908 233.297 781.716 233.233 782.971 221.898C784.286 210.061 780.604 196.052 777.881 194.968C775.468 194.007 775.477 203.907 770.042 214.897L770.04 214.902C767.933 219.16 759.628 235.943 744.407 235.065C733.215 234.421 721.849 224.423 721.931 222.336C721.98 221.046 726.411 223.422 732.405 222.594C734.195 222.35 747.801 220.16 750.536 204.55C752.164 195.266 749.962 181.145 745.537 178.131C738.766 173.524 733.827 199.67 720.491 196.145Z" fill="#0055FF"/>
</svg>
