<svg width="332" height="314" viewBox="0 0 332 314" fill="none" xmlns="http://www.w3.org/2000/svg">
<path d="M183.146 215.865C214.403 256.529 255.998 313.376 255.998 313.376C255.998 313.376 195.371 193.363 223.343 185.374C250.801 177.523 328.367 190.861 331.152 191.336C327.606 190.583 206.351 164.597 214.323 134.395C222.333 104.021 269.202 40.262 270.468 39.4541C269.123 40.17 206.579 102.021 180.242 98.9458C147.529 95.1288 136.829 5.50662 137.338 -1.03879e-05C136.728 4.48744 146.371 88.1134 124.543 100.079C114.822 105.407 4.29703 74.4445 3.22899 73.8997C4.14045 74.7206 90 99.7975 89.1274 130.469C88.2391 161.445 1.07431 191.884 -4.90314e-05 192.642C1.32558 192.072 92.2613 161.346 104.455 195.749C116.729 230.398 106.235 276.134 106.235 276.134C106.235 276.134 152.113 175.479 183.146 215.865ZM121.224 156.969C118.177 145.927 126.186 134.854 139.103 132.235C152.019 129.617 164.967 136.441 168.014 147.482C171.061 158.524 163.057 169.596 150.135 172.216C137.212 174.835 124.27 168.01 121.224 156.969Z" fill="#FF0C00"/>
</svg>
