<svg width="1044" height="931" viewBox="0 0 1044 931" fill="none" xmlns="http://www.w3.org/2000/svg">
<path d="M481.225 918.154L433.019 728.898C430.066 717.331 414.503 712.588 404.367 720.204L237.881 844.507C223.994 854.925 203.642 842.136 209.787 826.903L283.453 644.33C287.923 633.193 277.707 621.697 264.538 623.134L49.4467 647.132C31.4892 649.144 22.0714 628.594 36.4375 618.751L208.67 500.844C219.205 493.659 217.529 479.001 205.557 473.9L10.0998 389.978C-6.26153 382.936 -1.7123 361.093 16.325 359.8L232.374 343.993C245.623 343.059 252.965 329.91 246.022 319.779L132.291 154.522C122.793 140.727 139.793 124.488 155.755 132.176L347.063 223.427C358.795 229.032 372.921 221.559 373.161 209.703L377.231 15.6339C377.551 -0.604429 401.653 -5.99309 410.513 8.16154L516.342 177.586C522.807 187.933 539.248 188.507 546.591 178.664L667.185 17.3587C677.242 3.8507 700.786 10.9639 699.668 27.2022L686.42 220.984C685.622 232.839 699.03 241.246 711.241 236.576L910.131 159.264C926.731 152.798 942.215 170.185 931.52 183.262L803.423 339.825C795.602 349.382 801.827 363.034 814.916 364.902L1028.89 396.157C1046.77 398.743 1049.32 420.873 1032.4 426.693L830.08 496.389C817.709 500.628 814.756 515.142 824.573 523.045L985.712 652.88C999.2 663.73 987.947 683.56 970.228 680.255L757.931 640.953C744.921 638.582 733.748 649.288 737.18 660.712L794.325 847.956C799.113 863.619 777.724 874.828 764.794 863.475L609.961 727.605C600.463 719.271 584.581 722.863 580.59 734.215L515.624 919.375C510.197 934.823 485.375 933.961 481.385 918.154H481.225Z" fill="#0055FF"/>
</svg>
