<svg width="401" height="249" viewBox="0 0 401 249" fill="none" xmlns="http://www.w3.org/2000/svg">
<path d="M287.978 248H128.236C77.6269 232.657 1.51928 194.297 1.70511 156.15C1.92192 112.031 50.7349 69.4328 74.4599 0H321.188C350.821 67.1637 399.929 115.187 399.48 160.755C399.1 199.189 333.051 223.361 287.978 248Z" fill="black"/>
<path d="M382.051 102.21C408.108 152.166 401.74 171.63 385.932 188.868C375.386 200.369 349.205 218.5 349.205 218.5C349.205 218.5 305.893 238.78 287.676 248H128.144C106.983 241.341 58.1814 225.379 37.2048 209.5C13.5436 191.589 -16.0133 160.832 11.7071 119.032C11.7071 119.032 26.6761 163.89 54.3963 171.537C54.3963 171.537 91.1731 167.58 104.847 137.893C114.236 117.511 110.959 91.905 106.606 74.1261C99.7009 67.1392 96.5658 60.1143 99.8578 52.7634C99.8578 52.7634 110.392 39.0001 124.252 39C202.541 38.9996 188.563 131.266 188.563 131.266C191.782 164.915 231.919 173.338 254.537 141.971C270.878 119.31 252.535 68.9266 287.676 63.978C349.215 55.3122 382.051 102.21 382.051 102.21Z" fill="#0055FF"/>
<path d="M99.8578 52.7634C99.8578 52.7634 110.392 39.0001 124.252 39C202.541 38.9996 188.563 131.266 188.563 131.266M99.8578 52.7634C88.2153 78.761 156.962 100.68 188.563 131.266M99.8578 52.7634C99.8578 52.7634 120.925 102.988 104.847 137.893C91.1731 167.58 54.3963 171.537 54.3963 171.537C26.6761 163.89 11.7071 119.032 11.7071 119.032C-16.0133 160.832 13.5436 191.589 37.2048 209.5C58.1814 225.379 106.983 241.341 128.144 248H287.676C305.893 238.78 349.205 218.5 349.205 218.5C349.205 218.5 375.386 200.369 385.932 188.868C401.74 171.63 408.108 152.166 382.051 102.21C382.051 102.21 349.215 55.3122 287.676 63.978C252.535 68.9266 270.878 119.31 254.537 141.971C231.919 173.338 191.782 164.916 188.563 131.266" stroke="#0055FF"/>
</svg>
